<svg width="38" height="38" viewBox="0 0 38 38" fill="none" xmlns="http://www.w3.org/2000/svg">
<path d="M37.9235 22.4318C37.725 22.1874 37.5337 21.9693 37.3449 21.7632C37.2373 21.641 37.1321 21.5236 37.0269 21.4086C36.9217 21.2936 36.8141 21.1785 36.7112 21.0683C36.5152 20.8622 36.3167 20.6561 36.1207 20.4501C35.7333 20.0451 35.346 19.6401 34.9587 19.2328C34.1959 18.43 33.4571 17.644 32.7542 16.8485C32.5796 16.6496 32.4051 16.4507 32.2353 16.2494C32.1492 16.1488 32.0656 16.0481 31.9819 15.9499C31.9388 15.8996 31.8958 15.8492 31.8552 15.7965C31.8121 15.7438 31.7667 15.6911 31.7237 15.636C31.3722 15.2094 31.0183 14.7805 30.6597 14.3468C29.9448 13.4793 29.2203 12.5999 28.4719 11.7037C27.9244 11.0902 27.4031 10.4337 26.8867 9.73155C26.3726 9.03184 25.8681 8.2938 25.3588 7.54376C25.103 7.16755 24.8472 6.78893 24.5937 6.41272L24.4981 6.27374L24.4192 6.15393L24.3785 6.09402L24.3379 6.03172L24.2566 5.90711C24.2016 5.81845 24.1466 5.73218 24.094 5.64591C24.039 5.55486 23.9816 5.4638 23.9266 5.37274C23.8692 5.27929 23.8119 5.18583 23.7545 5.08998C23.6947 4.99413 23.6349 4.89589 23.5752 4.80004C23.5441 4.74971 23.513 4.70179 23.4819 4.65386C23.4508 4.60354 23.4197 4.55561 23.3886 4.50529C23.3552 4.45497 23.3241 4.40465 23.2906 4.35433C23.2572 4.304 23.2261 4.25608 23.1926 4.20336C22.9248 3.80079 22.6259 3.38623 22.2768 2.98126L22.4347 3.15619C22.461 3.18495 22.4873 3.2137 22.5112 3.24485L22.5853 3.33351C22.6857 3.45093 22.7766 3.56595 22.8698 3.68337C22.9152 3.74088 22.9583 3.79839 23.0037 3.8559L23.0706 3.94217C23.0922 3.97092 23.1137 3.99968 23.1328 4.02843L23.2571 4.20097L23.3767 4.36871L23.4365 4.45258L23.4939 4.53645L23.6086 4.70179C23.6804 4.80962 23.7545 4.91745 23.8262 5.02528C23.9625 5.22897 24.1012 5.43265 24.2374 5.63633C24.302 5.73218 24.369 5.82803 24.4335 5.91669C24.4981 6.01015 24.5602 6.09402 24.6224 6.18028C24.6965 6.28332 24.773 6.38637 24.8496 6.4894C24.9261 6.59245 25.0002 6.69788 25.0767 6.80092C25.378 7.21548 25.6721 7.63003 25.9662 8.04218C26.5519 8.8665 27.1282 9.68363 27.7116 10.472C28.2926 11.2604 28.8951 12.0392 29.512 12.806C30.1289 13.5728 30.7625 14.3276 31.4104 15.0704C31.573 15.255 31.7356 15.4419 31.8982 15.624L32.0201 15.7606L32.1373 15.89C32.2162 15.9762 32.2951 16.0625 32.374 16.1488C32.6944 16.4914 33.0243 16.8317 33.3639 17.172C33.7034 17.5122 34.0525 17.8501 34.4063 18.1904C34.7626 18.5307 35.1236 18.8733 35.4895 19.2208C35.8553 19.5682 36.2259 19.9181 36.5989 20.2775C36.7854 20.4597 36.9719 20.6394 37.1584 20.8215C37.3592 21.0204 37.5577 21.2265 37.7585 21.4421C37.7035 21.1905 37.6342 20.9365 37.5505 20.6825C37.529 20.6202 37.5074 20.5555 37.4835 20.4932C37.4716 20.462 37.4596 20.4309 37.4525 20.4021L37.4501 20.3926L37.4477 20.383C37.4477 20.3782 37.4429 20.371 37.4405 20.3638L37.4238 20.3183C37.3783 20.2009 37.3305 20.081 37.2779 19.9612C37.0675 19.4892 36.7902 19.0243 36.4291 18.5954C35.499 17.6153 34.612 16.7119 33.8086 15.8325C33.7106 15.7222 33.6101 15.6144 33.5121 15.5042C33.4165 15.3963 33.3184 15.2861 33.2228 15.1783L33.0817 15.0153L33.01 14.9339L32.9335 14.8452C32.8331 14.7254 32.7327 14.608 32.6322 14.4905C32.2329 14.0161 31.8408 13.5416 31.4559 13.0648C31.3172 13.1702 31.047 13.3763 30.9107 13.4793C30.1958 12.377 29.4594 11.3251 28.7277 10.2947C27.9985 9.26907 27.2477 8.2267 26.4611 7.16755C26.265 6.90156 26.0666 6.63797 25.8633 6.37198L25.5597 5.97181L25.4067 5.77292L25.2751 5.60279C25.1173 5.3991 24.9476 5.16427 24.7659 4.90787C24.5865 4.65147 24.3929 4.3711 24.1849 4.07397C23.9745 3.77683 23.7497 3.46531 23.4939 3.14181C23.238 2.81832 22.9559 2.48284 22.6235 2.14257C22.6044 2.121 22.5829 2.09944 22.5614 2.07787L22.4968 2.01317L22.3653 1.88617L22.3318 1.85502L22.3127 1.83824L22.2745 1.8023L22.1979 1.73281L22.1597 1.69926L22.1382 1.68249L22.1143 1.66331C22.0832 1.63696 22.0521 1.613 22.021 1.58664L21.9732 1.54829L21.9493 1.52913L21.9206 1.50756C21.8823 1.4788 21.8441 1.45245 21.8058 1.42609L21.7461 1.38774L21.715 1.36857L21.6791 1.34701C21.6313 1.31825 21.5858 1.2895 21.5356 1.26314C21.5117 1.24876 21.4878 1.23678 21.4615 1.2224C21.4328 1.20803 21.4041 1.19365 21.3755 1.17927C21.3181 1.15051 21.2607 1.12416 21.2033 1.10019L21.1818 1.09061L21.1555 1.08102L21.1052 1.06186C21.0718 1.04987 21.0383 1.03549 21.0024 1.02351C20.8733 0.975586 20.7084 0.930059 20.5529 0.898907L20.5242 0.891718L20.4932 0.886927L20.4286 0.874945C20.3856 0.867756 20.3425 0.862963 20.2995 0.855774C20.2565 0.850981 20.2134 0.846186 20.1704 0.841393C20.125 0.836601 20.0819 0.834209 20.0365 0.834209C19.948 0.829416 19.8572 0.829414 19.7687 0.83181C19.6802 0.836603 19.5894 0.841393 19.5009 0.853374C19.4555 0.858168 19.4148 0.865356 19.3718 0.872545C19.3287 0.879734 19.2881 0.886927 19.2451 0.894115C19.202 0.901304 19.1614 0.910887 19.1207 0.920471C19.0825 0.930058 19.0442 0.939642 19.006 0.951624C18.9677 0.961208 18.9295 0.973188 18.8912 0.98517C18.8529 0.99715 18.8147 1.00913 18.7812 1.02111C18.7143 1.04508 18.6473 1.07144 18.5828 1.10019C18.566 1.10738 18.5493 1.11457 18.5349 1.12176L18.4919 1.14093C18.4632 1.1553 18.4345 1.16729 18.4058 1.18167C18.3771 1.19605 18.3485 1.21042 18.3222 1.2248L18.2839 1.24637L18.248 1.26554C18.2002 1.2919 18.1524 1.32065 18.107 1.34941C18.0663 1.37577 18.0281 1.39972 17.9874 1.42848L17.93 1.46922L17.8798 1.50517C17.8463 1.52913 17.8129 1.55309 17.7818 1.57705L17.7005 1.64175L17.6598 1.6753L17.6264 1.70405L17.5594 1.76396L17.502 1.81668C17.4255 1.88617 17.3729 1.94128 17.3227 1.9916L17.2582 2.05631L17.2079 2.10902L17.1601 2.15934C17.1506 2.16893 17.1434 2.17851 17.1338 2.1857C17.1147 2.20487 17.0956 2.22165 17.0764 2.23603C16.7273 2.52358 16.3807 2.80873 16.0292 3.09628C15.6729 3.38863 15.3215 3.67858 14.9676 3.96373C14.6137 4.24889 14.2599 4.52925 13.9036 4.80243C13.5282 5.08519 13.1528 5.37035 12.7774 5.6555C12.8444 5.5285 12.8253 5.46859 12.7726 5.43265C12.7224 5.3967 12.6388 5.38952 12.5814 5.36795C12.567 5.37993 12.5551 5.39191 12.5407 5.40389C12.5527 5.39191 12.567 5.37993 12.5814 5.36795C12.4786 5.33201 12.4451 5.25532 12.799 4.92703C12.4475 5.25532 12.4786 5.33201 12.5814 5.36795C12.6698 5.28887 12.7583 5.20979 12.8468 5.13072C12.9353 5.05164 13.0261 4.97256 13.1146 4.89349C13.2867 4.74252 13.4589 4.59156 13.631 4.44299C13.9705 4.14825 14.3077 3.85351 14.6424 3.55877C14.9843 3.26163 15.3286 2.96449 15.6777 2.66496C15.8522 2.51639 16.0292 2.36782 16.2085 2.21925C16.297 2.14496 16.3878 2.07068 16.4763 1.9964C16.5552 1.9317 16.6341 1.867 16.713 1.8023C16.725 1.79272 16.7345 1.78313 16.7465 1.77355L16.7608 1.75917L16.7967 1.72322L16.9115 1.60581L16.9927 1.52433L17.043 1.4764L17.098 1.42609L17.1601 1.36857L17.1936 1.33982L17.2318 1.30627L17.306 1.24158C17.3371 1.21761 17.3658 1.19125 17.3968 1.16729L17.4423 1.13134L17.4949 1.09061C17.5307 1.06425 17.569 1.03549 17.6049 1.00913L17.6359 0.987568L17.6694 0.966003L17.7364 0.920471L17.8033 0.877338L17.8415 0.853374L17.8822 0.829412C17.9348 0.79826 17.9898 0.767115 18.0448 0.738359C18.1069 0.704811 18.1715 0.673658 18.2385 0.642508L18.2863 0.620937C18.303 0.613749 18.3174 0.60656 18.3365 0.596975C18.3747 0.580202 18.4106 0.565825 18.4489 0.549049C18.4871 0.534672 18.5254 0.520294 18.5636 0.505917L18.621 0.484352C18.6402 0.477163 18.6641 0.469976 18.6832 0.462788C18.7693 0.434032 18.8577 0.410067 18.9438 0.3885C18.9868 0.37652 19.037 0.366934 19.0849 0.357347C19.1327 0.347763 19.1805 0.338179 19.2283 0.328594C19.2761 0.321405 19.324 0.311823 19.3742 0.30703C19.4244 0.299841 19.477 0.295044 19.5272 0.290251C19.63 0.280666 19.7304 0.275875 19.8333 0.273479C19.9361 0.273479 20.0389 0.275879 20.1417 0.283068C20.168 0.285463 20.1943 0.285463 20.2182 0.287859L20.2923 0.295048C20.3425 0.299841 20.3903 0.307026 20.4406 0.314215C20.4908 0.321404 20.5386 0.328592 20.5864 0.338177C20.6366 0.347761 20.6797 0.357351 20.7251 0.366938C20.816 0.388504 20.9044 0.410067 20.9929 0.436426L21.0264 0.446009L21.055 0.455597L21.1148 0.47477C21.1531 0.489147 21.1937 0.501127 21.232 0.515505C21.2702 0.529882 21.3085 0.544258 21.3468 0.561031C21.3659 0.56822 21.3874 0.577805 21.4017 0.584993L21.4519 0.606564C21.5189 0.635319 21.5835 0.666468 21.648 0.700016L21.6958 0.723978L21.7197 0.73596L21.7413 0.747942L21.8225 0.793468C21.8775 0.824619 21.9301 0.85577 21.9827 0.889318L22.0019 0.9013L22.021 0.913282L22.0545 0.934851L22.1214 0.980379C22.1645 1.01153 22.2075 1.04029 22.2505 1.07384L22.2792 1.0954L22.3055 1.11696L22.3581 1.1601C22.394 1.18885 22.4275 1.21761 22.4634 1.24637L22.4896 1.26793L22.5112 1.2871L22.5542 1.32545C22.5829 1.3518 22.6116 1.37816 22.6403 1.40452L22.6833 1.44526L22.7024 1.46442C22.7933 1.55309 22.8818 1.64175 22.9702 1.73281C23.3121 2.08986 23.6015 2.4421 23.8573 2.77998C24.1131 3.11785 24.3379 3.43895 24.5411 3.74568C24.7443 4.04761 24.9261 4.33276 25.0982 4.59395C25.268 4.85515 25.4282 5.09477 25.574 5.29845C25.7533 5.54767 25.9351 5.79688 26.1144 6.0437C26.3057 6.30968 26.4946 6.57567 26.6858 6.84166C27.4414 7.89841 28.1754 8.92881 28.9214 9.90888C29.6674 10.8914 30.454 11.8714 31.2717 12.8515C30.4827 11.869 29.7248 10.8818 29.0027 9.88492C28.283 8.89286 27.5729 7.84329 26.8341 6.76737C26.6476 6.49659 26.4611 6.22581 26.277 5.95504L25.9924 5.54527L25.849 5.3392L25.7486 5.19062C25.6099 4.98454 25.4569 4.74492 25.2895 4.47893C25.1221 4.21295 24.9428 3.9254 24.742 3.61388C24.5387 3.30237 24.3163 2.97168 24.0581 2.62422C23.7999 2.27676 23.5058 1.91493 23.1567 1.5459C23.0659 1.45245 22.975 1.35899 22.8818 1.26793L22.8722 1.25835L22.8579 1.24397L22.8124 1.20083C22.7813 1.17208 22.7527 1.14572 22.7216 1.11696L22.6761 1.07623L22.6522 1.05466L22.6235 1.0307C22.5877 0.99955 22.5494 0.968397 22.5112 0.939642L22.4538 0.894115L22.4251 0.872545L22.3916 0.848583C22.3462 0.815035 22.3007 0.781492 22.2529 0.75034L22.1836 0.702414L22.1477 0.678452L22.1047 0.65209C22.0473 0.616146 21.9923 0.582598 21.9325 0.549049L21.8465 0.501123L21.8225 0.489143L21.7963 0.47477L21.7436 0.448408C21.6743 0.41486 21.605 0.38131 21.5332 0.350159L21.4806 0.326195L21.4185 0.302233C21.3778 0.28546 21.3372 0.271082 21.2941 0.254307C21.2511 0.237534 21.2105 0.22316 21.1698 0.21118L21.1077 0.18961L21.0742 0.180027L21.0383 0.170439C20.9451 0.141684 20.8494 0.117723 20.7514 0.0961571L20.6797 0.0793839C20.6557 0.0745926 20.6294 0.0697975 20.6031 0.0650043C20.5505 0.0554199 20.4979 0.0482273 20.4453 0.0386429C20.3927 0.0314541 20.3402 0.024271 20.2875 0.0194778C20.2612 0.0170822 20.2349 0.0146847 20.2086 0.0122871L20.1273 0.00749588C20.0174 0.000307083 19.9074 -0.00209045 19.7974 0.000307083C19.6874 0.00270271 19.5774 0.00989342 19.4698 0.0194778C19.4148 0.024271 19.3598 0.0314541 19.3072 0.0386429C19.2546 0.0458317 19.2044 0.0530205 19.1518 0.0626049C19.0992 0.0721912 19.049 0.0817776 18.9964 0.0937576L18.9199 0.110531C18.8936 0.115324 18.8721 0.122517 18.8482 0.12731C18.7549 0.151272 18.6617 0.177629 18.5684 0.20878L18.5349 0.220762L18.5039 0.232744L18.4417 0.254307C18.4011 0.268684 18.3604 0.28546 18.3197 0.302233C18.2791 0.319006 18.2385 0.335783 18.1978 0.352556C18.162 0.369331 18.1285 0.383709 18.0926 0.400482C18.0567 0.417255 18.0233 0.434032 17.9898 0.450806L17.9396 0.477161L17.8894 0.503523C17.832 0.534674 17.7722 0.568218 17.7148 0.601767L17.6718 0.628128L17.6336 0.65209L17.5618 0.697617L17.4901 0.745543L17.4542 0.769505L17.4231 0.791075C17.3825 0.81983 17.3442 0.848581 17.306 0.877338L17.2773 0.898907L17.251 0.920471L17.2032 0.958815C17.1721 0.985172 17.1386 1.01153 17.1075 1.03549L17.0286 1.10259L16.9904 1.13614L16.9569 1.16729L16.8923 1.2272L16.8373 1.27991L16.7847 1.33024L16.7011 1.4141L16.5863 1.53152L16.5648 1.55309L16.56 1.55788C16.5576 1.56028 16.5552 1.56267 16.5528 1.56267L16.5432 1.57226C16.5361 1.57705 16.5289 1.58424 16.5217 1.58904C16.5361 1.57705 16.4787 1.62258 16.4452 1.65133L16.3328 1.74239L16.1105 1.92451C15.9622 2.04672 15.8164 2.16653 15.6729 2.28874C15.3836 2.53316 15.0991 2.77519 14.8194 3.01961C14.2599 3.50605 13.7171 3.9877 13.1839 4.45976L12.9711 4.64907L12.7559 4.84316L12.5431 5.03726L12.3327 5.23136C12.053 5.49016 11.7804 5.74896 11.5102 6.00775C10.9722 6.52295 10.4558 7.02857 9.95128 7.5198L9.76241 7.70431L9.5783 7.88163L9.39897 8.05416L9.21248 8.23149C8.96143 8.46872 8.69363 8.72033 8.41388 8.98871C7.85678 9.52308 7.25186 10.1245 6.64933 10.8338L6.59194 10.9009L6.53695 10.968L6.42457 11.1046L6.36958 11.1717L6.32417 11.2292L6.23329 11.3419L6.05159 11.5695L5.87226 11.7971C5.75271 11.9481 5.63556 12.0991 5.5184 12.2524C5.40124 12.4034 5.28646 12.5568 5.1693 12.7077C4.70784 13.314 4.25835 13.9226 3.8208 14.5265C3.53866 14.9147 2.97676 15.6935 2.69463 16.0817C2.52008 16.5418 2.33122 16.9851 2.12798 17.4164C2.07777 17.5242 2.02517 17.6297 1.97257 17.7351L1.93192 17.8142L1.88169 17.9076L1.78129 18.0945L1.39873 18.8086C1.15485 19.2663 0.922908 19.6904 0.690982 20.0786C0.461447 20.4668 0.231926 20.8167 0 21.1234C0.114768 21.1522 0.222353 21.2097 0.325165 21.2864C0.427978 21.363 0.528399 21.4589 0.624039 21.5595C0.817709 21.7608 1.0042 21.9861 1.217 22.1179C1.32459 22.1826 1.43698 22.2233 1.56131 22.2209C1.62348 22.2185 1.69043 22.2089 1.75738 22.1826C1.82672 22.1586 1.89844 22.1227 1.97495 22.0699C2.12797 21.9645 2.29535 21.8016 2.48184 21.5548C2.66834 21.3103 2.86917 20.9844 3.1011 20.5579C3.24455 20.6538 3.53147 20.8455 3.67493 20.9413C3.50039 21.399 3.36889 21.8399 3.26846 22.2521C3.16804 22.6666 3.09393 23.0548 3.04611 23.4167C3.03415 23.5077 3.0222 23.5964 3.01503 23.6826C3.00786 23.7689 2.99828 23.8528 2.9935 23.9366C2.98633 24.0205 2.98394 24.0996 2.98155 24.1787C2.97915 24.2577 2.97677 24.3344 2.97916 24.4087C2.97916 24.483 2.98396 24.5549 2.98874 24.6244C2.99352 24.6939 3.00069 24.761 3.00786 24.8257C3.02699 24.9551 3.05329 25.0749 3.09155 25.1803C3.17762 25.3816 3.30196 25.5374 3.46694 25.6404C3.50758 25.6667 3.55061 25.6883 3.59604 25.7075C3.61994 25.7171 3.64147 25.7267 3.66538 25.7338C3.67734 25.7386 3.68929 25.741 3.70125 25.7434C3.71559 25.7458 3.72755 25.7482 3.7419 25.7482C3.85188 25.7626 3.97381 25.7578 4.1101 25.7314C4.38028 25.6787 4.6959 25.5421 5.04737 25.3145C5.39406 25.0868 5.76706 24.7705 6.14006 24.3776C6.19266 24.32 6.24047 24.2673 6.29307 24.2098C6.34328 24.1547 6.39349 24.0972 6.44131 24.0421C6.53695 23.9319 6.63498 23.8168 6.72823 23.709C6.91712 23.4861 7.09166 23.2705 7.26142 23.0572C7.42161 22.8583 7.58421 22.657 7.74919 22.4534C7.78745 22.4078 7.8257 22.3599 7.86395 22.3144L7.92135 22.2449C7.94526 22.2161 7.96917 22.185 7.99307 22.1538C8.08871 22.0316 8.18674 21.9094 8.28238 21.7872C9.05227 20.7975 9.78871 19.748 10.5275 18.7032C10.8957 18.1808 11.2663 17.6584 11.6417 17.148C11.735 17.021 11.8306 16.894 11.9238 16.767C12.0195 16.6424 12.1127 16.5154 12.2084 16.3908L12.3518 16.2039L12.4236 16.1104L12.4594 16.0649L12.4762 16.0457L12.4905 16.0289C12.5264 15.9834 12.5623 15.9379 12.6005 15.8924L12.7177 15.7534C13.0381 15.3796 13.4326 14.9842 13.8892 14.5624C14.1188 14.3516 14.3627 14.1335 14.6185 13.9059C14.75 13.7884 14.8815 13.6734 15.0106 13.5584C15.0776 13.4985 15.1445 13.441 15.2091 13.3811C15.2736 13.326 15.3358 13.2708 15.4004 13.2157C15.9455 12.7221 16.4739 12.2405 16.9856 11.778C17.2414 11.5479 17.4949 11.3203 17.7459 11.0998L18.1189 10.7739L18.4895 10.4552C19.0371 9.98556 19.5655 9.52069 20.0771 9.07019L20.8375 8.39923L21.2105 8.07094L21.3946 7.908L21.4854 7.82652L21.5309 7.78578L21.5428 7.7762L21.5643 7.75943L21.6169 7.7139C21.7054 7.63721 21.7939 7.56054 21.8776 7.48146C21.9612 7.40238 22.0449 7.31851 22.1262 7.23464L22.186 7.17234L22.2434 7.11004L22.2577 7.09566L22.2649 7.08847L22.2792 7.07169L22.2936 7.05492L22.3032 7.04294C22.3175 7.02617 22.3223 7.02138 22.3247 7.01658C22.327 7.01898 22.3247 7.01658 22.3175 7.0094L22.3032 6.99501L22.2482 6.9423L22.033 6.72663C21.8895 6.58286 21.7484 6.43669 21.6074 6.29051L21.5548 6.2354L21.5285 6.20904L21.5141 6.19466L21.4519 6.13236L21.33 6.00775C21.2487 5.92388 21.1674 5.84001 21.0885 5.75375L20.969 5.62435L20.8877 5.54048C20.8351 5.48537 20.7825 5.42785 20.7299 5.37034L20.6534 5.28408L20.6151 5.24095L20.5864 5.20979C20.5506 5.16906 20.5123 5.12832 20.4764 5.08519C20.4406 5.04445 20.4047 5.00132 20.3712 4.95819C20.3449 4.92703 20.3186 4.89588 20.2923 4.86234C20.266 4.82879 20.2397 4.79764 20.2158 4.76409L20.2062 4.75211L20.1991 4.74252L20.1847 4.72335L20.156 4.68501C20.1369 4.65866 20.1178 4.63229 20.101 4.60594L20.0867 4.58676L20.0747 4.57239L20.0532 4.54124C20.0389 4.51967 20.0245 4.49811 20.0126 4.47654L20.003 4.45976L19.9958 4.44778L19.9791 4.42382C19.9695 4.40704 19.96 4.39027 19.9504 4.3711L19.9432 4.35673L19.9385 4.34714L19.9289 4.32796C19.9217 4.31359 19.9145 4.29922 19.9098 4.28484C19.9074 4.27765 19.905 4.27285 19.9026 4.26806L19.8954 4.25129C19.8596 4.16262 19.8643 4.12668 19.8643 4.14106C19.8643 4.15544 19.8524 4.22253 19.8046 4.32317L19.795 4.33995L19.7902 4.34953C19.7878 4.35193 19.7878 4.35433 19.7854 4.35912C19.7783 4.3735 19.7711 4.39027 19.7615 4.40465C19.7448 4.4358 19.7281 4.45737 19.7041 4.4957C19.6826 4.52925 19.6587 4.5628 19.6348 4.59395C19.6085 4.63229 19.5774 4.67063 19.5487 4.70658C19.5344 4.72575 19.5176 4.74012 19.5009 4.75929C19.4842 4.78086 19.465 4.80243 19.4483 4.8216C19.4124 4.86234 19.3742 4.90307 19.3359 4.93901L19.3335 4.94141C15.4888 8.94798 18.2672 6.05328 17.4088 6.94709H17.4112L17.4136 6.94949L17.4184 6.95428L17.4303 6.96147C17.4447 6.97105 17.4614 6.98304 17.4781 6.99262C17.4949 7.007 17.514 7.02137 17.5331 7.03575L17.5618 7.05732L17.5929 7.08368C17.6144 7.10285 17.6359 7.11962 17.6575 7.13879L17.7292 7.20349L17.7651 7.23704C17.777 7.24663 17.7913 7.2634 17.8033 7.27538C17.9492 7.41436 18.1093 7.59169 18.2839 7.80735C18.4584 8.02302 18.6425 8.27223 18.8434 8.5478C19.0466 8.82577 19.2642 9.13249 19.5152 9.47036L19.6109 9.59737L19.6587 9.66206L19.697 9.70999C19.7472 9.77469 19.7974 9.83699 19.8476 9.90169C19.948 10.0311 20.0461 10.1605 20.1465 10.2899C20.9451 11.3371 21.7413 12.4609 22.5925 13.6015C22.8052 13.8867 23.0204 14.1742 23.238 14.457C23.4556 14.7398 23.6732 15.0201 23.8955 15.2981C24.3379 15.854 24.785 16.398 25.2393 16.9299C25.6936 17.4619 26.1526 17.9795 26.6189 18.4803C26.8532 18.7319 27.0875 18.9788 27.3242 19.2208C27.384 19.2831 27.4462 19.3454 27.5059 19.4077C27.5681 19.4724 27.6303 19.5347 27.6948 19.597C27.8192 19.724 27.9459 19.8438 28.0726 19.9684C28.4241 20.3327 28.8043 20.7879 29.1892 21.2624C29.5718 21.7369 29.9591 22.2353 30.3249 22.6954C30.6907 23.1555 31.0327 23.5796 31.3411 23.9103C31.4965 24.0756 31.64 24.2194 31.7786 24.3344C31.8456 24.3919 31.9125 24.4399 31.9771 24.4806C32.0082 24.5022 32.0416 24.5189 32.0727 24.5357C32.0871 24.5429 32.1038 24.5525 32.1182 24.5597C32.1253 24.5645 32.1325 24.5669 32.1421 24.5717C32.1516 24.5764 32.1588 24.5812 32.1684 24.5836C32.2066 24.6076 32.2401 24.6244 32.2736 24.6411C32.3071 24.6579 32.3381 24.6699 32.3692 24.6819C32.4314 24.7058 32.4888 24.7226 32.5438 24.7322C32.6537 24.7538 32.7518 24.749 32.8426 24.7226C33.022 24.6747 33.1702 24.5453 33.3065 24.3871C33.2539 24.3176 33.1989 24.2482 33.1439 24.1787C33.0889 24.1092 33.0339 24.0421 32.9741 23.9702L32.7924 23.7497C32.7327 23.6778 32.6729 23.606 32.6131 23.5317C32.3716 23.2417 32.1253 22.9542 31.8743 22.6642C31.3722 22.0843 30.8581 21.5068 30.3369 20.9149C30.0763 20.6202 29.8156 20.3207 29.555 20.0187C29.2944 19.7168 29.0338 19.4125 28.7756 19.101C28.6465 18.9476 28.5173 18.7871 28.3882 18.6313C28.2639 18.4779 28.1396 18.327 28.0176 18.1736C27.7713 17.8693 27.5251 17.5626 27.2788 17.2582C26.6547 16.525 26.0355 15.7845 25.421 15.0345C25.1149 14.6607 24.8089 14.2821 24.5052 13.9011C24.2016 13.5225 23.8979 13.1367 23.5991 12.7533C23.0013 11.9888 22.4155 11.2292 21.8321 10.4888C21.5404 10.1198 21.2463 9.75312 20.9522 9.39368L20.7323 9.1253L20.6199 8.99111L20.4884 8.82577L20.4238 8.74429L20.3617 8.66521L20.2373 8.50467L20.003 8.19794C20.0819 8.29619 20.1632 8.39444 20.2421 8.49268L20.3688 8.64605L20.498 8.80181L20.6318 8.95996L20.6486 8.97913L20.6629 8.9959L20.6916 9.02705L20.749 9.09175C20.8231 9.17802 20.8996 9.26189 20.9737 9.35055C21.2726 9.69561 21.5691 10.0527 21.8656 10.4145C22.4562 11.1382 23.042 11.8906 23.6397 12.6574C23.9386 13.0408 24.2398 13.4266 24.5411 13.8124C24.8424 14.1982 25.146 14.5816 25.4497 14.965C26.057 15.7318 26.6691 16.4962 27.2836 17.2582C27.537 17.5554 27.7905 17.8525 28.0463 18.1496L28.4289 18.593C28.5628 18.7439 28.6943 18.8997 28.8281 19.0482C29.0935 19.3502 29.3637 19.6425 29.6315 19.9325C29.8993 20.2224 30.1695 20.51 30.4373 20.7903C30.9729 21.3559 31.5037 21.9094 32.0249 22.4629C32.2831 22.7385 32.5414 23.0141 32.7924 23.292C32.9192 23.431 33.0435 23.57 33.1678 23.709L33.3519 23.9151C33.4117 23.9822 33.4691 24.0493 33.5264 24.1164C33.6364 23.9702 33.7488 23.8192 33.8779 23.697C34.0094 23.5748 34.1601 23.4837 34.3513 23.4526C34.3513 23.4526 34.3872 23.4981 34.4422 23.5748C34.4972 23.6515 34.5761 23.7569 34.6574 23.8743C34.8248 24.1116 35.0113 24.4015 35.1189 24.5932C35.3221 24.7346 35.5062 24.8496 35.6712 24.9598C35.7549 25.015 35.8338 25.0701 35.9079 25.13C35.982 25.1899 36.0513 25.2546 36.1111 25.3385C36.1709 25.4223 36.2163 25.5278 36.2307 25.6476C36.2474 25.7674 36.233 25.8968 36.2091 26.007C36.1876 26.1172 36.1613 26.2131 36.1565 26.2922C36.1494 26.3736 36.1541 26.4431 36.1852 26.5006C36.2163 26.5582 36.2713 26.6013 36.3574 26.6253C36.3789 26.63 36.4028 26.6348 36.4267 26.6372C36.453 26.6396 36.4793 26.642 36.508 26.6396C36.5678 26.6348 36.6371 26.6229 36.7112 26.5989C36.7854 26.5725 36.8691 26.5342 36.9528 26.4815C37.0364 26.4288 37.1249 26.3593 37.2038 26.2802C37.2253 26.261 37.2445 26.2395 37.2636 26.2155C37.2731 26.2035 37.2827 26.1939 37.2947 26.1819C37.3042 26.1724 37.3138 26.1604 37.3234 26.1484C37.3592 26.1053 37.3975 26.0573 37.431 26.0046C37.4955 25.9136 37.5577 25.8009 37.6055 25.7051C37.7035 25.5014 37.7705 25.3001 37.8159 25.1228C37.8637 24.9455 37.8948 24.7825 37.9187 24.6292C37.9259 24.5932 37.9307 24.5549 37.9354 24.5165C37.9402 24.4806 37.945 24.4446 37.9498 24.4087C37.9546 24.3752 37.9569 24.3392 37.9617 24.3033C37.9641 24.2697 37.9689 24.2362 37.9713 24.2002C37.9737 24.1667 37.9761 24.1331 37.9809 24.0996C37.9833 24.0684 37.9857 24.0349 37.988 24.0013C37.9928 23.939 37.9952 23.8743 38 23.8144C37.9952 23.6994 37.9904 23.582 37.9833 23.4598C37.9785 23.3448 37.9713 23.2297 37.9641 23.1171C37.957 23.0045 37.9474 22.8919 37.9378 22.7792C37.9474 22.657 37.9354 22.5444 37.9235 22.4318Z" fill="#CBA265"/>
<path d="M32.8699 34.1634C32.6332 34.0005 32.4204 33.8807 32.2482 33.7896C32.1502 33.7345 32.0665 33.689 32.0043 33.6578C31.9709 33.6411 31.9517 33.6339 31.935 33.6315L31.8083 33.5524C31.7246 33.4997 31.6409 33.447 31.5596 33.3942C31.4759 33.3415 31.3946 33.2888 31.3133 33.2337C31.1484 33.1259 30.9906 33.0156 30.8304 32.9054C30.6726 32.7952 30.5148 32.6825 30.3617 32.5675C30.2087 32.4525 30.0533 32.3375 29.905 32.2201C29.8309 32.1602 29.7544 32.1027 29.6803 32.0427C29.6062 31.9828 29.5321 31.9229 29.4603 31.863L29.3503 31.772L29.2428 31.6809C29.171 31.621 29.0993 31.5587 29.0252 31.4964C28.9534 31.4341 28.8841 31.3718 28.8124 31.3095C28.7406 31.2472 28.6713 31.1849 28.602 31.1226C28.5326 31.0603 28.4633 30.9956 28.394 30.9333C28.3246 30.8686 28.2577 30.8039 28.1883 30.7416C28.0496 30.6146 27.9181 30.4828 27.7818 30.351C27.5164 30.0874 27.2534 29.819 26.9976 29.5434C26.8661 29.4069 26.7442 29.2655 26.615 29.1265C26.4764 28.9707 26.3353 28.8126 26.1942 28.6544C25.9097 28.3357 25.6204 28.017 25.3239 27.6983C24.9653 27.3437 24.621 26.9651 24.2862 26.5673C24.1188 26.3684 23.9563 26.1647 23.7961 25.9562C23.7148 25.8532 23.6359 25.7477 23.557 25.6423C23.5211 25.5944 23.4852 25.5465 23.4494 25.4961C23.4135 25.4482 23.3777 25.3979 23.3442 25.3476C23.062 24.945 22.7871 24.4993 22.5002 24.0296C22.3567 23.7948 22.2084 23.5552 22.0554 23.3107C21.9789 23.1885 21.9 23.0663 21.8211 22.9441C21.7805 22.8818 21.7398 22.8219 21.6992 22.7596C21.6585 22.6997 21.6179 22.6398 21.5772 22.5799C21.5701 22.5679 21.5605 22.5559 21.5533 22.5439L21.5246 22.4984C21.4959 22.4529 21.4672 22.405 21.4386 22.3594C21.374 22.2564 21.2999 22.139 21.2162 22.0168C21.1325 21.8921 21.0393 21.7604 20.9269 21.6214C20.8145 21.48 20.6854 21.329 20.5085 21.1613C20.6926 21.329 20.8289 21.4776 20.946 21.6166C21.0632 21.7556 21.1636 21.8826 21.2521 22.0048C21.3405 22.1246 21.4194 22.2372 21.4912 22.3355L21.5414 22.4049L21.5844 22.4649L21.6035 22.4888C21.6083 22.496 21.6131 22.5008 21.6179 22.5056C21.6274 22.5176 21.6346 22.5272 21.6442 22.5367C21.7016 22.611 21.7566 22.6853 21.8139 22.7596C21.8689 22.8363 21.9263 22.913 21.9813 22.9872C22.0363 23.0639 22.0913 23.1382 22.1439 23.2125L22.2228 23.3251L22.3017 23.4377C22.5097 23.7349 22.7058 24.0248 22.8947 24.3052C23.086 24.5832 23.2701 24.8515 23.4518 25.1032C23.5426 25.2302 23.6335 25.3524 23.7243 25.4698L24.028 25.8628C24.8481 26.9171 25.7113 27.9571 26.6103 28.9755C26.6676 29.0426 26.7179 29.0929 26.7681 29.1504L26.9211 29.3158C27.0263 29.426 27.1339 29.5338 27.2391 29.6417C27.3491 29.7471 27.4567 29.855 27.5691 29.958L27.7388 30.1138C27.7962 30.1665 27.8512 30.2168 27.9086 30.2671C28.3676 30.6745 28.853 31.0627 29.3623 31.4293C29.8692 31.7983 30.4 32.1458 30.9499 32.4813C31.2249 32.649 31.5046 32.8119 31.7868 32.9701C31.9278 33.0492 32.0713 33.1283 32.2148 33.2073L32.241 33.2217L32.2554 33.2289L32.2626 33.2337C32.265 33.2337 32.265 33.2337 32.265 33.2337H32.2745C32.2769 33.2337 32.2793 33.2337 32.2841 33.2337L32.2984 33.2361C32.3032 33.2361 32.308 33.2385 32.3152 33.2409L32.3343 33.2481C32.3391 33.2505 32.3463 33.2529 32.3534 33.2553C32.4084 33.2768 32.4801 33.3128 32.5638 33.3535C32.5327 33.2648 32.5041 33.181 32.4897 33.1091C32.4873 33.0923 32.4825 33.0731 32.4801 33.0564L32.4778 33.0324V33.0204V33.0108L32.4801 32.9917V32.9821C32.4801 32.9797 32.4825 32.9773 32.4825 32.9749L32.4897 32.9605L32.4921 32.9557V32.9533L32.4658 32.9845L32.4514 33.0013C32.4395 33.0156 32.5304 32.9078 32.4921 32.9533V32.9509L32.4897 32.9461L32.4873 32.939C32.4275 32.7736 32.3534 32.6107 32.2697 32.4549C32.1024 32.141 31.8872 31.8534 31.605 31.609C31.5142 31.5443 31.4209 31.4772 31.3325 31.4125C31.244 31.3478 31.1555 31.2807 31.0647 31.216C30.9786 31.1513 30.8901 31.0842 30.8041 31.0195L30.6749 30.9213L30.5482 30.823C30.3761 30.6912 30.2135 30.5595 30.0485 30.4277C29.9672 30.3606 29.8883 30.2959 29.807 30.2288C29.7257 30.1617 29.6492 30.0946 29.5703 30.0275C29.4125 29.8933 29.2619 29.7591 29.1113 29.6225C29.0371 29.5554 28.9654 29.4859 28.8913 29.4188C28.8554 29.3853 28.8171 29.3517 28.7813 29.3158L28.6761 29.2128L28.5709 29.1097L28.5183 29.057L28.4681 29.0043L28.2624 28.7958C28.1955 28.7263 28.1309 28.6544 28.064 28.5849C28.0305 28.549 27.997 28.5154 27.966 28.4795L27.8703 28.3717C27.734 28.4819 27.471 28.6952 27.3371 28.803C27.2965 28.7359 27.2535 28.6712 27.2104 28.6065C27.1602 28.5322 27.11 28.4555 27.0622 28.3812C26.9617 28.2303 26.8613 28.0841 26.7609 27.9355C26.5577 27.6432 26.352 27.3556 26.144 27.0729C25.728 26.5074 25.3024 25.9634 24.8768 25.4266C24.7716 25.2925 24.664 25.1583 24.5588 25.0265L24.4153 24.8468C24.3699 24.7892 24.3221 24.7293 24.2767 24.6694C24.0902 24.4274 23.8941 24.1662 23.6909 23.8882C23.4757 23.5935 23.2629 23.3012 23.0477 23.0064L22.8755 22.7716L22.7871 22.6542L22.6962 22.5344C22.6364 22.4553 22.5743 22.3738 22.5121 22.2923C22.45 22.2109 22.3878 22.1342 22.3256 22.0551L22.3041 22.0359C22.3017 22.0335 22.3017 22.0335 22.2993 22.0311L22.2897 22.0192C22.2826 22.012 22.2778 22.0048 22.2682 21.9928L22.2443 21.9592L22.2156 21.9209L22.1535 21.8322C22.0626 21.7052 21.9574 21.5591 21.8307 21.3937L21.7829 21.3314L21.7326 21.2667C21.6992 21.2236 21.6609 21.1781 21.6227 21.1325C21.6035 21.111 21.5844 21.0846 21.5629 21.0606L21.5007 20.9888L21.4338 20.9121L21.4003 20.8737L21.362 20.833L21.2855 20.7539C21.2592 20.7276 21.2281 20.6964 21.1995 20.6701C21.1445 20.6149 21.0751 20.5526 21.0082 20.4927C20.9914 20.4784 20.9723 20.4616 20.9532 20.4448L20.8958 20.3969L20.8384 20.349L20.8241 20.337L20.8073 20.325L20.7739 20.2986C20.7284 20.2651 20.683 20.2291 20.6376 20.198C20.585 20.162 20.53 20.1237 20.475 20.0902L20.4343 20.0638L20.4128 20.0518L20.3889 20.0374C20.3578 20.0183 20.3244 19.9991 20.2909 19.9799C20.2574 19.9608 20.2263 19.944 20.1929 19.9248L20.1689 19.9128L20.1426 19.8985L20.0853 19.8697C20.047 19.8505 20.0064 19.8338 19.9681 19.8146L19.9083 19.7882L19.8796 19.7762L19.8485 19.7643C19.7553 19.7283 19.6621 19.6948 19.5664 19.666L19.5306 19.654L19.5114 19.6492L19.4899 19.6444L19.4086 19.6229C19.3536 19.6085 19.2986 19.5965 19.2436 19.5845L19.1599 19.5678L19.1169 19.5606L19.0715 19.5534C19.0093 19.5438 18.9471 19.5366 18.885 19.5318C18.8228 19.527 18.7607 19.5222 18.6985 19.5198C18.6339 19.5174 18.567 19.5174 18.5 19.5198C18.3661 19.5222 18.2346 19.5318 18.1007 19.5534C18.0338 19.563 17.9668 19.575 17.8999 19.5893C17.8353 19.6037 17.766 19.6181 17.7062 19.6349C17.5819 19.6684 17.4576 19.7115 17.3356 19.7571C17.3045 19.7691 17.2782 19.781 17.2519 19.793C17.2256 19.805 17.1969 19.817 17.1706 19.829C17.1156 19.8529 17.063 19.8793 17.0104 19.908C16.9841 19.9224 16.9578 19.9368 16.9315 19.9512C16.9196 19.9584 16.9052 19.9655 16.8933 19.9727L16.8598 19.9919C16.8144 20.0183 16.7713 20.047 16.7283 20.0758C16.6853 20.1045 16.6422 20.1333 16.5992 20.1644L16.5681 20.1884L16.5514 20.2004L16.5394 20.21L16.5035 20.2387C16.4557 20.2771 16.4079 20.3154 16.3601 20.3537C16.317 20.3921 16.274 20.4304 16.231 20.4688C16.2095 20.4879 16.1903 20.5071 16.1712 20.5239L16.1138 20.579C16.0947 20.5982 16.0756 20.6173 16.0588 20.6341L16.0086 20.6868C15.9752 20.7228 15.9417 20.7587 15.9154 20.7899C15.8867 20.8234 15.858 20.857 15.8317 20.8881L15.7576 20.9816C15.6643 21.099 15.5926 21.202 15.5328 21.2883L15.418 21.456C15.4061 21.4728 15.3941 21.4896 15.3822 21.5063C15.3511 21.5447 15.3176 21.5806 15.2818 21.6118C15.265 21.6286 15.2435 21.6429 15.2268 21.6573C15.2172 21.6645 15.2076 21.6717 15.1981 21.6789L15.1813 21.6909L15.1574 21.71C15.014 21.8179 14.7844 21.9664 14.4784 22.1725L14.3588 22.254L14.2321 22.3426C14.1508 22.4002 14.0719 22.4577 13.9906 22.5128C13.8376 22.623 13.6846 22.7332 13.5315 22.8459C13.2351 23.0639 12.9505 23.27 12.678 23.4593C12.7569 23.258 12.5776 23.2341 12.47 23.1837C12.4604 23.1933 12.4508 23.2005 12.4413 23.2101C12.4508 23.2029 12.4604 23.1933 12.47 23.1837C12.4221 23.1598 12.391 23.131 12.4006 23.0783C12.4054 23.0519 12.4221 23.0184 12.4532 22.9777C12.47 22.9561 12.4867 22.9345 12.5106 22.9082C12.5345 22.8818 12.5632 22.8554 12.5967 22.8243C12.5632 22.8554 12.5345 22.8842 12.5106 22.9082C12.4867 22.9345 12.4676 22.9561 12.4532 22.9777C12.4221 23.0184 12.4054 23.0519 12.4006 23.0783C12.3887 23.131 12.4221 23.1598 12.47 23.1837C12.7138 22.9657 12.9769 22.7332 13.259 22.4912L13.3666 22.4002L13.4766 22.3091C13.5507 22.2468 13.6272 22.1845 13.7013 22.1246L13.8185 22.0311L13.8759 21.9856L13.938 21.9377C14.0241 21.8706 14.103 21.8107 14.1771 21.7532C14.3038 21.6597 14.4306 21.5639 14.5597 21.4704C14.6649 21.3937 14.7462 21.3314 14.8036 21.2835C14.8179 21.2715 14.8251 21.2667 14.8323 21.2619C14.837 21.2571 14.8418 21.2523 14.849 21.2499C14.8538 21.2452 14.8586 21.2404 14.8633 21.2356C14.8681 21.2308 14.8729 21.226 14.8777 21.2212C14.8968 21.202 14.9159 21.1829 14.9327 21.1613C14.9399 21.1517 14.947 21.1421 14.9542 21.1325L15.0689 20.9648C15.1335 20.8737 15.2124 20.7635 15.3176 20.6317L15.4013 20.5287L15.4252 20.5023L15.4491 20.4736L15.4969 20.4184C15.528 20.3825 15.5663 20.3418 15.6022 20.301L15.6571 20.2411C15.6763 20.222 15.6978 20.198 15.7193 20.1788L15.7839 20.1165C15.8054 20.0949 15.8269 20.0758 15.8508 20.0542C15.8986 20.0111 15.9465 19.9679 15.9967 19.9248C16.0493 19.8817 16.1043 19.8361 16.1593 19.793L16.1999 19.7619L16.2334 19.7379L16.2692 19.7115C16.3194 19.6756 16.3696 19.642 16.4199 19.6085C16.4701 19.575 16.5227 19.5438 16.5729 19.5127L16.6111 19.4887C16.6231 19.4815 16.6398 19.4719 16.6542 19.4647C16.6853 19.448 16.714 19.4312 16.745 19.4168C16.8072 19.3857 16.8694 19.3545 16.9315 19.3257C16.9626 19.3114 16.9937 19.297 17.0272 19.2826L17.075 19.261C17.0893 19.2539 17.1085 19.2467 17.1252 19.2395C17.2663 19.1844 17.4097 19.1364 17.558 19.0981C17.6297 19.0789 17.7086 19.0598 17.7851 19.0454C17.8616 19.031 17.9405 19.0166 18.0194 19.0046C18.1772 18.9807 18.3303 18.9711 18.4857 18.9687C18.5622 18.9663 18.6411 18.9687 18.7176 18.9711C18.7893 18.9735 18.8635 18.9807 18.9352 18.9879C19.0069 18.9951 19.081 19.0046 19.1528 19.0142L19.2078 19.0214L19.2556 19.031C19.2867 19.0382 19.3201 19.043 19.3512 19.0502C19.4158 19.0645 19.4803 19.0789 19.5425 19.0957C19.5736 19.1029 19.6071 19.1125 19.6381 19.1221L19.6621 19.1292L19.6836 19.1364L19.7242 19.1484C19.8342 19.182 19.9418 19.2227 20.0494 19.2634L20.0853 19.2778L20.1187 19.2922L20.1881 19.3233C20.2335 19.3449 20.2789 19.3641 20.3244 19.3856L20.3913 19.4192L20.4224 19.436L20.4511 19.4504C20.4893 19.4719 20.5252 19.4911 20.5635 19.5127C20.6017 19.5342 20.6376 19.5558 20.6734 19.5774L20.6997 19.5941L20.7236 19.6085L20.7715 19.6397C20.8336 19.6804 20.8958 19.7235 20.9532 19.7643C21.0058 19.8026 21.056 19.8409 21.1062 19.8817L21.1445 19.9104L21.1636 19.9248L21.1803 19.9392L21.2449 19.9943L21.3094 20.0494C21.331 20.0686 21.3525 20.0878 21.3692 20.1045C21.4433 20.1716 21.5199 20.2435 21.5796 20.3058L21.6275 20.3537C21.6418 20.3705 21.6609 20.3873 21.6729 20.4017L21.7566 20.4903L21.7972 20.5359L21.8331 20.5766L21.9048 20.6605L21.9717 20.7395C21.9933 20.7659 22.0148 20.7923 22.0339 20.8162C22.0722 20.8665 22.1128 20.9169 22.1487 20.9624L22.2013 21.0343L22.2515 21.1014C22.383 21.2811 22.4858 21.4369 22.5743 21.5687L22.6843 21.7316L22.7034 21.758L22.7106 21.7675C22.713 21.7699 22.7129 21.7699 22.7129 21.7723L22.7249 21.7843C22.7823 21.8658 22.8421 21.9449 22.8994 22.0263C22.9568 22.1078 23.0166 22.1917 23.074 22.2732L23.1601 22.3954L23.2438 22.5152L23.4063 22.7524C23.6048 23.0495 23.8056 23.3443 24.0041 23.6414C24.193 23.9194 24.3723 24.1782 24.5492 24.4154L24.5827 24.4609L24.6162 24.5041L24.6807 24.5904C24.7238 24.6479 24.7668 24.7006 24.8099 24.7557C24.9103 24.8851 25.0131 25.0145 25.1159 25.1463C25.5295 25.6663 25.9575 26.1839 26.3999 26.7015C26.6222 26.9603 26.8446 27.2191 27.0741 27.4802C27.1889 27.6096 27.3036 27.7414 27.4184 27.8708C27.4758 27.9355 27.5332 28.0002 27.593 28.0673L27.6814 28.1656L27.7245 28.2135L27.7627 28.2542L27.7269 28.2135L27.6838 28.1632L27.6001 28.0649L27.4328 27.866C27.3228 27.7343 27.2128 27.6025 27.1028 27.4707C26.8852 27.2071 26.6677 26.9435 26.4573 26.6799C26.034 26.1527 25.6228 25.6231 25.2259 25.0912C25.1279 24.9594 25.0298 24.8252 24.9318 24.691L24.8099 24.5209L24.7477 24.4322C24.7262 24.4034 24.707 24.3747 24.6855 24.3435C24.5205 24.1015 24.3484 23.8379 24.1667 23.5552C23.9849 23.2724 23.7937 22.9681 23.5881 22.647L23.4302 22.4026L23.349 22.278L23.2653 22.1533C23.2103 22.0695 23.1505 21.9832 23.0931 21.8993C23.0357 21.8131 22.9784 21.734 22.921 21.6501L22.7823 21.4345C22.6962 21.2979 22.591 21.1373 22.4571 20.9504L22.4069 20.8809L22.3519 20.8066C22.3161 20.7587 22.2754 20.706 22.2348 20.6533C22.2156 20.6293 22.1917 20.5982 22.1702 20.5718L22.1032 20.4879L22.0291 20.3993L21.9909 20.3561L21.9478 20.3082L21.8618 20.2148C21.8307 20.1812 21.7972 20.1477 21.7637 20.1141L21.7135 20.0638L21.6872 20.0374L21.6585 20.0111C21.6203 19.9751 21.582 19.9392 21.5438 19.9032L21.5127 19.8745L21.4792 19.8457L21.4123 19.7882L21.3429 19.7307L21.3238 19.7163L21.3047 19.6996L21.264 19.6684C21.209 19.6253 21.1564 19.5869 21.1014 19.5438C21.0369 19.4983 20.9723 19.4551 20.9078 19.412C20.848 19.3713 20.7619 19.321 20.6854 19.2754C20.6447 19.2539 20.6065 19.2299 20.5658 19.2083L20.5348 19.1916L20.4989 19.1748L20.4272 19.1388C20.3794 19.1149 20.3315 19.0933 20.2837 19.0717L20.212 19.0406L20.1761 19.0262L20.1355 19.0094C20.0207 18.9639 19.9059 18.9232 19.7888 18.8872L19.7433 18.8728L19.6931 18.8585C19.6597 18.8489 19.6262 18.8393 19.5927 18.8321C19.5258 18.8153 19.4564 18.7986 19.3871 18.7866C19.3536 18.7794 19.3178 18.7722 19.2843 18.7674C19.2675 18.765 19.2484 18.7602 19.2293 18.7578L19.1719 18.7482C19.0954 18.7363 19.0189 18.7291 18.94 18.7219C18.8611 18.7147 18.787 18.7099 18.7057 18.7075C18.622 18.7051 18.5407 18.7051 18.457 18.7075C18.292 18.7123 18.127 18.7243 17.9597 18.7506C17.876 18.7626 17.7923 18.777 17.711 18.7938C17.6703 18.8034 17.6297 18.8105 17.5891 18.8201C17.5484 18.8297 17.5101 18.8393 17.4719 18.8513C17.3165 18.8944 17.1611 18.9471 17.0128 19.0046C16.8766 19.0598 16.7426 19.1245 16.6111 19.1916C16.5777 19.2083 16.5466 19.2251 16.5131 19.2443C16.4964 19.2539 16.4844 19.261 16.4701 19.2706L16.4294 19.2946C16.3744 19.3281 16.3195 19.3617 16.2668 19.3976C16.2119 19.4336 16.1592 19.4695 16.1066 19.5079C16.0445 19.5534 16.0278 19.5654 15.9967 19.5893L15.9082 19.6588L15.8652 19.6948C15.8508 19.7068 15.8365 19.7187 15.8245 19.7283C15.7719 19.7738 15.7217 19.8194 15.6691 19.8649L15.65 19.8817L15.6332 19.8985L15.5998 19.932L15.5328 19.9991L15.4993 20.0326L15.4682 20.0638L15.4085 20.1261L15.3511 20.1884L15.3248 20.2196L15.2985 20.2483L15.2483 20.3058C15.2315 20.325 15.2124 20.3466 15.2005 20.3633L15.112 20.4712C15.0044 20.6054 14.9207 20.7204 14.8538 20.8138L14.7725 20.9312L14.7438 20.9744C14.7414 20.9768 14.7414 20.9792 14.739 20.9792C14.7342 20.984 14.7294 20.9912 14.7247 20.9959C14.7055 21.0175 14.6816 21.0367 14.6577 21.0535L14.6529 21.0559L14.6458 21.0606L14.6314 21.0726L14.6242 21.0798L14.6147 21.087L14.574 21.1182L14.5262 21.1541L14.4736 21.1948L14.4138 21.238L14.2728 21.341L14.1102 21.4632L14.0193 21.5327L13.9213 21.607L13.8711 21.6453L13.8185 21.6861L13.7109 21.7699L13.5124 21.9305C13.2542 22.1438 13.0151 22.3522 12.7927 22.5511C12.348 22.9513 11.9655 23.3155 11.6235 23.6223C11.5375 23.6989 11.4562 23.7732 11.3773 23.8403C11.3366 23.8763 11.2984 23.9074 11.2601 23.941L11.1166 24.0632C10.9062 24.2429 10.6958 24.425 10.483 24.6119C9.63423 25.3596 8.76631 26.1743 7.92946 27.0921L7.77167 27.2646L7.61625 27.4395C7.52779 27.5426 7.43692 27.6432 7.34846 27.7462C7.1787 27.9379 7.00894 28.1296 6.83918 28.3237C6.50205 28.7047 6.1649 29.0786 5.82777 29.4428C5.71779 29.5626 5.55042 29.7399 5.38544 29.9149C5.21807 30.0898 5.0531 30.2599 4.94073 30.3749C4.80922 30.6912 4.65858 30.9908 4.49361 31.2735C4.40992 31.4125 4.32385 31.5515 4.2306 31.6833L4.16127 31.7816C4.14932 31.7983 4.13975 31.8127 4.12541 31.8319L4.08714 31.8846L4.04649 31.9373L4.00345 31.99L3.9126 32.1027C3.85043 32.1769 3.78109 32.2584 3.71175 32.3399L3.48939 32.5963C3.33637 32.7736 3.17139 32.9653 2.99924 33.1786C2.82709 33.3918 2.64777 33.6243 2.46605 33.8927L2.39911 33.9933L2.33693 34.0916C2.29389 34.1563 2.25564 34.2233 2.215 34.2904C2.13609 34.4246 2.05957 34.5612 1.99023 34.7002C2.11935 34.681 2.2389 34.7146 2.35367 34.7769C2.46605 34.8392 2.57364 34.9255 2.68362 35.0189C2.79122 35.1124 2.90121 35.2106 3.01119 35.2945C3.12118 35.3784 3.23594 35.4502 3.3531 35.4934C3.47026 35.5365 3.58981 35.5509 3.71175 35.5293C3.83608 35.5054 3.96521 35.4431 4.10867 35.3352C4.14453 35.3089 4.18278 35.2777 4.21864 35.2442C4.2569 35.2106 4.29754 35.1723 4.33819 35.1339C4.41948 35.0549 4.50795 34.9662 4.6012 34.8655C4.7877 34.6643 5.00528 34.4198 5.25155 34.1275C5.36871 34.2521 5.60781 34.5037 5.72497 34.6283C5.53608 34.9542 5.39979 35.2921 5.33762 35.6108C5.30654 35.7713 5.29459 35.9223 5.29937 36.0685C5.30416 36.2147 5.32567 36.3536 5.36153 36.483C5.43326 36.7418 5.56717 36.9623 5.72258 37.1348C5.88039 37.3097 6.0645 37.4367 6.2486 37.5278C6.41597 37.6428 6.59529 37.7171 6.78179 37.7435C6.82722 37.7507 6.87503 37.7531 6.92046 37.7531C6.94437 37.7531 6.96829 37.7531 6.98981 37.7507C7.00176 37.7507 7.01372 37.7483 7.02567 37.7483C7.03524 37.7507 7.04719 37.7507 7.05675 37.7531C7.14283 37.7626 7.22413 37.7698 7.30542 37.777C7.46801 37.789 7.62103 37.7962 7.75971 37.8082C7.82905 37.8154 7.8936 37.8226 7.95337 37.8297C7.98206 37.8345 8.01314 37.8369 8.03944 37.8417C8.05139 37.8465 8.06336 37.8513 8.07292 37.8561C8.08009 37.8585 8.08487 37.8585 8.09205 37.8609L8.10162 37.8633H8.11117C8.11834 37.8633 8.12552 37.8633 8.1327 37.8633L8.15661 37.8585C8.16378 37.8561 8.17334 37.8537 8.18052 37.8513C8.19008 37.8489 8.19724 37.8465 8.20681 37.8417C8.24267 37.8273 8.28573 37.8082 8.33355 37.7842C8.38137 37.7578 8.43396 37.7267 8.49134 37.6908C8.55112 37.6524 8.61329 37.6117 8.68262 37.5638C8.75435 37.5158 8.82847 37.4607 8.91215 37.3984C8.93367 37.3816 8.95519 37.3649 8.97671 37.3505C8.99823 37.3337 9.02214 37.3169 9.04365 37.2978C9.06517 37.281 9.09147 37.2618 9.11538 37.2403C9.13929 37.2211 9.16322 37.2019 9.18952 37.1803C9.38558 37.0246 9.57686 36.8593 9.76814 36.6915C10.5309 36.0134 11.2505 35.249 11.9344 34.463C12.2763 34.07 12.611 33.6722 12.941 33.2768C13.1036 33.0803 13.2685 32.8838 13.4335 32.6849L13.5387 32.5603C13.5722 32.522 13.6033 32.4813 13.6368 32.4429C13.7037 32.3662 13.7706 32.2872 13.8424 32.2105C14.3971 31.597 15.0403 31.0076 15.76 30.4732C15.9488 30.3246 16.1377 30.1761 16.3314 30.0275C16.3816 29.9891 16.4222 29.958 16.4916 29.9029C16.5538 29.8526 16.6183 29.8022 16.6781 29.7519C16.8 29.6513 16.9172 29.5554 17.0296 29.4596C17.4791 29.0786 17.864 28.7383 18.1988 28.4579C18.3661 28.3165 18.5168 28.1919 18.6578 28.0841L18.7606 28.005L18.8515 27.9355L19.1145 27.739C19.2197 27.66 19.3464 27.5617 19.4875 27.4515L19.5951 27.3652L19.7099 27.2694L19.7386 27.2454L19.7696 27.2191L19.8318 27.1663L19.9035 27.104L19.9753 27.0393C20.3626 26.6919 20.7165 26.3085 21.0225 25.8915C21.0775 25.8148 21.1325 25.7382 21.1827 25.6615L21.2616 25.5441L21.2999 25.4866L21.3142 25.465L21.3238 25.4506L21.3357 25.429L21.3429 25.4195L21.3453 25.4147L21.3477 25.4123L21.3549 25.4003L21.3573 25.3931C21.3573 25.3931 21.3573 25.3931 21.3573 25.3907V25.3883L21.3238 25.3643L21.2329 25.2996L21.0536 25.1678L21.0153 25.1391L20.9914 25.1223L20.9412 25.0864L20.7404 24.9426C20.6089 24.8444 20.475 24.7461 20.3459 24.6455L20.322 24.6263L20.3028 24.6119L20.2718 24.588L20.2096 24.54L20.0829 24.4442L19.9585 24.3459L19.8964 24.2956L19.8677 24.2716L19.8462 24.2549C19.7888 24.2093 19.7314 24.1638 19.674 24.1159L19.5903 24.044L19.5688 24.0248L19.5521 24.0104L19.521 23.9841C19.4803 23.9481 19.4373 23.9146 19.399 23.8763L19.368 23.8475L19.3536 23.8331C19.3488 23.8283 19.3464 23.8259 19.3417 23.8211L19.2962 23.7804C19.2652 23.7517 19.2365 23.7229 19.2078 23.6941C19.191 23.6774 19.1815 23.6702 19.1695 23.6582L19.136 23.6247L19.1026 23.5887L19.0858 23.5719C19.081 23.5671 19.0739 23.5599 19.0715 23.5552C19.0547 23.5384 19.038 23.5192 19.0213 23.5C19.0045 23.4809 18.9878 23.4593 18.9782 23.4473C18.9663 23.4329 18.9543 23.4186 18.9424 23.4018L18.9328 23.3898L18.928 23.385L18.6698 23.04L18.6674 23.0376C18.6626 23.0304 18.6578 23.0256 18.6531 23.0184C18.6339 22.9944 18.6148 22.9561 18.6052 22.9417C18.6005 22.9321 18.5957 22.9201 18.5909 22.9106C18.5885 22.9034 18.5885 22.9034 18.5861 22.901C18.5861 22.8986 18.5837 22.8962 18.5837 22.8938C18.5837 22.8914 18.5813 22.8866 18.5813 22.8842V22.8794V22.877V22.8746V22.8722V22.877C18.5813 22.8818 18.5813 22.8842 18.5813 22.889C18.5813 22.889 18.5813 22.8962 18.5813 22.8986C18.5813 22.9034 18.5813 22.9082 18.5813 22.913C18.5813 22.9178 18.5813 22.9225 18.5789 22.9249C18.5789 22.9297 18.5765 22.9321 18.5765 22.9393C18.5741 22.9537 18.5718 22.9681 18.567 22.9801C18.5646 22.9872 18.5622 22.992 18.5598 22.9992C18.5574 23.0088 18.555 23.0184 18.5526 23.0256C18.5096 23.1622 18.3996 23.3635 18.2131 23.6031C18.0266 23.8427 17.7684 24.1183 17.4336 24.4298C17.3906 24.4705 17.3476 24.5089 17.3045 24.5472L17.2711 24.576L17.2543 24.5904L17.2352 24.6071L17.1635 24.6718C17.1157 24.715 17.0654 24.7557 17.0176 24.7988L16.9435 24.8611L16.9244 24.8755L16.9028 24.8923L16.8622 24.9282C16.8072 24.9761 16.7522 25.0217 16.6948 25.0672L16.6111 25.1343L16.5681 25.1678C16.5538 25.1798 16.5394 25.1894 16.5227 25.2038C16.4581 25.2565 16.3936 25.3068 16.329 25.3572L16.231 25.4338L16.1832 25.4722L16.1593 25.4913L16.1568 25.4937C16.176 25.4842 16.2262 25.5201 16.3003 25.5992C16.3386 25.6399 16.3792 25.6902 16.4366 25.7597L16.482 25.8196L16.537 25.8915C16.5825 25.9538 16.6303 26.0137 16.6757 26.0736C16.7403 26.1455 16.8048 26.2174 16.8646 26.2869C16.8957 26.3228 16.9267 26.3564 16.9578 26.3947L17.0511 26.5074C17.1754 26.6607 17.3045 26.8261 17.436 26.9986C17.5675 27.1735 17.7038 27.358 17.8425 27.5521C17.9883 27.7534 18.1342 27.9571 18.2824 28.1584C18.4355 28.3693 18.5957 28.5873 18.7654 28.8078L18.8945 28.9755L19.0093 29.1217C19.0858 29.2175 19.1623 29.3158 19.2388 29.4116C19.5449 29.7974 19.8557 30.176 20.1665 30.5523C20.4774 30.9261 20.793 31.2951 21.111 31.6569C21.2688 31.8367 21.429 32.0164 21.5892 32.1913C21.6705 32.28 21.7494 32.3662 21.8307 32.4549C21.912 32.5412 21.9933 32.6298 22.0745 32.7161C22.4428 33.1115 22.8205 33.4853 23.2103 33.8352C23.3083 33.9214 23.4063 34.0053 23.5044 34.0892C23.5546 34.1299 23.6024 34.173 23.6526 34.2138C23.7028 34.2545 23.753 34.2952 23.8008 34.3336C23.9013 34.4127 23.9993 34.4941 24.0997 34.5708C24.2001 34.6475 24.3006 34.7218 24.401 34.7961C24.4775 34.8584 24.5564 34.9231 24.6353 34.995C24.7142 35.0644 24.7955 35.1387 24.8744 35.2154C25.037 35.3664 25.2044 35.5341 25.3717 35.7019C25.7089 36.0421 26.0556 36.3968 26.3927 36.7227C26.4764 36.8041 26.5601 36.8832 26.6437 36.9599C26.7274 37.0366 26.8087 37.1109 26.8876 37.1803C27.0478 37.3241 27.2032 37.4487 27.3515 37.559C27.4997 37.6668 27.6408 37.7555 27.7723 37.8202C27.9038 37.8848 28.0257 37.9232 28.1357 37.9304C28.205 37.9472 28.2696 37.9591 28.3294 37.9639C28.3366 37.9639 28.3437 37.9663 28.3509 37.9663C28.3557 37.9663 28.3581 37.9663 28.3629 37.9687C28.3676 37.9711 28.3724 37.9711 28.3772 37.9735C28.3963 37.9783 28.4178 37.9831 28.4346 37.9879C28.4441 37.9903 28.4537 37.9927 28.4633 37.9927C28.4728 37.9927 28.48 37.9951 28.4896 37.9951C28.5063 37.9975 28.5231 37.9975 28.5398 37.9999C28.6641 38.0023 28.7574 37.9711 28.8363 37.9232C28.9941 37.8249 29.0993 37.662 29.1901 37.4751C29.1256 37.4272 29.0586 37.3768 28.9773 37.3145L28.7932 37.166L28.4489 36.8904C28.2194 36.7059 27.9899 36.5166 27.7603 36.3273C27.3013 35.9487 26.8422 35.5581 26.3903 35.1555C25.4841 34.3504 24.5971 33.4925 23.7578 32.5675L23.5594 32.3591L23.4589 32.2536L23.3609 32.1458L23.1649 31.9325L22.9807 31.7288L22.2634 30.9309C21.7852 30.3965 21.3071 29.855 20.8289 29.3086C20.5898 29.0354 20.3506 28.7599 20.1139 28.4819L19.9346 28.2734L19.7433 28.0434C19.6166 27.89 19.4947 27.7366 19.3751 27.5881L18.6865 26.7182C18.4666 26.4403 18.2514 26.1791 18.041 25.9347C18.4833 26.3923 18.928 26.9363 19.411 27.521C19.4732 27.5953 19.5329 27.6672 19.5951 27.7414C19.6573 27.8157 19.7194 27.89 19.7816 27.9643C19.8462 28.0386 19.9107 28.1153 19.9729 28.1919C20.0327 28.2614 20.0924 28.3309 20.1546 28.4004C20.3937 28.6736 20.6304 28.9468 20.8695 29.2223C21.3453 29.7711 21.8187 30.3198 22.2897 30.8686C22.5241 31.1441 22.7584 31.4173 22.9951 31.6929L23.1744 31.9038L23.3657 32.1266L23.4613 32.2392L23.5594 32.3495L23.7554 32.5675C24.6234 33.4661 25.5391 34.2761 26.4692 35.0285C26.9354 35.4047 27.4041 35.7642 27.8751 36.1164C28.1094 36.2913 28.3461 36.4639 28.5828 36.634C28.7 36.7203 28.8195 36.8041 28.9367 36.888L29.1136 37.015L29.2212 37.0917C29.2595 37.118 29.293 37.142 29.3264 37.166C29.3958 36.9982 29.4723 36.8281 29.5703 36.6771C29.6707 36.5286 29.7951 36.404 29.9576 36.3153C29.9576 36.3153 30.0963 36.4231 30.2733 36.5597C30.3569 36.6268 30.4478 36.6987 30.5267 36.7682C30.608 36.8377 30.6797 36.9048 30.7323 36.9599C30.9164 36.9934 31.0862 37.0222 31.2488 37.0557C31.4114 37.0917 31.5668 37.1324 31.7174 37.1827C32.0187 37.281 32.2865 37.396 32.5423 37.3625C32.6714 37.3457 32.7934 37.2954 32.9057 37.1947C32.9631 37.1444 33.0157 37.0845 33.0636 37.015C33.0875 36.9791 33.1114 36.9407 33.1305 36.9C33.152 36.8592 33.1711 36.8161 33.1903 36.7706C33.1998 36.749 33.207 36.7227 33.2166 36.7011C33.2237 36.6771 33.2333 36.6532 33.2405 36.6292C33.2548 36.5813 33.2668 36.5262 33.2787 36.4758C33.2907 36.4231 33.2979 36.3704 33.305 36.3129C33.3122 36.2578 33.317 36.2027 33.3218 36.1452C33.3361 35.9175 33.3194 35.6779 33.2859 35.4478C33.1616 34.9854 33.0205 34.5612 32.8699 34.1634Z" fill="#CBA265"/>
</svg>
