<svg width="44.000000" height="44.000000" viewBox="0 0 44 44" fill="none" xmlns="http://www.w3.org/2000/svg" xmlns:xlink="http://www.w3.org/1999/xlink">
	<desc>
			Created with Pixso.
	</desc>
	<defs/>
	<path id="vector_02" d="M40.92 18.56C40.72 18.81 40.53 19.03 40.34 19.23C40.23 19.35 40.13 19.47 40.02 19.59C39.92 19.7 39.81 19.82 39.71 19.93C39.51 20.13 39.31 20.34 39.12 20.54C38.73 20.95 38.34 21.35 37.95 21.76C37.19 22.56 36.45 23.35 35.75 24.15C35.57 24.35 35.4 24.54 35.23 24.75C35.14 24.85 35.06 24.95 34.98 25.05C34.93 25.1 34.89 25.15 34.85 25.2C34.81 25.25 34.76 25.3 34.72 25.36C34.37 25.79 34.01 26.21 33.65 26.65C32.94 27.52 32.22 28.39 31.47 29.29C30.92 29.9 30.4 30.56 29.88 31.26C29.37 31.96 28.86 32.7 28.35 33.45C28.1 33.83 27.84 34.21 27.59 34.58L27.49 34.72L27.41 34.84L27.37 34.9L27.33 34.96L27.25 35.09C27.2 35.18 27.14 35.26 27.09 35.35C27.03 35.44 26.98 35.53 26.92 35.62C26.86 35.72 26.81 35.81 26.75 35.91C26.69 36 26.63 36.1 26.57 36.2C26.54 36.25 26.51 36.29 26.48 36.34C26.45 36.39 26.41 36.44 26.38 36.49C26.35 36.54 26.32 36.59 26.29 36.64C26.25 36.69 26.22 36.74 26.19 36.79C25.92 37.19 25.62 37.61 25.27 38.01L25.43 37.84C25.46 37.81 25.48 37.78 25.51 37.75L25.58 37.66C25.68 37.54 25.77 37.43 25.86 37.31C25.91 37.25 25.95 37.2 26 37.14L26.07 37.05C26.09 37.02 26.11 37 26.13 36.97L26.25 36.79L26.37 36.63L26.43 36.54L26.49 36.46L26.6 36.29C26.68 36.19 26.75 36.08 26.82 35.97C26.96 35.77 27.1 35.56 27.23 35.36C27.3 35.26 27.36 35.17 27.43 35.08C27.49 34.98 27.56 34.9 27.62 34.81C27.69 34.71 27.77 34.61 27.84 34.51C27.92 34.4 28 34.3 28.07 34.19C28.37 33.78 28.67 33.37 28.96 32.95C29.55 32.13 30.12 31.31 30.71 30.52C31.29 29.73 31.89 28.96 32.51 28.19C33.12 27.42 33.76 26.67 34.41 25.92C34.57 25.74 34.73 25.55 34.89 25.37L35.02 25.23L35.13 25.1C35.21 25.02 35.29 24.93 35.37 24.85C35.69 24.5 36.02 24.16 36.36 23.82C36.7 23.48 37.05 23.14 37.4 22.8C37.76 22.46 38.12 22.12 38.48 21.77C38.85 21.43 39.22 21.08 39.59 20.72C39.78 20.54 39.97 20.36 40.15 20.17C40.35 19.97 40.55 19.77 40.75 19.55C40.7 19.8 40.63 20.06 40.55 20.31C40.52 20.37 40.5 20.44 40.48 20.5C40.47 20.53 40.45 20.56 40.45 20.59L40.45 20.6L40.44 20.61C40.44 20.62 40.44 20.62 40.44 20.63L40.42 20.68C40.37 20.79 40.33 20.91 40.27 21.03C40.06 21.51 39.79 21.97 39.42 22.4C38.49 23.38 37.61 24.28 36.8 25.16C36.71 25.27 36.61 25.38 36.51 25.49C36.41 25.6 36.31 25.71 36.22 25.82L36.08 25.98L36 26.06L35.93 26.15C35.83 26.27 35.73 26.39 35.63 26.5C35.23 26.98 34.84 27.45 34.45 27.93C34.31 27.82 34.04 27.62 33.91 27.52C33.19 28.62 32.45 29.67 31.72 30.7C30.99 31.73 30.24 32.77 29.46 33.83C29.26 34.09 29.06 34.36 28.86 34.62L28.55 35.02L28.4 35.22L28.27 35.39C28.11 35.6 27.94 35.83 27.76 36.09C27.58 36.34 27.39 36.62 27.18 36.92C26.97 37.22 26.74 37.53 26.49 37.85C26.23 38.18 25.95 38.51 25.62 38.85C25.6 38.87 25.58 38.9 25.56 38.92L25.49 38.98L25.36 39.11L25.33 39.14L25.31 39.16L25.27 39.19L25.19 39.26L25.15 39.3L25.13 39.31L25.11 39.33C25.08 39.36 25.05 39.38 25.02 39.41L24.97 39.45L24.94 39.47L24.92 39.49C24.88 39.52 24.84 39.54 24.8 39.57L24.74 39.61L24.71 39.63L24.67 39.65C24.63 39.68 24.58 39.71 24.53 39.73C24.51 39.75 24.48 39.76 24.46 39.77C24.43 39.79 24.4 39.8 24.37 39.82C24.31 39.84 24.26 39.87 24.2 39.89L24.18 39.9L24.15 39.91L24.1 39.93C24.07 39.95 24.03 39.96 24 39.97C23.87 40.02 23.7 40.06 23.55 40.1L23.52 40.1L23.49 40.11L23.42 40.12C23.38 40.13 23.34 40.13 23.29 40.14C23.25 40.14 23.21 40.15 23.17 40.15C23.12 40.16 23.08 40.16 23.03 40.16C22.94 40.17 22.85 40.17 22.76 40.16C22.68 40.16 22.58 40.15 22.5 40.14C22.45 40.14 22.41 40.13 22.37 40.12C22.32 40.12 22.28 40.11 22.24 40.1C22.2 40.09 22.16 40.08 22.12 40.07C22.08 40.06 22.04 40.06 22 40.04C21.96 40.03 21.92 40.02 21.89 40.01C21.85 40 21.81 39.99 21.78 39.97C21.71 39.95 21.64 39.92 21.58 39.89C21.56 39.89 21.54 39.88 21.53 39.87L21.49 39.85C21.46 39.84 21.43 39.83 21.4 39.81C21.37 39.8 21.34 39.78 21.32 39.77L21.28 39.75L21.24 39.73C21.2 39.7 21.15 39.67 21.1 39.65C21.06 39.62 21.02 39.6 20.98 39.57L20.93 39.53L20.87 39.49C20.84 39.47 20.81 39.44 20.78 39.42L20.7 39.35L20.65 39.32L20.62 39.29L20.55 39.23L20.5 39.18C20.42 39.11 20.37 39.05 20.32 39L20.25 38.94L20.2 38.89L20.16 38.84C20.15 38.83 20.14 38.82 20.13 38.81C20.11 38.79 20.09 38.77 20.07 38.76C19.72 38.47 19.38 38.19 19.02 37.9C18.67 37.61 18.32 37.32 17.96 37.03C17.61 36.75 17.25 36.47 16.9 36.19C16.52 35.91 16.15 35.62 15.77 35.34C15.84 35.47 15.82 35.53 15.77 35.56C15.72 35.6 15.63 35.61 15.58 35.63C15.56 35.62 15.55 35.6 15.54 35.59C15.55 35.6 15.56 35.62 15.58 35.63C15.47 35.66 15.44 35.74 15.79 36.07C15.44 35.74 15.47 35.66 15.58 35.63C15.66 35.71 15.75 35.79 15.84 35.86C15.93 35.94 16.02 36.02 16.11 36.1C16.28 36.25 16.45 36.4 16.63 36.55C16.97 36.85 17.3 37.14 17.64 37.44C17.98 37.73 18.32 38.03 18.67 38.33C18.85 38.48 19.02 38.63 19.2 38.78C19.29 38.85 19.38 38.92 19.47 39C19.55 39.06 19.63 39.13 19.71 39.19C19.72 39.2 19.73 39.21 19.74 39.22L19.76 39.24L19.79 39.27L19.91 39.39L19.99 39.47L20.04 39.52L20.09 39.57L20.16 39.63L20.19 39.66L20.23 39.69L20.3 39.75C20.33 39.78 20.36 39.8 20.39 39.83L20.44 39.86L20.49 39.9C20.53 39.93 20.56 39.96 20.6 39.99L20.63 40.01L20.66 40.03L20.73 40.07L20.8 40.12L20.84 40.14L20.88 40.17C20.93 40.2 20.98 40.23 21.04 40.26C21.1 40.29 21.17 40.32 21.23 40.35L21.28 40.37C21.3 40.38 21.31 40.39 21.33 40.4C21.37 40.41 21.41 40.43 21.44 40.45C21.48 40.46 21.52 40.47 21.56 40.49L21.62 40.51C21.64 40.52 21.66 40.52 21.68 40.53C21.76 40.56 21.85 40.58 21.94 40.61C21.98 40.62 22.03 40.63 22.08 40.64C22.13 40.65 22.18 40.66 22.22 40.67C22.27 40.67 22.32 40.68 22.37 40.69C22.42 40.7 22.47 40.7 22.52 40.71C22.63 40.71 22.73 40.72 22.83 40.72C22.93 40.72 23.03 40.72 23.14 40.71C23.16 40.71 23.19 40.71 23.21 40.71L23.29 40.7C23.34 40.7 23.39 40.69 23.44 40.68C23.49 40.67 23.53 40.67 23.58 40.66C23.63 40.65 23.67 40.64 23.72 40.63C23.81 40.61 23.9 40.58 23.99 40.56L24.02 40.55L24.05 40.54L24.11 40.52C24.15 40.51 24.19 40.49 24.23 40.48C24.27 40.47 24.3 40.45 24.34 40.43C24.36 40.43 24.38 40.42 24.4 40.41L24.45 40.39C24.51 40.36 24.58 40.33 24.64 40.29L24.69 40.27L24.71 40.26L24.74 40.25L24.82 40.2C24.87 40.17 24.93 40.14 24.98 40.11L25 40.09L25.02 40.08L25.05 40.06L25.12 40.01C25.16 39.98 25.2 39.95 25.25 39.92L25.27 39.9L25.3 39.88L25.35 39.83C25.39 39.81 25.42 39.78 25.46 39.75L25.48 39.73L25.51 39.71L25.55 39.67C25.58 39.64 25.61 39.62 25.64 39.59L25.68 39.55L25.7 39.53C25.79 39.44 25.88 39.35 25.97 39.26C26.31 38.91 26.6 38.55 26.85 38.22C27.11 37.88 27.33 37.56 27.54 37.25C27.74 36.95 27.92 36.66 28.09 36.4C28.26 36.14 28.42 35.9 28.57 35.7C28.75 35.45 28.93 35.2 29.11 34.95C29.3 34.69 29.49 34.42 29.68 34.15C30.44 33.1 31.17 32.07 31.92 31.09C32.66 30.1 33.45 29.12 34.27 28.14C33.48 29.13 32.72 30.11 32 31.11C31.28 32.1 30.57 33.15 29.83 34.23C29.64 34.5 29.46 34.77 29.27 35.04L28.99 35.45L28.84 35.66L28.74 35.8C28.6 36.01 28.45 36.25 28.28 36.52C28.12 36.78 27.94 37.07 27.74 37.38C27.53 37.69 27.31 38.02 27.05 38.37C26.79 38.72 26.5 39.08 26.15 39.45C26.06 39.54 25.97 39.64 25.88 39.73L25.87 39.74L25.85 39.75L25.81 39.79C25.78 39.82 25.75 39.85 25.72 39.88L25.67 39.92L25.65 39.94L25.62 39.96C25.58 40 25.54 40.03 25.51 40.06L25.45 40.1L25.42 40.12L25.39 40.15C25.34 40.18 25.3 40.21 25.25 40.24L25.18 40.29L25.14 40.32L25.1 40.34C25.04 40.38 24.99 40.41 24.93 40.45L24.84 40.49L24.82 40.51L24.79 40.52L24.74 40.55C24.67 40.58 24.6 40.61 24.53 40.64L24.48 40.67L24.41 40.69C24.37 40.71 24.33 40.72 24.29 40.74C24.25 40.76 24.21 40.77 24.16 40.78L24.1 40.81L24.07 40.81L24.03 40.82C23.94 40.85 23.84 40.88 23.75 40.9L23.67 40.92C23.65 40.92 23.62 40.93 23.6 40.93C23.55 40.94 23.49 40.95 23.44 40.96C23.39 40.96 23.34 40.97 23.28 40.98C23.26 40.98 23.23 40.98 23.2 40.98L23.12 40.99C23.01 40.99 22.9 41 22.79 40.99C22.68 40.99 22.57 40.99 22.46 40.98C22.41 40.97 22.35 40.96 22.3 40.96C22.25 40.95 22.2 40.94 22.15 40.93C22.09 40.92 22.04 40.91 21.99 40.9L21.91 40.88C21.89 40.88 21.87 40.87 21.84 40.87C21.75 40.84 21.66 40.82 21.56 40.79L21.53 40.77L21.5 40.76L21.44 40.74C21.4 40.73 21.36 40.71 21.31 40.69C21.27 40.68 21.23 40.66 21.19 40.64C21.16 40.63 21.12 40.61 21.09 40.59C21.05 40.58 21.02 40.56 20.98 40.54L20.93 40.52L20.88 40.49C20.83 40.46 20.77 40.43 20.71 40.39L20.67 40.37L20.63 40.34L20.56 40.3L20.49 40.25L20.45 40.23L20.42 40.2C20.38 40.18 20.34 40.15 20.3 40.12L20.27 40.1L20.25 40.07L20.2 40.04C20.17 40.01 20.13 39.98 20.1 39.96L20.02 39.89L19.99 39.86L19.95 39.83L19.89 39.77L19.83 39.72L19.78 39.66L19.7 39.58L19.58 39.46L19.56 39.44L19.55 39.44C19.55 39.43 19.55 39.43 19.55 39.43L19.54 39.42C19.53 39.42 19.52 39.41 19.52 39.41C19.53 39.42 19.47 39.37 19.44 39.34L19.33 39.25L19.11 39.07C18.96 38.95 18.81 38.83 18.67 38.71C18.38 38.46 18.09 38.22 17.81 37.98C17.25 37.49 16.71 37.01 16.18 36.54L15.97 36.35L15.75 36.15L15.54 35.96L15.33 35.76C15.05 35.5 14.78 35.25 14.51 34.99C13.97 34.47 13.45 33.97 12.95 33.48L12.76 33.29L12.57 33.11L12.39 32.94L12.21 32.76C11.96 32.53 11.69 32.27 11.41 32.01C10.85 31.47 10.25 30.87 9.64 30.16L9.59 30.09L9.53 30.03L9.42 29.89L9.36 29.82L9.32 29.77L9.23 29.65L9.05 29.43L8.87 29.2C8.75 29.05 8.63 28.9 8.51 28.74C8.4 28.59 8.28 28.44 8.16 28.29C7.7 27.68 7.25 27.07 6.82 26.47C6.53 26.08 5.97 25.3 5.69 24.91C5.52 24.45 5.33 24.01 5.12 23.58C5.07 23.47 5.02 23.37 4.97 23.26L4.93 23.18L4.88 23.09L4.78 22.9L4.39 22.19C4.15 21.73 3.92 21.3 3.69 20.92C3.46 20.53 3.23 20.18 3 19.87C3.11 19.84 3.22 19.79 3.32 19.71C3.42 19.63 3.52 19.54 3.62 19.44C3.81 19.23 4 19.01 4.21 18.88C4.32 18.81 4.43 18.77 4.56 18.77C4.62 18.78 4.69 18.79 4.75 18.81C4.82 18.84 4.89 18.87 4.97 18.93C5.12 19.03 5.29 19.19 5.48 19.44C5.66 19.68 5.86 20.01 6.1 20.44C6.24 20.34 6.53 20.15 6.67 20.05C6.5 19.6 6.36 19.16 6.26 18.74C6.16 18.33 6.09 17.94 6.04 17.58C6.03 17.49 6.02 17.4 6.01 17.31C6 17.23 5.99 17.14 5.99 17.06C5.98 16.97 5.98 16.9 5.98 16.82C5.97 16.74 5.97 16.66 5.97 16.59C5.97 16.51 5.98 16.44 5.98 16.37C5.99 16.3 6 16.23 6 16.17C6.02 16.04 6.05 15.92 6.09 15.81C6.17 15.61 6.3 15.46 6.46 15.35C6.5 15.33 6.55 15.31 6.59 15.29C6.62 15.28 6.64 15.27 6.66 15.26C6.67 15.26 6.68 15.25 6.7 15.25C6.71 15.25 6.72 15.25 6.74 15.25C6.85 15.23 6.97 15.24 7.11 15.26C7.38 15.32 7.69 15.45 8.04 15.68C8.39 15.91 8.76 16.22 9.14 16.62C9.19 16.68 9.24 16.73 9.29 16.79C9.34 16.84 9.39 16.9 9.44 16.95C9.53 17.06 9.63 17.18 9.72 17.29C9.91 17.51 10.09 17.72 10.26 17.94C10.42 18.14 10.58 18.34 10.74 18.54C10.78 18.59 10.82 18.64 10.86 18.68L10.92 18.75C10.94 18.78 10.96 18.81 10.99 18.84C11.08 18.96 11.18 19.09 11.28 19.21C12.05 20.2 12.78 21.25 13.52 22.29C13.89 22.81 14.26 23.34 14.64 23.85C14.73 23.97 14.83 24.1 14.92 24.23C15.01 24.35 15.11 24.48 15.2 24.6L15.35 24.79L15.42 24.88L15.45 24.93L15.47 24.95L15.49 24.97C15.52 25.01 15.56 25.06 15.6 25.1L15.71 25.24C16.03 25.62 16.43 26.01 16.88 26.43C17.11 26.64 17.36 26.86 17.61 27.09C17.75 27.21 17.88 27.32 18.01 27.44C18.07 27.5 18.14 27.55 18.2 27.61C18.27 27.67 18.33 27.72 18.4 27.78C18.94 28.27 19.47 28.75 19.98 29.22C20.24 29.45 20.49 29.67 20.74 29.9L21.11 30.22L21.48 30.54C22.03 31.01 22.56 31.47 23.07 31.92L23.83 32.6L24.21 32.92L24.39 33.09L24.48 33.17L24.53 33.21L24.54 33.22L24.56 33.24L24.61 33.28C24.7 33.36 24.79 33.43 24.87 33.51C24.96 33.59 25.04 33.68 25.12 33.76L25.18 33.82L25.24 33.89L25.25 33.9L25.26 33.91L25.27 33.92L25.29 33.94L25.3 33.95C25.31 33.97 25.32 33.97 25.32 33.98C25.32 33.98 25.32 33.98 25.31 33.99L25.3 34L25.24 34.05L25.03 34.27C24.88 34.41 24.74 34.56 24.6 34.7L24.55 34.76L24.52 34.79L24.51 34.8L24.45 34.86L24.33 34.99C24.24 35.07 24.16 35.16 24.08 35.24L23.96 35.37L23.88 35.45C23.83 35.51 23.78 35.57 23.72 35.62L23.65 35.71L23.61 35.75L23.58 35.79C23.55 35.83 23.51 35.87 23.47 35.91C23.44 35.95 23.4 35.99 23.37 36.04C23.34 36.07 23.31 36.1 23.29 36.13C23.26 36.17 23.23 36.2 23.21 36.23L23.2 36.24L23.19 36.25L23.18 36.27L23.15 36.31C23.13 36.34 23.11 36.36 23.1 36.39L23.08 36.41L23.07 36.42L23.05 36.45C23.03 36.48 23.02 36.5 23.01 36.52L23 36.54L22.99 36.55L22.97 36.57C22.96 36.59 22.96 36.6 22.95 36.62L22.94 36.64L22.93 36.65L22.92 36.67C22.92 36.68 22.91 36.7 22.9 36.71C22.9 36.72 22.9 36.72 22.9 36.73L22.89 36.74C22.85 36.83 22.86 36.87 22.86 36.85C22.86 36.84 22.85 36.77 22.8 36.67L22.79 36.66L22.79 36.65C22.78 36.64 22.78 36.64 22.78 36.64C22.77 36.62 22.77 36.6 22.76 36.59C22.74 36.56 22.72 36.54 22.7 36.5C22.68 36.47 22.65 36.43 22.63 36.4C22.6 36.36 22.57 36.32 22.54 36.29C22.53 36.27 22.51 36.25 22.5 36.24C22.48 36.21 22.46 36.19 22.44 36.17C22.41 36.13 22.37 36.09 22.33 36.06L22.33 36.05C18.48 32.05 21.26 34.94 20.4 34.05L20.41 34.05L20.41 34.05L20.41 34.04L20.43 34.03C20.44 34.02 20.46 34.01 20.47 34C20.49 33.99 20.51 33.97 20.53 33.96L20.56 33.94L20.59 33.91C20.61 33.89 20.63 33.88 20.65 33.86L20.72 33.79L20.76 33.76C20.77 33.75 20.79 33.73 20.8 33.72C20.94 33.58 21.1 33.4 21.28 33.19C21.45 32.97 21.64 32.72 21.84 32.45C22.04 32.17 22.26 31.86 22.51 31.52L22.61 31.4L22.65 31.33L22.69 31.29C22.74 31.22 22.79 31.16 22.84 31.09C22.94 30.96 23.04 30.83 23.14 30.71C23.94 29.66 24.74 28.53 25.59 27.39C25.8 27.11 26.02 26.82 26.23 26.54C26.45 26.26 26.67 25.98 26.89 25.7C27.33 25.14 27.78 24.6 28.23 24.06C28.69 23.53 29.15 23.02 29.61 22.51C29.85 22.26 30.08 22.02 30.32 21.77C30.38 21.71 30.44 21.65 30.5 21.59C30.56 21.52 30.63 21.46 30.69 21.4C30.81 21.27 30.94 21.15 31.07 21.03C31.42 20.66 31.8 20.21 32.18 19.73C32.57 19.26 32.95 18.76 33.32 18.3C33.69 17.84 34.03 17.42 34.34 17.08C34.49 16.92 34.64 16.78 34.77 16.66C34.84 16.6 34.91 16.56 34.97 16.51C35 16.49 35.04 16.48 35.07 16.46C35.08 16.45 35.1 16.44 35.11 16.44C35.12 16.43 35.13 16.43 35.14 16.42C35.15 16.42 35.15 16.41 35.16 16.41C35.2 16.39 35.24 16.37 35.27 16.35C35.3 16.34 35.33 16.33 35.36 16.31C35.43 16.29 35.48 16.27 35.54 16.26C35.65 16.24 35.75 16.25 35.84 16.27C36.02 16.32 36.17 16.45 36.3 16.61C36.25 16.68 36.19 16.75 36.14 16.82C36.08 16.89 36.03 16.95 35.97 17.02L35.79 17.25C35.73 17.32 35.67 17.39 35.61 17.46C35.37 17.75 35.12 18.04 34.87 18.33C34.37 18.91 33.85 19.49 33.33 20.08C33.07 20.37 32.81 20.67 32.55 20.98C32.29 21.28 32.03 21.58 31.77 21.89C31.64 22.05 31.51 22.21 31.38 22.36C31.26 22.52 31.13 22.67 31.01 22.82C30.77 23.13 30.52 23.43 30.27 23.74C29.65 24.47 29.03 25.21 28.42 25.96C28.11 26.33 27.8 26.71 27.5 27.09C27.2 27.47 26.89 27.86 26.59 28.24C26 29.01 25.41 29.77 24.83 30.51C24.54 30.88 24.24 31.24 23.95 31.6L23.73 31.87L23.61 32L23.48 32.17L23.42 32.25L23.36 32.33L23.23 32.49L23 32.8C23.08 32.7 23.16 32.6 23.24 32.5L23.36 32.35L23.49 32.19L23.63 32.04L23.64 32.02L23.66 32L23.69 31.97L23.74 31.9C23.82 31.82 23.89 31.73 23.97 31.64C24.27 31.3 24.56 30.94 24.86 30.58C25.45 29.86 26.04 29.1 26.63 28.34C26.93 27.95 27.23 27.57 27.54 27.18C27.84 26.8 28.14 26.41 28.44 26.03C29.05 25.26 29.66 24.5 30.28 23.74C30.53 23.44 30.79 23.14 31.04 22.85L31.42 22.4C31.56 22.25 31.69 22.1 31.82 21.95C32.09 21.64 32.36 21.35 32.63 21.06C32.89 20.77 33.16 20.49 33.43 20.2C33.97 19.64 34.5 19.09 35.02 18.53C35.28 18.26 35.54 17.98 35.79 17.7C35.91 17.56 36.04 17.43 36.16 17.29L36.35 17.08C36.41 17.01 36.46 16.95 36.52 16.88C36.63 17.02 36.74 17.18 36.87 17.3C37 17.42 37.16 17.51 37.35 17.54C37.35 17.54 37.38 17.5 37.44 17.42C37.49 17.34 37.57 17.24 37.65 17.12C37.82 16.88 38.01 16.59 38.11 16.4C38.32 16.26 38.5 16.15 38.67 16.04C38.75 15.98 38.83 15.92 38.9 15.87C38.98 15.81 39.05 15.74 39.11 15.66C39.17 15.57 39.21 15.47 39.23 15.35C39.24 15.23 39.23 15.1 39.2 14.99C39.18 14.88 39.16 14.78 39.15 14.7C39.14 14.62 39.15 14.55 39.18 14.49C39.21 14.44 39.27 14.39 39.35 14.37C39.37 14.37 39.4 14.36 39.42 14.36C39.45 14.36 39.47 14.35 39.5 14.36C39.56 14.36 39.63 14.37 39.71 14.4C39.78 14.42 39.86 14.46 39.95 14.51C40.03 14.57 40.12 14.64 40.2 14.71C40.22 14.73 40.24 14.76 40.26 14.78C40.27 14.79 40.28 14.8 40.29 14.81C40.3 14.82 40.31 14.83 40.32 14.85C40.35 14.89 40.39 14.94 40.43 14.99C40.49 15.08 40.55 15.19 40.6 15.29C40.7 15.49 40.77 15.69 40.81 15.87C40.86 16.05 40.89 16.21 40.91 16.37C40.92 16.4 40.93 16.44 40.93 16.48C40.94 16.51 40.94 16.55 40.94 16.59C40.95 16.62 40.95 16.66 40.96 16.69C40.96 16.73 40.96 16.76 40.97 16.79C40.97 16.83 40.97 16.86 40.98 16.9C40.98 16.93 40.98 16.96 40.98 16.99C40.99 17.06 40.99 17.12 41 17.18C40.99 17.3 40.99 17.41 40.98 17.54C40.97 17.65 40.97 17.77 40.96 17.88C40.95 17.99 40.94 18.1 40.93 18.22C40.94 18.34 40.93 18.45 40.92 18.56Z" fill="#CBA265" fill-opacity="1.000000" fill-rule="nonzero"/>
	<path id="vector_01" d="M35.86 6.83C35.63 6.99 35.42 7.11 35.24 7.21C35.15 7.26 35.06 7.31 35 7.34C34.97 7.35 34.95 7.36 34.93 7.36L34.8 7.44C34.72 7.5 34.64 7.55 34.55 7.6C34.47 7.65 34.39 7.71 34.31 7.76C34.14 7.87 33.99 7.98 33.83 8.09C33.67 8.2 33.51 8.31 33.36 8.43C33.2 8.54 33.05 8.66 32.9 8.77C32.83 8.83 32.75 8.89 32.68 8.95C32.6 9.01 32.53 9.07 32.46 9.13L32.35 9.22L32.24 9.31C32.17 9.37 32.09 9.44 32.02 9.5C31.95 9.56 31.88 9.62 31.81 9.69C31.74 9.75 31.67 9.81 31.6 9.87C31.53 9.93 31.46 10 31.39 10.06C31.32 10.13 31.25 10.19 31.18 10.25C31.04 10.38 30.91 10.51 30.78 10.64C30.51 10.91 30.25 11.18 29.99 11.45C29.86 11.59 29.74 11.73 29.61 11.87C29.47 12.02 29.33 12.18 29.19 12.34C28.9 12.66 28.62 12.98 28.32 13.3C27.96 13.65 27.62 14.03 27.28 14.43C27.11 14.63 26.95 14.83 26.79 15.04C26.71 15.14 26.63 15.25 26.55 15.35C26.52 15.4 26.48 15.45 26.44 15.5C26.41 15.55 26.37 15.6 26.34 15.65C26.06 16.05 25.78 16.5 25.5 16.97C25.35 17.2 25.2 17.44 25.05 17.68C24.97 17.81 24.9 17.93 24.82 18.05C24.78 18.11 24.73 18.17 24.69 18.24C24.65 18.3 24.61 18.36 24.57 18.41C24.57 18.43 24.56 18.44 24.55 18.45L24.52 18.5C24.49 18.54 24.46 18.59 24.43 18.64C24.37 18.74 24.29 18.86 24.21 18.98C24.13 19.1 24.03 19.23 23.92 19.37C23.81 19.52 23.68 19.67 23.5 19.83C23.69 19.67 23.82 19.52 23.94 19.38C24.06 19.24 24.16 19.11 24.25 18.99C24.34 18.87 24.41 18.76 24.49 18.66L24.54 18.59L24.58 18.53L24.6 18.51C24.6 18.5 24.61 18.49 24.61 18.49C24.62 18.48 24.63 18.47 24.64 18.46C24.7 18.38 24.75 18.31 24.81 18.24C24.86 18.16 24.92 18.08 24.98 18.01C25.03 17.93 25.09 17.86 25.14 17.78L25.22 17.67L25.3 17.56C25.5 17.26 25.7 16.97 25.89 16.69C26.08 16.41 26.27 16.14 26.45 15.89C26.54 15.77 26.63 15.64 26.72 15.53L27.02 15.13C27.84 14.08 28.71 13.04 29.61 12.02C29.66 11.95 29.71 11.9 29.76 11.84L29.92 11.68C30.02 11.57 30.13 11.46 30.23 11.35C30.34 11.25 30.45 11.14 30.56 11.04L30.73 10.88C30.79 10.83 30.85 10.78 30.9 10.73C31.36 10.32 31.85 9.93 32.36 9.57C32.86 9.2 33.4 8.85 33.95 8.51C34.22 8.35 34.5 8.18 34.78 8.02C34.92 7.95 35.07 7.87 35.21 7.79L35.24 7.77L35.25 7.77L35.26 7.76C35.26 7.76 35.26 7.76 35.26 7.76L35.27 7.76C35.27 7.76 35.27 7.76 35.28 7.76L35.29 7.76C35.3 7.76 35.3 7.76 35.31 7.75L35.33 7.75C35.33 7.74 35.34 7.74 35.35 7.74C35.4 7.72 35.48 7.68 35.56 7.64C35.53 7.73 35.5 7.81 35.48 7.89C35.48 7.9 35.48 7.92 35.48 7.94L35.47 7.96L35.47 7.97L35.47 7.98L35.48 8L35.48 8.01C35.48 8.02 35.48 8.02 35.48 8.02L35.48 8.03L35.49 8.04L35.49 8.04L35.46 8.01L35.45 7.99C35.43 7.98 35.53 8.09 35.49 8.04L35.49 8.04L35.48 8.05L35.48 8.06C35.42 8.22 35.35 8.38 35.26 8.54C35.1 8.85 34.88 9.14 34.6 9.39C34.51 9.45 34.42 9.52 34.33 9.58C34.24 9.65 34.15 9.71 34.06 9.78C33.97 9.84 33.89 9.91 33.8 9.98L33.67 10.07L33.54 10.17C33.37 10.3 33.21 10.44 33.04 10.57C32.96 10.63 32.88 10.7 32.8 10.77C32.72 10.83 32.64 10.9 32.57 10.97C32.41 11.1 32.26 11.24 32.11 11.37C32.03 11.44 31.96 11.51 31.89 11.58C31.85 11.61 31.81 11.64 31.78 11.68L31.67 11.78L31.57 11.89L31.51 11.94L31.46 11.99L31.26 12.2C31.19 12.27 31.13 12.34 31.06 12.41C31.03 12.45 30.99 12.48 30.96 12.52L30.87 12.62C30.73 12.51 30.47 12.3 30.33 12.19C30.29 12.26 30.25 12.32 30.21 12.39C30.16 12.46 30.11 12.54 30.06 12.61C29.96 12.76 29.86 12.91 29.76 13.06C29.55 13.35 29.35 13.64 29.14 13.92C28.72 14.49 28.3 15.03 27.87 15.57C27.77 15.7 27.66 15.84 27.55 15.97L27.41 16.15C27.36 16.21 27.32 16.27 27.27 16.33C27.09 16.57 26.89 16.83 26.69 17.11C26.47 17.4 26.26 17.69 26.04 17.99L25.87 18.22L25.78 18.34L25.69 18.46C25.63 18.54 25.57 18.62 25.51 18.7C25.45 18.78 25.38 18.86 25.32 18.94L25.3 18.96C25.3 18.96 25.3 18.96 25.29 18.96L25.28 18.98C25.28 18.98 25.27 18.99 25.26 19L25.24 19.04L25.21 19.07L25.15 19.16C25.06 19.29 24.95 19.44 24.83 19.6L24.78 19.66L24.73 19.73C24.69 19.77 24.66 19.82 24.62 19.86C24.6 19.88 24.58 19.91 24.56 19.93L24.5 20.01L24.43 20.08L24.4 20.12L24.36 20.16L24.28 20.24C24.25 20.27 24.22 20.3 24.19 20.33C24.14 20.38 24.07 20.44 24 20.5C23.99 20.52 23.97 20.53 23.95 20.55L23.89 20.6L23.83 20.65L23.82 20.66L23.8 20.67L23.77 20.7C23.72 20.73 23.68 20.77 23.63 20.8C23.58 20.83 23.53 20.87 23.47 20.9L23.43 20.93L23.41 20.94L23.38 20.96C23.35 20.98 23.32 21 23.29 21.02C23.25 21.03 23.22 21.05 23.19 21.07L23.16 21.08L23.14 21.1L23.08 21.13C23.04 21.14 23 21.16 22.96 21.18L22.9 21.21L22.87 21.22L22.84 21.23C22.75 21.27 22.66 21.3 22.56 21.33L22.53 21.34L22.51 21.35L22.48 21.35L22.4 21.37C22.35 21.39 22.29 21.4 22.24 21.41L22.15 21.43L22.11 21.43L22.07 21.44C22 21.45 21.94 21.46 21.88 21.46C21.82 21.47 21.76 21.47 21.69 21.48C21.63 21.48 21.56 21.48 21.5 21.48C21.36 21.47 21.23 21.46 21.1 21.44C21.03 21.43 20.96 21.42 20.89 21.41C20.83 21.39 20.76 21.38 20.7 21.36C20.58 21.33 20.45 21.28 20.33 21.24C20.3 21.23 20.27 21.21 20.25 21.2C20.22 21.19 20.19 21.18 20.17 21.17C20.11 21.14 20.06 21.12 20.01 21.09C19.98 21.07 19.95 21.06 19.93 21.04C19.91 21.04 19.9 21.03 19.89 21.02L19.85 21C19.81 20.98 19.77 20.95 19.72 20.92C19.68 20.89 19.64 20.86 19.59 20.83L19.56 20.81L19.55 20.79L19.53 20.79L19.5 20.76C19.45 20.72 19.4 20.68 19.36 20.64C19.31 20.6 19.27 20.56 19.23 20.53C19.2 20.51 19.19 20.49 19.17 20.47L19.11 20.42C19.09 20.4 19.07 20.38 19.05 20.36L19 20.31C18.97 20.27 18.94 20.24 18.91 20.2C18.88 20.17 18.85 20.14 18.83 20.11L18.75 20.01C18.66 19.9 18.59 19.79 18.53 19.71L18.41 19.54C18.4 19.52 18.39 19.51 18.38 19.49C18.35 19.45 18.31 19.41 18.28 19.38C18.26 19.37 18.24 19.35 18.22 19.34C18.21 19.33 18.2 19.32 18.19 19.32L18.18 19.3L18.15 19.29C18.01 19.18 17.78 19.03 17.47 18.82L17.35 18.74L17.23 18.65C17.15 18.59 17.07 18.54 16.99 18.48C16.83 18.37 16.68 18.26 16.53 18.15C16.23 17.93 15.95 17.73 15.67 17.54C15.75 17.74 15.57 17.76 15.47 17.81C15.46 17.8 15.45 17.79 15.44 17.79C15.45 17.79 15.46 17.8 15.47 17.81C15.42 17.84 15.39 17.86 15.4 17.92C15.4 17.94 15.42 17.98 15.45 18.02C15.47 18.04 15.48 18.06 15.51 18.09C15.53 18.11 15.56 18.14 15.59 18.17C15.56 18.14 15.53 18.11 15.51 18.09C15.48 18.06 15.46 18.04 15.45 18.02C15.42 17.98 15.4 17.94 15.4 17.92C15.38 17.86 15.42 17.84 15.47 17.81C15.71 18.03 15.97 18.26 16.25 18.5L16.36 18.59L16.47 18.69C16.55 18.75 16.62 18.81 16.7 18.87L16.81 18.96L16.87 19.01L16.93 19.06C17.02 19.12 17.1 19.18 17.17 19.24C17.3 19.34 17.43 19.43 17.55 19.52C17.66 19.6 17.74 19.66 17.8 19.71C17.81 19.72 17.82 19.73 17.83 19.73C17.83 19.74 17.84 19.74 17.84 19.75C17.85 19.75 17.85 19.75 17.86 19.76C17.86 19.76 17.87 19.77 17.87 19.77C17.89 19.79 17.91 19.81 17.93 19.83C17.93 19.84 17.94 19.85 17.95 19.86L18.06 20.03C18.13 20.12 18.21 20.23 18.31 20.36L18.4 20.47L18.42 20.49L18.44 20.52L18.49 20.58C18.52 20.61 18.56 20.65 18.6 20.69L18.65 20.75C18.67 20.77 18.69 20.8 18.71 20.82L18.78 20.88C18.8 20.9 18.82 20.92 18.85 20.94C18.89 20.98 18.94 21.03 18.99 21.07C19.04 21.11 19.1 21.16 19.15 21.2L19.2 21.23L19.23 21.26L19.26 21.28C19.31 21.32 19.36 21.35 19.41 21.39C19.47 21.42 19.52 21.45 19.57 21.48L19.61 21.51C19.62 21.51 19.63 21.52 19.65 21.53C19.68 21.55 19.71 21.56 19.74 21.58C19.8 21.61 19.86 21.64 19.93 21.67C19.96 21.68 19.99 21.7 20.02 21.71L20.07 21.73C20.08 21.74 20.1 21.75 20.12 21.76C20.26 21.81 20.4 21.86 20.55 21.9C20.62 21.92 20.7 21.94 20.78 21.95C20.86 21.96 20.94 21.98 21.01 21.99C21.17 22.01 21.33 22.02 21.48 22.03C21.56 22.03 21.64 22.03 21.71 22.02C21.78 22.02 21.86 22.01 21.93 22.01C22 22 22.08 21.99 22.15 21.98L22.2 21.97L22.25 21.96C22.28 21.96 22.32 21.95 22.35 21.94C22.41 21.93 22.48 21.92 22.54 21.9C22.57 21.89 22.6 21.88 22.63 21.87L22.66 21.87L22.68 21.86L22.72 21.85C22.83 21.81 22.94 21.77 23.04 21.73L23.08 21.72L23.11 21.7L23.18 21.67C23.23 21.65 23.27 21.63 23.32 21.61L23.39 21.58L23.42 21.56L23.45 21.54C23.48 21.52 23.52 21.5 23.56 21.48C23.6 21.46 23.63 21.44 23.67 21.42L23.69 21.4L23.72 21.39L23.77 21.36C23.83 21.31 23.89 21.27 23.95 21.23C24 21.19 24.05 21.15 24.1 21.11L24.14 21.08L24.16 21.07L24.18 21.06L24.24 21L24.3 20.95C24.33 20.93 24.35 20.91 24.36 20.89C24.44 20.82 24.51 20.75 24.57 20.69L24.62 20.64C24.64 20.62 24.66 20.61 24.67 20.59L24.75 20.5L24.79 20.46L24.83 20.42L24.9 20.33L24.97 20.26C24.99 20.23 25.01 20.2 25.03 20.18C25.07 20.13 25.11 20.08 25.14 20.03L25.2 19.96L25.25 19.89C25.38 19.71 25.48 19.56 25.57 19.43L25.68 19.26L25.7 19.24L25.71 19.23C25.71 19.23 25.71 19.23 25.71 19.22L25.72 19.21C25.78 19.13 25.84 19.05 25.89 18.97C25.95 18.89 26.01 18.8 26.07 18.72L26.16 18.6L26.24 18.48L26.4 18.24C26.6 17.95 26.8 17.65 27 17.35C27.19 17.08 27.37 16.82 27.54 16.58L27.58 16.53L27.61 16.49L27.68 16.4C27.72 16.35 27.76 16.29 27.8 16.24C27.91 16.11 28.01 15.98 28.11 15.85C28.52 15.33 28.95 14.81 29.39 14.29C29.62 14.03 29.84 13.78 30.07 13.51C30.18 13.39 30.3 13.25 30.41 13.12C30.47 13.06 30.53 13 30.59 12.93L30.68 12.83L30.72 12.78L30.76 12.74L30.72 12.78L30.68 12.83L30.6 12.93L30.43 13.13C30.32 13.26 30.21 13.39 30.1 13.52C29.88 13.79 29.66 14.05 29.45 14.32C29.03 14.84 28.62 15.37 28.22 15.9C28.12 16.04 28.02 16.17 27.93 16.3L27.8 16.47L27.74 16.56C27.72 16.59 27.7 16.62 27.68 16.65C27.52 16.89 27.34 17.16 27.16 17.44C26.98 17.72 26.79 18.03 26.58 18.35L26.43 18.59L26.34 18.72L26.26 18.84C26.21 18.93 26.15 19.01 26.09 19.1C26.03 19.18 25.97 19.26 25.92 19.35L25.78 19.56C25.69 19.7 25.59 19.86 25.45 20.04L25.4 20.11L25.35 20.19C25.31 20.24 25.27 20.29 25.23 20.34C25.21 20.37 25.19 20.4 25.17 20.42L25.1 20.51L25.02 20.6L24.99 20.64L24.94 20.69L24.86 20.78C24.83 20.81 24.79 20.85 24.76 20.88L24.71 20.93L24.68 20.96L24.65 20.98C24.62 21.02 24.58 21.06 24.54 21.09L24.51 21.12L24.47 21.15L24.41 21.21L24.34 21.26L24.32 21.28L24.3 21.3L24.26 21.33C24.2 21.37 24.15 21.41 24.1 21.45C24.03 21.5 23.97 21.54 23.9 21.58C23.84 21.62 23.76 21.67 23.68 21.72C23.64 21.74 23.6 21.77 23.56 21.79L23.53 21.8L23.49 21.82L23.42 21.86C23.37 21.88 23.33 21.9 23.28 21.92L23.21 21.95L23.17 21.97L23.13 21.99C23.02 22.03 22.9 22.07 22.78 22.11L22.74 22.12L22.69 22.14C22.65 22.15 22.62 22.16 22.59 22.16C22.52 22.18 22.45 22.2 22.38 22.21C22.35 22.22 22.31 22.22 22.28 22.23C22.26 22.23 22.24 22.23 22.22 22.24L22.17 22.25C22.09 22.26 22.01 22.27 21.93 22.27C21.86 22.28 21.78 22.29 21.7 22.29C21.62 22.29 21.54 22.29 21.45 22.29C21.29 22.28 21.12 22.27 20.95 22.24C20.87 22.23 20.79 22.22 20.71 22.2C20.67 22.19 20.62 22.18 20.58 22.17C20.54 22.17 20.51 22.16 20.47 22.14C20.31 22.1 20.16 22.05 20.01 21.99C19.87 21.94 19.74 21.87 19.61 21.8C19.57 21.79 19.54 21.77 19.51 21.75C19.49 21.74 19.48 21.73 19.47 21.72L19.42 21.7C19.37 21.67 19.31 21.63 19.26 21.6C19.21 21.56 19.15 21.53 19.1 21.49C19.04 21.44 19.02 21.43 18.99 21.41L18.9 21.34L18.86 21.3C18.85 21.29 18.83 21.28 18.82 21.27C18.77 21.22 18.72 21.18 18.66 21.13L18.65 21.11L18.63 21.1L18.59 21.06L18.53 21L18.49 20.96L18.46 20.93L18.4 20.87L18.35 20.81L18.32 20.78L18.29 20.75L18.24 20.69C18.23 20.67 18.21 20.65 18.2 20.63L18.11 20.52C18 20.39 17.92 20.27 17.85 20.18L17.77 20.06L17.74 20.02C17.74 20.02 17.74 20.02 17.73 20.02C17.73 20.01 17.72 20 17.72 20C17.7 19.98 17.68 19.96 17.65 19.94L17.65 19.94L17.64 19.93L17.63 19.92L17.62 19.92L17.61 19.91L17.57 19.88L17.52 19.84L17.47 19.8L17.41 19.76L17.27 19.65L17.11 19.53L17.01 19.46L16.92 19.39L16.87 19.35L16.81 19.31L16.71 19.23L16.51 19.06C16.25 18.85 16.01 18.64 15.79 18.44C15.34 18.04 14.96 17.68 14.62 17.37C14.53 17.3 14.45 17.22 14.37 17.15C14.33 17.12 14.29 17.09 14.26 17.05L14.11 16.93C13.9 16.75 13.69 16.57 13.48 16.38C12.63 15.64 11.76 14.82 10.92 13.9L10.77 13.73L10.61 13.56C10.52 13.45 10.43 13.35 10.34 13.25C10.17 13.06 10 12.87 9.83 12.67C9.5 12.29 9.16 11.92 8.82 11.55C8.71 11.43 8.55 11.26 8.38 11.08C8.21 10.91 8.05 10.74 7.94 10.62C7.8 10.3 7.65 10 7.49 9.72C7.4 9.58 7.32 9.44 7.23 9.31L7.16 9.21C7.14 9.2 7.13 9.18 7.12 9.16L7.08 9.11L7.04 9.06L7 9L6.91 8.89C6.85 8.82 6.78 8.74 6.71 8.66L6.48 8.4C6.33 8.22 6.17 8.03 5.99 7.82C5.82 7.6 5.64 7.37 5.46 7.1L5.39 7L5.33 6.9C5.29 6.84 5.25 6.77 5.21 6.7C5.13 6.57 5.05 6.43 4.99 6.29C5.11 6.31 5.23 6.28 5.35 6.22C5.46 6.16 5.57 6.07 5.68 5.98C5.79 5.88 5.9 5.78 6.01 5.7C6.12 5.62 6.23 5.54 6.35 5.5C6.47 5.46 6.58 5.44 6.71 5.47C6.83 5.49 6.96 5.55 7.1 5.66C7.14 5.69 7.18 5.72 7.21 5.75C7.25 5.78 7.29 5.82 7.33 5.86C7.41 5.94 7.5 6.03 7.6 6.13C7.78 6.33 8 6.58 8.25 6.87C8.36 6.74 8.6 6.49 8.72 6.37C8.53 6.04 8.39 5.7 8.33 5.38C8.3 5.22 8.29 5.07 8.29 4.93C8.3 4.78 8.32 4.64 8.36 4.51C8.43 4.25 8.56 4.03 8.72 3.86C8.88 3.69 9.06 3.56 9.24 3.47C9.41 3.35 9.59 3.28 9.78 3.25C9.82 3.24 9.87 3.24 9.92 3.24C9.94 3.24 9.96 3.24 9.98 3.24C10 3.24 10.01 3.25 10.02 3.25C10.03 3.24 10.04 3.24 10.05 3.24C10.14 3.23 10.22 3.22 10.3 3.22C10.46 3.21 10.62 3.2 10.75 3.19C10.82 3.18 10.89 3.17 10.95 3.17C10.98 3.16 11.01 3.16 11.03 3.15C11.05 3.15 11.06 3.14 11.07 3.14C11.08 3.14 11.08 3.14 11.09 3.13L11.1 3.13L11.11 3.13C11.11 3.13 11.12 3.13 11.13 3.13L11.15 3.14C11.16 3.14 11.17 3.14 11.18 3.14C11.19 3.15 11.19 3.15 11.2 3.15C11.24 3.17 11.28 3.19 11.33 3.21C11.38 3.24 11.43 3.27 11.49 3.3C11.55 3.34 11.61 3.38 11.68 3.43C11.75 3.48 11.82 3.53 11.91 3.6C11.93 3.61 11.95 3.63 11.97 3.64C11.99 3.66 12.02 3.68 12.04 3.7C12.06 3.71 12.09 3.73 12.11 3.75C12.13 3.77 12.16 3.79 12.18 3.81C12.38 3.97 12.57 4.14 12.76 4.3C13.53 4.98 14.25 5.75 14.93 6.53C15.27 6.93 15.61 7.32 15.94 7.72C16.1 7.91 16.26 8.11 16.43 8.31L16.53 8.43C16.57 8.47 16.6 8.51 16.63 8.55C16.7 8.63 16.77 8.71 16.84 8.78C17.39 9.4 18.04 9.99 18.76 10.52C18.94 10.67 19.13 10.82 19.33 10.97C19.38 11.01 19.42 11.04 19.49 11.09C19.55 11.14 19.61 11.19 19.67 11.24C19.79 11.34 19.91 11.44 20.02 11.54C20.47 11.92 20.86 12.26 21.19 12.54C21.36 12.68 21.51 12.8 21.65 12.91L21.76 12.99L21.85 13.06L22.11 13.26C22.21 13.33 22.34 13.43 22.48 13.54L22.59 13.63L22.7 13.73L22.73 13.75L22.76 13.78L22.83 13.83L22.9 13.89L22.97 13.96C23.36 14.3 23.71 14.69 24.02 15.1C24.07 15.18 24.13 15.26 24.18 15.33L24.26 15.45L24.29 15.51L24.31 15.53L24.32 15.54L24.33 15.57L24.34 15.58L24.34 15.58L24.34 15.58L24.35 15.59L24.35 15.6C24.35 15.6 24.35 15.6 24.35 15.6L24.35 15.61L24.32 15.63L24.23 15.7L24.05 15.83L24.01 15.86L23.99 15.87L23.94 15.91L23.74 16.05C23.6 16.15 23.47 16.25 23.34 16.35L23.32 16.37L23.3 16.38L23.27 16.41L23.2 16.45L23.08 16.55L22.95 16.65L22.89 16.7L22.86 16.72L22.84 16.74C22.78 16.79 22.73 16.83 22.67 16.88L22.59 16.95L22.56 16.97L22.55 16.98L22.52 17.01C22.48 17.05 22.43 17.08 22.39 17.12L22.36 17.15L22.35 17.16C22.34 17.17 22.34 17.17 22.34 17.17L22.29 17.21C22.26 17.24 22.23 17.27 22.2 17.3C22.19 17.32 22.18 17.32 22.16 17.34L22.13 17.37L22.1 17.41L22.08 17.42C22.08 17.43 22.07 17.43 22.07 17.44C22.05 17.46 22.03 17.48 22.02 17.5C22 17.51 21.98 17.54 21.97 17.55C21.96 17.56 21.95 17.58 21.94 17.59L21.93 17.61L21.92 17.61L21.66 17.95L21.66 17.96C21.66 17.96 21.65 17.97 21.65 17.98C21.63 18 21.61 18.04 21.6 18.05C21.6 18.06 21.59 18.08 21.59 18.08C21.58 18.09 21.58 18.09 21.58 18.09C21.58 18.1 21.58 18.1 21.58 18.1C21.58 18.1 21.58 18.11 21.58 18.11L21.58 18.12L21.58 18.12L21.58 18.12L21.58 18.12L21.58 18.12C21.58 18.11 21.58 18.11 21.58 18.11C21.58 18.11 21.58 18.1 21.58 18.1C21.58 18.09 21.58 18.09 21.58 18.08C21.58 18.08 21.58 18.07 21.57 18.07C21.57 18.07 21.57 18.06 21.57 18.06C21.57 18.04 21.57 18.03 21.56 18.02C21.56 18.01 21.56 18 21.55 18C21.55 17.99 21.55 17.98 21.55 17.97C21.5 17.83 21.39 17.63 21.21 17.39C21.02 17.15 20.76 16.88 20.43 16.57C20.39 16.52 20.34 16.49 20.3 16.45L20.27 16.42L20.25 16.4L20.23 16.39L20.16 16.32C20.11 16.28 20.06 16.24 20.01 16.2L19.94 16.13L19.92 16.12L19.9 16.1L19.86 16.07C19.8 16.02 19.75 15.97 19.69 15.93L19.61 15.86L19.56 15.83C19.55 15.82 19.53 15.81 19.52 15.79C19.45 15.74 19.39 15.69 19.32 15.64L19.23 15.56L19.18 15.52L19.15 15.5L19.15 15.5C19.17 15.51 19.22 15.48 19.3 15.4C19.33 15.35 19.37 15.3 19.43 15.24L19.48 15.18L19.53 15.1C19.58 15.04 19.63 14.98 19.67 14.92C19.74 14.85 19.8 14.78 19.86 14.71C19.89 14.67 19.92 14.64 19.95 14.6L20.05 14.49C20.17 14.33 20.3 14.17 20.43 14C20.56 13.82 20.7 13.64 20.84 13.44C20.98 13.24 21.13 13.04 21.28 12.84C21.43 12.63 21.59 12.41 21.76 12.19L21.89 12.02L22 11.87C22.08 11.78 22.16 11.68 22.23 11.58C22.54 11.2 22.85 10.82 23.16 10.44C23.47 10.07 23.79 9.7 24.11 9.34C24.26 9.16 24.42 8.98 24.58 8.8C24.67 8.72 24.74 8.63 24.83 8.54C24.91 8.45 24.99 8.37 25.07 8.28C25.44 7.88 25.82 7.51 26.21 7.16C26.3 7.07 26.4 6.99 26.5 6.91C26.55 6.87 26.6 6.82 26.65 6.78C26.7 6.74 26.75 6.7 26.8 6.66C26.9 6.58 26.99 6.5 27.09 6.42C27.2 6.35 27.3 6.27 27.4 6.2C27.47 6.14 27.55 6.07 27.63 6C27.71 5.93 27.79 5.86 27.87 5.78C28.03 5.63 28.2 5.46 28.37 5.29C28.7 4.95 29.05 4.6 29.39 4.27C29.47 4.19 29.56 4.11 29.64 4.04C29.72 3.96 29.8 3.88 29.88 3.81C30.04 3.67 30.2 3.55 30.35 3.44C30.49 3.33 30.64 3.24 30.77 3.17C30.9 3.11 31.02 3.07 31.13 3.06C31.2 3.05 31.26 3.04 31.32 3.03C31.33 3.03 31.34 3.03 31.35 3.03C31.35 3.03 31.35 3.03 31.36 3.03C31.36 3.02 31.37 3.02 31.37 3.02C31.39 3.02 31.41 3.01 31.43 3.01C31.44 3 31.45 3 31.46 3C31.47 3 31.48 3 31.48 3C31.5 3 31.52 3 31.53 3C31.66 2.99 31.75 3.02 31.83 3.07C31.99 3.17 32.09 3.33 32.19 3.52C32.12 3.57 32.05 3.62 31.97 3.68L31.79 3.83L31.44 4.1C31.21 4.29 30.98 4.48 30.76 4.67C30.3 5.05 29.84 5.44 29.39 5.84C28.48 6.64 27.59 7.5 26.75 8.43L26.55 8.64L26.45 8.74L26.36 8.85L26.16 9.06L25.98 9.27L25.26 10.06C24.78 10.6 24.3 11.14 23.82 11.69C23.58 11.96 23.35 12.24 23.11 12.51L22.93 12.72L22.74 12.95C22.61 13.1 22.49 13.26 22.37 13.41L21.68 14.28C21.46 14.55 21.25 14.82 21.04 15.06C21.48 14.6 21.92 14.06 22.41 13.47C22.47 13.4 22.53 13.33 22.59 13.25C22.65 13.18 22.71 13.1 22.78 13.03C22.84 12.96 22.91 12.88 22.97 12.8C23.03 12.73 23.09 12.66 23.15 12.59C23.39 12.32 23.63 12.05 23.86 11.77C24.34 11.22 24.81 10.68 25.28 10.13C25.52 9.85 25.75 9.58 25.99 9.3L26.17 9.09L26.36 8.87L26.46 8.76L26.55 8.65L26.75 8.43C27.62 7.53 28.53 6.72 29.46 5.97C29.93 5.59 30.4 5.23 30.87 4.88C31.1 4.7 31.34 4.53 31.58 4.36C31.7 4.27 31.81 4.19 31.93 4.11L32.11 3.98L32.22 3.9C32.25 3.88 32.29 3.85 32.32 3.83C32.39 4 32.47 4.17 32.57 4.32C32.67 4.47 32.79 4.59 32.95 4.68C32.95 4.68 33.09 4.57 33.27 4.44C33.35 4.37 33.44 4.3 33.52 4.23C33.6 4.16 33.67 4.09 33.73 4.04C33.91 4 34.08 3.97 34.24 3.94C34.41 3.9 34.56 3.86 34.71 3.81C35.01 3.71 35.28 3.6 35.54 3.63C35.67 3.65 35.79 3.7 35.9 3.8C35.96 3.85 36.01 3.91 36.06 3.98C36.08 4.02 36.11 4.05 36.13 4.1C36.15 4.14 36.17 4.18 36.19 4.22C36.19 4.25 36.2 4.27 36.21 4.29C36.22 4.32 36.23 4.34 36.24 4.37C36.25 4.41 36.26 4.47 36.27 4.52C36.29 4.57 36.29 4.62 36.3 4.68C36.31 4.74 36.31 4.79 36.32 4.85C36.33 5.08 36.31 5.32 36.28 5.55C36.16 6.01 36.02 6.43 35.86 6.83Z" fill="#CBA265" fill-opacity="1.000000" fill-rule="nonzero"/>
</svg>
