<svg width="39.000000" height="38.000000" viewBox="0 0 39 38" fill="none" xmlns="http://www.w3.org/2000/svg" xmlns:xlink="http://www.w3.org/1999/xlink">
	<desc>
			Created with Pixso.
	</desc>
	<defs/>
	<path id="vector_02" d="M15.56 0.07C15.81 0.27 16.03 0.46 16.23 0.65C16.35 0.76 16.47 0.86 16.59 0.97C16.7 1.07 16.82 1.18 16.93 1.28C17.13 1.48 17.34 1.68 17.54 1.87C17.95 2.26 18.36 2.65 18.76 3.04C19.57 3.8 20.35 4.54 21.15 5.24C21.35 5.42 21.54 5.59 21.75 5.76C21.85 5.85 21.95 5.93 22.04 6.01C22.1 6.06 22.15 6.1 22.2 6.14C22.25 6.18 22.3 6.23 22.36 6.27C22.79 6.62 23.21 6.98 23.65 7.34C24.52 8.05 25.4 8.77 26.29 9.52C26.91 10.07 27.56 10.59 28.26 11.11C28.96 11.62 29.7 12.13 30.45 12.64C30.83 12.89 31.21 13.15 31.58 13.4L31.72 13.5L31.84 13.58L31.9 13.62L31.96 13.66L32.09 13.74C32.18 13.79 32.26 13.85 32.35 13.9C32.44 13.96 32.53 14.01 32.62 14.07C32.72 14.13 32.81 14.18 32.91 14.24C33 14.3 33.1 14.36 33.2 14.42C33.25 14.45 33.29 14.48 33.34 14.51C33.39 14.54 33.44 14.58 33.49 14.61C33.54 14.64 33.59 14.67 33.64 14.7C33.69 14.74 33.74 14.77 33.79 14.8C34.19 15.07 34.61 15.37 35.01 15.72L34.84 15.56C34.81 15.53 34.78 15.51 34.75 15.48L34.66 15.41C34.54 15.31 34.43 15.22 34.31 15.13C34.25 15.08 34.2 15.04 34.14 14.99L34.05 14.92C34.02 14.9 34 14.88 33.97 14.86L33.79 14.74L33.63 14.62L33.54 14.56L33.46 14.5L33.29 14.39C33.19 14.31 33.08 14.24 32.97 14.17C32.77 14.03 32.56 13.89 32.36 13.76C32.26 13.69 32.17 13.63 32.08 13.56C31.99 13.5 31.9 13.43 31.81 13.37C31.71 13.3 31.61 13.22 31.51 13.15C31.4 13.07 31.3 12.99 31.19 12.92C30.78 12.62 30.37 12.32 29.95 12.03C29.13 11.44 28.31 10.87 27.52 10.28C26.73 9.7 25.96 9.1 25.19 8.48C24.42 7.87 23.67 7.23 22.92 6.58C22.74 6.42 22.55 6.26 22.37 6.1L22.23 5.97L22.11 5.86C22.02 5.78 21.93 5.7 21.85 5.62C21.5 5.3 21.16 4.97 20.82 4.63C20.48 4.29 20.14 3.94 19.8 3.59C19.46 3.23 19.12 2.87 18.77 2.51C18.43 2.14 18.08 1.77 17.72 1.4C17.54 1.21 17.36 1.02 17.17 0.84C16.97 0.64 16.77 0.44 16.55 0.24C16.8 0.29 17.06 0.36 17.31 0.44C17.37 0.47 17.44 0.49 17.5 0.51C17.53 0.52 17.56 0.54 17.59 0.54L17.6 0.54L17.61 0.55C17.62 0.55 17.62 0.55 17.63 0.55L17.68 0.57C17.79 0.62 17.91 0.66 18.03 0.72C18.51 0.93 18.97 1.2 19.4 1.57C20.38 2.5 21.28 3.38 22.16 4.19C22.27 4.28 22.38 4.38 22.49 4.48C22.6 4.58 22.71 4.68 22.82 4.77L22.98 4.91L23.06 4.98L23.15 5.06C23.27 5.16 23.39 5.26 23.5 5.36C23.98 5.76 24.45 6.15 24.93 6.54C24.83 6.68 24.62 6.95 24.52 7.08C25.62 7.8 26.67 8.54 27.7 9.27C28.73 10 29.77 10.75 30.83 11.53C31.09 11.73 31.36 11.93 31.62 12.13L32.02 12.44L32.22 12.59L32.39 12.72C32.6 12.88 32.83 13.05 33.09 13.23C33.34 13.41 33.62 13.6 33.92 13.81C34.22 14.02 34.53 14.25 34.85 14.5C35.18 14.76 35.51 15.04 35.85 15.37C35.87 15.39 35.9 15.41 35.92 15.43L35.98 15.5L36.11 15.63L36.14 15.66L36.16 15.68L36.19 15.72L36.26 15.8L36.3 15.84L36.31 15.86L36.33 15.88C36.36 15.91 36.38 15.94 36.41 15.97L36.45 16.02L36.47 16.05L36.49 16.07C36.52 16.11 36.54 16.15 36.57 16.19L36.61 16.25L36.63 16.28L36.65 16.32C36.68 16.36 36.71 16.41 36.73 16.46C36.75 16.48 36.76 16.51 36.77 16.53C36.79 16.56 36.8 16.59 36.82 16.62C36.84 16.68 36.87 16.73 36.89 16.79L36.9 16.81L36.91 16.84L36.93 16.89C36.95 16.92 36.96 16.96 36.97 16.99C37.02 17.12 37.07 17.29 37.1 17.44L37.1 17.47L37.11 17.5L37.12 17.57C37.13 17.61 37.13 17.65 37.14 17.7C37.14 17.74 37.15 17.78 37.15 17.82C37.16 17.87 37.16 17.91 37.16 17.96C37.17 18.05 37.17 18.14 37.16 18.23C37.16 18.31 37.15 18.41 37.14 18.49C37.14 18.54 37.13 18.58 37.12 18.62C37.12 18.67 37.11 18.71 37.1 18.75C37.09 18.79 37.08 18.83 37.07 18.87C37.07 18.91 37.06 18.95 37.04 18.99C37.03 19.03 37.02 19.07 37.01 19.1C37 19.14 36.99 19.18 36.97 19.21C36.95 19.28 36.92 19.35 36.89 19.41C36.89 19.43 36.88 19.45 36.87 19.46L36.85 19.5C36.84 19.53 36.83 19.56 36.81 19.59C36.8 19.62 36.79 19.65 36.77 19.67L36.75 19.71L36.73 19.75C36.7 19.79 36.67 19.84 36.65 19.89C36.62 19.93 36.6 19.97 36.57 20.01L36.53 20.06L36.49 20.12C36.47 20.15 36.44 20.18 36.42 20.21L36.35 20.29L36.32 20.34L36.29 20.37L36.23 20.44L36.18 20.49C36.11 20.57 36.05 20.62 36 20.67L35.94 20.74L35.89 20.79L35.84 20.83C35.83 20.84 35.82 20.85 35.81 20.86C35.79 20.88 35.77 20.9 35.76 20.92C35.47 21.27 35.19 21.61 34.9 21.97C34.61 22.32 34.32 22.67 34.03 23.03C33.75 23.38 33.47 23.74 33.19 24.09C32.91 24.47 32.62 24.84 32.34 25.22C32.47 25.15 32.53 25.17 32.56 25.22C32.6 25.27 32.61 25.36 32.63 25.41C32.62 25.43 32.6 25.44 32.59 25.45C32.6 25.44 32.62 25.43 32.63 25.41C32.66 25.52 32.74 25.55 33.07 25.2C32.74 25.55 32.66 25.52 32.63 25.41C32.71 25.33 32.79 25.24 32.86 25.15C32.94 25.06 33.02 24.97 33.1 24.88C33.25 24.71 33.4 24.54 33.55 24.36C33.85 24.02 34.14 23.69 34.44 23.35C34.73 23.01 35.03 22.67 35.33 22.32C35.48 22.14 35.63 21.97 35.78 21.79C35.85 21.7 35.92 21.61 36 21.52C36.06 21.44 36.13 21.36 36.19 21.28C36.2 21.27 36.21 21.26 36.22 21.25L36.24 21.23L36.27 21.2L36.39 21.08L36.47 21L36.52 20.95L36.57 20.9L36.63 20.83L36.66 20.8L36.69 20.76L36.75 20.69C36.78 20.66 36.8 20.63 36.83 20.6L36.86 20.55L36.9 20.5C36.93 20.46 36.96 20.43 36.99 20.39L37.01 20.36L37.03 20.33L37.07 20.26L37.12 20.19L37.14 20.15L37.17 20.11C37.2 20.06 37.23 20.01 37.26 19.95C37.29 19.89 37.32 19.82 37.35 19.76L37.37 19.71C37.38 19.69 37.39 19.68 37.4 19.66C37.41 19.62 37.43 19.58 37.45 19.55C37.46 19.51 37.47 19.47 37.49 19.43L37.51 19.37C37.52 19.35 37.53 19.33 37.53 19.31C37.56 19.23 37.58 19.14 37.61 19.05C37.62 19.01 37.63 18.96 37.64 18.91C37.65 18.86 37.66 18.81 37.67 18.77C37.67 18.72 37.68 18.67 37.69 18.62C37.7 18.57 37.7 18.52 37.71 18.47C37.71 18.37 37.72 18.26 37.72 18.16C37.72 18.06 37.72 17.96 37.71 17.85C37.71 17.83 37.71 17.8 37.71 17.78L37.7 17.7C37.7 17.65 37.69 17.6 37.68 17.55C37.67 17.5 37.67 17.46 37.66 17.41C37.65 17.36 37.64 17.32 37.63 17.27C37.61 17.18 37.58 17.09 37.56 17L37.55 16.97L37.54 16.94L37.52 16.88C37.51 16.84 37.49 16.8 37.48 16.76C37.46 16.72 37.45 16.69 37.43 16.65C37.43 16.63 37.42 16.61 37.41 16.59L37.39 16.54C37.36 16.48 37.33 16.41 37.29 16.35L37.27 16.3L37.26 16.28L37.25 16.25L37.2 16.17C37.17 16.12 37.14 16.06 37.11 16.01L37.09 15.99L37.08 15.97L37.06 15.94L37.01 15.87C36.98 15.83 36.96 15.79 36.92 15.74L36.9 15.72L36.88 15.69L36.83 15.64C36.81 15.6 36.78 15.57 36.75 15.53L36.73 15.51L36.71 15.48L36.67 15.44C36.64 15.41 36.62 15.38 36.59 15.35L36.55 15.31L36.53 15.29C36.44 15.2 36.35 15.11 36.26 15.02C35.91 14.68 35.55 14.39 35.21 14.14C34.88 13.88 34.56 13.66 34.25 13.45C33.95 13.25 33.66 13.07 33.4 12.9C33.14 12.73 32.9 12.57 32.7 12.42C32.45 12.24 32.2 12.06 31.95 11.88C31.69 11.69 31.42 11.5 31.15 11.31C30.1 10.55 29.07 9.82 28.09 9.07C27.1 8.33 26.12 7.54 25.14 6.72C26.13 7.51 27.11 8.27 28.11 8.99C29.1 9.71 30.15 10.42 31.23 11.16C31.5 11.35 31.77 11.53 32.04 11.72L32.45 12L32.66 12.15L32.8 12.25C33.01 12.39 33.25 12.54 33.52 12.71C33.78 12.87 34.07 13.05 34.38 13.25C34.69 13.46 35.02 13.68 35.37 13.94C35.72 14.2 36.08 14.49 36.45 14.84C36.54 14.93 36.64 15.02 36.73 15.11L36.74 15.12L36.75 15.14L36.79 15.18C36.82 15.21 36.85 15.24 36.88 15.27L36.92 15.32L36.94 15.34L36.96 15.37C37 15.41 37.03 15.45 37.06 15.48L37.1 15.54L37.12 15.57L37.15 15.6C37.18 15.65 37.21 15.69 37.25 15.74L37.29 15.81L37.32 15.85L37.34 15.89C37.38 15.95 37.41 16 37.45 16.06L37.49 16.15L37.51 16.17L37.52 16.2L37.55 16.25C37.58 16.32 37.61 16.39 37.64 16.46L37.67 16.51L37.69 16.58C37.71 16.62 37.72 16.66 37.74 16.7C37.76 16.74 37.77 16.78 37.78 16.83L37.81 16.89L37.82 16.92L37.82 16.96C37.85 17.05 37.88 17.15 37.9 17.24L37.92 17.32C37.92 17.34 37.93 17.37 37.93 17.39C37.94 17.44 37.95 17.5 37.96 17.55C37.96 17.6 37.97 17.65 37.98 17.71C37.98 17.73 37.98 17.76 37.98 17.79L37.99 17.87C38 17.98 38 18.09 38 18.2C37.99 18.31 37.99 18.42 37.98 18.53C37.97 18.58 37.96 18.64 37.96 18.69C37.95 18.74 37.94 18.79 37.93 18.84C37.92 18.9 37.91 18.95 37.9 19L37.88 19.08C37.88 19.1 37.87 19.12 37.87 19.15C37.84 19.24 37.82 19.33 37.79 19.43L37.77 19.46L37.76 19.49L37.74 19.55C37.73 19.59 37.71 19.63 37.69 19.68C37.68 19.72 37.66 19.76 37.64 19.8C37.63 19.83 37.61 19.87 37.59 19.9C37.58 19.94 37.56 19.97 37.54 20.01L37.52 20.06L37.49 20.11C37.46 20.16 37.43 20.22 37.39 20.28L37.37 20.32L37.34 20.36L37.3 20.43L37.25 20.5L37.23 20.54L37.2 20.57C37.17 20.61 37.15 20.65 37.12 20.69L37.1 20.72L37.07 20.74L37.04 20.79C37.01 20.82 36.98 20.86 36.96 20.89L36.89 20.97L36.86 21L36.83 21.04L36.77 21.1L36.71 21.16L36.66 21.21L36.58 21.29L36.46 21.41L36.44 21.43L36.44 21.44C36.43 21.44 36.43 21.44 36.43 21.44L36.42 21.45C36.42 21.46 36.41 21.47 36.41 21.47C36.42 21.46 36.37 21.52 36.34 21.55L36.25 21.66L36.07 21.88C35.95 22.03 35.83 22.18 35.71 22.32C35.46 22.61 35.22 22.9 34.98 23.18C34.49 23.74 34.01 24.28 33.54 24.81L33.35 25.02L33.15 25.24L32.96 25.45L32.76 25.66C32.5 25.94 32.25 26.21 31.99 26.48C31.47 27.02 30.97 27.54 30.48 28.04L30.29 28.23L30.11 28.42L29.94 28.6L29.76 28.78C29.53 29.03 29.27 29.3 29.01 29.58C28.47 30.14 27.87 30.74 27.16 31.35L27.09 31.4L27.03 31.46L26.89 31.57L26.82 31.63L26.77 31.67L26.65 31.76L26.43 31.94L26.2 32.12C26.05 32.24 25.9 32.36 25.74 32.48C25.59 32.59 25.44 32.71 25.29 32.83C24.68 33.29 24.07 33.74 23.47 34.17C23.08 34.46 22.3 35.02 21.91 35.3C21.45 35.48 21.01 35.66 20.58 35.87C20.47 35.92 20.37 35.97 20.26 36.02L20.18 36.06L20.09 36.11L19.9 36.21L19.19 36.6C18.73 36.84 18.3 37.07 17.92 37.3C17.53 37.53 17.18 37.76 16.87 38C16.84 37.88 16.79 37.77 16.71 37.67C16.63 37.57 16.54 37.47 16.44 37.37C16.23 37.18 16.01 36.99 15.88 36.78C15.81 36.67 15.77 36.56 15.77 36.43C15.78 36.37 15.79 36.3 15.81 36.24C15.84 36.17 15.87 36.1 15.92 36.02C16.03 35.87 16.19 35.7 16.44 35.51C16.68 35.33 17.01 35.13 17.44 34.89C17.34 34.75 17.15 34.46 17.05 34.32C16.6 34.49 16.16 34.63 15.74 34.73C15.33 34.83 14.94 34.9 14.58 34.95C14.49 34.96 14.4 34.97 14.31 34.98C14.23 34.99 14.14 35 14.06 35C13.97 35.01 13.9 35.01 13.82 35.01C13.74 35.02 13.66 35.02 13.59 35.02C13.51 35.02 13.44 35.01 13.37 35.01C13.3 35 13.23 34.99 13.17 34.99C13.04 34.97 12.92 34.94 12.81 34.9C12.61 34.82 12.46 34.69 12.35 34.53C12.33 34.49 12.31 34.44 12.29 34.4C12.28 34.38 12.27 34.35 12.26 34.33C12.26 34.32 12.25 34.31 12.25 34.29C12.25 34.28 12.25 34.27 12.25 34.25C12.23 34.14 12.24 34.02 12.26 33.88C12.32 33.61 12.45 33.3 12.68 32.95C12.91 32.6 13.22 32.23 13.62 31.85C13.67 31.8 13.73 31.75 13.79 31.7C13.84 31.65 13.9 31.6 13.95 31.55C14.06 31.46 14.18 31.36 14.29 31.27C14.51 31.08 14.72 30.9 14.94 30.73C15.14 30.57 15.34 30.41 15.54 30.25C15.59 30.21 15.63 30.17 15.68 30.13L15.75 30.07C15.78 30.05 15.81 30.03 15.84 30C15.96 29.91 16.09 29.81 16.21 29.71C17.2 28.94 18.25 28.21 19.29 27.47C19.81 27.1 20.34 26.73 20.85 26.35C20.97 26.26 21.1 26.16 21.23 26.07C21.35 25.98 21.48 25.88 21.6 25.79L21.79 25.64L21.88 25.57L21.93 25.54L21.95 25.52L21.97 25.5C22.01 25.47 22.06 25.43 22.1 25.39L22.24 25.28C22.62 24.96 23.01 24.56 23.43 24.11C23.64 23.88 23.86 23.63 24.09 23.38C24.21 23.25 24.32 23.11 24.44 22.98C24.5 22.92 24.55 22.85 24.61 22.79C24.67 22.72 24.72 22.66 24.78 22.59C25.27 22.05 25.75 21.52 26.22 21.01C26.45 20.75 26.67 20.5 26.9 20.25L27.22 19.88L27.54 19.51C28.01 18.96 28.47 18.43 28.92 17.92L29.6 17.16L29.92 16.78L30.09 16.6L30.17 16.51L30.21 16.46L30.22 16.45L30.24 16.43L30.28 16.38C30.36 16.29 30.43 16.2 30.51 16.12C30.59 16.03 30.68 15.95 30.76 15.87L30.82 15.81L30.88 15.75L30.9 15.74L30.91 15.73L30.92 15.72L30.94 15.7L30.95 15.69C30.97 15.68 30.97 15.67 30.98 15.67C30.98 15.67 30.98 15.67 30.99 15.68L31 15.69L31.05 15.75L31.27 15.96C31.41 16.11 31.56 16.25 31.71 16.39L31.76 16.44L31.79 16.47L31.8 16.48L31.86 16.54L31.99 16.67C32.07 16.75 32.16 16.83 32.24 16.91L32.37 17.03L32.46 17.11C32.51 17.16 32.57 17.21 32.62 17.27L32.71 17.34L32.75 17.38L32.79 17.41C32.83 17.44 32.87 17.48 32.91 17.52C32.95 17.55 32.99 17.59 33.04 17.62C33.07 17.65 33.1 17.68 33.13 17.7C33.17 17.73 33.2 17.76 33.23 17.78L33.24 17.79L33.25 17.8L33.27 17.81L33.31 17.84C33.34 17.86 33.36 17.88 33.39 17.89L33.41 17.91L33.42 17.92L33.45 17.94C33.48 17.96 33.5 17.97 33.52 17.98L33.54 17.99L33.55 18L33.57 18.02C33.59 18.03 33.6 18.04 33.62 18.04L33.64 18.05L33.65 18.06L33.67 18.07C33.68 18.07 33.7 18.08 33.71 18.09C33.72 18.09 33.72 18.09 33.73 18.09L33.74 18.1C33.83 18.14 33.87 18.13 33.85 18.13C33.84 18.13 33.77 18.14 33.67 18.19L33.66 18.2L33.65 18.2C33.64 18.21 33.64 18.21 33.64 18.21C33.62 18.22 33.6 18.22 33.59 18.23C33.56 18.25 33.54 18.27 33.5 18.29C33.47 18.31 33.43 18.34 33.4 18.36C33.36 18.39 33.32 18.42 33.29 18.45C33.27 18.46 33.25 18.48 33.24 18.49C33.21 18.51 33.19 18.53 33.17 18.55C33.13 18.58 33.09 18.62 33.06 18.66L33.05 18.66C29.05 22.51 31.94 19.73 31.05 20.59L31.05 20.58L31.05 20.58L31.04 20.58L31.03 20.56C31.02 20.55 31.01 20.53 31 20.52C30.99 20.5 30.97 20.48 30.96 20.46L30.94 20.43L30.91 20.4C30.89 20.38 30.88 20.36 30.86 20.34L30.79 20.27L30.76 20.23C30.75 20.22 30.73 20.2 30.72 20.19C30.58 20.05 30.4 19.89 30.19 19.71C29.97 19.54 29.72 19.35 29.45 19.15C29.17 18.95 28.86 18.73 28.52 18.48L28.4 18.38L28.33 18.34L28.29 18.3C28.22 18.25 28.16 18.2 28.09 18.15C27.96 18.05 27.83 17.95 27.71 17.85C26.66 17.05 25.53 16.25 24.39 15.4C24.11 15.19 23.82 14.97 23.54 14.76C23.25 14.54 22.97 14.32 22.7 14.1C22.14 13.66 21.6 13.21 21.07 12.76C20.53 12.3 20.02 11.84 19.51 11.38C19.26 11.14 19.02 10.91 18.77 10.67C18.71 10.61 18.65 10.55 18.59 10.49C18.52 10.43 18.46 10.36 18.4 10.3C18.27 10.18 18.15 10.05 18.03 9.92C17.66 9.57 17.21 9.19 16.73 8.81C16.26 8.42 15.76 8.04 15.3 7.67C14.84 7.3 14.41 6.96 14.08 6.65C13.92 6.5 13.78 6.35 13.66 6.22C13.6 6.15 13.56 6.08 13.51 6.02C13.49 5.99 13.48 5.95 13.46 5.92C13.45 5.91 13.44 5.89 13.44 5.88C13.43 5.87 13.43 5.86 13.42 5.85C13.42 5.84 13.41 5.84 13.41 5.83C13.39 5.79 13.37 5.75 13.35 5.72C13.34 5.69 13.33 5.66 13.31 5.63C13.29 5.56 13.27 5.51 13.26 5.45C13.24 5.34 13.25 5.24 13.27 5.15C13.32 4.97 13.45 4.82 13.61 4.69C13.68 4.74 13.75 4.8 13.82 4.85C13.89 4.91 13.95 4.96 14.03 5.02L14.25 5.2C14.32 5.26 14.39 5.32 14.46 5.38C14.75 5.62 15.04 5.87 15.33 6.12C15.91 6.62 16.49 7.14 17.08 7.66C17.37 7.92 17.67 8.18 17.98 8.44C18.28 8.7 18.58 8.96 18.89 9.22C19.05 9.35 19.21 9.48 19.36 9.61C19.52 9.73 19.67 9.86 19.82 9.98C20.13 10.22 20.43 10.47 20.74 10.72C21.47 11.34 22.21 11.96 22.96 12.57C23.33 12.88 23.71 13.19 24.09 13.49C24.47 13.79 24.86 14.1 25.24 14.4C26.01 14.99 26.77 15.58 27.51 16.16C27.87 16.45 28.24 16.75 28.6 17.04L28.87 17.26L29 17.38L29.17 17.51L29.25 17.57L29.33 17.63L29.49 17.76L29.8 17.99C29.7 17.91 29.6 17.83 29.5 17.75L29.35 17.63L29.19 17.5L29.04 17.36L29.02 17.35L29 17.33L28.97 17.3L28.9 17.25C28.82 17.17 28.73 17.1 28.64 17.02C28.3 16.72 27.94 16.43 27.58 16.13C26.86 15.54 26.1 14.95 25.34 14.36C24.95 14.06 24.57 13.76 24.18 13.45C23.8 13.15 23.41 12.85 23.03 12.55C22.26 11.94 21.5 11.33 20.74 10.71C20.44 10.46 20.14 10.2 19.85 9.95L19.4 9.57C19.25 9.43 19.1 9.3 18.95 9.17C18.64 8.9 18.35 8.63 18.06 8.36C17.77 8.1 17.49 7.83 17.2 7.56C16.64 7.02 16.09 6.49 15.53 5.97C15.26 5.71 14.98 5.45 14.7 5.2C14.56 5.08 14.42 4.95 14.29 4.83L14.08 4.64C14.01 4.58 13.95 4.53 13.88 4.47C14.03 4.36 14.18 4.25 14.3 4.12C14.42 3.99 14.51 3.83 14.54 3.64C14.54 3.64 14.5 3.61 14.42 3.55C14.34 3.5 14.24 3.42 14.12 3.34C13.88 3.17 13.59 2.98 13.4 2.88C13.26 2.67 13.15 2.49 13.04 2.32C12.98 2.24 12.92 2.16 12.87 2.09C12.81 2.01 12.74 1.94 12.66 1.88C12.57 1.82 12.47 1.78 12.35 1.76C12.23 1.75 12.1 1.76 11.99 1.79C11.88 1.81 11.78 1.83 11.7 1.84C11.62 1.85 11.55 1.84 11.49 1.81C11.44 1.78 11.39 1.72 11.37 1.64C11.37 1.62 11.36 1.59 11.36 1.57C11.36 1.54 11.35 1.52 11.36 1.49C11.36 1.43 11.37 1.36 11.4 1.28C11.42 1.21 11.46 1.13 11.51 1.04C11.57 0.96 11.64 0.87 11.71 0.79C11.73 0.77 11.76 0.75 11.78 0.73C11.79 0.72 11.8 0.71 11.81 0.7C11.82 0.69 11.83 0.68 11.85 0.67C11.89 0.64 11.94 0.6 11.99 0.56C12.08 0.5 12.19 0.44 12.29 0.39C12.49 0.29 12.7 0.22 12.87 0.18C13.05 0.13 13.21 0.1 13.37 0.08C13.4 0.07 13.44 0.06 13.48 0.06C13.51 0.05 13.55 0.05 13.59 0.05C13.62 0.04 13.66 0.04 13.69 0.03C13.73 0.03 13.76 0.03 13.79 0.02C13.83 0.02 13.86 0.02 13.9 0.01C13.93 0.01 13.96 0.01 13.99 0.01C14.06 0 14.12 0 14.18 0C14.3 0 14.41 0 14.54 0.01C14.65 0.02 14.77 0.02 14.88 0.03C14.99 0.04 15.1 0.05 15.22 0.06C15.34 0.05 15.45 0.06 15.56 0.07Z" fill="#292929" fill-opacity="1.000000" fill-rule="nonzero"/>
	<path id="vector_01" d="M3.83 5.13C3.99 5.36 4.11 5.57 4.2 5.75C4.26 5.84 4.31 5.93 4.34 5.99C4.35 6.02 4.36 6.04 4.36 6.06L4.44 6.19C4.5 6.27 4.55 6.35 4.6 6.44C4.65 6.52 4.71 6.6 4.76 6.68C4.87 6.85 4.98 7 5.09 7.16C5.2 7.32 5.31 7.48 5.43 7.63C5.54 7.79 5.66 7.94 5.78 8.09C5.83 8.16 5.89 8.24 5.95 8.31C6.01 8.39 6.07 8.46 6.13 8.53L6.22 8.64L6.31 8.75C6.37 8.82 6.44 8.9 6.5 8.97C6.56 9.04 6.62 9.11 6.69 9.18C6.75 9.25 6.81 9.32 6.87 9.39C6.93 9.46 7 9.53 7.06 9.6C7.13 9.67 7.19 9.74 7.25 9.81C7.38 9.95 7.51 10.08 7.64 10.21C7.91 10.48 8.18 10.74 8.45 11C8.59 11.13 8.73 11.25 8.87 11.38C9.02 11.52 9.18 11.66 9.34 11.8C9.66 12.09 9.98 12.37 10.3 12.67C10.65 13.03 11.03 13.37 11.43 13.71C11.63 13.88 11.83 14.04 12.04 14.2C12.14 14.28 12.25 14.36 12.35 14.44C12.4 14.47 12.45 14.51 12.5 14.55C12.55 14.58 12.6 14.62 12.65 14.65C13.05 14.93 13.5 15.21 13.97 15.49C14.2 15.64 14.44 15.79 14.68 15.94C14.81 16.02 14.93 16.1 15.05 16.17C15.11 16.21 15.17 16.26 15.24 16.3C15.3 16.34 15.36 16.38 15.41 16.42C15.43 16.42 15.44 16.43 15.45 16.44L15.5 16.47C15.54 16.5 15.59 16.53 15.64 16.56C15.74 16.62 15.86 16.7 15.98 16.78C16.1 16.86 16.23 16.96 16.37 17.07C16.51 17.18 16.67 17.31 16.83 17.49C16.67 17.3 16.52 17.17 16.38 17.05C16.24 16.93 16.11 16.83 15.99 16.74C15.87 16.65 15.76 16.58 15.66 16.5L15.59 16.45L15.53 16.41L15.51 16.39C15.5 16.39 15.49 16.38 15.49 16.38C15.48 16.37 15.47 16.36 15.46 16.35C15.38 16.29 15.31 16.24 15.24 16.18C15.16 16.13 15.08 16.07 15.01 16.01C14.93 15.96 14.86 15.9 14.78 15.85L14.67 15.77L14.56 15.69C14.26 15.49 13.97 15.29 13.69 15.1C13.41 14.91 13.14 14.73 12.89 14.54C12.76 14.45 12.64 14.36 12.53 14.27L12.13 13.97C11.08 13.15 10.04 12.28 9.02 11.38C8.95 11.33 8.9 11.28 8.84 11.23L8.68 11.07C8.57 10.97 8.46 10.86 8.35 10.76C8.25 10.65 8.14 10.54 8.04 10.43L7.88 10.26C7.83 10.2 7.78 10.14 7.73 10.09C7.32 9.63 6.93 9.14 6.57 8.63C6.2 8.13 5.85 7.59 5.51 7.05C5.35 6.77 5.18 6.49 5.03 6.21C4.95 6.07 4.87 5.92 4.79 5.78L4.77 5.75L4.77 5.74L4.76 5.73C4.76 5.73 4.76 5.73 4.76 5.73L4.76 5.72C4.76 5.72 4.76 5.72 4.76 5.71L4.76 5.7C4.76 5.69 4.76 5.69 4.75 5.68L4.75 5.66C4.75 5.66 4.74 5.65 4.74 5.64C4.72 5.59 4.68 5.51 4.64 5.43C4.73 5.46 4.81 5.49 4.89 5.51C4.9 5.51 4.92 5.51 4.94 5.51L4.96 5.52L4.97 5.52L4.98 5.52L5 5.51L5.01 5.51C5.02 5.51 5.02 5.51 5.02 5.51L5.03 5.51L5.04 5.5L5.04 5.5L5.01 5.53L4.99 5.54C4.98 5.56 5.09 5.46 5.04 5.5L5.04 5.5L5.05 5.51L5.06 5.51C5.22 5.57 5.38 5.64 5.54 5.73C5.85 5.89 6.14 6.11 6.39 6.39C6.45 6.48 6.52 6.57 6.58 6.66C6.65 6.75 6.71 6.84 6.78 6.93C6.84 7.02 6.91 7.1 6.98 7.19L7.07 7.32L7.17 7.45C7.3 7.62 7.44 7.78 7.57 7.95C7.63 8.03 7.7 8.11 7.77 8.19C7.83 8.27 7.9 8.35 7.97 8.42C8.1 8.58 8.24 8.73 8.37 8.88C8.44 8.96 8.51 9.03 8.58 9.1C8.61 9.14 8.64 9.18 8.68 9.21L8.78 9.32L8.89 9.42L8.94 9.48L8.99 9.53L9.2 9.73C9.27 9.8 9.34 9.86 9.41 9.93C9.45 9.96 9.48 10 9.52 10.03L9.62 10.12C9.51 10.26 9.3 10.52 9.19 10.66C9.26 10.7 9.32 10.74 9.39 10.78C9.46 10.83 9.54 10.89 9.61 10.93C9.76 11.03 9.91 11.13 10.06 11.23C10.35 11.44 10.64 11.64 10.92 11.85C11.49 12.27 12.03 12.69 12.57 13.12C12.7 13.22 12.84 13.33 12.97 13.44L13.15 13.58C13.21 13.63 13.27 13.67 13.33 13.72C13.57 13.9 13.83 14.1 14.11 14.3C14.4 14.52 14.69 14.73 14.99 14.95L15.22 15.12L15.34 15.21L15.46 15.3C15.54 15.36 15.62 15.42 15.7 15.48C15.78 15.55 15.86 15.61 15.94 15.67L15.96 15.69C15.96 15.69 15.96 15.69 15.96 15.7L15.98 15.71C15.98 15.71 15.99 15.72 16 15.73L16.04 15.75L16.07 15.78L16.16 15.84C16.29 15.93 16.44 16.04 16.6 16.16L16.66 16.21L16.73 16.26C16.77 16.3 16.82 16.33 16.86 16.37C16.88 16.39 16.91 16.41 16.93 16.43L17.01 16.49L17.08 16.56L17.12 16.59L17.16 16.63L17.24 16.71C17.27 16.74 17.3 16.77 17.33 16.8C17.38 16.85 17.44 16.92 17.5 16.99C17.52 17 17.53 17.02 17.55 17.04L17.6 17.1L17.65 17.16L17.66 17.17L17.67 17.19L17.7 17.22C17.73 17.27 17.77 17.31 17.8 17.36C17.83 17.41 17.87 17.46 17.91 17.52L17.93 17.56L17.94 17.58L17.96 17.61C17.98 17.64 18 17.67 18.02 17.7C18.03 17.74 18.05 17.77 18.07 17.8L18.08 17.83L18.1 17.85L18.12 17.91C18.14 17.95 18.16 17.99 18.18 18.03L18.21 18.09L18.22 18.12L18.23 18.15C18.27 18.24 18.3 18.33 18.33 18.43L18.34 18.46L18.35 18.48L18.35 18.51L18.37 18.59C18.39 18.64 18.4 18.7 18.41 18.75L18.43 18.84L18.43 18.88L18.44 18.92C18.45 18.99 18.46 19.05 18.46 19.11C18.47 19.17 18.47 19.23 18.48 19.3C18.48 19.36 18.48 19.43 18.48 19.5C18.47 19.63 18.46 19.76 18.44 19.89C18.43 19.96 18.42 20.03 18.41 20.1C18.39 20.16 18.38 20.23 18.36 20.29C18.33 20.41 18.28 20.54 18.24 20.66C18.23 20.69 18.21 20.72 18.2 20.74C18.19 20.77 18.18 20.8 18.17 20.82C18.14 20.88 18.12 20.93 18.09 20.98C18.07 21.01 18.06 21.04 18.04 21.06C18.04 21.08 18.03 21.09 18.02 21.1L18 21.14C17.98 21.18 17.95 21.22 17.92 21.27C17.89 21.31 17.86 21.35 17.83 21.4L17.81 21.43L17.79 21.44L17.79 21.46L17.76 21.49C17.72 21.54 17.68 21.59 17.64 21.63C17.6 21.68 17.56 21.72 17.53 21.76C17.51 21.79 17.49 21.8 17.47 21.82L17.42 21.88C17.4 21.9 17.38 21.92 17.36 21.94L17.31 21.99C17.27 22.02 17.24 22.05 17.2 22.08C17.17 22.11 17.14 22.14 17.11 22.16L17.01 22.24C16.9 22.33 16.79 22.4 16.71 22.46L16.54 22.58C16.52 22.59 16.51 22.6 16.49 22.61C16.45 22.64 16.41 22.68 16.38 22.71C16.37 22.73 16.35 22.75 16.34 22.77C16.33 22.78 16.32 22.79 16.32 22.8L16.3 22.81L16.29 22.84C16.18 22.98 16.03 23.21 15.82 23.52L15.74 23.64L15.65 23.76C15.59 23.84 15.54 23.92 15.48 24C15.37 24.16 15.26 24.31 15.15 24.46C14.93 24.76 14.73 25.04 14.54 25.32C14.74 25.24 14.76 25.42 14.81 25.53C14.8 25.53 14.79 25.54 14.79 25.55C14.79 25.54 14.8 25.53 14.81 25.53C14.83 25.57 14.86 25.6 14.92 25.59C14.94 25.59 14.98 25.57 15.02 25.54C15.04 25.53 15.06 25.51 15.09 25.48C15.11 25.46 15.14 25.43 15.17 25.4C15.14 25.43 15.11 25.46 15.09 25.48C15.06 25.51 15.04 25.53 15.02 25.54C14.98 25.57 14.94 25.59 14.92 25.59C14.86 25.61 14.83 25.57 14.81 25.53C15.03 25.28 15.26 25.02 15.5 24.74L15.59 24.63L15.69 24.52C15.75 24.44 15.81 24.37 15.87 24.29L15.96 24.18L16.01 24.12L16.06 24.06C16.12 23.97 16.18 23.89 16.24 23.82C16.33 23.69 16.43 23.56 16.52 23.44C16.6 23.33 16.66 23.25 16.71 23.19C16.72 23.18 16.73 23.17 16.73 23.16C16.74 23.16 16.74 23.15 16.75 23.15C16.75 23.14 16.75 23.14 16.76 23.13C16.76 23.13 16.77 23.12 16.77 23.12C16.79 23.1 16.81 23.08 16.83 23.06C16.84 23.06 16.85 23.05 16.86 23.04L17.03 22.93C17.12 22.86 17.23 22.78 17.36 22.68L17.47 22.59L17.49 22.57L17.52 22.55L17.58 22.5C17.61 22.47 17.65 22.43 17.69 22.39L17.75 22.34C17.77 22.32 17.8 22.3 17.82 22.28L17.88 22.21C17.9 22.19 17.92 22.17 17.94 22.14C17.98 22.1 18.03 22.05 18.07 22C18.11 21.95 18.16 21.89 18.2 21.84L18.23 21.8L18.26 21.76L18.28 21.73C18.32 21.68 18.35 21.63 18.39 21.58C18.42 21.52 18.45 21.47 18.48 21.42L18.51 21.38C18.51 21.37 18.52 21.36 18.53 21.34C18.55 21.31 18.56 21.28 18.58 21.25C18.61 21.19 18.64 21.13 18.67 21.06C18.68 21.03 18.7 21 18.71 20.97L18.73 20.92C18.74 20.91 18.75 20.89 18.76 20.87C18.81 20.73 18.86 20.59 18.9 20.44C18.92 20.37 18.94 20.29 18.95 20.21C18.96 20.13 18.98 20.05 18.99 19.98C19.01 19.82 19.02 19.66 19.03 19.51C19.03 19.43 19.03 19.35 19.02 19.28C19.02 19.21 19.01 19.13 19.01 19.06C19 18.99 18.99 18.91 18.98 18.84L18.97 18.79L18.96 18.74C18.96 18.71 18.95 18.67 18.95 18.64C18.93 18.58 18.92 18.51 18.9 18.45C18.89 18.42 18.88 18.39 18.87 18.36L18.87 18.33L18.86 18.31L18.85 18.27C18.81 18.16 18.77 18.05 18.73 17.95L18.72 17.91L18.7 17.88L18.67 17.81C18.65 17.76 18.63 17.72 18.61 17.67L18.58 17.6L18.56 17.57L18.54 17.54C18.52 17.51 18.5 17.47 18.48 17.43C18.46 17.39 18.44 17.36 18.42 17.32L18.4 17.3L18.39 17.27L18.36 17.22C18.31 17.16 18.27 17.1 18.23 17.04C18.19 16.99 18.15 16.94 18.11 16.89L18.08 16.85L18.07 16.83L18.06 16.81L18 16.75L17.95 16.69C17.93 16.66 17.91 16.64 17.89 16.63C17.82 16.55 17.75 16.48 17.69 16.42L17.64 16.37C17.62 16.35 17.61 16.33 17.59 16.32L17.5 16.24L17.46 16.2L17.42 16.16L17.33 16.09L17.26 16.02C17.23 16 17.2 15.98 17.18 15.96C17.13 15.92 17.08 15.88 17.03 15.85L16.96 15.79L16.89 15.74C16.71 15.61 16.56 15.51 16.43 15.42L16.26 15.31L16.24 15.29L16.23 15.28C16.23 15.28 16.23 15.28 16.22 15.28L16.21 15.27C16.13 15.21 16.05 15.15 15.97 15.1C15.89 15.04 15.8 14.98 15.72 14.92L15.6 14.84L15.48 14.75L15.24 14.59C14.95 14.39 14.65 14.19 14.35 13.99C14.08 13.8 13.82 13.62 13.58 13.45L13.53 13.41L13.49 13.38L13.4 13.31C13.35 13.27 13.29 13.23 13.24 13.19C13.11 13.08 12.98 12.98 12.85 12.88C12.33 12.47 11.81 12.04 11.29 11.6C11.04 11.37 10.78 11.15 10.51 10.92C10.39 10.81 10.25 10.69 10.12 10.58C10.06 10.52 10 10.46 9.93 10.4L9.83 10.31L9.78 10.27L9.74 10.23L9.78 10.27L9.83 10.31L9.93 10.39L10.13 10.56C10.26 10.67 10.39 10.78 10.52 10.89C10.79 11.11 11.05 11.33 11.32 11.54C11.84 11.96 12.37 12.37 12.9 12.77C13.04 12.87 13.17 12.97 13.3 13.06L13.47 13.19L13.56 13.25C13.59 13.27 13.62 13.29 13.65 13.31C13.89 13.47 14.16 13.65 14.44 13.83C14.72 14.01 15.03 14.2 15.35 14.41L15.59 14.56L15.72 14.65L15.84 14.73C15.93 14.78 16.01 14.84 16.1 14.9C16.18 14.96 16.26 15.02 16.34 15.07L16.56 15.21C16.7 15.3 16.86 15.4 17.04 15.54L17.11 15.59L17.19 15.64C17.24 15.68 17.29 15.72 17.34 15.76C17.37 15.78 17.4 15.8 17.42 15.82L17.51 15.89L17.6 15.97L17.64 16L17.69 16.05L17.78 16.13C17.81 16.16 17.85 16.2 17.88 16.23L17.93 16.28L17.96 16.31L17.98 16.34C18.02 16.37 18.06 16.41 18.09 16.45L18.12 16.48L18.15 16.52L18.21 16.58L18.26 16.65L18.28 16.67L18.3 16.69L18.33 16.73C18.37 16.79 18.41 16.84 18.45 16.89C18.5 16.96 18.54 17.02 18.58 17.09C18.62 17.15 18.67 17.23 18.72 17.31C18.74 17.35 18.77 17.39 18.79 17.43L18.8 17.46L18.82 17.5L18.86 17.57C18.88 17.62 18.9 17.66 18.92 17.71L18.95 17.78L18.97 17.82L18.99 17.86C19.03 17.97 19.07 18.09 19.11 18.21L19.12 18.25L19.14 18.3C19.15 18.34 19.16 18.37 19.16 18.4C19.18 18.47 19.2 18.54 19.21 18.61C19.22 18.64 19.22 18.68 19.23 18.71C19.23 18.73 19.24 18.75 19.24 18.77L19.25 18.82C19.26 18.9 19.27 18.98 19.27 19.06C19.28 19.13 19.29 19.21 19.29 19.29C19.29 19.37 19.29 19.45 19.29 19.54C19.28 19.7 19.27 19.87 19.24 20.04C19.23 20.12 19.22 20.2 19.2 20.28C19.19 20.32 19.18 20.37 19.17 20.41C19.16 20.45 19.16 20.48 19.14 20.52C19.1 20.68 19.05 20.83 18.99 20.98C18.94 21.12 18.87 21.25 18.8 21.38C18.79 21.42 18.77 21.45 18.75 21.48C18.74 21.5 18.73 21.51 18.72 21.52L18.7 21.57C18.67 21.62 18.63 21.68 18.6 21.73C18.56 21.78 18.53 21.84 18.49 21.89C18.44 21.95 18.43 21.97 18.41 22L18.34 22.09L18.3 22.13C18.29 22.14 18.28 22.16 18.27 22.17C18.22 22.22 18.18 22.27 18.13 22.33L18.11 22.35L18.1 22.36L18.06 22.4L18 22.46L17.96 22.5L17.93 22.53L17.87 22.59L17.81 22.64L17.78 22.67L17.75 22.7L17.69 22.75C17.67 22.76 17.65 22.78 17.63 22.79L17.52 22.88C17.39 22.99 17.27 23.07 17.18 23.14L17.06 23.22L17.02 23.25C17.02 23.25 17.02 23.25 17.02 23.26C17.01 23.26 17 23.27 17 23.27C16.98 23.29 16.96 23.31 16.94 23.34L16.94 23.34L16.93 23.35L16.92 23.36L16.91 23.37L16.91 23.38L16.88 23.42L16.84 23.47L16.8 23.52L16.76 23.58L16.65 23.72L16.53 23.88L16.46 23.98L16.39 24.07L16.35 24.12L16.31 24.18L16.23 24.28L16.06 24.48C15.85 24.74 15.64 24.98 15.44 25.2C15.04 25.65 14.68 26.03 14.37 26.37C14.3 26.46 14.22 26.54 14.16 26.62C14.12 26.66 14.09 26.7 14.05 26.73L13.93 26.88C13.75 27.09 13.57 27.3 13.38 27.51C12.64 28.36 11.82 29.23 10.9 30.07L10.73 30.22L10.56 30.38C10.45 30.47 10.35 30.56 10.25 30.65C10.06 30.82 9.87 30.99 9.67 31.16C9.29 31.49 8.92 31.83 8.55 32.17C8.43 32.28 8.25 32.44 8.08 32.61C7.91 32.78 7.74 32.94 7.62 33.05C7.3 33.19 7 33.34 6.72 33.5C6.58 33.59 6.44 33.67 6.31 33.76L6.21 33.83C6.2 33.85 6.18 33.86 6.16 33.87L6.11 33.91L6.06 33.95L6 33.99L5.89 34.08C5.82 34.14 5.74 34.21 5.66 34.28L5.4 34.51C5.22 34.66 5.03 34.82 4.82 35C4.6 35.17 4.37 35.35 4.1 35.53L4 35.6L3.9 35.66C3.84 35.7 3.77 35.74 3.7 35.78C3.57 35.86 3.43 35.94 3.29 36C3.31 35.88 3.28 35.76 3.22 35.64C3.16 35.53 3.07 35.42 2.98 35.31C2.88 35.2 2.78 35.09 2.7 34.98C2.62 34.87 2.54 34.76 2.5 34.64C2.46 34.52 2.44 34.41 2.47 34.28C2.49 34.16 2.55 34.03 2.66 33.89C2.69 33.85 2.72 33.81 2.75 33.78C2.78 33.74 2.82 33.7 2.86 33.66C2.94 33.58 3.03 33.49 3.13 33.39C3.33 33.21 3.58 32.99 3.87 32.74C3.74 32.63 3.49 32.39 3.37 32.27C3.04 32.46 2.7 32.6 2.38 32.66C2.22 32.69 2.07 32.7 1.93 32.7C1.78 32.69 1.64 32.67 1.51 32.63C1.25 32.56 1.03 32.43 0.86 32.27C0.69 32.11 0.56 31.93 0.47 31.75C0.35 31.58 0.28 31.4 0.25 31.21C0.24 31.17 0.24 31.12 0.24 31.07C0.24 31.05 0.24 31.03 0.24 31.01C0.24 30.99 0.25 30.98 0.25 30.97C0.24 30.96 0.24 30.95 0.24 30.94C0.23 30.85 0.23 30.77 0.22 30.69C0.21 30.53 0.2 30.37 0.19 30.24C0.18 30.17 0.17 30.1 0.16 30.04C0.16 30.01 0.16 29.98 0.15 29.96C0.15 29.94 0.14 29.93 0.14 29.92C0.14 29.91 0.14 29.91 0.13 29.9L0.13 29.89L0.13 29.88C0.13 29.88 0.13 29.87 0.13 29.86L0.14 29.84C0.14 29.83 0.14 29.82 0.14 29.81C0.15 29.8 0.15 29.8 0.15 29.79C0.17 29.75 0.19 29.71 0.21 29.66C0.24 29.61 0.27 29.56 0.3 29.5C0.34 29.44 0.38 29.38 0.43 29.31C0.48 29.24 0.53 29.17 0.6 29.08C0.61 29.06 0.63 29.04 0.64 29.02C0.66 29 0.68 28.97 0.7 28.95C0.71 28.93 0.73 28.9 0.75 28.88C0.77 28.86 0.79 28.83 0.81 28.81C0.97 28.61 1.14 28.42 1.3 28.23C1.98 27.46 2.75 26.74 3.53 26.06C3.92 25.72 4.32 25.38 4.72 25.05C4.91 24.89 5.11 24.73 5.31 24.56L5.43 24.46C5.47 24.42 5.51 24.39 5.55 24.36C5.63 24.29 5.71 24.22 5.78 24.15C6.4 23.6 6.99 22.95 7.52 22.24C7.67 22.05 7.82 21.86 7.97 21.66C8.01 21.61 8.04 21.57 8.09 21.5C8.14 21.44 8.19 21.38 8.24 21.32C8.34 21.2 8.44 21.08 8.54 20.97C8.92 20.52 9.26 20.13 9.54 19.8C9.68 19.63 9.8 19.48 9.91 19.34L9.99 19.23L10.06 19.14L10.26 18.88C10.33 18.78 10.43 18.65 10.54 18.51L10.63 18.4L10.73 18.29L10.75 18.26L10.78 18.23L10.83 18.16L10.89 18.09L10.96 18.02C11.3 17.63 11.69 17.28 12.1 16.97C12.18 16.92 12.26 16.86 12.33 16.81L12.45 16.73L12.51 16.7L12.53 16.68L12.54 16.67L12.57 16.66L12.58 16.65L12.58 16.65L12.58 16.65L12.59 16.64L12.6 16.64C12.6 16.64 12.6 16.64 12.6 16.64L12.61 16.64L12.63 16.67L12.7 16.76L12.83 16.94L12.86 16.98L12.87 17L12.91 17.05L13.05 17.25C13.15 17.39 13.25 17.52 13.35 17.65L13.37 17.67L13.38 17.69L13.41 17.72L13.46 17.79L13.55 17.91L13.65 18.04L13.7 18.1L13.72 18.13L13.74 18.15C13.79 18.21 13.83 18.26 13.88 18.32L13.95 18.4L13.97 18.43L13.98 18.44L14.01 18.47C14.05 18.51 14.08 18.56 14.12 18.6L14.15 18.63L14.16 18.64C14.17 18.65 14.17 18.65 14.17 18.65L14.21 18.7C14.24 18.73 14.27 18.76 14.3 18.79C14.32 18.8 14.33 18.81 14.34 18.83L14.37 18.86L14.41 18.89L14.42 18.91C14.43 18.91 14.44 18.92 14.44 18.92C14.46 18.94 14.48 18.96 14.5 18.97C14.51 18.99 14.54 19.01 14.55 19.02C14.56 19.03 14.58 19.04 14.59 19.05L14.61 19.06L14.61 19.07L14.96 19.33L14.96 19.33C14.96 19.33 14.97 19.34 14.98 19.34C15 19.36 15.04 19.38 15.05 19.39C15.06 19.39 15.08 19.4 15.08 19.4C15.09 19.41 15.09 19.41 15.09 19.41C15.1 19.41 15.1 19.41 15.1 19.41C15.1 19.41 15.11 19.41 15.11 19.41L15.12 19.41L15.12 19.41L15.12 19.41L15.12 19.41L15.12 19.41C15.11 19.41 15.11 19.41 15.11 19.41C15.11 19.41 15.1 19.41 15.1 19.41C15.09 19.41 15.09 19.41 15.08 19.41C15.08 19.41 15.07 19.41 15.07 19.42C15.07 19.42 15.06 19.42 15.06 19.42C15.04 19.42 15.03 19.42 15.01 19.43C15.01 19.43 15 19.43 15 19.44C14.99 19.44 14.98 19.44 14.97 19.44C14.83 19.49 14.63 19.6 14.39 19.78C14.15 19.97 13.88 20.23 13.57 20.56C13.52 20.6 13.49 20.65 13.45 20.69L13.42 20.72L13.4 20.74L13.39 20.76L13.32 20.83C13.28 20.88 13.24 20.93 13.2 20.98L13.13 21.05L13.12 21.07L13.1 21.09L13.07 21.13C13.02 21.19 12.97 21.24 12.93 21.3L12.86 21.38L12.83 21.43C12.82 21.44 12.81 21.46 12.79 21.47C12.74 21.54 12.69 21.6 12.64 21.67L12.56 21.76L12.52 21.81L12.5 21.84L12.5 21.84C12.51 21.82 12.47 21.77 12.4 21.69C12.36 21.66 12.3 21.62 12.24 21.56L12.18 21.51L12.1 21.46C12.04 21.41 11.98 21.36 11.92 21.32C11.85 21.25 11.78 21.19 11.71 21.13C11.67 21.1 11.64 21.07 11.6 21.04L11.49 20.94C11.33 20.82 11.17 20.69 11 20.56C10.82 20.43 10.64 20.29 10.44 20.15C10.24 20.01 10.04 19.86 9.84 19.71C9.63 19.56 9.41 19.4 9.19 19.23L9.02 19.1L8.87 18.99C8.78 18.91 8.68 18.83 8.58 18.76C8.2 18.45 7.82 18.14 7.44 17.83C7.07 17.52 6.7 17.2 6.34 16.88C6.16 16.73 5.98 16.57 5.8 16.41C5.71 16.32 5.63 16.25 5.54 16.16C5.45 16.08 5.37 16 5.28 15.92C4.88 15.55 4.51 15.17 4.16 14.78C4.07 14.69 3.99 14.59 3.91 14.49C3.87 14.44 3.82 14.39 3.78 14.34C3.74 14.29 3.7 14.24 3.66 14.19C3.58 14.09 3.5 14 3.42 13.9C3.35 13.79 3.27 13.69 3.2 13.59C3.14 13.52 3.07 13.44 3 13.36C2.93 13.28 2.86 13.2 2.78 13.12C2.63 12.96 2.46 12.79 2.29 12.62C1.95 12.29 1.6 11.94 1.27 11.6C1.19 11.52 1.11 11.43 1.04 11.35C0.96 11.27 0.88 11.19 0.81 11.11C0.67 10.95 0.55 10.79 0.44 10.64C0.33 10.5 0.24 10.35 0.17 10.22C0.11 10.09 0.07 9.97 0.06 9.86C0.05 9.79 0.04 9.73 0.03 9.67C0.03 9.66 0.03 9.65 0.03 9.64C0.03 9.64 0.03 9.64 0.03 9.63C0.02 9.63 0.02 9.62 0.02 9.62C0.02 9.6 0.01 9.58 0.01 9.56C0 9.55 0 9.54 0 9.53C0 9.52 0 9.52 0 9.51C0 9.49 0 9.47 0 9.46C-0.01 9.33 0.02 9.24 0.07 9.16C0.17 9 0.33 8.9 0.52 8.8C0.57 8.87 0.62 8.94 0.68 9.02L0.83 9.2L1.1 9.55C1.29 9.78 1.48 10.01 1.67 10.23C2.05 10.69 2.44 11.15 2.84 11.6C3.64 12.51 4.5 13.4 5.43 14.24L5.64 14.44L5.74 14.54L5.85 14.63L6.06 14.83L6.27 15.01L7.06 15.73C7.6 16.21 8.14 16.69 8.69 17.17C8.96 17.41 9.24 17.64 9.51 17.88L9.72 18.06L9.95 18.25C10.11 18.38 10.26 18.5 10.41 18.62L11.28 19.31C11.55 19.53 11.82 19.74 12.06 19.95C11.6 19.51 11.06 19.07 10.47 18.58C10.4 18.52 10.33 18.46 10.25 18.4C10.18 18.34 10.11 18.28 10.03 18.21C9.96 18.15 9.88 18.08 9.8 18.02C9.73 17.96 9.66 17.9 9.59 17.84C9.32 17.6 9.05 17.36 8.77 17.13C8.22 16.65 7.67 16.18 7.13 15.71C6.85 15.47 6.58 15.24 6.3 15L6.09 14.82L5.87 14.63L5.76 14.53L5.65 14.44L5.43 14.24C4.53 13.37 3.72 12.46 2.97 11.53C2.59 11.06 2.23 10.59 1.88 10.12C1.7 9.89 1.53 9.65 1.36 9.41C1.27 9.3 1.19 9.18 1.11 9.06L0.98 8.88L0.9 8.77C0.88 8.74 0.85 8.7 0.83 8.67C1 8.6 1.17 8.52 1.32 8.42C1.47 8.32 1.59 8.2 1.68 8.04C1.68 8.04 1.57 7.9 1.44 7.72C1.37 7.64 1.3 7.55 1.23 7.47C1.16 7.39 1.09 7.32 1.04 7.26C1 7.08 0.97 6.91 0.94 6.75C0.9 6.58 0.86 6.43 0.81 6.28C0.71 5.98 0.6 5.71 0.63 5.45C0.65 5.32 0.7 5.2 0.8 5.09C0.85 5.03 0.91 4.98 0.98 4.93C1.02 4.91 1.05 4.88 1.09 4.86C1.14 4.84 1.18 4.82 1.22 4.8C1.25 4.8 1.27 4.79 1.29 4.78C1.32 4.77 1.34 4.76 1.37 4.75C1.41 4.74 1.47 4.73 1.52 4.72C1.57 4.7 1.62 4.7 1.68 4.69C1.74 4.68 1.79 4.68 1.85 4.67C2.08 4.66 2.32 4.68 2.55 4.71C3.01 4.83 3.43 4.97 3.83 5.13Z" fill="#292929" fill-opacity="1.000000" fill-rule="nonzero"/>
</svg>
