<svg width="39.000000" height="38.000000" viewBox="0 0 39 38" fill="none" xmlns="http://www.w3.org/2000/svg" xmlns:xlink="http://www.w3.org/1999/xlink">
	<desc>
			Created with Pixso.
	</desc>
	<defs/>
	<path id="vector_02" d="M15.56 -0.93C15.81 -0.73 16.03 -0.54 16.23 -0.35C16.35 -0.24 16.47 -0.14 16.59 -0.03C16.7 0.07 16.82 0.18 16.93 0.28C17.13 0.48 17.34 0.68 17.54 0.87C17.95 1.26 18.35 1.65 18.76 2.04C19.56 2.8 20.35 3.54 21.15 4.24C21.35 4.42 21.54 4.59 21.75 4.76C21.85 4.85 21.95 4.93 22.05 5.01C22.1 5.06 22.15 5.1 22.2 5.14C22.25 5.18 22.3 5.23 22.36 5.27C22.79 5.62 23.21 5.98 23.65 6.34C24.52 7.05 25.39 7.77 26.29 8.52C26.9 9.07 27.56 9.59 28.26 10.11C28.96 10.62 29.7 11.13 30.45 11.64C30.83 11.89 31.21 12.15 31.58 12.4L31.72 12.5L31.84 12.58L31.9 12.62L31.96 12.66L32.09 12.74C32.18 12.79 32.26 12.85 32.35 12.9C32.44 12.96 32.53 13.01 32.62 13.07C32.72 13.13 32.81 13.18 32.91 13.24C33 13.3 33.1 13.36 33.2 13.42C33.25 13.45 33.29 13.48 33.34 13.51C33.39 13.54 33.44 13.58 33.49 13.61C33.54 13.64 33.59 13.67 33.64 13.7C33.69 13.74 33.74 13.77 33.79 13.8C34.19 14.07 34.61 14.37 35.01 14.72L34.84 14.56C34.81 14.53 34.78 14.51 34.75 14.48L34.66 14.41C34.54 14.31 34.43 14.22 34.31 14.13C34.25 14.08 34.2 14.04 34.14 13.99L34.05 13.92C34.02 13.9 34 13.88 33.97 13.86L33.79 13.74L33.63 13.62L33.54 13.56L33.46 13.5L33.29 13.39C33.19 13.31 33.08 13.24 32.97 13.17C32.77 13.03 32.56 12.89 32.36 12.76C32.26 12.69 32.17 12.63 32.08 12.56C31.98 12.5 31.9 12.43 31.81 12.37C31.71 12.3 31.61 12.22 31.51 12.15C31.4 12.07 31.3 12 31.19 11.92C30.78 11.62 30.37 11.32 29.95 11.03C29.13 10.44 28.31 9.87 27.52 9.28C26.73 8.7 25.96 8.1 25.19 7.48C24.42 6.87 23.67 6.23 22.92 5.58C22.74 5.42 22.55 5.26 22.37 5.1L22.23 4.98L22.1 4.86C22.02 4.78 21.93 4.7 21.85 4.62C21.5 4.3 21.16 3.97 20.82 3.63C20.48 3.29 20.14 2.94 19.8 2.59C19.46 2.23 19.12 1.87 18.77 1.51C18.43 1.14 18.08 0.77 17.72 0.4C17.54 0.21 17.36 0.02 17.17 -0.16C16.97 -0.36 16.77 -0.56 16.55 -0.76C16.8 -0.71 17.06 -0.64 17.31 -0.56C17.37 -0.53 17.44 -0.51 17.5 -0.49C17.53 -0.48 17.56 -0.46 17.59 -0.46L17.6 -0.45L17.61 -0.45C17.62 -0.45 17.62 -0.45 17.63 -0.45L17.68 -0.43C17.79 -0.38 17.91 -0.34 18.03 -0.28C18.51 -0.07 18.97 0.21 19.4 0.57C20.38 1.5 21.28 2.38 22.16 3.19C22.27 3.28 22.38 3.39 22.49 3.48C22.6 3.58 22.71 3.68 22.82 3.77L22.98 3.91L23.06 3.99L23.15 4.06C23.27 4.16 23.39 4.26 23.5 4.36C23.98 4.76 24.45 5.15 24.93 5.54C24.82 5.68 24.62 5.95 24.52 6.08C25.62 6.8 26.67 7.54 27.7 8.27C28.73 9 29.77 9.75 30.83 10.53C31.09 10.73 31.36 10.93 31.62 11.13L32.02 11.44L32.22 11.59L32.39 11.72C32.6 11.88 32.83 12.05 33.09 12.23C33.34 12.41 33.62 12.6 33.92 12.81C34.22 13.02 34.53 13.25 34.85 13.5C35.18 13.76 35.51 14.04 35.85 14.37C35.87 14.39 35.9 14.41 35.92 14.43L35.98 14.5L36.11 14.63L36.14 14.66L36.16 14.68L36.19 14.72L36.26 14.8L36.3 14.84L36.31 14.86L36.33 14.88C36.36 14.91 36.38 14.94 36.41 14.97L36.45 15.02L36.47 15.05L36.49 15.07C36.52 15.11 36.54 15.15 36.57 15.19L36.61 15.25L36.63 15.28L36.65 15.32C36.68 15.36 36.71 15.41 36.73 15.46C36.75 15.48 36.76 15.51 36.77 15.53C36.79 15.56 36.8 15.59 36.82 15.62C36.84 15.68 36.87 15.73 36.89 15.79L36.9 15.81L36.91 15.84L36.93 15.89C36.95 15.92 36.96 15.96 36.97 15.99C37.02 16.12 37.06 16.29 37.1 16.44L37.1 16.47L37.11 16.5L37.12 16.57C37.13 16.61 37.13 16.65 37.14 16.7C37.14 16.74 37.15 16.78 37.15 16.82C37.16 16.87 37.16 16.91 37.16 16.96C37.17 17.05 37.17 17.14 37.16 17.23C37.16 17.32 37.15 17.41 37.14 17.49C37.14 17.54 37.13 17.58 37.12 17.62C37.12 17.67 37.11 17.71 37.1 17.75C37.09 17.79 37.08 17.83 37.07 17.87C37.06 17.91 37.06 17.95 37.04 17.99C37.03 18.03 37.02 18.07 37.01 18.1C37 18.14 36.99 18.18 36.97 18.21C36.95 18.28 36.92 18.35 36.89 18.41C36.89 18.43 36.88 18.45 36.87 18.46L36.85 18.5C36.84 18.53 36.83 18.56 36.81 18.59C36.8 18.62 36.78 18.65 36.77 18.67L36.75 18.71L36.73 18.75C36.7 18.79 36.67 18.84 36.65 18.89C36.62 18.93 36.6 18.97 36.57 19.01L36.53 19.07L36.49 19.12C36.47 19.15 36.44 19.18 36.42 19.21L36.35 19.29L36.32 19.34L36.29 19.37L36.23 19.44L36.18 19.49C36.11 19.57 36.05 19.62 36 19.67L35.94 19.74L35.89 19.79L35.84 19.84C35.83 19.84 35.82 19.85 35.81 19.86C35.79 19.88 35.77 19.9 35.76 19.92C35.47 20.27 35.19 20.61 34.9 20.97C34.61 21.32 34.32 21.67 34.03 22.03C33.75 22.38 33.47 22.74 33.19 23.09C32.91 23.47 32.62 23.84 32.34 24.22C32.47 24.15 32.53 24.17 32.56 24.22C32.6 24.27 32.61 24.36 32.63 24.41C32.62 24.43 32.6 24.44 32.59 24.45C32.6 24.44 32.62 24.43 32.63 24.41C32.66 24.52 32.74 24.55 33.07 24.2C32.74 24.55 32.66 24.52 32.63 24.41C32.71 24.33 32.79 24.24 32.86 24.15C32.94 24.06 33.02 23.97 33.1 23.88C33.25 23.71 33.4 23.54 33.55 23.36C33.85 23.02 34.14 22.69 34.44 22.35C34.73 22.01 35.03 21.67 35.33 21.32C35.48 21.14 35.63 20.97 35.78 20.79C35.85 20.7 35.92 20.61 36 20.52C36.06 20.44 36.13 20.36 36.19 20.28C36.2 20.27 36.21 20.26 36.22 20.25L36.24 20.23L36.27 20.2L36.39 20.08L36.47 20L36.52 19.95L36.57 19.9L36.63 19.84L36.66 19.8L36.69 19.76L36.75 19.69C36.78 19.66 36.8 19.63 36.83 19.6L36.86 19.55L36.9 19.5C36.93 19.46 36.96 19.43 36.99 19.39L37.01 19.36L37.03 19.33L37.07 19.26L37.12 19.19L37.14 19.15L37.17 19.11C37.2 19.06 37.23 19.01 37.26 18.95C37.29 18.89 37.32 18.82 37.35 18.76L37.37 18.71C37.38 18.69 37.39 18.68 37.4 18.66C37.41 18.62 37.43 18.58 37.45 18.55C37.46 18.51 37.47 18.47 37.49 18.43L37.51 18.37C37.52 18.36 37.52 18.33 37.53 18.31C37.56 18.23 37.58 18.14 37.61 18.05C37.62 18.01 37.63 17.96 37.64 17.91C37.65 17.86 37.66 17.81 37.67 17.77C37.67 17.72 37.68 17.67 37.69 17.62C37.7 17.57 37.7 17.52 37.71 17.47C37.71 17.37 37.72 17.26 37.72 17.16C37.72 17.06 37.72 16.96 37.71 16.85C37.71 16.83 37.71 16.8 37.71 16.78L37.7 16.7C37.7 16.65 37.69 16.6 37.68 16.55C37.67 16.5 37.67 16.46 37.66 16.41C37.65 16.36 37.64 16.32 37.63 16.27C37.61 16.18 37.58 16.09 37.56 16L37.55 15.97L37.54 15.94L37.52 15.88C37.51 15.84 37.49 15.8 37.48 15.76C37.47 15.73 37.45 15.69 37.43 15.65C37.43 15.63 37.42 15.61 37.41 15.59L37.39 15.54C37.36 15.48 37.33 15.41 37.29 15.35L37.27 15.3L37.26 15.28L37.25 15.25L37.2 15.17C37.17 15.12 37.14 15.07 37.11 15.01L37.09 14.99L37.08 14.97L37.06 14.94L37.01 14.87C36.98 14.83 36.95 14.79 36.92 14.74L36.9 14.72L36.88 14.69L36.83 14.64C36.81 14.6 36.78 14.57 36.75 14.53L36.73 14.51L36.71 14.48L36.67 14.44C36.64 14.41 36.62 14.38 36.59 14.36L36.55 14.31L36.53 14.29C36.44 14.2 36.35 14.11 36.26 14.03C35.91 13.68 35.55 13.39 35.22 13.14C34.88 12.88 34.56 12.66 34.25 12.45C33.95 12.25 33.66 12.07 33.4 11.9C33.14 11.73 32.9 11.57 32.7 11.42C32.45 11.24 32.2 11.06 31.95 10.88C31.69 10.69 31.42 10.5 31.15 10.31C30.1 9.55 29.07 8.82 28.09 8.07C27.1 7.33 26.12 6.54 25.14 5.72C26.13 6.51 27.11 7.27 28.11 7.99C29.1 8.71 30.15 9.42 31.23 10.16C31.5 10.35 31.77 10.53 32.04 10.72L32.45 11L32.66 11.15L32.8 11.25C33.01 11.39 33.25 11.54 33.52 11.71C33.78 11.87 34.07 12.05 34.38 12.25C34.69 12.46 35.02 12.68 35.37 12.94C35.72 13.2 36.08 13.49 36.45 13.84C36.54 13.93 36.64 14.02 36.73 14.11L36.74 14.12L36.75 14.14L36.79 14.18C36.82 14.21 36.85 14.24 36.88 14.27L36.92 14.32L36.94 14.34L36.96 14.37C37 14.41 37.03 14.45 37.06 14.48L37.1 14.54L37.12 14.57L37.15 14.6C37.18 14.65 37.21 14.69 37.24 14.74L37.29 14.81L37.32 14.85L37.34 14.89C37.38 14.95 37.41 15 37.45 15.06L37.49 15.15L37.51 15.17L37.52 15.2L37.55 15.25C37.58 15.32 37.61 15.39 37.64 15.46L37.67 15.51L37.69 15.58C37.71 15.62 37.72 15.66 37.74 15.7C37.76 15.74 37.77 15.78 37.78 15.83L37.81 15.89L37.81 15.92L37.82 15.96C37.85 16.05 37.88 16.15 37.9 16.24L37.92 16.32C37.92 16.34 37.93 16.37 37.93 16.39C37.94 16.44 37.95 16.5 37.96 16.55C37.96 16.6 37.97 16.66 37.98 16.71C37.98 16.73 37.98 16.76 37.98 16.79L37.99 16.87C37.99 16.98 38 17.09 37.99 17.2C37.99 17.31 37.99 17.42 37.98 17.53C37.97 17.58 37.96 17.64 37.96 17.69C37.95 17.74 37.94 17.79 37.93 17.84C37.92 17.9 37.91 17.95 37.9 18L37.88 18.08C37.88 18.1 37.87 18.12 37.87 18.15C37.84 18.24 37.82 18.33 37.79 18.43L37.77 18.46L37.76 18.49L37.74 18.55C37.73 18.59 37.71 18.63 37.69 18.68C37.68 18.72 37.66 18.76 37.64 18.8C37.63 18.83 37.61 18.87 37.59 18.9C37.58 18.94 37.56 18.97 37.54 19.01L37.52 19.06L37.49 19.11C37.46 19.16 37.43 19.22 37.39 19.28L37.37 19.32L37.34 19.36L37.3 19.43L37.25 19.51L37.23 19.54L37.2 19.57C37.18 19.61 37.15 19.65 37.12 19.69L37.1 19.72L37.07 19.74L37.04 19.79C37.01 19.82 36.98 19.86 36.96 19.89L36.89 19.97L36.86 20L36.83 20.04L36.77 20.1L36.72 20.16L36.66 20.21L36.58 20.29L36.46 20.41L36.44 20.43L36.44 20.44C36.43 20.44 36.43 20.44 36.43 20.44L36.42 20.45C36.42 20.46 36.41 20.47 36.41 20.47C36.42 20.46 36.37 20.52 36.34 20.55L36.25 20.66L36.07 20.88C35.95 21.03 35.83 21.18 35.71 21.32C35.46 21.61 35.22 21.9 34.98 22.18C34.49 22.74 34.01 23.28 33.54 23.81L33.35 24.02L33.15 24.24L32.96 24.45L32.76 24.66C32.5 24.94 32.25 25.21 31.99 25.49C31.47 26.02 30.97 26.54 30.48 27.04L30.29 27.23L30.11 27.42L29.94 27.6L29.76 27.78C29.53 28.03 29.27 28.3 29.01 28.58C28.47 29.14 27.87 29.74 27.16 30.35L27.09 30.4L27.03 30.46L26.89 30.57L26.82 30.63L26.77 30.67L26.65 30.76L26.43 30.94L26.2 31.12C26.05 31.24 25.9 31.36 25.74 31.48C25.59 31.59 25.44 31.71 25.29 31.83C24.68 32.29 24.07 32.74 23.47 33.17C23.08 33.46 22.3 34.02 21.91 34.3C21.45 34.48 21.01 34.66 20.58 34.87C20.47 34.92 20.37 34.97 20.26 35.02L20.18 35.06L20.09 35.11L19.9 35.21L19.19 35.6C18.73 35.84 18.3 36.07 17.92 36.3C17.53 36.53 17.18 36.76 16.87 37C16.84 36.88 16.79 36.77 16.71 36.67C16.63 36.57 16.54 36.47 16.44 36.37C16.23 36.18 16.01 35.99 15.88 35.78C15.81 35.67 15.77 35.56 15.77 35.43C15.78 35.37 15.79 35.3 15.81 35.24C15.84 35.17 15.87 35.1 15.93 35.02C16.03 34.87 16.19 34.7 16.44 34.51C16.68 34.33 17.01 34.13 17.44 33.89C17.34 33.75 17.15 33.46 17.05 33.32C16.6 33.49 16.16 33.63 15.74 33.73C15.33 33.83 14.94 33.9 14.58 33.95C14.49 33.96 14.4 33.97 14.31 33.98C14.23 33.99 14.14 34 14.06 34C13.97 34.01 13.9 34.01 13.82 34.01C13.74 34.02 13.66 34.02 13.59 34.02C13.51 34.02 13.44 34.01 13.37 34.01C13.3 34 13.23 33.99 13.17 33.99C13.04 33.97 12.92 33.94 12.81 33.9C12.61 33.82 12.46 33.69 12.35 33.53C12.33 33.49 12.31 33.44 12.29 33.4C12.28 33.38 12.27 33.35 12.26 33.33C12.26 33.32 12.25 33.31 12.25 33.29C12.25 33.28 12.25 33.27 12.25 33.25C12.23 33.14 12.24 33.02 12.26 32.89C12.32 32.62 12.45 32.3 12.68 31.95C12.91 31.6 13.22 31.23 13.62 30.86C13.68 30.8 13.73 30.75 13.79 30.7C13.84 30.65 13.9 30.6 13.95 30.55C14.06 30.46 14.18 30.36 14.29 30.27C14.51 30.08 14.72 29.9 14.94 29.73C15.14 29.57 15.34 29.41 15.54 29.25C15.59 29.21 15.64 29.17 15.68 29.13L15.75 29.07C15.78 29.05 15.81 29.03 15.84 29C15.96 28.91 16.09 28.81 16.21 28.71C17.2 27.94 18.25 27.21 19.29 26.47C19.81 26.1 20.34 25.73 20.85 25.35C20.97 25.26 21.1 25.16 21.23 25.07C21.35 24.98 21.48 24.88 21.6 24.79L21.79 24.64L21.88 24.57L21.93 24.54L21.95 24.52L21.97 24.5C22.01 24.47 22.06 24.43 22.1 24.39L22.24 24.28C22.62 23.96 23.01 23.56 23.43 23.11C23.64 22.88 23.86 22.63 24.09 22.38C24.21 22.25 24.32 22.11 24.44 21.98C24.5 21.92 24.55 21.85 24.61 21.79C24.67 21.72 24.72 21.66 24.78 21.59C25.27 21.05 25.75 20.52 26.22 20.01C26.45 19.75 26.67 19.5 26.9 19.25L27.22 18.88L27.54 18.51C28.01 17.96 28.47 17.43 28.92 16.92L29.6 16.16L29.92 15.78L30.09 15.6L30.17 15.51L30.21 15.46L30.22 15.45L30.24 15.43L30.28 15.38C30.36 15.29 30.43 15.2 30.51 15.12C30.59 15.03 30.68 14.95 30.76 14.87L30.82 14.81L30.89 14.75L30.9 14.74L30.91 14.73L30.92 14.72L30.94 14.7L30.95 14.69C30.97 14.68 30.97 14.67 30.98 14.67C30.98 14.67 30.98 14.67 30.99 14.68L31 14.69L31.05 14.75L31.27 14.96C31.41 15.11 31.56 15.25 31.7 15.39L31.76 15.44L31.79 15.47L31.8 15.48L31.86 15.54L31.99 15.67C32.07 15.75 32.16 15.83 32.24 15.91L32.37 16.03L32.45 16.11C32.51 16.16 32.57 16.21 32.62 16.27L32.71 16.34L32.75 16.38L32.79 16.41C32.83 16.44 32.87 16.48 32.91 16.52C32.95 16.55 32.99 16.59 33.04 16.62C33.07 16.65 33.1 16.68 33.13 16.7C33.17 16.73 33.2 16.76 33.23 16.78L33.24 16.79L33.25 16.8L33.27 16.81L33.31 16.84C33.34 16.86 33.36 16.88 33.39 16.89L33.41 16.91L33.42 16.92L33.45 16.94C33.48 16.96 33.5 16.97 33.52 16.98L33.54 16.99L33.55 17L33.57 17.02C33.59 17.03 33.6 17.04 33.62 17.04L33.64 17.05L33.65 17.06L33.67 17.07C33.68 17.07 33.7 17.08 33.71 17.09C33.72 17.09 33.72 17.09 33.73 17.09L33.74 17.1C33.83 17.14 33.87 17.13 33.85 17.13C33.84 17.13 33.77 17.14 33.67 17.19L33.66 17.2L33.65 17.21C33.64 17.21 33.64 17.21 33.64 17.21C33.62 17.22 33.6 17.22 33.59 17.23C33.56 17.25 33.54 17.27 33.5 17.29C33.47 17.31 33.43 17.34 33.4 17.36C33.36 17.39 33.32 17.42 33.29 17.45C33.27 17.46 33.25 17.48 33.24 17.49C33.21 17.51 33.19 17.53 33.17 17.55C33.13 17.58 33.09 17.62 33.06 17.66L33.05 17.66C29.05 21.51 31.94 18.73 31.05 19.59L31.05 19.58L31.05 19.58L31.04 19.58L31.03 19.56C31.02 19.55 31.01 19.53 31 19.52C30.99 19.5 30.97 19.48 30.96 19.46L30.94 19.43L30.91 19.4C30.89 19.38 30.88 19.36 30.86 19.34L30.79 19.27L30.76 19.23C30.75 19.22 30.73 19.2 30.72 19.19C30.58 19.05 30.4 18.89 30.19 18.71C29.97 18.54 29.72 18.35 29.45 18.15C29.17 17.95 28.86 17.73 28.52 17.48L28.4 17.38L28.33 17.34L28.29 17.3C28.22 17.25 28.16 17.2 28.09 17.15C27.96 17.05 27.83 16.95 27.71 16.85C26.66 16.05 25.53 15.25 24.39 14.4C24.11 14.19 23.82 13.97 23.54 13.76C23.26 13.54 22.98 13.32 22.7 13.1C22.14 12.66 21.6 12.21 21.06 11.76C20.53 11.3 20.02 10.84 19.51 10.38C19.26 10.14 19.02 9.91 18.77 9.67C18.71 9.61 18.65 9.55 18.59 9.49C18.52 9.43 18.46 9.37 18.4 9.3C18.27 9.18 18.15 9.05 18.03 8.92C17.66 8.57 17.21 8.19 16.73 7.81C16.26 7.42 15.76 7.04 15.3 6.67C14.84 6.3 14.42 5.96 14.08 5.65C13.92 5.5 13.78 5.36 13.66 5.22C13.6 5.15 13.56 5.08 13.51 5.02C13.49 4.99 13.48 4.95 13.46 4.92C13.45 4.91 13.44 4.89 13.44 4.88C13.43 4.87 13.43 4.86 13.42 4.85C13.42 4.84 13.41 4.84 13.41 4.83C13.39 4.79 13.37 4.76 13.35 4.72C13.34 4.69 13.33 4.66 13.31 4.63C13.29 4.56 13.27 4.51 13.26 4.45C13.24 4.34 13.25 4.24 13.27 4.15C13.32 3.97 13.45 3.83 13.61 3.69C13.68 3.74 13.75 3.8 13.82 3.85C13.89 3.91 13.95 3.96 14.02 4.02L14.25 4.2C14.32 4.26 14.39 4.32 14.46 4.38C14.75 4.62 15.04 4.87 15.33 5.12C15.91 5.62 16.49 6.14 17.08 6.66C17.37 6.92 17.67 7.18 17.98 7.44C18.28 7.7 18.58 7.96 18.89 8.22C19.05 8.35 19.21 8.48 19.36 8.61C19.52 8.73 19.67 8.86 19.82 8.98C20.13 9.22 20.43 9.47 20.74 9.72C21.47 10.34 22.21 10.96 22.96 11.57C23.33 11.88 23.71 12.19 24.09 12.49C24.47 12.79 24.86 13.1 25.24 13.4C26.01 13.99 26.77 14.58 27.51 15.16C27.88 15.45 28.24 15.75 28.6 16.04L28.87 16.26L29 16.38L29.17 16.51L29.25 16.57L29.33 16.63L29.49 16.76L29.8 16.99C29.7 16.91 29.6 16.83 29.5 16.75L29.35 16.63L29.19 16.5L29.04 16.36L29.02 16.35L29 16.33L28.97 16.3L28.9 16.25C28.82 16.17 28.73 16.1 28.64 16.02C28.3 15.72 27.94 15.43 27.58 15.13C26.86 14.54 26.1 13.95 25.34 13.36C24.95 13.06 24.57 12.76 24.18 12.45C23.8 12.15 23.41 11.85 23.03 11.55C22.26 10.94 21.5 10.33 20.74 9.71C20.44 9.46 20.14 9.2 19.85 8.95L19.4 8.57C19.25 8.43 19.1 8.3 18.95 8.17C18.64 7.9 18.35 7.63 18.06 7.36C17.77 7.1 17.49 6.83 17.2 6.56C16.64 6.02 16.09 5.49 15.53 4.97C15.26 4.71 14.98 4.45 14.7 4.2C14.56 4.08 14.43 3.95 14.29 3.83L14.08 3.64C14.01 3.58 13.95 3.53 13.88 3.47C14.02 3.36 14.18 3.25 14.3 3.12C14.42 2.99 14.51 2.84 14.54 2.64C14.54 2.64 14.5 2.61 14.42 2.55C14.34 2.5 14.24 2.42 14.12 2.34C13.88 2.17 13.59 1.98 13.4 1.88C13.26 1.67 13.15 1.49 13.04 1.32C12.98 1.24 12.92 1.16 12.87 1.09C12.81 1.01 12.74 0.94 12.66 0.88C12.57 0.82 12.47 0.78 12.35 0.76C12.23 0.75 12.1 0.76 11.99 0.79C11.88 0.81 11.78 0.83 11.7 0.84C11.62 0.85 11.55 0.84 11.49 0.81C11.44 0.78 11.39 0.72 11.37 0.64C11.37 0.62 11.36 0.59 11.36 0.57C11.36 0.54 11.35 0.52 11.36 0.49C11.36 0.43 11.37 0.36 11.4 0.28C11.42 0.21 11.46 0.13 11.51 0.04C11.57 -0.04 11.64 -0.13 11.71 -0.21C11.73 -0.23 11.76 -0.25 11.78 -0.27C11.79 -0.28 11.8 -0.29 11.81 -0.3C11.82 -0.31 11.83 -0.32 11.85 -0.33C11.89 -0.36 11.94 -0.4 11.99 -0.44C12.08 -0.5 12.19 -0.56 12.29 -0.61C12.49 -0.71 12.69 -0.78 12.87 -0.82C13.05 -0.87 13.21 -0.9 13.37 -0.92C13.4 -0.93 13.44 -0.94 13.48 -0.94C13.51 -0.94 13.55 -0.95 13.59 -0.95C13.62 -0.96 13.66 -0.96 13.69 -0.97C13.73 -0.97 13.76 -0.97 13.79 -0.98C13.83 -0.98 13.86 -0.98 13.9 -0.99C13.93 -0.99 13.96 -0.99 13.99 -0.99C14.06 -1 14.12 -1 14.18 -1C14.3 -1 14.41 -1 14.54 -0.99C14.65 -0.98 14.77 -0.98 14.88 -0.97C14.99 -0.96 15.1 -0.95 15.22 -0.94C15.34 -0.95 15.45 -0.94 15.56 -0.93Z" fill="#DADADA" fill-opacity="1.000000" fill-rule="nonzero"/>
	<path id="vector_01" d="M3.83 4.13C3.99 4.36 4.11 4.57 4.21 4.75C4.26 4.85 4.31 4.93 4.34 4.99C4.35 5.02 4.36 5.04 4.36 5.06L4.44 5.19C4.5 5.27 4.55 5.35 4.6 5.44C4.65 5.52 4.71 5.6 4.76 5.68C4.87 5.85 4.98 6 5.09 6.16C5.2 6.32 5.31 6.48 5.43 6.63C5.54 6.79 5.66 6.94 5.77 7.09C5.83 7.16 5.89 7.24 5.95 7.31C6.01 7.39 6.07 7.46 6.13 7.53L6.22 7.64L6.31 7.75C6.37 7.82 6.44 7.9 6.5 7.97C6.56 8.04 6.62 8.11 6.69 8.18C6.75 8.25 6.81 8.32 6.87 8.39C6.93 8.46 7 8.53 7.06 8.6C7.13 8.67 7.19 8.74 7.25 8.81C7.38 8.95 7.51 9.08 7.64 9.21C7.91 9.48 8.18 9.74 8.45 10C8.59 10.13 8.73 10.25 8.87 10.38C9.02 10.52 9.18 10.66 9.34 10.8C9.66 11.09 9.98 11.37 10.3 11.67C10.65 12.03 11.03 12.37 11.43 12.71C11.63 12.88 11.83 13.04 12.04 13.2C12.14 13.28 12.25 13.36 12.35 13.44C12.4 13.47 12.45 13.51 12.5 13.55C12.55 13.58 12.6 13.62 12.65 13.65C13.05 13.93 13.5 14.21 13.97 14.5C14.2 14.64 14.44 14.79 14.68 14.94C14.81 15.02 14.93 15.1 15.05 15.17C15.11 15.21 15.17 15.26 15.24 15.3C15.3 15.34 15.36 15.38 15.41 15.42C15.43 15.43 15.44 15.43 15.45 15.44L15.5 15.47C15.54 15.5 15.59 15.53 15.64 15.56C15.74 15.62 15.86 15.7 15.98 15.78C16.1 15.86 16.23 15.96 16.37 16.07C16.52 16.18 16.67 16.31 16.83 16.49C16.67 16.3 16.52 16.17 16.38 16.05C16.24 15.93 16.11 15.83 15.99 15.74C15.87 15.65 15.76 15.58 15.66 15.5L15.59 15.45L15.53 15.41L15.51 15.39C15.5 15.39 15.49 15.38 15.49 15.38C15.48 15.37 15.47 15.36 15.46 15.35C15.38 15.29 15.31 15.24 15.24 15.18C15.16 15.13 15.08 15.07 15.01 15.01C14.93 14.96 14.86 14.9 14.78 14.85L14.67 14.77L14.56 14.69C14.26 14.49 13.97 14.29 13.69 14.1C13.41 13.91 13.14 13.73 12.89 13.54C12.77 13.45 12.64 13.36 12.53 13.27L12.13 12.97C11.08 12.15 10.04 11.28 9.02 10.39C8.95 10.33 8.9 10.28 8.84 10.23L8.68 10.07C8.57 9.97 8.46 9.86 8.35 9.76C8.25 9.65 8.14 9.54 8.04 9.43L7.88 9.26C7.83 9.2 7.78 9.14 7.73 9.09C7.32 8.63 6.93 8.14 6.57 7.63C6.2 7.13 5.85 6.6 5.51 6.05C5.35 5.77 5.18 5.49 5.02 5.21C4.95 5.07 4.87 4.92 4.79 4.78L4.77 4.75L4.77 4.74L4.76 4.73C4.76 4.73 4.76 4.73 4.76 4.73L4.76 4.72C4.76 4.72 4.76 4.72 4.76 4.71L4.76 4.7C4.76 4.69 4.76 4.69 4.75 4.68L4.75 4.66C4.74 4.66 4.74 4.65 4.74 4.64C4.72 4.59 4.68 4.52 4.64 4.43C4.73 4.46 4.81 4.49 4.89 4.51C4.9 4.51 4.92 4.51 4.94 4.52L4.96 4.52L4.97 4.52L4.98 4.52L5 4.52L5.01 4.52C5.02 4.52 5.02 4.51 5.02 4.51L5.03 4.51L5.04 4.5L5.04 4.5L5.01 4.53L4.99 4.54C4.98 4.56 5.09 4.46 5.04 4.5L5.04 4.5L5.05 4.51L5.06 4.51C5.22 4.57 5.38 4.64 5.54 4.73C5.85 4.89 6.14 5.11 6.39 5.39C6.45 5.48 6.52 5.57 6.58 5.66C6.65 5.75 6.71 5.84 6.78 5.93C6.84 6.02 6.91 6.11 6.98 6.19L7.07 6.32L7.17 6.45C7.3 6.62 7.44 6.78 7.57 6.95C7.63 7.03 7.7 7.11 7.77 7.19C7.83 7.27 7.9 7.35 7.97 7.42C8.1 7.58 8.24 7.73 8.37 7.88C8.44 7.96 8.51 8.03 8.58 8.1C8.61 8.14 8.64 8.18 8.68 8.21L8.78 8.32L8.89 8.42L8.94 8.48L8.99 8.53L9.2 8.73C9.27 8.8 9.34 8.86 9.41 8.93C9.45 8.96 9.48 9 9.52 9.03L9.62 9.12C9.51 9.26 9.3 9.52 9.19 9.66C9.26 9.7 9.32 9.74 9.39 9.78C9.46 9.84 9.54 9.89 9.61 9.93C9.76 10.03 9.91 10.13 10.06 10.23C10.35 10.44 10.64 10.64 10.92 10.85C11.49 11.27 12.03 11.69 12.57 12.12C12.7 12.22 12.84 12.33 12.97 12.44L13.15 12.58C13.21 12.63 13.27 12.67 13.33 12.72C13.57 12.91 13.83 13.1 14.11 13.3C14.4 13.52 14.69 13.73 14.99 13.95L15.22 14.12L15.34 14.21L15.46 14.3C15.54 14.36 15.62 14.42 15.7 14.48C15.78 14.55 15.86 14.61 15.94 14.67L15.96 14.69C15.96 14.69 15.96 14.69 15.96 14.7L15.98 14.71C15.98 14.71 15.99 14.72 16 14.73L16.04 14.75L16.07 14.78L16.16 14.84C16.29 14.93 16.44 15.04 16.6 15.16L16.66 15.21L16.73 15.26C16.77 15.3 16.82 15.33 16.86 15.37C16.88 15.39 16.91 15.41 16.93 15.43L17.01 15.49L17.08 15.56L17.12 15.6L17.16 15.63L17.24 15.71C17.27 15.74 17.3 15.77 17.33 15.8C17.38 15.85 17.44 15.92 17.5 15.99C17.52 16 17.53 16.02 17.55 16.04L17.6 16.1L17.65 16.16L17.66 16.17L17.67 16.19L17.7 16.22C17.73 16.27 17.77 16.31 17.8 16.36C17.83 16.41 17.87 16.47 17.9 16.52L17.93 16.56L17.94 16.58L17.96 16.61C17.98 16.64 18 16.67 18.02 16.7C18.03 16.74 18.05 16.77 18.07 16.8L18.08 16.83L18.1 16.85L18.13 16.91C18.14 16.95 18.16 16.99 18.18 17.03L18.21 17.09L18.22 17.12L18.23 17.15C18.27 17.24 18.3 17.33 18.33 17.43L18.34 17.46L18.35 17.48L18.35 17.51L18.37 17.59C18.39 17.64 18.4 17.7 18.41 17.75L18.43 17.84L18.43 17.88L18.44 17.92C18.45 17.99 18.46 18.05 18.46 18.11C18.47 18.17 18.47 18.23 18.48 18.3C18.48 18.36 18.48 18.43 18.48 18.5C18.47 18.63 18.46 18.76 18.44 18.89C18.43 18.96 18.42 19.03 18.41 19.1C18.39 19.16 18.38 19.23 18.36 19.29C18.33 19.41 18.28 19.54 18.24 19.66C18.23 19.69 18.21 19.72 18.2 19.74C18.19 19.77 18.18 19.8 18.17 19.82C18.14 19.88 18.12 19.93 18.09 19.98C18.07 20.01 18.06 20.04 18.04 20.06C18.04 20.08 18.03 20.09 18.02 20.1L18 20.14C17.98 20.18 17.95 20.22 17.92 20.27C17.89 20.31 17.86 20.35 17.83 20.4L17.81 20.43L17.79 20.44L17.79 20.46L17.76 20.49C17.72 20.54 17.68 20.59 17.64 20.64C17.6 20.68 17.56 20.72 17.53 20.76C17.51 20.79 17.49 20.8 17.47 20.82L17.42 20.88C17.4 20.9 17.38 20.92 17.36 20.94L17.31 20.99C17.27 21.02 17.24 21.05 17.2 21.08C17.17 21.11 17.14 21.14 17.11 21.16L17.01 21.24C16.9 21.33 16.79 21.4 16.71 21.46L16.54 21.58C16.52 21.59 16.51 21.6 16.49 21.61C16.45 21.64 16.41 21.68 16.38 21.71C16.37 21.73 16.35 21.75 16.34 21.77C16.33 21.78 16.32 21.79 16.32 21.8L16.3 21.81L16.29 21.84C16.18 21.98 16.03 22.21 15.82 22.52L15.74 22.64L15.65 22.76C15.59 22.84 15.54 22.92 15.48 23C15.37 23.16 15.26 23.31 15.15 23.46C14.93 23.76 14.73 24.04 14.54 24.32C14.74 24.24 14.76 24.42 14.81 24.53C14.8 24.53 14.79 24.54 14.79 24.55C14.79 24.54 14.8 24.53 14.81 24.53C14.84 24.57 14.86 24.6 14.92 24.59C14.94 24.59 14.98 24.57 15.02 24.54C15.04 24.53 15.06 24.51 15.09 24.48C15.11 24.46 15.14 24.43 15.17 24.4C15.14 24.43 15.11 24.46 15.09 24.48C15.06 24.51 15.04 24.53 15.02 24.54C14.98 24.57 14.94 24.59 14.92 24.59C14.86 24.61 14.84 24.57 14.81 24.53C15.03 24.28 15.26 24.02 15.5 23.74L15.59 23.63L15.69 23.52C15.75 23.44 15.81 23.37 15.87 23.29L15.96 23.18L16.01 23.12L16.06 23.06C16.12 22.97 16.18 22.89 16.24 22.82C16.34 22.69 16.43 22.56 16.52 22.44C16.6 22.33 16.66 22.25 16.71 22.19C16.72 22.18 16.73 22.17 16.73 22.16C16.74 22.16 16.74 22.15 16.75 22.15C16.75 22.14 16.75 22.14 16.76 22.13C16.76 22.13 16.77 22.12 16.77 22.12C16.79 22.1 16.81 22.08 16.83 22.06C16.84 22.06 16.85 22.05 16.86 22.04L17.03 21.93C17.12 21.86 17.23 21.78 17.36 21.68L17.47 21.59L17.49 21.57L17.52 21.55L17.58 21.5C17.61 21.47 17.65 21.43 17.69 21.39L17.75 21.34C17.77 21.32 17.8 21.3 17.82 21.28L17.88 21.21C17.9 21.19 17.92 21.17 17.94 21.14C17.98 21.1 18.03 21.05 18.07 21C18.11 20.95 18.16 20.89 18.2 20.84L18.23 20.8L18.26 20.76L18.28 20.73C18.32 20.68 18.35 20.63 18.39 20.58C18.42 20.53 18.45 20.47 18.48 20.42L18.51 20.38C18.51 20.37 18.52 20.36 18.53 20.34C18.55 20.31 18.56 20.28 18.58 20.25C18.61 20.19 18.64 20.13 18.67 20.06C18.68 20.03 18.7 20 18.71 19.97L18.73 19.92C18.74 19.91 18.75 19.89 18.76 19.87C18.81 19.73 18.86 19.59 18.9 19.44C18.92 19.37 18.94 19.29 18.95 19.21C18.96 19.13 18.98 19.05 18.99 18.98C19.01 18.82 19.02 18.66 19.03 18.51C19.03 18.43 19.03 18.35 19.02 18.28C19.02 18.21 19.01 18.13 19.01 18.06C19 17.99 18.99 17.91 18.98 17.84L18.97 17.79L18.96 17.74C18.96 17.71 18.95 17.68 18.94 17.64C18.93 17.58 18.92 17.51 18.9 17.45C18.89 17.42 18.88 17.39 18.87 17.36L18.87 17.33L18.86 17.31L18.85 17.27C18.81 17.16 18.77 17.05 18.73 16.95L18.72 16.91L18.7 16.88L18.67 16.81C18.65 16.76 18.63 16.72 18.61 16.67L18.58 16.6L18.56 16.57L18.54 16.54C18.52 16.51 18.5 16.47 18.48 16.43C18.46 16.39 18.44 16.36 18.42 16.32L18.4 16.3L18.39 16.27L18.36 16.22C18.31 16.16 18.27 16.1 18.23 16.04C18.19 15.99 18.15 15.94 18.11 15.89L18.08 15.85L18.07 15.83L18.06 15.81L18 15.75L17.95 15.69C17.93 15.66 17.91 15.64 17.89 15.63C17.82 15.55 17.75 15.48 17.69 15.42L17.64 15.37C17.62 15.35 17.61 15.33 17.59 15.32L17.5 15.24L17.46 15.2L17.42 15.16L17.33 15.09L17.26 15.02C17.23 15 17.2 14.98 17.18 14.96C17.13 14.92 17.08 14.88 17.03 14.85L16.96 14.79L16.89 14.74C16.71 14.61 16.56 14.51 16.43 14.42L16.26 14.31L16.24 14.29L16.23 14.28C16.23 14.28 16.23 14.28 16.22 14.28L16.21 14.27C16.13 14.21 16.05 14.15 15.97 14.1C15.89 14.04 15.8 13.98 15.72 13.92L15.6 13.84L15.48 13.75L15.24 13.59C14.95 13.39 14.65 13.19 14.35 12.99C14.08 12.8 13.82 12.62 13.58 12.45L13.53 12.41L13.49 12.38L13.4 12.31C13.35 12.27 13.29 12.23 13.24 12.19C13.11 12.09 12.98 11.98 12.85 11.88C12.33 11.47 11.81 11.04 11.29 10.6C11.03 10.37 10.78 10.15 10.51 9.92C10.39 9.81 10.25 9.69 10.12 9.58C10.06 9.52 10 9.46 9.93 9.4L9.83 9.31L9.78 9.27L9.74 9.23L9.78 9.27L9.83 9.31L9.93 9.4L10.13 9.56C10.26 9.67 10.39 9.78 10.52 9.89C10.79 10.11 11.05 10.33 11.32 10.54C11.84 10.96 12.37 11.37 12.9 11.77C13.04 11.87 13.17 11.97 13.3 12.06L13.47 12.19L13.56 12.25C13.59 12.27 13.62 12.29 13.65 12.31C13.89 12.47 14.16 12.65 14.44 12.83C14.72 13.01 15.03 13.2 15.35 13.41L15.59 13.56L15.72 13.65L15.84 13.73C15.93 13.78 16.01 13.84 16.1 13.9C16.18 13.96 16.26 14.02 16.35 14.07L16.56 14.21C16.7 14.3 16.86 14.4 17.04 14.54L17.11 14.59L17.19 14.64C17.24 14.68 17.29 14.72 17.34 14.76C17.37 14.78 17.4 14.8 17.42 14.83L17.51 14.89L17.6 14.97L17.64 15L17.69 15.05L17.78 15.13C17.81 15.16 17.85 15.2 17.88 15.23L17.93 15.28L17.96 15.31L17.98 15.34C18.02 15.38 18.06 15.41 18.09 15.45L18.12 15.48L18.15 15.52L18.21 15.58L18.26 15.65L18.28 15.67L18.3 15.69L18.33 15.73C18.37 15.79 18.41 15.84 18.45 15.89C18.5 15.96 18.54 16.02 18.58 16.09C18.62 16.15 18.67 16.23 18.72 16.31C18.74 16.35 18.77 16.39 18.79 16.43L18.8 16.46L18.82 16.5L18.86 16.57C18.88 16.62 18.9 16.66 18.92 16.71L18.95 16.78L18.97 16.82L18.99 16.86C19.03 16.97 19.07 17.09 19.11 17.21L19.12 17.25L19.14 17.3C19.15 17.34 19.16 17.37 19.16 17.4C19.18 17.47 19.2 17.54 19.21 17.61C19.22 17.64 19.22 17.68 19.23 17.71C19.23 17.73 19.23 17.75 19.24 17.77L19.25 17.82C19.26 17.9 19.27 17.98 19.27 18.06C19.28 18.13 19.29 18.21 19.29 18.29C19.29 18.37 19.29 18.45 19.29 18.54C19.28 18.7 19.27 18.87 19.24 19.04C19.23 19.12 19.22 19.2 19.2 19.28C19.19 19.33 19.18 19.37 19.17 19.41C19.17 19.45 19.16 19.49 19.14 19.52C19.1 19.68 19.05 19.83 18.99 19.98C18.94 20.12 18.87 20.25 18.8 20.38C18.79 20.42 18.77 20.45 18.75 20.48C18.74 20.5 18.73 20.51 18.72 20.53L18.7 20.57C18.67 20.62 18.63 20.68 18.6 20.73C18.56 20.78 18.53 20.84 18.49 20.89C18.44 20.95 18.43 20.97 18.41 21L18.34 21.09L18.3 21.13C18.29 21.14 18.28 21.16 18.27 21.17C18.22 21.22 18.18 21.27 18.13 21.33L18.11 21.35L18.1 21.36L18.06 21.4L18 21.46L17.96 21.5L17.93 21.53L17.87 21.59L17.81 21.64L17.78 21.67L17.75 21.7L17.69 21.75C17.67 21.76 17.65 21.78 17.63 21.79L17.52 21.88C17.39 21.99 17.27 22.07 17.18 22.14L17.06 22.22L17.02 22.25C17.02 22.25 17.02 22.25 17.02 22.26C17.01 22.26 17 22.27 17 22.27C16.98 22.29 16.96 22.31 16.94 22.34L16.94 22.34L16.93 22.35L16.92 22.36L16.92 22.37L16.91 22.38L16.88 22.42L16.84 22.47L16.8 22.52L16.76 22.58L16.65 22.72L16.53 22.89L16.46 22.98L16.39 23.07L16.35 23.12L16.31 23.18L16.23 23.28L16.06 23.48C15.85 23.74 15.64 23.98 15.44 24.2C15.04 24.65 14.68 25.03 14.37 25.37C14.3 25.46 14.22 25.54 14.15 25.62C14.12 25.66 14.09 25.7 14.05 25.74L13.93 25.88C13.75 26.09 13.57 26.3 13.38 26.51C12.64 27.36 11.82 28.23 10.9 29.07L10.73 29.22L10.56 29.38C10.45 29.47 10.35 29.56 10.25 29.65C10.06 29.82 9.87 29.99 9.67 30.16C9.29 30.49 8.92 30.83 8.55 31.17C8.43 31.28 8.26 31.44 8.08 31.61C7.91 31.78 7.74 31.94 7.62 32.05C7.3 32.19 7 32.34 6.72 32.5C6.58 32.59 6.44 32.67 6.31 32.76L6.21 32.83C6.2 32.85 6.18 32.86 6.16 32.87L6.11 32.91L6.06 32.95L6 32.99L5.89 33.08C5.82 33.14 5.74 33.21 5.66 33.28L5.4 33.51C5.22 33.66 5.03 33.82 4.82 34C4.6 34.17 4.37 34.35 4.1 34.53L4 34.6L3.9 34.66C3.84 34.7 3.77 34.74 3.7 34.78C3.57 34.86 3.43 34.94 3.29 35C3.31 34.88 3.28 34.76 3.22 34.64C3.16 34.53 3.07 34.42 2.98 34.31C2.88 34.2 2.78 34.09 2.7 33.98C2.62 33.87 2.54 33.76 2.5 33.64C2.46 33.53 2.44 33.41 2.47 33.28C2.49 33.16 2.55 33.03 2.66 32.89C2.69 32.85 2.72 32.81 2.75 32.78C2.78 32.74 2.82 32.7 2.86 32.66C2.94 32.58 3.03 32.49 3.13 32.39C3.33 32.21 3.58 31.99 3.87 31.74C3.74 31.63 3.49 31.39 3.37 31.27C3.04 31.46 2.7 31.6 2.38 31.66C2.22 31.69 2.07 31.7 1.93 31.7C1.78 31.69 1.64 31.67 1.51 31.63C1.25 31.56 1.03 31.43 0.86 31.27C0.69 31.11 0.56 30.93 0.47 30.75C0.35 30.58 0.28 30.4 0.25 30.21C0.24 30.17 0.24 30.12 0.24 30.07C0.24 30.05 0.24 30.03 0.24 30.01C0.24 29.99 0.25 29.98 0.25 29.97C0.24 29.96 0.24 29.95 0.24 29.94C0.23 29.85 0.22 29.77 0.22 29.69C0.21 29.53 0.2 29.37 0.19 29.24C0.18 29.17 0.17 29.1 0.17 29.04C0.16 29.01 0.16 28.98 0.15 28.96C0.15 28.94 0.14 28.93 0.14 28.92C0.14 28.92 0.14 28.91 0.13 28.9L0.13 28.89L0.13 28.88C0.13 28.88 0.13 28.87 0.13 28.86L0.14 28.84C0.14 28.83 0.14 28.82 0.14 28.81C0.15 28.81 0.15 28.8 0.15 28.79C0.17 28.75 0.19 28.71 0.21 28.66C0.24 28.61 0.27 28.56 0.3 28.5C0.34 28.44 0.38 28.38 0.43 28.31C0.48 28.24 0.53 28.17 0.6 28.08C0.61 28.06 0.63 28.04 0.64 28.02C0.66 28 0.68 27.97 0.7 27.95C0.71 27.93 0.73 27.9 0.75 27.88C0.77 27.86 0.79 27.83 0.81 27.81C0.97 27.61 1.14 27.42 1.3 27.23C1.98 26.46 2.75 25.74 3.53 25.06C3.93 24.72 4.32 24.38 4.72 24.05C4.91 23.89 5.11 23.73 5.31 23.56L5.43 23.46C5.47 23.42 5.51 23.39 5.55 23.36C5.63 23.29 5.71 23.22 5.78 23.15C6.4 22.6 6.99 21.96 7.52 21.24C7.67 21.05 7.82 20.86 7.97 20.66C8.01 20.61 8.04 20.57 8.09 20.5C8.14 20.44 8.19 20.38 8.24 20.32C8.34 20.2 8.44 20.08 8.54 19.97C8.92 19.52 9.26 19.13 9.54 18.8C9.68 18.63 9.8 18.48 9.91 18.34L9.99 18.23L10.06 18.14L10.26 17.88C10.33 17.78 10.43 17.65 10.54 17.51L10.63 17.4L10.73 17.29L10.75 17.26L10.78 17.23L10.83 17.16L10.89 17.09L10.96 17.02C11.3 16.63 11.69 16.28 12.1 15.97C12.18 15.92 12.26 15.86 12.33 15.81L12.45 15.73L12.51 15.7L12.53 15.68L12.54 15.67L12.57 15.66L12.58 15.65L12.58 15.65L12.58 15.65L12.59 15.64L12.6 15.64C12.6 15.64 12.6 15.64 12.6 15.64L12.61 15.64L12.63 15.67L12.7 15.76L12.83 15.94L12.86 15.98L12.87 16L12.91 16.05L13.05 16.25C13.15 16.39 13.25 16.52 13.35 16.65L13.37 16.67L13.38 16.69L13.41 16.72L13.46 16.79L13.55 16.91L13.65 17.04L13.7 17.1L13.72 17.13L13.74 17.15C13.79 17.21 13.83 17.26 13.88 17.32L13.95 17.4L13.97 17.43L13.98 17.44L14.01 17.47C14.05 17.51 14.08 17.56 14.12 17.6L14.15 17.63L14.16 17.64C14.17 17.65 14.17 17.65 14.17 17.65L14.21 17.7C14.24 17.73 14.27 17.76 14.3 17.79C14.32 17.8 14.32 17.81 14.34 17.83L14.37 17.86L14.41 17.89L14.42 17.91C14.43 17.91 14.43 17.92 14.44 17.92C14.46 17.94 14.48 17.96 14.5 17.97C14.51 17.99 14.54 18.01 14.55 18.02C14.56 18.03 14.58 18.04 14.59 18.05L14.61 18.06L14.61 18.07L14.96 18.33L14.96 18.33C14.96 18.33 14.97 18.34 14.98 18.34C15 18.36 15.04 18.38 15.05 18.39C15.06 18.39 15.08 18.4 15.08 18.4C15.09 18.41 15.09 18.41 15.09 18.41C15.1 18.41 15.1 18.41 15.1 18.41C15.1 18.41 15.11 18.41 15.11 18.41L15.12 18.41L15.12 18.41L15.12 18.41L15.12 18.41L15.12 18.41C15.11 18.41 15.11 18.41 15.11 18.41C15.11 18.41 15.1 18.41 15.1 18.41C15.09 18.41 15.09 18.41 15.08 18.41C15.08 18.41 15.07 18.41 15.07 18.42C15.07 18.42 15.06 18.42 15.06 18.42C15.04 18.42 15.03 18.42 15.02 18.43C15.01 18.43 15 18.43 15 18.44C14.99 18.44 14.98 18.44 14.97 18.44C14.83 18.49 14.63 18.6 14.39 18.78C14.15 18.97 13.88 19.23 13.57 19.56C13.52 19.6 13.49 19.65 13.45 19.69L13.42 19.72L13.4 19.74L13.39 19.76L13.32 19.83C13.28 19.88 13.24 19.93 13.2 19.98L13.13 20.05L13.12 20.07L13.1 20.09L13.07 20.13C13.02 20.19 12.97 20.24 12.93 20.3L12.86 20.38L12.83 20.43C12.82 20.44 12.81 20.46 12.79 20.47C12.74 20.54 12.69 20.6 12.64 20.67L12.56 20.76L12.52 20.81L12.5 20.84L12.5 20.84C12.51 20.82 12.48 20.77 12.4 20.7C12.35 20.66 12.3 20.62 12.24 20.56L12.18 20.51L12.1 20.46C12.04 20.41 11.98 20.37 11.92 20.32C11.85 20.26 11.78 20.19 11.71 20.13C11.67 20.1 11.64 20.07 11.6 20.04L11.49 19.94C11.33 19.82 11.17 19.69 11 19.56C10.82 19.43 10.64 19.29 10.44 19.15C10.24 19.01 10.04 18.86 9.84 18.71C9.63 18.56 9.41 18.4 9.19 18.23L9.02 18.1L8.87 17.99C8.78 17.91 8.68 17.83 8.58 17.76C8.2 17.45 7.82 17.14 7.44 16.83C7.07 16.52 6.7 16.2 6.34 15.88C6.16 15.73 5.98 15.57 5.8 15.41C5.72 15.32 5.63 15.25 5.54 15.16C5.45 15.08 5.37 15 5.28 14.92C4.88 14.55 4.51 14.17 4.16 13.78C4.07 13.69 3.99 13.59 3.91 13.49C3.87 13.44 3.82 13.39 3.78 13.34C3.74 13.29 3.7 13.24 3.66 13.19C3.58 13.09 3.5 13 3.42 12.9C3.35 12.8 3.27 12.69 3.2 12.59C3.14 12.52 3.07 12.44 3 12.36C2.93 12.28 2.86 12.2 2.78 12.12C2.63 11.96 2.46 11.79 2.29 11.62C1.95 11.29 1.6 10.94 1.27 10.6C1.19 10.52 1.11 10.44 1.04 10.35C0.96 10.27 0.88 10.19 0.81 10.11C0.67 9.95 0.55 9.79 0.44 9.64C0.33 9.5 0.24 9.35 0.17 9.22C0.11 9.09 0.07 8.97 0.06 8.86C0.05 8.79 0.04 8.73 0.03 8.67C0.03 8.66 0.03 8.65 0.03 8.64C0.03 8.64 0.03 8.64 0.03 8.63C0.02 8.63 0.02 8.62 0.02 8.62C0.02 8.6 0.01 8.58 0.01 8.56C0 8.55 0 8.54 0 8.53C0 8.52 0 8.52 0 8.51C0 8.49 0 8.47 0 8.46C-0.01 8.33 0.02 8.24 0.07 8.16C0.17 8 0.33 7.9 0.52 7.81C0.57 7.87 0.62 7.94 0.68 8.02L0.83 8.2L1.1 8.55C1.29 8.78 1.48 9.01 1.67 9.23C2.05 9.69 2.44 10.15 2.84 10.61C3.64 11.51 4.5 12.4 5.43 13.24L5.64 13.44L5.74 13.54L5.85 13.63L6.06 13.83L6.27 14.01L7.06 14.73C7.6 15.21 8.14 15.69 8.69 16.17C8.96 16.41 9.24 16.64 9.51 16.88L9.72 17.06L9.95 17.25C10.1 17.38 10.26 17.5 10.41 17.62L11.28 18.31C11.55 18.53 11.82 18.74 12.06 18.95C11.6 18.51 11.06 18.07 10.47 17.58C10.4 17.52 10.33 17.46 10.25 17.4C10.18 17.34 10.1 17.28 10.03 17.21C9.96 17.15 9.88 17.08 9.8 17.02C9.73 16.96 9.66 16.9 9.59 16.84C9.32 16.6 9.05 16.36 8.77 16.13C8.22 15.65 7.68 15.18 7.13 14.71C6.85 14.47 6.58 14.24 6.3 14L6.09 13.82L5.87 13.63L5.76 13.53L5.65 13.44L5.43 13.24C4.53 12.37 3.72 11.46 2.97 10.53C2.59 10.06 2.23 9.59 1.88 9.12C1.7 8.89 1.53 8.65 1.36 8.41C1.27 8.3 1.19 8.18 1.11 8.06L0.98 7.88L0.9 7.77C0.88 7.74 0.85 7.7 0.83 7.67C1 7.6 1.17 7.52 1.32 7.42C1.47 7.32 1.59 7.2 1.68 7.04C1.68 7.04 1.57 6.9 1.44 6.72C1.37 6.64 1.3 6.55 1.23 6.47C1.16 6.39 1.09 6.32 1.04 6.26C1 6.08 0.97 5.91 0.94 5.75C0.9 5.58 0.86 5.43 0.81 5.28C0.71 4.98 0.6 4.71 0.63 4.45C0.65 4.32 0.7 4.2 0.8 4.09C0.85 4.03 0.91 3.98 0.98 3.93C1.02 3.91 1.05 3.88 1.1 3.86C1.14 3.84 1.18 3.82 1.22 3.8C1.25 3.8 1.27 3.79 1.29 3.78C1.32 3.77 1.34 3.76 1.37 3.75C1.41 3.74 1.47 3.73 1.52 3.72C1.57 3.7 1.62 3.7 1.68 3.69C1.74 3.68 1.79 3.68 1.85 3.67C2.08 3.66 2.32 3.68 2.55 3.71C3.01 3.83 3.43 3.97 3.83 4.13Z" fill="#DADADA" fill-opacity="1.000000" fill-rule="nonzero"/>
</svg>
