<svg width="169" height="199" viewBox="0 0 169 199" fill="none" xmlns="http://www.w3.org/2000/svg">
<path d="M128.992 47.0673C129.343 49.8247 129.707 52.596 130.099 55.3395C130.922 60.8891 131.834 66.4594 132.779 72.0504C133.724 77.6484 134.696 83.2257 135.736 88.7752C136.769 94.3316 137.883 99.8604 139.105 105.368C140.32 110.876 141.67 116.35 143.162 121.795L143.439 122.814L143.729 123.832C143.925 124.511 144.114 125.19 144.31 125.869C144.708 127.227 145.113 128.585 145.532 129.936C146.369 132.652 147.246 135.361 148.165 138.083C149.076 140.799 150.035 143.522 151.013 146.252C151.506 147.617 152.006 148.981 152.512 150.346L152.701 150.859L152.89 151.365C153.012 151.697 153.14 152.03 153.262 152.362C153.39 152.695 153.518 153.028 153.646 153.36C153.775 153.693 153.903 154.025 154.038 154.365C154.558 155.702 155.105 157.06 155.658 158.418C156.225 159.817 156.799 161.217 157.366 162.616C158.257 164.799 159.142 167.009 159.979 169.205C160.384 170.3 160.789 171.401 161.194 172.503L161.498 173.327L161.646 173.736C161.7 173.875 161.741 174.006 161.788 174.145C161.97 174.692 162.146 175.233 162.328 175.78C162.429 176.057 162.49 176.32 162.558 176.584L162.767 177.38L162.976 178.177C162.997 178.246 163.003 178.309 163.017 178.371L163.051 178.558L163.118 178.939L163.253 179.694L163.321 180.075C163.341 180.2 163.368 180.332 163.381 180.45C163.449 180.934 163.503 181.392 163.543 181.842C163.631 182.743 163.658 183.588 163.645 184.406C163.631 185.23 163.564 186.02 163.429 186.81C163.294 187.599 163.098 188.382 162.76 189.186C162.591 189.588 162.375 189.99 162.112 190.392C161.977 190.586 161.829 190.78 161.673 190.967C161.511 191.154 161.343 191.327 161.16 191.493C160.796 191.819 160.411 192.089 160.026 192.304C159.641 192.518 159.256 192.678 158.878 192.809C158.122 193.066 157.386 193.197 156.644 193.288C156.428 193.308 156.212 193.322 155.996 193.343L155.672 193.364C155.564 193.371 155.456 193.378 155.341 193.378C154.895 193.391 154.443 193.398 153.964 193.385C153.491 193.378 152.992 193.357 152.458 193.322L152.256 193.308L152.046 193.294L151.628 193.26L151.209 193.225L150.777 193.17L150.345 193.114L150.129 193.087L149.906 193.045L149.002 192.879C148.691 192.809 148.381 192.733 148.07 192.664L147.84 192.609L147.604 192.539L147.132 192.408L146.659 192.276L146.18 192.124L145.7 191.971L145.457 191.895L145.214 191.812C144.89 191.701 144.573 191.59 144.249 191.479C143.932 191.375 143.608 191.271 143.29 191.167C142.014 190.759 140.732 190.35 139.449 189.92C138.166 189.491 136.89 189.054 135.608 188.604C135.29 188.493 134.966 188.382 134.649 188.271L133.812 187.974C133.4 187.821 132.982 187.676 132.57 187.523C131.739 187.218 130.909 186.92 130.079 186.616C121.863 183.54 113.417 180.366 104.83 177.221C100.536 175.648 96.2087 174.089 91.8476 172.551C87.4662 171.006 83.105 169.468 78.7439 168.041C76.5633 167.327 74.3827 166.642 72.2021 165.99C70.0283 165.339 67.8275 164.729 65.6131 164.134C61.1845 162.949 56.695 161.854 52.1854 160.739C49.944 160.184 47.7027 159.623 45.4748 159.076C44.928 158.944 44.3812 158.813 43.8344 158.681C43.2943 158.556 42.7474 158.425 42.2141 158.307C41.674 158.182 41.1407 158.071 40.6074 157.954C40.3441 157.898 40.074 157.843 39.8107 157.787C39.5475 157.732 39.2774 157.676 39.0141 157.628C37.9542 157.413 36.9146 157.24 35.8749 157.074C34.842 156.914 33.8158 156.783 32.8032 156.672C32.5534 156.651 32.2969 156.623 32.0471 156.603L31.6623 156.568L31.2505 156.533C30.7171 156.492 30.2446 156.457 29.853 156.45C29.4614 156.443 29.1374 156.45 28.8673 156.478C28.5973 156.506 28.3678 156.547 28.1315 156.603L27.9695 151.136C27.8952 151.108 27.8817 151.122 27.9492 151.115C28.0167 151.115 28.1652 151.102 28.3678 151.032C28.4285 151.018 28.4825 150.998 28.5365 150.97C28.6041 150.949 28.6716 150.921 28.7323 150.887C28.7593 150.873 28.7998 150.852 28.8403 150.838C28.8741 150.817 28.9146 150.804 28.9484 150.783L29.0024 150.755L29.0294 150.741L29.0631 150.727C29.1036 150.707 29.1441 150.686 29.1846 150.658C29.5087 150.471 29.8665 150.229 30.3053 149.889C30.3998 149.813 30.5281 149.716 30.6429 149.626C30.6969 149.577 30.7576 149.529 30.8116 149.48L30.8521 149.446L30.8994 149.404L30.9939 149.321C31.0547 149.266 31.1222 149.21 31.1829 149.155L31.372 148.981C31.5137 148.857 31.6555 148.725 31.7905 148.6L31.8445 148.656C31.8783 148.691 31.9323 148.739 31.9998 148.801L32.2429 149.023L32.6142 149.356C32.6952 149.432 32.7762 149.501 32.8572 149.577L33.0597 149.771L33.3298 150.028L33.5998 150.277C33.9644 150.61 34.3289 150.935 34.7002 151.24C35.0715 151.545 35.4428 151.843 35.8276 152.127C36.0167 152.272 36.2057 152.404 36.3947 152.543C36.5838 152.674 36.7795 152.813 36.9686 152.938C37.3534 153.194 37.7449 153.436 38.1365 153.665L38.4335 153.831L38.7306 153.998C38.8318 154.053 38.9264 154.101 39.0276 154.157C39.1289 154.205 39.2234 154.261 39.3314 154.316C39.2234 154.261 39.1289 154.205 39.0209 154.157C38.9196 154.101 38.8183 154.053 38.7238 153.991L38.4268 153.824L38.1297 153.651C37.7382 153.416 37.3466 153.166 36.9618 152.903C36.766 152.771 36.577 152.633 36.388 152.501C36.1989 152.362 36.0099 152.224 35.8209 152.078C35.6319 151.94 35.4496 151.787 35.2606 151.635C35.0783 151.483 34.8893 151.33 34.707 151.171C34.3424 150.859 33.9779 150.533 33.6201 150.194L33.35 149.938L33.0867 149.681L32.8707 149.473C32.7897 149.397 32.7087 149.321 32.6344 149.252L32.2834 148.933C32.1888 148.843 32.1146 148.774 32.0538 148.718C31.9931 148.656 31.9458 148.614 31.9121 148.58L31.8918 148.559L31.8783 148.545C31.8715 148.538 31.8715 148.538 31.8715 148.538L31.7028 148.697C31.1222 149.224 30.6699 149.612 30.2446 149.938C30.1905 149.979 30.1433 150.014 30.0893 150.055L30.0083 150.111L29.9408 150.166C29.8462 150.235 29.7517 150.305 29.6505 150.367C29.5627 150.429 29.4817 150.485 29.3872 150.54L29.3197 150.582L29.2589 150.617C29.2184 150.637 29.1779 150.665 29.1374 150.686C28.8201 150.866 28.55 150.984 28.3475 151.046C28.145 151.108 28.0032 151.129 27.9425 151.129C27.8749 151.129 27.8884 151.122 27.9627 151.15L28.1585 156.755C28.3003 156.727 28.4353 156.7 28.5771 156.679C28.7188 156.665 28.8673 156.644 29.0429 156.637C29.2184 156.63 29.4007 156.63 29.6167 156.63C29.8395 156.637 30.0758 156.644 30.3458 156.665L30.7711 156.7L31.2302 156.741L31.7163 156.783L32.1686 156.831C32.4656 156.866 32.7694 156.887 33.0665 156.928C33.3703 156.97 33.6673 156.997 33.9711 157.046C35.1795 157.205 36.4082 157.42 37.6437 157.656C38.8791 157.898 40.128 158.161 41.3905 158.459C43.9154 159.048 46.4807 159.72 49.1204 160.406C51.7533 161.085 54.3862 161.764 57.0258 162.443C62.2646 163.794 67.4427 165.166 72.4992 166.718C77.5759 168.277 82.6527 170.036 87.7902 171.852C90.3624 172.766 92.9345 173.674 95.5066 174.588C98.072 175.503 100.644 176.431 103.21 177.36C108.361 179.223 113.505 181.094 118.656 182.958C121.242 183.886 123.827 184.814 126.406 185.75C127.702 186.214 128.998 186.671 130.288 187.135C131.638 187.613 132.982 188.084 134.332 188.562C136.364 189.269 138.409 189.962 140.455 190.62L141.987 191.112L143.52 191.597L144.289 191.84L145.059 192.103L145.444 192.234C145.572 192.276 145.7 192.318 145.829 192.359L146.598 192.602C146.727 192.643 146.855 192.678 146.983 192.712L147.361 192.816L147.739 192.92L147.928 192.976C147.989 192.99 148.05 193.003 148.117 193.017L148.86 193.184L149.049 193.225L149.143 193.246L149.231 193.26L149.589 193.322L150.311 193.447L151.007 193.537L151.351 193.579C151.466 193.592 151.574 193.599 151.689 193.606L152.35 193.655C152.789 193.682 153.194 193.696 153.592 193.703C153.984 193.71 154.362 193.71 154.727 193.71C155.091 193.703 155.449 193.689 155.793 193.662C156.137 193.634 156.482 193.599 156.826 193.565C157.548 193.468 158.257 193.329 158.986 193.073C159.351 192.948 159.722 192.796 160.094 192.588L160.235 192.512L160.377 192.428C160.472 192.373 160.566 192.311 160.661 192.248C160.85 192.117 161.032 191.978 161.208 191.826C161.565 191.521 161.903 191.161 162.18 190.78C162.456 190.398 162.686 190.004 162.875 189.609C163.246 188.826 163.462 188.05 163.624 187.281C163.78 186.512 163.867 185.736 163.908 184.939C163.948 184.142 163.942 183.318 163.881 182.452C163.854 182.015 163.813 181.572 163.759 181.108C163.732 180.872 163.705 180.644 163.665 180.394L163.537 179.646L163.408 178.898C163.361 178.648 163.334 178.406 163.253 178.135L162.848 176.556C162.814 176.424 162.78 176.293 162.747 176.161L162.612 175.752L162.342 174.935L162.072 174.117L162.004 173.916L161.93 173.708L161.781 173.3C161.383 172.205 160.978 171.103 160.58 170.009C160.478 169.732 160.384 169.461 160.276 169.184L159.959 168.36C159.749 167.805 159.54 167.258 159.324 166.704C158.892 165.602 158.453 164.494 158.008 163.399C157.407 161.896 156.799 160.392 156.198 158.889C155.651 157.531 155.125 156.187 154.605 154.843C154.085 153.506 153.592 152.182 153.106 150.852C152.613 149.487 152.121 148.122 151.641 146.758C150.676 144.028 149.751 141.298 148.853 138.561C147.962 135.832 147.098 133.095 146.281 130.365C145.876 129 145.478 127.629 145.093 126.264C144.992 125.924 144.904 125.578 144.809 125.238L144.526 124.213L144.242 123.188C144.148 122.848 144.053 122.502 143.965 122.162C143.608 120.784 143.243 119.419 142.906 118.033C142.737 117.347 142.568 116.654 142.392 115.968C142.23 115.276 142.068 114.583 141.9 113.897L141.657 112.858L141.42 111.818C141.265 111.126 141.11 110.433 140.954 109.74C140.799 109.047 140.651 108.347 140.502 107.655C140.354 106.962 140.198 106.269 140.057 105.569C138.895 100.006 137.842 94.4148 136.863 88.8098C135.884 83.2049 134.973 77.5861 134.089 71.9673C133.198 66.3485 132.347 60.7851 131.577 55.2703C132.941 59.6766 134.372 64.5333 135.77 69.8888C136.472 72.5701 137.16 75.3691 137.822 78.2789C138.49 81.1819 139.138 84.2026 139.766 87.3203C140.468 91.0823 141.191 94.8235 141.954 98.5301C142.716 102.237 143.52 105.909 144.364 109.553C144.58 110.461 144.789 111.375 145.012 112.276C145.235 113.183 145.457 114.084 145.68 114.985C145.91 115.885 146.139 116.786 146.369 117.68L146.544 118.352L146.727 119.024L147.084 120.361C147.206 120.804 147.321 121.255 147.449 121.698L147.82 123.028C148.07 123.915 148.313 124.802 148.576 125.689C149.096 127.455 149.63 129.222 150.176 130.989C151.284 134.515 152.451 138.035 153.673 141.548C154.288 143.307 154.909 145.06 155.543 146.813C155.861 147.693 156.185 148.566 156.502 149.446L156.968 150.707C157.123 151.122 157.285 151.545 157.447 151.968C158.095 153.651 158.777 155.362 159.479 157.101C160.384 159.339 161.295 161.57 162.2 163.808C162.537 164.653 162.875 165.505 163.213 166.351C163.537 167.196 163.861 168.041 164.185 168.893C164.266 169.108 164.34 169.316 164.421 169.524L164.651 170.154L165.11 171.422L166.028 173.944L166.257 174.574C166.332 174.782 166.392 174.99 166.46 175.198L166.858 176.445L167.054 177.069C167.088 177.172 167.121 177.276 167.148 177.38L167.216 177.678L167.493 178.877L167.628 179.473L167.695 179.771L167.729 179.923L167.736 179.958L167.742 179.992L167.749 180.062L167.891 181.177L168.033 182.292C168.046 182.389 168.053 182.473 168.053 182.563L168.067 182.826C168.073 182.999 168.08 183.165 168.087 183.332C167.526 183.068 166.426 182.556 165.879 182.299C166.014 183.893 165.98 185.292 165.805 186.623C165.717 187.288 165.589 187.932 165.42 188.569C165.245 189.207 165.029 189.844 164.732 190.489C164.583 190.814 164.407 191.14 164.212 191.465C164.11 191.632 164.009 191.791 163.894 191.957C163.78 192.124 163.658 192.283 163.53 192.442C163.273 192.761 162.99 193.066 162.693 193.343C162.396 193.62 162.092 193.869 161.788 194.084C161.187 194.514 160.6 194.819 160.033 195.075C159.466 195.324 158.905 195.518 158.332 195.678C157.981 195.761 157.636 195.851 157.285 195.927C156.927 196.003 156.563 196.066 156.178 196.121C155.793 196.177 155.402 196.218 154.976 196.246L154.659 196.267L154.328 196.281L153.984 196.294C153.923 196.294 153.869 196.301 153.808 196.301L153.626 196.301L152.897 196.294L152.715 196.294C152.654 196.294 152.586 196.287 152.526 196.281L152.141 196.253L151.756 196.225C151.628 196.211 151.506 196.211 151.365 196.19L150.561 196.08L150.359 196.052C150.291 196.045 150.224 196.038 150.156 196.017L149.738 195.934L148.9 195.768L148.043 195.546L147.611 195.435C147.469 195.394 147.321 195.345 147.172 195.304L146.295 195.033C146.004 194.943 145.707 194.839 145.417 194.742C144.83 194.535 144.249 194.368 143.668 194.188C143.088 194.015 142.507 193.842 141.927 193.662C141.346 193.482 140.765 193.308 140.178 193.121C137.849 192.394 135.513 191.618 133.184 190.828C132.516 190.599 131.841 190.371 131.172 190.142C130.517 189.92 129.856 189.692 129.201 189.47C127.891 189.02 126.582 188.562 125.272 188.112C122.659 187.205 120.053 186.283 117.461 185.362C112.276 183.519 107.125 181.655 102.001 179.812C99.4425 178.891 96.8838 177.969 94.3319 177.055C91.7733 176.14 89.2214 175.226 86.6695 174.318C81.5793 172.503 76.5768 170.743 71.6013 169.191C66.646 167.639 61.549 166.26 56.3507 164.889C53.7313 164.196 51.1119 163.51 48.4858 162.817C45.8529 162.117 43.3213 161.438 40.8436 160.85C39.6082 160.552 38.393 160.288 37.1914 160.053C35.9964 159.817 34.8082 159.609 33.6471 159.443C33.3568 159.402 33.0665 159.367 32.7762 159.332C32.4859 159.291 32.2023 159.263 31.9188 159.235L31.4867 159.187L31.0074 159.138L30.5619 159.097L30.1703 159.062C29.9273 159.041 29.7247 159.034 29.5492 159.027C29.3737 159.02 29.2454 159.02 29.1374 159.027C29.0294 159.027 28.9551 159.041 28.8808 159.041C28.8133 159.048 28.7526 159.062 28.6851 159.069L27.9222 151.129C27.8547 151.102 27.8344 151.108 27.8817 151.108C27.8952 151.108 27.9155 151.108 27.929 151.108C27.956 151.108 27.983 151.108 28.0032 151.102L28.0235 151.102L28.0505 151.102C28.0707 151.102 28.0842 151.095 28.1045 151.095C28.118 151.088 28.1382 151.088 28.1517 151.081C28.172 151.074 28.199 151.074 28.2192 151.067C28.2395 151.06 28.2598 151.053 28.28 151.046L28.3138 151.032L28.3543 151.018C28.4083 151.005 28.4555 150.984 28.5028 150.963C28.6243 150.921 28.7256 150.866 28.8673 150.797C28.9011 150.783 28.9349 150.762 28.9619 150.748C28.9754 150.741 28.9956 150.727 29.0159 150.72L29.0699 150.693C29.1441 150.651 29.2116 150.61 29.2859 150.561C29.4547 150.464 29.5965 150.36 29.7855 150.235C29.826 150.208 29.8732 150.173 29.9138 150.145L29.9813 150.097L30.0555 150.042C30.15 149.972 30.2446 149.896 30.3391 149.827C30.3593 149.806 30.3863 149.785 30.4133 149.764L30.4943 149.702L30.6496 149.577L30.9737 149.3C31.0884 149.203 31.2032 149.106 31.3112 149.002C31.4395 148.891 31.5678 148.774 31.696 148.656L32.1011 148.275L32.3171 148.067L32.4251 147.963C32.4589 147.928 32.4926 147.894 32.5399 147.852C32.7087 147.693 32.8707 147.527 33.0327 147.36L33.5255 146.855C33.5255 146.855 33.5255 146.855 33.5255 146.861L33.5323 146.875C33.5525 146.896 33.5796 146.924 33.6336 146.979L33.7213 147.062L33.8428 147.173L34.2142 147.513C34.2952 147.589 34.3829 147.665 34.4639 147.748L34.6665 147.942L34.8893 148.164C35.193 148.455 35.4968 148.739 35.8006 149.009C36.415 149.557 37.0361 150.048 37.6639 150.513C37.9812 150.741 38.2985 150.963 38.6158 151.164C38.7778 151.268 38.9399 151.365 39.0951 151.469L39.3382 151.614C39.4192 151.663 39.5002 151.711 39.5812 151.753L39.8242 151.891L40.0673 152.023L40.1888 152.092C40.2293 152.113 40.2766 152.134 40.3238 152.162L40.5939 152.3C40.7761 152.39 40.9584 152.487 41.1474 152.57C41.3365 152.653 41.5188 152.744 41.7078 152.827C42.4639 153.159 43.2538 153.471 44.0639 153.755C44.874 154.039 45.7111 154.295 46.5685 154.531C47.4259 154.767 48.3035 154.967 49.2014 155.161C50.9972 155.536 52.8672 155.82 54.7845 156.034C56.7085 156.256 58.6866 156.409 60.7051 156.519C62.7304 156.63 64.7963 156.706 66.9161 156.776C67.9827 156.81 69.0494 156.845 70.1161 156.873C71.1692 156.9 72.2156 156.935 73.2688 156.956C81.6805 157.157 90.1598 157.108 98.6931 156.866C102.96 156.741 107.247 156.575 111.547 156.36C112.62 156.305 113.701 156.249 114.774 156.194C115.854 156.138 116.928 156.076 118.008 156.007L118.818 155.958L119.223 155.937L119.662 155.917L120.56 155.868L121.444 155.834C121.741 155.82 122.025 155.813 122.315 155.799L123.179 155.771C123.746 155.757 124.313 155.743 124.88 155.73C124.495 155.695 124.185 155.66 123.942 155.619C123.692 155.584 123.51 155.543 123.382 155.501C123.125 155.418 123.085 155.335 123.159 155.245C123.233 155.155 123.429 155.064 123.652 154.981C123.868 154.891 124.111 154.808 124.266 154.725C124.482 154.725 124.685 154.725 124.88 154.725C124.685 154.725 124.475 154.725 124.266 154.725C124.556 154.586 124.617 154.462 123.915 154.365C123.739 154.344 123.517 154.323 123.233 154.302C123.091 154.295 122.943 154.282 122.767 154.282C122.592 154.275 122.409 154.268 122.2 154.268C121.998 154.261 121.775 154.261 121.532 154.261C121.289 154.261 121.025 154.261 120.749 154.261C120.472 154.261 120.168 154.268 119.844 154.275C119.682 154.282 119.513 154.282 119.344 154.289C119.52 154.282 119.682 154.282 119.844 154.275C120.168 154.268 120.472 154.261 120.749 154.261C121.025 154.261 121.289 154.261 121.532 154.261C121.775 154.261 121.991 154.268 122.2 154.268C122.403 154.275 122.592 154.282 122.767 154.282C122.943 154.289 123.091 154.295 123.233 154.302C123.517 154.323 123.739 154.337 123.915 154.365C124.61 154.455 124.556 154.579 124.266 154.725L123.415 154.732L122.558 154.739L121.687 154.753L120.803 154.773C120.512 154.78 120.209 154.787 119.905 154.801L119.027 154.829C118.487 154.85 117.954 154.87 117.42 154.891C116.347 154.933 115.274 154.967 114.207 155.009C113.134 155.044 112.067 155.078 111 155.113C106.727 155.252 102.474 155.355 98.234 155.418C89.7615 155.556 81.3497 155.543 73.0122 155.314C71.9726 155.279 70.9262 155.252 69.8865 155.217C68.8266 155.182 67.76 155.148 66.7 155.113C65.6536 155.078 64.614 155.044 63.5946 155.002C62.5752 154.961 61.5693 154.912 60.5701 154.857C59.5777 154.801 58.5988 154.732 57.6267 154.656C56.6613 154.579 55.7094 154.483 54.771 154.379C53.8394 154.268 52.9145 154.15 52.0098 154.011C51.1119 153.873 50.2276 153.713 49.3567 153.533C48.4925 153.353 47.6487 153.152 46.8318 152.938C46.0149 152.716 45.2183 152.473 44.4487 152.21C43.6858 151.94 42.9432 151.649 42.2276 151.337L41.701 151.095L41.566 151.032L41.4377 150.97L41.1812 150.845L40.9247 150.72C40.8774 150.7 40.8436 150.679 40.8031 150.658L40.6884 150.596C40.5399 150.52 40.3846 150.429 40.2361 150.353C39.0344 149.674 37.8597 148.836 36.6985 147.818C36.4082 147.568 36.1179 147.298 35.8344 147.028L35.6184 146.82L35.3888 146.598C35.3011 146.515 35.2133 146.432 35.1255 146.349L34.761 146.023L34.572 145.85L34.5247 145.801L34.5112 145.788L34.5044 145.781C34.5314 145.753 34.4572 145.829 34.3964 145.898L34.0319 146.279L33.7416 146.584L33.4513 146.889L32.918 147.436L32.6749 147.679L32.4319 147.921C32.2901 148.06 32.1551 148.199 32.0133 148.33L31.615 148.704L31.426 148.878L31.3315 148.961C31.2977 148.988 31.264 149.016 31.2437 149.044C31.1357 149.148 31.0209 149.245 30.9062 149.342L30.5889 149.612L30.4336 149.737L30.3526 149.799L30.2851 149.854C30.1905 149.931 30.096 150 30.0015 150.069C29.9475 150.104 29.9138 150.138 29.8665 150.166C29.826 150.201 29.7787 150.229 29.7382 150.256L29.4884 150.423C29.4142 150.471 29.3264 150.526 29.2522 150.568C29.1846 150.61 29.1104 150.658 29.0361 150.693L28.9821 150.72C28.9619 150.727 28.9484 150.741 28.9349 150.748C28.9011 150.769 28.8741 150.783 28.8403 150.797C28.8066 150.811 28.7728 150.831 28.7391 150.845C28.7188 150.852 28.7053 150.859 28.6918 150.866L28.6513 150.887C28.5973 150.914 28.5298 150.935 28.4758 150.956C28.4285 150.977 28.3745 150.998 28.3273 151.011C28.3003 151.018 28.28 151.025 28.2598 151.032C28.2395 151.039 28.2192 151.046 28.199 151.053L28.0842 151.081C28.0505 151.088 28.01 151.095 27.9897 151.095C27.9695 151.102 27.9357 151.102 27.9155 151.102C27.902 151.102 27.8884 151.102 27.8682 151.102C27.8277 151.102 27.8479 151.095 27.9087 151.122L29.0226 160.489C29.0429 160.489 29.0564 160.482 29.0834 160.482C29.1104 160.482 29.1441 160.475 29.2116 160.475C29.2859 160.475 29.3804 160.468 29.5222 160.475C29.5559 160.475 29.6032 160.475 29.637 160.482L29.6977 160.482L29.772 160.489L29.9205 160.496L30.0825 160.503L30.4606 160.531L30.8927 160.565L31.3652 160.607L31.7838 160.649C32.0606 160.676 32.3374 160.697 32.6209 160.739L33.0462 160.787C33.188 160.801 33.3298 160.822 33.4715 160.843L34.3289 160.96L35.193 161.099C35.4833 161.141 35.7736 161.196 36.0639 161.251C36.3542 161.3 36.6513 161.355 36.9483 161.411C38.1297 161.632 39.3314 161.889 40.5534 162.166C43.004 162.727 45.5356 163.385 48.1752 164.064C50.8014 164.736 53.4275 165.408 56.0537 166.08C61.252 167.411 66.3422 168.755 71.2772 170.272C76.2325 171.789 81.235 173.528 86.3185 175.33C88.8704 176.237 91.4223 177.152 93.9809 178.059C96.526 178.974 99.0847 179.895 101.643 180.824C106.774 182.694 111.918 184.572 117.076 186.449C119.669 187.392 122.268 188.327 124.867 189.276C126.17 189.747 127.479 190.211 128.789 190.683C130.112 191.154 131.436 191.625 132.765 192.096C135.23 192.955 137.707 193.793 140.192 194.597C140.813 194.798 141.434 194.992 142.055 195.186C142.676 195.38 143.297 195.567 143.911 195.761C144.532 195.962 145.147 196.142 145.781 196.371C146.092 196.481 146.409 196.592 146.72 196.696L147.658 196.994C147.813 197.043 147.969 197.098 148.124 197.14L148.583 197.264L149.501 197.507L150.392 197.687L150.838 197.777C150.912 197.798 150.986 197.805 151.054 197.812L151.27 197.839L152.127 197.957C152.276 197.978 152.404 197.985 152.539 197.992L152.944 198.02L153.349 198.047C153.417 198.054 153.484 198.054 153.552 198.061L153.748 198.061L154.517 198.061L154.706 198.061C154.767 198.061 154.828 198.054 154.889 198.054C155.01 198.047 155.132 198.04 155.246 198.033C155.368 198.026 155.476 198.013 155.591 198.006L155.928 197.971C156.367 197.923 156.779 197.86 157.177 197.791C157.575 197.715 157.954 197.632 158.318 197.535C158.683 197.431 159.034 197.32 159.391 197.209C160.269 196.904 161.113 196.53 162.011 195.983C162.234 195.844 162.463 195.692 162.699 195.525C162.814 195.442 162.936 195.352 163.051 195.262C163.172 195.165 163.287 195.075 163.408 194.971C163.881 194.569 164.36 194.098 164.786 193.599C165.211 193.1 165.569 192.588 165.872 192.096C166.176 191.597 166.433 191.112 166.656 190.627C167.094 189.657 167.412 188.694 167.648 187.662C167.418 188.687 167.108 189.65 166.676 190.613C166.46 191.098 166.21 191.583 165.906 192.075C165.609 192.567 165.251 193.08 164.833 193.579C164.414 194.077 163.942 194.555 163.462 194.964C163.226 195.172 162.983 195.352 162.753 195.525C162.524 195.699 162.288 195.851 162.065 195.99C161.167 196.551 160.323 196.932 159.432 197.25C159.081 197.361 158.73 197.472 158.372 197.576C158.014 197.673 157.636 197.763 157.245 197.839C156.853 197.916 156.448 197.978 156.016 198.026C155.584 198.075 155.125 198.116 154.619 198.13C152.627 198.193 150.305 197.909 147.82 197.147C147.199 196.953 146.578 196.765 145.957 196.544C145.646 196.44 145.336 196.322 145.025 196.225L144.1 195.934C143.486 195.74 142.865 195.56 142.251 195.366C141.63 195.172 141.015 194.985 140.394 194.784C137.923 193.994 135.446 193.163 132.982 192.318C131.618 191.84 130.254 191.368 128.89 190.89C127.587 190.433 126.284 189.969 124.988 189.512C122.396 188.59 119.804 187.662 117.211 186.74C112.06 184.891 106.916 183.048 101.772 181.205C99.2062 180.29 96.6475 179.376 94.0957 178.475C91.5303 177.574 88.9716 176.681 86.4063 175.78C81.2957 173.999 76.273 172.288 71.3042 170.785C66.3557 169.288 61.252 167.965 56.0267 166.648C53.387 165.99 50.7474 165.325 48.1077 164.667C45.4478 163.995 42.9162 163.351 40.4588 162.796C39.2302 162.519 38.0352 162.27 36.8538 162.055C35.6791 161.84 34.5179 161.646 33.3973 161.508C33.2555 161.487 33.1137 161.473 32.9787 161.459L32.5602 161.411C32.2766 161.376 32.0066 161.355 31.7298 161.328L31.318 161.286L30.8454 161.244L30.4133 161.21L30.042 161.182C29.8192 161.168 29.6437 161.161 29.5087 161.161C29.3804 161.161 29.2994 161.161 29.2454 161.168C29.1981 161.168 29.1846 161.175 29.1779 161.175L29.1711 161.12L29.1644 161.064L29.1644 161.05C29.1644 161.044 29.1644 161.057 29.1644 161.057L29.1711 161.078C29.1779 161.106 29.1846 161.127 29.1914 161.154L27.9155 151.129C27.8277 151.102 27.8209 151.115 27.9087 151.108C27.9965 151.108 28.172 151.081 28.4218 150.991C28.6716 150.901 28.9889 150.748 29.3602 150.513C29.4074 150.485 29.4547 150.45 29.5019 150.423C29.5492 150.388 29.5897 150.36 29.6505 150.326C29.7585 150.256 29.8597 150.18 29.961 150.104C30.0758 150.021 30.1905 149.938 30.3053 149.848C30.3593 149.806 30.4268 149.751 30.4876 149.702C30.5483 149.654 30.6091 149.605 30.6766 149.55C31.1897 149.127 31.7635 148.607 32.4791 147.901C32.6817 147.707 32.8775 147.513 33.0665 147.312L33.3973 146.979L33.7483 146.619L34.545 145.774L34.977 145.31C35.031 145.254 34.9905 145.296 35.004 145.282C35.0108 145.289 35.0445 145.323 35.1188 145.386L35.4496 145.677L35.7399 145.94L35.9019 146.092L36.0909 146.273L36.3475 146.515C36.5162 146.674 36.685 146.834 36.8538 146.979C37.1914 147.284 37.5357 147.575 37.8732 147.845C38.2175 148.115 38.5551 148.379 38.8994 148.621C39.2437 148.864 39.588 149.092 39.9323 149.307C40.2766 149.522 40.6276 149.716 40.9719 149.903L41.2352 150.042L41.539 150.187L41.836 150.332C41.9373 150.381 42.0386 150.423 42.1466 150.471C42.9702 150.845 43.8343 151.185 44.7322 151.496C45.6369 151.808 46.582 152.078 47.5542 152.328C49.512 152.82 51.598 153.194 53.7853 153.464C55.9727 153.741 58.2613 153.921 60.6241 154.053C62.9937 154.185 65.4376 154.261 67.9625 154.344C69.2182 154.386 70.4739 154.42 71.7295 154.462C72.965 154.503 74.2072 154.524 75.4494 154.559C76.6915 154.579 77.9337 154.6 79.1759 154.628L81.0392 154.649C81.6603 154.656 82.2814 154.663 82.9092 154.67C87.8915 154.711 92.8805 154.69 97.8897 154.614C102.899 154.538 107.915 154.42 112.944 154.261C114.2 154.219 115.463 154.178 116.718 154.136L118.609 154.067C119.203 154.046 119.966 154.018 120.661 154.004C122.065 153.97 123.422 153.97 124.732 153.97C126.001 153.977 127.277 153.977 128.546 153.984C129.775 153.984 130.956 153.977 132.097 153.949C133.238 153.921 134.332 153.873 135.371 153.79C135.506 153.783 135.628 153.769 135.756 153.755L136.141 153.72C136.269 153.707 136.391 153.7 136.539 153.686L136.958 153.644C137.484 153.589 137.89 153.533 138.099 153.492L138.173 153.478C138.187 153.478 138.193 153.471 138.2 153.471L138.227 153.464L138.254 153.457L138.268 153.457L138.274 153.457C138.281 153.457 138.295 153.45 138.301 153.45C138.315 153.45 138.315 153.443 138.322 153.443C138.322 153.443 138.328 153.443 138.335 153.443C138.335 153.436 138.342 153.464 138.342 153.471L138.396 153.637L138.484 153.907C138.504 153.97 138.524 154.032 138.544 154.095L138.571 154.171L138.585 154.198C138.585 154.205 138.598 154.226 138.585 154.205C138.578 154.185 138.565 154.164 138.558 154.143L138.544 154.115L138.504 154.032C138.477 153.977 138.45 153.921 138.423 153.873L138.403 153.831L138.369 153.762L138.301 153.63L138.234 153.506C138.227 153.499 138.22 153.478 138.22 153.485L139.334 167.577C139.314 167.598 139.294 167.618 139.28 167.632L139.26 167.66L139.206 167.722C139.165 167.771 139.132 167.819 139.098 167.868L139.084 167.889L139.064 167.916L139.017 167.979C138.99 168.02 138.956 168.062 138.929 168.103C138.902 168.145 138.875 168.187 138.848 168.228L138.828 168.263C138.821 168.27 138.808 168.29 138.801 168.304L138.74 168.401C138.659 168.526 138.578 168.658 138.504 168.789C138.477 168.845 138.409 168.949 138.355 169.039C138.301 169.136 138.247 169.226 138.193 169.323C138.139 169.42 138.092 169.517 138.038 169.607L138.004 169.676C137.998 169.697 137.977 169.732 137.957 169.766L137.842 169.974C137.694 170.251 137.559 170.528 137.424 170.805L137.376 170.909C137.363 170.937 137.336 170.992 137.309 171.041L137.16 171.346L137.012 171.651C136.985 171.699 136.958 171.768 136.965 171.748C136.978 171.755 136.938 171.734 136.911 171.727L136.742 171.658L136.472 171.547L135.635 171.228L135.365 171.124L135.074 171.006L134.764 170.882L134.426 170.743L132.664 169.988C131.544 169.51 130.45 169.053 129.383 168.616C128.85 168.401 128.317 168.187 127.79 167.986L126.095 167.348C123.537 166.378 121.052 165.353 118.642 164.314C116.225 163.268 113.89 162.214 111.594 161.189C109.299 160.164 107.058 159.159 104.85 158.217C104.303 157.988 103.75 157.76 103.203 157.524L102.386 157.191L101.974 157.025C101.839 156.97 101.711 156.921 101.576 156.866C100.523 156.45 99.429 156.034 98.288 155.612C96.0129 154.773 93.5623 153.907 90.9902 152.91C90.3488 152.66 89.694 152.397 89.0391 152.134C88.7151 152.002 88.3775 151.857 88.0467 151.718C87.8847 151.649 87.716 151.573 87.5472 151.503L87.0408 151.282C85.6974 150.686 84.3742 150.062 83.078 149.411C80.4991 148.102 78.0147 146.695 75.6384 145.24C74.4502 144.513 73.2823 143.771 72.1346 143.023C71.5675 142.649 70.9937 142.275 70.4334 141.901L70.008 141.617L69.5827 141.326L68.7321 140.744C64.1954 137.633 59.7127 134.197 55.4528 130.345C54.3929 129.382 53.3398 128.398 52.3069 127.379C52.1786 127.255 52.0503 127.123 51.9153 126.998L51.5238 126.61C51.2672 126.354 51.0039 126.091 50.7541 125.827L49.9913 125.038L49.2419 124.241C47.2639 122.114 45.4006 119.938 43.6318 117.742C42.7474 116.647 41.8833 115.546 41.0462 114.444C40.6209 113.897 40.2091 113.343 39.7972 112.795C39.3854 112.248 38.9804 111.701 38.5753 111.153C38.177 110.606 37.7719 110.059 37.3736 109.511C36.9753 108.957 36.5838 108.41 36.1854 107.856C35.3888 106.754 34.6125 105.632 33.8293 104.516C33.3973 103.906 32.9315 103.214 32.4184 102.458C32.1618 102.084 31.8986 101.689 31.6218 101.288C31.3517 100.886 31.0749 100.463 30.7914 100.034C30.2243 99.1745 29.6235 98.2807 29.0361 97.3523C28.442 96.4239 27.8277 95.4817 27.2336 94.5256C24.837 90.7082 22.5551 86.7937 21.0969 84.1402L20.8471 83.6275C20.7661 83.4543 20.6851 83.2811 20.6041 83.1079L20.1248 82.0756L19.6387 81.0433C19.4767 80.6969 19.3147 80.3574 19.1594 80.011C18.5383 78.6184 17.8969 77.2466 17.3029 75.8402C16.0742 73.055 14.9265 70.2283 13.8058 67.3947L12.989 65.2538C12.8539 64.8936 12.7122 64.5402 12.5839 64.1869L12.1923 63.1061L11.4092 60.9514C11.1594 60.2309 10.9029 59.5103 10.6599 58.7898C9.67421 55.9077 8.76283 53.0255 7.89195 50.1434C6.15693 44.386 4.62445 38.6425 3.18649 32.9406L2.64641 30.8067L2.38312 29.7397L2.31561 29.4765L2.24135 29.1716L2.09282 28.555C1.70801 26.913 1.38397 25.278 1.12068 23.6637C0.594098 20.4421 0.263298 17.3174 8.03417e-06 14.3383C0.74262 15.7794 1.46498 15.3221 2.18059 14.5946C2.8962 13.8672 3.62531 12.8833 4.34766 13.1813C4.52994 13.2575 4.71222 13.4099 4.89449 13.6732C5.07677 13.9364 5.2658 14.3037 5.44808 14.7955C5.82614 15.7863 6.20419 17.2966 6.67676 19.5345C6.9198 20.6499 7.17634 21.9524 7.51389 23.4558C7.5949 23.83 7.68942 24.2179 7.77718 24.6198C7.82444 24.8207 7.86494 25.0216 7.91895 25.2294C7.97296 25.4373 8.02021 25.6452 8.07422 25.8599C8.12823 26.0747 8.17549 26.2895 8.23625 26.5112C8.29701 26.7329 8.35101 26.9546 8.41177 27.1832C8.43878 27.2941 8.47253 27.4119 8.49954 27.5227C8.52654 27.6405 8.5603 27.7513 8.59405 27.8622C8.65481 28.0839 8.71557 28.3125 8.78308 28.5412C9.28265 30.3771 9.82949 32.4348 10.4438 34.735C11.0582 37.0352 11.74 39.5778 12.5231 42.3768C12.989 42.2313 13.9138 41.9334 14.3797 41.7879C13.448 37.9982 12.6852 34.3747 12.0438 30.966C11.8885 30.1139 11.7333 29.2755 11.5915 28.4511C11.5172 28.0354 11.4497 27.6266 11.3822 27.2248C11.3147 26.816 11.254 26.4142 11.1932 26.0193C10.9569 24.4258 10.8151 22.8877 10.7274 21.4051C10.6396 19.9224 10.6126 18.5022 10.6261 17.1442C10.6396 15.7863 10.6801 14.4907 10.7409 13.2575C10.8016 12.0243 10.8826 10.8603 10.9704 9.75873C11.0177 9.2114 11.0582 8.67099 11.1054 8.1583C11.1324 7.90196 11.1527 7.64562 11.1797 7.39619C11.2067 7.13985 11.2269 6.89043 11.254 6.64795C11.2675 6.42624 11.2742 6.20454 11.281 5.98976C11.2877 5.79578 11.2945 5.60872 11.3012 5.42165C11.3147 5.06831 11.335 4.74962 11.362 4.45863C11.416 3.86974 11.497 3.3709 11.6118 2.96907C11.6253 2.92056 11.6388 2.87206 11.659 2.82356C11.6725 2.77507 11.6928 2.73351 11.7063 2.69194L11.7333 2.62958L11.7603 2.56029C11.7805 2.51872 11.794 2.47023 11.8143 2.42867C11.8885 2.25545 11.9628 2.0961 12.0506 1.95061C12.2261 1.65962 12.4286 1.4102 12.6582 1.21622C12.8944 1.02223 13.151 0.890595 13.4143 0.82132C13.5425 0.772812 13.6843 0.800522 13.7653 0.668885C13.8598 0.571885 13.9476 0.488755 14.0354 0.412537C14.3797 0.114625 14.6835 -0.0239404 14.94 0.00378483C15.1965 0.0314948 15.3991 0.232407 15.5544 0.606538C15.6286 0.793595 15.6961 1.02223 15.7434 1.29936C15.7434 1.31322 15.7501 1.334 15.7501 1.34786L15.7569 1.3617C15.7569 1.37557 15.7636 1.38249 15.7636 1.39635C15.7704 1.42406 15.7771 1.44486 15.7839 1.47257C15.7906 1.50028 15.7974 1.52799 15.8109 1.5557C15.8176 1.58341 15.8311 1.61806 15.8446 1.6527C15.8919 1.78433 15.9594 1.94368 16.0472 2.10996C16.0944 2.1931 16.1417 2.27625 16.1957 2.35938C16.2227 2.40094 16.2497 2.44252 16.2767 2.48409C16.3037 2.52567 16.3307 2.57414 16.3645 2.59493C16.4792 2.71964 16.6143 3.01756 16.7898 3.48868C16.8775 3.73117 16.9721 4.01523 17.0801 4.38936C17.1071 4.47942 17.1341 4.59027 17.1678 4.69418L17.1881 4.77733L17.2083 4.86739L17.2286 4.95746L17.2421 5.00595L17.2556 5.06139L17.2826 5.16531L17.3096 5.29002C17.3231 5.37315 17.3434 5.45628 17.3569 5.53943C17.3906 5.7057 17.4176 5.87892 17.4514 6.05212C17.4716 6.16298 17.4851 6.21147 17.4986 6.28767C17.5121 6.35696 17.5256 6.42624 17.5459 6.48859C17.5729 6.62715 17.6067 6.76572 17.6337 6.90428C17.6877 7.18141 17.7484 7.47241 17.8092 7.7634C17.8632 8.05438 17.924 8.3523 17.9847 8.65714C18.0387 8.96198 18.0995 9.26683 18.1602 9.58553C18.3965 10.8395 18.6261 12.1836 18.8758 13.597C19.1256 15.0034 19.3889 16.4722 19.6927 17.9756C19.9965 19.479 20.3408 21.0171 20.7661 22.5621C20.8066 22.7214 20.8539 22.8808 20.8944 23.0401L20.9552 23.2826L21.0227 23.5182C21.1172 23.8438 21.2117 24.1694 21.313 24.4951C21.5425 25.2641 21.772 26.0331 22.0016 26.8091C22.1163 27.1971 22.2311 27.5851 22.3526 27.973C22.4674 28.361 22.5889 28.749 22.7037 29.137C22.94 29.9129 23.1762 30.6889 23.4125 31.4718C24.3712 34.5895 25.3703 37.728 26.4302 40.8803C26.7003 41.6632 26.9636 42.453 27.2404 43.2359C27.3754 43.6308 27.5171 44.0188 27.6522 44.4137C27.7939 44.8086 27.9357 45.1966 28.0775 45.5915C28.145 45.7855 28.2193 45.9864 28.2868 46.1804C28.361 46.3744 28.4285 46.5684 28.5028 46.7693C28.6446 47.1642 28.7931 47.5522 28.9349 47.9471C29.2319 48.7231 29.5222 49.5129 29.8327 50.2958C29.988 50.6838 30.1365 51.0787 30.2918 51.4667C30.4471 51.8546 30.6024 52.2426 30.7576 52.6306C30.9129 53.0186 31.0749 53.4066 31.237 53.7945C31.399 54.1825 31.561 54.5705 31.723 54.9585C31.804 55.1525 31.8851 55.3465 31.9661 55.5405L32.0876 55.8315L32.2159 56.1224C32.3846 56.5104 32.5602 56.8984 32.7289 57.2864C32.8977 57.6744 33.0732 58.0693 33.242 58.4572C33.4175 58.8452 33.5998 59.2332 33.7753 59.6281C33.9576 60.0161 34.1331 60.411 34.3154 60.799C34.4032 60.993 34.4977 61.187 34.5855 61.3879C34.68 61.5819 34.7745 61.7759 34.869 61.9699C35.2471 62.7458 35.6184 63.5287 35.9964 64.3116C36.388 65.0876 36.7795 65.8705 37.1711 66.6534C37.2656 66.8473 37.3669 67.0413 37.4749 67.2353C37.5762 67.4293 37.6774 67.6233 37.7787 67.8173C37.9812 68.2053 38.1838 68.6002 38.393 68.9882C40.0403 72.1059 41.7955 75.2236 43.6521 78.3343C43.8884 78.7223 44.1179 79.1103 44.3542 79.4983C44.5905 79.8863 44.82 80.2812 45.063 80.6622C45.5424 81.4382 46.0284 82.2142 46.5078 82.9901C47.0006 83.7591 47.4934 84.5351 47.993 85.3111C48.4926 86.087 49.0056 86.8491 49.512 87.6251L49.8968 88.2071L50.2883 88.7821C50.5516 89.1632 50.8081 89.5511 51.0714 89.9391C51.5845 90.7151 52.1246 91.4772 52.6579 92.2393C52.928 92.6204 53.1913 93.0083 53.4613 93.3894C53.7313 93.7704 54.0081 94.1515 54.2782 94.5325C54.5482 94.9136 54.825 95.2946 55.095 95.6826C55.3718 96.0637 55.6486 96.4517 55.9254 96.8327C58.1465 99.8881 60.3608 102.812 62.6562 105.535C63.8039 106.899 64.9718 108.202 66.16 109.456L66.6055 109.927C66.754 110.079 66.9093 110.232 67.0578 110.384L67.5102 110.842L67.976 111.299C68.5971 111.909 69.2384 112.511 69.8798 113.107C72.4654 115.49 75.2401 117.742 78.17 119.897C78.5413 120.167 78.9059 120.437 79.2772 120.7C79.6485 120.964 80.0198 121.234 80.3979 121.497C80.7759 121.76 81.1472 122.024 81.532 122.287L82.1059 122.675L82.6865 123.07C84.2392 124.116 85.7784 125.107 87.3109 126.049C88.8434 126.984 90.3691 127.857 91.8881 128.661C92.651 129.056 93.4071 129.444 94.1699 129.804C94.548 129.991 94.9328 130.157 95.3108 130.331C95.4999 130.421 95.6889 130.497 95.8847 130.58L96.1682 130.705C96.2627 130.746 96.3573 130.788 96.4585 130.83C97.2416 131.162 98.0585 131.488 98.8956 131.813L99.5302 132.056L100.172 132.298L101.495 132.783C103.277 133.435 105.167 134.107 107.132 134.834C107.625 135.021 108.118 135.201 108.624 135.402L109.002 135.548L109.38 135.7L109.758 135.852L109.947 135.929L110.129 136.005C110.615 136.199 111.108 136.4 111.594 136.594C112.074 136.795 112.56 136.989 113.039 137.19C114.95 137.986 116.82 138.797 118.642 139.594C120.465 140.39 122.254 141.18 124.009 141.935C125.758 142.691 127.479 143.418 129.174 144.104C129.545 144.256 129.917 144.409 130.288 144.554L131.395 144.991C131.76 145.136 132.124 145.275 132.489 145.413L133.036 145.621L133.582 145.822L134.737 146.245C135.189 146.411 135.628 146.577 136.073 146.744C136.951 147.076 137.815 147.423 138.666 147.762C139.516 148.102 140.34 148.448 141.157 148.788L142.365 149.293L142.953 149.543L143.236 149.654L144.343 150.069C144.836 150.256 145.457 150.499 146.22 150.845C146.976 151.192 147.861 151.649 148.792 152.259C149.724 152.861 150.703 153.63 151.601 154.51L162.774 165.478L149.272 173.452C148.205 174.082 147.01 174.658 145.802 175.101C144.6 175.544 143.405 175.863 142.365 176.064C141.326 176.272 140.435 176.39 139.685 176.48L139.145 176.542L138.652 176.597L138.396 176.625L138.126 176.653L137.586 176.701C136.148 176.833 134.757 176.916 133.407 176.965C132.063 177.013 130.76 177.041 129.491 177.048C128.229 177.062 127.014 177.055 125.832 177.062L124.09 177.069C123.53 177.075 122.963 177.075 122.416 177.089L122.004 177.096L121.606 177.103C121.343 177.11 121.066 177.117 120.809 177.124L119.135 177.186L115.523 177.325C110.703 177.505 105.876 177.644 101.042 177.741C96.202 177.831 91.3548 177.872 86.5008 177.858C81.64 177.838 76.7793 177.754 71.8983 177.595L68.2663 177.463L64.668 177.318C62.2241 177.214 59.6992 177.082 57.1136 176.875C55.8174 176.771 54.501 176.646 53.171 176.493C51.8411 176.341 50.4908 176.161 49.1204 175.939C47.7567 175.718 46.3727 175.461 44.9753 175.156C43.5778 174.852 42.1668 174.491 40.7424 174.069C39.3179 173.646 37.8867 173.175 36.4555 172.621C35.0243 172.066 33.5931 171.436 32.1753 170.722L31.642 170.452L31.507 170.383C31.4665 170.362 31.4192 170.341 31.372 170.314L31.0884 170.161C30.7104 169.96 30.3458 169.752 29.9813 169.544C29.2522 169.122 28.5365 168.672 27.8479 168.214C27.1593 167.75 26.4842 167.272 25.8294 166.773C25.1813 166.274 24.5467 165.769 23.9324 165.249C23.3248 164.729 22.7374 164.196 22.1636 163.662C21.88 163.392 21.5965 163.122 21.3197 162.845L21.1104 162.637L21.0564 162.589L21.0429 162.575L21.1037 162.63L21.1037 162.623C21.0969 162.616 21.1104 162.623 21.0767 162.595L20.9484 162.478C20.7999 162.339 20.6514 162.201 20.5028 162.062L20.2125 161.785C20.1045 161.681 20.0033 161.577 19.8817 161.459C19.6522 161.224 19.3957 160.967 19.1121 160.642L19.0041 160.524L18.8893 160.392L18.7813 160.261L18.6666 160.122L18.4303 159.831C18.3493 159.727 18.2615 159.616 18.1805 159.505C17.8429 159.048 17.4784 158.515 17.0936 157.843C16.9923 157.663 16.8978 157.489 16.8033 157.302C16.702 157.101 16.6075 156.9 16.513 156.693C16.3172 156.256 16.1349 155.792 15.9594 155.252L15.8986 155.051C15.8784 154.988 15.8581 154.919 15.8379 154.843C15.7974 154.697 15.7569 154.552 15.7231 154.406C15.6826 154.261 15.6489 154.115 15.6151 153.963C15.5813 153.804 15.5476 153.637 15.5206 153.478C15.4936 153.319 15.4666 153.152 15.4396 152.993C15.4261 152.917 15.4193 152.82 15.4058 152.737L15.3788 152.473C15.3451 152.12 15.3181 151.78 15.3113 151.399C15.3046 151.212 15.3113 151.032 15.3113 150.845C15.3113 150.665 15.3248 150.471 15.3383 150.284C15.3653 149.903 15.3991 149.529 15.4598 149.155C15.5206 148.781 15.5881 148.4 15.6759 148.039C15.7636 147.679 15.8649 147.326 15.9797 146.972L17.9645 140.924L23.8851 139.504C24.5534 139.344 25.2285 139.206 25.9037 139.109C26.0724 139.081 26.2412 139.06 26.4032 139.039C26.572 139.019 26.7408 138.998 26.9028 138.984L27.3956 138.942L27.8749 138.915C29.1441 138.845 30.2648 138.894 31.1762 138.963L31.3517 138.977L31.5137 138.991L31.831 139.019L32.4116 139.074L32.9382 139.13L33.5188 139.192L34.1129 139.254L34.4099 139.289L34.7002 139.324C35.0918 139.372 35.4766 139.427 35.8681 139.476C37.4141 139.698 38.9196 139.961 40.3981 140.259C40.7626 140.335 41.1407 140.404 41.4985 140.481C41.8631 140.557 42.2276 140.633 42.5854 140.716C42.9432 140.799 43.301 140.875 43.6588 140.959C44.0166 141.042 44.3677 141.125 44.7187 141.208C46.1297 141.547 47.5069 141.894 48.8571 142.247C50.2073 142.601 51.5305 142.961 52.8267 143.307C55.4056 144 58.0047 144.686 60.6444 145.386C65.9237 146.785 71.3312 148.233 76.8131 149.931C82.2746 151.621 87.5877 153.485 92.7995 155.342C95.3986 156.27 97.9978 157.205 100.597 158.134C103.203 159.069 105.802 160.018 108.394 160.96C113.566 162.852 118.744 164.743 123.915 166.635C126.494 167.57 129.066 168.505 131.638 169.441C132.921 169.905 134.21 170.362 135.493 170.826C136.715 171.263 137.937 171.699 139.152 172.136C139.598 172.323 140.063 172.517 140.556 172.704C140.799 172.801 141.056 172.898 141.312 172.995C141.569 173.092 141.832 173.216 142.102 173.313C142.217 173.355 142.332 173.39 142.453 173.41C142.575 173.431 142.696 173.452 142.811 173.431C142.932 173.417 143.047 173.369 143.128 173.293C143.209 173.216 143.257 173.106 143.284 173.002C143.331 172.794 143.311 172.572 143.277 172.364C143.243 172.149 143.182 171.942 143.128 171.727C143.068 171.512 143.02 171.29 142.953 171.069C142.892 170.847 142.831 170.618 142.764 170.383C142.696 170.147 142.622 169.912 142.548 169.669L142.433 169.302L142.372 169.108L142.345 169.011L142.332 168.963L142.325 168.949L142.318 168.935L142.311 168.907L142.271 168.81C141.454 166.711 140.61 164.577 139.787 162.408L139.476 161.591L139.165 160.766C138.956 160.219 138.754 159.665 138.551 159.111C138.349 158.563 138.146 157.995 137.95 157.441L137.802 157.025L137.66 156.616L137.376 155.806C135.871 151.476 134.433 147.139 133.083 142.781C132.637 141.374 132.165 139.906 131.679 138.374C131.192 136.843 130.7 135.257 130.193 133.622C130.065 133.213 129.944 132.804 129.815 132.388C129.687 131.973 129.565 131.557 129.437 131.134C129.181 130.296 128.938 129.437 128.674 128.578C128.546 128.148 128.418 127.712 128.29 127.282C128.168 126.846 128.04 126.409 127.911 125.973C127.783 125.536 127.662 125.093 127.533 124.65C127.473 124.428 127.405 124.206 127.344 123.984C127.284 123.763 127.223 123.541 127.162 123.319C126.912 122.426 126.669 121.532 126.42 120.631C126.176 119.731 125.933 118.823 125.69 117.915C125.441 117.008 125.211 116.093 124.975 115.186C124.853 114.728 124.739 114.271 124.617 113.814L124.273 112.442C124.158 111.985 124.043 111.527 123.928 111.07C123.814 110.613 123.699 110.156 123.591 109.698C123.368 108.784 123.152 107.876 122.929 106.962C122.504 105.147 122.079 103.338 121.68 101.551C121.579 101.107 121.478 100.657 121.377 100.214C121.282 99.7703 121.181 99.3269 121.086 98.8904C120.897 98.0105 120.708 97.1376 120.519 96.2715C120.337 95.4055 120.155 94.5533 119.979 93.7081C119.804 92.8628 119.635 92.0245 119.466 91.2001C119.128 89.5512 118.818 87.9438 118.514 86.3988C118.217 84.8538 117.94 83.3573 117.684 81.9301C117.171 79.0757 116.745 76.4984 116.421 74.2605C116.097 72.0227 115.881 70.1313 115.793 68.6695C115.368 64.5125 115.409 62.2886 115.719 61.2493C116.03 60.2032 116.61 60.3348 117.292 60.8544C118.123 65.5448 118.987 70.2214 119.851 74.8772C120.722 79.5329 121.599 84.1956 122.511 88.8583C124.333 98.1837 126.312 107.523 128.647 116.8C129.815 121.435 131.084 126.056 132.455 130.642C133.832 135.229 135.311 139.76 136.863 144.25C137.64 146.494 138.43 148.725 139.24 150.956L139.847 152.619L140.462 154.282L141.083 155.944C141.299 156.506 141.508 157.074 141.724 157.635C142.588 159.873 143.479 162.076 144.37 164.244C144.809 165.318 145.248 166.399 145.694 167.473C145.93 168.062 146.159 168.637 146.389 169.219C146.767 170.21 147.132 171.193 147.469 172.17L147.719 172.905L147.962 173.639C148.124 174.124 148.3 174.602 148.455 175.087C148.603 175.572 148.738 176.064 148.806 176.563C148.84 176.812 148.86 177.062 148.853 177.318C148.846 177.567 148.806 177.824 148.705 178.059C148.61 178.295 148.441 178.503 148.225 178.634C148.009 178.773 147.753 178.842 147.496 178.856C147.24 178.877 146.983 178.849 146.727 178.808C146.47 178.766 146.22 178.697 145.977 178.627C145.39 178.454 144.823 178.219 144.256 178.018C143.972 177.914 143.682 177.831 143.398 177.734L142.548 177.45C141.42 177.069 140.313 176.681 139.226 176.279L138.416 175.981L138.011 175.828L137.896 175.787L137.694 175.718L137.289 175.572L134.041 174.401C131.874 173.618 129.707 172.828 127.547 172.032C118.885 168.852 110.224 165.588 101.508 162.367L94.9733 159.963C92.7995 159.166 90.6189 158.369 88.4181 157.572C86.2172 156.776 84.0029 155.993 81.7683 155.224C79.5337 154.455 77.2789 153.707 75.0038 152.993C72.7287 152.279 70.4536 151.6 68.1853 150.949C65.9169 150.298 63.6621 149.674 61.414 149.058L54.717 147.236L51.3887 146.321C50.2748 146.016 49.1406 145.704 47.9997 145.393C49.1204 145.704 50.2343 146.023 51.3212 146.335C52.4081 146.64 53.4951 146.952 54.582 147.263C56.776 147.88 58.9701 148.49 61.1642 149.106C65.5861 150.346 70.0688 151.628 74.5717 153.055C79.0814 154.483 83.5101 156.041 87.8915 157.635C90.0788 158.432 92.2594 159.235 94.4265 160.032C96.6003 160.836 98.7741 161.632 100.955 162.436C109.67 165.665 118.379 168.935 127.128 172.129C129.316 172.925 131.503 173.722 133.697 174.505C135.5 175.149 137.302 175.794 139.105 176.438C140.239 176.847 141.393 177.242 142.561 177.63L143.446 177.914C143.743 178.011 144.04 178.094 144.33 178.198C144.917 178.399 145.498 178.634 146.105 178.808C146.355 178.877 146.605 178.939 146.862 178.981C147.118 179.022 147.375 179.043 147.631 179.022C147.888 179.002 148.144 178.932 148.36 178.787C148.468 178.717 148.563 178.627 148.644 178.53C148.725 178.426 148.792 178.316 148.84 178.198C148.934 177.955 148.975 177.699 148.981 177.436C148.988 177.179 148.968 176.916 148.927 176.66C148.846 176.147 148.711 175.648 148.549 175.156C148.394 174.664 148.205 174.173 148.03 173.681L147.773 172.939L147.51 172.198C147.152 171.207 146.774 170.217 146.382 169.226C146.16 168.651 145.937 168.069 145.707 167.48L144.411 164.258C143.54 162.09 142.669 159.893 141.825 157.663C141.609 157.108 141.407 156.54 141.197 155.979L140.59 154.323C140.192 153.222 139.793 152.113 139.402 151.005C138.612 148.788 137.842 146.564 137.086 144.333C135.581 139.864 134.143 135.361 132.813 130.809C131.49 126.257 130.268 121.677 129.147 117.091C126.906 107.911 125.029 98.6895 123.307 89.4819C122.443 84.8746 121.62 80.2743 120.809 75.6808C119.993 71.0874 119.189 66.4871 118.413 61.8659C119.635 63.0299 120.884 64.1176 121.424 61.6997C121.424 61.6997 121.296 60.993 121.086 59.836C120.985 59.2609 120.857 58.5681 120.722 57.806C120.587 57.037 120.438 56.1986 120.283 55.3049C119.972 53.5313 119.642 51.5706 119.331 49.7C119.02 47.8294 118.737 46.0488 118.521 44.6216C118.447 43.1666 118.406 41.8295 118.386 40.5894C118.366 39.3561 118.372 38.2268 118.399 37.1945C118.426 36.1622 118.474 35.2407 118.534 34.4094C118.602 33.578 118.683 32.8367 118.777 32.1923C118.872 31.548 118.987 30.9868 119.108 30.5157C119.23 30.0446 119.365 29.6566 119.513 29.3448C119.804 28.7213 120.134 28.4164 120.499 28.3749C121.221 28.2917 122.072 29.2686 122.97 30.9383C123.429 31.7766 123.895 32.7812 124.374 33.9175C124.86 35.0537 125.346 36.3216 125.852 37.6795C126.825 40.4716 127.857 43.5893 128.992 47.0673Z" fill="#CBA265"/>
</svg>
