<svg width="227" height="74" viewBox="0 0 227 74" fill="none" xmlns="http://www.w3.org/2000/svg">
<path d="M37.724 66.8259C37.3129 66.4921 36.9462 66.1704 36.5997 65.8527C36.3941 65.6718 36.1967 65.4948 36.0033 65.3179C35.8098 65.141 35.6164 64.96 35.431 64.7871C35.0845 64.4574 34.7379 64.1236 34.3914 63.7938C33.7103 63.1424 33.0293 62.491 32.3442 61.8396C30.9943 60.5568 29.6725 59.3142 28.3346 58.132C28.0002 57.8384 27.6657 57.5449 27.3272 57.2594C27.158 57.1146 26.9887 56.9739 26.8235 56.8331C26.7389 56.7608 26.6542 56.6884 26.5656 56.62C26.4769 56.5476 26.3883 56.4712 26.2956 56.3989C25.5783 55.8077 24.857 55.2126 24.1276 54.6094C22.6688 53.4071 21.1899 52.1887 19.6828 50.93C18.6512 50.0092 17.547 49.1325 16.3663 48.264C15.1896 47.3994 13.9485 46.5509 12.6872 45.6944C12.0545 45.2641 11.4178 44.8339 10.7851 44.4076L10.5514 44.2468L10.3499 44.1141L10.2492 44.0457L9.93483 43.8406C9.78573 43.7481 9.64066 43.6556 9.49559 43.5672C9.34246 43.4747 9.18933 43.3782 9.0362 43.2857C8.87904 43.1892 8.72188 43.0927 8.56069 42.9962C8.3995 42.8956 8.23428 42.7951 8.07309 42.6946C7.98847 42.6423 7.90787 42.59 7.82728 42.5377C7.74265 42.4855 7.66206 42.4332 7.57743 42.3809C7.49281 42.3246 7.40818 42.2723 7.32356 42.216C7.23893 42.1597 7.15834 42.1075 7.06968 42.0512C6.39268 41.6008 5.69554 41.0981 5.01451 40.511L5.30868 40.7765C5.35704 40.8207 5.4054 40.8649 5.45778 40.9051L5.60688 41.0298C5.80434 41.1987 5.99777 41.3515 6.19523 41.5083C6.29194 41.5847 6.38865 41.6571 6.48537 41.7335L6.63044 41.8461C6.6788 41.8823 6.72715 41.9185 6.77551 41.9507L7.06566 42.1597L7.48878 42.4613L7.62982 42.5578L7.90787 42.7509C8.08921 42.8715 8.27055 42.9962 8.45189 43.1168C8.79441 43.346 9.13694 43.5792 9.47947 43.8084C9.64066 43.917 9.80185 44.0296 9.95095 44.1382C10.1081 44.2467 10.2492 44.3513 10.3942 44.4559C10.5675 44.5805 10.7408 44.7092 10.9141 44.8379C11.0873 44.9666 11.2647 45.0912 11.4379 45.2199C12.1351 45.7266 12.8322 46.2212 13.5253 46.7158C14.9116 47.701 16.2857 48.6701 17.6115 49.6513C18.9373 50.6284 20.247 51.6418 21.5365 52.6792C22.826 53.7167 24.0954 54.7823 25.3446 55.8721C25.6549 56.1455 25.9692 56.419 26.2755 56.6924L26.5051 56.8975L26.7227 57.0945C26.8678 57.2272 27.0129 57.3599 27.158 57.4926C27.7342 58.0315 28.3064 58.5864 28.8787 59.1574C29.4509 59.7284 30.0191 60.3155 30.5913 60.9107C31.1635 61.5098 31.7398 62.117 32.3241 62.7323C32.9084 63.3475 33.4968 63.9708 34.1012 64.5981C34.4075 64.9117 34.7097 65.2254 35.016 65.5391C35.3504 65.8768 35.697 66.2106 36.0597 66.5484C35.6366 66.4559 35.2094 66.3393 34.7822 66.1986C34.6775 66.1624 34.5687 66.1262 34.4639 66.0859C34.4115 66.0658 34.3591 66.0457 34.3108 66.0337L34.2946 66.0297L34.2785 66.0256C34.2705 66.0256 34.2584 66.0176 34.2463 66.0136L34.1697 65.9854C33.9723 65.909 33.7708 65.8286 33.5693 65.7401C32.7754 65.3863 31.9937 64.9198 31.2723 64.3126C29.6242 62.7483 28.105 61.2565 26.626 59.9054C26.4407 59.7405 26.2593 59.5716 26.074 59.4067C25.8926 59.2459 25.7073 59.081 25.5259 58.9202L25.2519 58.6829L25.1149 58.5623L24.9658 58.4336C24.7643 58.2647 24.5668 58.0958 24.3694 57.9269C23.5715 57.2554 22.7736 56.5959 21.9717 55.9485C22.149 55.7152 22.4956 55.2609 22.6688 55.0317C20.8151 53.8293 19.0461 52.5908 17.3133 51.3603C15.5886 50.1338 13.8356 48.8711 12.0545 47.5482C11.6072 47.2184 11.1639 46.8847 10.7166 46.5429L10.0436 46.0322L9.70916 45.7748L9.42306 45.5536C9.08053 45.2882 8.68562 45.0028 8.25443 44.6971C7.82325 44.3955 7.35177 44.0698 6.85208 43.72C6.35239 43.3661 5.82852 42.9881 5.2845 42.5578C4.74049 42.1276 4.17632 41.6531 3.6041 41.0941C3.56783 41.0619 3.53157 41.0258 3.4953 40.9896L3.3865 40.881L3.17292 40.6598L3.12053 40.6036L3.09232 40.5714L3.03188 40.507L2.91502 40.3783L2.8586 40.314L2.83039 40.2778L2.79815 40.2376C2.75382 40.1853 2.71353 40.1331 2.6692 40.0808L2.57249 39.9602L2.53622 39.9119C2.48786 39.8476 2.44354 39.7832 2.39921 39.7189L2.33473 39.6184L2.30249 39.5661L2.26623 39.5057C2.21787 39.4253 2.16951 39.3489 2.12519 39.2645C2.10101 39.2243 2.08086 39.1841 2.05668 39.1398C2.0325 39.0916 2.00832 39.0433 1.98414 38.9951C1.93579 38.8986 1.89146 38.802 1.85116 38.7055L1.83505 38.6693L1.81892 38.6251L1.78669 38.5406C1.76654 38.4843 1.74236 38.4281 1.72221 38.3677C1.64162 38.1506 1.56505 37.8731 1.51267 37.6118L1.50057 37.5635L1.49252 37.5112L1.47237 37.4026C1.46028 37.3303 1.45222 37.2579 1.44013 37.1855C1.43207 37.1131 1.42401 37.0407 1.41595 36.9684C1.40789 36.892 1.40386 36.8196 1.40386 36.7432C1.3958 36.5944 1.3958 36.4416 1.39983 36.2928C1.40789 36.144 1.41595 35.9912 1.43609 35.8424C1.44415 35.766 1.45625 35.6976 1.46833 35.6253C1.48042 35.5529 1.49252 35.4845 1.50461 35.4121C1.5167 35.3398 1.53281 35.2714 1.54893 35.203C1.56505 35.1387 1.58117 35.0744 1.60132 35.01C1.61744 34.9457 1.63758 34.8814 1.65773 34.817C1.67788 34.7527 1.69803 34.6884 1.71818 34.6321C1.75847 34.5195 1.8028 34.4068 1.85116 34.2983C1.86325 34.2701 1.87534 34.242 1.88743 34.2178L1.91966 34.1455C1.94384 34.0972 1.964 34.049 1.98818 34.0007C2.01236 33.9525 2.03653 33.9042 2.06071 33.86L2.09698 33.7956L2.12922 33.7353C2.17355 33.6549 2.2219 33.5745 2.27026 33.4981C2.31459 33.4297 2.35488 33.3654 2.40323 33.297L2.47175 33.2005L2.53219 33.1161C2.57249 33.0598 2.61279 33.0034 2.65309 32.9512L2.76189 32.8145L2.8183 32.7461L2.86665 32.6898L2.9674 32.5772L3.05606 32.4807C3.17292 32.352 3.2656 32.2636 3.35022 32.1791L3.45904 32.0705L3.54769 31.9861L3.63231 31.9056C3.64843 31.8896 3.66455 31.8775 3.67664 31.8614C3.70888 31.8293 3.73709 31.7971 3.76127 31.7649C4.24484 31.1778 4.72437 30.5947 5.20794 30.0036C5.69957 29.4045 6.18717 28.8134 6.66671 28.2182C7.14625 27.6231 7.61773 27.028 8.07712 26.4288C8.55263 25.7975 9.03217 25.1661 9.51171 24.5348C9.29814 24.6474 9.19739 24.6152 9.13694 24.5267C9.0765 24.4423 9.06441 24.3015 9.02814 24.205C9.04829 24.1809 9.06844 24.1608 9.08859 24.1367C9.06844 24.1568 9.04829 24.1809 9.02814 24.205C8.9677 24.0321 8.83874 23.9758 8.28666 24.571C8.83874 23.9799 8.9677 24.0321 9.02814 24.205C8.89516 24.3538 8.76217 24.5026 8.62919 24.6514C8.49621 24.8002 8.36323 24.953 8.23025 25.1018C7.97638 25.3913 7.7225 25.6808 7.47266 25.9704C6.977 26.5414 6.48134 27.1084 5.98568 27.6713C5.486 28.2464 4.98631 28.8254 4.48259 29.4125C4.23274 29.706 3.98289 30.0036 3.73305 30.3052C3.60813 30.454 3.48321 30.6068 3.35829 30.7556C3.24949 30.8883 3.14068 31.021 3.03188 31.1537C3.01576 31.1738 2.99964 31.1899 2.98352 31.21L2.89889 31.2945L2.70144 31.4875L2.56442 31.6242L2.48383 31.7086L2.39921 31.8011L2.30249 31.9056L2.25414 31.962L2.19772 32.0263L2.08892 32.151C2.04862 32.2032 2.00429 32.2515 1.964 32.3038L1.90355 32.3802L1.83505 32.4686C1.79072 32.5289 1.74236 32.5933 1.69803 32.6536L1.66176 32.7059L1.6255 32.7622L1.54893 32.8748L1.47639 32.9874L1.43609 33.0517L1.3958 33.1201C1.34341 33.2085 1.29103 33.301 1.24267 33.3935C1.18626 33.498 1.13387 33.6066 1.08148 33.7192L1.04521 33.7997C1.03312 33.8278 1.02103 33.8519 1.00491 33.8841C0.976706 33.9484 0.952527 34.0088 0.924319 34.0731C0.90014 34.1374 0.87596 34.2018 0.851781 34.2661L0.815518 34.3626C0.803428 34.3948 0.791343 34.435 0.779254 34.4672C0.730897 34.6119 0.690596 34.7607 0.654328 34.9055C0.634179 34.9779 0.618058 35.0623 0.601939 35.1427C0.58582 35.2231 0.569703 35.3036 0.553584 35.384C0.541495 35.4644 0.52538 35.5449 0.51732 35.6293C0.505231 35.7138 0.497164 35.8022 0.489104 35.8866C0.472985 36.0596 0.464928 36.2285 0.460898 36.4014C0.460898 36.5743 0.464934 36.7472 0.477023 36.9201C0.481053 36.9643 0.481051 37.0086 0.48508 37.0488L0.497172 37.1734C0.505231 37.2579 0.517312 37.3383 0.529402 37.4228C0.541491 37.5072 0.55358 37.5876 0.569699 37.6681C0.585818 37.7525 0.601945 37.8249 0.618064 37.9013C0.654332 38.0541 0.690595 38.2029 0.734923 38.3517L0.751038 38.408L0.767163 38.4562L0.799402 38.5567C0.823581 38.6211 0.843728 38.6895 0.867906 38.7538C0.892085 38.8181 0.916259 38.8825 0.944467 38.9468C0.956557 38.979 0.972676 39.0152 0.984765 39.0393L1.02104 39.1237C1.0694 39.2363 1.12178 39.3449 1.17819 39.4535L1.23864 39.5741L1.25879 39.6103L1.33535 39.747C1.38774 39.8395 1.44012 39.928 1.49654 40.0164L1.53684 40.0808L1.57311 40.1371L1.64967 40.2497C1.70206 40.322 1.75042 40.3944 1.80684 40.4668L1.8431 40.5151L1.9519 40.6478C2.00026 40.7081 2.04862 40.7644 2.09698 40.8247L2.13324 40.8689L2.22996 40.9775C2.27429 41.0258 2.31861 41.074 2.36294 41.1223L2.43145 41.1946L2.46368 41.2268C2.61278 41.3796 2.76189 41.5284 2.91502 41.6772C3.51545 42.2522 4.10782 42.7388 4.67602 43.1691C5.24421 43.5993 5.7842 43.9773 6.30001 44.3191C6.80775 44.6609 7.28729 44.9665 7.72653 45.2561C8.16577 45.5416 8.56874 45.811 8.91127 46.0563C9.33037 46.3579 9.74946 46.6635 10.1645 46.9651C10.6118 47.2868 11.0591 47.6045 11.5064 47.9262C13.2836 49.1969 15.0163 50.4314 16.6645 51.686C18.3167 52.9406 19.9649 54.2636 21.613 55.6388C19.9608 54.3118 18.3006 53.0371 16.6242 51.8227C14.9559 50.6123 13.1909 49.418 11.3815 48.1755C10.9261 47.8618 10.4708 47.5482 10.0154 47.2386L9.32634 46.76L8.97979 46.5187L8.72993 46.3498C8.38338 46.1166 7.9804 45.8592 7.5331 45.5778C7.0858 45.2963 6.60224 44.9947 6.07837 44.6569C5.5545 44.3151 4.9984 43.9411 4.41408 43.5068C3.82977 43.0725 3.22128 42.578 2.6007 41.9909C2.44354 41.8381 2.28637 41.6853 2.13324 41.5284L2.11713 41.5123L2.09294 41.4882L2.02041 41.4118C1.97205 41.3595 1.92772 41.3113 1.87937 41.259L1.81086 41.1826L1.7746 41.1424L1.7343 41.0941C1.68191 41.0338 1.62953 40.9695 1.58117 40.9051L1.50461 40.8086L1.46833 40.7604L1.42804 40.7041C1.37162 40.6277 1.31521 40.5512 1.26282 40.4708L1.18223 40.3542L1.14193 40.2939L1.0976 40.2215C1.03715 40.125 0.980735 40.0325 0.924319 39.932L0.843724 39.7872L0.823575 39.747L0.799402 39.7028L0.755071 39.6143C0.698655 39.4977 0.642234 39.3811 0.589848 39.2605L0.54955 39.172L0.509253 39.0674C0.481045 38.9991 0.456866 38.9307 0.428658 38.8583C0.40045 38.786 0.376279 38.7176 0.35613 38.6492L0.319857 38.5447L0.303742 38.4884L0.287617 38.4281C0.23926 38.2712 0.198968 38.1104 0.162701 37.9455L0.134494 37.8249C0.126435 37.7847 0.118371 37.7404 0.110312 37.6962C0.094193 37.6077 0.0820998 37.5193 0.0659808 37.4308C0.0538916 37.3423 0.0418102 37.2539 0.0337508 37.1654C0.029721 37.1212 0.0256893 37.0769 0.0216596 37.0327L0.013602 36.896C0.0015128 36.711 -0.0025189 36.526 0.00151085 36.3411C0.00554061 36.1561 0.0176318 35.9711 0.0337508 35.7902C0.0418103 35.6977 0.0538917 35.6052 0.0659809 35.5167C0.0780702 35.4283 0.0901594 35.3438 0.106278 35.2553C0.122397 35.1669 0.138518 35.0824 0.158667 34.994L0.186873 34.8653C0.194933 34.821 0.20703 34.7849 0.215089 34.7446C0.255387 34.5878 0.29971 34.431 0.352097 34.2742L0.372246 34.2178L0.392394 34.1656L0.428658 34.061C0.452837 33.9927 0.481045 33.9243 0.509253 33.8559C0.537461 33.7876 0.565673 33.7192 0.593882 33.6509C0.62209 33.5905 0.646268 33.5342 0.674477 33.4739C0.702685 33.4136 0.730897 33.3573 0.759105 33.301L0.847758 33.1321C0.900144 33.0356 0.956555 32.9351 1.01297 32.8386L1.0573 32.7662L1.0976 32.7019L1.17416 32.5812L1.29505 32.4003L1.33133 32.348C1.37968 32.2796 1.42804 32.2153 1.47639 32.151L1.51267 32.1027L1.54893 32.0585L1.61341 31.9781C1.65774 31.9258 1.70206 31.8695 1.74236 31.8172L1.85519 31.6845L1.91161 31.6202L1.964 31.5638L2.06474 31.4553L2.23802 31.2743L2.37906 31.1336L2.57651 30.9406L2.61279 30.9044L2.62085 30.8963C2.62488 30.8923 2.6289 30.8883 2.6289 30.8843L2.64502 30.8682C2.65308 30.8561 2.66518 30.8441 2.67323 30.832C2.65309 30.8561 2.72965 30.7596 2.778 30.7033L2.93113 30.5143L3.2374 30.1404C3.44292 29.891 3.6444 29.6458 3.84992 29.4045C4.26095 28.9179 4.66796 28.4394 5.07899 27.9689C5.89703 27.0279 6.707 26.1151 7.50086 25.2184L7.81922 24.8605L8.14562 24.4986L8.47204 24.1407L8.79845 23.7868C9.23366 23.3164 9.66887 22.8579 10.1041 22.4035C10.9705 21.4988 11.8208 20.6302 12.6469 19.7817L12.9571 19.464L13.5455 18.8528L13.8437 18.5392C14.2426 18.1169 14.6658 17.6665 15.1171 17.1961C16.0157 16.2591 17.0272 15.2418 18.22 14.2284L18.3328 14.1319L18.4457 14.0394L18.6754 13.8504L18.7882 13.7579L18.8849 13.6816L19.0743 13.5287L19.4571 13.2231L19.84 12.9215C20.0938 12.7205 20.3477 12.5234 20.6056 12.3264C20.8595 12.1294 21.1174 11.9363 21.3713 11.7393C22.3908 10.9632 23.4143 10.2072 24.4298 9.47134C25.0826 8.99684 26.3923 8.05183 27.0451 7.57732C27.8188 7.28378 28.5644 6.96613 29.2897 6.62433C29.471 6.53988 29.6483 6.45142 29.8257 6.36295L29.9586 6.29458L30.4301 6.04125L31.631 5.39786C32.4007 4.9877 33.1139 4.59762 33.7668 4.20756C34.4196 3.82152 35.0079 3.43551 35.5237 3.04545C35.5721 3.23847 35.6688 3.41941 35.7977 3.59232C35.9267 3.76523 36.0879 3.93412 36.2571 4.09497C36.5956 4.42069 36.9744 4.73434 37.1961 5.09223C37.3049 5.27318 37.3734 5.46219 37.3693 5.6713C37.3653 5.77585 37.3492 5.88845 37.3049 6.00104C37.2646 6.11766 37.2041 6.23828 37.1155 6.36696C36.9382 6.62431 36.6641 6.90581 36.2491 7.21946C35.838 7.53312 35.29 7.87087 34.5727 8.26093C34.7339 8.5022 35.0563 8.98475 35.2175 9.22602C35.9871 8.93247 36.7286 8.71131 37.4217 8.54242C38.1189 8.37352 38.7717 8.24888 39.3802 8.16845C39.5333 8.14834 39.6824 8.12825 39.8275 8.11618C39.9726 8.10412 40.1136 8.08802 40.2546 8.07998C40.3957 8.06791 40.5287 8.06389 40.6616 8.05987C40.7946 8.05585 40.9236 8.05184 41.0485 8.05587C41.1734 8.05587 41.2943 8.06392 41.4112 8.07197C41.528 8.08001 41.6409 8.09206 41.7497 8.10413C41.9673 8.1363 42.1688 8.18053 42.3461 8.24487C42.6846 8.38963 42.9465 8.59874 43.1198 8.87621C43.1641 8.94457 43.2004 9.01693 43.2326 9.09333C43.2487 9.13354 43.2649 9.16975 43.277 9.20996C43.285 9.23007 43.289 9.25017 43.2931 9.27028C43.2971 9.29441 43.3011 9.31452 43.3011 9.33865C43.3253 9.52362 43.3173 9.72868 43.2729 9.95789C43.1843 10.4123 42.9546 10.9431 42.5717 11.5342C42.1889 12.1173 41.657 12.7446 40.9961 13.3719C40.8994 13.4604 40.8107 13.5408 40.714 13.6292C40.6214 13.7137 40.5246 13.7981 40.432 13.8786C40.2466 14.0394 40.0532 14.2043 39.8718 14.3611C39.497 14.6788 39.1344 14.9723 38.7757 15.2578C38.4413 15.5273 38.1028 15.8007 37.7602 16.0782C37.6837 16.1425 37.6031 16.2069 37.5265 16.2712L37.4096 16.3677C37.3613 16.4079 37.3089 16.4481 37.2565 16.4883C37.051 16.6492 36.8455 16.8141 36.64 16.9749C34.9757 18.2697 33.2106 19.5083 31.4537 20.7508C30.5752 21.3701 29.6967 21.9934 28.8384 22.6247C28.6248 22.7815 28.4112 22.9424 28.1976 23.0992C27.9881 23.26 27.7745 23.4169 27.565 23.5777L27.0935 23.9396L27.0169 24L26.9847 24.0281L26.9565 24.0522C26.8799 24.1125 26.8033 24.1729 26.7268 24.2372L26.4931 24.4342C25.8644 24.9731 25.1995 25.6366 24.4903 26.4046C24.1357 26.7907 23.769 27.2008 23.3861 27.6311C23.1887 27.8523 22.9952 28.0735 22.8018 28.2906C22.7011 28.4032 22.6044 28.5158 22.5036 28.6244C22.4109 28.7329 22.3182 28.8375 22.2256 28.9461C21.3954 29.8629 20.5855 30.7516 19.8077 31.6121C19.4209 32.0424 19.038 32.4686 18.6673 32.8908L18.1192 33.5182L17.5833 34.1415C16.7935 35.0623 16.0117 35.951 15.2541 36.8115L14.1258 38.0903L13.5737 38.7176L13.2997 39.0272L13.0942 39.2565L13.078 39.2766L13.0498 39.3127L12.9733 39.4012C12.8443 39.55 12.7154 39.6988 12.5824 39.8395C12.4494 39.9803 12.3084 40.121 12.1673 40.2577L12.0625 40.3582L11.9578 40.4548L11.9215 40.4909L11.8651 40.5392L11.8449 40.5553C11.8167 40.5794 11.8087 40.5874 11.8006 40.5915C11.8046 40.5955 11.8006 40.5915 11.7885 40.5794L11.7643 40.5553L11.6757 40.4628L11.313 40.1009C11.0712 39.8596 10.8254 39.6223 10.5796 39.3851L10.4869 39.2967L10.3136 39.1237L10.1041 38.9187C9.96304 38.7819 9.822 38.6452 9.67692 38.5125L9.45932 38.3115L9.31828 38.1747C9.2256 38.0863 9.12888 37.9978 9.03217 37.9093L8.81456 37.7163L8.76217 37.6681C8.69367 37.6078 8.62516 37.5434 8.55263 37.4831C8.48412 37.4228 8.41159 37.3625 8.33905 37.3062C8.28666 37.2619 8.23428 37.2177 8.17786 37.1734C8.12145 37.1292 8.06906 37.085 8.01265 37.0448L7.9925 37.0287L7.87966 36.9443C7.83534 36.9121 7.79101 36.8799 7.74668 36.8517L7.71444 36.8276L7.69027 36.8075L7.63788 36.7713C7.60161 36.7472 7.56535 36.7231 7.52908 36.703L7.50086 36.6869L7.48071 36.6748L7.44042 36.6467C7.41221 36.6306 7.384 36.6145 7.35176 36.5984L7.27923 36.5622C7.25505 36.5502 7.23088 36.5381 7.2067 36.53C7.19461 36.526 7.18654 36.522 7.17848 36.518L7.15028 36.5059C7.00118 36.4456 6.94074 36.4537 6.96491 36.4537C6.98909 36.4537 7.10192 36.4336 7.27117 36.3531L7.29937 36.337L7.3155 36.329C7.31953 36.325 7.32356 36.325 7.33161 36.321C7.35579 36.3089 7.38401 36.2968 7.40819 36.2808C7.46057 36.2526 7.49683 36.2244 7.56131 36.1842C7.61772 36.148 7.67415 36.1078 7.72653 36.0676C7.79101 36.0234 7.85548 35.9711 7.91593 35.9229C7.94817 35.8987 7.97234 35.8706 8.00458 35.8424C8.04085 35.8143 8.07712 35.7821 8.10936 35.754C8.17786 35.6936 8.24637 35.6293 8.30681 35.5649L8.31085 35.5609C15.0486 29.0948 10.1806 33.7675 11.6837 32.3239V32.3279L11.6878 32.3319L11.6958 32.34L11.7079 32.3601C11.724 32.3842 11.7442 32.4123 11.7603 32.4405C11.7845 32.4686 11.8087 32.5008 11.8328 32.533L11.8691 32.5812L11.9134 32.6335C11.9457 32.6697 11.9739 32.7059 12.0061 32.7421L12.1149 32.8627L12.1713 32.923C12.1875 32.9431 12.2157 32.9673 12.2358 32.9874C12.4695 33.2327 12.7677 33.5021 13.1304 33.7956C13.4931 34.0892 13.9122 34.3988 14.3756 34.7366C14.8431 35.0784 15.3589 35.4443 15.9271 35.8665L16.1406 36.0274L16.2494 36.1078L16.33 36.1722C16.4388 36.2566 16.5436 36.3411 16.6524 36.4255C16.87 36.5944 17.0876 36.7593 17.3052 36.9282C19.0662 38.2712 20.9562 39.6103 22.8743 41.0418C23.3539 41.3997 23.8375 41.7616 24.313 42.1276C24.7885 42.4935 25.26 42.8594 25.7274 43.2334C26.6623 43.9773 27.5771 44.7293 28.4717 45.4933C29.3663 46.2574 30.2367 47.0294 31.0789 47.8136C31.502 48.2077 31.9171 48.6017 32.3241 48.9998C32.4289 49.1004 32.5336 49.2049 32.6384 49.3054C32.7472 49.41 32.852 49.5145 32.9568 49.6231C33.1703 49.8322 33.3718 50.0453 33.5814 50.2585C34.1939 50.8496 34.9596 51.489 35.7574 52.1364C36.5553 52.7798 37.3935 53.4312 38.1672 54.0465C38.9409 54.6617 39.6542 55.2367 40.2103 55.7555C40.4884 56.0168 40.7302 56.2581 40.9236 56.4913C41.0203 56.6039 41.1009 56.7165 41.1694 56.8251C41.2057 56.8774 41.2339 56.9337 41.2621 56.9859C41.2742 57.0101 41.2903 57.0382 41.3024 57.0624C41.3104 57.0744 41.3145 57.0865 41.3225 57.1026C41.3306 57.1187 41.3386 57.1307 41.3427 57.1468C41.383 57.2111 41.4112 57.2674 41.4394 57.3237C41.4676 57.38 41.4877 57.4323 41.5079 57.4846C41.5482 57.5891 41.5764 57.6856 41.5925 57.7781C41.6288 57.9631 41.6207 58.128 41.5764 58.2808C41.4958 58.5824 41.2782 58.8317 41.0122 59.0609C40.8954 58.9724 40.7785 58.8799 40.6616 58.7874C40.5448 58.695 40.432 58.6025 40.3111 58.5019L39.9403 58.1964C39.8194 58.0958 39.6985 57.9953 39.5736 57.8948C39.086 57.4886 38.6024 57.0744 38.1148 56.6522C37.1396 55.8077 36.1685 54.9432 35.1731 54.0666C34.6775 53.6282 34.1738 53.1899 33.666 52.7516C33.1583 52.3133 32.6465 51.875 32.1226 51.4407C31.8647 51.2236 31.5947 51.0064 31.3328 50.7893C31.0749 50.5802 30.821 50.3711 30.5631 50.166C30.0513 49.7518 29.5355 49.3376 29.0237 48.9234C27.7906 47.8739 26.5454 46.8324 25.2841 45.7989C24.6555 45.2842 24.0188 44.7695 23.3781 44.2588C22.7414 43.7481 22.0926 43.2374 21.4478 42.7348C20.1623 41.7295 18.8849 40.7443 17.6397 39.7631C17.0191 39.2725 16.4026 38.7779 15.7981 38.2833L15.3468 37.9133L15.1211 37.7243L14.8431 37.5032L14.706 37.3946L14.5731 37.2901L14.3031 37.081L13.7873 36.6869C13.9525 36.8196 14.1177 36.9563 14.2829 37.089L14.5408 37.3021L14.8028 37.5193L15.0687 37.7444L15.101 37.7726L15.1292 37.7967L15.1816 37.845L15.2904 37.9415C15.4354 38.0662 15.5765 38.1948 15.7256 38.3195C16.3059 38.8221 16.9063 39.3208 17.5148 39.8194C18.7318 40.8127 19.9971 41.7978 21.2866 42.8031C21.9314 43.3058 22.5802 43.8125 23.229 44.3191C23.8778 44.8258 24.5225 45.3365 25.1673 45.8472C26.4568 46.8686 27.7423 47.898 29.0237 48.9315C29.5234 49.3577 30.0231 49.784 30.5228 50.2142L31.2683 50.8576C31.5222 51.0828 31.7841 51.304 32.034 51.5292C32.5417 51.9755 33.0333 52.4299 33.5209 52.8803C34.0085 53.3307 34.4921 53.7851 34.9636 54.2355C35.9146 55.1362 36.8455 56.0289 37.7763 56.9055C38.2398 57.3398 38.7032 57.7741 39.1706 58.1964C39.4044 58.4095 39.6381 58.6185 39.8718 58.8276L40.2184 59.1373C40.3312 59.2378 40.444 59.3343 40.5569 59.4308C40.3111 59.6158 40.0572 59.8048 39.8517 60.022C39.6461 60.2431 39.493 60.4965 39.4406 60.8181C39.4406 60.8181 39.5172 60.8785 39.6462 60.971C39.7751 61.0635 39.9524 61.1962 40.1499 61.3329C40.5488 61.6144 41.0364 61.928 41.3588 62.109C41.5965 62.4508 41.79 62.7604 41.9753 63.0379C42.068 63.1786 42.1607 63.3113 42.2615 63.436C42.3622 63.5606 42.471 63.6773 42.612 63.7778C42.7531 63.8783 42.9304 63.9547 43.1319 63.9788C43.3334 64.007 43.551 63.9828 43.7363 63.9426C43.9217 63.9064 44.0829 63.8622 44.2159 63.8542C44.3529 63.8421 44.4698 63.8501 44.5665 63.9024C44.6632 63.9547 44.7357 64.0472 44.776 64.192C44.7841 64.2282 44.7921 64.2684 44.7962 64.3086C44.8002 64.3528 44.8042 64.397 44.8002 64.4453C44.7921 64.5458 44.772 64.6624 44.7317 64.7871C44.6874 64.9118 44.6229 65.0525 44.5342 65.1933C44.4456 65.334 44.3287 65.4828 44.1957 65.6155C44.1635 65.6517 44.1272 65.6838 44.0869 65.716C44.0668 65.7321 44.0507 65.7482 44.0305 65.7683C44.0144 65.7844 43.9942 65.8005 43.9741 65.8165C43.9016 65.8769 43.821 65.9412 43.7323 65.9975C43.5792 66.1061 43.3898 66.2106 43.2286 66.291C42.8861 66.4559 42.5476 66.5685 42.2494 66.6449C41.9512 66.7253 41.6771 66.7776 41.4192 66.8178C41.3588 66.8299 41.2943 66.8379 41.2298 66.846C41.1694 66.854 41.1089 66.862 41.0485 66.8701C40.9921 66.8781 40.9316 66.8821 40.8712 66.8902C40.8148 66.8942 40.7584 66.9023 40.6979 66.9063C40.6415 66.9103 40.5851 66.9143 40.5287 66.9224C40.4763 66.9264 40.4199 66.9304 40.3634 66.9344C40.2587 66.9425 40.1499 66.9465 40.0491 66.9545C39.8557 66.9465 39.6582 66.9384 39.4527 66.9264C39.2593 66.9183 39.0659 66.9063 38.8765 66.8942C38.6871 66.8822 38.4977 66.866 38.3083 66.85C38.1027 66.866 37.9134 66.846 37.724 66.8259Z" fill="#DADADA"/>
<path d="M57.4528 58.3266C57.1788 57.9285 56.9773 57.5706 56.8242 57.2811C56.7315 57.1162 56.6549 56.9755 56.6025 56.8709C56.5743 56.8146 56.5622 56.7825 56.5582 56.7543L56.4252 56.5412C56.3366 56.4005 56.2479 56.2597 56.1592 56.123C56.0706 55.9822 55.9819 55.8455 55.8893 55.7088C55.7079 55.4313 55.5226 55.1659 55.3372 54.8965C55.1518 54.6311 54.9624 54.3657 54.769 54.1084C54.5756 53.851 54.3821 53.5896 54.1847 53.3403C54.0839 53.2156 53.9872 53.087 53.8865 52.9623C53.7857 52.8377 53.685 52.713 53.5842 52.5924L53.4311 52.4074L53.278 52.2264C53.1772 52.1058 53.0725 51.9851 52.9677 51.8605C52.8629 51.7399 52.7581 51.6233 52.6534 51.5026C52.5486 51.382 52.4438 51.2653 52.339 51.1487C52.2343 51.0321 52.1255 50.9155 52.0207 50.7989C51.9119 50.6823 51.8031 50.5697 51.6983 50.4531C51.4847 50.2198 51.2631 49.9987 51.0415 49.7695C50.5982 49.3231 50.1469 48.8808 49.6834 48.4505C49.4538 48.2294 49.216 48.0243 48.9823 47.8071C48.7203 47.5739 48.4544 47.3367 48.1884 47.0994C47.6525 46.6209 47.1165 46.1343 46.5805 45.6357C45.9841 45.0325 45.3474 44.4534 44.6785 43.8904C44.344 43.609 44.0015 43.3355 43.6509 43.0661C43.4776 42.9294 43.3003 42.7967 43.123 42.664C43.0424 42.6037 42.9618 42.5433 42.8772 42.483C42.7966 42.4227 42.712 42.3624 42.6274 42.3061C41.9504 41.8316 41.2008 41.3692 40.411 40.8866C40.0161 40.6454 39.6131 40.396 39.2021 40.1387C38.9966 40.01 38.791 39.8773 38.5855 39.7446C38.4808 39.6762 38.38 39.6079 38.2752 39.5395C38.1745 39.4712 38.0737 39.4028 37.973 39.3344C37.9529 39.3224 37.9327 39.3063 37.9126 39.2942L37.836 39.2459C37.7594 39.1977 37.6788 39.1495 37.6023 39.1012C37.429 38.9926 37.2315 38.868 37.026 38.7272C36.8165 38.5865 36.5948 38.4296 36.3611 38.2406C36.1234 38.0517 35.8695 37.8345 35.5874 37.5369C35.8695 37.8466 36.1193 38.0758 36.3531 38.2728C36.5868 38.4699 36.8004 38.6388 37.0059 38.7876C37.2074 38.9363 37.3968 39.069 37.562 39.1897L37.6788 39.2741L37.7796 39.3465L37.8199 39.3787C37.832 39.3867 37.84 39.3947 37.8481 39.4028C37.8682 39.4189 37.8843 39.4309 37.9005 39.447C38.0254 39.5435 38.1503 39.636 38.2752 39.7325C38.4042 39.825 38.5331 39.9215 38.6581 40.014C38.787 40.1065 38.9119 40.199 39.0369 40.2875L39.4157 40.5528C39.9153 40.9027 40.4029 41.2325 40.8744 41.5501C41.3419 41.8718 41.7932 42.1815 42.2163 42.4871C42.4299 42.6399 42.6354 42.7927 42.8329 42.9455L43.4938 43.4562C45.2668 44.8354 47.0158 46.2871 48.7284 47.7991C48.8412 47.8956 48.9258 47.98 49.0226 48.0645L49.3006 48.3218C49.486 48.4988 49.6673 48.6797 49.8487 48.8566C50.026 49.0416 50.2073 49.2226 50.3806 49.4116L50.6425 49.6971C50.7312 49.7936 50.8158 49.8861 50.9004 49.9826C51.5855 50.7547 52.2383 51.571 52.8549 52.4275C53.4754 53.28 54.0597 54.1727 54.6239 55.0976C54.906 55.56 55.18 56.0305 55.446 56.505C55.579 56.7422 55.7119 56.9835 55.8449 57.2248L55.8691 57.269L55.8812 57.2932L55.8893 57.3052C55.8893 57.3092 55.8893 57.3092 55.8893 57.3092V57.3253C55.8893 57.3294 55.8893 57.3334 55.8893 57.3414L55.8933 57.3655C55.8933 57.3736 55.8973 57.3816 55.9013 57.3937L55.9134 57.4259C55.9175 57.4339 55.9215 57.446 55.9255 57.458C55.9618 57.5505 56.0222 57.6711 56.0907 57.8119C55.9416 57.7596 55.8006 57.7114 55.6797 57.6872C55.6515 57.6832 55.6193 57.6752 55.591 57.6711L55.5508 57.6671H55.5145L55.4823 57.6711H55.4661C55.4621 57.6711 55.4581 57.6752 55.454 57.6752L55.4299 57.6872L55.4218 57.6912H55.4178L55.4702 57.647L55.4984 57.6229C55.5225 57.6028 55.3412 57.7556 55.4178 57.6912H55.4137L55.4057 57.6872L55.3936 57.6832C55.1155 57.5827 54.8415 57.458 54.5796 57.3173C54.0517 57.0358 53.5681 56.6739 53.1571 56.1994C53.0483 56.0466 52.9355 55.8897 52.8266 55.741C52.7178 55.5922 52.605 55.4434 52.4962 55.2906C52.3874 55.1458 52.2746 54.9971 52.1658 54.8523L52.0006 54.6351L51.8353 54.422C51.6137 54.1325 51.3921 53.859 51.1704 53.5816C51.0576 53.4448 50.9488 53.3122 50.836 53.1754C50.7231 53.0387 50.6103 52.91 50.4975 52.7773C50.2718 52.5119 50.0461 52.2586 49.8164 52.0053C49.7036 51.8806 49.5867 51.76 49.4739 51.6353C49.4175 51.575 49.3611 51.5106 49.3006 51.4503L48.9541 51.0965L48.8654 51.008L48.7768 50.9236L48.4262 50.5778C48.3093 50.4652 48.1884 50.3566 48.0716 50.244C48.0111 50.1877 47.9547 50.1314 47.8942 50.0791L47.7129 49.9183C47.8983 49.689 48.2569 49.2467 48.4383 49.0215C48.3254 48.9532 48.2166 48.8808 48.1078 48.8084C47.9829 48.724 47.8539 48.6395 47.729 48.5591C47.4752 48.3902 47.2293 48.2213 46.9795 48.0524C46.4879 47.7106 46.0043 47.3648 45.5288 47.0149C44.5778 46.3152 43.663 45.5995 42.7603 44.8837C42.5347 44.7068 42.309 44.5258 42.0874 44.3489L41.7851 44.1076C41.6884 44.0312 41.5877 43.9508 41.4869 43.8744C41.0799 43.5607 40.6407 43.231 40.1732 42.8892C39.6776 42.5273 39.186 42.1694 38.6903 41.8075L38.2954 41.5179L38.0979 41.3692L37.8964 41.2163C37.7635 41.1158 37.6264 41.0113 37.4894 40.9067C37.3524 40.8022 37.2235 40.6976 37.0905 40.5931L37.0583 40.5569C37.0542 40.5529 37.0542 40.5529 37.0502 40.5488L37.03 40.5327C37.018 40.5207 37.0059 40.5127 36.9857 40.4966L36.9293 40.4564L36.8648 40.4081L36.7157 40.3036C36.5022 40.1508 36.2563 39.9738 35.9783 39.7607L35.8735 39.6803L35.7647 39.5958C35.6922 39.5395 35.6156 39.4752 35.539 39.4108C35.5028 39.3787 35.4585 39.3465 35.4182 39.3103L35.2973 39.2057L35.1038 39.0369L35.0353 38.9725L34.9023 38.8438C34.858 38.7996 34.8056 38.7473 34.7613 38.6991C34.6686 38.6066 34.5638 38.49 34.4631 38.3774C34.4389 38.3492 34.4107 38.3171 34.3825 38.2849L34.2012 38.0677L34.181 38.0396L34.1367 37.9833C34.0803 37.9069 34.0198 37.8305 33.9674 37.7541C33.907 37.6656 33.8425 37.5731 33.7861 37.4807L33.7418 37.4123L33.7216 37.3761L33.6974 37.3359C33.6652 37.2836 33.633 37.2273 33.6007 37.171C33.5685 37.1147 33.5403 37.0625 33.508 37.0062L33.4879 36.966L33.4637 36.9217L33.4154 36.8252C33.3831 36.7609 33.3549 36.6925 33.3227 36.6282L33.2784 36.5276L33.2582 36.4794L33.2381 36.4271C33.1776 36.2703 33.1212 36.1134 33.0728 35.9526L33.0527 35.8923L33.0446 35.8601L33.0366 35.8239L33.0003 35.6872C32.9761 35.5947 32.956 35.5022 32.9358 35.4097L32.9076 35.269L32.8955 35.1966L32.8834 35.1202C32.8673 35.0157 32.8552 34.9111 32.8472 34.8066C32.8391 34.702 32.8311 34.5975 32.827 34.4929C32.823 34.3843 32.823 34.2717 32.827 34.1591C32.8311 33.9339 32.8472 33.7128 32.8834 33.4876C32.8996 33.375 32.9197 33.2624 32.9439 33.1498C32.9681 33.0412 32.9922 32.9246 33.0205 32.8241C33.0769 32.615 33.1494 32.4059 33.226 32.2008C33.2461 32.1485 33.2663 32.1043 33.2864 32.0601C33.3066 32.0158 33.3267 31.9676 33.3469 31.9233C33.3872 31.8309 33.4315 31.7424 33.4798 31.6539C33.504 31.6097 33.5282 31.5655 33.5524 31.5212C33.5645 31.5011 33.5766 31.477 33.5886 31.4569L33.6209 31.4006C33.6652 31.3242 33.7136 31.2518 33.7619 31.1794C33.8103 31.107 33.8586 31.0346 33.911 30.9623L33.9513 30.91L33.9715 30.8818L34.0359 30.8014C34.1004 30.721 34.1649 30.6406 34.2294 30.5601C34.2938 30.4878 34.3583 30.4154 34.4228 30.343C34.455 30.3068 34.4873 30.2747 34.5155 30.2425L34.6082 30.146C34.6404 30.1138 34.6726 30.0816 34.7009 30.0535L34.7895 29.969C34.85 29.9128 34.9104 29.8564 34.9628 29.8122C35.0192 29.764 35.0756 29.7157 35.128 29.6715L35.2852 29.5468C35.4826 29.39 35.6559 29.2693 35.801 29.1688L36.0831 28.9758C36.1113 28.9557 36.1395 28.9356 36.1677 28.9155C36.2322 28.8632 36.2926 28.8069 36.345 28.7466C36.3732 28.7184 36.3974 28.6823 36.4216 28.6541C36.4336 28.638 36.4457 28.6219 36.4578 28.6058L36.478 28.5777L36.5102 28.5375C36.6915 28.2962 36.9414 27.9102 37.2879 27.3955L37.425 27.1944L37.5741 26.9813C37.6708 26.8445 37.7675 26.7119 37.8602 26.5751C38.0455 26.3178 38.2309 26.0604 38.4203 25.8031C38.787 25.3044 39.1336 24.8259 39.4519 24.3675C39.1134 24.5002 39.0731 24.1986 38.9885 24.0177C39.0046 24.0016 39.0167 23.9855 39.0328 23.9694C39.0207 23.9855 39.0046 24.0016 38.9885 24.0177C38.9482 23.9372 38.8998 23.8849 38.8112 23.901C38.7669 23.9091 38.7105 23.9372 38.6419 23.9895C38.6057 24.0177 38.5694 24.0458 38.5251 24.086C38.4808 24.1262 38.4364 24.1745 38.384 24.2308C38.4364 24.1745 38.4848 24.1262 38.5251 24.086C38.5694 24.0458 38.6057 24.0136 38.6419 23.9895C38.7105 23.9372 38.7669 23.9091 38.8112 23.901C38.8998 23.8809 38.9482 23.9372 38.9885 24.0177C38.6218 24.4278 38.2309 24.8702 37.8239 25.3447L37.6708 25.5256L37.5176 25.7106C37.4129 25.8352 37.3081 25.9639 37.2074 26.0886L37.0502 26.2856L36.9736 26.3821L36.893 26.4867C36.7802 26.6314 36.6795 26.7641 36.5827 26.8888C36.4256 27.1019 36.2644 27.315 36.1072 27.5322C35.9783 27.7091 35.8735 27.8458 35.7929 27.9423C35.7728 27.9665 35.7647 27.9785 35.7566 27.9906C35.7486 27.9986 35.7405 28.0067 35.7365 28.0188C35.7284 28.0268 35.7204 28.0348 35.7123 28.0429C35.7043 28.0509 35.6962 28.0589 35.6881 28.067C35.6559 28.0992 35.6237 28.1314 35.5874 28.1595C35.5713 28.1716 35.5552 28.1836 35.539 28.1957L35.257 28.3887C35.1038 28.4973 34.9185 28.63 34.6968 28.8069L34.5235 28.9476L34.4792 28.9879L34.4309 29.0281L34.3382 29.1085C34.2777 29.1608 34.2092 29.2251 34.1407 29.2854L34.04 29.3779C34.0077 29.4101 33.9674 29.4463 33.9352 29.4825L33.8304 29.591C33.7942 29.6272 33.7619 29.6634 33.7257 29.7036C33.6531 29.784 33.5806 29.8645 33.508 29.9489C33.4355 30.0374 33.3589 30.1299 33.2864 30.2224L33.234 30.2907L33.1937 30.347L33.1494 30.4073C33.089 30.4918 33.0325 30.5762 32.9761 30.6607C32.9197 30.7451 32.8673 30.8336 32.8149 30.918L32.7746 30.9824C32.7625 31.0025 32.7464 31.0306 32.7343 31.0548C32.7061 31.1071 32.6779 31.1553 32.6537 31.2076C32.6014 31.3121 32.549 31.4167 32.5006 31.5212C32.4764 31.5735 32.4523 31.6258 32.4281 31.6821L32.3918 31.7625C32.3797 31.7866 32.3676 31.8188 32.3555 31.8469C32.2629 32.0842 32.1823 32.3255 32.1178 32.5748C32.0855 32.6954 32.0533 32.8281 32.0291 32.9568C32.005 33.0855 31.9808 33.2182 31.9606 33.3509C31.9203 33.6163 31.9042 33.8736 31.9002 34.135C31.8962 34.2637 31.9002 34.3964 31.9042 34.5251C31.9082 34.6457 31.9203 34.7704 31.9324 34.891C31.9445 35.0116 31.9606 35.1363 31.9767 35.2569L31.9888 35.3494L32.005 35.4298C32.017 35.4821 32.0251 35.5384 32.0372 35.5907C32.0614 35.6993 32.0856 35.8078 32.1138 35.9124C32.1259 35.9647 32.142 36.021 32.1581 36.0732L32.1702 36.1134L32.1823 36.1496L32.2024 36.218C32.2588 36.403 32.3273 36.5839 32.3958 36.7649L32.42 36.8252L32.4442 36.8815L32.4966 36.9981C32.5329 37.0745 32.5651 37.1509 32.6014 37.2273L32.6578 37.3399L32.686 37.3922L32.7102 37.4404C32.7464 37.5048 32.7787 37.5651 32.8149 37.6295C32.8512 37.6938 32.8875 37.7541 32.9237 37.8144L32.9519 37.8586L32.9761 37.8988L33.0285 37.9793C33.097 38.0838 33.1695 38.1884 33.2381 38.2849C33.3025 38.3734 33.367 38.4578 33.4355 38.5422L33.508 38.6388L33.5322 38.6669L33.7176 38.884C33.7498 38.9202 33.7821 38.9564 33.8103 38.9846C33.9231 39.1092 34.044 39.2379 34.1488 39.3385L34.2294 39.4189C34.2576 39.443 34.2858 39.4752 34.31 39.4953L34.4591 39.636L34.5356 39.7044L34.6041 39.7647L34.7452 39.8853L34.8782 39.9979C34.9225 40.0341 34.9668 40.0703 35.0071 40.1025C35.0917 40.1668 35.1764 40.2352 35.2529 40.2955L35.3738 40.384L35.4867 40.4684C35.7889 40.6896 36.0508 40.8625 36.2725 41.0113L36.5465 41.1962L36.5908 41.2284L36.6069 41.2405C36.611 41.2445 36.611 41.2445 36.615 41.2445L36.6351 41.2646C36.7721 41.3611 36.9051 41.4616 37.0421 41.5581C37.1791 41.6547 37.3202 41.7552 37.4572 41.8517L37.6627 41.9965L37.8642 42.1372L38.2631 42.4106C38.7628 42.7444 39.2585 43.0822 39.7582 43.416C40.2256 43.7336 40.6609 44.0352 41.0598 44.3328L41.1364 44.3891L41.2089 44.4454L41.354 44.5539C41.4507 44.6263 41.5393 44.6987 41.632 44.7711C41.8496 44.94 42.0672 45.1129 42.2889 45.2858C43.1633 45.9815 44.0337 46.7013 44.9042 47.4452C45.3394 47.8192 45.7746 48.1932 46.2138 48.5792C46.4314 48.7722 46.6531 48.9652 46.8707 49.1582C46.9795 49.2547 47.0883 49.3513 47.2011 49.4518L47.3663 49.6006L47.4469 49.673L47.5154 49.7373L47.4469 49.677L47.3623 49.6046L47.1971 49.4639L46.8626 49.1824C46.641 48.9974 46.4194 48.8124 46.1977 48.6275C45.7544 48.2615 45.3112 47.8956 44.8679 47.5417C43.9814 46.83 43.0908 46.1383 42.1962 45.4708C41.9745 45.3059 41.7489 45.141 41.5232 44.9762L41.2371 44.7711L41.088 44.6666C41.0396 44.6304 40.9913 44.5982 40.9389 44.562C40.5319 44.2845 40.0886 43.995 39.6131 43.6894C39.1376 43.3838 38.6258 43.0621 38.0858 42.7163L37.6748 42.4509L37.4653 42.3142L37.2557 42.1734C37.1147 42.0809 36.9696 41.9804 36.8286 41.8839C36.6835 41.7874 36.5505 41.6909 36.4095 41.5944L36.0468 41.3611C35.8171 41.2164 35.5471 41.0394 35.2328 40.8142L35.1159 40.7298L34.991 40.6373C34.9104 40.577 34.8217 40.5086 34.7331 40.4403C34.6928 40.4081 34.6404 40.3679 34.5961 40.3317L34.455 40.2191L34.3059 40.0944L34.2334 40.0301L34.1528 39.9577L33.9957 39.813C33.9392 39.7607 33.8828 39.7044 33.8264 39.6481L33.6974 39.5194L33.6531 39.4712C33.5927 39.4068 33.5322 39.3425 33.4718 39.2781L33.4234 39.2258L33.2784 39.057L33.1816 38.9404L33.1575 38.9082L33.1293 38.876L33.0769 38.8077C33.0043 38.7152 32.9399 38.6267 32.8673 38.5342C32.7908 38.4257 32.7182 38.3171 32.6457 38.2085C32.5772 38.108 32.4926 37.9632 32.416 37.8345C32.3797 37.7662 32.3394 37.7018 32.3032 37.6335L32.2749 37.5812L32.2467 37.5209L32.1863 37.4002C32.146 37.3198 32.1097 37.2394 32.0735 37.159L32.0211 37.0383L31.9969 36.978L31.9687 36.9096C31.8921 36.7166 31.8236 36.5236 31.7632 36.3266L31.739 36.2501L31.7148 36.1657C31.6987 36.1094 31.6826 36.0531 31.6705 35.9968C31.6423 35.8842 31.6141 35.7676 31.5939 35.651C31.5818 35.5947 31.5697 35.5344 31.5617 35.4781C31.5577 35.45 31.5496 35.4178 31.5456 35.3856L31.5294 35.2891C31.5093 35.1604 31.4972 35.0317 31.4851 34.899C31.473 34.7663 31.465 34.6417 31.4609 34.505C31.4569 34.3642 31.4569 34.2275 31.4609 34.0867C31.469 33.8093 31.4891 33.5318 31.5335 33.2503C31.5536 33.1096 31.5778 32.9688 31.606 32.8321C31.6221 32.7638 31.6342 32.6954 31.6503 32.6271C31.6665 32.5587 31.6826 32.4943 31.7027 32.43C31.7753 32.1686 31.8639 31.9073 31.9606 31.658C32.0533 31.4287 32.1621 31.2035 32.2749 30.9824C32.3032 30.9261 32.3314 30.8738 32.3636 30.8175C32.3797 30.7894 32.3918 30.7693 32.4079 30.7451L32.4482 30.6768C32.5047 30.5843 32.5611 30.4918 32.6215 30.4033C32.6819 30.3108 32.7424 30.2224 32.8069 30.1339C32.8834 30.0294 32.9036 30.0012 32.9439 29.9489L33.0608 29.8001L33.1212 29.7278C33.1413 29.7036 33.1615 29.6795 33.1776 29.6594C33.2542 29.5709 33.3307 29.4865 33.4073 29.398L33.4355 29.3659L33.7418 29.0602L33.8465 28.9597L33.9513 28.8632L34.0037 28.819L34.0521 28.7747L34.1488 28.6903C34.181 28.6621 34.2173 28.63 34.2455 28.6098L34.4268 28.4611C34.6525 28.2801 34.8459 28.1394 35.0031 28.0268L35.2005 27.8901L35.2731 27.8418C35.2771 27.8378 35.2811 27.8378 35.2811 27.8338C35.2892 27.8257 35.3013 27.8177 35.3093 27.8097C35.3456 27.7775 35.3779 27.7373 35.4061 27.6971L35.4101 27.689L35.4182 27.677L35.4383 27.6528L35.4504 27.6408L35.4625 27.6247L35.5149 27.5563L35.5753 27.4759L35.6438 27.3874L35.7163 27.2869L35.8896 27.0496L36.0951 26.7762L36.212 26.6234L36.3369 26.4585L36.4014 26.3741L36.4699 26.2856L36.611 26.1046L36.881 25.7709C37.2396 25.3366 37.5902 24.9345 37.9247 24.5605C38.5976 23.8126 39.2101 23.1692 39.7259 22.5941C39.8549 22.4494 39.9798 22.3127 40.0927 22.18C40.1531 22.1116 40.2055 22.0472 40.2619 21.9829L40.4674 21.7416C40.7697 21.3878 41.0759 21.0339 41.3902 20.676C42.6475 19.2485 44.0176 17.7888 45.561 16.3814L45.8512 16.116L46.1453 15.8546C46.3186 15.7058 46.4879 15.553 46.6611 15.4042C46.9835 15.1187 47.3059 14.8332 47.6323 14.5477C48.273 13.9807 48.9017 13.4137 49.5142 12.8467C49.7157 12.6617 50.0139 12.3802 50.3081 12.1028C50.6022 11.8213 50.8883 11.5439 51.0818 11.3549C51.6137 11.1337 52.1174 10.8803 52.5929 10.6029C52.8266 10.4621 53.0604 10.3174 53.282 10.1605L53.4472 10.044C53.4754 10.0238 53.4996 10.0078 53.5319 9.98364L53.6205 9.91927L53.7092 9.85091L53.7978 9.77853L53.9872 9.62573C54.1121 9.52118 54.2491 9.40455 54.3862 9.28794L54.8173 8.91397C55.1155 8.65661 55.4379 8.37915 55.7966 8.08962C56.1552 7.8001 56.5461 7.49851 56.9974 7.1929L57.1667 7.08032L57.3319 6.97574C57.4407 6.90336 57.5535 6.83904 57.6664 6.77067C57.892 6.63797 58.1217 6.50928 58.3555 6.39267C58.3232 6.60981 58.3796 6.81088 58.4844 7.0039C58.5892 7.19289 58.7343 7.37384 58.8914 7.55882C59.0486 7.73977 59.2138 7.92475 59.3548 8.10973C59.4959 8.29471 59.6168 8.48772 59.6893 8.68476C59.7618 8.88179 59.786 9.08285 59.7498 9.28794C59.7095 9.49704 59.6047 9.71421 59.4233 9.95548C59.379 10.0158 59.3266 10.0801 59.2702 10.1404C59.2138 10.2048 59.1493 10.2731 59.0849 10.3415C58.9519 10.4782 58.8028 10.627 58.6335 10.7838C58.295 11.0975 57.884 11.4634 57.3924 11.8776C57.6019 12.0747 58.025 12.4768 58.2346 12.6738C58.7826 12.3561 59.3508 12.1269 59.8868 12.0224C60.1568 11.9701 60.4106 11.95 60.6565 11.958C60.9023 11.9661 61.136 12.0023 61.3536 12.0626C61.7888 12.1832 62.1595 12.4084 62.4497 12.6698C62.7439 12.9352 62.9574 13.2448 63.1106 13.5545C63.304 13.8359 63.4289 14.1375 63.4732 14.4512C63.4853 14.5276 63.4894 14.608 63.4894 14.6844C63.4894 14.7246 63.4894 14.7648 63.4853 14.801C63.4853 14.8211 63.4813 14.8413 63.4813 14.8614C63.4853 14.8774 63.4853 14.8975 63.4894 14.9136C63.5055 15.0584 63.5176 15.1951 63.5296 15.3318C63.5498 15.6053 63.5619 15.8626 63.582 16.0959C63.5941 16.2125 63.6062 16.321 63.6183 16.4216C63.6264 16.4698 63.6304 16.5221 63.6385 16.5663C63.6465 16.5864 63.6546 16.6066 63.6626 16.6226C63.6667 16.6347 63.6667 16.6427 63.6707 16.6548L63.6747 16.6709V16.687C63.6747 16.699 63.6747 16.7111 63.6747 16.7232L63.6667 16.7634C63.6626 16.7754 63.6586 16.7915 63.6546 16.8036C63.6505 16.8197 63.6465 16.8317 63.6385 16.8478C63.6143 16.9081 63.582 16.9805 63.5417 17.061C63.4974 17.1414 63.445 17.2298 63.3846 17.3264C63.3201 17.4269 63.2516 17.5314 63.171 17.648C63.0904 17.7687 62.9977 17.8933 62.893 18.0341C62.8647 18.0703 62.8365 18.1065 62.8124 18.1426C62.7842 18.1788 62.7559 18.219 62.7237 18.2552C62.6955 18.2914 62.6633 18.3357 62.627 18.3759C62.5948 18.4161 62.5625 18.4563 62.5262 18.5006C62.2643 18.8303 61.9863 19.152 61.7042 19.4737C60.5638 20.7565 59.2783 21.9668 57.9565 23.1169C57.2956 23.6919 56.6267 24.2549 55.9618 24.8098C55.6314 25.0832 55.3009 25.3607 54.9664 25.6382L54.7569 25.8151C54.6924 25.8714 54.6239 25.9237 54.5594 25.98C54.4305 26.0926 54.2975 26.2052 54.1686 26.3258C53.1369 27.2587 52.1456 28.3404 51.247 29.5508C50.9971 29.8685 50.7473 30.1862 50.4975 30.5119C50.433 30.5964 50.3806 30.6647 50.2879 30.7813C50.2033 30.8859 50.1187 30.9945 50.034 31.095C49.8648 31.3001 49.7036 31.4971 49.5424 31.6861C48.9017 32.4421 48.3295 33.0895 47.858 33.6525C47.6202 33.9339 47.4107 34.1873 47.2293 34.4245L47.0964 34.5974L46.9795 34.7502L46.649 35.1926C46.5161 35.3695 46.3508 35.5827 46.1655 35.8199L46.0204 36.0009L45.8189 36.2421L45.6859 36.3989L45.5812 36.5196L45.4724 36.6402C44.8881 37.2916 44.2433 37.8868 43.5421 38.4015C43.4132 38.494 43.2842 38.5865 43.1553 38.6709L42.9578 38.8036L42.8006 38.9082L42.7644 38.9283L42.7483 38.9404L42.7402 38.9444L42.7362 38.9484L42.716 38.9605L42.7039 38.9645C42.7039 38.9645 42.7039 38.9645 42.6999 38.9645H42.6959L42.6556 38.9082L42.5468 38.7554L42.3251 38.4538L42.2768 38.3894L42.2486 38.3492L41.9463 37.927C41.7811 37.7058 41.6159 37.4806 41.4466 37.2635L41.4144 37.2233L41.3902 37.1911L41.2693 37.0343L41.1081 36.8212L40.9429 36.6121L40.8583 36.5075L40.818 36.4593L40.7898 36.4231C40.7132 36.3266 40.6367 36.2301 40.5561 36.1336L40.4352 35.9928L40.4029 35.9566L40.3788 35.9285L40.3344 35.8762C40.274 35.8078 40.2176 35.7355 40.1531 35.6711L40.1047 35.6189L40.0806 35.5947C40.0725 35.5867 40.0685 35.5826 40.0604 35.5746L39.9919 35.4982C39.9436 35.4459 39.8952 35.3977 39.8468 35.3494C39.8186 35.3213 39.8065 35.3052 39.7864 35.2851L39.73 35.2288L39.6695 35.1725L39.6413 35.1443C39.6333 35.1363 39.6212 35.1242 39.6131 35.1202C39.5849 35.0921 39.5527 35.0639 39.5204 35.0358C39.4882 35.0076 39.4519 34.9794 39.4318 34.9634C39.4076 34.9433 39.3834 34.9231 39.3552 34.903L39.3351 34.887L39.327 34.8789L38.7467 34.4446L38.7427 34.4406C38.7306 34.4326 38.7225 34.4245 38.7104 34.4165C38.6702 34.3843 38.6057 34.3522 38.5815 34.3361C38.5654 34.328 38.5452 34.32 38.5291 34.312C38.517 34.3079 38.517 34.3079 38.513 34.3039C38.509 34.3039 38.5049 34.2999 38.5009 34.2999C38.4969 34.2999 38.4888 34.2959 38.4848 34.2959H38.4727C38.4808 34.2959 38.4848 34.2959 38.4928 34.2959C38.4928 34.2959 38.5049 34.2959 38.509 34.2959C38.517 34.2959 38.5251 34.2959 38.5331 34.2959C38.5412 34.2959 38.5493 34.2959 38.5533 34.2919C38.5614 34.2919 38.5654 34.2878 38.5775 34.2878C38.6016 34.2838 38.6258 34.2798 38.646 34.2717C38.6581 34.2677 38.6661 34.2637 38.6782 34.2596C38.6943 34.2556 38.7105 34.2516 38.7225 34.2476C38.9522 34.1752 39.2907 33.9902 39.6937 33.6766C40.0967 33.3629 40.5601 32.9286 41.084 32.3657C41.1525 32.2933 41.217 32.2209 41.2814 32.1485L41.354 32.0641L41.3822 32.0319L41.491 31.9113C41.5635 31.8309 41.632 31.7464 41.7046 31.666L41.8093 31.5413L41.8335 31.5092L41.8617 31.473L41.9222 31.4046C42.0028 31.3121 42.0793 31.2196 42.1559 31.1231L42.2687 30.9824L42.3251 30.91C42.3453 30.8859 42.3614 30.8618 42.3856 30.8336C42.4742 30.725 42.5589 30.6164 42.6435 30.5079L42.7724 30.343L42.8691 30.2224L42.8732 30.2183C42.8571 30.2505 42.9175 30.3349 43.0505 30.4596C43.119 30.5239 43.2036 30.5923 43.3205 30.6888L43.4212 30.7652L43.5421 30.8577C43.6469 30.9341 43.7476 31.0145 43.8484 31.0909C43.9693 31.1995 44.0902 31.3081 44.207 31.4086C44.2675 31.4609 44.3239 31.5132 44.3884 31.5654L44.5778 31.7223C44.8357 31.9314 45.1137 32.1485 45.4039 32.3697C45.698 32.5908 46.0083 32.8201 46.3347 33.0533C46.6732 33.2986 47.0158 33.5439 47.3543 33.7932C47.7089 34.0506 48.0756 34.32 48.4463 34.6055L48.7284 34.8226L48.9742 35.0157C49.1354 35.1443 49.3006 35.273 49.4618 35.4017C50.1106 35.9164 50.7473 36.4392 51.38 36.9619C52.0086 37.4847 52.6292 38.0155 53.2377 38.5503C53.5399 38.8157 53.8421 39.0851 54.1363 39.3545C54.2854 39.4913 54.4305 39.624 54.5796 39.7607C54.7247 39.8974 54.8738 40.0341 55.0188 40.1708C55.6837 40.7901 56.3124 41.4254 56.9007 42.0809C57.0458 42.2458 57.1868 42.4107 57.3279 42.5755C57.3964 42.66 57.4689 42.7404 57.5374 42.8248C57.6059 42.9093 57.6744 42.9937 57.7389 43.0742C57.8719 43.243 58.0089 43.4079 58.1379 43.5768C58.2668 43.7457 58.3917 43.9146 58.5167 44.0835C58.6214 44.2122 58.7302 44.3449 58.8511 44.4776C58.968 44.6103 59.0929 44.747 59.2219 44.8797C59.4757 45.1531 59.7578 45.4346 60.0399 45.7161C60.6121 46.2831 61.2085 46.8662 61.7566 47.4332C61.8936 47.5739 62.0266 47.7146 62.1555 47.8554C62.2845 47.9961 62.4094 48.1329 62.5262 48.2656C62.768 48.535 62.9776 48.7963 63.1629 49.0456C63.3443 49.295 63.4934 49.5322 63.6022 49.7534C63.711 49.9746 63.7755 50.1796 63.7876 50.3646C63.8158 50.4812 63.8359 50.5898 63.844 50.6903C63.844 50.7024 63.848 50.7144 63.848 50.7265C63.848 50.7345 63.848 50.7386 63.852 50.7466C63.8561 50.7547 63.8561 50.7627 63.8601 50.7708C63.8682 50.8029 63.8762 50.8391 63.8843 50.8672C63.8883 50.8833 63.8923 50.8994 63.8923 50.9155C63.8923 50.9316 63.8964 50.9437 63.8964 50.9598C63.9004 50.9879 63.9004 51.016 63.9044 51.0442C63.9084 51.2533 63.8561 51.4101 63.7755 51.5428C63.6102 51.8082 63.3362 51.9852 63.0219 52.138C62.9413 52.0294 62.8567 51.9168 62.7519 51.7801L62.5021 51.4704L62.0386 50.8914C61.7284 50.5054 61.41 50.1193 61.0917 49.7333C60.455 48.9612 59.7981 48.1891 59.1211 47.4291C57.7671 45.9051 56.3245 44.4132 54.769 43.0018L54.2411 42.4991L54.0597 42.3343L53.7011 42.0045L53.3586 41.6949L52.0167 40.4885C51.118 39.6843 50.2073 38.88 49.2885 38.0758C48.8291 37.6737 48.3657 37.2715 47.8983 36.8734L47.5477 36.5718L47.1608 36.2501C46.9029 36.037 46.645 35.832 46.3952 35.6309L44.9324 34.4728C44.4649 34.1029 44.0257 33.7409 43.6146 33.3871C44.3843 34.131 45.2991 34.8789 46.2823 35.6912C46.4073 35.7958 46.5282 35.8963 46.6531 36.0009C46.778 36.1054 46.9029 36.21 47.0278 36.3145C47.1528 36.4231 47.2817 36.5317 47.4107 36.6362C47.5275 36.7367 47.6444 36.8372 47.7613 36.9418C48.2207 37.3439 48.68 37.742 49.1435 38.1442C50.0663 38.9444 50.9891 39.7406 51.9119 40.5327C52.3753 40.9268 52.8347 41.3209 53.2981 41.719L53.6528 42.0206L54.0275 42.3423L54.2169 42.5031L54.4023 42.668L54.769 42.9978C56.2801 44.4575 57.6422 45.9976 58.9075 47.5618C59.5402 48.346 60.1447 49.1341 60.737 49.9263C61.0312 50.3204 61.3214 50.7185 61.6075 51.1166C61.7525 51.3136 61.8936 51.5147 62.0346 51.7117L62.2482 52.0093L62.3771 52.1902C62.4215 52.2546 62.4618 52.3109 62.5021 52.3672C62.22 52.4838 61.9339 52.6124 61.68 52.7773C61.4302 52.9462 61.2206 53.1553 61.0715 53.4288C61.0715 53.4288 61.2528 53.662 61.4825 53.9596C61.5954 54.1003 61.7163 54.2531 61.8331 54.3858C61.95 54.5225 62.0628 54.6432 62.1555 54.7317C62.2119 55.0413 62.2603 55.3268 62.3167 55.6002C62.3771 55.8737 62.4457 56.1351 62.5303 56.3884C62.6955 56.8951 62.8889 57.3454 62.8325 57.7757C62.8043 57.9929 62.7197 58.1979 62.5504 58.3869C62.4658 58.4834 62.3651 58.5719 62.2482 58.6523C62.1878 58.6925 62.1233 58.7327 62.0548 58.7649C61.9863 58.8011 61.9137 58.8333 61.8372 58.8654C61.8009 58.8815 61.7566 58.8936 61.7203 58.9097C61.68 58.9217 61.6397 58.9378 61.5994 58.9499C61.5188 58.974 61.4261 58.9941 61.3415 59.0142C61.2528 59.0343 61.1642 59.0464 61.0675 59.0585C60.9748 59.0705 60.8821 59.0786 60.7854 59.0866C60.4026 59.1107 59.9996 59.0826 59.6127 59.0263C58.835 58.8172 58.1217 58.5799 57.4528 58.3266Z" fill="#DADADA"/>
<path d="M82.9485 63.7226V0.930255H91.995V26.3573H98.3124V0.930255H107.41V63.7226H98.3124V36.28H91.995V63.7226H82.9485Z" fill="#DADADA"/>
<path d="M111.673 63.7226L119.405 0.930255H129.715L137.347 63.7226H129.008L127.643 50.4665H121.629L120.214 63.7226H111.673ZM122.438 42.1717H126.784L124.611 17.6749L122.438 42.1717Z" fill="#DADADA"/>
<path d="M151.891 64.8855C149.027 64.8855 146.77 64.0586 145.119 62.4048C143.501 60.751 142.339 58.4512 141.631 55.5054C140.958 52.5079 140.621 49.0711 140.621 45.195V42.9469H149.111C149.111 43.0502 149.111 43.3603 149.111 43.8771C149.111 44.394 149.111 44.8849 149.111 45.3501C149.111 48.4509 149.313 50.6732 149.718 52.0169C150.122 53.3089 150.897 53.9549 152.043 53.9549C152.817 53.9549 153.39 53.6448 153.761 53.0247C154.165 52.4045 154.435 51.5001 154.57 50.3114C154.738 49.0711 154.822 47.5206 154.822 45.6601C154.822 42.5076 154.519 40.1303 153.913 38.5282C153.306 36.8744 152.043 36.0216 150.122 35.97C150.088 35.9183 149.937 35.8924 149.667 35.8924C149.431 35.8924 149.145 35.8924 148.808 35.8924C148.471 35.8924 148.151 35.8924 147.848 35.8924V27.4426C148.084 27.4426 148.319 27.4426 148.555 27.4426C148.791 27.4426 149.027 27.4426 149.263 27.4426C149.499 27.4426 149.718 27.4426 149.92 27.4426C151.908 27.3909 153.222 26.564 153.862 24.9619C154.502 23.3598 154.822 20.9825 154.822 17.8299C154.822 15.4009 154.57 13.5404 154.064 12.2484C153.592 10.9564 152.784 10.3104 151.638 10.3104C150.526 10.3104 149.751 11.008 149.313 12.4034C148.909 13.7471 148.69 15.556 148.656 17.8299C148.656 17.9333 148.656 18.3726 148.656 19.1478C148.656 19.8713 148.656 20.5949 148.656 21.3184H140.166V17.5198C140.166 13.7471 140.637 10.5688 141.581 7.98471C142.558 5.34898 143.906 3.35926 145.624 2.01555C147.342 0.671852 149.364 0 151.689 0C154.081 0 156.119 0.646011 157.804 1.93803C159.522 3.23006 160.836 5.14226 161.746 7.67462C162.656 10.1553 163.111 13.2562 163.111 16.9772C163.111 20.6465 162.622 23.7474 161.645 26.2798C160.668 28.7605 159.489 30.285 158.107 30.8535C159.051 31.422 159.893 32.2748 160.634 33.4117C161.409 34.497 162.016 35.9958 162.454 37.908C162.892 39.8202 163.111 42.275 163.111 45.2725C163.111 49.0969 162.74 52.5079 161.999 55.5054C161.291 58.4512 160.112 60.751 158.461 62.4048C156.81 64.0586 154.62 64.8855 151.891 64.8855Z" fill="#DADADA"/>
<path d="M166.111 63.7226L173.844 0.930255H184.154L191.785 63.7226H183.446L182.082 50.4665H176.067L174.652 63.7226H166.111ZM176.876 42.1717H181.222L179.049 17.6749L176.876 42.1717Z" fill="#DADADA"/>
<path d="M193.796 74V53.7999H194.958C195.733 53.4381 196.441 52.818 197.081 51.9394C197.755 51.0091 198.361 49.7688 198.9 48.2183C199.439 46.6679 199.928 44.7299 200.366 42.4042C200.804 40.0786 201.174 37.3137 201.478 34.1094C201.781 30.8535 202.034 27.1067 202.236 22.8688L203.348 0.930255H222.401V53.7999H227V74H221.036L220.582 63.7226H200.517L200.012 74H193.796ZM203.499 53.7999H213.961V10.7755H210.17L209.716 24.2642C209.547 28.7088 209.294 32.4815 208.957 35.5823C208.654 38.6832 208.284 41.2673 207.846 43.3345C207.441 45.35 207.003 47.0038 206.532 48.2959C206.06 49.5879 205.554 50.6474 205.015 51.4742C204.51 52.3011 204.005 53.0764 203.499 53.7999Z" fill="#DADADA"/>
</svg>
