<svg width="44.000000" height="44.000000" viewBox="0 0 44 44" fill="none" xmlns="http://www.w3.org/2000/svg" xmlns:xlink="http://www.w3.org/1999/xlink">
	<desc>
			Created with Pixso.
	</desc>
	<defs/>
	<path id="vector" d="M30.93 18.09L12.28 18.09C12.14 18.09 12 18.24 12 18.38L12 21.17C12 22.21 12.82 23.03 13.86 23.03L17.11 23.03C17.9 23.03 18.51 23.75 18.4 24.53L17.15 32.66C16.72 35.45 18.79 38.13 21.62 38.13C24.41 38.13 26.56 35.63 26.13 32.87L24.84 24.53C24.74 23.75 25.34 23.03 26.13 23.03L29.39 23.03C30.39 23.03 31.25 22.21 31.25 21.17L31.25 18.38C31.25 18.24 31.11 18.09 30.93 18.09ZM21.62 35.24C20.69 35.24 19.94 34.48 19.94 33.55C19.94 32.62 20.69 31.87 21.62 31.87C22.55 31.87 23.3 32.62 23.3 33.55C23.3 34.48 22.55 35.24 21.62 35.24Z" fill="#CBA265" fill-opacity="1.000000" fill-rule="nonzero"/>
	<path id="vector" d="M29.93 4.13L19.37 4.13L18.29 7.46C18.19 7.78 17.72 7.78 17.61 7.46L16.54 4.13L13.32 4.13C12.57 4.13 12 4.71 12 5.46L12 15.94C12 16.09 12.14 16.23 12.28 16.23L30.93 16.23C31.07 16.23 31.21 16.09 31.21 15.94L31.21 5.46C31.25 4.71 30.64 4.13 29.93 4.13Z" fill="#CBA265" fill-opacity="1.000000" fill-rule="nonzero"/>
</svg>
