<svg width="395" height="173" viewBox="0 0 395 173" fill="none" xmlns="http://www.w3.org/2000/svg">
<path d="M127.921 133.469C128.019 132.924 128.12 132.377 128.214 131.836C129.632 121.817 129.16 111.797 130.105 100.663C131.051 92.8694 130.578 83.9637 130.578 76.1721C129.707 94.64 130.037 114.051 126.763 131.797C125.647 130.002 124.756 127.859 124.756 125.364C125.196 119.359 125.504 113.432 125.715 107.553H127.592C126.174 90.8536 129.956 75.266 127.592 58.5687C127.341 59.1619 126.956 58.8095 126.649 58.6869C126.649 58.6453 126.649 58.6059 126.647 58.5687C126.647 58.6059 126.647 58.6453 126.649 58.6869C127.109 75.115 126.653 90.4772 125.736 106.883C126.621 81.4096 125.699 56.8485 125.699 30.7378V26.2861C127.117 21.8321 127.59 17.3782 127.59 12.9287C129.954 14.0405 134.682 9.58662 133.736 18.4944H135.627C137.991 9.58662 144.61 6.24673 146.501 15.1546C148.392 25.172 146.501 38.5338 147.446 50.7771C147.919 59.685 148.392 68.5928 147.446 77.4962C146.028 89.7418 146.501 103.101 144.61 115.347C144.137 119.803 145.555 127.597 144.137 129.823C143.459 131.423 142.452 131.486 141.329 131.241C141.495 123.922 141.548 116.623 141.754 109.409C142.283 100.558 142.872 91.705 143.811 82.8584C142.513 91.5102 142.01 100.396 141.754 109.409C141.322 116.608 140.931 123.813 140.423 131.013C139.458 130.751 138.451 130.497 137.518 130.937V134.274C135.155 138.728 131.845 137.612 129.481 135.391C129.002 134.824 128.459 134.185 127.919 133.475L127.921 133.469Z" fill="#CAA164"/>
<path d="M308.524 20.0709C307.73 19.9724 306.935 19.8717 306.147 19.7776C291.57 18.3594 276.991 18.8321 260.797 17.8866C249.459 16.9411 236.502 17.4139 225.169 17.4139C252.038 18.2849 280.277 17.9545 306.093 21.2287C303.484 22.3449 300.365 23.2357 296.734 23.2357C287.996 22.7958 279.375 22.4872 270.824 22.2771V20.3992C246.529 21.8174 223.853 18.0354 199.559 20.3992C200.423 20.6509 199.911 21.0361 199.731 21.3425C199.672 21.3425 199.615 21.3425 199.559 21.3447C199.613 21.3447 199.67 21.3447 199.731 21.3425C223.632 20.8829 245.979 21.3381 269.847 22.2552C232.788 21.3709 197.057 22.2924 159.069 22.2924H152.593C146.114 20.8741 139.633 20.4014 133.159 20.4014C134.777 18.0376 128.298 13.3101 141.257 14.2556V12.3646C128.298 10.0009 123.437 3.38238 136.398 1.49138C150.973 -0.399615 170.409 1.49138 188.223 0.545884C201.183 0.0731346 214.14 -0.399615 227.093 0.545884C244.909 1.96413 264.345 1.49138 282.157 3.38238C288.638 3.85513 299.977 2.43688 303.217 3.85513C305.543 4.53362 305.635 5.5404 305.281 6.66318C294.632 6.49684 284.015 6.44431 273.518 6.23858C260.639 5.70892 247.761 5.12018 234.891 4.18124C247.479 5.47912 260.405 5.98251 273.518 6.23858C283.991 6.66974 294.473 7.06151 304.948 7.56928C304.565 8.53448 304.197 9.54126 304.836 10.4736H309.693C316.174 12.8374 314.55 16.1466 311.317 18.5104C310.492 18.9897 309.564 19.5325 308.531 20.0731L308.524 20.0709Z" fill="#CAA164"/>
<path d="M292.752 139.872C292.028 139.773 291.303 139.672 290.585 139.578C277.289 138.16 263.995 138.633 249.223 137.687C238.881 136.742 227.064 137.215 216.727 137.215C241.234 138.086 266.989 137.757 290.535 141.029C288.154 142.146 285.311 143.036 281.999 143.036C274.03 142.597 266.166 142.288 258.367 142.078V140.2C236.209 141.618 215.525 137.836 193.369 140.2C194.157 140.452 193.688 140.837 193.526 141.143C193.472 141.143 193.419 141.143 193.369 141.145C193.419 141.145 193.472 141.145 193.526 141.143C215.326 140.684 235.707 141.139 257.477 142.056C223.676 141.172 191.086 142.093 156.438 142.093H150.531C144.621 140.675 138.71 140.202 132.804 140.202C134.28 137.838 128.37 133.111 140.191 134.056V132.165C128.37 129.802 123.938 123.183 135.759 121.292C149.054 119.401 166.78 121.292 183.027 120.347C194.848 119.874 206.665 119.401 218.48 120.347C234.729 121.765 252.458 121.292 268.703 123.183C274.614 123.656 284.956 122.238 287.911 123.656C290.034 124.334 290.117 125.341 289.793 126.464C280.08 126.298 270.397 126.245 260.823 126.039C249.078 125.51 237.331 124.921 225.591 123.982C237.071 125.28 248.862 125.783 260.823 126.039C270.375 126.471 279.935 126.862 289.489 127.37C289.139 128.335 288.804 129.342 289.386 130.274H293.816C299.728 132.638 298.246 135.947 295.298 138.311C294.545 138.79 293.7 139.333 292.757 139.874L292.752 139.872Z" fill="#CAA164"/>
<path d="M292.388 140.734C292.486 140.17 292.587 139.603 292.681 139.042C294.099 128.673 293.626 118.303 294.572 106.782C295.517 98.7165 295.045 89.5 295.045 81.437C294.174 100.551 294.504 120.638 291.23 139.001C290.113 137.145 289.223 134.926 289.223 132.343C289.663 126.127 289.971 119.995 290.181 113.912H292.059C290.641 96.6307 294.423 80.5003 292.059 63.2186C291.808 63.8337 291.422 63.4681 291.116 63.3412C291.116 63.2996 291.116 63.258 291.114 63.2186C291.114 63.258 291.114 63.2996 291.116 63.3412C291.576 80.3427 291.12 96.2389 290.203 113.218C291.087 86.8561 290.166 61.4393 290.166 34.4181V29.811C291.584 25.2017 292.057 20.5924 292.057 15.9874C294.421 17.1387 299.149 12.5294 298.203 21.748H300.094C302.458 12.5294 309.077 9.07129 310.968 18.2899C312.859 28.6576 310.968 42.4833 311.913 55.1556C312.386 64.3742 312.859 73.5929 311.913 82.8071C310.495 95.4794 310.968 109.305 309.077 121.977C308.604 126.587 310.022 134.654 308.604 136.959C307.925 138.613 306.919 138.679 305.796 138.427C305.962 130.852 306.015 123.302 306.22 115.834C306.75 106.672 307.339 97.5127 308.278 88.3575C306.98 97.3113 306.476 106.506 306.22 115.834C305.789 123.284 305.397 130.739 304.89 138.191C303.924 137.917 302.918 137.657 301.985 138.11V141.566C299.621 146.177 296.312 145.022 293.948 142.722C293.469 142.135 292.926 141.474 292.385 140.739L292.388 140.734Z" fill="#CAA164"/>
<path d="M167.416 170.647C167.055 170.264 166.698 169.854 166.346 169.46C164.669 167.661 163.006 165.733 161.555 163.568C161.187 163.034 160.846 162.474 160.504 161.918C160.18 161.347 159.85 160.782 159.556 160.191C159.248 159.609 158.985 159.009 158.712 158.405C158.451 157.764 158.182 157.118 157.978 156.477C157.749 155.834 157.58 155.188 157.401 154.542C157.32 154.218 157.249 153.895 157.177 153.568L157.07 153.08L156.985 152.59C156.742 151.281 156.628 149.951 156.593 148.596C156.558 147.243 156.663 145.849 156.882 144.437C157.109 143.023 157.506 141.566 158.101 140.11C158.342 139.603 158.561 139.101 158.856 138.587C158.996 138.333 159.136 138.079 159.278 137.823C159.434 137.567 159.6 137.313 159.764 137.059C160.08 136.547 160.463 136.061 160.841 135.573C161.021 135.328 161.246 135.094 161.456 134.858C161.673 134.623 161.876 134.385 162.111 134.162C163.034 133.256 164.087 132.444 165.227 131.774C165.512 131.61 165.807 131.463 166.099 131.314C166.245 131.242 166.392 131.163 166.541 131.097L166.989 130.909L167.431 130.73L167.653 130.642L167.865 130.572L168.71 130.303C169.848 129.99 171.017 129.782 172.194 129.699C173.372 129.627 174.551 129.655 175.716 129.793C176.876 129.94 178.018 130.174 179.119 130.504C179.673 130.658 180.209 130.852 180.743 131.038C181.008 131.137 181.266 131.246 181.527 131.349C181.785 131.459 182.05 131.551 182.297 131.673C179.958 130.518 177.366 129.629 174.663 129.34C173.313 129.202 171.942 129.209 170.585 129.377C169.905 129.454 169.235 129.596 168.567 129.754C168.237 129.846 167.909 129.942 167.58 130.043C167.421 130.086 167.234 130.167 167.064 130.229L166.541 130.434C165.129 131.023 163.77 131.85 162.577 132.859C161.391 133.879 160.41 135.05 159.594 136.269C159.217 136.889 158.819 137.526 158.53 138.158C158.381 138.475 158.21 138.799 158.088 139.115L157.716 140.069C157.584 140.391 157.503 140.701 157.401 141.021C157.309 141.336 157.195 141.66 157.127 141.971C156.976 142.597 156.818 143.229 156.724 143.846C156.492 145.094 156.398 146.311 156.339 147.528C156.313 148.734 156.324 149.937 156.44 151.128C156.643 153.516 157.112 155.877 157.965 158.309L158.125 158.764L158.291 159.191L158.628 160.042C158.878 160.598 159.112 161.17 159.39 161.712C159.92 162.82 160.53 163.881 161.17 164.914C161.813 165.95 162.507 166.924 163.22 167.873C163.936 168.817 164.676 169.708 165.422 170.574C164.367 170.434 163.249 170.156 162.143 169.6C161.59 169.336 161.045 168.981 160.515 168.583C159.992 168.16 159.478 167.694 159.014 167.125C157.972 165.709 157.02 164.192 156.203 162.614C156.004 162.216 155.798 161.824 155.615 161.421L155.076 160.211C154.901 159.773 154.728 159.336 154.562 158.898C154.395 158.46 154.266 158.033 154.124 157.598C153.588 155.873 153.213 154.179 152.973 152.481C152.743 150.782 152.638 149.077 152.664 147.34C153.141 147.335 154.074 147.324 154.542 147.32C154.349 145.009 154.5 142.581 155.177 140.056L155.304 139.585L155.461 139.106C155.569 138.786 155.68 138.469 155.794 138.152C155.91 137.834 156.063 137.508 156.203 137.189C156.352 136.867 156.483 136.554 156.661 136.232C156.836 135.91 157.015 135.591 157.199 135.276C157.293 135.118 157.381 134.96 157.481 134.805L157.797 134.345C158.009 134.041 158.228 133.739 158.449 133.442C158.687 133.144 158.941 132.853 159.193 132.564L159.578 132.137C159.71 131.997 159.856 131.861 159.996 131.723C160.281 131.452 160.568 131.185 160.861 130.925C161.165 130.673 161.48 130.43 161.798 130.191C161.957 130.073 162.115 129.955 162.277 129.841L162.778 129.522C163.115 129.314 163.45 129.101 163.796 128.918C164.144 128.738 164.496 128.565 164.849 128.399C165.199 128.226 165.564 128.099 165.912 127.963C166.26 127.834 166.624 127.696 166.937 127.615C167.261 127.523 167.587 127.434 167.913 127.348C168.241 127.276 168.574 127.21 168.902 127.147C169.231 127.079 169.565 127.035 169.898 126.996C170.233 126.959 170.564 126.908 170.898 126.895C172.236 126.795 173.577 126.852 174.899 127.003C176.221 127.171 177.521 127.451 178.789 127.83C180.047 128.226 181.286 128.675 182.468 129.226C184.843 130.296 187.056 131.625 189.069 133.133C191.092 134.637 192.95 136.291 194.685 138.057L195.322 138.729L195.644 139.066C195.754 139.178 195.859 139.292 195.955 139.408L196.557 140.104L196.861 140.454L197.139 140.811C197.507 141.288 197.894 141.769 198.207 142.264L198.713 143.006C198.877 143.253 199.028 143.505 199.177 143.757C199.19 143.137 199.752 143.424 200.129 143.514C200.146 143.555 200.164 143.597 200.181 143.634C200.164 143.595 200.146 143.555 200.129 143.514C200.295 143.553 200.427 143.549 200.459 143.4C200.49 143.249 200.442 142.953 200.164 142.411C200.444 142.953 200.49 143.251 200.459 143.4C200.424 143.551 200.295 143.553 200.129 143.514C199.908 142.988 199.61 142.468 199.334 141.949C199.078 141.428 198.722 140.916 198.4 140.406C198.242 140.15 198.052 139.9 197.864 139.651L197.305 138.902C197.122 138.653 196.898 138.416 196.699 138.171L196.082 137.447C194.386 135.538 192.473 133.739 190.345 132.131C189.829 131.715 189.26 131.347 188.712 130.96C188.443 130.763 188.148 130.592 187.861 130.41L186.999 129.874L186.106 129.375C185.806 129.211 185.515 129.036 185.204 128.891C184.587 128.591 183.983 128.268 183.339 128.014C180.816 126.915 178.119 126.094 175.35 125.801C173.969 125.652 172.571 125.615 171.183 125.731C170.487 125.772 169.8 125.882 169.11 125.989C168.769 126.055 168.427 126.129 168.088 126.206C167.917 126.245 167.747 126.28 167.578 126.326L167.075 126.471L166.573 126.622C166.405 126.674 166.247 126.718 166.059 126.792C165.694 126.928 165.339 127.066 164.967 127.221C164.597 127.366 164.232 127.561 163.868 127.738C163.505 127.922 163.142 128.103 162.791 128.324C162.439 128.539 162.091 128.758 161.745 128.985C161.406 129.22 161.08 129.471 160.754 129.723L160.268 130.108C160.112 130.242 159.964 130.377 159.812 130.515C159.513 130.791 159.215 131.071 158.924 131.358C157.816 132.525 156.847 133.757 156.083 135.063C155.89 135.387 155.687 135.722 155.518 136.048C155.354 136.372 155.192 136.7 155.034 137.029L154.8 137.523C154.728 137.688 154.667 137.847 154.599 138.009C154.47 138.333 154.341 138.659 154.218 138.988L154.126 139.235L154.047 139.476L153.894 139.957C153.793 140.279 153.695 140.603 153.601 140.927C153.448 141.555 153.281 142.201 153.163 142.827C152.927 144.078 152.763 145.322 152.693 146.541L152.721 145.899L152.78 145.245L152.844 144.593C152.863 144.376 152.89 144.157 152.925 143.934C152.99 143.49 153.058 143.045 153.132 142.605C153.222 142.152 153.323 141.699 153.424 141.248C153.864 139.428 154.511 137.543 155.507 135.646C155.772 135.166 156.046 134.693 156.328 134.225C156.632 133.761 156.954 133.306 157.28 132.855C157.967 131.955 158.736 131.08 159.613 130.272C160.034 129.859 160.513 129.489 160.983 129.117C161.45 128.74 161.957 128.416 162.463 128.09C162.966 127.758 163.494 127.488 164.024 127.215C164.549 126.935 165.098 126.718 165.617 126.506L166.013 126.35C166.147 126.298 166.258 126.267 166.383 126.223L167.112 125.991C167.596 125.832 168.097 125.729 168.594 125.608C169.59 125.389 170.603 125.247 171.621 125.171C173.658 125.024 175.718 125.162 177.732 125.547C178.235 125.643 178.734 125.764 179.231 125.884C179.726 126.011 180.218 126.158 180.708 126.307C181.684 126.613 182.647 126.959 183.582 127.364C185.458 128.152 187.244 129.112 188.918 130.189C192.234 132.382 195.117 135.015 197.45 137.856L197.892 138.388C198.043 138.563 198.161 138.749 198.299 138.931C198.56 139.296 198.84 139.657 199.083 140.025C199.315 140.395 199.544 140.767 199.77 141.141C199.89 141.327 199.976 141.516 200.072 141.704L200.356 142.268C200.451 142.457 200.549 142.645 200.639 142.833C200.724 143.021 200.805 143.21 200.882 143.4C201.035 143.779 201.182 144.157 201.306 144.542C201.565 145.308 201.762 146.092 201.904 146.897C202.202 148.506 202.239 150.229 202.037 151.936C201.821 153.643 201.361 155.332 200.674 156.917C199.991 158.508 199.094 160.005 198.028 161.375C196.96 162.739 195.725 163.973 194.322 165.063C191.969 166.854 189.255 168.278 186.226 169.154C185.889 169.259 185.453 169.362 184.976 169.482C184.495 169.592 183.965 169.703 183.427 169.793C182.886 169.88 182.343 169.961 181.833 170.007C181.579 170.034 181.339 170.062 181.113 170.082C180.886 170.095 180.675 170.108 180.487 170.119C178.885 169.852 177.327 169.513 175.806 169.123C174.282 168.72 172.8 168.27 171.349 167.788C170.623 167.552 169.907 167.293 169.198 167.044L168.138 166.657L167.607 166.46L167.346 166.361L167.171 166.291C166.247 165.917 165.348 165.567 164.461 165.234C165.311 164.291 165.28 162.384 165.869 161.154C166.16 160.539 166.598 160.088 167.35 159.992C167.729 159.942 168.184 159.983 168.751 160.128C168.894 160.165 169.04 160.209 169.198 160.257C169.281 160.285 169.368 160.314 169.456 160.342C169.55 160.375 169.649 160.41 169.749 160.445C170.15 160.581 170.585 160.763 171.076 160.953C171.161 160.487 171.332 159.554 171.419 159.088C171.012 158.823 170.645 158.534 170.316 158.246C169.988 157.952 169.703 157.657 169.436 157.348C168.907 156.733 168.482 156.09 168.158 155.444C167.51 154.153 167.259 152.853 167.385 151.728C167.442 151.161 167.596 150.638 167.847 150.178C168.103 149.719 168.449 149.318 168.88 148.992C169.743 148.34 170.966 148 172.441 148.014C172.708 148.02 172.98 148.042 173.243 148.053H173.293C173.293 148.053 173.299 148.049 173.302 148.046L173.315 148.027C173.321 148.014 173.337 148 173.348 147.99L173.415 147.922C173.501 147.834 173.562 147.762 173.615 147.703C173.717 147.587 173.777 147.532 173.849 147.519C173.919 147.504 174.002 147.532 174.116 147.558C174.227 147.587 174.365 147.609 174.497 147.593C174.63 147.576 174.755 147.517 174.783 147.407C174.814 147.302 174.733 147.145 174.497 147.024C174.324 146.908 174.114 146.851 173.96 146.84C173.805 146.827 173.707 146.849 173.674 146.86C173.639 146.873 173.667 146.876 173.726 146.812C173.783 146.749 173.866 146.619 173.893 146.379C173.939 146.022 173.728 145.718 173.426 145.58C173.352 145.549 173.271 145.527 173.186 145.51L173.168 145.503L173.177 145.497C173.177 145.497 173.186 145.486 173.19 145.479L173.197 145.468L172.691 144.282L172.641 144.179C172.627 144.146 172.612 144.111 172.59 144.072L172.557 144.013L172.538 143.982V143.978C172.446 143.831 172.656 144.232 173.538 144.847C173.54 144.849 173.525 144.838 173.514 144.834C173.499 144.823 173.499 144.838 173.485 144.838C173.466 144.847 173.426 144.829 173.4 144.877C173.328 144.923 173.247 145.039 173.153 145.184C173.113 145.271 173.059 145.343 173.013 145.442C172.973 145.547 172.927 145.654 172.873 145.759C172.835 145.882 172.794 146.007 172.746 146.134C172.7 146.261 172.673 146.409 172.627 146.547C172.476 147.123 172.358 147.784 172.273 148.473C172.183 149.167 172.15 149.883 172.122 150.585C172.131 150.841 172.201 151.086 172.284 151.343C172.323 151.474 172.387 151.579 172.439 151.704C172.468 151.763 172.496 151.824 172.527 151.885C172.566 151.951 172.608 152.019 172.647 152.087C172.969 152.63 173.374 153.142 173.796 153.612C174.214 154.085 174.635 154.529 174.948 154.971C175.271 155.409 175.482 155.853 175.471 156.315C175.56 156.854 175.479 157.329 175.258 157.764C175.037 158.202 174.683 158.598 174.267 158.981C172.542 157.46 171.198 155.814 170.251 153.993C170.121 153.77 170.027 153.531 169.913 153.301C169.854 153.183 169.811 153.074 169.769 152.962L169.636 152.629C169.546 152.408 169.478 152.166 169.395 151.936C169.318 151.702 169.261 151.452 169.189 151.213C168.942 150.235 168.795 149.206 168.767 148.202C168.784 146.961 169.005 145.77 169.349 144.79L169.41 144.604C169.43 144.542 169.46 144.49 169.484 144.433L169.631 144.098C169.677 143.986 169.743 143.899 169.795 143.798C169.852 143.704 169.894 143.593 169.959 143.52C170.021 143.439 170.078 143.358 170.132 143.275L170.172 143.214L170.22 143.166L170.31 143.069L170.395 142.973C170.421 142.938 170.45 142.907 170.485 142.886C170.55 142.835 170.609 142.783 170.666 142.728C170.682 142.715 170.695 142.7 170.708 142.689L170.756 142.662L170.846 142.608C170.903 142.57 170.953 142.524 171.017 142.511C171.076 142.489 171.128 142.465 171.176 142.437C171.235 142.428 171.29 142.415 171.338 142.398C171.382 142.373 171.446 142.382 171.496 142.373C171.546 142.365 171.592 142.352 171.651 142.36C171.708 142.365 171.752 142.352 171.809 142.356C171.866 142.365 171.931 142.363 171.991 142.358L172.251 142.352C172.339 142.343 172.431 142.352 172.518 142.36C172.693 142.363 172.868 142.395 173.039 142.426C173.378 142.498 173.7 142.612 173.991 142.763C173.711 142.57 173.389 142.415 173.043 142.312C172.698 142.211 172.328 142.168 171.947 142.17C171.883 142.17 171.809 142.174 171.748 142.166C171.678 142.15 171.634 142.17 171.57 142.166H171.478C171.45 142.166 171.424 142.174 171.395 142.176C171.343 142.19 171.273 142.183 171.22 142.201C170.988 142.247 170.758 142.373 170.498 142.555C170.386 142.678 170.235 142.77 170.13 142.923C170.073 142.995 170.008 143.056 169.948 143.137C169.896 143.225 169.839 143.312 169.78 143.398C169.752 143.444 169.719 143.481 169.692 143.531L169.618 143.684L169.458 143.995L169.323 144.345L169.25 144.521C169.228 144.582 169.213 144.647 169.193 144.711C168.883 145.726 168.712 146.946 168.764 148.202C168.738 149.209 168.819 150.248 169.003 151.253C169.058 151.498 169.099 151.754 169.158 151.997C169.224 152.236 169.279 152.485 169.351 152.719C169.432 152.951 169.489 153.181 169.583 153.424C169.681 153.665 169.762 153.916 169.872 154.153C170.695 156.079 171.934 157.893 173.577 159.583C172.829 160.218 172.028 160.859 171.671 161.776C171.671 161.776 171.75 161.839 171.877 161.944C172.004 162.049 172.179 162.196 172.382 162.349C172.781 162.664 173.275 163.028 173.608 163.264C174.273 165.17 174.12 166.716 173.361 167.924C172.61 169.123 171.277 169.975 169.791 170.395C169.447 170.456 169.077 170.504 168.686 170.555C168.294 170.605 167.88 170.64 167.447 170.653L167.416 170.647Z" fill="#CAA164"/>
<path d="M343.172 39.6477C342.984 39.5842 342.795 39.5207 342.612 39.466C341.773 39.2844 340.959 39.1902 340.156 39.1727C339.353 39.1574 338.556 39.1881 337.753 39.2362C336.949 39.2909 336.137 39.3413 335.303 39.3588C334.472 39.3828 333.616 39.35 332.732 39.234C330.221 38.6234 327.566 39.4047 325.165 39.5995C328.041 39.7921 330.968 39.5995 333.909 39.6083C336.855 39.6192 339.817 39.8468 342.892 40.8908C342.561 42.1033 342.058 43.1057 341.27 43.2546C340.777 43.2349 340.287 43.2283 339.801 43.2196C339.315 43.2086 338.832 43.2042 338.35 43.2064C337.391 43.2174 336.439 43.2261 335.5 43.2677C335.428 42.7971 335.288 41.8757 335.218 41.4117C332.723 42.5017 330.103 42.2456 327.542 42.0224C324.97 41.7991 322.458 41.6393 319.897 42.946C320.096 43.1867 320.004 43.5785 319.98 43.8849C319.967 43.8849 319.954 43.8871 319.943 43.8893C319.954 43.8893 319.967 43.8871 319.98 43.8849C319.958 44.1541 319.989 44.3598 320.319 44.3423C319.991 44.3598 319.958 44.1541 319.98 43.8849C325.145 43.1627 329.98 43.1408 335.284 43.2787C331.21 43.4494 327.275 43.8783 323.294 44.2832C319.315 44.686 315.287 45.0493 311.129 45.0055C310.774 45.0011 310.065 44.9946 309.711 44.9902C308.321 43.5369 306.946 43.0291 305.545 42.9569C305.992 40.6107 304.869 35.8307 307.511 36.89C307.528 36.4172 307.561 35.4717 307.577 35.0012C306.29 33.7646 305.508 31.4796 305.388 29.2866C305.318 28.1879 305.427 27.1154 305.696 26.2028C305.968 25.2901 306.41 24.5416 307.04 24.0951C307.747 23.6595 308.496 23.4407 309.277 23.3575C310.059 23.2831 310.875 23.3115 311.711 23.3816C312.547 23.4538 313.403 23.5238 314.261 23.5392C315.117 23.5392 315.975 23.4626 316.802 23.1999C319.225 22.6528 321.584 22.0268 324.084 22.7578C324.515 22.8957 324.953 23.0095 325.391 23.0927C325.828 23.1737 326.268 23.2328 326.71 23.2787C327.597 23.3794 328.486 23.3903 329.381 23.4341C330.274 23.4691 331.171 23.502 332.075 23.6223C332.977 23.723 333.887 23.9244 334.807 24.2417C335.459 24.3643 336.264 23.9988 337.002 23.7318C337.742 23.4691 338.425 23.3422 338.871 23.9747C339.442 24.5503 339.663 25.5308 339.819 26.6471C337.735 26.8966 335.678 27.2205 333.611 27.3277C331.04 27.1898 328.47 26.9338 325.905 26.24C328.453 27.2949 331.038 27.4656 333.611 27.3277C335.706 27.4459 337.803 27.459 339.933 27.5488C340.051 28.5096 340.175 29.512 340.486 30.4006C340.486 30.4006 341.125 30.2671 341.447 30.2014C343.218 32.2478 343.627 35.5418 343.437 37.9974C343.364 38.503 343.281 39.0742 343.172 39.6477Z" fill="#CAA164"/>
<path d="M379.007 77.0146C378.86 76.7607 378.713 76.5068 378.564 76.2595C375.599 71.9172 371.375 69.0697 367.544 64.8325C365.034 61.6392 361.168 59.2405 358.012 56.8724C361.488 60.0372 365.2 63.0772 368.639 66.3799C372.077 69.6782 375.249 73.2304 377.617 77.3582C376.209 77.6274 374.813 77.6252 373.85 76.8263C372.834 75.6926 371.795 74.5983 370.742 73.5346C369.691 72.4643 368.615 71.44 367.531 70.4311C367.829 70.059 368.413 69.3324 368.706 68.9669C364.977 66.892 362.153 63.9198 359.199 61.0724C356.25 58.2293 353.188 55.4935 349.087 53.9724C349.181 54.3532 348.809 54.5589 348.579 54.7712C348.561 54.7603 348.546 54.7494 348.529 54.7384C348.544 54.7494 348.561 54.7603 348.579 54.7712C348.375 54.9551 348.281 55.1433 348.704 55.4519C348.281 55.1433 348.378 54.9551 348.579 54.7712C355.532 59.2689 361.42 64.3379 367.282 70.2013C362.567 65.8502 357.568 62.0201 352.422 58.3409C347.272 54.6618 341.967 51.1425 336.561 47.4327C336.101 47.1175 335.177 46.485 334.718 46.1676C333.663 43.7426 332.063 42.088 330.191 40.8536C331.969 39.1968 332.687 33.9965 335.948 37.2992C336.21 36.9074 336.738 36.1217 337.001 35.7278C334.529 31.2476 336.672 24.7276 341.599 25.7278C344.304 26.3866 346.841 28.1047 349.413 30.0175C350.702 30.9718 351.987 31.9895 353.324 32.935C354.653 33.8937 356.023 34.7888 357.463 35.5286C361.527 37.8529 365.572 40.2517 368.722 43.8148C370.854 46.3055 373.351 48.5401 375.802 50.8295C377.026 51.9763 378.232 53.1451 379.372 54.362C380.504 55.5898 381.578 56.857 382.511 58.2337C384.01 60.0569 388.037 61.5583 388.018 63.3902C388.217 64.4473 387.593 65.2374 386.774 66.0166C383.979 63.4558 381.101 61.0133 378.317 58.516C375.078 55.2309 371.839 51.9304 368.752 48.3979C371.541 52.1536 374.841 55.3906 378.317 58.516C380.952 61.184 383.577 63.8585 386.102 66.6338C385.378 67.286 384.632 67.9732 384.205 68.8334C384.205 68.8334 385.078 69.5709 385.516 69.9386C385.739 73.2172 383.145 75.3621 380.762 76.4433C380.232 76.625 379.637 76.8307 379.013 77.0124L379.007 77.0146Z" fill="#CAA164"/>
<path d="M374.391 136.66C374.487 136.345 374.586 136.027 374.673 135.714C376.035 129.915 375.503 124.134 376.385 117.695C377.286 113.187 376.763 108.048 376.717 103.55C375.951 114.222 376.391 125.428 373.22 135.706C372.095 134.681 371.191 133.451 371.178 132.011C371.583 128.54 371.858 125.115 372.036 121.718C372.513 121.714 373.445 121.705 373.914 121.701C372.399 112.073 376.094 103.033 373.633 93.4143C373.384 93.7601 372.997 93.561 372.69 93.4909C372.69 93.4668 372.69 93.445 372.688 93.4231C372.688 93.445 372.688 93.4668 372.69 93.4909C372.421 93.4296 372.215 93.4712 372.22 94.0709C372.213 93.4712 372.421 93.4296 372.69 93.4909C373.244 102.972 372.876 111.847 372.053 121.328C372.793 106.61 371.731 92.4382 371.583 77.3605C371.576 76.7192 371.563 75.4323 371.556 74.7889C372.948 72.2041 373.397 69.6258 373.371 67.0563C375.741 67.6757 380.443 65.0559 379.547 70.2102C380.02 70.2058 380.966 70.1971 381.438 70.1905C383.752 65.0231 390.351 63.0292 392.292 68.1528C394.24 73.92 392.426 81.6525 393.441 88.7131C393.965 93.852 394.488 98.991 393.595 104.141C392.246 111.226 392.796 118.936 390.975 126.025C390.528 128.601 391.99 133.088 390.585 134.388C389.915 135.318 388.909 135.364 387.786 135.235C387.911 131.007 387.921 126.794 388.086 122.624C388.565 117.507 389.103 112.39 389.992 107.273C388.744 112.281 388.291 117.417 388.086 122.624C387.696 126.785 387.344 130.95 386.88 135.113C385.912 134.97 384.905 134.835 383.975 135.097C383.975 135.097 383.988 136.382 383.995 137.025C381.657 139.621 378.341 139.008 375.964 137.75C375.481 137.426 374.936 137.065 374.391 136.66Z" fill="#CAA164"/>
<path d="M383.287 138.395C382.908 138.297 382.53 138.196 382.153 138.102C375.202 136.684 368.248 137.156 360.524 136.211C355.118 135.265 348.937 135.738 343.533 135.738C356.346 136.609 369.815 136.279 382.127 139.553C380.881 140.669 379.395 141.56 377.664 141.56C373.497 141.12 369.386 140.811 365.306 140.601V138.723C353.719 140.142 342.905 136.36 331.32 138.723C331.731 138.975 331.488 139.36 331.403 139.667C331.375 139.667 331.348 139.667 331.32 139.669C331.346 139.669 331.375 139.669 331.403 139.667C331.326 139.934 331.372 140.142 332.095 140.142C331.375 140.142 331.326 139.934 331.403 139.667C342.802 139.207 353.459 139.662 364.842 140.579C347.168 139.695 330.127 140.617 312.011 140.617H308.923C305.832 139.198 302.742 138.726 299.653 138.726C300.424 136.362 297.336 131.634 303.516 132.58V130.689C297.336 128.325 295.018 121.707 301.199 119.816C308.15 117.925 317.419 119.816 325.914 118.87C332.095 118.397 338.273 117.925 344.452 118.87C352.949 120.288 362.218 119.816 370.713 121.707C373.803 122.179 379.211 120.761 380.757 122.179C381.866 122.858 381.91 123.865 381.742 124.987C376.664 124.821 371.599 124.769 366.593 124.563C360.452 124.033 354.31 123.444 348.171 122.505C354.175 123.803 360.338 124.307 366.593 124.563C371.588 124.994 376.587 125.386 381.582 125.894C381.4 126.859 381.223 127.865 381.527 128.798H383.843C386.933 131.162 386.158 134.471 384.618 136.835C384.224 137.314 383.782 137.857 383.289 138.397L383.287 138.395Z" fill="#CAA164"/>
<path d="M345.883 163.069C345.273 163.456 344.655 163.822 344.049 164.165C341.276 165.818 338.431 167.043 335.5 167.582C334.038 167.855 332.554 167.961 331.081 167.88C329.608 167.801 328.141 167.553 326.738 167.072C325.338 166.597 323.985 165.914 322.803 164.997C322.512 164.763 322.219 164.531 321.943 164.279C321.672 164.023 321.407 163.758 321.157 163.48C320.649 162.933 320.201 162.329 319.791 161.697C319.387 161.06 319.023 160.388 318.71 159.681C318.391 158.978 318.15 158.221 317.909 157.466C317.808 157.079 317.712 156.687 317.622 156.293L317.555 155.997L317.506 155.693L317.415 155.085L317.325 154.476C317.303 154.27 317.292 154.06 317.277 153.852L317.233 153.226C317.218 153.019 317.202 152.811 317.209 152.596C317.244 150.206 317.607 147.737 318.351 145.312C319.085 142.887 320.255 140.513 321.818 138.429C322.015 138.169 322.212 137.91 322.418 137.659C322.63 137.411 322.845 137.168 323.061 136.925C323.484 136.431 323.972 136.006 324.432 135.553C325.373 134.671 326.412 133.918 327.498 133.297C328.586 132.677 329.733 132.198 330.906 131.891C332.079 131.587 333.276 131.458 334.445 131.476C333.062 131.401 331.652 131.524 330.286 131.887C328.918 132.248 327.594 132.828 326.349 133.59C325.727 133.971 325.123 134.395 324.543 134.859C324.252 135.091 323.985 135.352 323.703 135.597C323.427 135.849 323.138 136.087 322.882 136.365C322.619 136.634 322.361 136.91 322.107 137.19C321.851 137.468 321.619 137.77 321.38 138.066C320.897 138.652 320.481 139.291 320.065 139.935C319.859 140.256 319.678 140.591 319.492 140.926C319.308 141.261 319.12 141.596 318.971 141.946L318.496 142.988C318.41 143.161 318.353 143.34 318.288 143.518L318.093 144.054C317.808 144.765 317.642 145.496 317.432 146.223C317.375 146.404 317.349 146.588 317.309 146.772L317.202 147.324C317.132 147.691 317.047 148.059 317.014 148.427L316.88 149.532C316.852 149.718 316.854 149.9 316.843 150.081L316.819 150.631C316.762 151.368 316.819 152.084 316.834 152.813C316.953 154.24 317.134 155.667 317.511 157.011C318.227 159.718 319.457 162.178 321.313 164.143C321.542 164.393 321.783 164.627 322.035 164.857C322.293 165.076 322.547 165.303 322.812 165.516C323.355 165.925 323.915 166.317 324.51 166.652C325.694 167.332 326.977 167.836 328.299 168.195C330.947 168.895 333.766 168.978 336.546 168.492C339.33 168.006 342.099 166.934 344.78 165.433C344.08 166.647 343.134 167.899 341.895 168.976C340.663 170.051 339.142 170.968 337.411 171.462C336.362 171.712 335.31 171.869 334.259 171.972C333.208 172.055 332.16 172.08 331.123 172.02C329.05 171.902 327.019 171.502 325.112 170.773C324.633 170.602 324.169 170.39 323.705 170.184C323.252 169.954 322.794 169.733 322.361 169.471C322.144 169.342 321.923 169.219 321.711 169.079L321.081 168.659C320.866 168.525 320.678 168.357 320.477 168.208C320.277 168.055 320.076 167.904 319.886 167.742C319.498 167.426 319.137 167.078 318.785 166.73C318.43 166.382 318.095 166.017 317.776 165.638C317.137 164.881 316.565 164.069 316.051 163.211C316.414 162.878 317.126 162.228 317.485 161.9C316.743 160.85 316.136 159.668 315.639 158.416C315.519 158.101 315.403 157.781 315.291 157.462C315.232 157.304 315.186 157.135 315.143 156.969L315.009 156.47C314.924 156.135 314.825 155.805 314.751 155.465L314.563 154.428C314.414 153.745 314.385 153.016 314.313 152.307C314.269 151.955 314.282 151.585 314.278 151.222V150.127C314.298 149.76 314.333 149.388 314.363 149.02L314.412 148.466L314.436 148.19C314.447 148.098 314.466 148.004 314.479 147.912L314.668 146.803L314.764 146.249L314.904 145.697L315.189 144.597C315.213 144.505 315.235 144.413 315.263 144.323L315.357 144.052L315.548 143.509C315.677 143.148 315.797 142.787 315.933 142.43L316.41 141.379C316.71 140.675 317.082 139.998 317.467 139.333C317.846 138.668 318.29 138.035 318.728 137.409C319.183 136.796 319.673 136.207 320.177 135.641C320.435 135.363 320.698 135.091 320.965 134.824C321.232 134.557 321.496 134.29 321.788 134.054L322.639 133.323C322.917 133.073 323.212 132.85 323.512 132.633C324.11 132.198 324.725 131.802 325.357 131.441C326.62 130.723 327.942 130.158 329.301 129.782C330.661 129.401 332.055 129.202 333.449 129.184C336.242 129.136 338.973 129.79 341.541 130.703C342.834 131.149 344.08 131.69 345.297 132.27C345.91 132.555 346.492 132.879 347.083 133.196C347.652 133.533 348.236 133.863 348.783 134.229C351.014 135.658 353.005 137.354 354.739 139.307C354.566 138.628 355.188 138.821 355.579 138.836C355.61 138.878 355.641 138.917 355.665 138.959C355.638 138.919 355.61 138.878 355.579 138.836C354.054 136.739 352.152 134.846 349.897 133.246C349.346 132.837 348.748 132.467 348.162 132.091C347.549 131.738 346.949 131.373 346.306 131.058C345.036 130.408 343.712 129.819 342.338 129.331C339.602 128.339 336.677 127.659 333.71 127.722C332.23 127.757 330.746 127.956 329.31 128.366C327.872 128.77 326.474 129.359 325.149 130.119C324.486 130.497 323.841 130.917 323.212 131.373C322.899 131.6 322.591 131.839 322.289 132.082L321.413 132.865L320.976 133.257C320.829 133.386 320.682 133.518 320.547 133.662C320.271 133.942 319.997 134.229 319.728 134.52C319.183 135.093 318.693 135.724 318.205 136.352C316.294 138.906 314.891 141.861 314.072 144.903C313.252 147.947 312.98 151.077 313.258 154.063C313.289 154.437 313.354 154.798 313.403 155.168C313.459 155.533 313.495 155.91 313.569 156.269L313.801 157.346L313.917 157.886C313.956 158.066 314.013 158.236 314.061 158.411C314.267 159.105 314.473 159.808 314.746 160.464C314.878 160.797 315.011 161.13 315.151 161.46C315.296 161.784 315.451 162.104 315.611 162.419C315.14 161.548 314.76 160.609 314.396 159.665C314.232 159.182 314.074 158.694 313.926 158.203C313.845 157.963 313.801 157.7 313.737 157.448L313.56 156.689C313.125 154.645 312.906 152.504 312.976 150.302C313.081 148.096 313.455 145.853 314.112 143.653C314.296 143.106 314.462 142.555 314.659 142.014L315.34 140.41C315.447 140.14 315.583 139.88 315.712 139.62C315.843 139.359 315.979 139.099 316.117 138.843C316.388 138.326 316.69 137.825 317.005 137.33C318.259 135.356 319.794 133.546 321.545 132.042C321.963 131.64 322.416 131.283 322.873 130.939C323.331 130.594 323.801 130.27 324.281 129.965C325.241 129.359 326.239 128.832 327.273 128.407C328.303 127.983 329.365 127.643 330.444 127.416C331.523 127.19 332.622 127.061 333.718 127.028C335.916 126.96 338.105 127.293 340.199 127.86C342.296 128.431 344.321 129.21 346.218 130.136C348.116 131.066 349.856 132.178 351.416 133.417C354.544 135.897 356.888 138.924 358.324 142.25C359.751 145.571 360.357 149.243 359.939 152.833C359.742 154.627 359.285 156.396 358.598 158.081C357.888 159.757 356.917 161.322 355.768 162.719C355.258 163.264 354.78 163.822 354.225 164.314C353.962 164.575 353.673 164.807 353.391 165.045C353.113 165.29 352.811 165.505 352.513 165.728C351.309 166.601 349.994 167.341 348.582 167.95C347.945 168.241 346.934 168.606 345.888 168.91C345.623 168.98 345.356 169.05 345.095 169.118C344.964 169.151 344.835 169.184 344.708 169.215C344.577 169.241 344.45 169.269 344.325 169.293C344.073 169.346 343.835 169.394 343.614 169.442C343.392 169.49 343.178 169.514 342.992 169.547C341.355 169.451 339.748 169.267 338.166 169.033C336.581 168.797 335.025 168.49 333.508 168.219L332.392 168.026L331.851 167.939L331.582 167.88C331.4 167.84 331.221 167.805 331.057 167.774C330.89 167.744 330.713 167.713 330.56 167.693C329.919 167.602 329.354 167.569 328.886 167.599C328.975 167.006 328.914 166.269 328.807 165.511C328.702 164.752 328.555 163.982 328.549 163.299C328.544 162.616 328.7 162.029 329.26 161.666C329.542 161.486 329.927 161.368 330.444 161.34C330.704 161.329 330.993 161.331 331.324 161.37C331.488 161.388 331.659 161.41 331.845 161.443C331.937 161.46 332.031 161.476 332.127 161.493C332.232 161.513 332.337 161.535 332.447 161.556C332.477 161.086 332.539 160.14 332.569 159.67C331.738 159.311 330.996 158.908 330.284 158.481C329.579 158.052 328.914 157.613 328.297 157.151C327.067 156.229 325.975 155.308 325.351 154.303C325.093 153.796 324.939 153.272 324.904 152.747C324.896 152.616 324.893 152.485 324.9 152.353C324.902 152.288 324.909 152.222 324.915 152.156C324.92 152.091 324.933 152.025 324.959 151.959C325.047 151.692 325.184 151.425 325.377 151.16C325.572 150.893 325.821 150.629 326.121 150.386C326.423 150.138 326.789 149.893 327.196 149.681C328.025 149.239 329.05 148.895 330.212 148.674C331.074 148.527 331.897 148.442 332.69 148.383C332.884 148.37 333.079 148.359 333.276 148.346C333.311 148.346 333.298 148.341 333.305 148.337L333.313 148.328L333.331 148.311L333.366 148.28C333.418 148.247 333.427 148.206 333.454 148.175C333.543 148.046 333.596 147.987 333.666 147.967C333.734 147.945 333.819 147.965 333.933 147.978C334.044 147.993 334.187 148.002 334.309 147.961C334.373 147.939 334.427 147.906 334.465 147.86C334.493 147.81 334.522 147.757 334.513 147.696C334.5 147.573 334.377 147.431 334.136 147.356C333.955 147.278 333.773 147.258 333.644 147.271C333.513 147.282 333.438 147.324 333.414 147.341C333.39 147.359 333.414 147.356 333.438 147.286C333.46 147.221 333.478 147.079 333.394 146.884C333.272 146.586 332.97 146.516 332.694 146.625C332.409 146.731 332.142 146.993 331.935 147.354C331.727 147.72 331.562 148.188 331.486 148.81C331.449 149.121 331.431 149.475 331.477 149.86C331.523 150.248 331.646 150.653 331.847 151.047C332.02 151.276 332.331 151.351 332.655 151.316C332.981 151.276 333.313 151.138 333.596 150.99C334.169 150.69 334.53 150.432 335.073 150.933C335.699 151.329 336.308 152.126 336.789 153.185C336.135 153.636 335.456 154.043 334.732 154.33C334.012 154.623 333.241 154.789 332.471 154.78C331.705 154.778 330.932 154.616 330.273 154.231C329.941 154.045 329.643 153.802 329.389 153.52C329.137 153.233 328.936 152.905 328.776 152.561C328.441 151.651 328.354 150.688 328.4 149.788C328.446 148.884 328.66 148.028 328.991 147.276C329.639 145.765 330.785 144.682 331.941 144.319C331.344 144.428 330.722 144.756 330.173 145.26C329.625 145.763 329.14 146.437 328.809 147.223C328.474 148.007 328.266 148.897 328.257 149.819C328.247 150.736 328.387 151.692 328.781 152.561C328.918 152.929 329.098 153.286 329.332 153.605C329.568 153.922 329.853 154.203 330.175 154.432C330.814 154.901 331.589 155.157 332.383 155.255C333.18 155.358 334.005 155.277 334.806 155.056C335.609 154.833 336.391 154.481 337.166 154.052C337.546 154.98 337.87 156.004 338.564 156.66C338.564 156.66 338.871 156.431 339.24 156.126C339.615 155.827 340.046 155.45 340.335 155.196C341.346 155.091 342.222 155.163 342.957 155.411C343.692 155.656 344.292 156.067 344.774 156.588C345.734 157.632 346.242 159.096 346.356 160.591C346.345 160.926 346.325 161.287 346.293 161.668L346.279 161.813C346.273 161.863 346.258 161.92 346.247 161.975C346.218 162.088 346.177 162.213 346.139 162.336C346.063 162.581 345.977 162.832 345.881 163.091L345.883 163.069Z" fill="#CAA164"/>
<path d="M332.342 142.031C332.338 142.064 332.34 142.09 332.338 142.125C332.338 142.162 332.338 142.195 332.345 142.228C332.358 142.392 332.415 142.552 332.45 142.624C332.485 142.699 332.491 142.681 332.423 142.611C332.391 142.576 332.345 142.532 332.286 142.486L332.859 142.913L332.901 142.942C332.933 142.963 332.982 142.994 333.021 143.016C333.214 143.125 333.52 143.274 334.045 143.447C334.192 143.5 334.33 143.539 334.487 143.583C334.671 143.64 334.838 143.681 335.041 143.729L335.38 143.813L335.742 143.891L336.177 143.983L336.65 144.073L337.099 144.156C337.099 144.156 337.088 144.152 337.081 144.156C337.068 144.165 337.057 144.165 337.042 144.18C337.013 144.207 336.983 144.248 336.948 144.309C336.878 144.423 336.79 144.647 336.689 144.839C336.589 145.036 336.47 145.235 336.333 145.434C335.275 146.531 335.641 147.943 335.575 149.127C336.09 147.741 336.341 146.314 336.919 144.944L337.031 144.688C337.07 144.605 337.11 144.511 337.149 144.45C337.23 144.314 337.311 144.235 337.392 144.218L337.423 144.213H337.438C337.438 144.213 337.442 144.213 337.444 144.213H337.449L337.392 144.204L336.88 144.115L336.398 144.023C336.14 143.977 335.875 143.92 335.628 143.863C335.424 143.821 335.223 143.773 335.019 143.721C334.299 143.541 333.844 143.386 333.511 143.25C333.183 143.114 332.988 143.001 332.877 142.926L332.839 142.9L332.82 142.885C331.723 142.07 332.518 142.659 332.272 142.478H332.275L332.279 142.482L332.29 142.488C332.316 142.508 332.34 142.53 332.36 142.548C332.38 142.565 332.399 142.583 332.415 142.6C332.428 142.613 332.441 142.626 332.45 142.639C332.485 142.683 332.465 142.67 332.43 142.591C332.395 142.515 332.351 142.37 332.338 142.226C332.349 142.344 332.382 142.473 332.419 142.561C332.456 142.653 332.487 142.688 332.459 142.648C332.441 142.626 332.402 142.58 332.342 142.528C332.327 142.515 332.312 142.502 332.294 142.488L332.281 142.48L332.275 142.475C332.52 142.657 331.727 142.068 332.822 142.882L332.824 142.885L332.848 142.902L332.896 142.935L332.966 142.981C333.165 143.101 333.505 143.27 334.155 143.48C334.238 143.506 334.321 143.532 334.406 143.557L334.706 143.642L335.026 143.723C335.155 143.756 335.284 143.789 335.413 143.817L335.844 143.911C336.009 143.948 336.173 143.981 336.339 144.012L336.941 144.126C337.158 144.165 337.374 144.202 337.591 144.237L338.48 144.384L339.478 144.533C339.92 144.601 340.364 144.662 340.809 144.721C340.968 144.743 340.907 144.734 340.918 144.734H340.911L340.9 144.738C340.885 144.747 340.87 144.752 340.852 144.78L340.828 144.815L340.802 144.872C340.327 144.819 339.401 144.719 338.935 144.668C339.511 145.947 338.819 147.085 338.265 148.251C337.711 149.413 337.298 150.628 338.442 151.904C338.696 151.823 339.082 151.887 339.386 151.913C338.996 149.486 339.607 147.223 340.769 144.953C340.134 146.748 340.003 148.582 340.04 150.42C340.077 152.261 340.277 154.106 340.307 156.001C340.309 156.163 340.316 156.487 340.32 156.647C338.917 157.328 338.467 158.013 338.497 158.671C336.129 158.601 331.432 159.516 332.323 158.065C331.85 158.083 330.905 158.115 330.434 158.133C329.278 158.89 327.061 159.503 324.883 159.755C322.706 160.002 320.569 159.88 319.591 159.118C318.61 158.262 318.575 157.198 318.68 156.098C318.783 154.992 319.02 153.848 318.567 152.74C318.12 151.131 317.706 149.479 318.746 147.929C319.519 146.87 319.84 145.75 320.234 144.64C320.431 144.084 320.65 143.535 320.95 143.001C321.252 142.53 321.642 141.567 322.467 140.302C322.719 139.834 322.924 139.181 323.253 138.383C323.415 137.989 323.614 137.553 323.85 137.12C323.973 136.899 324.098 136.686 324.244 136.459C324.428 136.19 324.627 135.918 324.826 135.68C325.625 134.714 326.518 134.032 327.378 133.629C328.234 133.228 329.073 133.121 329.633 133.32C330.41 133.447 330.837 133.815 331.066 134.259C331.292 134.708 331.318 135.242 331.325 135.809C330.723 135.883 330.173 136.032 329.674 136.231C329.171 136.428 328.711 136.678 328.278 136.977C327.845 137.275 327.438 137.632 327.057 138.054C326.96 138.162 326.869 138.273 326.779 138.385C326.707 138.479 326.639 138.566 326.571 138.661C326.435 138.847 326.315 139.03 326.203 139.216C325.978 139.591 325.803 139.95 325.654 140.298C325.509 140.641 325.395 140.961 325.299 141.263C325.113 141.854 324.999 142.353 324.896 142.751C324.8 142.992 324.71 143.195 324.625 143.368L324.358 143.913C324.174 144.277 323.99 144.642 323.789 145.008C323.391 145.739 322.951 146.472 322.43 147.209C323.13 146.5 323.636 145.782 324.023 145.051C324.218 144.686 324.378 144.318 324.52 143.946C324.59 143.76 324.656 143.574 324.717 143.388C324.776 143.209 324.835 143.003 324.899 142.751C325.056 142.362 325.234 141.876 325.481 141.318C325.608 141.033 325.75 140.735 325.925 140.42C326.102 140.101 326.302 139.779 326.547 139.446C326.667 139.282 326.798 139.118 326.939 138.958L327.155 138.722C327.232 138.639 327.335 138.534 327.427 138.444C327.803 138.076 328.199 137.785 328.611 137.547C329.432 137.074 330.32 136.789 331.34 136.724C331.349 137.212 331.395 137.708 331.48 138.19C331.566 138.671 331.692 139.14 331.839 139.586C331.839 139.586 331.878 139.58 331.94 139.571C332.003 139.562 332.089 139.547 332.189 139.545C332.388 139.529 332.642 139.549 332.813 139.586C333.045 140.241 332.887 140.919 332.57 141.517C332.531 141.593 332.489 141.668 332.445 141.742L332.378 141.856V141.86C332.375 141.869 332.393 141.83 332.375 141.873C332.367 141.893 332.367 141.904 332.36 141.93C332.351 141.965 332.351 141.983 332.345 142.027L332.342 142.031Z" fill="#CAA164"/>
<path d="M173.475 134.019C173.453 134.148 173.431 134.275 173.41 134.402C173.346 135.455 173.624 136.201 173.946 136.941C174.11 137.307 174.278 137.677 174.419 138.071C174.563 138.462 174.67 138.887 174.705 139.366C174.563 140.857 175.653 141.71 176.226 142.73C175.922 141.316 175.287 140.036 174.845 138.618C174.401 137.195 174.156 135.63 174.545 133.498C175.596 133.019 176.515 132.75 176.769 133.078C177.034 134.133 177.354 135.098 177.728 136.002C177.336 136.274 176.572 136.806 176.187 137.075C177.52 137.758 177.737 139.174 177.971 140.493C178.212 141.828 178.49 143.054 180.133 143.687C180.315 143.49 180.685 143.365 180.965 143.245C179.363 141.115 178.533 138.828 177.769 136.105C178.586 138.057 179.636 139.76 180.718 141.491C181.797 143.218 182.895 144.982 183.701 146.952C183.769 147.121 183.907 147.456 183.975 147.624C182.917 148.821 182.72 149.629 182.95 150.292C180.667 150.929 176.419 153.085 176.89 151.596C176.447 151.761 175.559 152.089 175.117 152.253C174.213 153.231 172.219 154.334 170.183 155.131C169.168 155.543 168.139 155.86 167.235 156.081C166.333 156.3 165.554 156.405 165.033 156.35C163.972 156.184 163.766 155.65 163.637 155.03C163.578 154.72 163.523 154.398 163.414 154.098C163.293 153.803 163.107 153.536 162.761 153.358C161.945 152.743 161.129 152.218 161.505 150.973C161.816 150.08 161.663 149.388 161.551 148.666C161.492 148.305 161.439 147.937 161.453 147.521C161.457 147.11 161.538 146.646 161.72 146.101C161.763 145.768 161.38 145.632 161.1 145.468C160.82 145.302 160.658 145.09 161.137 144.551C161.558 143.991 162.337 143.354 163.23 142.673C163.637 143.452 164.116 144.168 164.431 144.98C164.591 146.131 164.661 147.311 164.355 148.642C164.979 147.147 164.825 145.991 164.431 144.98C164.302 144.039 164.099 143.124 163.954 142.128C164.727 141.551 165.534 140.949 166.228 140.32C166.228 140.32 166.047 140.097 165.957 139.986C167.423 138.04 170.032 136.004 172.079 134.774C172.503 134.536 172.985 134.271 173.475 134.017V134.019Z" fill="#CAA164"/>
<path d="M1.39574 163.717C1.43732 163.544 1.47891 163.369 1.51831 163.198C2.10926 160.013 1.91228 156.829 2.30625 153.29C2.70022 150.812 2.50323 147.982 2.50323 145.507C2.13991 151.377 2.2778 157.547 0.914219 163.187C0.450209 162.618 0.078125 161.935 0.078125 161.143C0.261978 159.234 0.388924 157.35 0.478662 155.483H1.26004C0.669081 150.175 2.24497 145.22 1.26004 139.915C1.15498 140.103 0.995202 139.992 0.866067 139.952C0.866067 139.939 0.866067 139.926 0.866067 139.915C0.866067 139.928 0.866067 139.939 0.866067 139.952C1.05867 145.174 0.866067 150.055 0.485228 155.271C0.852934 147.175 0.469907 139.368 0.469907 131.068V129.655C1.06086 128.239 1.25785 126.822 1.25785 125.409C2.24278 125.761 4.21263 124.347 3.81866 127.177H4.6066C5.59153 124.345 8.34933 123.283 9.13727 126.115C9.92521 129.3 9.13727 133.546 9.53124 137.437C9.72822 140.27 9.92521 143.099 9.53124 145.929C8.94028 149.821 9.13727 154.067 8.34933 157.958C8.15234 159.374 8.7433 161.852 8.15234 162.559C7.87 163.067 7.44976 163.088 6.98137 163.01C7.05141 160.683 7.0733 158.363 7.15866 156.072C7.37972 153.259 7.62486 150.445 8.01664 147.632C7.47602 150.381 7.26591 153.207 7.15866 156.072C6.97918 158.359 6.81503 160.65 6.60491 162.937C6.20218 162.854 5.78414 162.773 5.39454 162.913V163.975C4.40962 165.391 3.03072 165.036 2.04579 164.329C1.84662 164.15 1.62118 163.946 1.39574 163.721V163.717Z" fill="#CAA164"/>
<path d="M42.6809 130.999C42.5146 130.958 42.3461 130.916 42.1797 130.877C39.1111 130.286 36.0425 130.483 32.6347 130.089C30.249 129.695 27.5218 129.892 25.1361 129.892C30.7918 130.255 36.7342 130.117 42.1688 131.481C41.6194 131.945 40.9628 132.317 40.1989 132.317C38.3604 132.133 36.5459 132.006 34.7446 131.916V131.135C29.6317 131.726 24.8581 130.15 19.7453 131.135C19.9269 131.24 19.8197 131.4 19.7825 131.529C19.7693 131.529 19.7584 131.529 19.7453 131.529C19.7562 131.529 19.7693 131.529 19.7825 131.529C24.8122 131.336 29.5157 131.529 34.5411 131.91C26.7404 131.542 19.22 131.925 11.2245 131.925H9.86097C8.4974 131.334 7.13382 131.137 5.77024 131.137C6.10949 130.152 4.74592 128.183 7.47526 128.577V127.789C4.7481 126.804 3.72378 124.046 6.45312 123.258C9.52172 122.47 13.6125 123.258 17.3617 122.864C20.0889 122.667 22.816 122.47 25.5432 122.864C29.2925 123.455 33.3832 123.258 37.1325 124.046C38.4961 124.243 40.884 123.652 41.5647 124.243C42.055 124.525 42.0747 124.946 41.9981 125.414C39.7568 125.344 37.5221 125.322 35.3137 125.237C32.604 125.016 29.8922 124.77 27.1826 124.379C29.8309 124.919 32.5537 125.129 35.3137 125.237C37.5177 125.416 39.724 125.58 41.928 125.79C41.847 126.193 41.7704 126.611 41.9039 127.001H42.9261C44.2897 127.986 43.9482 129.364 43.2675 130.349C43.0946 130.549 42.8976 130.774 42.6809 130.999Z" fill="#CAA164"/>
<path d="M40.8352 160.942C40.8768 160.793 40.9184 160.647 40.9578 160.498C41.5487 157.78 41.3517 155.061 41.7457 152.041C42.1397 149.927 41.9427 147.51 41.9427 145.396C41.5794 150.408 41.7173 155.674 40.3537 160.489C39.8897 160.003 39.5176 159.421 39.5176 158.745C39.7014 157.116 39.8284 155.508 39.9181 153.912H40.6995C40.1085 149.382 41.6844 145.153 40.6995 140.62C40.5944 140.782 40.4347 140.686 40.3055 140.653C40.1939 140.623 40.1063 140.642 40.1063 140.923C40.1063 140.64 40.1939 140.623 40.3055 140.653C40.4981 145.112 40.3055 149.279 39.9247 153.731C40.2924 146.819 39.9094 140.156 39.9094 133.072V131.864C40.5003 130.656 40.6973 129.447 40.6973 128.239C41.6822 128.541 43.6521 127.333 43.2581 129.749H44.0461C45.031 127.333 47.7888 126.427 48.5767 128.843C49.3647 131.562 48.5767 135.186 48.9707 138.508C49.1677 140.925 49.3647 143.341 48.9707 145.757C48.3797 149.08 48.5767 152.704 47.7888 156.026C47.5918 157.235 48.1827 159.349 47.5918 159.955C47.3094 160.388 46.8892 160.406 46.4208 160.34C46.4909 158.355 46.5128 156.374 46.5981 154.418C46.8192 152.017 47.0643 149.614 47.4561 147.215C46.9155 149.563 46.7054 151.973 46.5981 154.418C46.4186 156.37 46.2545 158.325 46.0444 160.279C45.6416 160.207 45.2236 160.139 44.834 160.257V161.163C43.8491 162.371 42.4702 162.069 41.4852 161.465C41.2861 161.312 41.0606 161.139 40.8352 160.944V160.942Z" fill="#CAA164"/>
<path d="M43.637 165.999C43.4663 165.958 43.2934 165.916 43.1249 165.877C39.9797 165.286 36.8323 165.483 33.3369 165.089C30.8899 164.695 28.0949 164.892 25.6479 164.892C31.4458 165.255 37.5414 165.117 43.1117 166.481C42.5492 166.945 41.8751 167.317 41.0915 167.317C39.2071 167.133 37.3444 167.006 35.4993 166.916V166.135C30.2573 166.726 25.3634 165.15 20.1192 166.135C20.3052 166.24 20.1958 166.4 20.1564 166.529C25.3152 166.336 30.137 166.529 35.287 166.91C27.2894 166.542 19.5785 166.925 11.3796 166.925H9.98097C8.58238 166.334 7.18378 166.137 5.78737 166.137C6.13538 165.152 4.73897 163.183 7.53398 163.577V162.789C4.73678 161.804 3.68838 159.046 6.48558 158.258C9.63078 157.47 13.8266 158.258 17.67 157.864C20.4672 157.667 23.2622 157.47 26.0594 157.864C29.905 158.455 34.0986 158.258 37.942 159.046C39.3406 159.243 41.7876 158.652 42.488 159.243C42.9892 159.525 43.0111 159.946 42.9323 160.414C40.6341 160.344 38.3425 160.322 36.0772 160.237C33.2975 160.016 30.5178 159.77 27.7403 159.379C30.4565 159.919 33.2471 160.129 36.0772 160.237C38.3381 160.416 40.5991 160.58 42.86 160.79C42.7769 161.193 42.6981 161.611 42.836 162.001H43.8844C45.283 162.986 44.9328 164.364 44.2346 165.349C44.0573 165.549 43.8559 165.774 43.6327 165.999H43.637Z" fill="#CAA164"/>
<path d="M49.8059 165.233C49.8475 165.06 49.8891 164.885 49.9285 164.714C50.5194 161.529 50.3224 158.345 50.7164 154.806C51.1104 152.328 50.9134 149.498 50.9134 147.023C50.5501 152.893 50.688 159.063 49.3244 164.703C48.8604 164.134 48.4883 163.451 48.4883 162.659C48.6721 160.75 48.7991 158.866 48.8888 156.999H49.6702C49.0792 151.691 50.6551 146.736 49.6702 141.429C49.5651 141.617 49.4054 141.505 49.2762 141.466C49.2762 141.453 49.2762 141.44 49.2762 141.429C49.2762 141.442 49.2762 141.453 49.2762 141.466C49.4688 146.688 49.2762 151.569 48.8954 156.784C49.2631 148.689 48.8801 140.882 48.8801 132.582V131.166C49.471 129.75 49.668 128.334 49.668 126.92C50.6529 127.273 52.6228 125.859 52.2288 128.689H53.0168C54.0017 125.857 56.7595 124.795 57.5474 127.627C58.3354 130.812 57.5474 135.058 57.9414 138.949C58.1384 141.781 58.3354 144.611 57.9414 147.441C57.3504 151.333 57.5474 155.579 56.7595 159.47C56.5625 160.886 57.1535 163.364 56.5625 164.071C56.2802 164.578 55.8599 164.598 55.3915 164.521C55.4616 162.195 55.4835 159.875 55.5688 157.581C55.7899 154.769 56.035 151.954 56.4268 149.142C55.8862 151.891 55.6761 154.716 55.5688 157.581C55.3893 159.868 55.2252 162.16 55.0151 164.447C54.6123 164.364 54.1943 164.283 53.8047 164.423V165.484C52.8198 166.9 51.4409 166.546 50.4559 165.839C50.2568 165.659 50.0313 165.456 49.8059 165.231V165.233Z" fill="#CAA164"/>
<path d="M91.0872 132.519C90.9208 132.477 90.7523 132.436 90.586 132.396C87.5174 131.805 84.4488 132.002 81.0409 131.608C78.6552 131.214 75.9281 131.411 73.5424 131.411C79.198 131.775 85.1404 131.637 90.575 133C90.0257 133.464 89.369 133.837 88.6052 133.837C86.7666 133.653 84.9522 133.526 83.1509 133.436V132.655C78.038 133.246 73.2644 131.67 68.1515 132.655C68.3332 132.76 68.2259 132.919 68.1887 133.049C68.1756 133.049 68.1646 133.049 68.1515 133.049C68.1625 133.049 68.1756 133.049 68.1887 133.049C73.2184 132.856 77.922 133.049 82.9473 133.429C75.1467 133.062 67.6262 133.445 59.6308 133.445H58.2672C56.9036 132.854 55.5401 132.657 54.1765 132.657C54.5157 131.672 53.1522 129.702 55.8815 130.096V129.308C53.1544 128.323 52.13 125.566 54.8594 124.778C57.928 123.99 62.0187 124.778 65.768 124.384C68.4951 124.187 71.2223 123.99 73.9495 124.384C77.6987 124.975 81.7895 124.778 85.5388 125.566C86.9023 125.763 89.2902 125.172 89.9709 125.763C90.4612 126.045 90.4809 126.465 90.4043 126.933C88.1631 126.863 85.9284 126.842 83.7199 126.756C81.0103 126.535 78.2985 126.29 75.5888 125.898C78.2372 126.439 80.9599 126.649 83.7199 126.756C85.924 126.936 88.1302 127.1 90.3343 127.31C90.2533 127.713 90.1767 128.131 90.3102 128.52H91.3323C92.6959 129.505 92.3545 130.884 91.6738 131.869C91.5009 132.068 91.3039 132.293 91.0872 132.519Z" fill="#CAA164"/>
<path d="M89.2395 162.454C89.2811 162.305 89.3227 162.158 89.3621 162.01C89.953 159.291 89.756 156.573 90.15 153.553C90.544 151.438 90.347 149.022 90.347 146.908C89.9837 151.918 90.1215 157.186 88.758 162.001C88.294 161.515 87.9219 160.933 87.9219 160.256C88.1057 158.628 88.2327 157.019 88.3224 155.424H89.1038C88.5128 150.893 90.0887 146.665 89.1038 142.132C88.9987 142.294 88.839 142.198 88.7098 142.165C88.5982 142.134 88.5106 142.154 88.5106 142.434C88.5106 142.152 88.5982 142.134 88.7098 142.165C88.9024 146.623 88.7098 150.791 88.329 155.242C88.6967 148.33 88.3137 141.668 88.3137 134.584V133.375C88.9046 132.167 89.1016 130.959 89.1016 129.751C90.0865 130.053 92.0564 128.845 91.6624 131.261H92.4504C93.4353 128.845 96.1931 127.939 96.981 130.355C97.769 133.073 96.981 136.698 97.375 140.02C97.572 142.436 97.769 144.853 97.375 147.269C96.784 150.591 96.981 154.216 96.1931 157.538C95.9961 158.746 96.5871 160.861 95.9961 161.467C95.7137 161.9 95.2935 161.918 94.8251 161.852C94.8952 159.867 94.917 157.886 95.0024 155.929C95.2235 153.529 95.4686 151.125 95.8604 148.727C95.3198 151.075 95.1097 153.485 95.0024 155.929C94.8229 157.882 94.6588 159.836 94.4487 161.791C94.0459 161.718 93.6279 161.651 93.2383 161.769V162.675C92.2534 163.883 90.8745 163.581 89.8895 162.977C89.6904 162.824 89.4649 162.651 89.2395 162.456V162.454Z" fill="#CAA164"/>
<path d="M92.0433 167.519C91.8726 167.477 91.6997 167.436 91.5311 167.396C88.3859 166.805 85.2385 167.002 81.7431 166.608C79.2961 166.214 76.5011 166.411 74.0541 166.411C79.8521 166.775 85.9477 166.637 91.518 168C90.9555 168.464 90.2814 168.837 89.4978 168.837C87.6133 168.653 85.7507 168.526 83.9056 168.436V167.655C78.6636 168.246 73.7696 166.67 68.5254 167.655C68.7115 167.76 68.602 167.919 68.5626 168.049C73.7215 167.856 78.5432 168.049 83.6933 168.429C75.6957 168.062 67.9848 168.445 59.7858 168.445H58.3872C56.9886 167.854 55.59 167.657 54.1936 167.657C54.5416 166.672 53.1452 164.702 55.9402 165.096V164.308C53.143 163.323 52.0946 160.566 54.8918 159.778C58.037 158.99 62.2328 159.778 66.0762 159.384C68.8734 159.187 71.6684 158.99 74.4656 159.384C78.3112 159.975 82.5048 159.778 86.3482 160.566C87.7468 160.763 90.1938 160.172 90.8942 160.763C91.3954 161.045 91.4173 161.465 91.3385 161.933C89.0404 161.863 86.7488 161.842 84.4834 161.756C81.7037 161.535 78.9241 161.29 76.1466 160.898C78.8628 161.439 81.6534 161.649 84.4834 161.756C86.7444 161.936 89.0053 162.1 91.2663 162.31C91.1831 162.713 91.1043 163.131 91.2422 163.52H92.2906C93.6892 164.505 93.339 165.884 92.6408 166.869C92.4635 167.068 92.2622 167.294 92.0389 167.519H92.0433Z" fill="#CAA164"/>
<path d="M34.177 121.074C34.2186 120.901 34.2602 120.726 34.2996 120.556C34.8905 117.371 34.6935 114.187 35.0875 110.648C35.4815 108.17 35.2845 105.34 35.2845 102.865C34.9212 108.735 35.059 114.904 33.6955 120.545C33.2315 119.976 32.8594 119.293 32.8594 118.5C33.0432 116.592 33.1702 114.707 33.2599 112.841H34.0413C33.4503 107.533 35.0262 102.578 34.0413 97.2726C33.9362 97.4609 33.7765 97.3492 33.6473 97.3098C33.6473 97.2967 33.6473 97.2836 33.6473 97.2726C33.6473 97.2858 33.6473 97.2967 33.6473 97.3098C33.8399 102.532 33.6473 107.413 33.2665 112.628C33.6342 104.532 33.2512 96.7255 33.2512 88.4261V87.01C33.8421 85.594 34.0391 84.1779 34.0391 82.764C35.024 83.1164 36.9939 81.7025 36.5999 84.5325H37.3879C38.3728 81.7003 41.1306 80.6388 41.9185 83.471C42.7065 86.6555 41.9185 90.9014 42.3125 94.7929C42.5095 97.625 42.7065 100.455 42.3125 103.285C41.7215 107.176 41.9185 111.422 41.1306 115.314C40.9336 116.73 41.5245 119.207 40.9336 119.914C40.6512 120.422 40.231 120.444 39.7626 120.365C39.8327 118.039 39.8545 115.719 39.9399 113.427C40.161 110.615 40.4061 107.8 40.7979 104.988C40.2573 107.737 40.0472 110.562 39.9399 113.427C39.7604 115.714 39.5963 118.006 39.3862 120.293C38.9834 120.21 38.5654 120.129 38.1758 120.269V121.33C37.1909 122.746 35.812 122.392 34.827 121.685C34.6279 121.505 34.4024 121.302 34.177 121.076V121.074Z" fill="#CAA164"/>
<path d="M75.4641 88.351C75.2978 88.3094 75.1293 88.2678 74.9629 88.2284C71.8943 87.6375 68.8257 87.8344 65.4179 87.4405C63.0322 87.0465 60.305 87.2435 57.9193 87.2435C63.575 87.6068 69.5174 87.4689 74.952 88.8325C74.4026 89.2965 73.746 89.6685 72.9821 89.6685C71.1436 89.4847 69.3291 89.3578 67.5278 89.268V88.4867C62.415 89.0776 57.6413 87.5018 52.5285 88.4867C52.7101 88.5917 52.6029 88.7515 52.5657 88.8806C52.5525 88.8806 52.5416 88.8806 52.5285 88.8806C52.5394 88.8806 52.5525 88.8806 52.5657 88.8806C57.5954 88.688 62.2989 88.8806 67.3243 89.2615C59.5236 88.8938 52.0032 89.2768 44.0078 89.2768H42.6442C41.2806 88.6858 39.917 88.4889 38.5534 88.4889C38.8927 87.504 37.5291 85.5342 40.2585 85.9281V85.1402C37.5313 84.1553 36.507 81.3976 39.2363 80.6097C42.3049 79.8218 46.3957 80.6097 50.1449 80.2157C52.8721 80.0188 55.5993 79.8218 58.3264 80.2157C62.0757 80.8067 66.1664 80.6097 69.9157 81.3976C71.2793 81.5946 73.6672 81.0037 74.3479 81.5946C74.8382 81.8769 74.8579 82.2972 74.7813 82.7655C72.54 82.6955 70.3053 82.6736 68.0969 82.5882C65.3872 82.3672 62.6754 82.1221 59.9658 81.7303C62.6141 82.2709 65.3369 82.481 68.0969 82.5882C70.3009 82.7677 72.5072 82.9319 74.7112 83.142C74.6302 83.5447 74.5536 83.9627 74.6871 84.3523H75.7093C77.0729 85.3372 76.7314 86.716 76.0507 87.7009C75.8778 87.9001 75.6808 88.1255 75.4641 88.351Z" fill="#CAA164"/>
<path d="M73.6164 118.294C73.658 118.145 73.6996 117.998 73.739 117.849C74.33 115.131 74.133 112.413 74.527 109.392C74.9209 107.278 74.7239 104.862 74.7239 102.748C74.3606 107.758 74.4985 113.026 73.1349 117.838C72.6709 117.353 72.2988 116.77 72.2988 116.094C72.4827 114.466 72.6096 112.857 72.6994 111.262H73.4807C72.8898 106.731 74.4657 102.503 73.4807 97.972C73.3757 98.134 73.2159 98.0377 73.0868 98.0049C72.9751 97.9742 72.8876 97.9939 72.8876 98.2741C72.8876 97.9917 72.9751 97.9742 73.0868 98.0049C73.2794 102.463 73.0868 106.63 72.7059 111.082C73.0736 104.17 72.6906 97.508 72.6906 90.4234V89.2152C73.2816 88.0071 73.4785 86.799 73.4785 85.5908C74.4635 85.8929 76.4333 84.6847 76.0394 87.101H76.8273C77.8122 84.6847 80.57 83.7786 81.358 86.1949C82.1459 88.9132 81.358 92.5376 81.7519 95.86C81.9489 98.2763 82.1459 100.693 81.7519 103.109C81.161 106.431 81.358 110.056 80.57 113.378C80.373 114.586 80.964 116.7 80.373 117.307C80.0907 117.74 79.6705 117.757 79.2021 117.692C79.2721 115.707 79.294 113.726 79.3794 111.769C79.6004 109.368 79.8456 106.965 80.2373 104.566C79.6967 106.915 79.4866 109.325 79.3794 111.769C79.1999 113.722 79.0357 115.676 78.8256 117.631C78.4229 117.558 78.0048 117.49 77.6152 117.609V118.515C76.6303 119.723 75.2514 119.421 74.2665 118.817C74.0673 118.664 73.8419 118.491 73.6164 118.296V118.294Z" fill="#CAA164"/>
<path d="M76.4144 123.351C76.2437 123.309 76.0708 123.268 75.9022 123.228C72.757 122.637 69.6096 122.834 66.1142 122.44C63.6672 122.047 60.8722 122.244 58.4252 122.244C64.2232 122.607 70.3188 122.469 75.8891 123.832C75.3266 124.296 74.6525 124.669 73.8689 124.669C71.9844 124.485 70.1218 124.358 68.2767 124.268V123.487C63.0347 124.078 58.1407 122.502 52.8965 123.487C53.0825 123.592 52.9731 123.751 52.9337 123.881C58.0925 123.688 62.9143 123.881 68.0644 124.261C60.0668 123.894 52.3559 124.277 44.1569 124.277H42.7583C41.3597 123.686 39.9611 123.489 38.5647 123.489C38.9127 122.504 37.5163 120.534 40.3113 120.928V120.14C37.5141 119.155 36.4657 116.398 39.2629 115.61C42.4081 114.822 46.6039 115.61 50.4473 115.216C53.2445 115.019 56.0395 114.822 58.8367 115.216C62.6823 115.807 66.8759 115.61 70.7193 116.398C72.1179 116.595 74.5649 116.004 75.2653 116.595C75.7665 116.877 75.7884 117.297 75.7096 117.766C73.4114 117.695 71.1199 117.674 68.8545 117.588C66.0748 117.367 63.2951 117.122 60.5177 116.73C63.2339 117.271 66.0245 117.481 68.8545 117.588C71.1155 117.768 73.3764 117.932 75.6374 118.142C75.5542 118.545 75.4754 118.963 75.6133 119.352H76.6617C78.0603 120.337 77.7101 121.716 77.0119 122.701C76.8346 122.9 76.6333 123.126 76.41 123.351H76.4144Z" fill="#CAA164"/>
<path d="M185.208 112.88C185.319 112.523 185.433 112.167 185.534 111.812C186.324 108.527 186.595 105.211 186.746 101.801C186.886 98.3913 186.924 94.8873 187.232 91.1775C187.95 85.9597 187.037 80.0657 186.51 74.9202C186.615 77.9952 186.72 81.1031 186.803 84.2197C186.827 85.7803 186.871 87.3408 186.862 88.9013C186.862 89.6826 186.862 90.4618 186.851 91.2431C186.832 92.0223 186.812 92.8015 186.794 93.5806C186.597 99.803 185.864 105.971 184.083 111.749C182.986 110.541 182.143 109.131 182.154 107.505C182.647 103.598 182.916 99.722 183.012 95.8765C183.489 95.8634 184.42 95.8349 184.888 95.8218C184.021 90.3567 184.306 85.0492 184.317 79.7045C184.332 74.373 184.08 69.0042 182.137 63.7252C181.94 64.1476 181.528 63.9725 181.213 63.9353C180.937 63.9003 180.738 63.9747 180.832 64.6488C180.74 63.9747 180.94 63.9025 181.213 63.9353C182.198 69.2362 182.787 74.4277 183.067 79.6345C183.347 84.8413 183.317 90.0635 183.019 95.4366C183.198 87.1 182.583 78.9079 181.498 70.7442C181.22 68.7044 180.926 66.6624 180.596 64.6203C180.441 63.5982 180.261 62.5783 180.088 61.554C179.92 60.5341 179.736 59.5033 179.552 58.468C178.806 54.2986 177.974 49.8885 177.383 45.1369C177.335 44.7298 177.262 44.1192 177.19 43.5086C177.127 42.8892 177.061 42.2698 177.02 41.8561C178.112 38.3915 178.418 35.021 178.497 31.5629C179.672 32.0159 181.454 31.425 182.811 31.5694C183.489 31.6395 184.063 31.8802 184.402 32.4887C184.575 32.7929 184.678 33.1912 184.726 33.7078C184.781 34.2221 184.752 34.859 184.66 35.6447C185.133 35.6294 186.079 35.5988 186.549 35.5834C186.818 34.8108 187.18 34.1061 187.578 33.4801C187.996 32.8542 188.462 32.3092 188.959 31.8518C189.975 30.9369 191.113 30.3788 192.214 30.184C192.767 30.0746 193.312 30.0593 193.829 30.1446C194.087 30.1862 194.339 30.2606 194.584 30.3482C194.829 30.4335 195.066 30.5408 195.291 30.6677C195.742 30.926 196.151 31.2696 196.499 31.7051C196.845 32.1385 197.162 32.6747 197.386 33.305C197.865 34.7364 198.15 36.2772 198.377 37.9559C198.609 39.6346 198.771 41.4425 198.959 43.3532C199.331 47.1636 199.83 51.3877 200.971 55.5112C202.431 61.5978 203.709 67.8136 203.385 74.1432C203.1 78.4986 203.214 82.9897 203.166 87.4874C203.118 91.9807 202.914 96.4784 202.01 100.759C201.91 101.536 201.901 102.458 201.954 103.427C201.978 103.913 202.013 104.41 202.048 104.907C202.078 105.404 202.109 105.903 202.137 106.386C202.186 107.358 202.214 108.28 202.124 109.057C202.035 109.831 201.844 110.46 201.481 110.838C200.778 111.937 199.771 111.95 198.653 111.753C198.946 106.71 198.997 101.674 199.078 96.6885C199.447 90.5647 199.712 84.4145 200.111 78.2075C199.345 84.3095 199.174 90.4574 199.078 96.6885C198.771 101.668 198.379 106.636 197.749 111.571C196.788 111.366 195.786 111.171 194.847 111.447C194.847 111.447 194.838 111.825 194.827 112.298C194.812 112.771 194.792 113.34 194.779 113.718C192.314 116.669 189.036 115.745 186.72 114.198C186.252 113.806 185.726 113.366 185.201 112.882L185.208 112.88Z" fill="#CAA164"/>
<path d="M234.446 47.7115C234.236 47.613 234.024 47.5123 233.814 47.4182C229.94 46 226.066 46.4727 221.762 45.5272C218.749 44.5817 215.306 45.0545 212.294 45.0545C219.434 45.9256 226.939 45.5951 233.798 48.8693C233.104 49.9855 232.277 50.8763 231.312 50.8763C228.99 50.4364 226.698 50.1278 224.426 49.9177V48.0398C217.969 49.4581 211.944 45.6761 205.489 48.0398C205.719 48.2915 205.583 48.6767 205.535 48.9831C205.52 48.9831 205.505 48.9831 205.489 48.9853C205.505 48.9853 205.52 48.9853 205.535 48.9831C211.887 48.5235 217.825 48.9787 224.168 49.8958C214.321 49.0116 204.824 49.933 194.73 49.933H193.009C191.287 48.5147 189.566 48.042 187.844 48.042C188.273 45.6782 186.552 40.9508 189.995 41.8962V40.0053C186.552 37.6415 185.259 31.023 188.704 29.132C192.578 27.241 197.741 29.132 202.475 28.1865C205.918 27.7138 209.363 27.241 212.804 28.1865C217.538 29.6048 222.704 29.132 227.436 31.023C229.158 31.4958 232.172 30.0775 233.032 31.4958C233.649 32.1742 233.676 33.181 233.579 34.3038C230.749 34.1375 227.928 34.0849 225.14 33.8792C221.717 33.3495 218.296 32.7608 214.875 31.8219C218.219 33.1197 221.655 33.6231 225.14 33.8792C227.924 34.3104 230.708 34.7021 233.492 35.2099C233.389 36.1751 233.293 37.1819 233.461 38.1143H234.753C236.475 40.478 236.044 43.7872 235.184 46.151C234.965 46.6303 234.718 47.1731 234.444 47.7137L234.446 47.7115Z" fill="#CAA164"/>
<path d="M223.411 79.823C223.279 79.718 223.15 79.6129 223.021 79.5144C220.605 78.0042 218.116 78.4004 215.389 77.3936C213.483 76.4065 211.265 76.8399 209.339 76.8245C213.892 77.7372 218.718 77.5271 222.955 80.9655C222.472 82.062 221.916 82.9331 221.307 82.9134C219.856 82.4209 218.414 82.0708 216.98 81.8234C216.993 81.3463 217.015 80.4161 217.028 79.9456C214.958 80.6044 212.992 79.9718 211.009 79.475C209.031 78.9782 207.037 78.6083 204.982 79.788C205.128 80.0397 205.041 80.4249 205.01 80.7313C204.999 80.7313 204.99 80.7313 204.982 80.7335C204.99 80.7335 205.001 80.7335 205.01 80.7313C204.982 80.9983 204.999 81.2062 205.253 81.2084C204.999 81.2084 204.982 81.0005 205.01 80.7313C209.044 80.2739 212.822 80.7794 216.816 81.795C210.591 80.7554 204.55 81.6352 198.162 81.725C197.89 81.7293 197.343 81.7359 197.072 81.7403C195.957 80.3417 194.85 79.8887 193.756 79.9149C193.979 77.5468 192.762 72.8434 195.001 73.7407C194.992 73.268 194.973 72.3225 194.964 71.8497C192.696 69.5341 191.654 62.9375 193.891 60.9962C196.419 59.0483 199.871 60.8889 202.994 59.9347C205.273 59.4532 207.566 58.9892 209.838 59.9588C212.955 61.4077 216.38 61.0006 219.447 62.9857C220.565 63.4913 222.599 62.143 223.115 63.581C223.496 64.2748 223.474 65.2816 223.369 66.4022C221.524 66.1658 219.681 66.0542 217.86 65.8003C215.634 65.2115 213.402 64.5768 211.165 63.6094C213.347 64.9336 215.584 65.4829 217.86 65.8003C219.67 66.2774 221.48 66.7305 223.277 67.3061C223.174 68.2669 223.074 69.2715 223.148 70.2082C223.148 70.2082 223.706 70.2301 223.986 70.2411C225.011 72.6464 224.586 75.9425 223.945 78.2822C223.785 78.7571 223.608 79.2912 223.411 79.8252V79.823Z" fill="#CAA164"/>
<path d="M241.606 90.9635C241.709 90.7184 241.814 90.4732 241.912 90.2303C243.411 85.726 243.011 81.189 244.026 76.1682C245.022 72.6576 244.6 68.6217 244.637 65.1001C243.674 73.4411 243.875 82.2286 240.459 90.1865C239.358 89.357 238.485 88.3721 238.504 87.2472C238.99 84.5442 239.34 81.8718 239.592 79.2192C240.069 79.2257 241.002 79.2411 241.47 79.2476C240.163 71.6858 244.029 64.6843 241.733 57.1116C241.479 57.3786 241.094 57.2144 240.789 57.1575C240.789 57.14 240.789 57.1203 240.789 57.105C240.789 57.1225 240.789 57.14 240.789 57.1575C240.522 57.105 240.314 57.1334 240.31 57.604C240.314 57.1356 240.522 57.105 240.789 57.1575C241.183 64.5836 240.647 71.5217 239.62 78.9171C240.673 67.4223 239.868 56.3171 239.931 44.5246C239.933 44.0234 239.94 43.0166 239.942 42.5132C241.369 40.5084 241.851 38.497 241.857 36.4857C244.219 36.9956 248.953 34.9952 247.995 39.0245C248.467 39.0245 249.413 39.0311 249.886 39.0311C252.263 35.0083 258.888 33.5025 260.766 37.5559C262.642 42.1149 260.718 48.1753 261.619 53.7432C262.062 57.7944 262.495 61.8478 261.503 65.8815C260.024 71.4276 260.416 77.5033 258.435 83.0318C257.931 85.0454 259.288 88.6085 257.853 89.5956C257.161 90.3091 256.154 90.32 255.034 90.1887C255.259 86.8729 255.366 83.5637 255.62 80.2938C256.211 76.2864 256.855 72.2789 257.839 68.2737C256.496 72.1848 255.94 76.2076 255.62 80.2938C255.141 83.5527 254.694 86.8138 254.13 90.0705C253.167 89.9348 252.162 89.8013 251.225 89.983C251.225 89.983 251.208 90.992 251.199 91.4953C248.8 93.4717 245.499 92.9026 243.153 91.8543C242.678 91.5895 242.142 91.2918 241.606 90.9591V90.9635Z" fill="#CAA164"/>
<path d="M237.882 114.346C237.987 114.28 238.094 114.217 238.192 114.151C239.718 112.917 239.341 111.52 240.372 110.058C241.377 109.045 240.966 107.795 241.003 106.729C240.521 107.979 240.322 109.266 239.81 110.518C239.298 111.768 238.475 112.98 236.746 114.026C235.656 113.696 234.789 113.343 234.813 113.015C235.314 112.26 235.673 111.494 235.936 110.726C236.411 110.756 237.341 110.813 237.809 110.842C237.17 109.677 237.818 108.631 238.337 107.559C238.856 106.491 239.247 105.396 238.094 104.239C237.84 104.313 237.455 104.256 237.151 104.232C236.884 104.21 236.676 104.214 236.671 104.355C236.676 104.214 236.884 104.212 237.151 104.232C237.555 106.451 237.013 108.513 235.964 110.636C236.511 108.97 236.579 107.292 236.514 105.604C236.448 103.917 236.249 102.218 236.253 100.474C236.253 100.325 236.253 100.028 236.253 99.8787C237.669 99.2834 238.14 98.675 238.133 98.0731C240.499 98.2022 245.22 97.5303 244.286 98.7844C244.759 98.7822 245.704 98.7757 246.177 98.7713C248.53 97.5084 255.142 96.8846 257.046 98.2C257.998 98.942 258.003 99.824 257.88 100.741C257.76 101.66 257.51 102.615 257.968 103.543C258.416 104.886 258.85 106.252 257.854 107.557C256.365 109.334 256.733 111.36 254.719 113.054C254.203 113.678 255.529 114.945 254.089 115.162C253.391 115.344 252.388 115.269 251.272 115.142C251.524 114.09 251.655 113.03 251.927 111.993C252.537 110.734 253.196 109.472 254.19 108.209C252.839 109.428 252.268 110.695 251.927 111.993C251.43 113.015 250.961 114.035 250.37 115.035C249.412 114.917 248.412 114.801 247.477 114.786C247.477 114.786 247.451 115.103 247.438 115.261C245.03 115.694 241.747 115.232 239.416 114.733C238.943 114.615 238.411 114.484 237.882 114.344V114.346Z" fill="#CAA164"/>
<path d="M49.4321 112.378C49.4584 112.29 49.4869 112.205 49.5131 112.119C49.9071 110.528 49.7823 108.919 49.9399 107.129C50.1216 105.866 49.8961 104.442 49.7692 103.196C49.813 104.684 49.883 106.203 49.8305 107.711C49.7801 109.217 49.5963 110.71 49.152 112.106C48.8784 111.815 48.6661 111.474 48.6683 111.08C48.7908 110.136 48.8587 109.197 48.8828 108.267C49.001 108.263 49.2352 108.256 49.3512 108.254C49.1367 106.932 49.2089 105.65 49.2155 104.356C49.222 103.067 49.1651 101.767 48.6858 100.493C48.6354 100.596 48.5326 100.554 48.456 100.546C48.9331 103.109 49.0338 105.564 48.885 108.162C48.9331 106.146 48.7843 104.166 48.5194 102.192C48.3881 101.202 48.2261 100.222 48.0467 99.2237C47.865 98.2148 47.6636 97.1467 47.5192 95.9933C47.4929 95.7985 47.4513 95.398 47.4316 95.1966C47.7074 94.354 47.784 93.5354 47.8037 92.695C48.097 92.8044 48.5435 92.6622 48.8828 92.6972C49.2264 92.7322 49.4431 92.927 49.3446 93.6864C49.4628 93.6821 49.6992 93.6755 49.8174 93.6711C50.0844 92.916 50.6863 92.4542 51.2335 92.3667C51.5114 92.3098 51.7763 92.3623 52.0039 92.4849C52.2293 92.6096 52.411 92.8154 52.5292 93.1196C52.7634 93.8046 52.8225 94.6144 52.9166 95.5402C53.0063 96.4595 53.1245 97.4816 53.4047 98.4818C53.7614 99.9569 54.0766 101.463 53.9891 102.997C53.8424 105.102 54.0876 107.368 53.6345 109.447C53.5272 110.198 53.8709 111.52 53.5032 111.89C53.3281 112.154 53.0764 112.159 52.7962 112.111C52.8684 110.889 52.8816 109.67 52.9035 108.462C52.9976 106.978 53.0654 105.49 53.1705 103.984C52.9757 105.464 52.9297 106.952 52.9035 108.462C52.8269 109.668 52.7284 110.872 52.5708 112.067C52.33 112.016 52.0805 111.968 51.8441 112.036C51.8441 112.036 51.8332 112.404 51.8288 112.585C51.2138 113.299 50.393 113.074 49.8152 112.699C49.6992 112.605 49.5657 112.498 49.4343 112.38L49.4321 112.378Z" fill="#CAA164"/>
<path d="M61.415 96.6695C61.3647 96.6454 61.3122 96.6192 61.2618 96.5973C60.3251 96.2427 59.3861 96.3609 58.3443 96.1245C57.6154 95.8882 56.7815 96.0064 56.0527 96.0064C57.7818 96.2252 59.5984 96.142 61.2574 96.9606C61.0889 97.2386 60.8897 97.4618 60.6555 97.4618C60.093 97.3524 59.5393 97.2758 58.9877 97.2211V96.7527C57.425 97.1072 55.9651 96.1617 54.4024 96.7527C54.4571 96.8162 54.4242 96.9125 54.4133 96.9891C54.4024 97.0569 54.4089 97.1072 54.5074 97.1072C54.4111 97.1072 54.4045 97.0547 54.4133 96.9891C55.9498 96.8731 57.3878 96.9891 58.9243 97.2167C56.5407 96.9956 54.2426 97.2254 51.7978 97.2254H51.3819C50.9661 96.8709 50.548 96.7527 50.1321 96.7527C50.2372 96.1617 49.8192 94.9799 50.6531 95.2162V94.7435C49.8192 94.1526 49.5062 92.4979 50.3401 92.0252C51.2769 91.5524 52.5288 92.0252 53.6735 91.7888C54.5074 91.6706 55.3413 91.5524 56.173 91.7888C57.3199 92.1434 58.5697 92.0252 59.7144 92.4979C60.1303 92.6161 60.8613 92.2616 61.0692 92.6161C61.2181 92.7868 61.2246 93.0385 61.2027 93.3187C60.5177 93.2771 59.8348 93.264 59.1585 93.2114C58.3311 93.0801 57.5016 92.9313 56.6743 92.6971C57.4841 93.021 58.3158 93.148 59.1585 93.2114C59.8326 93.3187 60.5067 93.4172 61.1808 93.5441C61.1568 93.7849 61.1327 94.0366 61.1743 94.2707H61.4873C61.9031 94.8617 61.8003 95.689 61.5923 96.2799C61.5398 96.4003 61.4785 96.536 61.4129 96.6695H61.415Z" fill="#CAA164"/>
<path d="M58.7483 104.438C58.7154 104.412 58.6848 104.385 58.6541 104.361C58.0698 103.985 57.4679 104.083 56.8091 103.834C56.3472 103.587 55.811 103.696 55.3448 103.692C56.4457 103.919 57.6145 103.867 58.6388 104.725C58.5206 104.998 58.3871 105.217 58.2405 105.213C57.8903 105.09 57.5401 105.003 57.1943 104.941C57.1965 104.823 57.203 104.589 57.2052 104.473C56.2072 104.801 55.2901 103.845 54.2898 104.436C54.3248 104.499 54.3051 104.595 54.2964 104.672C54.2898 104.74 54.2942 104.79 54.3555 104.79C54.2942 104.79 54.2898 104.738 54.2964 104.672C55.2726 104.558 56.1853 104.683 57.1527 104.937C55.6468 104.679 54.1848 104.9 52.6395 104.919C52.5739 104.919 52.4425 104.922 52.3747 104.924C52.1055 104.574 51.8363 104.46 51.5714 104.466C51.624 103.873 51.3285 102.698 51.8713 102.923C51.8691 102.805 51.8647 102.569 51.8625 102.451C51.3132 101.871 51.0593 100.223 51.6021 99.7367C52.2149 99.2508 53.051 99.7104 53.8061 99.4719C54.3577 99.3515 54.9136 99.2355 55.463 99.4784C56.2181 99.8395 57.0476 99.7389 57.7896 100.234C58.061 100.36 58.5535 100.021 58.6782 100.382C58.7701 100.555 58.7636 100.807 58.7395 101.087C58.293 101.028 57.8465 101.002 57.4044 100.938C56.866 100.792 56.3253 100.634 55.7825 100.391C56.31 100.722 56.8528 100.859 57.4044 100.938C57.8421 101.056 58.2799 101.17 58.7154 101.313C58.6892 101.553 58.6651 101.803 58.6826 102.037C58.6826 102.037 58.8183 102.041 58.8862 102.046C59.1335 102.648 59.0306 103.471 58.873 104.057C58.8336 104.175 58.7877 104.309 58.7439 104.442L58.7483 104.438Z" fill="#CAA164"/>
<path d="M63.0802 107.072C63.1065 107.013 63.1306 106.952 63.1546 106.895C63.5202 105.805 63.4151 104.706 63.6646 103.491C63.9098 102.642 63.8025 101.664 63.8113 100.812C63.5727 102.83 63.6318 104.958 62.7935 106.884C62.5177 106.682 62.2967 106.444 62.2988 106.172C62.4148 105.518 62.5002 104.87 62.5593 104.229C62.6775 104.229 62.9117 104.233 63.0277 104.235C62.6928 102.406 63.6559 100.71 63.0846 98.8776C63.0211 98.9411 62.9248 98.9017 62.8482 98.8886C62.7804 98.8754 62.73 98.882 62.7278 98.9958C62.7278 98.882 62.7804 98.8754 62.8482 98.8886C62.9445 100.685 62.8132 102.366 62.5637 104.154C62.8154 101.373 62.614 98.685 62.6447 95.8288C62.6447 95.7063 62.649 95.4633 62.649 95.3429C63.008 94.8571 63.1328 94.3712 63.1371 93.8831C63.7259 94.0079 64.9144 93.522 64.667 94.4981C64.7852 94.4981 65.0216 94.4981 65.1398 94.4981C65.7417 93.5242 67.4008 93.1609 67.8626 94.1414C68.3244 95.2445 67.8341 96.713 68.0574 98.0613C68.1646 99.0418 68.2719 100.022 68.0267 101.001C67.6569 102.342 67.7597 103.813 67.2738 105.153C67.1513 105.641 67.4949 106.503 67.1381 106.741C66.9674 106.914 66.7157 106.917 66.4355 106.886C66.4859 106.083 66.5078 105.282 66.5669 104.489C66.7091 103.52 66.8667 102.548 67.1119 101.581C66.777 102.528 66.6413 103.502 66.5669 104.489C66.4509 105.277 66.3436 106.067 66.2079 106.855C65.9672 106.822 65.7154 106.79 65.4813 106.833C65.4813 106.833 65.4791 107.079 65.4769 107.199C64.8815 107.676 64.0542 107.538 63.4676 107.284C63.3473 107.221 63.2137 107.149 63.0802 107.068V107.072Z" fill="#CAA164"/>
<path d="M62.1846 112.732C62.2109 112.717 62.2372 112.699 62.2612 112.686C62.6421 112.388 62.548 112.051 62.8041 111.699C63.0536 111.454 62.9507 111.152 62.9594 110.894C62.7187 111.493 62.7625 112.148 61.8979 112.655C61.6243 112.575 61.4076 112.489 61.4142 112.41C61.539 112.229 61.6287 112.043 61.6922 111.859C61.8104 111.865 62.0446 111.881 62.1606 111.887C61.8388 111.331 62.8062 110.859 62.2284 110.292C62.1649 110.309 62.0686 110.296 61.992 110.292C61.9242 110.287 61.8738 110.287 61.8717 110.32C61.8717 110.287 61.9242 110.285 61.992 110.292C62.0949 110.828 61.9592 111.327 61.6987 111.839C61.9701 111.032 61.7666 110.224 61.7688 109.383C61.7688 109.348 61.7688 109.276 61.7688 109.239C62.1234 109.095 62.2415 108.948 62.2394 108.803C62.8303 108.834 64.01 108.672 63.778 108.974C63.8962 108.974 64.1326 108.972 64.2508 108.972C64.8396 108.666 66.4921 108.515 66.9692 108.834C67.4463 109.195 66.9714 109.683 67.199 110.13C67.3106 110.456 67.4201 110.786 67.1706 111.104C66.7985 111.535 66.8926 112.025 66.3892 112.434C66.2601 112.585 66.5927 112.894 66.2316 112.944C66.0565 112.988 65.807 112.968 65.5268 112.938C65.5903 112.684 65.6209 112.426 65.6888 112.174C65.8398 111.87 66.004 111.563 66.2535 111.257C65.9164 111.552 65.7742 111.859 65.6888 112.174C65.5662 112.421 65.448 112.669 65.3014 112.909C65.0628 112.881 64.8111 112.85 64.5769 112.848C64.5769 112.848 64.5704 112.925 64.5682 112.964C63.9663 113.067 63.1455 112.953 62.5633 112.831C62.4451 112.802 62.3116 112.769 62.1803 112.734L62.1846 112.732Z" fill="#CAA164"/>
<path d="M16.2114 155.21C16.2377 155.122 16.2662 155.037 16.2924 154.951C16.6864 153.36 16.5616 151.752 16.7192 149.961C16.9009 148.698 16.6754 147.274 16.5485 146.028C16.5923 147.516 16.6623 149.035 16.6098 150.543C16.5594 152.049 16.3756 153.54 15.9313 154.938C15.6577 154.647 15.4454 154.306 15.4476 153.912C15.5701 152.968 15.638 152.029 15.6621 151.099C15.7803 151.095 16.0144 151.088 16.1305 151.086C15.916 149.764 15.9882 148.482 15.9948 147.188C16.0013 145.899 15.9444 144.599 15.4651 143.325C15.4147 143.428 15.3119 143.386 15.2353 143.378C15.7124 145.941 15.8131 148.396 15.6643 150.994C15.7124 148.978 15.5636 146.998 15.2987 145.024C15.1674 144.034 15.0054 143.054 14.826 142.056C14.6443 141.047 14.4429 139.979 14.2985 138.825C14.2722 138.631 14.2306 138.23 14.2109 138.029C14.4867 137.186 14.5633 136.367 14.583 135.527C14.8763 135.636 15.3228 135.494 15.6621 135.529C16.0057 135.564 16.2224 135.759 16.1239 136.518C16.2421 136.514 16.4785 136.508 16.5967 136.503C16.8637 135.748 17.4656 135.286 18.0128 135.199C18.2907 135.142 18.5556 135.194 18.7832 135.317C19.0086 135.442 19.1903 135.647 19.3085 135.952C19.5427 136.637 19.6018 137.446 19.6959 138.372C19.7856 139.292 19.9038 140.314 20.184 141.314C20.5407 142.789 20.8559 144.295 20.7684 145.829C20.6217 147.935 20.8669 150.2 20.4138 152.279C20.3065 153.03 20.6502 154.352 20.2825 154.722C20.1074 154.986 19.8557 154.991 19.5755 154.943C19.6477 153.721 19.6609 152.502 19.6828 151.294C19.7769 149.81 19.8447 148.322 19.9498 146.816C19.755 148.296 19.709 149.784 19.6828 151.294C19.6062 152.5 19.5077 153.704 19.3501 154.899C19.1093 154.848 18.8598 154.803 18.6234 154.868C18.6234 154.868 18.6125 155.236 18.6081 155.418C17.9931 156.131 17.1723 155.906 16.5945 155.531C16.4785 155.437 16.3449 155.33 16.2136 155.212L16.2114 155.21Z" fill="#CAA164"/>
<path d="M28.1943 139.502C28.144 139.477 28.0915 139.451 28.0411 139.429C27.1044 139.075 26.1654 139.193 25.1236 138.957C24.3947 138.72 23.5608 138.838 22.832 138.838C24.561 139.057 26.3777 138.974 28.0367 139.793C27.8682 140.071 27.669 140.294 27.4348 140.294C26.8723 140.184 26.3186 140.108 25.767 140.053V139.585C24.2043 139.939 22.7444 138.994 21.1817 139.585C21.2364 139.648 21.2035 139.744 21.1926 139.821C21.1817 139.889 21.1882 139.939 21.2867 139.939C21.1904 139.939 21.1838 139.887 21.1926 139.821C22.7291 139.705 24.1671 139.821 25.7036 140.049C23.32 139.828 21.0219 140.057 18.5771 140.057H18.1612C17.7454 139.703 17.3273 139.585 16.9114 139.585C17.0165 138.994 16.5985 137.812 17.4324 138.048V137.576C16.5985 136.985 16.2855 135.33 17.1194 134.857C18.0562 134.384 19.3081 134.857 20.4528 134.621C21.2867 134.503 22.1206 134.384 22.9523 134.621C24.0992 134.975 25.349 134.857 26.4937 135.33C26.9096 135.448 27.6406 135.094 27.8485 135.448C27.9974 135.619 28.0039 135.871 27.982 136.151C27.297 136.109 26.6141 136.096 25.9378 136.046C25.1104 135.914 24.2809 135.766 23.4536 135.531C24.2634 135.855 25.0951 135.982 25.9378 136.046C26.6119 136.153 27.286 136.251 27.9601 136.378C27.9361 136.619 27.912 136.871 27.9536 137.105H28.2666C28.6824 137.696 28.5796 138.523 28.3716 139.114C28.3191 139.235 28.2578 139.37 28.1921 139.504L28.1943 139.502Z" fill="#CAA164"/>
<path d="M25.5276 147.27C25.4947 147.244 25.4641 147.217 25.4334 147.193C24.8491 146.817 24.2472 146.915 23.5883 146.666C23.1265 146.419 22.5903 146.528 22.1241 146.524C23.225 146.751 24.3938 146.699 25.4181 147.557C25.2999 147.83 25.1664 148.049 25.0198 148.045C24.6696 147.922 24.3194 147.835 23.9736 147.773C23.9758 147.655 23.9823 147.421 23.9845 147.305C22.9864 147.633 22.0694 146.677 21.0691 147.268C21.1041 147.331 21.0844 147.428 21.0757 147.504C21.0691 147.572 21.0735 147.622 21.1348 147.622C21.0735 147.622 21.0691 147.57 21.0757 147.504C22.0519 147.39 22.9646 147.515 23.932 147.769C22.4261 147.511 20.9641 147.732 19.4188 147.751C19.3532 147.751 19.2218 147.754 19.154 147.756C18.8848 147.406 18.6156 147.292 18.3507 147.298C18.4033 146.705 18.1078 145.53 18.6506 145.755C18.6484 145.637 18.644 145.401 18.6418 145.283C18.0925 144.703 17.8386 143.055 18.3814 142.569C18.9942 142.083 19.8303 142.542 20.5854 142.304C21.137 142.184 21.6929 142.068 22.2423 142.31C22.9974 142.672 23.8269 142.571 24.5689 143.066C24.8403 143.192 25.3328 142.853 25.4575 143.214C25.5494 143.387 25.5429 143.639 25.5188 143.919C25.0723 143.86 24.6258 143.834 24.1837 143.77C23.6453 143.624 23.1046 143.466 22.5618 143.223C23.0893 143.554 23.6321 143.691 24.1837 143.77C24.6214 143.888 25.0592 144.002 25.4947 144.145C25.4685 144.385 25.4444 144.635 25.4619 144.869C25.4619 144.869 25.5976 144.873 25.6655 144.878C25.9128 145.48 25.8099 146.303 25.6523 146.889C25.6129 147.007 25.567 147.141 25.5232 147.274L25.5276 147.27Z" fill="#CAA164"/>
<path d="M29.8595 149.904C29.8858 149.845 29.9099 149.784 29.9339 149.727C30.2994 148.637 30.1944 147.538 30.4439 146.323C30.689 145.474 30.5818 144.496 30.5905 143.644C30.352 145.662 30.4111 147.79 29.5728 149.716C29.297 149.514 29.076 149.276 29.0781 149.004C29.1941 148.35 29.2795 147.702 29.3386 147.061C29.4568 147.061 29.691 147.065 29.807 147.067C29.4721 145.238 30.4352 143.542 29.8639 141.71C29.8004 141.773 29.7041 141.734 29.6275 141.721C29.5597 141.707 29.5093 141.714 29.5071 141.828C29.5071 141.714 29.5597 141.707 29.6275 141.721C29.7238 143.517 29.5925 145.198 29.343 146.987C29.5947 144.205 29.3933 141.517 29.424 138.661C29.424 138.538 29.4283 138.295 29.4283 138.175C29.7873 137.689 29.912 137.203 29.9164 136.715C30.5052 136.838 31.6937 136.354 31.4463 137.33C31.5645 137.33 31.8009 137.33 31.9191 137.33C32.521 136.356 34.1801 135.993 34.6419 136.973C35.1037 138.076 34.6134 139.545 34.8367 140.893C34.9439 141.874 35.0512 142.854 34.806 143.833C34.4361 145.174 34.539 146.645 34.0531 147.985C33.9305 148.473 34.2742 149.335 33.9174 149.574C33.7467 149.746 33.495 149.749 33.2148 149.718C33.2652 148.915 33.2871 148.114 33.3462 147.321C33.4884 146.352 33.646 145.38 33.8912 144.413C33.5563 145.36 33.4206 146.334 33.3462 147.321C33.2302 148.109 33.1229 148.899 32.9872 149.687C32.7464 149.654 32.4947 149.622 32.2605 149.665C32.2605 149.665 32.2584 149.911 32.2562 150.031C31.6608 150.508 30.8335 150.37 30.2469 150.116C30.1265 150.053 29.993 149.981 29.8595 149.9V149.904Z" fill="#CAA164"/>
<path d="M28.9639 155.564C28.9902 155.549 29.0165 155.531 29.0405 155.518C29.4214 155.221 29.3273 154.883 29.5833 154.531C29.8329 154.286 29.73 153.984 29.7387 153.726C29.498 154.325 29.5418 154.98 28.6772 155.488C28.4036 155.407 28.1869 155.321 28.1935 155.242C28.3183 155.061 28.408 154.875 28.4715 154.691C28.5897 154.697 28.8239 154.713 28.9399 154.719C28.6181 154.163 29.5855 153.691 29.0077 153.124C28.9442 153.141 28.8479 153.128 28.7713 153.124C28.7035 153.119 28.6531 153.119 28.6509 153.152C28.6509 153.119 28.7035 153.117 28.7713 153.124C28.8742 153.66 28.7385 154.159 28.478 154.671C28.7494 153.864 28.5459 153.056 28.5481 152.215C28.5481 152.18 28.5481 152.108 28.5481 152.071C28.9027 151.927 29.0208 151.78 29.0187 151.635C29.6096 151.666 30.7893 151.504 30.5573 151.806C30.6755 151.806 30.9119 151.804 31.0301 151.804C31.6189 151.498 33.2714 151.347 33.7485 151.666C34.2256 152.027 33.7507 152.515 33.9783 152.962C34.0899 153.288 34.1994 153.618 33.9499 153.936C33.5778 154.367 33.6719 154.857 33.1685 155.266C33.0393 155.417 33.372 155.726 33.0109 155.776C32.8358 155.82 32.5863 155.8 32.3061 155.77C32.3696 155.516 32.4002 155.258 32.4681 155.006C32.6191 154.702 32.7833 154.395 33.0328 154.089C32.6957 154.384 32.5534 154.691 32.4681 155.006C32.3455 155.253 32.2273 155.501 32.0807 155.741C31.8421 155.713 31.5904 155.682 31.3562 155.68C31.3562 155.68 31.3497 155.757 31.3475 155.796C30.7456 155.899 29.9248 155.785 29.3426 155.663C29.2244 155.634 29.0909 155.599 28.9596 155.566L28.9639 155.564Z" fill="#CAA164"/>
<path d="M65.1118 156.503C65.1381 156.415 65.1665 156.33 65.1928 156.244C65.5868 154.653 65.462 153.044 65.6196 151.254C65.8013 149.991 65.5758 148.566 65.4489 147.321C65.4927 148.809 65.5627 150.328 65.5102 151.836C65.4598 153.342 65.276 154.835 64.8317 156.231C64.5581 155.94 64.3458 155.599 64.348 155.205C64.4705 154.261 64.5384 153.322 64.5625 152.392C64.6806 152.388 64.9148 152.381 65.0308 152.379C64.8163 151.057 64.8886 149.775 64.8951 148.481C64.9017 147.192 64.8448 145.892 64.3655 144.618C64.3151 144.721 64.2123 144.679 64.1357 144.671C64.6128 147.234 64.7135 149.689 64.5646 152.287C64.6128 150.271 64.464 148.291 64.1991 146.317C64.0678 145.327 63.9058 144.347 63.7264 143.349C63.5447 142.34 63.3433 141.272 63.1989 140.118C63.1726 139.924 63.131 139.523 63.1113 139.322C63.3871 138.479 63.4637 137.66 63.4834 136.82C63.7767 136.929 64.2232 136.787 64.5625 136.822C64.9061 136.857 65.1228 137.052 65.0243 137.811C65.1425 137.807 65.3788 137.801 65.497 137.796C65.7641 137.041 66.366 136.579 66.9131 136.492C67.1911 136.435 67.4559 136.487 67.6836 136.61C67.909 136.735 68.0907 136.94 68.2089 137.245C68.4431 137.93 68.5022 138.739 68.5963 139.665C68.686 140.584 68.8042 141.607 69.0844 142.607C69.4411 144.082 69.7563 145.588 69.6688 147.122C69.5221 149.227 69.7672 151.493 69.3142 153.572C69.2069 154.323 69.5506 155.645 69.1829 156.015C69.0078 156.279 68.7561 156.284 68.4759 156.236C68.5481 155.014 68.5613 153.795 68.5831 152.587C68.6773 151.103 68.7451 149.615 68.8502 148.109C68.6554 149.589 68.6094 151.077 68.5831 152.587C68.5065 153.793 68.408 154.997 68.2505 156.192C68.0097 156.141 67.7602 156.093 67.5238 156.161C67.5238 156.161 67.5129 156.529 67.5085 156.71C66.8934 157.424 66.0727 157.199 65.4948 156.824C65.3788 156.73 65.2453 156.623 65.114 156.505L65.1118 156.503Z" fill="#CAA164"/>
<path d="M77.1006 140.795C77.0502 140.77 76.9977 140.744 76.9474 140.722C76.0106 140.368 75.0716 140.486 74.0298 140.25C73.301 140.013 72.4671 140.131 71.7382 140.131C73.4673 140.35 75.2839 140.267 76.943 141.086C76.7745 141.364 76.5753 141.587 76.3411 141.587C75.7786 141.477 75.2248 141.401 74.6733 141.346V140.878C73.1105 141.232 71.6507 140.287 70.0879 140.878C70.1426 140.941 70.1098 141.037 70.0988 141.114C70.0879 141.182 70.0945 141.232 70.193 141.232C70.0967 141.232 70.0901 141.18 70.0988 141.114C71.6353 140.998 73.0733 141.114 74.6098 141.342C72.2263 141.121 69.9281 141.35 67.4833 141.35H67.0675C66.6516 140.996 66.2336 140.878 65.8177 140.878C65.9228 140.287 65.5047 139.105 66.3386 139.341V138.869C65.5047 138.278 65.1917 136.623 66.0256 136.15C66.9624 135.677 68.2143 136.15 69.3591 135.914C70.193 135.796 71.0269 135.677 71.8586 135.914C73.0055 136.268 74.2552 136.15 75.3999 136.623C75.8158 136.741 76.5468 136.387 76.7548 136.741C76.9036 136.912 76.9102 137.164 76.8883 137.444C76.2032 137.402 75.5203 137.389 74.844 137.339C74.0167 137.207 73.1871 137.058 72.3598 136.824C73.1696 137.148 74.0013 137.275 74.844 137.339C75.5181 137.446 76.1923 137.544 76.8664 137.671C76.8423 137.912 76.8182 138.164 76.8598 138.398H77.1728C77.5887 138.989 77.4858 139.816 77.2779 140.407C77.2253 140.528 77.1641 140.663 77.0984 140.797L77.1006 140.795Z" fill="#CAA164"/>
<path d="M74.4258 148.563C74.3929 148.537 74.3623 148.51 74.3316 148.486C73.7473 148.11 73.1454 148.208 72.4865 147.959C72.0247 147.712 71.4885 147.821 71.0223 147.817C72.1232 148.044 73.292 147.992 74.3163 148.85C74.1981 149.123 74.0646 149.342 73.918 149.338C73.5678 149.215 73.2176 149.128 72.8718 149.066C72.874 148.948 72.8805 148.714 72.8849 148.598C71.8868 148.926 70.9698 147.97 69.9695 148.561C70.0045 148.624 69.9848 148.72 69.9761 148.797C69.9695 148.865 69.9739 148.915 70.0352 148.915C69.9739 148.915 69.9695 148.863 69.9761 148.797C70.9523 148.683 71.865 148.808 72.8324 149.062C71.3265 148.804 69.8645 149.025 68.3192 149.044C68.2535 149.044 68.1222 149.047 68.0544 149.049C67.7852 148.699 67.516 148.585 67.2511 148.591C67.3036 147.998 67.0082 146.823 67.551 147.048C67.5488 146.93 67.5444 146.694 67.5422 146.576C66.9928 145.996 66.739 144.348 67.2818 143.862C67.8946 143.376 68.7307 143.835 69.4858 143.597C70.0374 143.476 70.5933 143.36 71.1427 143.603C71.8978 143.967 72.7273 143.864 73.4693 144.358C73.7407 144.485 74.2332 144.146 74.3579 144.507C74.4498 144.68 74.4433 144.932 74.4192 145.212C73.9727 145.153 73.5262 145.127 73.0841 145.063C72.5456 144.917 72.005 144.759 71.4622 144.516C71.9897 144.847 72.5325 144.984 73.0841 145.063C73.5218 145.181 73.9596 145.295 74.3951 145.438C74.3689 145.678 74.3448 145.928 74.3623 146.162C74.3623 146.162 74.498 146.166 74.5658 146.171C74.8132 146.773 74.7103 147.596 74.5527 148.182C74.5133 148.3 74.4673 148.434 74.4236 148.567L74.4258 148.563Z" fill="#CAA164"/>
<path d="M78.7599 151.195C78.7862 151.136 78.8102 151.074 78.8343 151.017C79.1998 149.928 79.0948 148.829 79.3443 147.614C79.5894 146.765 79.4822 145.787 79.4909 144.935C79.2524 146.953 79.3115 149.081 78.4732 151.009C78.1974 150.807 77.9763 150.569 77.9785 150.297C78.0945 149.643 78.1799 148.995 78.239 148.354C78.3572 148.354 78.5914 148.358 78.7074 148.36C78.3725 146.531 79.3355 144.835 78.7643 143.003C78.7008 143.066 78.6045 143.027 78.5279 143.014C78.4601 143 78.4097 143.007 78.4075 143.121C78.4075 143.007 78.4601 143 78.5279 143.014C78.6242 144.81 78.4929 146.491 78.2434 148.279C78.4951 145.498 78.2937 142.81 78.3243 139.954C78.3243 139.831 78.3287 139.588 78.3287 139.468C78.6877 138.982 78.8124 138.496 78.8168 138.008C79.4056 138.131 80.5941 137.647 80.3467 138.623C80.4649 138.623 80.7013 138.623 80.8195 138.623C81.4214 137.649 83.0805 137.286 83.5423 138.266C84.0041 139.369 83.5138 140.838 83.7371 142.186C83.8443 143.167 83.9516 144.147 83.7064 145.126C83.3365 146.467 83.4394 147.938 82.9535 149.278C82.8309 149.766 83.1746 150.628 82.8178 150.866C82.6471 151.039 82.3954 151.042 82.1152 151.011C82.1656 150.208 82.1875 149.407 82.2466 148.614C82.3888 147.645 82.5464 146.673 82.7915 145.706C82.4567 146.653 82.321 147.627 82.2466 148.614C82.1305 149.402 82.0233 150.192 81.8876 150.98C81.6468 150.947 81.3951 150.915 81.1609 150.958C81.1609 150.958 81.1588 151.204 81.1566 151.324C80.5612 151.801 79.7339 151.663 79.1473 151.409C79.0269 151.346 78.8934 151.274 78.7599 151.193V151.195Z" fill="#CAA164"/>
<path d="M77.8643 156.857C77.8906 156.842 77.9169 156.824 77.9409 156.811C78.3218 156.513 78.2277 156.176 78.4837 155.824C78.7332 155.579 78.6304 155.277 78.6391 155.019C78.3984 155.618 78.4421 156.273 77.5776 156.78C77.304 156.7 77.0873 156.614 77.0939 156.535C77.2187 156.354 77.3084 156.168 77.3741 155.984C77.4922 155.99 77.7264 156.006 77.8424 156.012C77.5207 155.456 78.4881 154.984 77.9103 154.417C77.8468 154.434 77.7505 154.421 77.6739 154.417C77.6061 154.412 77.5557 154.412 77.5535 154.445C77.5535 154.412 77.6061 154.41 77.6739 154.417C77.7768 154.953 77.6411 155.452 77.3806 155.964C77.652 155.157 77.4485 154.349 77.4507 153.508C77.4507 153.473 77.4507 153.401 77.4507 153.364C77.8052 153.22 77.9234 153.073 77.9212 152.928C78.5122 152.959 79.6919 152.797 79.4599 153.099C79.5781 153.099 79.8145 153.097 79.9327 153.097C80.5214 152.791 82.1739 152.64 82.6511 152.959C83.1282 153.32 82.6533 153.808 82.8809 154.255C82.9925 154.581 83.102 154.911 82.8524 155.229C82.4804 155.66 82.5745 156.15 82.0711 156.559C81.9419 156.71 82.2746 157.019 81.9135 157.069C81.7384 157.113 81.4889 157.093 81.2087 157.063C81.2722 156.809 81.3028 156.551 81.3707 156.299C81.5217 155.995 81.6858 155.688 81.9354 155.382C81.5983 155.677 81.456 155.984 81.3707 156.299C81.2481 156.546 81.1299 156.794 80.9833 157.034C80.7447 157.006 80.493 156.975 80.2588 156.973C80.2588 156.973 80.2522 157.05 80.25 157.089C79.6481 157.192 78.8274 157.078 78.2452 156.956C78.127 156.927 77.9935 156.892 77.8621 156.859L77.8643 156.857Z" fill="#CAA164"/>
</svg>
