<svg width="40.000000" height="30.000000" viewBox="0 0 40 30" fill="none" xmlns="http://www.w3.org/2000/svg" xmlns:xlink="http://www.w3.org/1999/xlink">
	<desc>
			Created with Pixso.
	</desc>
	<defs/>
	<rect id="Rectangle 31" x="1.000000" y="7.050781" width="21.887371" height="21.887375" stroke="#CBA265" stroke-opacity="1.000000" stroke-width="2.000000"/>
	<path id="Vector" d="M37.01 1.37C36.83 1.46 36.64 1.56 36.46 1.64C35.62 2.07 34.8 2.51 33.99 2.98C33.17 3.44 32.36 3.93 31.56 4.44C30.76 4.95 29.97 5.49 29.18 6.07C28.98 6.21 28.78 6.36 28.59 6.51C28.39 6.66 28.19 6.8 28 6.96C27.6 7.26 27.2 7.58 26.81 7.9C26.66 8.02 26.52 8.13 26.38 8.25C26.31 8.3 26.24 8.36 26.17 8.42C26.1 8.48 26.03 8.54 25.96 8.6C25.89 8.66 25.82 8.72 25.75 8.78C25.71 8.81 25.67 8.85 25.64 8.88C25.6 8.91 25.57 8.94 25.53 8.97C25.39 9.1 25.25 9.22 25.11 9.35C24.97 9.48 24.83 9.61 24.69 9.74C24.65 9.77 24.62 9.81 24.58 9.84C24.55 9.87 24.51 9.9 24.48 9.94C24.41 10 24.34 10.07 24.27 10.14C24.2 10.2 24.13 10.27 24.06 10.34L23.95 10.44C23.92 10.47 23.89 10.51 23.85 10.54C23.71 10.68 23.57 10.81 23.43 10.95C22.33 12.05 21.26 13.18 20.24 14.24C21.47 13.01 22.7 11.76 23.96 10.55C24.59 9.95 25.23 9.36 25.88 8.78C26.04 8.63 26.2 8.49 26.37 8.35C26.53 8.21 26.7 8.07 26.86 7.93C26.9 7.89 26.94 7.86 26.99 7.82L27.11 7.72C27.19 7.65 27.28 7.58 27.36 7.51C27.44 7.44 27.53 7.37 27.61 7.31C27.7 7.24 27.78 7.17 27.87 7.11C27.95 7.04 28.03 6.97 28.12 6.91L28.18 6.86L28.22 6.83L28.25 6.81L28.38 6.71C28.46 6.65 28.55 6.58 28.63 6.52C28.72 6.45 28.8 6.39 28.89 6.33C29.06 6.2 29.24 6.07 29.41 5.95C29.59 5.83 29.76 5.7 29.94 5.58C30.65 5.1 31.37 4.65 32.1 4.21C33.56 3.34 35.06 2.56 36.55 1.83C36.05 2.3 35.42 2.8 34.62 3.28C33.66 3.82 32.71 4.38 31.79 4.96C30.88 5.54 29.99 6.14 29.14 6.78C29.1 6.72 29.02 6.62 28.98 6.57C28.69 6.81 28.4 7.05 28.11 7.3C28.04 7.36 27.96 7.42 27.89 7.48C27.85 7.51 27.82 7.54 27.78 7.57C27.75 7.6 27.71 7.64 27.68 7.67C27.53 7.79 27.39 7.91 27.25 8.04L27.19 8.08L27.14 8.13L27.04 8.22C26.97 8.28 26.9 8.35 26.83 8.41C26.75 8.47 26.68 8.53 26.61 8.59C26.54 8.66 26.47 8.72 26.4 8.78C26.26 8.91 26.12 9.03 25.99 9.16C25.85 9.28 25.71 9.41 25.57 9.54L25.46 9.63L25.41 9.68L25.36 9.73C25.29 9.79 25.22 9.85 25.15 9.92C25.08 9.98 25.02 10.04 24.95 10.11L24.84 10.2C24.81 10.23 24.78 10.27 24.74 10.3C24.6 10.43 24.47 10.55 24.33 10.68L24.23 10.78L24.13 10.87C24.06 10.94 23.99 11 23.92 11.07C23.65 11.33 23.38 11.59 23.11 11.85C22.97 11.98 22.84 12.11 22.7 12.24L22.5 12.44L22.3 12.64L21.89 13.03C21.76 13.16 21.63 13.3 21.49 13.43C21.36 13.56 21.22 13.7 21.09 13.83C20.95 13.96 20.82 14.1 20.68 14.23C20.55 14.37 20.41 14.5 20.28 14.64C20.15 14.77 20.01 14.91 19.88 15.04C19.61 15.32 19.34 15.58 19.07 15.86C18.94 16 18.81 16.13 18.67 16.27C18.54 16.41 18.4 16.55 18.26 16.69C17.99 16.97 17.71 17.25 17.44 17.53C17.16 17.81 16.88 18.09 16.6 18.37C16.46 18.51 16.32 18.65 16.18 18.78L16.14 18.83C16.13 18.84 16.12 18.85 16.11 18.86L16.09 18.88C16.06 18.91 16.03 18.95 16 18.98C15.93 19.05 15.87 19.12 15.8 19.19C15.99 19.06 15.93 19.19 15.92 19.25C15.92 19.28 15.93 19.3 15.98 19.27C16 19.26 16.03 19.23 16.07 19.2C16.08 19.19 16.09 19.18 16.1 19.17C16.11 19.16 16.13 19.15 16.14 19.13C16.16 19.11 16.19 19.08 16.23 19.05C16.19 19.08 16.16 19.11 16.14 19.13C16.13 19.15 16.12 19.16 16.1 19.17C16.09 19.18 16.08 19.19 16.07 19.2C16.03 19.23 16 19.26 15.98 19.27C15.93 19.3 15.92 19.28 15.92 19.25C15.99 19.19 16.06 19.12 16.12 19.06C16.15 19.03 16.18 19 16.22 18.97C16.25 18.94 16.28 18.9 16.31 18.87C16.38 18.81 16.45 18.75 16.52 18.68C16.59 18.61 16.66 18.55 16.74 18.48C17.02 18.21 17.3 17.94 17.58 17.67C17.86 17.4 18.13 17.12 18.41 16.85C18.54 16.71 18.68 16.58 18.81 16.44C18.88 16.37 18.95 16.3 19.01 16.23C19.08 16.16 19.14 16.1 19.21 16.03C19.34 15.9 19.47 15.76 19.6 15.63C19.73 15.5 19.86 15.36 20 15.23C20.26 14.96 20.52 14.69 20.78 14.42C21.31 13.89 21.83 13.35 22.35 12.83C23.4 11.78 24.45 10.75 25.54 9.75C25.68 9.63 25.81 9.51 25.95 9.38L26.05 9.29L26.1 9.25L26.16 9.2C26.23 9.14 26.29 9.08 26.36 9.02C26.43 8.96 26.5 8.9 26.57 8.84L26.68 8.75C26.71 8.71 26.75 8.69 26.78 8.66C26.92 8.54 27.07 8.42 27.21 8.3L27.31 8.21L27.42 8.12C27.49 8.06 27.56 8.01 27.63 7.95C27.78 7.83 27.92 7.71 28.06 7.6C28.21 7.49 28.36 7.37 28.5 7.26C28.54 7.23 28.57 7.2 28.61 7.17C28.65 7.15 28.69 7.12 28.72 7.09C28.8 7.03 28.87 6.98 28.94 6.92C28.84 7 28.74 7.08 28.63 7.16L28.55 7.22C28.52 7.24 28.5 7.26 28.47 7.28L28.32 7.41C28.22 7.49 28.11 7.57 28.01 7.66L27.93 7.72C27.91 7.74 27.88 7.76 27.86 7.78L27.7 7.91C27.6 7.99 27.5 8.08 27.4 8.16L27.32 8.22L27.25 8.29L27.1 8.42C27 8.5 26.9 8.59 26.8 8.68L26.72 8.74L26.65 8.81L26.5 8.94C25.71 9.64 24.93 10.37 24.17 11.12C23.41 11.87 22.66 12.63 21.91 13.4C21.53 13.79 21.16 14.18 20.78 14.57C20.59 14.76 20.4 14.96 20.21 15.15L19.93 15.44L19.65 15.73L19.37 16.02L19.3 16.09L19.23 16.17L19.09 16.31C18.9 16.51 18.7 16.71 18.5 16.91C18.31 17.1 18.11 17.3 17.91 17.49C17.72 17.69 17.52 17.88 17.32 18.07C17.12 18.27 16.91 18.46 16.71 18.65L16.56 18.79L16.41 18.93L16.34 18.99C16.32 19.01 16.29 19.03 16.27 19.05L16.14 19.18C15.95 19.37 15.76 19.56 15.56 19.75C15.37 19.94 15.18 20.13 14.99 20.32C14.6 20.71 14.22 21.09 13.83 21.48C13.63 21.67 13.44 21.87 13.24 22.07L13.16 22.15L13.15 22.16C12.72 21.72 14.1 23.16 12.19 21.17C12.4 21.39 12.37 21.36 12.78 21.79C13.25 22.28 13.13 22.16 13.15 22.17L13.14 22.17L13.13 22.18L13.1 22.21C13.05 22.26 12.99 22.32 12.94 22.37C12.83 22.47 12.73 22.57 12.62 22.67C12.51 22.77 12.4 22.87 12.29 22.97C12.17 23.08 12.06 23.18 11.93 23.28C11.81 23.38 11.68 23.48 11.54 23.58C11.47 23.63 11.4 23.69 11.32 23.74C11.24 23.79 11.15 23.85 11.05 23.91L11.01 23.93L10.97 23.95L10.93 23.97L10.91 23.98C10.9 23.99 10.89 23.99 10.88 24L10.83 24.02L10.82 24.02L10.81 24.03L10.78 24.04L10.76 24.05L10.74 24.06L10.73 24.06C10.71 24.07 10.69 24.08 10.67 24.09L10.65 24.09L10.64 24.1L10.6 24.11C10.58 24.12 10.56 24.13 10.53 24.14C10.5 24.15 10.48 24.15 10.45 24.16C10.42 24.17 10.39 24.18 10.35 24.18L10.33 24.19L10.3 24.2C10.28 24.2 10.26 24.2 10.25 24.21L10.22 24.21C10.21 24.21 10.2 24.21 10.18 24.21C10.16 24.22 10.14 24.22 10.12 24.22C10.09 24.22 10.07 24.22 10.05 24.23C10.02 24.23 9.99 24.23 9.96 24.23C9.93 24.23 9.91 24.23 9.88 24.23C9.85 24.22 9.81 24.22 9.78 24.22C9.76 24.21 9.75 24.21 9.73 24.21C9.71 24.21 9.7 24.21 9.68 24.2C9.64 24.2 9.6 24.19 9.56 24.18C9.54 24.17 9.52 24.17 9.5 24.16C9.48 24.16 9.46 24.15 9.44 24.14C9.4 24.13 9.35 24.11 9.31 24.1C9.29 24.09 9.27 24.08 9.25 24.07C9.23 24.06 9.21 24.05 9.19 24.04C9.15 24.02 9.12 24 9.08 23.97C9.04 23.95 9.02 23.93 8.99 23.91C8.96 23.89 8.93 23.87 8.91 23.85C8.89 23.84 8.88 23.83 8.87 23.82C8.86 23.81 8.85 23.8 8.84 23.79C8.82 23.77 8.8 23.75 8.78 23.73C8.76 23.71 8.75 23.7 8.73 23.68C8.72 23.66 8.7 23.65 8.69 23.63L8.66 23.6L8.65 23.58C8.64 23.57 8.62 23.55 8.61 23.54L8.6 23.52C8.59 23.51 8.58 23.5 8.58 23.5L8.56 23.46L8.53 23.42C8.53 23.41 8.52 23.41 8.52 23.4L8.51 23.38C8.5 23.36 8.48 23.34 8.47 23.32C8.46 23.3 8.45 23.28 8.43 23.26L8.43 23.24C8.42 23.24 8.42 23.23 8.42 23.23L8.41 23.2C8.37 23.13 8.34 23.07 8.32 23.01C8.27 22.89 8.24 22.79 8.21 22.71C8.18 22.62 8.16 22.54 8.13 22.46C8.11 22.39 8.09 22.33 8.08 22.28L8.07 22.24L8.07 22.24L8.07 22.24C8.07 22.24 8.07 22.24 8.07 22.24C8.07 22.24 8.07 22.23 8.06 22.23C8.05 22.19 8.03 22.15 8.01 22.1C7.99 22.06 7.97 22.01 7.94 21.96C7.9 21.86 7.86 21.77 7.82 21.67C7.74 21.48 7.66 21.28 7.58 21.09C7.42 20.7 7.26 20.31 7.11 19.93C7.04 19.73 6.92 19.44 6.8 19.15C6.78 19.08 6.75 19.01 6.72 18.94C6.69 18.87 6.66 18.8 6.64 18.74C6.61 18.67 6.59 18.61 6.56 18.56C6.54 18.5 6.52 18.45 6.5 18.4C6.28 17.62 6 16.86 5.68 16.13L5.62 16L5.56 15.87L5.53 15.81L5.51 15.78L5.51 15.77C5.51 15.76 5.5 15.76 5.5 15.75L5.43 15.62C5.33 15.42 5.23 15.22 5.12 15.02C5.02 14.82 4.93 14.62 4.83 14.41L4.76 14.26L4.69 14.11C4.67 14.06 4.65 14.01 4.62 13.96L4.56 13.79C4.56 13.8 4.56 13.8 4.57 13.81C4.57 13.81 4.58 13.81 4.58 13.81C4.59 13.82 4.59 13.82 4.6 13.82C4.61 13.83 4.63 13.83 4.64 13.83C4.67 13.83 4.69 13.83 4.71 13.82C4.76 13.8 4.8 13.76 4.84 13.72C4.85 13.71 4.86 13.7 4.87 13.69C4.87 13.68 4.87 13.68 4.87 13.68L4.88 13.67C4.88 13.66 4.89 13.65 4.89 13.65C4.91 13.62 4.93 13.59 4.94 13.57C4.98 13.53 5.02 13.5 5.08 13.5C5.1 13.5 5.13 13.5 5.16 13.52C5.17 13.52 5.17 13.53 5.18 13.53C5.19 13.54 5.19 13.54 5.19 13.54C5.2 13.54 5.2 13.54 5.21 13.55C5.22 13.56 5.24 13.57 5.25 13.58C5.32 13.63 5.39 13.72 5.48 13.86C5.57 14 5.68 14.19 5.81 14.44C5.88 14.56 5.95 14.7 6.03 14.86C6.07 14.93 6.12 15.01 6.16 15.1C6.18 15.14 6.21 15.19 6.23 15.23C6.24 15.25 6.25 15.27 6.27 15.3C6.27 15.31 6.28 15.32 6.28 15.33C6.29 15.34 6.29 15.35 6.3 15.36C6.36 15.33 6.47 15.27 6.53 15.24C6.52 15.22 6.52 15.21 6.51 15.2C6.51 15.19 6.5 15.18 6.5 15.16C6.49 15.14 6.48 15.12 6.47 15.1C6.45 15.05 6.42 15 6.41 14.95C6.37 14.86 6.33 14.77 6.29 14.68C6.22 14.5 6.16 14.32 6.11 14.15C6.01 13.82 5.94 13.51 5.89 13.24C5.89 13.23 5.89 13.21 5.89 13.2C5.89 13.18 5.89 13.17 5.89 13.15C5.89 13.15 5.89 13.14 5.89 13.13L5.89 13.12C5.89 13.12 5.89 13.12 5.89 13.11C5.88 13.09 5.88 13.08 5.88 13.06C5.88 12.99 5.87 12.92 5.86 12.86C5.84 12.73 5.82 12.61 5.8 12.5C5.78 12.39 5.77 12.29 5.75 12.2C5.74 12.12 5.73 12.04 5.73 11.98C5.74 11.87 5.78 11.81 5.86 11.79C5.88 11.78 5.9 11.78 5.92 11.78C5.93 11.78 5.95 11.78 5.96 11.78C5.97 11.78 5.97 11.78 5.98 11.79C5.99 11.79 6 11.79 6 11.8C6.07 11.82 6.14 11.87 6.23 11.94C6.32 12.01 6.41 12.11 6.51 12.23C6.53 12.26 6.56 12.29 6.58 12.33C6.61 12.36 6.64 12.4 6.66 12.44C6.71 12.51 6.76 12.6 6.81 12.69C6.82 12.72 6.83 12.74 6.84 12.76C6.84 12.77 6.85 12.78 6.85 12.78L6.85 12.79L6.86 12.79C6.86 12.79 6.86 12.79 6.86 12.79L6.86 12.8L6.87 12.8C6.87 12.8 6.87 12.81 6.88 12.81C6.88 12.81 6.88 12.81 6.88 12.81L6.88 12.81L6.89 12.81C6.89 12.81 6.89 12.81 6.89 12.81L6.89 12.81C6.91 12.85 6.93 12.88 6.95 12.91C6.97 12.94 6.99 12.97 7.01 13.01C7.1 13.15 7.19 13.3 7.29 13.46C7.43 13.7 7.57 13.94 7.73 14.19C7.77 14.25 7.81 14.32 7.85 14.38C7.86 14.4 7.88 14.42 7.89 14.44C7.9 14.46 7.91 14.48 7.92 14.5C7.95 14.54 7.97 14.58 7.99 14.62C8.02 14.66 8.04 14.7 8.06 14.74C8.08 14.78 8.1 14.82 8.12 14.85C8.16 14.93 8.21 15 8.25 15.08C8.58 15.69 8.89 16.34 9.17 17.01C9.25 17.18 9.32 17.35 9.39 17.52C9.42 17.6 9.46 17.69 9.49 17.77C9.53 17.86 9.56 17.95 9.59 18.03C9.72 18.37 9.86 18.7 9.99 19.04C10.12 19.38 10.25 19.72 10.39 20.05C10.46 20.22 10.53 20.39 10.59 20.56C10.63 20.64 10.66 20.72 10.7 20.81C10.72 20.85 10.73 20.89 10.75 20.93C10.77 20.98 10.79 21.03 10.81 21.07C10.83 21.12 10.85 21.17 10.87 21.22C10.88 21.24 10.89 21.27 10.89 21.29L10.91 21.33L10.91 21.36L10.93 21.41L10.94 21.46L10.97 21.54C10.98 21.59 11 21.64 11.01 21.69C11.02 21.73 11.03 21.77 11.04 21.8C11.05 21.83 11.06 21.86 11.07 21.87C11.07 21.88 11.07 21.88 11.07 21.88C11.07 21.88 11.07 21.88 11.07 21.89L11.04 21.9L10.98 21.93C10.94 21.95 10.9 21.96 10.86 21.98L10.84 21.99C10.84 21.99 10.83 22 10.83 22L10.8 22.01C10.78 22.02 10.76 22.03 10.75 22.04C10.71 22.06 10.68 22.07 10.64 22.09C10.61 22.11 10.58 22.13 10.54 22.14C10.53 22.15 10.51 22.16 10.5 22.17C10.48 22.18 10.46 22.19 10.45 22.2C10.42 22.21 10.39 22.23 10.37 22.24C10.35 22.25 10.34 22.26 10.33 22.27C10.31 22.28 10.3 22.28 10.29 22.29C10.27 22.31 10.24 22.32 10.22 22.34C10.21 22.35 10.2 22.36 10.19 22.36C10.18 22.37 10.17 22.38 10.16 22.38C10.15 22.39 10.14 22.4 10.13 22.41L10.12 22.41C10.12 22.42 10.12 22.42 10.12 22.42L10.1 22.43C10.09 22.44 10.07 22.46 10.06 22.47L10.05 22.48C10.05 22.48 10.05 22.48 10.05 22.48C10.04 22.48 10.04 22.49 10.04 22.49C10.03 22.5 10.02 22.5 10.02 22.51C10.01 22.51 10.01 22.52 10 22.53C10 22.53 9.99 22.54 9.99 22.54C9.98 22.55 9.98 22.55 9.98 22.56C9.97 22.56 9.97 22.57 9.97 22.57C9.97 22.57 9.97 22.57 9.96 22.58C9.96 22.58 9.96 22.58 9.96 22.59C9.95 22.59 9.95 22.59 9.95 22.59L9.95 22.6L9.95 22.6C9.94 22.61 9.95 22.6 9.95 22.61C9.95 22.6 9.95 22.6 9.95 22.59C9.95 22.59 9.96 22.59 9.96 22.58C9.96 22.58 9.96 22.58 9.96 22.58C9.96 22.57 9.96 22.57 9.96 22.57C9.96 22.56 9.96 22.56 9.96 22.56L9.96 22.55C9.97 22.54 9.97 22.54 9.97 22.53C9.97 22.52 9.97 22.52 9.97 22.51C9.97 22.51 9.97 22.5 9.97 22.49C9.97 22.48 9.97 22.47 9.97 22.47C9.97 22.46 9.97 22.46 9.97 22.46C9.97 22.45 9.97 22.45 9.97 22.45L9.97 22.44C9.97 22.43 9.97 22.41 9.96 22.39L9.96 22.38C9.96 22.37 9.96 22.37 9.96 22.36C9.96 22.35 9.96 22.34 9.95 22.33C9.95 22.32 9.95 22.31 9.95 22.3L9.94 22.28L9.94 22.28L9.94 22.27L9.94 22.26C9.94 22.24 9.93 22.22 9.92 22.19L9.92 22.18C9.92 22.17 9.92 22.17 9.91 22.16C9.91 22.15 9.91 22.13 9.91 22.12C9.9 22.09 9.89 22.07 9.88 22.04C9.88 22.03 9.87 22.01 9.87 22C9.86 21.99 9.86 21.97 9.85 21.96C9.84 21.93 9.83 21.9 9.82 21.87C9.81 21.84 9.8 21.81 9.79 21.78C9.78 21.76 9.77 21.75 9.77 21.73L9.76 21.71C9.75 21.7 9.75 21.7 9.75 21.69C9.74 21.65 9.72 21.62 9.71 21.59C9.7 21.57 9.69 21.56 9.68 21.54L9.67 21.52C9.67 21.51 9.66 21.5 9.66 21.49C9.65 21.46 9.63 21.42 9.61 21.39L9.59 21.33C9.58 21.32 9.58 21.33 9.58 21.33L9.58 21.33C9.58 21.33 9.58 21.32 9.59 21.32L9.59 21.32L9.59 21.32L9.59 21.32L9.59 21.32L9.6 21.32L9.6 21.32L9.61 21.31L9.63 21.3C9.65 21.29 9.67 21.27 9.7 21.25C9.75 21.22 9.82 21.17 9.88 21.12C9.95 21.07 10.02 21.01 10.09 20.95C10.23 20.84 10.37 20.71 10.51 20.58C10.65 20.45 10.79 20.31 10.93 20.17C10.96 20.14 11 20.1 11.03 20.07L11.07 20.04L11.08 20.02C11.09 20.02 11.09 20.01 11.09 20.01L11.1 20L11.15 19.95C11.22 19.88 11.28 19.81 11.35 19.74C11.5 19.58 11.64 19.43 11.79 19.28C12.37 18.68 12.96 18.08 13.55 17.48L14 17.03L14.12 16.91L14.18 16.85L14.21 16.82L14.24 16.79L14.37 16.67L14.48 16.57C14.78 16.29 15.08 16.01 15.37 15.72C15.66 15.44 15.95 15.16 16.24 14.87C16.38 14.73 16.53 14.58 16.67 14.44L16.89 14.22L17.11 14C17.41 13.7 17.71 13.41 18 13.12L18.45 12.68C18.6 12.54 18.75 12.39 18.91 12.25C19.74 11.46 20.59 10.63 21.45 9.8C22.32 8.96 23.21 8.12 24.13 7.31C24.24 7.2 24.36 7.1 24.47 7C24.59 6.9 24.7 6.8 24.82 6.7L24.86 6.66L24.91 6.62L25 6.55C25.05 6.5 25.11 6.45 25.17 6.4C25.29 6.3 25.41 6.2 25.53 6.1C25.65 6 25.76 5.91 25.88 5.81C25.94 5.76 26 5.71 26.06 5.66L26.15 5.59L26.24 5.52C26.37 5.43 26.49 5.33 26.61 5.24C26.67 5.19 26.73 5.14 26.79 5.1C26.82 5.07 26.85 5.05 26.88 5.03L26.97 4.96C27.96 4.22 28.97 3.55 29.98 2.95C30.16 2.84 30.36 2.71 30.56 2.58C30.59 2.56 30.61 2.54 30.64 2.53C30.67 2.51 30.69 2.49 30.72 2.48C30.77 2.44 30.83 2.41 30.88 2.37C30.99 2.3 31.1 2.23 31.21 2.16C31.43 2.01 31.66 1.86 31.89 1.71C32.12 1.57 32.35 1.42 32.57 1.28C32.79 1.14 33.01 1 33.22 0.88C33.43 0.75 33.63 0.63 33.82 0.53C34 0.43 34.17 0.34 34.32 0.27C34.39 0.23 34.46 0.2 34.53 0.18C34.59 0.15 34.65 0.13 34.7 0.11C35.27 -0.11 35.36 0 35.36 0.18C35.06 0.35 34.76 0.52 34.46 0.7C34.31 0.78 34.16 0.87 34.01 0.95C33.86 1.04 33.71 1.13 33.57 1.22C32.97 1.57 32.38 1.92 31.79 2.29C31.72 2.33 31.65 2.38 31.57 2.42L31.52 2.46L31.46 2.49L31.35 2.56C31.21 2.65 31.06 2.75 30.91 2.84C30.88 2.86 30.84 2.89 30.81 2.91L30.7 2.98C30.63 3.03 30.55 3.08 30.48 3.12C30.41 3.17 30.34 3.22 30.26 3.26C30.19 3.31 30.12 3.36 30.05 3.41C29.91 3.5 29.76 3.6 29.62 3.69C29.48 3.79 29.33 3.89 29.19 3.99C29.12 4.04 29.05 4.09 28.98 4.14C28.91 4.19 28.84 4.24 28.77 4.29C28.63 4.39 28.49 4.49 28.35 4.59L27.83 4.96C27.75 5.02 27.66 5.08 27.58 5.15L27.33 5.34L27.2 5.43L27.13 5.48L27.07 5.53L26.82 5.73C26.66 5.86 26.49 5.99 26.32 6.12L25.83 6.52L25.34 6.92L25.22 7.02C25.18 7.06 25.14 7.09 25.1 7.13L24.86 7.33L24.62 7.54C24.58 7.57 24.54 7.61 24.5 7.64L24.38 7.75C23.75 8.3 23.12 8.87 22.51 9.44L22.28 9.65C22.2 9.72 22.12 9.79 22.05 9.86L21.59 10.29L21.13 10.72L20.9 10.94L20.67 11.15C20.98 10.88 21.28 10.6 21.58 10.32C21.73 10.18 21.89 10.04 22.04 9.9C22.08 9.87 22.11 9.83 22.15 9.8C22.19 9.76 22.23 9.73 22.27 9.69C22.34 9.62 22.42 9.55 22.5 9.48C22.58 9.41 22.65 9.34 22.73 9.27C22.81 9.2 22.88 9.13 22.96 9.06C23.04 8.99 23.11 8.92 23.19 8.85L23.31 8.75L23.37 8.69L23.42 8.64C23.58 8.5 23.74 8.36 23.89 8.22C23.97 8.15 24.05 8.08 24.13 8.01C24.21 7.94 24.29 7.87 24.37 7.8C24.45 7.73 24.53 7.67 24.61 7.6C24.69 7.53 24.77 7.46 24.85 7.39C24.93 7.32 25.01 7.25 25.09 7.18L25.21 7.08C25.25 7.04 25.29 7.01 25.33 6.97C25.49 6.84 25.65 6.7 25.82 6.56C25.86 6.53 25.9 6.5 25.94 6.46L26.06 6.36C26.15 6.29 26.23 6.23 26.31 6.16L26.43 6.06L26.5 6.01L26.56 5.96C26.64 5.89 26.73 5.82 26.81 5.76C26.98 5.62 27.15 5.49 27.32 5.36C27.4 5.29 27.49 5.23 27.57 5.16L27.7 5.06C27.72 5.05 27.74 5.03 27.76 5.01L27.83 4.97C28 4.84 28.18 4.71 28.35 4.58C28.49 4.48 28.63 4.39 28.77 4.29L28.99 4.14L29.2 4L29.63 3.71L30.06 3.43L30.27 3.29L30.49 3.15L30.92 2.88L31.36 2.61C31.43 2.57 31.51 2.52 31.58 2.48L31.8 2.35L32.02 2.21L32.13 2.15C32.16 2.13 32.2 2.11 32.24 2.08L32.68 1.83C32.83 1.74 32.98 1.66 33.12 1.57L33.34 1.44C33.42 1.4 33.49 1.36 33.57 1.32C33.86 1.15 34.16 0.99 34.46 0.82C34.6 0.74 34.75 0.66 34.9 0.58L35.35 0.33C35.33 0.5 35.32 0.67 35.53 0.69C35.53 0.69 35.71 0.59 35.93 0.46C36.16 0.33 36.43 0.17 36.61 0.07C38.23 -0.48 38.09 0.13 37.53 0.83C37.37 0.99 37.2 1.18 37.01 1.37Z" fill="#CBA265" fill-opacity="1.000000" fill-rule="nonzero"/>
</svg>
