<svg width="189.000000" height="130.000000" viewBox="0 0 189 130" fill="none" xmlns="http://www.w3.org/2000/svg" xmlns:xlink="http://www.w3.org/1999/xlink">
	<desc>
			Created with Pixso.
	</desc>
	<defs/>
	<path id="Vector" d="M40.34 115.66C40.41 115.37 40.49 115.09 40.55 114.81C40.78 113.51 40.86 112.17 40.87 110.8C40.87 109.43 40.81 108.01 40.75 106.54C40.72 105.84 40.7 105.13 40.67 104.41C40.65 103.7 40.62 102.99 40.61 102.27C40.58 100.83 40.58 99.38 40.65 97.87C40.91 95.74 40.77 93.52 40.49 91.32C40.21 89.13 39.78 86.95 39.46 84.95C39.55 86.16 39.63 87.38 39.72 88.6C39.81 89.83 39.91 91.06 39.99 92.31C40.15 94.79 40.28 97.3 40.33 99.82C40.35 101.08 40.35 102.35 40.31 103.61C40.29 104.24 40.27 104.87 40.24 105.5C40.22 105.83 40.21 106.15 40.19 106.47C40.17 106.81 40.15 107.14 40.14 107.47C39.98 110.1 39.7 112.61 39.11 114.91C37.9 114.12 36.89 113.14 36.73 111.82C36.77 110.2 36.75 108.51 36.73 106.76C36.73 106.35 36.72 105.94 36.72 105.53C36.71 105.13 36.71 104.73 36.71 104.33C36.7 103.53 36.67 102.74 36.64 101.96C37.12 101.91 38.05 101.82 38.52 101.78C37.36 97.39 37.49 93.1 37.37 88.87C37.35 88.34 37.33 87.82 37.3 87.29C37.3 87.02 37.28 86.76 37.26 86.51C37.24 86.25 37.22 85.98 37.21 85.73C37.12 84.68 37 83.63 36.81 82.55C36.44 80.4 35.84 78.2 34.89 75.92C34.68 76.3 34.27 76.16 33.96 76.13C33.69 76.1 33.49 76.17 33.58 76.76C33.48 76.17 33.68 76.1 33.96 76.13C34.44 78.46 34.89 80.65 35.26 82.76C35.45 83.82 35.62 84.84 35.76 85.86C35.79 86.1 35.83 86.36 35.85 86.61C35.89 86.86 35.91 87.11 35.94 87.36C36 87.88 36.06 88.38 36.11 88.9C36.51 93 36.64 97.19 36.62 101.6C36.5 98.18 36.24 94.87 35.86 91.6C35.77 90.79 35.66 89.98 35.55 89.17C35.5 88.77 35.44 88.37 35.38 87.96L35.29 87.36L35.19 86.77C34.94 85.21 34.64 83.59 34.32 81.92C34.01 80.25 33.66 78.53 33.34 76.73C33.26 76.28 33.18 75.82 33.1 75.37L32.99 74.67L32.87 73.99C32.73 73.08 32.59 72.18 32.47 71.28C32.21 69.49 31.98 67.72 31.77 65.96C31.67 65.09 31.57 64.22 31.47 63.35C31.41 62.91 31.37 62.48 31.32 62.04C31.27 61.6 31.22 61.16 31.18 60.72C31.11 60.11 30.99 58.9 30.93 58.29C31.51 57.01 31.86 55.75 32.04 54.51C32.08 54.2 32.11 53.9 32.13 53.59C32.14 53.43 32.15 53.28 32.16 53.12L32.18 52.7C32.2 52.18 32.13 51.45 32.07 50.54C32.68 50.73 33.42 50.62 34.17 50.49C34.93 50.35 35.71 50.18 36.39 50.19C37.08 50.2 37.66 50.39 38.05 50.87C38.24 51.11 38.39 51.42 38.48 51.8C38.5 51.9 38.52 52 38.54 52.11C38.54 52.16 38.54 52.22 38.55 52.28C38.55 52.34 38.56 52.4 38.56 52.46C38.57 52.7 38.56 52.98 38.54 53.29C39.01 53.24 39.95 53.15 40.43 53.11C40.65 52.48 40.96 51.89 41.32 51.35C41.68 50.81 42.1 50.33 42.57 49.95C42.81 49.77 43.05 49.6 43.31 49.47C43.56 49.33 43.83 49.23 44.1 49.14C44.65 48.96 45.21 48.87 45.75 48.84C46.31 48.76 46.85 48.76 47.37 48.84C47.5 48.86 47.63 48.88 47.76 48.92C47.82 48.93 47.88 48.95 47.94 48.97C47.97 48.98 48.01 48.99 48.04 48.99C48.07 49 48.1 49 48.14 49.01C48.38 49.05 48.62 49.1 48.85 49.14C49.03 49.17 49.25 49.22 49.51 49.27C49.72 49.3 49.91 49.33 50.11 49.4C50.2 49.42 50.29 49.47 50.38 49.51C50.47 49.56 50.56 49.61 50.63 49.68C50.8 49.82 50.95 50 51.1 50.25C51.14 50.33 51.17 50.4 51.22 50.49L51.27 50.61L51.32 50.75C51.36 50.84 51.39 50.95 51.43 51.05L51.43 51.08L51.44 51.12L51.47 51.18L51.51 51.31C51.64 51.65 51.75 51.99 51.86 52.34C52.06 53.06 52.23 53.78 52.35 54.55C52.61 56.06 52.74 57.66 52.85 59.3C52.9 60.13 52.96 60.97 53.02 61.82C53.08 62.67 53.14 63.51 53.22 64.34C53.39 66 53.62 67.62 54.06 69.16L54.45 70.82L54.84 72.45C55.09 73.53 55.36 74.63 55.58 75.77C56.02 78.05 56.35 80.5 56.28 83.12C56.26 83.57 56.25 84.04 56.24 84.48C56.23 84.93 56.23 85.38 56.22 85.83C56.22 86.72 56.24 87.62 56.25 88.52C56.31 90.31 56.39 92.11 56.44 93.89C56.54 97.47 56.53 100.99 55.91 104.39C55.9 104.47 55.9 104.54 55.89 104.62C55.89 104.7 55.88 104.77 55.88 104.85C55.88 105.01 55.89 105.17 55.9 105.33C55.93 105.67 55.97 106.01 56.03 106.37C56.16 107.08 56.33 107.84 56.48 108.58C56.77 110.05 56.94 111.46 56.3 112.16C55.72 113.13 54.71 113.27 53.57 113.24C53.44 111.19 53.25 109.2 53.09 107.28C53.04 106.8 53.01 106.32 52.97 105.85C52.94 105.37 52.91 104.91 52.88 104.41C52.82 103.42 52.76 102.44 52.72 101.46C52.77 96.61 52.84 91.71 53.09 86.69C52.47 91.65 52.49 96.55 52.72 101.46C52.71 102.44 52.7 103.43 52.69 104.41L52.67 105.85L52.67 107.28C52.67 109.2 52.68 111.18 52.64 113.21C51.66 113.15 50.64 113.12 49.73 113.45C49.73 113.45 49.85 114.66 49.9 115.27C48.83 116.59 47.43 117.11 46.01 117.21C45.3 117.25 44.58 117.19 43.89 117.06C43.2 116.93 42.53 116.74 41.91 116.5C41.48 116.23 40.91 115.96 40.34 115.66Z" fill="#CBA265" fill-opacity="1.000000" fill-rule="nonzero"/>
	<path id="Vector" d="M132.77 113.2C132.78 113.02 132.79 112.84 132.8 112.66C132.81 112.48 132.82 112.31 132.83 112.13L132.83 111.55L132.84 110.99L132.84 110.7L132.85 110.43L132.86 109.88C132.87 109.19 132.89 108.5 132.89 107.81C132.91 106.47 132.92 105.21 132.92 104.02C132.92 103.7 132.92 103.39 132.92 103.07C132.92 102.74 132.92 102.42 132.92 102.09C132.93 101.77 132.93 101.44 132.94 101.12C132.95 100.79 132.97 100.46 132.98 100.13C133.04 98.82 133.16 97.49 133.4 96.15C133.86 94.26 134.02 92.27 134.09 90.3C134.16 88.32 134.14 86.36 134.23 84.55C133.56 88.83 133.24 93.32 132.88 97.9C132.78 99.05 132.7 100.21 132.6 101.36C132.55 101.95 132.49 102.53 132.45 103.11L132.4 103.55L132.36 103.98C132.32 104.25 132.3 104.53 132.26 104.8C132.11 105.99 131.96 107.17 131.81 108.35C131.65 109.6 131.5 110.95 131.4 112.42C131.07 112.19 130.74 111.95 130.44 111.69C130.29 111.56 130.15 111.42 130.02 111.28C129.89 111.13 129.77 110.99 129.64 110.85C129.17 110.25 128.85 109.59 128.76 108.87C128.76 108 128.79 107.17 128.82 106.39C128.84 105.66 128.87 104.93 128.9 104.19C128.93 103.42 128.95 102.66 128.97 101.89C128.98 101.5 129 101.12 129.02 100.75C129.03 100.37 129.04 99.99 129.06 99.62C129.54 99.6 130.48 99.57 130.94 99.56C130.52 97.48 130.49 95.44 130.64 93.46C130.78 91.48 131.12 89.55 131.45 87.65C131.6 86.69 131.76 85.75 131.89 84.8C131.96 84.33 132.02 83.86 132.07 83.39C132.12 82.9 132.17 82.42 132.19 81.93C132.32 79.99 132.26 78.02 131.83 76.03C131.56 76.28 131.18 76.09 130.88 76.01C130.88 75.99 130.88 75.98 130.88 75.95C130.88 75.97 130.88 75.98 130.88 76.01C130.83 77.95 130.74 79.87 130.63 81.8C130.6 82.28 130.57 82.77 130.54 83.25C130.5 83.72 130.48 84.18 130.44 84.66C130.37 85.59 130.29 86.52 130.21 87.47C129.86 91.25 129.41 95.11 129.06 99.28C129.19 96.05 129.35 92.94 129.49 89.9C129.56 88.4 129.63 86.9 129.7 85.4C129.77 83.9 129.84 82.4 129.91 80.89C130.06 77.86 130.23 74.88 130.42 71.94C130.61 69 130.81 66.1 131.01 63.23C131.05 62.75 131.11 61.78 131.15 61.29C132.68 59.44 133.24 57.51 133.27 55.61C134.46 55.87 136.25 55.54 137.61 55.62C138.3 55.66 138.87 55.81 139.21 56.2C139.54 56.59 139.65 57.23 139.38 58.22C139.85 58.24 140.8 58.27 141.28 58.29C141.59 57.79 141.96 57.33 142.39 56.91C142.6 56.71 142.83 56.51 143.06 56.32C143.29 56.13 143.53 55.96 143.78 55.8C144.78 55.15 145.9 54.69 147 54.49C147.55 54.4 148.1 54.37 148.62 54.42C148.88 54.43 149.14 54.48 149.38 54.54C149.63 54.6 149.88 54.67 150.1 54.78C150.56 54.97 150.98 55.26 151.35 55.63C151.71 56.01 152.02 56.47 152.24 57.03C152.68 58.29 152.87 59.64 152.9 61.05C152.91 61.75 152.89 62.47 152.85 63.18C152.82 63.54 152.8 63.9 152.76 64.27C152.72 64.64 152.68 65 152.64 65.37C152.31 68.3 151.8 71.27 152.02 74.12C152.07 76.18 152.14 78.19 152.04 80.17C152.03 80.41 152.01 80.65 151.99 80.9C151.98 81.15 151.96 81.39 151.93 81.63C151.89 82.12 151.83 82.61 151.76 83.08C151.69 83.56 151.6 84.04 151.49 84.52C151.39 85.02 151.27 85.52 151.12 86.01C150.27 88.73 149.91 91.54 149.58 94.29C149.41 95.67 149.25 97.03 149.04 98.37C148.83 99.72 148.57 101.03 148.18 102.33C148.16 102.45 148.14 102.57 148.13 102.7C148.13 102.84 148.13 102.98 148.13 103.13C148.14 103.27 148.15 103.42 148.17 103.57C148.19 103.72 148.2 103.87 148.23 104.03C148.33 104.64 148.47 105.23 148.58 105.77C148.81 106.86 148.95 107.69 148.32 108.18C148.18 108.35 148.01 108.48 147.82 108.6C147.62 108.71 147.42 108.8 147.19 108.88C146.74 109.03 146.21 109.13 145.65 109.2C145.44 107.84 145.33 106.34 145.25 104.75C145.23 104.35 145.22 103.93 145.2 103.53L145.17 102.91L145.15 102.31L145.14 101.72L145.14 101.13C145.14 100.74 145.15 100.34 145.16 99.95C145.35 98.01 145.62 96.07 145.97 94.11C146.32 92.16 146.78 90.21 147.34 88.24C146.6 90.15 146.09 92.09 145.73 94.05C145.39 96 145.21 97.98 145.16 99.95C145.13 100.34 145.08 100.74 145.06 101.13L145.01 101.72L144.97 102.31L144.93 102.91L144.9 103.53L144.84 104.75C144.76 106.34 144.7 107.86 144.73 109.29C143.75 109.38 142.74 109.45 141.87 109.82C141.87 109.82 141.92 110.06 141.98 110.36C142.01 110.51 142.06 110.67 142.09 110.82C142.13 110.98 142.17 111.12 142.21 111.24C141.98 111.55 141.75 111.83 141.5 112.1C141.24 112.37 140.97 112.61 140.69 112.82C140.12 113.26 139.48 113.6 138.81 113.83C138.14 114.06 137.43 114.19 136.72 114.21C136.36 114.22 136.01 114.2 135.65 114.16C135.3 114.11 134.95 114.05 134.61 113.97C134.05 113.75 133.42 113.51 132.77 113.2Z" fill="#CBA265" fill-opacity="1.000000" fill-rule="nonzero"/>
	<path id="Vector" d="M147.62 96.82C147.58 96.93 147.56 97.03 147.52 97.13C147.29 97.83 147.03 98.52 146.72 99.18C146.53 99.62 146.33 100.05 146.11 100.48L145.95 100.8C145.89 100.91 145.82 101.02 145.78 101.11C145.68 101.29 145.58 101.46 145.48 101.63C145.09 102.3 144.69 102.91 144.32 103.46L143.73 104.33C143.62 104.5 143.5 104.67 143.38 104.84L143.02 105.34C142.9 105.5 142.77 105.67 142.65 105.83C142.53 105.99 142.4 106.15 142.27 106.3C142.02 106.61 141.76 106.92 141.5 107.21C140.98 107.81 140.43 108.36 139.89 108.89C139.62 109.14 139.34 109.41 139.06 109.66C138.79 109.92 138.51 110.15 138.23 110.39C137.67 110.86 137.11 111.31 136.56 111.73C136.27 111.95 136 112.15 135.72 112.36C135.44 112.55 135.17 112.76 134.89 112.95L134.48 113.23L134.16 113.45L133.83 113.68L133.5 113.91C133.06 114.22 132.6 114.54 132.14 114.88C131.22 115.54 130.25 116.26 129.21 117.01C128.17 117.75 127.05 118.51 125.85 119.25C124.64 119.98 123.33 120.7 121.92 121.35C121.67 121.45 121.42 121.56 121.17 121.65C120.91 121.76 120.65 121.86 120.39 121.95C120.14 122.06 119.86 122.16 119.59 122.25C119.31 122.36 119.04 122.45 118.76 122.54C117.65 122.92 116.53 123.25 115.4 123.52C113.14 124.07 110.87 124.41 108.66 124.59C106.44 124.77 104.29 124.81 102.22 124.75C100.16 124.69 98.19 124.54 96.35 124.34C98.52 124.68 100.79 124.96 103.17 125.11C105.54 125.25 108.02 125.25 110.6 125C113.17 124.73 115.83 124.18 118.44 123.25C118.77 123.14 119.09 123 119.42 122.88C119.74 122.75 120.06 122.61 120.39 122.48L121.3 122.06L121.53 121.95L121.75 121.84L122.19 121.62C123.36 121.03 124.48 120.39 125.53 119.74C126.58 119.09 127.58 118.43 128.54 117.79C129.45 117.16 130.37 116.54 131.27 115.92C131.71 115.62 132.13 115.34 132.56 115.06L133.2 114.64C133.41 114.51 133.61 114.39 133.81 114.25L134.12 114.06L134.42 113.88L134.72 113.7L134.88 113.61L135.07 113.49L135.46 113.25L135.85 113C136.12 112.84 136.38 112.66 136.64 112.48C137.71 111.77 138.78 110.98 139.85 110.1C140.93 109.21 141.99 108.21 143 107.1L143.2 106.89L143.38 106.68L143.75 106.24C143.87 106.09 144 105.94 144.11 105.79C144.23 105.64 144.36 105.49 144.47 105.34L144.82 104.87L145 104.63L145.13 104.45C145.31 104.22 145.49 103.97 145.68 103.71C146.06 103.2 146.45 102.62 146.84 101.99C146.94 101.83 147.04 101.68 147.14 101.49C147.27 101.28 147.36 101.09 147.48 100.88C147.69 100.48 147.89 100.07 148.08 99.66C148.09 99.86 148.1 100.05 148.1 100.25C148.1 100.45 148.1 100.65 148.09 100.86C148.08 101.06 148.07 101.27 148.05 101.48C148.04 101.59 148.03 101.7 148.01 101.81C148 101.93 148 102.01 147.99 102.1C147.93 102.83 147.83 103.53 147.69 104.2C147.65 104.36 147.62 104.53 147.57 104.69C147.54 104.84 147.5 105.01 147.45 105.16C147.41 105.31 147.36 105.47 147.32 105.61L147.28 105.73L147.27 105.78C147.26 105.79 147.26 105.81 147.24 105.84C147.2 105.94 147.15 106.04 147.11 106.14C147.02 106.34 146.92 106.54 146.83 106.75C146.73 106.94 146.62 107.14 146.51 107.34C146.29 107.75 146.04 108.12 145.77 108.51C145.08 109.38 144.36 110.2 143.63 110.94C142.9 111.7 142.15 112.37 141.41 113.01C141.23 113.16 141.04 113.33 140.86 113.47L140.3 113.92C139.94 114.2 139.57 114.49 139.21 114.76C138.49 115.29 137.78 115.79 137.08 116.25L136.95 116.33L136.86 116.4L136.68 116.51L136.32 116.74C136.2 116.82 136.07 116.91 135.95 116.98L135.58 117.23C135.33 117.4 135.08 117.58 134.82 117.76C134.56 117.94 134.31 118.12 134.04 118.31C132.98 119.07 131.84 119.91 130.6 120.78C130.31 120.41 129.73 119.69 129.44 119.33C128.66 120.03 127.82 120.74 126.91 121.41C126.68 121.59 126.44 121.76 126.22 121.92C126.1 122.01 125.99 122.09 125.86 122.17L125.49 122.42C125.25 122.58 125.01 122.74 124.76 122.9C124.5 123.06 124.25 123.22 123.98 123.38L123.79 123.5L123.59 123.61L123.18 123.83C122.91 123.98 122.65 124.13 122.36 124.27C122.08 124.4 121.8 124.55 121.53 124.69C121.24 124.82 120.93 124.96 120.63 125.1C119.42 125.62 118.19 126.06 116.96 126.4C114.49 127.09 112.03 127.44 109.69 127.57C107.35 127.69 105.12 127.61 102.99 127.43C100.86 127.25 98.83 126.98 96.88 126.71C95.92 126.57 94.96 126.43 94.01 126.31L93.31 126.21L92.63 126.13C92.18 126.07 91.72 126.02 91.26 125.96C87.58 125.55 83.73 125.35 79.59 125.3C80.13 125.64 79.73 125.96 79.57 126.24C79.52 126.23 79.49 126.23 79.45 126.22C79.49 126.23 79.53 126.23 79.57 126.24C79.49 126.36 79.46 126.47 79.58 126.57C79.7 126.68 79.96 126.77 80.47 126.84C79.97 126.77 79.71 126.68 79.58 126.57C79.47 126.47 79.5 126.36 79.57 126.24C83.59 126.73 87.4 127.08 91.02 127.47C91.46 127.52 91.91 127.57 92.37 127.63C92.82 127.68 93.27 127.73 93.72 127.78C94.65 127.89 95.6 128 96.57 128.11C98.52 128.33 100.55 128.53 102.68 128.64C104.8 128.75 107.04 128.77 109.39 128.63C111.72 128.48 114.19 128.14 116.69 127.51C117.94 127.19 119.21 126.79 120.46 126.32L120.92 126.14C121.08 126.08 121.23 126.02 121.39 125.96L121.85 125.76C121.93 125.72 122 125.69 122.07 125.66L122.29 125.57C122.58 125.44 122.87 125.3 123.16 125.18C123.45 125.04 123.73 124.9 124.01 124.76L124.43 124.56L124.83 124.34C125.11 124.2 125.38 124.05 125.64 123.91C126.16 123.62 126.7 123.32 127.18 123.02L127.56 122.79L127.75 122.68L127.93 122.57C128.17 122.42 128.41 122.27 128.65 122.12C128.89 121.96 129.12 121.82 129.35 121.66L129.71 121.43L130.04 121.21C128.67 122.17 127.17 123.16 125.52 124.1L124.89 124.46C124.68 124.58 124.47 124.69 124.25 124.81L123.59 125.15L123.27 125.32L122.94 125.48C122.06 125.91 121.05 126.36 120.08 126.73C119.09 127.11 118.1 127.44 117.11 127.72C116.11 127.99 115.13 128.23 114.15 128.43C113.18 128.62 112.21 128.77 111.25 128.9C110.3 129.02 109.36 129.11 108.44 129.17C104.74 129.4 101.32 129.23 98.15 128.96C96.56 128.83 95.03 128.67 93.57 128.51C92.86 128.43 92.16 128.36 91.45 128.29C90.73 128.22 90.01 128.14 89.3 128.07C87.86 127.93 86.39 127.78 84.9 127.62C84.15 127.53 83.4 127.45 82.64 127.36C82.26 127.32 81.88 127.27 81.49 127.22L80.34 127.08C79.95 127.03 79.57 126.97 79.18 126.91C78.79 126.85 78.41 126.8 78.01 126.74C77.22 126.62 76.44 126.5 75.64 126.36C74.04 126.09 72.43 125.77 70.81 125.41C70.4 125.31 69.99 125.21 69.59 125.12C69.38 125.06 69.18 125.02 68.97 124.97L68.36 124.81C67.94 124.7 67.54 124.59 67.12 124.48C66.71 124.36 66.3 124.24 65.88 124.12L65.27 123.94L64.69 123.76C64.3 123.64 63.91 123.51 63.54 123.39C62.77 123.14 62.02 122.89 61.26 122.63C58.25 121.59 55.38 120.47 52.59 119.37C52.35 119.27 52.05 119.15 51.73 119.02C51.44 118.91 51.12 118.78 50.8 118.66C50.07 118.38 49.34 118.1 48.84 117.91C48.37 117.54 47.88 117.17 47.35 116.79L46.54 116.2L45.7 115.6C45.11 115.19 44.53 114.77 43.92 114.31L43.69 114.14L43.46 113.96L43.23 113.78C43.16 113.72 43.07 113.66 43.01 113.61C42.75 113.39 42.48 113.17 42.21 112.96C40.09 111.21 38.25 109.45 36.6 107.92C37.22 107.7 37.68 107.12 38.12 106.5C38.55 105.87 38.98 105.21 39.5 104.77C40.02 104.34 40.63 104.14 41.47 104.43C41.9 104.58 42.37 104.85 42.94 105.28C43.51 105.7 44.17 106.28 45 107.02C45.28 106.65 45.84 105.91 46.13 105.53C45.46 104.69 44.96 103.82 44.6 102.98C44.24 102.14 44.01 101.31 43.89 100.54C43.65 98.99 43.82 97.61 44.33 96.59C44.59 96.08 44.92 95.66 45.34 95.35C45.77 95.04 46.28 94.84 46.86 94.77C47.15 94.73 47.45 94.71 47.77 94.74C47.93 94.75 48.1 94.77 48.26 94.79C48.35 94.8 48.43 94.82 48.52 94.83C48.61 94.85 48.68 94.87 48.77 94.89C49.47 95.04 50.21 95.31 50.94 95.64C51.75 96.03 52.48 96.39 53.18 96.7C53.27 96.75 53.35 96.78 53.43 96.82C53.52 96.87 53.6 96.9 53.69 96.93L53.81 96.99C53.86 97.01 53.9 97.04 53.93 97.05C53.99 97.06 54.05 97.09 54.11 97.11C54.42 97.23 54.73 97.35 55.04 97.47C55.77 97.77 56.76 98.13 58.01 98.61C58.33 98.74 58.66 98.87 58.99 99C59.17 99.07 59.34 99.14 59.52 99.21C59.69 99.28 59.87 99.36 60.05 99.43C60.68 99.69 61.31 99.96 61.95 100.22C63.22 100.76 64.48 101.29 65.73 101.79C66.97 102.3 68.21 102.78 69.44 103.21C70.05 103.44 70.66 103.63 71.27 103.83L71.73 103.97L71.96 104.04C72.04 104.06 72.1 104.08 72.18 104.1C72.46 104.17 72.74 104.25 73.03 104.33C73.31 104.41 73.6 104.47 73.89 104.53C74.19 104.59 74.48 104.66 74.77 104.72C75.06 104.77 75.35 104.83 75.64 104.88C75.79 104.9 75.93 104.93 76.08 104.95C76.23 104.96 76.38 104.99 76.53 105.01C78.25 105.28 80.02 105.49 81.85 105.7C83.68 105.9 85.56 106.08 87.5 106.28C89.43 106.49 91.42 106.72 93.45 107.03L94.22 107.15L94.99 107.28C95.5 107.36 96.03 107.46 96.5 107.55C97.47 107.74 98.4 107.94 99.31 108.13C101.79 108.72 104.15 109.08 106.3 109.17C107.37 109.21 108.38 109.19 109.33 109.09C110.27 109 111.15 108.84 111.96 108.63C112.37 108.52 112.76 108.41 113.15 108.26L113.22 108.24L113.3 108.2L113.46 108.13L113.78 108L114.45 107.71C115.36 107.29 116.33 106.78 117.37 106.17C118.42 105.56 119.53 104.87 120.73 104.13C121.92 103.39 123.22 102.62 124.6 101.88C124.84 101.73 125.09 101.57 125.35 101.4C125.41 101.36 125.45 101.33 125.5 101.3C125.55 101.27 125.6 101.24 125.64 101.21C125.74 101.14 125.84 101.07 125.93 101C126.32 100.73 126.68 100.42 127.02 100.1C127.71 99.47 128.28 98.78 128.72 98.18C128.95 97.88 129.13 97.6 129.3 97.35C129.35 97.29 129.38 97.23 129.42 97.16C129.47 97.11 129.5 97.05 129.55 96.99C129.64 96.88 129.71 96.77 129.78 96.68L129.81 96.64L129.83 96.63L129.86 96.59C129.89 96.55 129.92 96.51 129.94 96.46C130 96.38 130.06 96.3 130.12 96.23C130.23 96.09 130.35 95.96 130.45 95.85C130.67 95.64 130.89 95.5 131.12 95.43C131.25 95.37 131.37 95.31 131.49 95.27C131.52 95.26 131.55 95.25 131.58 95.25C131.6 95.25 131.61 95.24 131.62 95.24C131.64 95.24 131.65 95.24 131.67 95.24C131.72 95.24 131.77 95.25 131.83 95.25C132.05 95.25 132.29 95.27 132.53 95.31C133 95.4 133.51 95.58 134.02 95.82C133.99 95.87 133.97 95.93 133.94 95.98C133.92 96.03 133.89 96.09 133.87 96.14C133.85 96.19 133.81 96.27 133.78 96.33C133.74 96.4 133.71 96.47 133.67 96.54C133.53 96.82 133.37 97.11 133.2 97.42L132.92 97.89L132.78 98.13C132.76 98.18 132.74 98.2 132.72 98.24L132.66 98.33C132.58 98.45 132.51 98.57 132.42 98.69C132.34 98.81 132.27 98.93 132.18 99.05C131.49 100 130.63 100.91 129.62 101.78C129.11 102.22 128.57 102.66 127.99 103.08L127.55 103.39L127.09 103.72L126.55 104.11L126.28 104.3L126.01 104.5C124.6 105.53 123.27 106.55 121.99 107.48C121.19 108.03 120.4 108.55 119.63 109.03C119.44 109.15 119.24 109.27 119.05 109.38L118.48 109.72C118.1 109.92 117.72 110.15 117.34 110.34C116.96 110.53 116.6 110.7 116.23 110.88L115.67 111.12L115.53 111.18L115.39 111.23L115.12 111.34L114.85 111.44C114.76 111.47 114.67 111.5 114.58 111.53L114.32 111.62C114.23 111.65 114.14 111.67 114.05 111.7L113.79 111.77L113.52 111.84L113.25 111.91L112.98 111.97C111.53 112.3 109.99 112.44 108.38 112.43C106.76 112.42 105.08 112.25 103.34 111.96C106.74 112.71 110.04 112.9 112.98 112.22C113.17 112.18 113.35 112.13 113.53 112.08C113.71 112.03 113.89 111.99 114.07 111.93C114.25 111.88 114.43 111.82 114.61 111.76L114.87 111.66C114.96 111.63 115.06 111.59 115.14 111.55C115.88 111.27 116.63 110.9 117.38 110.5L117.66 110.34L117.8 110.27L117.94 110.18L118.51 109.85C118.89 109.61 119.28 109.38 119.66 109.12C120.42 108.61 121.2 108.06 122 107.47C123.31 106.58 124.68 105.61 126.12 104.65L126.39 104.47L126.66 104.29L127.22 103.93L127.69 103.63C127.85 103.54 127.99 103.44 128.15 103.33C128.75 102.94 129.32 102.53 129.86 102.12C130.94 101.29 131.88 100.42 132.67 99.49L132.82 99.32C132.87 99.26 132.92 99.2 132.96 99.14C133.06 99.02 133.15 98.9 133.23 98.78C133.39 98.56 133.63 98.2 133.82 97.91C134.02 97.61 134.2 97.31 134.38 97.03L134.5 96.81L134.62 96.61L134.67 96.51L134.72 96.42L134.82 96.25C135.24 96.49 135.67 96.74 136.12 96.94C136.57 97.15 137.02 97.3 137.52 97.3C137.76 96.72 137.95 96.12 138.08 95.51C138.13 95.25 138.15 94.97 138.17 94.71C138.24 94.6 138.32 94.5 138.41 94.4C138.5 94.28 138.59 94.16 138.67 94.05C138.86 93.82 139.06 93.64 139.28 93.5C139.5 93.37 139.72 93.32 139.93 93.26C140.14 93.2 140.36 93.13 140.58 93.01C140.79 92.9 141 92.74 141.18 92.58C141.28 92.5 141.37 92.42 141.45 92.35C141.52 92.28 141.61 92.2 141.69 92.14C142.02 91.87 142.33 91.67 142.69 91.6C143.03 91.54 143.42 91.6 143.8 91.85C143.9 91.93 144 92.02 144.09 92.12C144.14 92.17 144.19 92.22 144.23 92.28C144.28 92.34 144.32 92.41 144.36 92.49C144.45 92.63 144.53 92.79 144.6 92.98C144.67 93.16 144.73 93.36 144.78 93.57C144.8 93.67 144.82 93.78 144.84 93.89C144.86 94 144.87 94.11 144.88 94.22C144.89 94.33 144.9 94.43 144.91 94.54C144.92 94.65 144.92 94.77 144.92 94.86C144.94 95.26 144.95 95.59 145.03 95.78C145.06 95.81 145.09 95.85 145.11 95.89L145.16 95.91L145.19 95.92C144.82 95.75 144.45 95.57 144.07 95.4C143.88 95.31 143.68 95.22 143.48 95.13L143.33 95.06L143.25 95.02L143.18 94.99C143.09 94.95 143 94.9 142.91 94.86C142.74 94.77 142.55 94.7 142.37 94.62C142.28 94.58 142.18 94.54 142.1 94.5L142.03 94.47L141.99 94.46L141.97 94.45L141.92 94.42C141.84 94.39 141.77 94.35 141.69 94.33C141.61 94.29 141.53 94.27 141.45 94.24C141.42 94.23 141.38 94.21 141.34 94.2C141.3 94.18 141.26 94.17 141.23 94.16L141.17 94.14L141.15 94.13C141.13 94.12 141.11 94.12 141.09 94.11L141.07 94.11L141.05 94.11L142.54 94.47L142.55 94.47C142.61 94.49 142.67 94.5 142.73 94.52L142.77 94.53L142.84 94.54C142.89 94.55 142.93 94.56 142.98 94.57C143.1 94.59 143.21 94.6 143.33 94.63C143.4 94.64 143.47 94.65 143.54 94.66L143.64 94.68L143.79 94.71C144.01 94.74 144.22 94.77 144.44 94.78C144.79 94.83 145.15 94.86 145.51 94.89C145.77 94.92 146.03 94.95 146.3 94.96C146.46 94.98 146.62 94.99 146.77 95.01L146.8 95.01L146.83 95.01L146.84 95.01L146.84 95.02L146.89 95.1L146.93 95.18L146.98 95.27C147.21 95.7 147.44 96.23 147.62 96.82Z" fill="#CBA265" fill-opacity="1.000000" fill-rule="nonzero"/>
	<path id="Vector" d="M92.6 82.01C92.53 81.96 92.45 81.92 92.37 81.89L92.09 81.75C91.97 81.7 91.87 81.65 91.75 81.6L91.66 81.56L91.6 81.54L91.54 81.52C91.46 81.48 91.38 81.46 91.31 81.42C91.15 81.36 90.98 81.3 90.81 81.23L90.57 81.12L90.44 81.07L90.33 81.02L90.21 80.97L90.12 80.93L89.93 80.84C89.81 80.78 89.7 80.72 89.57 80.66C89.09 80.42 88.63 80.18 88.18 79.95C87.29 79.48 86.46 79.03 85.68 78.61C84.9 78.19 84.16 77.79 83.47 77.44C83.12 77.26 82.8 77.11 82.42 76.93C82.06 76.76 81.69 76.59 81.32 76.43C78.35 75.09 75.14 73.88 71.78 72.28C70.66 71.67 69.32 71.07 68.02 70.53C66.71 69.98 65.37 69.46 64.04 68.98C61.38 68 58.73 67.12 56.33 66.27C59.1 67.49 61.97 68.73 64.94 69.95C66.43 70.56 67.93 71.18 69.47 71.78L70.61 72.22L71.7 72.65C72.43 72.94 73.15 73.23 73.86 73.52C76.71 74.71 79.45 75.98 81.96 77.44L82.42 77.71C82.57 77.81 82.71 77.89 82.85 77.98L83.29 78.26C83.44 78.36 83.59 78.46 83.75 78.55C84.41 78.99 85.06 79.42 85.71 79.85C86.42 80.3 87.16 80.79 87.97 81.28L88.28 81.46L88.6 81.64C88.81 81.76 89.03 81.89 89.24 82.01C89.34 82.07 89.46 82.13 89.57 82.19L89.74 82.28L89.95 82.38C90.26 82.53 90.57 82.67 90.88 82.8C90.73 82.84 90.57 82.86 90.42 82.89C90.27 82.92 90.11 82.93 89.95 82.96C89.8 82.98 89.64 82.99 89.48 83.01C89.36 83.04 89.23 83.06 89.11 83.08C88.85 83.12 88.6 83.15 88.34 83.17C88.09 83.2 87.83 83.21 87.58 83.21C86.56 83.22 85.57 83.05 84.69 82.68C83.68 82.14 82.8 81.65 82.03 81.22L81.46 80.91L81.2 80.76L80.9 80.61C80.51 80.41 80.09 80.2 79.69 80C78.05 79.21 76.36 78.46 74.61 77.75C74.77 77.31 75.09 76.45 75.24 76.02C73.9 75.74 72.59 75.4 71.29 75.01C70.97 74.91 70.64 74.81 70.31 74.71L69.83 74.54L69.33 74.37C68.64 74.13 67.96 73.88 67.29 73.62C64.62 72.57 62.12 71.37 59.67 70.21C58.45 69.63 57.25 69.07 56.03 68.55C54.82 68.02 53.62 67.54 52.39 67.12C49.92 66.29 47.4 65.72 44.81 65.63C45.09 65.96 44.78 66.28 44.63 66.54C44.5 66.78 44.48 66.98 45.08 67.14C44.48 66.98 44.5 66.77 44.63 66.54C47.04 67.06 49.42 67.74 51.83 68.55C53.04 68.95 54.23 69.38 55.44 69.83C56.64 70.29 57.85 70.77 59.08 71.26C61.53 72.26 64.04 73.33 66.66 74.41C67.95 74.94 69.25 75.46 70.55 76C71.79 76.51 73.01 77.03 74.22 77.56C73.27 77.18 72.31 76.81 71.33 76.44C70.84 76.26 70.36 76.08 69.87 75.89C69.35 75.7 68.84 75.51 68.32 75.32C66.18 74.54 64.12 73.76 62.1 73C61.11 72.63 60.11 72.26 59.11 71.88C58.13 71.51 57.15 71.16 56.19 70.81L54.75 70.29C54.28 70.13 53.8 69.96 53.33 69.81C52.85 69.64 52.39 69.49 51.91 69.33C51.44 69.18 50.97 69.03 50.5 68.88C46.76 67.7 43.13 66.77 39.5 66.16C38.99 66.08 38.48 65.99 37.96 65.91C37.37 65.8 36.76 65.69 36.16 65.58C34.97 65.35 33.79 65.1 32.62 64.83C30.28 64.28 27.99 63.66 25.77 62.99C25.67 62.97 25.57 62.93 25.45 62.9C25.31 62.86 25.16 62.81 25.01 62.76C24.85 62.71 24.69 62.66 24.52 62.61C24.43 62.58 24.35 62.56 24.27 62.53C24.19 62.51 24.11 62.48 24.04 62.45C23.88 62.4 23.71 62.34 23.55 62.29C23.4 62.24 23.25 62.19 23.11 62.14C22.84 62.04 22.59 61.96 22.39 61.88C21.1 60.68 19.95 59.75 18.88 59.09C18.34 58.75 17.84 58.5 17.34 58.29C17.23 58.25 17.11 58.2 16.99 58.15C16.93 58.14 16.87 58.11 16.82 58.09L16.65 58.04C16.54 58.01 16.42 57.97 16.32 57.95L16.01 57.89C16.21 57.34 16.32 56.62 16.4 55.88C16.48 55.14 16.53 54.37 16.68 53.71C16.83 53.06 17.09 52.53 17.64 52.3C18.2 52.07 19.06 52.15 20.32 52.78C20.47 52.34 20.76 51.46 20.91 51.02C20.76 50.9 20.61 50.78 20.46 50.65C20.31 50.52 20.17 50.39 20.03 50.26C19.76 50 19.49 49.74 19.23 49.46C18.72 48.93 18.26 48.37 17.83 47.8C17.62 47.52 17.41 47.25 17.22 46.96C17.03 46.68 16.86 46.39 16.69 46.11C16.37 45.56 16.1 44.99 15.95 44.44C15.85 43.9 15.83 43.36 15.92 42.86C15.94 42.73 15.97 42.61 16.01 42.48C16.02 42.42 16.04 42.36 16.06 42.3C16.07 42.27 16.08 42.24 16.1 42.21C16.11 42.18 16.13 42.15 16.14 42.12C16.27 41.89 16.45 41.67 16.67 41.46C16.89 41.26 17.16 41.06 17.48 40.89C17.78 40.73 18.14 40.57 18.55 40.45C18.65 40.42 18.76 40.39 18.87 40.37C18.97 40.34 19.08 40.31 19.18 40.3C19.4 40.25 19.63 40.21 19.88 40.19C20.12 40.15 20.36 40.13 20.62 40.13C20.87 40.12 21.13 40.11 21.41 40.11C22.61 40.16 23.77 40.32 24.88 40.55C25.15 40.6 25.42 40.66 25.69 40.73C25.95 40.79 26.21 40.85 26.47 40.92C26.74 40.99 26.98 41.06 27.23 41.13C27.35 41.16 27.47 41.2 27.61 41.24C27.72 41.27 27.84 41.31 27.97 41.35C28.92 41.64 29.8 41.95 30.58 42.22C30.94 42.34 31.3 42.46 31.66 42.58C31.8 42.64 32.05 42.71 32.27 42.79C32.5 42.87 32.72 42.94 32.95 43.01C34.76 43.6 36.57 44.19 38.38 44.62C39.28 44.85 40.18 45.03 41.07 45.16C41.52 45.23 41.96 45.28 42.4 45.33C42.69 45.36 42.98 45.39 43.27 45.42C43.57 45.45 43.86 45.48 44.15 45.51C47.57 45.94 50.93 46.57 54.11 47.48C57.28 48.38 60.26 49.53 63.02 51.02C66.76 53.12 70.61 54.85 74.32 56.42C75.29 56.83 76.26 57.23 77.22 57.63C78.22 58.06 79.22 58.5 80.22 58.96C82.22 59.89 84.19 60.92 86.05 62.12C86.75 62.51 87.63 62.85 88.58 63.18C89.52 63.51 90.51 63.86 91.45 64.19C92.32 64.49 93.05 64.77 93.59 65.06C94.14 65.35 94.5 65.66 94.64 66.08C94.7 66.19 94.76 66.3 94.79 66.41C94.84 66.52 94.87 66.64 94.88 66.75C94.89 66.96 94.86 67.18 94.82 67.42C94.73 67.88 94.58 68.38 94.37 68.89C94.23 68.84 93.96 68.74 93.73 68.65C93.62 68.61 93.49 68.56 93.37 68.51C93.25 68.47 93.12 68.42 93.01 68.37C92.52 68.17 92.02 67.95 91.5 67.72C90.46 67.25 89.35 66.73 88.16 66.21C87.87 66.08 87.55 65.94 87.27 65.81L86.39 65.44C85.8 65.2 85.22 64.96 84.63 64.72C83.46 64.24 82.3 63.77 81.15 63.32C79.76 62.69 78.37 62.09 76.99 61.47L74.93 60.55L74.42 60.32L73.94 60.1C73.61 59.95 73.29 59.8 72.97 59.64C70.38 58.42 67.8 57.06 65.18 55.59C67.68 57.19 70.22 58.61 72.81 59.83C73.14 59.99 73.46 60.13 73.79 60.28L74.28 60.49L74.79 60.72C75.49 61.01 76.18 61.3 76.88 61.59C78.29 62.16 79.71 62.73 81.16 63.3C82.29 63.81 83.43 64.33 84.56 64.87C85.12 65.14 85.69 65.41 86.26 65.68L87.1 66.1L87.53 66.32L87.96 66.54C89.11 67.13 90.16 67.72 91.16 68.26C91.66 68.52 92.16 68.79 92.63 69.03C92.87 69.15 93.11 69.27 93.34 69.38L93.7 69.55C93.81 69.6 93.94 69.66 94.02 69.7C93.82 70.13 93.61 70.58 93.42 71.02C93.25 71.47 93.12 71.93 93.11 72.4C93.11 72.4 93.19 72.43 93.32 72.46C93.45 72.51 93.63 72.55 93.84 72.6C94.26 72.7 94.82 72.81 95.22 72.91C95.53 73.29 95.78 73.68 95.92 74.06C95.99 74.25 96.03 74.45 96.06 74.64C96.08 74.83 96.08 75.01 96.05 75.19C96.03 75.37 95.98 75.53 95.92 75.69C95.86 75.86 95.77 76.01 95.68 76.16C95.6 76.3 95.5 76.45 95.39 76.58C95.34 76.66 95.29 76.73 95.23 76.79C95.21 76.82 95.18 76.86 95.16 76.89C95.16 76.89 95.12 76.93 95.05 77.02C95.01 77.06 94.98 77.12 94.94 77.18L94.93 77.2C94.93 77.21 94.92 77.22 94.91 77.23C94.89 77.25 94.88 77.27 94.87 77.29C94.83 77.35 94.8 77.39 94.77 77.45C94.73 77.5 94.71 77.56 94.67 77.62L94.65 77.66C94.64 77.68 94.62 77.71 94.61 77.72C94.58 77.77 94.57 77.81 94.54 77.84C94.5 77.93 94.45 78.01 94.41 78.11C94.39 78.15 94.36 78.2 94.35 78.25L94.33 78.28L94.3 78.32C94.29 78.36 94.28 78.38 94.26 78.42C94.2 78.55 94.14 78.67 94.08 78.81C94.06 78.88 94.03 78.95 94 79.02C93.99 79.05 93.98 79.09 93.96 79.12C93.94 79.16 93.92 79.21 93.9 79.26C93.82 79.45 93.75 79.63 93.68 79.82C93.64 79.92 93.61 80.02 93.57 80.11L93.55 80.19L93.54 80.23L93.52 80.28C93.49 80.35 93.47 80.41 93.45 80.48C93.42 80.57 93.39 80.64 93.36 80.73C93.35 80.76 93.34 80.79 93.34 80.82C93.32 80.84 93.31 80.88 93.29 80.9C93.27 80.96 93.24 81.01 93.2 81.07L93.19 81.12C93.18 81.13 93.17 81.14 93.16 81.16C93.14 81.18 93.12 81.22 93.11 81.25C93.07 81.31 93.04 81.36 92.99 81.42C92.95 81.48 92.9 81.53 92.85 81.59C92.83 81.61 92.81 81.65 92.78 81.67C92.76 81.7 92.73 81.73 92.7 81.76C92.71 81.9 92.65 81.95 92.6 82.01Z" fill="#CBA265" fill-opacity="1.000000" fill-rule="nonzero"/>
	<path id="Vector" d="M171.28 54.64L171.18 54.63C171.15 54.63 171.11 54.63 171.09 54.62L170.92 54.61C170.8 54.6 170.72 54.58 170.63 54.56L170.56 54.55L170.51 54.55L170.4 54.52C170.34 54.5 170.31 54.49 170.28 54.47L170.18 54.43L169.43 54.44L168.67 54.46C168.17 54.47 167.67 54.49 167.17 54.5C166.18 54.54 165.21 54.58 164.26 54.63C163.31 54.68 162.36 54.75 161.45 54.83C160.99 54.87 160.53 54.91 160.08 54.96C159.63 55 159.16 55.05 158.75 55.1C158.33 55.15 157.9 55.21 157.48 55.27C157.26 55.29 157.04 55.33 156.83 55.36C156.61 55.39 156.4 55.43 156.18 55.46C155.96 55.5 155.75 55.53 155.53 55.57L155.37 55.59L155.2 55.62L154.87 55.68C154.43 55.76 153.98 55.85 153.55 55.93C151.72 56.29 149.87 56.64 147.97 57.02C145.17 57.42 142.25 58.32 139.35 59.4C136.45 60.47 133.55 61.69 130.74 62.71C134.12 61.71 137.44 60.59 140.72 59.54C142.36 59.01 143.98 58.51 145.6 58.04C147.22 57.59 148.83 57.15 150.43 56.81C150.83 56.72 151.23 56.63 151.63 56.55C152.02 56.47 152.42 56.4 152.82 56.33L153.42 56.22C153.62 56.18 153.82 56.16 154.01 56.12C154.41 56.06 154.8 56.01 155.19 55.95C155.29 55.93 155.38 55.93 155.48 55.91L155.77 55.87L156.36 55.81L156.94 55.75C157.13 55.74 157.33 55.71 157.52 55.7C157.91 55.68 158.29 55.66 158.67 55.64C158.87 55.63 159.06 55.63 159.24 55.62C159.45 55.61 159.66 55.61 159.86 55.6C161.5 55.57 163.21 55.58 164.97 55.62C165.85 55.65 166.74 55.68 167.66 55.71C168.12 55.73 168.58 55.75 169.04 55.75C169.28 55.76 169.51 55.77 169.74 55.78C169.97 55.79 170.2 55.8 170.43 55.81C170.45 55.82 170.46 55.84 170.48 55.86C170.48 55.93 170.47 55.99 170.47 56.06C169.89 56.67 169.18 57.24 168.41 57.68C167.64 58.13 166.8 58.44 165.89 58.57C164.71 58.63 163.58 58.69 162.49 58.75C162.22 58.77 161.95 58.79 161.68 58.8C161.42 58.82 161.15 58.84 160.89 58.86C160.62 58.87 160.37 58.89 160.1 58.92L159.91 58.93L159.73 58.95L159.38 58.98C158.93 59.03 158.46 59.07 157.99 59.11C157.53 59.17 157.06 59.24 156.6 59.3L156.24 59.35L155.89 59.41L155.19 59.53L154.49 59.65C154.25 59.7 154.01 59.75 153.77 59.8C153.65 59.34 153.4 58.47 153.28 58.02C150.65 59.07 147.95 59.96 145.17 60.8C142.39 61.64 139.52 62.44 136.59 63.29C135.86 63.5 135.11 63.71 134.38 63.93C133.64 64.15 132.9 64.37 132.16 64.6C131.4 64.84 130.67 65.07 129.91 65.32C129.53 65.44 129.15 65.56 128.77 65.68C128.41 65.81 128.03 65.93 127.67 66.06C124.82 67.05 122 68.25 119.26 69.84C119.76 69.93 119.65 70.36 119.66 70.68C119.64 70.69 119.61 70.71 119.59 70.71C119.61 70.71 119.64 70.7 119.66 70.68C119.68 70.95 119.8 71.13 120.53 70.87C119.8 71.13 119.67 70.95 119.66 70.68C122.52 69.54 125.34 68.49 128.13 67.52C129.61 67 131.08 66.49 132.55 65.98C133.27 65.74 133.99 65.48 134.72 65.23C135.43 64.98 136.14 64.74 136.86 64.49C139.69 63.53 142.47 62.62 145.21 61.84C147.95 61.05 150.67 60.39 153.35 59.9C151.28 60.35 149.2 60.89 147.08 61.55C144.96 62.2 142.82 62.93 140.64 63.71C138.47 64.49 136.26 65.33 133.99 66.18L132.27 66.82L131.41 67.13C131.12 67.24 130.84 67.35 130.54 67.45C129.41 67.86 128.28 68.26 127.15 68.67C122.78 70.26 118.36 71.93 113.84 73.61C109.32 75.29 104.69 76.97 99.87 78.53C99.67 78.6 99.4 78.67 99.12 78.77C98.83 78.86 98.52 78.97 98.19 79.07C97.57 79.26 96.94 79.45 96.53 79.59C94.72 79.42 93.17 79.42 91.83 79.62C91.17 79.71 90.55 79.86 90 80.04L89.94 80.05L89.86 80.09L89.7 80.15L89.4 80.26L88.96 80.43L88.84 80.48L88.81 80.49L88.8 80.49C88.81 80.49 88.81 80.48 88.82 80.48L88.83 80.47L88.81 80.48C88.78 80.49 88.76 80.51 88.75 80.52C88.47 80.01 88.08 79.39 87.64 78.79C87.2 78.18 86.71 77.58 86.36 77C86.18 76.72 86.05 76.44 85.99 76.15C85.96 76.02 85.95 75.87 85.95 75.74C85.95 75.62 85.97 75.49 86.04 75.36C86.16 75.1 86.44 74.84 86.94 74.57C87 74.54 87.06 74.5 87.13 74.47C87.16 74.45 87.2 74.43 87.23 74.42C87.27 74.4 87.3 74.39 87.33 74.37C87.46 74.31 87.6 74.25 87.74 74.2C87.89 74.15 88.05 74.09 88.22 74.04C88.39 73.99 88.57 73.94 88.76 73.89C88.59 73.46 88.23 72.61 88.04 72.18C87.6 72.2 87.18 72.21 86.75 72.2C86.33 72.19 85.91 72.17 85.51 72.14C85.11 72.1 84.71 72.04 84.31 72C84.2 71.99 84.1 71.97 84 71.97C83.89 71.96 83.79 71.95 83.69 71.94C83.59 71.93 83.49 71.92 83.39 71.91C83.3 71.91 83.2 71.9 83.1 71.89C82.32 71.81 81.61 71.78 80.96 71.69C80.63 71.65 80.32 71.6 80.02 71.52C79.73 71.45 79.46 71.36 79.2 71.25C78.71 70.95 78.28 70.59 77.97 70.17C77.89 70.07 77.82 69.96 77.75 69.85C77.71 69.79 77.69 69.74 77.65 69.68C77.63 69.65 77.62 69.62 77.61 69.59C77.6 69.56 77.59 69.52 77.57 69.49C77.54 69.34 77.5 69.2 77.48 69.03C77.47 68.87 77.46 68.7 77.47 68.53C77.5 67.83 77.76 67 78.35 66.12C78.5 65.91 78.67 65.68 78.86 65.46C78.96 65.35 79.07 65.24 79.17 65.13C79.22 65.07 79.28 65.02 79.34 64.96C79.41 64.9 79.49 64.83 79.56 64.77C80.16 64.25 80.7 63.86 81.11 63.54C81.16 63.5 81.23 63.46 81.27 63.42L81.42 63.31L81.49 63.26L81.55 63.21L81.68 63.11L81.71 63.09L81.77 63.05L81.87 62.99C81.94 62.94 82.01 62.9 82.07 62.86C82.21 62.77 82.35 62.68 82.49 62.6C83.04 62.27 83.62 61.94 84.19 61.66C84.77 61.37 85.34 61.1 85.92 60.85C86.21 60.73 86.5 60.61 86.79 60.5C86.93 60.45 87.07 60.39 87.22 60.33C87.36 60.28 87.5 60.23 87.64 60.17C87.78 60.12 87.92 60.06 88.06 60.01C88.2 59.96 88.34 59.91 88.48 59.87C88.62 59.82 88.76 59.77 88.9 59.73C89.03 59.69 89.17 59.64 89.3 59.59C89.85 59.41 90.36 59.25 90.88 59.09C91.38 58.93 91.88 58.78 92.39 58.62C92.92 58.47 93.44 58.31 93.98 58.14C98.25 56.87 102.79 55.52 106.94 53.56C109.99 52.23 113.07 50.89 116.24 49.7C117.83 49.11 119.44 48.56 121.08 48.08L121.68 47.91L122.25 47.76C122.63 47.66 123.02 47.55 123.39 47.46C123.78 47.36 124.18 47.26 124.56 47.17C124.96 47.07 125.35 47 125.75 46.9C127.97 46.47 130.24 45.85 132.57 45.18C134.9 44.51 137.3 43.78 139.76 43.09C142.22 42.4 144.76 41.77 147.35 41.3C149.94 40.83 152.6 40.54 155.24 40.54C155.72 40.51 156.24 40.45 156.77 40.37C157.28 40.3 157.82 40.2 158.36 40.1C159.43 39.89 160.53 39.65 161.55 39.45C162.57 39.24 163.52 39.08 164.32 39.03C165.12 38.99 165.77 39.05 166.21 39.33C166.81 39.57 167.18 39.92 167.39 40.36C167.61 40.79 167.68 41.31 167.68 41.86L166.71 42L165.73 42.13C165.07 42.22 164.41 42.3 163.75 42.38C162.38 42.54 161.02 42.7 159.66 42.88C158.96 42.96 158.27 43.05 157.56 43.14C157.22 43.18 156.84 43.24 156.48 43.3C156.11 43.36 155.75 43.42 155.38 43.47C153.92 43.71 152.49 43.97 151.07 44.26L150.41 44.37L149.75 44.5L148.45 44.74C148.23 44.79 148 44.83 147.79 44.87L147.14 45.01L145.84 45.27L144.56 45.56C144.13 45.65 143.7 45.75 143.27 45.85C142.43 46.05 141.57 46.24 140.73 46.45C137.36 47.26 134.04 48.1 130.77 48.83C134.04 48.29 137.35 47.52 140.72 46.7C142.41 46.29 144.11 45.87 145.82 45.45C146.7 45.24 147.56 45.04 148.43 44.84C148.87 44.74 149.31 44.64 149.75 44.55L150.41 44.4L151.07 44.26C152.51 44.02 153.95 43.82 155.41 43.65L156.51 43.54L157.05 43.48L157.33 43.45L157.59 43.43C158.29 43.37 158.99 43.32 159.68 43.28C161.06 43.18 162.43 43.11 163.76 43.03C165.1 42.95 166.41 42.87 167.72 42.76C167.7 43.72 167.69 44.73 168.18 45.57L168.56 45.51C169.35 45.37 170.06 45.33 170.69 45.22C171.11 45.45 171.48 45.69 171.84 45.91C172.2 46.13 172.57 46.34 172.93 46.53C173.1 46.63 173.29 46.72 173.45 46.82C173.63 46.91 173.8 47.01 173.95 47.1C174.28 47.3 174.56 47.52 174.78 47.79C175 48.07 175.15 48.39 175.2 48.77C175.23 48.96 175.23 49.16 175.21 49.39C175.19 49.6 175.15 49.82 175.08 50.05C175.04 50.16 175 50.28 174.95 50.4C174.9 50.51 174.85 50.62 174.8 50.74C174.75 50.86 174.68 50.97 174.61 51.09C174.58 51.15 174.54 51.2 174.52 51.26C174.48 51.32 174.45 51.38 174.41 51.43C174.34 51.54 174.26 51.65 174.17 51.76C174.13 51.82 174.1 51.87 174.05 51.92C174.02 51.98 173.97 52.03 173.93 52.08C173.85 52.18 173.76 52.28 173.66 52.39C173.58 52.5 173.5 52.59 173.41 52.69C173.06 52.99 172.69 53.33 172.29 53.67C171.93 54.02 171.57 54.34 171.28 54.64Z" fill="#CBA265" fill-opacity="1.000000" fill-rule="nonzero"/>
	<path id="Vector" d="M119.01 11.94C118.22 12.36 117.46 12.69 116.78 12.95C114.09 13.99 111.52 14.86 109.07 15.68C107.87 16.08 106.68 16.49 105.47 16.89C105.18 16.99 104.89 17.09 104.6 17.19C104.31 17.29 104.03 17.39 103.74 17.49C103.46 17.59 103.17 17.68 102.89 17.79C102.6 17.89 102.32 17.99 102.03 18.1C97.2 19.85 92.25 21.57 86.95 22.95C79.43 24.63 71.41 27.81 64.41 30.36C72.98 27.69 81.76 24.96 90.46 22.25C92.68 21.57 94.89 20.88 97.1 20.2C98.21 19.85 99.31 19.51 100.42 19.17C100.98 19 101.53 18.82 102.09 18.66C102.35 18.58 102.61 18.51 102.88 18.43C103.14 18.35 103.4 18.28 103.66 18.21C105.75 17.61 107.95 17.04 110.25 16.42C112.56 15.78 114.96 15.1 117.45 14.21C116.79 15.19 116 16.14 115.04 16.98C114.09 17.82 112.99 18.54 111.75 19.06C110.21 19.59 108.75 20.06 107.35 20.5C106.67 20.73 105.99 20.94 105.31 21.16C104.99 21.28 104.66 21.38 104.34 21.49C104 21.6 103.67 21.71 103.34 21.82C101.92 22.3 100.5 22.8 99.1 23.26C97.69 23.74 96.29 24.2 94.89 24.67C94.73 24.23 94.39 23.38 94.22 22.95C90.46 24.72 86.65 26.09 82.86 27.29C79.06 28.49 75.28 29.51 71.55 30.57C67.81 31.63 64.12 32.74 60.51 34.1C59.61 34.44 58.71 34.8 57.83 35.17C56.94 35.55 56.06 35.94 55.18 36.36C53.42 37.2 51.67 38.12 49.95 39.16C50.57 39.17 50.42 39.65 50.42 39.96C50.39 39.98 50.35 40 50.32 40.01C50.35 39.99 50.39 39.98 50.42 39.96C52.22 39.16 53.99 38.39 55.74 37.65C55.96 37.56 56.18 37.47 56.4 37.37C56.62 37.29 56.84 37.2 57.06 37.11C57.5 36.93 57.93 36.76 58.37 36.58C59.24 36.23 60.13 35.89 61.01 35.55C64.54 34.21 68.11 32.97 71.73 31.79C75.35 30.61 79.03 29.48 82.77 28.34C86.52 27.21 90.35 26.08 94.26 24.87C91.27 25.86 88.29 26.84 85.32 27.81C82.37 28.78 79.46 29.75 76.58 30.73C73.7 31.7 70.85 32.7 68.04 33.71C65.23 34.73 62.45 35.77 59.71 36.85C54.27 39 48.76 41.44 43.06 43.9C40.2 45.14 37.29 46.37 34.3 47.59C33.92 47.74 33.55 47.89 33.17 48.04L32.59 48.27L32 48.51C31.62 48.65 31.24 48.81 30.85 48.95C30.48 49.09 30.11 49.23 29.74 49.37C28.29 49.93 26.94 50.44 25.73 50.95C25.53 51.03 25.28 51.14 25 51.26C24.87 51.32 24.73 51.38 24.59 51.45C24.52 51.49 24.45 51.51 24.38 51.55C24.31 51.58 24.24 51.62 24.18 51.64C24.04 51.71 23.9 51.77 23.77 51.84C23.64 51.9 23.52 51.97 23.4 52.03C23.29 52.09 23.17 52.15 23.07 52.2C22.97 52.25 22.88 52.3 22.8 52.34L22.49 52.36C22.38 52.37 22.29 52.38 22.19 52.39L21.9 52.42C21.8 52.43 21.71 52.45 21.61 52.46C21.42 52.5 21.24 52.52 21.05 52.57C20.88 52.61 20.7 52.65 20.53 52.7C20.48 52.7 20.44 52.71 20.4 52.73L20.22 52.8C20.11 52.84 19.99 52.89 19.88 52.94L19.52 53.1C19.41 53.15 19.29 53.21 19.17 53.26C18.7 53.48 18.21 53.73 17.72 54C17.23 54.26 16.72 54.55 16.2 54.85L14.59 55.8C14.04 56.12 13.47 56.46 12.88 56.79C12.73 56.88 12.59 56.96 12.43 57.05L11.96 57.31C11.51 57.56 11.22 57.7 11.07 57.78C11.04 57.63 11 57.48 10.93 57.33C10.87 57.18 10.81 57.02 10.72 56.87C10.64 56.71 10.54 56.57 10.44 56.41C10.34 56.26 10.23 56.11 10.12 55.95C9.67 55.34 9.21 54.72 8.9 54.12C8.83 53.96 8.76 53.82 8.73 53.66C8.69 53.51 8.67 53.35 8.68 53.2C8.7 53.04 8.74 52.88 8.84 52.7C8.89 52.61 8.95 52.52 9.02 52.41C9.03 52.39 9.05 52.36 9.07 52.34C9.09 52.32 9.1 52.3 9.11 52.28C9.15 52.23 9.18 52.18 9.22 52.14C9.82 51.39 10.99 50.54 12.92 49.46C12.64 49.08 12.09 48.33 11.8 47.96C10.75 48.35 9.71 48.63 8.74 48.76C8.25 48.83 7.78 48.87 7.33 48.87C7.21 48.87 7.11 48.87 6.99 48.87C6.89 48.86 6.79 48.85 6.69 48.84C6.58 48.83 6.48 48.82 6.37 48.81C6.32 48.8 6.26 48.8 6.21 48.79C6.16 48.78 6.1 48.78 6.04 48.77C5.82 48.75 5.59 48.74 5.35 48.74C5.12 48.73 4.89 48.72 4.68 48.71C4.25 48.7 3.85 48.7 3.49 48.69C3.4 48.69 3.3 48.69 3.22 48.69C3.13 48.69 3.05 48.68 2.97 48.68C2.81 48.67 2.64 48.66 2.49 48.64C2.19 48.61 1.92 48.55 1.67 48.45C1.13 48.17 0.71 47.81 0.41 47.37C0.33 47.25 0.27 47.13 0.21 47.01C0.18 46.95 0.15 46.89 0.13 46.83C0.12 46.79 0.1 46.77 0.09 46.73C0.08 46.7 0.07 46.65 0.07 46.61C0.03 46.46 0 46.29 0 46.11C0 45.93 0 45.74 0.02 45.54C0.08 45.15 0.21 44.71 0.46 44.25C0.7 43.78 1.05 43.3 1.5 42.82C1.61 42.7 1.79 42.54 1.93 42.41C1.99 42.35 2.05 42.29 2.12 42.23L2.18 42.19L2.2 42.16L2.22 42.15C2.25 42.12 2.27 42.1 2.29 42.07C2.51 41.86 2.62 41.72 2.63 41.62L2.63 41.58L2.63 41.56C2.62 41.56 2.63 41.56 2.67 41.62L2.81 41.85L2.88 41.97C3.16 42.44 2.58 41.46 2.63 41.55L2.64 41.54C2.67 41.51 2.69 41.47 2.71 41.44C2.76 41.37 2.82 41.3 2.87 41.22C2.98 41.08 3.1 40.93 3.23 40.78C3.85 40.13 4.58 39.41 5.47 38.6C5.92 38.2 6.41 37.78 6.96 37.33C7.1 37.22 7.23 37.11 7.37 37C7.51 36.89 7.66 36.77 7.8 36.66C7.95 36.54 8.1 36.42 8.26 36.3L8.32 36.26L8.39 36.21L8.54 36.11C8.64 36.04 8.74 35.97 8.84 35.89C10.42 34.76 12.09 33.79 13.76 32.98C13.86 32.93 13.97 32.88 14.06 32.83L14.37 32.68C14.57 32.59 14.79 32.49 14.99 32.39C15.4 32.2 15.81 32.03 16.22 31.85C16.62 31.69 17.03 31.51 17.42 31.35C17.63 31.27 17.82 31.2 18.02 31.12L18.32 31L18.61 30.89C20.18 30.3 21.66 29.78 23.04 29.3C23.39 29.18 23.72 29.06 24.06 28.94C24.39 28.82 24.71 28.7 25.05 28.58C25.73 28.32 26.41 28.06 27.1 27.79C29.83 26.71 32.56 25.52 35.19 24.16C39.05 22.29 42.98 20.38 47.08 18.67C47.6 18.46 48.11 18.24 48.63 18.04C49.15 17.83 49.68 17.62 50.2 17.43C50.73 17.23 51.26 17.03 51.79 16.84C52.31 16.65 52.84 16.47 53.37 16.29C54.43 15.92 55.5 15.59 56.56 15.28C57.63 14.96 58.71 14.68 59.79 14.41C62.77 13.71 65.76 12.9 68.73 12.07C71.71 11.23 74.69 10.34 77.64 9.47C80.59 8.59 83.53 7.73 86.43 6.91C87.16 6.72 87.88 6.52 88.6 6.32C89.33 6.13 90.05 5.95 90.77 5.76C91.48 5.57 92.2 5.39 92.91 5.23C93.27 5.14 93.63 5.06 93.99 4.97C94.34 4.88 94.7 4.81 95.05 4.72C95.31 4.65 95.57 4.57 95.83 4.48C95.96 4.44 96.11 4.39 96.25 4.34C96.32 4.31 96.39 4.28 96.47 4.26C96.55 4.23 96.62 4.2 96.69 4.17C97 4.05 97.31 3.93 97.63 3.8C97.78 3.74 97.94 3.68 98.1 3.61C98.26 3.54 98.42 3.47 98.58 3.41C99.84 2.87 101.11 2.28 102.28 1.75C103.45 1.22 104.51 0.74 105.43 0.41C106.33 0.09 107.09 -0.08 107.66 0.03C108.41 0.03 108.91 0.24 109.27 0.57C109.63 0.92 109.86 1.39 110.03 1.92C107.18 3.32 104.02 4.5 100.71 5.73C99.88 6.05 99.03 6.36 98.2 6.67C97.78 6.83 97.37 6.99 96.95 7.15C96.55 7.3 96.14 7.45 95.74 7.6C95.33 7.75 94.93 7.9 94.52 8.05C94.12 8.2 93.71 8.35 93.31 8.49C92.5 8.78 91.69 9.07 90.87 9.35C82.77 11.84 74.5 13.99 66.01 16C70.22 15.19 74.39 14.23 78.55 13.12C82.69 12 86.8 10.74 90.87 9.35C91.7 9.1 92.52 8.83 93.34 8.58L94.57 8.18L95.79 7.78L97.01 7.38L97.63 7.17L98.27 6.96C99.12 6.67 99.97 6.4 100.8 6.13C104.13 5.05 107.32 4.04 110.28 2.79C110.53 3.74 110.77 4.71 111.58 5.34C111.58 5.34 111.7 5.28 111.89 5.18C112.07 5.07 112.35 4.94 112.62 4.79C112.89 4.64 113.19 4.46 113.46 4.28C113.73 4.11 113.97 3.93 114.16 3.79C115.28 3.65 116.25 3.52 117.1 3.54C117.32 3.54 117.52 3.56 117.72 3.58C117.91 3.61 118.11 3.64 118.28 3.69C118.64 3.79 118.98 3.93 119.27 4.13C119.56 4.33 119.82 4.58 120.03 4.88C120.25 5.18 120.43 5.52 120.54 5.91C120.6 6.11 120.66 6.31 120.68 6.54C120.72 6.75 120.74 6.98 120.74 7.22C120.74 7.46 120.73 7.7 120.7 7.96C120.68 8.09 120.67 8.22 120.65 8.35C120.62 8.47 120.6 8.6 120.57 8.73C120.49 8.98 120.39 9.23 120.29 9.49C120.18 9.75 120.07 10.02 119.94 10.29C119.63 10.86 119.34 11.4 119.01 11.94Z" fill="#CBA265" fill-opacity="1.000000" fill-rule="nonzero"/>
	<path id="Vector" d="M181.01 56.4C180.68 56.13 180.36 55.87 180.04 55.61C176.99 53.35 173.69 51.53 170.25 49.73C166.81 47.93 163.23 46.16 159.6 43.99C154.63 40.7 148.27 38.32 142.88 35.82C149.08 39.17 155.58 42.25 161.85 45.59C168.11 48.93 174.16 52.53 179.38 56.86C177.67 57.25 175.84 57.34 174.16 56.54C170.31 54.23 166.41 52.08 162.47 50.05C162.67 49.63 163.08 48.8 163.28 48.39C157.25 46.38 151.92 43.33 146.53 40.34C145.18 39.59 143.83 38.85 142.46 38.13C142.12 37.95 141.78 37.77 141.44 37.6C141.11 37.43 140.78 37.26 140.44 37.1C139.77 36.78 139.11 36.45 138.42 36.15C135.68 34.92 132.77 33.91 129.61 33.18C129.92 33.59 129.52 33.83 129.31 34.07C129.28 34.06 129.26 34.04 129.22 34.03C129.25 34.04 129.27 34.06 129.31 34.07C129.13 34.27 129.09 34.48 129.81 34.79C129.09 34.48 129.12 34.27 129.31 34.07C132.23 35.19 135.03 36.32 137.72 37.51C138.05 37.66 138.38 37.81 138.72 37.96C139.05 38.11 139.38 38.26 139.71 38.41C140.04 38.57 140.36 38.72 140.7 38.87C141.04 39.04 141.38 39.2 141.73 39.36C143.1 40.02 144.46 40.68 145.82 41.35C151.26 44.03 156.6 46.83 162.04 49.82C157.76 47.61 153.46 45.54 149.11 43.51C148.02 43 146.94 42.5 145.85 42C144.76 41.51 143.67 41 142.58 40.5L140.93 39.76L139.36 39.05C138.32 38.58 137.27 38.13 136.2 37.68C131.95 35.86 127.49 34.1 122.89 32.17L122.67 32.07L122.42 31.97L121.93 31.75C121.61 31.61 121.29 31.46 120.96 31.33C120.33 31.03 119.71 30.74 119.09 30.44C117.87 29.85 116.69 29.24 115.56 28.65C113.29 27.46 111.19 26.31 109.2 25.29C109 25.18 108.75 25.05 108.48 24.92C108.2 24.77 107.89 24.61 107.58 24.45C106.97 24.12 106.36 23.79 105.95 23.56C104.69 22.06 103.36 20.76 101.98 19.59C101.64 19.3 101.29 19 100.93 18.73C100.76 18.59 100.58 18.46 100.41 18.32L99.9 17.94C99.6 17.71 99.18 17.44 98.65 17.06L98.23 16.76L98.11 16.67L98 16.59L97.76 16.42L97.32 16.07C97.18 15.95 97.04 15.84 96.9 15.72C97.57 15.52 97.95 14.89 98.34 14.23C98.72 13.56 99.1 12.86 99.61 12.42C99.86 12.18 100.13 12.02 100.46 11.94C100.62 11.89 100.79 11.88 100.98 11.88C101.07 11.88 101.16 11.88 101.27 11.89C101.36 11.91 101.48 11.93 101.58 11.95C102.02 12.06 102.5 12.23 103.01 12.49C103.13 12.55 103.26 12.63 103.4 12.71C103.52 12.78 103.66 12.88 103.81 12.97C104.1 13.17 104.41 13.41 104.74 13.68C105 13.29 105.5 12.51 105.75 12.12C105.19 11.43 104.72 10.72 104.35 10.01C104.17 9.66 104.02 9.3 103.92 8.95C103.83 8.61 103.77 8.27 103.76 7.93C103.73 7.27 103.87 6.63 104.11 6.07C104.17 5.93 104.23 5.79 104.31 5.66C104.38 5.53 104.46 5.4 104.54 5.28C104.71 5.03 104.88 4.81 105.07 4.61C105.38 4.16 105.77 3.8 106.2 3.53C106.31 3.46 106.42 3.4 106.54 3.35C106.6 3.32 106.65 3.3 106.71 3.27C106.74 3.26 106.77 3.25 106.8 3.24C106.83 3.22 106.85 3.2 106.88 3.2C107.08 3.08 107.28 2.96 107.48 2.85C107.88 2.64 108.25 2.45 108.58 2.27C108.75 2.18 108.9 2.09 109.04 2C109.12 1.97 109.13 1.89 109.23 1.87C109.24 1.86 109.26 1.85 109.29 1.85C109.31 1.85 109.34 1.85 109.37 1.84C109.39 1.84 109.42 1.84 109.45 1.84C109.49 1.85 109.52 1.85 109.56 1.86C109.71 1.89 109.93 1.95 110.16 2.04C110.28 2.08 110.41 2.14 110.54 2.19C110.65 2.24 110.76 2.28 110.88 2.31C111.32 2.48 111.76 2.66 112.2 2.85C113.08 3.24 113.95 3.66 114.83 4.1C115.71 4.55 116.59 5.02 117.47 5.51C117.91 5.75 118.36 5.99 118.82 6.24C119.07 6.37 119.31 6.5 119.56 6.64C119.83 6.79 120.11 6.94 120.38 7.09C122.57 8.31 124.62 9.55 126.57 10.61C127.55 11.13 128.51 11.62 129.44 12.03C129.67 12.13 129.91 12.23 130.14 12.32C130.36 12.42 130.59 12.5 130.83 12.59C131.06 12.67 131.29 12.75 131.52 12.83C131.65 12.87 131.77 12.91 131.9 12.96C132.03 13 132.18 13.04 132.31 13.08C135.41 14.19 138.6 15.28 141.79 16.59C143.38 17.24 144.97 17.95 146.54 18.74C147.34 19.13 148.11 19.55 148.89 19.99L149.47 20.32L149.76 20.5L150.03 20.66C150.4 20.87 150.75 21.1 151.11 21.33C158.86 26.45 168.33 30.19 176.01 35.82C177.45 36.75 179.68 37.54 181.66 38.35C183.64 39.16 185.38 40 185.84 40.99C186.64 42.12 186.24 43.02 185.57 43.93C184.33 43.28 183.08 42.65 181.84 42.02C180.59 41.39 179.35 40.77 178.1 40.15C175.62 38.92 173.14 37.69 170.68 36.45C164.78 33.16 158.91 29.86 153.23 26.24C158.62 30.12 164.55 33.35 170.68 36.45C173.08 37.79 175.48 39.12 177.87 40.49C179.07 41.16 180.27 41.85 181.45 42.54C182.64 43.24 183.83 43.93 185.02 44.65C184.4 45.4 183.78 46.21 183.66 47.17C183.66 47.17 184.04 47.36 184.51 47.58C184.99 47.81 185.56 48.09 185.94 48.27C187.91 51.84 185.62 54.34 183.06 55.67C182.4 55.9 181.73 56.16 181.01 56.4Z" fill="#CBA265" fill-opacity="1.000000" fill-rule="nonzero"/>
	<path id="Vector" d="M171.78 102.74C171.85 102.45 171.92 102.16 171.98 101.88C172.41 99.24 172.36 96.65 172.27 94C172.18 91.35 172.04 88.63 172.25 85.74C172.54 83.7 172.48 81.55 172.3 79.4C172.21 78.33 172.11 77.26 171.99 76.21C171.94 75.69 171.89 75.16 171.83 74.65C171.81 74.39 171.79 74.13 171.76 73.89C171.75 73.64 171.73 73.39 171.7 73.15C171.69 73.44 171.69 73.73 171.68 74.02C171.68 74.32 171.68 74.62 171.68 74.92C171.68 75.52 171.68 76.12 171.68 76.73C171.68 77.94 171.71 79.15 171.74 80.36C171.79 82.78 171.86 85.21 171.87 87.63C171.88 92.48 171.65 97.3 170.52 102.02C169.31 101.23 168.3 100.22 168.16 98.93C168.26 95.8 168.26 92.72 168.18 89.67C168.65 89.63 169.58 89.54 170.06 89.5C168.94 85.27 169.17 81.05 169.33 76.85C169.35 76.33 169.36 75.81 169.38 75.27L169.4 74.49L169.41 73.71C169.42 72.7 169.39 71.68 169.31 70.66C169.15 68.6 168.78 66.53 168.03 64.43C167.8 64.75 167.39 64.6 167.09 64.56C166.81 64.52 166.61 64.56 166.65 65.1C166.6 64.57 166.81 64.52 167.09 64.56C167.36 66.66 167.59 68.71 167.75 70.72C167.82 71.74 167.89 72.73 167.94 73.72C167.96 74.21 167.99 74.73 168.01 75.25C168.03 75.76 168.04 76.28 168.06 76.79C168.19 80.91 168.2 85.03 168.15 89.31C168.06 86.01 167.88 82.74 167.66 79.48C167.54 77.85 167.43 76.23 167.3 74.6L167.2 73.41L167.1 72.24C167.03 71.46 166.96 70.66 166.88 69.88C166.58 66.71 166.22 63.47 165.93 60.13C165.78 58.45 165.65 56.76 165.55 55.04C165.52 54.61 165.5 54.17 165.48 53.74C165.46 53.31 165.44 52.87 165.41 52.43C165.4 51.99 165.39 51.55 165.37 51.11C165.36 50.9 165.36 50.68 165.35 50.46C165.34 50.25 165.34 50.04 165.34 49.83C165.33 49.27 165.3 48.15 165.28 47.58C165.97 46.47 166.41 45.38 166.66 44.31C166.72 44.04 166.78 43.78 166.81 43.52C166.83 43.39 166.85 43.29 166.87 43.15C166.88 43.02 166.89 42.89 166.9 42.74C166.94 42.16 166.92 41.39 166.92 40.47C167.51 40.7 168.26 40.63 169.02 40.55C169.79 40.45 170.58 40.34 171.25 40.4C171.94 40.45 172.51 40.68 172.87 41.16C173.06 41.4 173.19 41.72 173.25 42.1C173.28 42.29 173.3 42.5 173.29 42.72C173.29 42.83 173.28 42.95 173.28 43.08C173.27 43.2 173.25 43.34 173.22 43.48C173.7 43.45 174.65 43.41 175.12 43.39C175.25 43.1 175.4 42.83 175.57 42.55C175.74 42.28 175.91 42.02 176.11 41.77C176.49 41.28 176.94 40.85 177.44 40.54C177.93 40.22 178.47 40.01 179.02 39.89C179.57 39.76 180.13 39.71 180.69 39.72C181.25 39.69 181.8 39.72 182.31 39.84C182.44 39.86 182.56 39.9 182.68 39.93C182.75 39.95 182.81 39.96 182.87 39.99C182.9 40 182.93 40.01 182.96 40.02C182.98 40.03 183.02 40.04 183.05 40.04C183.29 40.09 183.53 40.15 183.75 40.2C183.98 40.26 184.19 40.32 184.4 40.36C184.45 40.37 184.5 40.38 184.55 40.39C184.59 40.4 184.65 40.42 184.7 40.43C184.75 40.43 184.8 40.44 184.84 40.46C184.88 40.47 184.93 40.49 184.98 40.5C185.07 40.53 185.16 40.56 185.24 40.59C185.29 40.61 185.33 40.63 185.37 40.65C185.41 40.67 185.45 40.69 185.49 40.72C185.65 40.81 185.79 40.96 185.92 41.16C186.05 41.39 186.18 41.69 186.29 42.05C186.34 42.22 186.4 42.45 186.45 42.62C186.49 42.8 186.55 42.99 186.58 43.18C186.75 43.92 186.86 44.68 186.93 45.45C187.08 46.98 187.08 48.54 187.06 50.07C187.05 50.44 187.05 50.81 187.04 51.18C187.03 51.55 187.03 51.92 187.02 52.29C187.01 53.04 187.02 53.79 187.05 54.56C187.11 56.07 187.26 57.6 187.59 59.1C187.98 61.28 188.38 63.48 188.62 65.74C188.86 67.99 188.92 70.3 188.61 72.65C188.59 72.85 188.55 73.05 188.52 73.24C188.5 73.44 188.47 73.63 188.44 73.83C188.4 74.22 188.36 74.61 188.32 75C188.25 75.79 188.21 76.58 188.18 77.38C188.12 78.98 188.12 80.59 188.11 82.2C188.09 85.43 188.04 88.66 187.41 91.82C187.16 94.11 189 97.87 187.71 99.14C187.12 100.01 186.11 100.15 184.98 100.15C184.73 96.44 184.4 92.75 184.25 89.1C184.35 84.6 184.55 80.09 185.16 75.58C184.18 80.02 184.07 84.54 184.25 89.1C184.17 92.77 184.16 96.44 184.07 100.13C183.09 100.1 182.07 100.08 181.16 100.4C181.16 100.4 181.29 101.52 181.36 102.08C179.26 104.6 175.89 104.4 173.4 103.52C172.93 103.32 172.36 103.05 171.78 102.74Z" fill="#CBA265" fill-opacity="1.000000" fill-rule="nonzero"/>
</svg>
