<svg width="118.000000" height="24.000000" viewBox="0 0 118 24" fill="none" xmlns="http://www.w3.org/2000/svg" xmlns:xlink="http://www.w3.org/1999/xlink">
	<desc>
			Created with Pixso.
	</desc>
	<defs>
		<clipPath id="clip8_8601">
			<rect id="delivery" width="117.830772" height="24.000000" fill="white" fill-opacity="0"/>
		</clipPath>
	</defs>
	<rect id="delivery" width="117.830772" height="24.000000" fill="#FFFFFF" fill-opacity="0"/>
	<g clip-path="url(#clip8_8601)">
		<path id="Vector" d="M22.15 11.07C22.15 17.19 17.19 22.15 11.07 22.15C4.95 22.15 0 17.19 0 11.07C0 4.95 4.95 0 11.07 0C17.19 0 22.15 4.95 22.15 11.07Z" fill="#FC3F1D" fill-opacity="1.000000" fill-rule="evenodd"/>
		<path id="Vector" d="M12.55 6.27L11.53 6.27C9.64 6.27 8.67 7.24 8.67 8.63C8.67 10.19 9.36 10.93 10.75 11.9L11.9 12.69L8.58 17.67L6.09 17.67L9.09 13.24C7.38 12 6.41 10.79 6.41 8.81C6.41 6.27 8.16 4.56 11.53 4.56L14.86 4.56L14.86 17.72L12.55 17.72L12.55 6.27Z" fill="#FFFFFF" fill-opacity="1.000000" fill-rule="nonzero"/>
		<path id="Vector" d="M29.76 22.8L29.76 19.33L38.12 19.33L38.12 22.8L40.84 22.8L40.84 17.07L39.27 17.07L39.27 2.67L29.58 2.67L29.35 9.55C29.21 13.47 28.93 15.78 28.15 17.07L27.09 17.07L27.09 22.8L29.76 22.8ZM31.89 9.92L32.07 4.93L36.41 4.93L36.41 17.07L30.87 17.07C31.38 15.92 31.75 13.84 31.89 9.92ZM47.02 7.01C43.89 7.01 41.72 9.23 41.72 13.29C41.72 17.3 43.89 19.57 47.02 19.57C50.16 19.57 52.38 17.35 52.38 13.29C52.38 9.27 50.16 7.01 47.02 7.01ZM47.02 17.3C45.46 17.3 44.67 16.06 44.67 13.29C44.67 10.47 45.46 9.27 47.02 9.27C48.59 9.27 49.42 10.47 49.42 13.29C49.42 16.1 48.64 17.3 47.02 17.3ZM59.49 19.57C60.83 19.57 61.75 19.33 62.44 18.83L62.44 16.52C61.7 17.03 60.87 17.35 59.67 17.35C57.64 17.35 56.81 15.78 56.81 13.29C56.81 10.66 57.83 9.32 59.72 9.32C60.83 9.32 61.89 9.69 62.49 10.06L62.49 7.66C61.89 7.33 60.83 7.1 59.4 7.1C55.75 7.1 53.86 9.74 53.86 13.38C53.81 17.35 55.66 19.57 59.49 19.57ZM73.19 9.5L73.19 7.24L63.64 7.24L63.64 9.5L67.01 9.5L67.01 19.33L69.87 19.33L69.87 9.5L73.19 9.5ZM83.16 11.12C83.16 8.21 81.69 7.1 78.64 7.1C76.75 7.1 75.27 7.7 74.4 8.21L74.4 10.61C75.18 10.06 76.84 9.41 78.32 9.41C79.7 9.41 80.3 9.87 80.3 11.16L80.3 11.86L79.84 11.86C75.46 11.86 73.52 13.29 73.52 15.74C73.52 18.18 75 19.57 77.21 19.57C78.87 19.57 79.61 19.01 80.16 18.46L80.3 18.46C80.35 18.78 80.44 19.2 80.53 19.43L83.3 19.43C83.21 18.46 83.16 17.44 83.16 16.47L83.16 11.12ZM80.35 16.47C79.98 16.98 79.33 17.44 78.32 17.44C77.12 17.44 76.52 16.7 76.52 15.64C76.52 14.21 77.49 13.7 79.93 13.7L80.35 13.7L80.35 16.47ZM90.23 19.33C93.04 19.33 94.75 18.13 94.75 15.83C94.75 14.26 93.78 13.33 92.16 13.06C93.46 12.69 94.29 11.76 94.29 10.33C94.29 8.26 92.9 7.24 90.27 7.24L85.47 7.24L85.47 19.33L90.23 19.33ZM89.86 9.41C90.87 9.41 91.47 9.83 91.47 10.75C91.47 11.58 90.87 12.09 89.76 12.09L88.33 12.09L88.33 9.41L89.86 9.41ZM89.95 14.21C91.15 14.21 91.79 14.63 91.79 15.64C91.79 16.75 91.06 17.16 89.95 17.16L88.38 17.16L88.38 14.21L89.95 14.21ZM103.75 19.33L106.98 19.33L102.41 12.83L106.43 7.24L103.56 7.24L99.55 12.83L99.55 7.24L96.69 7.24L96.69 19.33L99.55 19.33L99.55 13.38L103.75 19.33ZM116.72 11.12C116.72 8.21 115.24 7.1 112.19 7.1C110.3 7.1 108.83 7.7 107.95 8.21L107.95 10.61C108.73 10.06 110.4 9.41 111.87 9.41C113.26 9.41 113.86 9.87 113.86 11.16L113.86 11.86L113.4 11.86C109.01 11.86 107.07 13.29 107.07 15.74C107.07 18.18 108.55 19.57 110.77 19.57C112.43 19.57 113.16 19.01 113.72 18.46L113.86 18.46C113.9 18.78 114 19.2 114.09 19.43L116.86 19.43C116.77 18.46 116.72 17.44 116.72 16.47L116.72 11.12ZM113.86 16.47C113.49 16.98 112.84 17.44 111.83 17.44C110.63 17.44 110.02 16.7 110.02 15.64C110.02 14.21 111 13.7 113.44 13.7L113.86 13.7L113.86 16.47Z" fill="#000000" fill-opacity="1.000000" fill-rule="nonzero"/>
	</g>
</svg>
