<svg width="73.000000" height="21.000000" viewBox="0 0 73 21" fill="none" xmlns="http://www.w3.org/2000/svg" xmlns:xlink="http://www.w3.org/1999/xlink">
	<desc>
			Created with Pixso.
	</desc>
	<defs/>
	<path id="Vector" d="M10.63 15.1L7.43 15.1C2.43 15.1 6.06 4.49 10.27 4.49L15.33 4.49C16.14 4.49 17.57 4.64 18.28 2.63L19.36 -0.48L12.43 -0.48C8.67 -0.48 5.74 0.84 3.63 3.06C-0.02 6.86 -1.26 12.8 -0.38 15.64C0.45 18.26 2.71 19.99 6.25 20.03L9.01 20.06L12.41 20.06L13.24 17.56C13.86 15.79 12.47 15.1 10.63 15.1ZM49.62 10.7L50.66 7.31L39.5 7.31C37.64 7.31 36.81 7.82 36.49 8.89L35.44 12.28L46.61 12.28C48.46 12.28 49.3 11.77 49.62 10.7ZM33.78 16.68L32.73 20.08L43.9 20.08C45.73 20.08 46.59 19.56 46.91 18.5L47.95 15.1L36.79 15.1C34.95 15.1 34.12 15.61 33.78 16.68ZM52.22 2.93L53.27 -0.46L42.1 -0.46C40.25 -0.46 39.41 0.05 39.09 1.12L38.05 4.51L49.21 4.51C51.05 4.51 51.88 4 52.22 2.93ZM35.36 3.62C34.89 0.46 33.2 -0.46 29.1 -0.46L21.63 -0.46L17.27 12.28L20.03 12.28C21.67 12.28 22.5 12.31 23.38 9.96L25.19 4.49L27.97 4.49C30.34 4.49 29.81 7.46 28.61 10.34C27.54 12.88 25.68 15.12 23.44 15.12L18.81 15.12C16.95 15.12 16.1 15.64 15.76 16.7L14.6 20.1L18 20.1L21.33 20.08C24.27 20.06 26.69 19.84 29.51 17.3C32.5 14.59 35.95 7.63 35.36 3.62ZM72.89 -0.48L66.42 -0.48L60.33 5.99C59.63 6.73 58.91 7.48 58.2 8.36L58.14 8.36L61.17 -0.48L55.9 -0.48L48.78 20.08L54.06 20.08L56.32 13.61L58.67 11.62L60.53 17.47C61.1 19.29 61.7 20.08 62.98 20.08L67.02 20.08L62.88 8.59L72.89 -0.48Z" fill="#00B33C" fill-opacity="1.000000" fill-rule="evenodd"/>
</svg>
