<svg width="169" height="199" viewBox="0 0 169 199" fill="none" xmlns="http://www.w3.org/2000/svg">
<path d="M128.992 47.0692C129.343 49.8266 129.707 52.5979 130.099 55.3415C130.922 60.891 131.834 66.4613 132.779 72.0524C133.724 77.6504 134.696 83.2276 135.736 88.7771C136.769 94.3336 137.883 99.8623 139.105 105.37C140.32 110.878 141.67 116.351 143.162 121.797L143.439 122.816L143.729 123.834C143.925 124.513 144.114 125.192 144.31 125.871C144.708 127.229 145.113 128.587 145.532 129.938C146.369 132.654 147.246 135.363 148.165 138.085C149.076 140.801 150.035 143.524 151.013 146.254C151.506 147.619 152.006 148.983 152.512 150.348L152.701 150.861L152.89 151.367C153.012 151.699 153.14 152.032 153.262 152.364C153.39 152.697 153.518 153.03 153.646 153.362C153.775 153.695 153.903 154.027 154.038 154.367C154.558 155.704 155.105 157.062 155.658 158.42C156.225 159.819 156.799 161.219 157.366 162.618C158.257 164.801 159.142 167.011 159.979 169.207C160.384 170.302 160.789 171.403 161.194 172.505L161.498 173.329L161.646 173.738C161.7 173.877 161.741 174.008 161.788 174.147C161.97 174.694 162.146 175.235 162.328 175.782C162.429 176.059 162.49 176.322 162.558 176.586L162.767 177.382L162.976 178.179C162.997 178.248 163.003 178.311 163.017 178.373L163.051 178.56L163.118 178.941L163.253 179.696L163.321 180.077C163.341 180.202 163.368 180.334 163.381 180.451C163.449 180.936 163.503 181.394 163.543 181.844C163.631 182.745 163.658 183.59 163.645 184.407C163.631 185.232 163.564 186.022 163.429 186.812C163.294 187.601 163.098 188.384 162.76 189.188C162.591 189.59 162.375 189.992 162.112 190.393C161.977 190.587 161.829 190.781 161.673 190.969C161.511 191.156 161.343 191.329 161.16 191.495C160.796 191.821 160.411 192.091 160.026 192.306C159.641 192.52 159.256 192.68 158.878 192.811C158.122 193.068 157.386 193.199 156.644 193.289C156.428 193.31 156.212 193.324 155.996 193.345L155.672 193.366C155.564 193.373 155.456 193.38 155.341 193.38C154.895 193.393 154.443 193.4 153.964 193.386C153.491 193.38 152.992 193.359 152.458 193.324L152.256 193.31L152.046 193.296L151.628 193.262L151.209 193.227L150.777 193.172L150.345 193.116L150.129 193.089L149.906 193.047L149.002 192.881C148.691 192.811 148.381 192.735 148.07 192.666L147.84 192.611L147.604 192.541L147.132 192.41L146.659 192.278L146.18 192.126L145.7 191.973L145.457 191.897L145.214 191.814C144.89 191.703 144.573 191.592 144.249 191.481C143.932 191.377 143.608 191.273 143.29 191.169C142.014 190.761 140.732 190.352 139.449 189.922C138.166 189.493 136.89 189.056 135.608 188.606C135.29 188.495 134.966 188.384 134.649 188.273L133.812 187.976C133.4 187.823 132.982 187.678 132.57 187.525C131.739 187.22 130.909 186.922 130.079 186.618C121.863 183.541 113.417 180.368 104.83 177.223C100.536 175.65 96.2087 174.091 91.8476 172.553C87.4662 171.008 83.105 169.47 78.7439 168.043C76.5633 167.329 74.3827 166.644 72.2021 165.992C70.0283 165.341 67.8275 164.731 65.6131 164.135C61.1845 162.951 56.695 161.856 52.1854 160.741C49.944 160.186 47.7027 159.625 45.4748 159.078C44.928 158.946 44.3812 158.815 43.8344 158.683C43.2943 158.558 42.7474 158.427 42.2141 158.309C41.674 158.184 41.1407 158.073 40.6074 157.955C40.3441 157.9 40.074 157.845 39.8107 157.789C39.5475 157.734 39.2774 157.678 39.0141 157.63C37.9542 157.415 36.9146 157.242 35.8749 157.076C34.842 156.916 33.8158 156.785 32.8032 156.674C32.5534 156.653 32.2969 156.625 32.0471 156.604L31.6623 156.57L31.2505 156.535C30.7171 156.494 30.2446 156.459 29.853 156.452C29.4614 156.445 29.1374 156.452 28.8673 156.48C28.5973 156.508 28.3678 156.549 28.1315 156.604L27.9695 151.138C27.8952 151.11 27.8817 151.124 27.9492 151.117C28.0167 151.117 28.1652 151.103 28.3678 151.034C28.4285 151.02 28.4825 151 28.5365 150.972C28.6041 150.951 28.6716 150.923 28.7323 150.889C28.7593 150.875 28.7998 150.854 28.8403 150.84C28.8741 150.819 28.9146 150.806 28.9484 150.785L29.0024 150.757L29.0294 150.743L29.0631 150.729C29.1036 150.709 29.1441 150.688 29.1846 150.66C29.5087 150.473 29.8665 150.231 30.3053 149.891C30.3998 149.815 30.5281 149.718 30.6429 149.628C30.6969 149.579 30.7576 149.531 30.8116 149.482L30.8521 149.448L30.8994 149.406L30.9939 149.323C31.0547 149.267 31.1222 149.212 31.1829 149.157L31.372 148.983C31.5137 148.859 31.6555 148.727 31.7905 148.602L31.8445 148.658C31.8783 148.692 31.9323 148.741 31.9998 148.803L32.2429 149.025L32.6142 149.358C32.6952 149.434 32.7762 149.503 32.8572 149.579L33.0597 149.773L33.3298 150.03L33.5998 150.279C33.9644 150.612 34.3289 150.937 34.7002 151.242C35.0715 151.547 35.4428 151.845 35.8276 152.129C36.0167 152.274 36.2057 152.406 36.3947 152.545C36.5838 152.676 36.7795 152.815 36.9686 152.939C37.3534 153.196 37.7449 153.438 38.1365 153.667L38.4335 153.833L38.7306 153.999C38.8318 154.055 38.9264 154.103 39.0276 154.159C39.1289 154.207 39.2234 154.263 39.3314 154.318C39.2234 154.263 39.1289 154.207 39.0209 154.159C38.9196 154.103 38.8183 154.055 38.7238 153.993L38.4268 153.826L38.1297 153.653C37.7382 153.418 37.3466 153.168 36.9618 152.905C36.766 152.773 36.577 152.635 36.388 152.503C36.1989 152.364 36.0099 152.226 35.8209 152.08C35.6319 151.942 35.4496 151.789 35.2606 151.637C35.0783 151.485 34.8893 151.332 34.707 151.173C34.3424 150.861 33.9779 150.535 33.6201 150.196L33.35 149.94L33.0867 149.683L32.8707 149.475C32.7897 149.399 32.7087 149.323 32.6344 149.254L32.2834 148.935C32.1888 148.845 32.1146 148.776 32.0538 148.72C31.9931 148.658 31.9458 148.616 31.9121 148.582L31.8918 148.561L31.8783 148.547C31.8715 148.54 31.8715 148.54 31.8715 148.54L31.7028 148.699C31.1222 149.226 30.6699 149.614 30.2446 149.94C30.1905 149.981 30.1433 150.016 30.0893 150.057L30.0083 150.113L29.9408 150.168C29.8462 150.237 29.7517 150.307 29.6505 150.369C29.5627 150.431 29.4817 150.487 29.3872 150.542L29.3197 150.584L29.2589 150.619C29.2184 150.639 29.1779 150.667 29.1374 150.688C28.8201 150.868 28.55 150.986 28.3475 151.048C28.145 151.11 28.0032 151.131 27.9425 151.131C27.8749 151.131 27.8884 151.124 27.9627 151.152L28.1585 156.757C28.3003 156.729 28.4353 156.701 28.5771 156.681C28.7188 156.667 28.8673 156.646 29.0429 156.639C29.2184 156.632 29.4007 156.632 29.6167 156.632C29.8395 156.639 30.0758 156.646 30.3458 156.667L30.7711 156.701L31.2302 156.743L31.7163 156.785L32.1686 156.833C32.4656 156.868 32.7694 156.889 33.0665 156.93C33.3703 156.972 33.6673 156.999 33.9711 157.048C35.1795 157.207 36.4082 157.422 37.6437 157.658C38.8791 157.9 40.128 158.163 41.3905 158.461C43.9154 159.05 46.4807 159.722 49.1204 160.408C51.7533 161.087 54.3862 161.766 57.0258 162.445C62.2646 163.796 67.4427 165.168 72.4992 166.72C77.5759 168.279 82.6527 170.038 87.7902 171.854C90.3624 172.768 92.9345 173.676 95.5066 174.59C98.072 175.505 100.644 176.433 103.21 177.361C108.361 179.225 113.505 181.096 118.656 182.959C121.242 183.888 123.827 184.816 126.406 185.752C127.702 186.216 128.998 186.673 130.288 187.137C131.638 187.615 132.982 188.086 134.332 188.564C136.364 189.271 138.409 189.964 140.455 190.622L141.987 191.114L143.52 191.599L144.289 191.841L145.059 192.105L145.444 192.236C145.572 192.278 145.7 192.32 145.829 192.361L146.598 192.604C146.727 192.645 146.855 192.68 146.983 192.714L147.361 192.818L147.739 192.922L147.928 192.978C147.989 192.992 148.05 193.005 148.117 193.019L148.86 193.186L149.049 193.227L149.143 193.248L149.231 193.262L149.589 193.324L150.311 193.449L151.007 193.539L151.351 193.58C151.466 193.594 151.574 193.601 151.689 193.608L152.35 193.657C152.789 193.684 153.194 193.698 153.592 193.705C153.984 193.712 154.362 193.712 154.727 193.712C155.091 193.705 155.449 193.691 155.793 193.664C156.137 193.636 156.482 193.601 156.826 193.567C157.548 193.47 158.257 193.331 158.986 193.075C159.351 192.95 159.722 192.798 160.094 192.59L160.235 192.514L160.377 192.43C160.472 192.375 160.566 192.313 160.661 192.25C160.85 192.119 161.032 191.98 161.208 191.828C161.565 191.523 161.903 191.163 162.18 190.781C162.456 190.4 162.686 190.005 162.875 189.611C163.246 188.828 163.462 188.052 163.624 187.283C163.78 186.514 163.867 185.738 163.908 184.941C163.948 184.144 163.942 183.32 163.881 182.454C163.854 182.017 163.813 181.574 163.759 181.11C163.732 180.874 163.705 180.645 163.665 180.396L163.537 179.648L163.408 178.9C163.361 178.65 163.334 178.408 163.253 178.137L162.848 176.558C162.814 176.426 162.78 176.295 162.747 176.163L162.612 175.754L162.342 174.937L162.072 174.119L162.004 173.918L161.93 173.71L161.781 173.302C161.383 172.207 160.978 171.105 160.58 170.011C160.478 169.733 160.384 169.463 160.276 169.186L159.959 168.362C159.749 167.807 159.54 167.26 159.324 166.706C158.892 165.604 158.453 164.496 158.008 163.401C157.407 161.898 156.799 160.394 156.198 158.891C155.651 157.533 155.125 156.189 154.605 154.845C154.085 153.508 153.592 152.184 153.106 150.854C152.613 149.489 152.121 148.124 151.641 146.759C150.676 144.03 149.751 141.3 148.853 138.563C147.962 135.834 147.098 133.097 146.281 130.367C145.876 129.002 145.478 127.631 145.093 126.266C144.992 125.926 144.904 125.58 144.809 125.24L144.526 124.215L144.242 123.19C144.148 122.85 144.053 122.504 143.965 122.164C143.608 120.786 143.243 119.421 142.906 118.035C142.737 117.349 142.568 116.656 142.392 115.97C142.23 115.278 142.068 114.585 141.9 113.899L141.657 112.86L141.42 111.82C141.265 111.128 141.11 110.435 140.954 109.742C140.799 109.049 140.651 108.349 140.502 107.657C140.354 106.964 140.198 106.271 140.057 105.571C138.895 100.008 137.842 94.4167 136.863 88.8118C135.884 83.2069 134.973 77.588 134.089 71.9693C133.198 66.3505 132.347 60.7871 131.577 55.2722C132.941 59.6786 134.372 64.5353 135.77 69.8908C136.472 72.572 137.16 75.371 137.822 78.2809C138.49 81.1838 139.138 84.2045 139.766 87.3222C140.468 91.0842 141.191 94.8255 141.954 98.5321C142.716 102.239 143.52 105.911 144.364 109.555C144.58 110.463 144.789 111.377 145.012 112.278C145.235 113.185 145.457 114.086 145.68 114.987C145.91 115.887 146.139 116.788 146.369 117.682L146.544 118.354L146.727 119.026L147.084 120.363C147.206 120.806 147.321 121.257 147.449 121.7L147.82 123.03C148.07 123.917 148.313 124.804 148.576 125.691C149.096 127.457 149.63 129.224 150.176 130.991C151.284 134.517 152.451 138.037 153.673 141.549C154.288 143.309 154.909 145.062 155.543 146.815C155.861 147.695 156.185 148.568 156.502 149.448L156.968 150.709C157.123 151.124 157.285 151.547 157.447 151.97C158.095 153.653 158.777 155.364 159.479 157.103C160.384 159.341 161.295 161.572 162.2 163.81C162.537 164.655 162.875 165.507 163.213 166.353C163.537 167.198 163.861 168.043 164.185 168.895C164.266 169.11 164.34 169.318 164.421 169.526L164.651 170.156L165.11 171.424L166.028 173.946L166.257 174.576C166.332 174.784 166.392 174.992 166.46 175.2L166.858 176.447L167.054 177.07C167.088 177.174 167.121 177.278 167.148 177.382L167.216 177.68L167.493 178.879L167.628 179.475L167.695 179.773L167.729 179.925L167.736 179.96L167.742 179.994L167.749 180.063L167.891 181.179L168.033 182.294C168.046 182.391 168.053 182.475 168.053 182.565L168.067 182.828C168.073 183.001 168.08 183.167 168.087 183.334C167.526 183.07 166.426 182.558 165.879 182.301C166.014 183.895 165.98 185.294 165.805 186.625C165.717 187.29 165.589 187.934 165.42 188.571C165.245 189.209 165.029 189.846 164.732 190.49C164.583 190.816 164.407 191.142 164.212 191.467C164.11 191.634 164.009 191.793 163.894 191.959C163.78 192.126 163.658 192.285 163.53 192.444C163.273 192.763 162.99 193.068 162.693 193.345C162.396 193.622 162.092 193.871 161.788 194.086C161.187 194.516 160.6 194.821 160.033 195.077C159.466 195.326 158.905 195.52 158.332 195.68C157.981 195.763 157.636 195.853 157.285 195.929C156.927 196.005 156.563 196.068 156.178 196.123C155.793 196.179 155.402 196.22 154.976 196.248L154.659 196.269L154.328 196.282L153.984 196.296C153.923 196.296 153.869 196.303 153.808 196.303L153.626 196.303L152.897 196.296L152.715 196.296C152.654 196.296 152.586 196.289 152.526 196.282L152.141 196.255L151.756 196.227C151.628 196.213 151.506 196.213 151.365 196.192L150.561 196.082L150.359 196.054C150.291 196.047 150.224 196.04 150.156 196.019L149.738 195.936L148.9 195.77L148.043 195.548L147.611 195.437C147.469 195.396 147.321 195.347 147.172 195.306L146.295 195.035C146.004 194.945 145.707 194.841 145.417 194.744C144.83 194.537 144.249 194.37 143.668 194.19C143.088 194.017 142.507 193.844 141.927 193.664C141.346 193.483 140.765 193.31 140.178 193.123C137.849 192.396 135.513 191.62 133.184 190.83C132.516 190.601 131.841 190.373 131.172 190.144C130.517 189.922 129.856 189.694 129.201 189.472C127.891 189.022 126.582 188.564 125.272 188.114C122.659 187.206 120.053 186.285 117.461 185.364C112.276 183.521 107.125 181.657 102.001 179.814C99.4425 178.893 96.8838 177.971 94.3319 177.057C91.7733 176.142 89.2214 175.228 86.6695 174.32C81.5793 172.505 76.5768 170.745 71.6013 169.193C66.646 167.641 61.549 166.262 56.3507 164.891C53.7313 164.198 51.1119 163.512 48.4858 162.819C45.8529 162.119 43.3213 161.44 40.8436 160.851C39.6082 160.554 38.393 160.29 37.1914 160.055C35.9964 159.819 34.8082 159.611 33.6471 159.445C33.3568 159.403 33.0665 159.369 32.7762 159.334C32.4859 159.293 32.2023 159.265 31.9188 159.237L31.4867 159.189L31.0074 159.14L30.5619 159.099L30.1703 159.064C29.9273 159.043 29.7247 159.036 29.5492 159.029C29.3737 159.022 29.2454 159.022 29.1374 159.029C29.0294 159.029 28.9551 159.043 28.8808 159.043C28.8133 159.05 28.7526 159.064 28.6851 159.071L27.9222 151.131C27.8547 151.103 27.8344 151.11 27.8817 151.11C27.8952 151.11 27.9155 151.11 27.929 151.11C27.956 151.11 27.983 151.11 28.0032 151.103L28.0235 151.103L28.0505 151.103C28.0707 151.103 28.0842 151.097 28.1045 151.097C28.118 151.09 28.1382 151.09 28.1517 151.083C28.172 151.076 28.199 151.076 28.2192 151.069C28.2395 151.062 28.2598 151.055 28.28 151.048L28.3138 151.034L28.3543 151.02C28.4083 151.006 28.4555 150.986 28.5028 150.965C28.6243 150.923 28.7256 150.868 28.8673 150.799C28.9011 150.785 28.9349 150.764 28.9619 150.75C28.9754 150.743 28.9956 150.729 29.0159 150.722L29.0699 150.695C29.1441 150.653 29.2116 150.612 29.2859 150.563C29.4547 150.466 29.5965 150.362 29.7855 150.237C29.826 150.21 29.8732 150.175 29.9138 150.147L29.9813 150.099L30.0555 150.043C30.15 149.974 30.2446 149.898 30.3391 149.829C30.3593 149.808 30.3863 149.787 30.4133 149.766L30.4943 149.704L30.6496 149.579L30.9737 149.302C31.0884 149.205 31.2032 149.108 31.3112 149.004C31.4395 148.893 31.5678 148.776 31.696 148.658L32.1011 148.277L32.3171 148.069L32.4251 147.965C32.4589 147.93 32.4926 147.896 32.5399 147.854C32.7087 147.695 32.8707 147.529 33.0327 147.362L33.5255 146.856C33.5255 146.856 33.5255 146.856 33.5255 146.863L33.5323 146.877C33.5525 146.898 33.5796 146.926 33.6336 146.981L33.7213 147.064L33.8428 147.175L34.2142 147.515C34.2952 147.591 34.3829 147.667 34.4639 147.75L34.6665 147.944L34.8893 148.166C35.193 148.457 35.4968 148.741 35.8006 149.011C36.415 149.558 37.0361 150.05 37.6639 150.515C37.9812 150.743 38.2985 150.965 38.6158 151.166C38.7778 151.27 38.9399 151.367 39.0951 151.471L39.3382 151.616C39.4192 151.665 39.5002 151.713 39.5812 151.755L39.8242 151.893L40.0673 152.025L40.1888 152.094C40.2293 152.115 40.2766 152.136 40.3238 152.163L40.5939 152.302C40.7761 152.392 40.9584 152.489 41.1474 152.572C41.3365 152.655 41.5188 152.745 41.7078 152.829C42.4639 153.161 43.2538 153.473 44.0639 153.757C44.874 154.041 45.7111 154.297 46.5685 154.533C47.4259 154.769 48.3035 154.969 49.2014 155.163C50.9972 155.538 52.8672 155.822 54.7845 156.036C56.7085 156.258 58.6866 156.411 60.7051 156.521C62.7304 156.632 64.7963 156.708 66.9161 156.778C67.9827 156.812 69.0494 156.847 70.1161 156.875C71.1692 156.902 72.2156 156.937 73.2688 156.958C81.6805 157.159 90.1598 157.11 98.6931 156.868C102.96 156.743 107.247 156.577 111.547 156.362C112.62 156.307 113.701 156.251 114.774 156.196C115.854 156.14 116.928 156.078 118.008 156.009L118.818 155.96L119.223 155.939L119.662 155.919L120.56 155.87L121.444 155.835C121.741 155.822 122.025 155.815 122.315 155.801L123.179 155.773C123.746 155.759 124.313 155.745 124.88 155.732C124.495 155.697 124.185 155.662 123.942 155.621C123.692 155.586 123.51 155.544 123.382 155.503C123.125 155.42 123.085 155.337 123.159 155.247C123.233 155.156 123.429 155.066 123.652 154.983C123.868 154.893 124.111 154.81 124.266 154.727C124.482 154.727 124.685 154.727 124.88 154.727C124.685 154.727 124.475 154.727 124.266 154.727C124.556 154.588 124.617 154.464 123.915 154.367C123.739 154.346 123.517 154.325 123.233 154.304C123.091 154.297 122.943 154.284 122.767 154.284C122.592 154.277 122.409 154.27 122.2 154.27C121.998 154.263 121.775 154.263 121.532 154.263C121.289 154.263 121.025 154.263 120.749 154.263C120.472 154.263 120.168 154.27 119.844 154.277C119.682 154.284 119.513 154.284 119.344 154.29C119.52 154.284 119.682 154.284 119.844 154.277C120.168 154.27 120.472 154.263 120.749 154.263C121.025 154.263 121.289 154.263 121.532 154.263C121.775 154.263 121.991 154.27 122.2 154.27C122.403 154.277 122.592 154.284 122.767 154.284C122.943 154.29 123.091 154.297 123.233 154.304C123.517 154.325 123.739 154.339 123.915 154.367C124.61 154.457 124.556 154.581 124.266 154.727L123.415 154.734L122.558 154.741L121.687 154.755L120.803 154.775C120.512 154.782 120.209 154.789 119.905 154.803L119.027 154.831C118.487 154.852 117.954 154.872 117.42 154.893C116.347 154.935 115.274 154.969 114.207 155.011C113.134 155.046 112.067 155.08 111 155.115C106.727 155.253 102.474 155.357 98.234 155.42C89.7615 155.558 81.3497 155.544 73.0122 155.316C71.9726 155.281 70.9262 155.253 69.8865 155.219C68.8266 155.184 67.7599 155.15 66.7 155.115C65.6536 155.08 64.614 155.046 63.5946 155.004C62.5752 154.963 61.5693 154.914 60.5701 154.859C59.5777 154.803 58.5988 154.734 57.6267 154.658C56.6613 154.581 55.7094 154.484 54.771 154.381C53.8394 154.27 52.9145 154.152 52.0098 154.013C51.1119 153.875 50.2276 153.715 49.3567 153.535C48.4925 153.355 47.6487 153.154 46.8318 152.939C46.0149 152.718 45.2183 152.475 44.4487 152.212C43.6858 151.942 42.9432 151.651 42.2276 151.339L41.701 151.097L41.566 151.034L41.4377 150.972L41.1812 150.847L40.9247 150.722C40.8774 150.702 40.8436 150.681 40.8031 150.66L40.6884 150.598C40.5399 150.522 40.3846 150.431 40.2361 150.355C39.0344 149.676 37.8597 148.838 36.6985 147.82C36.4082 147.57 36.1179 147.3 35.8344 147.03L35.6184 146.822L35.3888 146.6C35.3011 146.517 35.2133 146.434 35.1255 146.351L34.761 146.025L34.572 145.852L34.5247 145.803L34.5112 145.79L34.5044 145.783C34.5314 145.755 34.4572 145.831 34.3964 145.9L34.0319 146.281L33.7416 146.586L33.4513 146.891L32.918 147.438L32.6749 147.681L32.4319 147.923C32.2901 148.062 32.1551 148.201 32.0133 148.332L31.615 148.706L31.426 148.88L31.3315 148.963C31.2977 148.99 31.264 149.018 31.2437 149.046C31.1357 149.15 31.0209 149.247 30.9062 149.344L30.5889 149.614L30.4336 149.739L30.3526 149.801L30.2851 149.856C30.1905 149.933 30.096 150.002 30.0015 150.071C29.9475 150.106 29.9138 150.14 29.8665 150.168C29.826 150.203 29.7787 150.231 29.7382 150.258L29.4884 150.425C29.4142 150.473 29.3264 150.528 29.2522 150.57C29.1846 150.612 29.1104 150.66 29.0361 150.695L28.9821 150.722C28.9619 150.729 28.9484 150.743 28.9349 150.75C28.9011 150.771 28.8741 150.785 28.8403 150.799C28.8066 150.812 28.7728 150.833 28.7391 150.847C28.7188 150.854 28.7053 150.861 28.6918 150.868L28.6513 150.889C28.5973 150.916 28.5298 150.937 28.4758 150.958C28.4285 150.979 28.3745 151 28.3273 151.013C28.3003 151.02 28.28 151.027 28.2598 151.034C28.2395 151.041 28.2192 151.048 28.199 151.055L28.0842 151.083C28.0505 151.09 28.01 151.097 27.9897 151.097C27.9695 151.103 27.9357 151.103 27.9155 151.103C27.902 151.103 27.8884 151.103 27.8682 151.103C27.8277 151.103 27.8479 151.097 27.9087 151.124L29.0226 160.491C29.0429 160.491 29.0564 160.484 29.0834 160.484C29.1104 160.484 29.1441 160.477 29.2116 160.477C29.2859 160.477 29.3804 160.47 29.5222 160.477C29.5559 160.477 29.6032 160.477 29.637 160.484L29.6977 160.484L29.772 160.491L29.9205 160.498L30.0825 160.505L30.4606 160.533L30.8927 160.567L31.3652 160.609L31.7838 160.651C32.0606 160.678 32.3374 160.699 32.6209 160.741L33.0462 160.789C33.188 160.803 33.3298 160.824 33.4715 160.845L34.3289 160.962L35.193 161.101C35.4833 161.142 35.7736 161.198 36.0639 161.253C36.3542 161.302 36.6513 161.357 36.9483 161.413C38.1297 161.634 39.3314 161.891 40.5534 162.168C43.004 162.729 45.5356 163.387 48.1752 164.066C50.8014 164.738 53.4275 165.41 56.0537 166.082C61.252 167.413 66.3422 168.757 71.2772 170.274C76.2325 171.791 81.235 173.53 86.3185 175.332C88.8704 176.239 91.4223 177.154 93.9809 178.061C96.526 178.976 99.0847 179.897 101.643 180.826C106.774 182.696 111.918 184.574 117.076 186.451C119.669 187.394 122.268 188.329 124.867 189.278C126.17 189.749 127.479 190.213 128.789 190.684C130.112 191.156 131.436 191.627 132.765 192.098C135.23 192.957 137.707 193.795 140.192 194.599C140.813 194.8 141.434 194.994 142.055 195.188C142.676 195.382 143.297 195.569 143.911 195.763C144.533 195.964 145.147 196.144 145.781 196.373C146.092 196.483 146.409 196.594 146.72 196.698L147.658 196.996C147.813 197.045 147.969 197.1 148.124 197.142L148.583 197.266L149.501 197.509L150.392 197.689L150.838 197.779C150.912 197.8 150.986 197.807 151.054 197.814L151.27 197.841L152.127 197.959C152.276 197.98 152.404 197.987 152.539 197.994L152.944 198.021L153.349 198.049C153.417 198.056 153.484 198.056 153.552 198.063L153.748 198.063L154.517 198.063L154.706 198.063C154.767 198.063 154.828 198.056 154.889 198.056C155.01 198.049 155.132 198.042 155.246 198.035C155.368 198.028 155.476 198.015 155.591 198.008L155.928 197.973C156.367 197.924 156.779 197.862 157.177 197.793C157.575 197.717 157.954 197.633 158.318 197.536C158.683 197.433 159.034 197.322 159.391 197.211C160.269 196.906 161.113 196.532 162.011 195.985C162.234 195.846 162.463 195.694 162.699 195.527C162.814 195.444 162.936 195.354 163.051 195.264C163.172 195.167 163.287 195.077 163.408 194.973C163.881 194.571 164.36 194.1 164.786 193.601C165.211 193.102 165.569 192.59 165.872 192.098C166.176 191.599 166.433 191.114 166.656 190.629C167.094 189.659 167.412 188.696 167.648 187.664C167.418 188.689 167.108 189.652 166.676 190.615C166.46 191.1 166.21 191.585 165.906 192.077C165.609 192.569 165.251 193.082 164.833 193.58C164.414 194.079 163.942 194.557 163.462 194.966C163.226 195.174 162.983 195.354 162.753 195.527C162.524 195.701 162.288 195.853 162.065 195.991C161.167 196.553 160.323 196.934 159.432 197.252C159.081 197.363 158.73 197.474 158.372 197.578C158.014 197.675 157.636 197.765 157.245 197.841C156.853 197.918 156.448 197.98 156.016 198.028C155.584 198.077 155.125 198.118 154.619 198.132C152.627 198.195 150.305 197.911 147.82 197.148C147.199 196.955 146.578 196.767 145.957 196.546C145.646 196.442 145.336 196.324 145.025 196.227L144.1 195.936C143.486 195.742 142.865 195.562 142.251 195.368C141.63 195.174 141.015 194.987 140.394 194.786C137.923 193.996 135.446 193.165 132.982 192.32C131.618 191.841 130.254 191.37 128.89 190.892C127.587 190.435 126.284 189.971 124.988 189.514C122.396 188.592 119.804 187.664 117.211 186.742C112.06 184.892 106.916 183.05 101.772 181.207C99.2062 180.292 96.6476 179.378 94.0957 178.477C91.5303 177.576 88.9716 176.683 86.4063 175.782C81.2957 174.001 76.273 172.29 71.3042 170.787C66.3557 169.29 61.252 167.967 56.0267 166.65C53.387 165.992 50.7474 165.327 48.1077 164.669C45.4478 163.997 42.9162 163.353 40.4588 162.798C39.2302 162.521 38.0352 162.272 36.8538 162.057C35.6791 161.842 34.5179 161.648 33.3973 161.51C33.2555 161.489 33.1137 161.475 32.9787 161.461L32.5602 161.413C32.2766 161.378 32.0066 161.357 31.7298 161.33L31.318 161.288L30.8454 161.246L30.4133 161.212L30.042 161.184C29.8192 161.17 29.6437 161.163 29.5087 161.163C29.3804 161.163 29.2994 161.163 29.2454 161.17C29.1981 161.17 29.1846 161.177 29.1779 161.177L29.1711 161.122L29.1644 161.066L29.1644 161.052C29.1644 161.045 29.1644 161.059 29.1644 161.059L29.1711 161.08C29.1779 161.108 29.1846 161.129 29.1914 161.156L27.9155 151.131C27.8277 151.103 27.8209 151.117 27.9087 151.11C27.9965 151.11 28.172 151.083 28.4218 150.993C28.6716 150.903 28.9889 150.75 29.3602 150.515C29.4074 150.487 29.4547 150.452 29.5019 150.425C29.5492 150.39 29.5897 150.362 29.6505 150.328C29.7585 150.258 29.8597 150.182 29.961 150.106C30.0758 150.023 30.1905 149.94 30.3053 149.849C30.3593 149.808 30.4268 149.752 30.4876 149.704C30.5483 149.655 30.6091 149.607 30.6766 149.552C31.1897 149.129 31.7635 148.609 32.4791 147.903C32.6817 147.709 32.8774 147.515 33.0665 147.314L33.3973 146.981L33.7483 146.621L34.545 145.776L34.977 145.311C35.031 145.256 34.9905 145.298 35.004 145.284C35.0108 145.291 35.0445 145.325 35.1188 145.388L35.4496 145.679L35.7399 145.942L35.9019 146.094L36.0909 146.275L36.3475 146.517C36.5162 146.676 36.685 146.836 36.8538 146.981C37.1914 147.286 37.5357 147.577 37.8732 147.847C38.2175 148.117 38.5551 148.381 38.8994 148.623C39.2437 148.866 39.588 149.094 39.9323 149.309C40.2766 149.524 40.6276 149.718 40.9719 149.905L41.2352 150.043L41.539 150.189L41.836 150.334C41.9373 150.383 42.0386 150.425 42.1466 150.473C42.9702 150.847 43.8343 151.187 44.7322 151.498C45.6369 151.81 46.582 152.08 47.5542 152.33C49.512 152.822 51.598 153.196 53.7853 153.466C55.9727 153.743 58.2613 153.923 60.6241 154.055C62.9937 154.187 65.4376 154.263 67.9625 154.346C69.2182 154.387 70.4739 154.422 71.7295 154.464C72.965 154.505 74.2072 154.526 75.4494 154.561C76.6915 154.581 77.9337 154.602 79.1759 154.63L81.0392 154.651C81.6603 154.658 82.2814 154.665 82.9092 154.672C87.8915 154.713 92.8805 154.692 97.8897 154.616C102.899 154.54 107.915 154.422 112.944 154.263C114.2 154.221 115.463 154.18 116.718 154.138L118.609 154.069C119.203 154.048 119.966 154.02 120.661 154.006C122.065 153.972 123.422 153.972 124.732 153.972C126.001 153.979 127.277 153.979 128.546 153.986C129.775 153.986 130.956 153.979 132.097 153.951C133.238 153.923 134.332 153.875 135.371 153.792C135.506 153.785 135.628 153.771 135.756 153.757L136.141 153.722C136.269 153.708 136.391 153.702 136.539 153.688L136.958 153.646C137.484 153.591 137.89 153.535 138.099 153.494L138.173 153.48C138.187 153.48 138.193 153.473 138.2 153.473L138.227 153.466L138.254 153.459L138.268 153.459L138.274 153.459C138.281 153.459 138.295 153.452 138.301 153.452C138.315 153.452 138.315 153.445 138.322 153.445C138.322 153.445 138.328 153.445 138.335 153.445C138.335 153.438 138.342 153.466 138.342 153.473L138.396 153.639L138.484 153.909C138.504 153.972 138.524 154.034 138.544 154.096L138.571 154.173L138.585 154.2C138.585 154.207 138.598 154.228 138.585 154.207C138.578 154.187 138.565 154.166 138.558 154.145L138.544 154.117L138.504 154.034C138.477 153.979 138.45 153.923 138.423 153.875L138.403 153.833L138.369 153.764L138.301 153.632L138.234 153.508C138.227 153.501 138.22 153.48 138.22 153.487L139.334 167.579C139.314 167.6 139.294 167.62 139.28 167.634L139.26 167.662L139.206 167.724C139.165 167.773 139.132 167.821 139.098 167.87L139.084 167.891L139.064 167.918L139.017 167.981C138.99 168.022 138.956 168.064 138.929 168.105C138.902 168.147 138.875 168.189 138.848 168.23L138.828 168.265C138.821 168.272 138.808 168.292 138.801 168.306L138.74 168.403C138.659 168.528 138.578 168.66 138.504 168.791C138.477 168.847 138.409 168.951 138.355 169.041C138.301 169.138 138.247 169.228 138.193 169.325C138.139 169.422 138.092 169.519 138.038 169.609L138.004 169.678C137.998 169.699 137.977 169.733 137.957 169.768L137.842 169.976C137.694 170.253 137.559 170.53 137.424 170.807L137.376 170.911C137.363 170.939 137.336 170.994 137.309 171.043L137.16 171.348L137.012 171.653C136.985 171.701 136.958 171.77 136.965 171.75C136.978 171.757 136.938 171.736 136.911 171.729L136.742 171.66L136.472 171.549L135.635 171.23L135.365 171.126L135.074 171.008L134.764 170.884L134.426 170.745L132.664 169.99C131.544 169.512 130.45 169.055 129.383 168.618C128.85 168.403 128.317 168.189 127.79 167.988L126.095 167.35C123.537 166.38 121.052 165.355 118.642 164.316C116.225 163.269 113.89 162.216 111.594 161.191C109.299 160.166 107.058 159.161 104.85 158.219C104.303 157.99 103.75 157.762 103.203 157.526L102.386 157.193L101.974 157.027C101.839 156.972 101.711 156.923 101.576 156.868C100.523 156.452 99.429 156.036 98.288 155.614C96.0129 154.775 93.5623 153.909 90.9902 152.912C90.3488 152.662 89.694 152.399 89.0391 152.136C88.7151 152.004 88.3776 151.859 88.0467 151.72C87.8847 151.651 87.716 151.575 87.5472 151.505L87.0408 151.284C85.6974 150.688 84.3742 150.064 83.078 149.413C80.4991 148.104 78.0147 146.697 75.6384 145.242C74.4502 144.515 73.2823 143.773 72.1346 143.025C71.5675 142.651 70.9937 142.277 70.4334 141.903L70.008 141.619L69.5827 141.328L68.7321 140.746C64.1954 137.635 59.7127 134.199 55.4528 130.347C54.3929 129.383 53.3398 128.4 52.3069 127.381C52.1786 127.257 52.0503 127.125 51.9153 127L51.5238 126.612C51.2672 126.356 51.0039 126.093 50.7541 125.829L49.9913 125.039L49.2419 124.243C47.2639 122.116 45.4006 119.94 43.6318 117.744C42.7474 116.649 41.8833 115.548 41.0462 114.446C40.6209 113.899 40.2091 113.345 39.7972 112.797C39.3854 112.25 38.9804 111.703 38.5753 111.155C38.177 110.608 37.7719 110.061 37.3736 109.513C36.9753 108.959 36.5838 108.412 36.1854 107.857C35.3888 106.756 34.6125 105.634 33.8293 104.518C33.3973 103.908 32.9315 103.216 32.4184 102.46C32.1618 102.086 31.8986 101.691 31.6218 101.29C31.3517 100.888 31.0749 100.465 30.7914 100.036C30.2243 99.1764 29.6235 98.2827 29.0361 97.3543C28.442 96.4259 27.8277 95.4837 27.2336 94.5276C24.837 90.7101 22.5551 86.7957 21.0969 84.1421L20.8471 83.6295C20.7661 83.4563 20.6851 83.283 20.6041 83.1098L20.1248 82.0775L19.6387 81.0452C19.4767 80.6988 19.3147 80.3593 19.1594 80.0129C18.5383 78.6204 17.8969 77.2486 17.3029 75.8421C16.0742 73.057 14.9265 70.2303 13.8058 67.3966L12.989 65.2558C12.8539 64.8955 12.7122 64.5422 12.5839 64.1888L12.1923 63.108L11.4092 60.9534C11.1594 60.2328 10.9029 59.5123 10.6599 58.7918C9.67421 55.9096 8.76283 53.0275 7.89195 50.1453C6.15693 44.388 4.62445 38.6445 3.18649 32.9425L2.64641 30.8086L2.38312 29.7417L2.31561 29.4784L2.24135 29.1736L2.09282 28.557C1.70801 26.915 1.38397 25.2799 1.12068 23.6656C0.594098 20.444 0.263298 17.3194 8.03417e-06 14.3402C0.74262 15.7813 1.46498 15.324 2.18059 14.5966C2.8962 13.8691 3.62531 12.8853 4.34766 13.1832C4.52994 13.2594 4.71222 13.4119 4.89449 13.6751C5.07677 13.9384 5.2658 14.3056 5.44808 14.7975C5.82614 15.7882 6.20419 17.2986 6.67676 19.5364C6.9198 20.6519 7.17634 21.9544 7.51389 23.4578C7.5949 23.8319 7.68942 24.2199 7.77718 24.6217C7.82444 24.8226 7.86494 25.0236 7.91895 25.2314C7.97296 25.4392 8.02021 25.6471 8.07422 25.8619C8.12823 26.0767 8.17549 26.2914 8.23625 26.5131C8.29701 26.7348 8.35101 26.9565 8.41177 27.1852C8.43878 27.296 8.47253 27.4138 8.49954 27.5247C8.52654 27.6424 8.5603 27.7533 8.59405 27.8641C8.65481 28.0858 8.71557 28.3145 8.78308 28.5431C9.28265 30.3791 9.82949 32.4368 10.4438 34.737C11.0582 37.0371 11.74 39.5798 12.5231 42.3788C12.989 42.2333 13.9138 41.9354 14.3797 41.7899C13.448 38.0001 12.6852 34.3767 12.0438 30.968C11.8885 30.1158 11.7333 29.2775 11.5915 28.453C11.5172 28.0373 11.4497 27.6286 11.3822 27.2267C11.3147 26.818 11.254 26.4162 11.1932 26.0212C10.9569 24.4278 10.8151 22.8897 10.7274 21.407C10.6396 19.9244 10.6126 18.5041 10.6261 17.1462C10.6396 15.7882 10.6801 14.4927 10.7409 13.2594C10.8016 12.0262 10.8826 10.8623 10.9704 9.76068C11.0177 9.21335 11.0582 8.67294 11.1054 8.16025C11.1324 7.9039 11.1527 7.64757 11.1797 7.39815C11.2067 7.1418 11.2269 6.8924 11.254 6.6499C11.2675 6.42819 11.2742 6.2065 11.281 5.99171C11.2877 5.79773 11.2945 5.61066 11.3012 5.4236C11.3147 5.07027 11.335 4.75157 11.362 4.46059C11.416 3.87169 11.497 3.37286 11.6118 2.97102C11.6253 2.92253 11.6388 2.87401 11.659 2.82552C11.6725 2.77702 11.6928 2.73546 11.7063 2.69389L11.7333 2.63153L11.7603 2.56224C11.7805 2.52068 11.794 2.47218 11.8143 2.43062C11.8885 2.25742 11.9628 2.09805 12.0506 1.95256C12.2261 1.66158 12.4286 1.41216 12.6582 1.21817C12.8944 1.02419 13.151 0.892548 13.4143 0.823273C13.5425 0.774781 13.6843 0.802476 13.7653 0.670838C13.8598 0.573838 13.9476 0.490708 14.0354 0.41449C14.3797 0.116578 14.6835 -0.021972 14.94 0.00573796C15.1965 0.0334479 15.3991 0.23436 15.5544 0.608491C15.6286 0.795548 15.6961 1.02419 15.7434 1.30132C15.7434 1.31517 15.7501 1.33595 15.7501 1.34981L15.7569 1.36365C15.7569 1.3775 15.7636 1.38445 15.7636 1.3983C15.7704 1.42601 15.7771 1.44681 15.7839 1.47452C15.7906 1.50223 15.7974 1.52994 15.8109 1.55765C15.8176 1.58536 15.8311 1.62001 15.8446 1.65465C15.8919 1.78629 15.9594 1.94563 16.0472 2.11191C16.0944 2.19505 16.1417 2.27818 16.1957 2.36133C16.2227 2.40289 16.2497 2.44447 16.2767 2.48604C16.3037 2.5276 16.3307 2.5761 16.3645 2.59688C16.4792 2.72159 16.6143 3.01952 16.7898 3.49063C16.8775 3.73312 16.9721 4.01718 17.0801 4.39131C17.1071 4.48139 17.1341 4.59221 17.1678 4.69614L17.1881 4.77928L17.2083 4.86934L17.2286 4.95941L17.2421 5.0079L17.2556 5.06334L17.2826 5.16727L17.3096 5.29198C17.3231 5.37512 17.3434 5.45824 17.3569 5.54138C17.3906 5.70766 17.4176 5.88088 17.4514 6.05408C17.4716 6.16493 17.4851 6.21341 17.4986 6.28963C17.5121 6.3589 17.5256 6.42819 17.5459 6.49054C17.5729 6.62911 17.6067 6.76767 17.6337 6.90624C17.6877 7.18337 17.7484 7.47437 17.8092 7.76535C17.8632 8.05634 17.924 8.35425 17.9847 8.65909C18.0387 8.96393 18.0995 9.26878 18.1602 9.58748C18.3965 10.8415 18.6261 12.1855 18.8758 13.5989C19.1256 15.0053 19.3889 16.4741 19.6927 17.9776C19.9965 19.481 20.3408 21.019 20.7661 22.564C20.8066 22.7234 20.8539 22.8828 20.8944 23.0421L20.9552 23.2846L21.0227 23.5201C21.1172 23.8458 21.2117 24.1714 21.313 24.497C21.5425 25.2661 21.772 26.0351 22.0016 26.8111C22.1163 27.199 22.2311 27.587 22.3526 27.975C22.4674 28.363 22.5889 28.7509 22.7037 29.1389C22.94 29.9149 23.1762 30.6909 23.4125 31.4737C24.3712 34.5914 25.3703 37.7299 26.4302 40.8823C26.7003 41.6652 26.9636 42.455 27.2404 43.2379C27.3754 43.6328 27.5171 44.0208 27.6522 44.4157C27.7939 44.8106 27.9357 45.1986 28.0775 45.5935C28.145 45.7875 28.2193 45.9884 28.2868 46.1824C28.361 46.3764 28.4285 46.5704 28.5028 46.7713C28.6446 47.1662 28.7931 47.5542 28.9349 47.9491C29.2319 48.725 29.5222 49.5149 29.8327 50.2977C29.988 50.6857 30.1365 51.0806 30.2918 51.4686C30.4471 51.8566 30.6024 52.2446 30.7576 52.6326C30.9129 53.0205 31.0749 53.4085 31.237 53.7965C31.399 54.1845 31.561 54.5725 31.723 54.9605C31.804 55.1544 31.8851 55.3484 31.9661 55.5424L32.0876 55.8334L32.2159 56.1244C32.3846 56.5124 32.5602 56.9003 32.7289 57.2883C32.8977 57.6763 33.0732 58.0712 33.242 58.4592C33.4175 58.8472 33.5998 59.2352 33.7753 59.6301C33.9576 60.0181 34.1331 60.413 34.3154 60.801C34.4032 60.9949 34.4977 61.1889 34.5855 61.3898C34.68 61.5838 34.7745 61.7778 34.869 61.9718C35.2471 62.7478 35.6184 63.5307 35.9964 64.3136C36.388 65.0895 36.7795 65.8724 37.1711 66.6553C37.2656 66.8493 37.3669 67.0433 37.4749 67.2373C37.5762 67.4312 37.6774 67.6253 37.7787 67.8192C37.9812 68.2072 38.1838 68.6021 38.393 68.9901C40.0403 72.1078 41.7955 75.2255 43.6521 78.3363C43.8884 78.7243 44.1179 79.1123 44.3542 79.5002C44.5905 79.8882 44.82 80.2831 45.063 80.6642C45.5424 81.4401 46.0284 82.2161 46.5078 82.9921C47.0006 83.7611 47.4934 84.5371 47.993 85.313C48.4926 86.089 49.0056 86.8511 49.512 87.627L49.8968 88.209L50.2883 88.7841C50.5516 89.1651 50.8081 89.5531 51.0714 89.9411C51.5845 90.717 52.1246 91.4791 52.6579 92.2413C52.928 92.6223 53.1913 93.0103 53.4613 93.3913C53.7313 93.7724 54.0081 94.1534 54.2782 94.5345C54.5482 94.9155 54.825 95.2966 55.095 95.6846C55.3718 96.0656 55.6486 96.4536 55.9254 96.8347C58.1465 99.89 60.3608 102.814 62.6562 105.537C63.8039 106.901 64.9718 108.204 66.16 109.458L66.6055 109.929C66.754 110.081 66.9093 110.234 67.0578 110.386L67.5102 110.844L67.976 111.301C68.5971 111.91 69.2384 112.513 69.8798 113.109C72.4654 115.492 75.2401 117.744 78.17 119.899C78.5413 120.169 78.9059 120.439 79.2772 120.702C79.6485 120.966 80.0198 121.236 80.3979 121.499C80.7759 121.762 81.1472 122.026 81.532 122.289L82.1059 122.677L82.6865 123.072C84.2392 124.118 85.7784 125.109 87.3109 126.051C88.8434 126.986 90.3691 127.859 91.8881 128.663C92.651 129.058 93.4071 129.446 94.1699 129.806C94.548 129.993 94.9328 130.159 95.3108 130.333C95.4999 130.423 95.6889 130.499 95.8847 130.582L96.1682 130.707C96.2627 130.748 96.3573 130.79 96.4585 130.831C97.2416 131.164 98.0585 131.49 98.8956 131.815L99.5302 132.058L100.172 132.3L101.495 132.785C103.277 133.436 105.167 134.109 107.132 134.836C107.625 135.023 108.118 135.203 108.624 135.404L109.002 135.55L109.38 135.702L109.758 135.854L109.947 135.931L110.129 136.007C110.615 136.201 111.108 136.402 111.594 136.596C112.074 136.797 112.56 136.991 113.039 137.192C114.95 137.988 116.82 138.799 118.642 139.596C120.465 140.392 122.254 141.182 124.009 141.937C125.758 142.693 127.479 143.42 129.174 144.106C129.545 144.258 129.917 144.411 130.288 144.556L131.395 144.993C131.76 145.138 132.124 145.277 132.489 145.415L133.036 145.623L133.582 145.824L134.737 146.247C135.189 146.413 135.628 146.579 136.073 146.746C136.951 147.078 137.815 147.425 138.666 147.764C139.516 148.104 140.34 148.45 141.157 148.789L142.365 149.295L142.953 149.545L143.236 149.655L144.343 150.071C144.836 150.258 145.457 150.501 146.22 150.847C146.976 151.194 147.861 151.651 148.792 152.261C149.724 152.863 150.703 153.632 151.601 154.512L162.774 165.48L149.272 173.454C148.205 174.084 147.01 174.659 145.802 175.103C144.6 175.546 143.405 175.865 142.365 176.066C141.326 176.274 140.435 176.392 139.685 176.482L139.145 176.544L138.652 176.599L138.396 176.627L138.126 176.655L137.586 176.703C136.148 176.835 134.757 176.918 133.407 176.967C132.063 177.015 130.76 177.043 129.491 177.05C128.229 177.064 127.014 177.057 125.832 177.064L124.09 177.07C123.53 177.077 122.963 177.077 122.416 177.091L122.004 177.098L121.606 177.105C121.343 177.112 121.066 177.119 120.809 177.126L119.135 177.188L115.523 177.327C110.703 177.507 105.876 177.646 101.042 177.743C96.202 177.833 91.3548 177.874 86.5008 177.86C81.64 177.84 76.7793 177.756 71.8983 177.597L68.2663 177.465L64.668 177.32C62.2241 177.216 59.6992 177.084 57.1136 176.876C55.8174 176.773 54.5009 176.648 53.171 176.495C51.8411 176.343 50.4908 176.163 49.1204 175.941C47.7567 175.719 46.3727 175.463 44.9753 175.158C43.5778 174.853 42.1668 174.493 40.7424 174.071C39.3179 173.648 37.8867 173.177 36.4555 172.623C35.0243 172.068 33.5931 171.438 32.1753 170.724L31.642 170.454L31.507 170.385C31.4665 170.364 31.4192 170.343 31.372 170.315L31.0884 170.163C30.7104 169.962 30.3458 169.754 29.9813 169.546C29.2522 169.124 28.5365 168.673 27.8479 168.216C27.1593 167.752 26.4842 167.274 25.8294 166.775C25.1813 166.276 24.5467 165.771 23.9324 165.251C23.3248 164.731 22.7374 164.198 22.1636 163.664C21.88 163.394 21.5965 163.124 21.3197 162.847L21.1104 162.639L21.0564 162.59L21.0429 162.577L21.1037 162.632L21.1037 162.625C21.0969 162.618 21.1104 162.625 21.0767 162.597L20.9484 162.48C20.7999 162.341 20.6514 162.203 20.5028 162.064L20.2125 161.787C20.1045 161.683 20.0033 161.579 19.8817 161.461C19.6522 161.226 19.3957 160.969 19.1121 160.644L19.0041 160.526L18.8893 160.394L18.7813 160.263L18.6666 160.124L18.4303 159.833C18.3493 159.729 18.2615 159.618 18.1805 159.507C17.8429 159.05 17.4784 158.517 17.0936 157.845C16.9923 157.665 16.8978 157.491 16.8033 157.304C16.702 157.103 16.6075 156.902 16.513 156.695C16.3172 156.258 16.1349 155.794 15.9594 155.253L15.8986 155.053C15.8784 154.99 15.8581 154.921 15.8379 154.845C15.7974 154.699 15.7569 154.554 15.7231 154.408C15.6826 154.263 15.6489 154.117 15.6151 153.965C15.5813 153.805 15.5476 153.639 15.5206 153.48C15.4936 153.321 15.4666 153.154 15.4396 152.995C15.4261 152.919 15.4193 152.822 15.4058 152.739L15.3788 152.475C15.3451 152.122 15.3181 151.782 15.3113 151.401C15.3046 151.214 15.3113 151.034 15.3113 150.847C15.3113 150.667 15.3248 150.473 15.3383 150.286C15.3653 149.905 15.3991 149.531 15.4598 149.157C15.5206 148.783 15.5881 148.401 15.6759 148.041C15.7636 147.681 15.8649 147.328 15.9797 146.974L17.9645 140.926L23.8851 139.506C24.5534 139.346 25.2285 139.208 25.9037 139.111C26.0724 139.083 26.2412 139.062 26.4032 139.041C26.572 139.021 26.7408 139 26.9028 138.986L27.3956 138.944L27.8749 138.917C29.1441 138.847 30.2648 138.896 31.1762 138.965L31.3517 138.979L31.5137 138.993L31.831 139.021L32.4116 139.076L32.9382 139.132L33.5188 139.194L34.1129 139.256L34.4099 139.291L34.7002 139.325C35.0918 139.374 35.4766 139.429 35.8681 139.478C37.4141 139.7 38.9196 139.963 40.3981 140.261C40.7626 140.337 41.1407 140.406 41.4985 140.483C41.8631 140.559 42.2276 140.635 42.5854 140.718C42.9432 140.801 43.301 140.877 43.6588 140.961C44.0166 141.044 44.3677 141.127 44.7187 141.21C46.1297 141.549 47.5069 141.896 48.8571 142.249C50.2073 142.603 51.5305 142.963 52.8267 143.309C55.4056 144.002 58.0047 144.688 60.6444 145.388C65.9237 146.787 71.3312 148.235 76.8131 149.933C82.2746 151.623 87.5877 153.487 92.7995 155.344C95.3986 156.272 97.9978 157.207 100.597 158.136C103.203 159.071 105.802 160.02 108.394 160.962C113.566 162.854 118.744 164.745 123.915 166.637C126.494 167.572 129.066 168.507 131.638 169.443C132.921 169.907 134.21 170.364 135.493 170.828C136.715 171.265 137.937 171.701 139.152 172.138C139.598 172.325 140.063 172.519 140.556 172.706C140.799 172.803 141.056 172.9 141.312 172.997C141.569 173.094 141.832 173.218 142.102 173.315C142.217 173.357 142.332 173.392 142.453 173.412C142.575 173.433 142.696 173.454 142.811 173.433C142.932 173.419 143.047 173.371 143.128 173.295C143.209 173.218 143.257 173.108 143.284 173.004C143.331 172.796 143.311 172.574 143.277 172.366C143.243 172.151 143.182 171.944 143.128 171.729C143.068 171.514 143.02 171.292 142.953 171.071C142.892 170.849 142.831 170.62 142.764 170.385C142.696 170.149 142.622 169.914 142.548 169.671L142.433 169.304L142.372 169.11L142.345 169.013L142.332 168.964L142.325 168.951L142.318 168.937L142.311 168.909L142.271 168.812C141.454 166.713 140.61 164.579 139.787 162.41L139.476 161.593L139.165 160.768C138.956 160.221 138.754 159.667 138.551 159.113C138.349 158.565 138.146 157.997 137.95 157.443L137.802 157.027L137.66 156.618L137.376 155.808C135.871 151.478 134.433 147.141 133.083 142.783C132.637 141.376 132.165 139.907 131.679 138.376C131.192 136.845 130.7 135.259 130.193 133.624C130.065 133.215 129.944 132.806 129.815 132.39C129.687 131.975 129.565 131.559 129.437 131.136C129.181 130.298 128.938 129.439 128.674 128.58C128.546 128.15 128.418 127.714 128.29 127.284C128.168 126.848 128.04 126.411 127.911 125.975C127.783 125.538 127.662 125.095 127.533 124.652C127.473 124.43 127.405 124.208 127.344 123.986C127.284 123.765 127.223 123.543 127.162 123.321C126.912 122.428 126.669 121.534 126.42 120.633C126.176 119.732 125.933 118.825 125.69 117.917C125.441 117.01 125.211 116.095 124.975 115.188C124.853 114.73 124.739 114.273 124.617 113.816L124.273 112.444C124.158 111.987 124.043 111.529 123.928 111.072C123.814 110.615 123.699 110.158 123.591 109.7C123.368 108.786 123.152 107.878 122.929 106.964C122.504 105.149 122.079 103.34 121.68 101.553C121.579 101.109 121.478 100.659 121.377 100.216C121.282 99.7722 121.181 99.3288 121.086 98.8924C120.897 98.0125 120.708 97.1395 120.519 96.2735C120.337 95.4075 120.155 94.5553 119.979 93.71C119.804 92.8648 119.635 92.0265 119.466 91.202C119.128 89.5531 118.818 87.9458 118.514 86.4008C118.217 84.8558 117.94 83.3593 117.684 81.9321C117.171 79.0776 116.745 76.5003 116.421 74.2625C116.097 72.0247 115.881 70.1333 115.793 68.6714C115.368 64.5145 115.409 62.2905 115.719 61.2513C116.03 60.2051 116.61 60.3368 117.292 60.8564C118.123 65.5468 118.987 70.2233 119.851 74.8791C120.722 79.5349 121.599 84.1976 122.511 88.8603C124.333 98.1857 126.312 107.525 128.647 116.802C129.815 121.437 131.084 126.058 132.455 130.644C133.832 135.231 135.311 139.762 136.863 144.251C137.64 146.496 138.43 148.727 139.24 150.958L139.847 152.621L140.462 154.284L141.083 155.946C141.299 156.508 141.508 157.076 141.724 157.637C142.588 159.875 143.479 162.078 144.37 164.246C144.809 165.32 145.248 166.401 145.694 167.475C145.93 168.064 146.159 168.639 146.389 169.221C146.767 170.212 147.132 171.195 147.469 172.172L147.719 172.907L147.962 173.641C148.124 174.126 148.3 174.604 148.455 175.089C148.603 175.574 148.738 176.066 148.806 176.565C148.84 176.814 148.86 177.064 148.853 177.32C148.846 177.569 148.806 177.826 148.705 178.061C148.61 178.297 148.441 178.505 148.225 178.636C148.009 178.775 147.753 178.844 147.496 178.858C147.24 178.879 146.983 178.851 146.727 178.809C146.47 178.768 146.22 178.699 145.977 178.629C145.39 178.456 144.823 178.221 144.256 178.02C143.972 177.916 143.682 177.833 143.398 177.736L142.548 177.452C141.42 177.07 140.313 176.683 139.226 176.281L138.416 175.983L138.011 175.83L137.896 175.789L137.694 175.719L137.289 175.574L134.041 174.403C131.874 173.62 129.707 172.83 127.547 172.034C118.885 168.854 110.224 165.59 101.508 162.369L94.9733 159.965C92.7995 159.168 90.6189 158.371 88.4181 157.574C86.2172 156.778 84.0029 155.995 81.7683 155.226C79.5337 154.457 77.2789 153.708 75.0038 152.995C72.7287 152.281 70.4536 151.602 68.1853 150.951C65.9169 150.3 63.6621 149.676 61.414 149.06L54.717 147.238L51.3887 146.323C50.2748 146.018 49.1406 145.706 47.9997 145.395C49.1204 145.706 50.2343 146.025 51.3212 146.337C52.4081 146.642 53.4951 146.953 54.582 147.265C56.776 147.882 58.9701 148.492 61.1642 149.108C65.5861 150.348 70.0688 151.63 74.5717 153.057C79.0814 154.484 83.5101 156.043 87.8915 157.637C90.0788 158.434 92.2594 159.237 94.4265 160.034C96.6003 160.838 98.7741 161.634 100.955 162.438C109.67 165.667 118.379 168.937 127.128 172.131C129.316 172.927 131.503 173.724 133.697 174.507C135.5 175.151 137.302 175.796 139.105 176.44C140.239 176.849 141.393 177.244 142.561 177.632L143.446 177.916C143.743 178.013 144.04 178.096 144.33 178.2C144.917 178.401 145.498 178.636 146.105 178.809C146.355 178.879 146.605 178.941 146.862 178.983C147.118 179.024 147.375 179.045 147.631 179.024C147.888 179.003 148.144 178.934 148.36 178.789C148.468 178.719 148.563 178.629 148.644 178.532C148.725 178.428 148.792 178.318 148.84 178.2C148.934 177.957 148.975 177.701 148.981 177.438C148.988 177.181 148.968 176.918 148.927 176.662C148.846 176.149 148.711 175.65 148.549 175.158C148.394 174.666 148.205 174.174 148.03 173.683L147.773 172.941L147.51 172.2C147.152 171.209 146.774 170.218 146.382 169.228C146.16 168.653 145.937 168.071 145.707 167.482L144.411 164.26C143.54 162.092 142.669 159.895 141.825 157.665C141.609 157.11 141.407 156.542 141.197 155.981L140.59 154.325C140.192 153.224 139.793 152.115 139.402 151.006C138.612 148.789 137.842 146.565 137.086 144.335C135.581 139.866 134.143 135.363 132.813 130.811C131.49 126.259 130.268 121.679 129.147 117.093C126.906 107.913 125.029 98.6914 123.307 89.4838C122.443 84.8765 121.62 80.2762 120.809 75.6828C119.993 71.0894 119.189 66.489 118.413 61.8679C119.635 63.0318 120.884 64.1196 121.424 61.7016C121.424 61.7016 121.296 60.9949 121.086 59.8379C120.985 59.2629 120.857 58.5701 120.722 57.808C120.587 57.0389 120.438 56.2006 120.283 55.3069C119.972 53.5332 119.642 51.5725 119.331 49.7019C119.02 47.8313 118.737 46.0508 118.521 44.6235C118.447 43.1686 118.406 41.8315 118.386 40.5913C118.366 39.3581 118.372 38.2288 118.399 37.1965C118.426 36.1642 118.474 35.2427 118.534 34.4113C118.602 33.5799 118.683 32.8386 118.777 32.1943C118.872 31.5499 118.987 30.9888 119.108 30.5177C119.23 30.0465 119.365 29.6586 119.513 29.3468C119.804 28.7233 120.134 28.4184 120.499 28.3768C121.221 28.2937 122.072 29.2706 122.97 30.9403C123.429 31.7786 123.895 32.7832 124.374 33.9194C124.86 35.0557 125.346 36.3235 125.852 37.6814C126.825 40.4735 127.857 43.5912 128.992 47.0692Z" fill="#CBA265"/>
</svg>
