<svg width="233" height="229" viewBox="0 0 233 229" fill="none" xmlns="http://www.w3.org/2000/svg">
<path d="M4.11865 152.983L5.57226 90.4785L14.0516 86.8445L44.5774 84.4219L63.232 88.7827L61.5362 157.829H8.23721L4.11865 152.983Z" fill="white"/>
<path d="M22.04 147.556C22.0772 147.345 22.1144 147.133 22.1516 146.924C22.2952 145.954 22.3742 144.982 22.4395 144.002C22.5071 143.023 22.5329 142.036 22.5572 141.035C22.5678 140.534 22.583 140.031 22.5883 139.523C22.5959 139.015 22.6028 138.502 22.6104 137.985C22.6225 137.467 22.6354 136.944 22.6476 136.416C22.6597 135.887 22.6772 135.352 22.7023 134.809C22.9354 131.767 22.6134 128.308 22.4038 125.284C22.4919 128.88 22.6195 132.562 22.5587 136.211C22.501 139.859 22.2625 143.474 21.6496 146.902C21.4605 146.552 21.2957 146.169 21.1719 145.754C21.0481 145.338 20.9729 144.889 20.9751 144.408C21.0146 143.828 21.0564 143.25 21.0868 142.673C21.1157 142.097 21.1415 141.522 21.165 140.948C21.2182 139.8 21.2341 138.658 21.2516 137.521C21.4172 137.517 21.74 137.51 21.9033 137.507C21.8311 136.699 21.7681 135.898 21.7324 135.102C21.6959 134.305 21.6822 133.514 21.6663 132.724C21.6534 131.935 21.6579 131.149 21.6595 130.364C21.6595 129.579 21.6595 128.795 21.6595 128.012C21.642 124.878 21.5417 121.737 20.8377 118.548C20.7701 118.785 20.6258 118.661 20.5156 118.623C20.4192 118.589 20.3501 118.622 20.3842 119.022C20.3493 118.622 20.4192 118.588 20.5156 118.623C20.8855 121.784 21.1043 124.857 21.225 127.931C21.2508 128.7 21.2721 129.469 21.2911 130.239C21.3086 131.01 21.3093 131.783 21.3146 132.558C21.3146 132.945 21.3162 133.334 21.3169 133.724C21.3124 134.114 21.307 134.504 21.3025 134.896C21.2964 135.288 21.2903 135.68 21.2835 136.075C21.2774 136.469 21.2691 136.864 21.2554 137.261C21.2668 136.645 21.2584 136.031 21.2569 135.417C21.2524 134.803 21.2486 134.191 21.2387 133.58C21.222 132.968 21.2053 132.358 21.1886 131.748C21.1696 131.139 21.1521 130.529 21.1202 129.922C21.0617 128.706 21.0055 127.491 20.9182 126.278C20.8764 125.672 20.8346 125.066 20.7929 124.459C20.7427 123.853 20.6926 123.247 20.6425 122.64C20.442 120.212 20.1822 117.783 19.9111 115.333C19.8382 114.72 19.7652 114.107 19.6916 113.492C19.6171 112.877 19.5495 112.26 19.4675 111.643C19.308 110.407 19.1599 109.163 18.9867 107.913C18.9298 107.487 18.8166 106.633 18.7597 106.206C18.8819 105.32 18.9199 104.443 18.8979 103.574C18.8918 103.357 18.8835 103.139 18.8698 102.924C18.8546 102.708 18.8356 102.492 18.8136 102.277C18.7695 101.848 18.7133 101.42 18.6465 100.994C19.523 101.295 20.8772 99.3191 21.0868 102.811C21.2486 102.786 21.5736 102.738 21.7354 102.713C21.8752 100.929 22.4569 99.6168 23.1557 99.1695C23.8529 98.7237 24.6679 99.1444 25.2649 100.843C25.4206 101.323 25.5679 101.825 25.6871 102.348C25.8087 102.871 25.9173 103.414 26.016 103.973C26.2196 105.09 26.3585 106.272 26.5006 107.48C26.5735 108.084 26.6342 108.697 26.6973 109.313C26.7611 109.929 26.8272 110.547 26.8993 111.165C26.9692 111.783 27.0375 112.402 27.1211 113.015C27.2016 113.629 27.2996 114.237 27.3991 114.839C27.9277 118.343 28.3788 121.87 28.2809 125.424C28.2573 126.035 28.2482 126.652 28.2399 127.274C28.2285 127.896 28.2247 128.523 28.2262 129.152C28.2277 129.467 28.2292 129.783 28.2307 130.099C28.2307 130.415 28.2307 130.731 28.2307 131.049C28.2315 131.683 28.2323 132.319 28.233 132.955V133.431L28.2269 133.908C28.2216 134.226 28.2163 134.543 28.2118 134.861C28.1988 135.495 28.1852 136.127 28.1578 136.756C28.1274 137.385 28.0895 138.01 28.0416 138.63C27.9945 139.249 27.9368 139.864 27.8563 140.471C27.8183 140.912 27.8221 141.436 27.8411 141.987C27.851 142.263 27.8639 142.546 27.8783 142.828C27.889 143.111 27.9004 143.393 27.9102 143.669C27.9459 144.772 27.9436 145.765 27.6922 146.203C27.4462 146.834 27.0968 146.853 26.7087 146.752C26.7383 146.031 26.7489 145.309 26.7641 144.589C26.771 144.229 26.7778 143.869 26.7846 143.509C26.7915 143.149 26.7983 142.789 26.7998 142.43C26.8059 141.712 26.812 140.994 26.8188 140.278L26.8249 139.742V139.206C26.8272 138.849 26.8287 138.492 26.8302 138.136L26.8758 136.824C26.8917 136.387 26.8993 135.949 26.9122 135.512L26.951 134.199L26.9722 133.542L26.9882 132.885C27.0094 132.009 27.036 131.132 27.0664 130.255C27.0884 129.379 27.1165 128.501 27.1515 127.622C27.0839 128.483 27.0345 129.348 26.9988 130.217C26.9555 131.086 26.9229 131.959 26.9039 132.835C26.894 133.274 26.8849 133.713 26.875 134.153C26.8659 134.593 26.8583 135.034 26.8537 135.476C26.8454 136.359 26.8378 137.246 26.8294 138.137L26.7937 139.203L26.7763 139.736L26.7527 140.269L26.657 142.401C26.6426 142.757 26.6229 143.111 26.6008 143.467L26.5378 144.532C26.493 145.241 26.455 145.95 26.3958 146.659C26.0623 146.551 25.7152 146.448 25.3887 146.616C25.3887 146.616 25.375 147.49 25.3681 147.927C24.5205 149.661 23.379 149.191 22.5724 148.313C22.4091 148.089 22.2253 147.839 22.0423 147.56L22.04 147.556Z" fill="#CAA164"/>
<path d="M46.3195 102.774C46.2147 102.747 46.1099 102.719 46.0066 102.694C45.5274 102.596 45.0504 102.573 44.5696 102.561C44.4496 102.559 44.3289 102.558 44.2089 102.558H44.0281L43.8473 102.567C43.6058 102.58 43.3643 102.596 43.1197 102.615C42.9974 102.624 42.8752 102.633 42.7521 102.642C42.6291 102.651 42.5053 102.659 42.3822 102.675C42.1354 102.701 41.8863 102.728 41.6334 102.751C41.5065 102.762 41.3797 102.773 41.2521 102.784C41.1237 102.794 40.9946 102.801 40.8655 102.816C40.6065 102.84 40.3437 102.86 40.0756 102.873C39.885 102.87 39.6928 102.876 39.4984 102.888C39.3055 102.905 39.1118 102.931 38.9166 102.962C38.7222 102.992 38.527 103.028 38.331 103.069C38.1358 103.108 37.9399 103.151 37.7477 103.206C37.3619 103.312 36.9783 103.427 36.6024 103.54C36.2279 103.66 35.8626 103.789 35.5056 103.897C37.235 103.508 38.9994 103.101 40.7812 102.918C42.5584 102.731 44.3494 102.757 46.0362 103.197C45.8851 103.403 45.7172 103.584 45.5327 103.729C45.3481 103.875 45.1446 103.974 44.9175 103.997C44.6403 103.988 44.3638 103.976 44.0881 103.979C43.8132 103.984 43.5382 103.991 43.2648 104.001C42.7157 104.011 42.1741 104.07 41.6326 104.122C41.6037 103.96 41.5468 103.641 41.5179 103.481C41.1427 103.601 40.7721 103.72 40.3976 103.808C40.2108 103.852 40.0232 103.892 39.8356 103.927C39.6472 103.96 39.4619 104.004 39.2743 104.036C38.8999 104.106 38.5224 104.157 38.1465 104.214C37.7697 104.275 37.3945 104.335 37.0186 104.396C36.9244 104.411 36.8302 104.425 36.736 104.442L36.4558 104.499C36.2689 104.538 36.0829 104.578 35.8968 104.62C35.7107 104.663 35.5254 104.708 35.3401 104.757C35.1563 104.809 34.9747 104.869 34.7932 104.932C34.6117 104.994 34.4317 105.061 34.2532 105.133C34.0747 105.206 33.8962 105.28 33.7238 105.372C33.3775 105.552 33.0388 105.755 32.7114 105.99C32.8474 106.032 32.8352 106.18 32.8527 106.286C32.8458 106.289 32.839 106.292 32.8322 106.294C32.839 106.291 32.8451 106.289 32.8527 106.286C32.8679 106.38 32.9058 106.442 33.0858 106.373C32.9058 106.442 32.8679 106.379 32.8527 106.286C33.202 106.132 33.5507 105.982 33.8993 105.838C34.0724 105.763 34.2502 105.702 34.4256 105.637C34.6018 105.574 34.778 105.512 34.9542 105.45C35.1304 105.388 35.3059 105.327 35.4829 105.269C35.6613 105.217 35.8391 105.164 36.0168 105.113C36.1953 105.062 36.373 105.011 36.5515 104.961C36.73 104.912 36.9077 104.862 37.0885 104.822C37.4492 104.74 37.81 104.66 38.1723 104.583C38.3523 104.542 38.5368 104.516 38.7191 104.484C38.9022 104.454 39.086 104.424 39.2698 104.394C39.4536 104.365 39.6374 104.335 39.8227 104.309C40.0088 104.288 40.1949 104.267 40.3817 104.246C40.5685 104.226 40.7554 104.206 40.9437 104.186C41.0379 104.176 41.1313 104.167 41.2255 104.157C41.3197 104.149 41.4154 104.144 41.5096 104.137L41.2901 104.16C41.2172 104.168 41.1442 104.181 41.0721 104.19C40.927 104.212 40.782 104.234 40.6369 104.256C40.3475 104.301 40.0574 104.345 39.7695 104.396C39.4832 104.456 39.1976 104.516 38.912 104.576C38.6265 104.637 38.3409 104.696 38.0606 104.775C37.4978 104.924 36.9335 105.067 36.3806 105.251L35.5489 105.516C35.2755 105.615 35.0013 105.714 34.7279 105.814C34.1773 106.005 33.641 106.234 33.0988 106.454C32.8261 106.56 32.5603 106.683 32.2929 106.802C32.0248 106.922 31.7567 107.042 31.4878 107.161C31.2228 107.288 30.9569 107.417 30.6911 107.545C30.4253 107.675 30.1549 107.796 29.8929 107.937C29.3665 108.213 28.828 108.473 28.304 108.768C28.124 108.865 27.7624 109.06 27.5824 109.158C27.1062 109.149 26.6672 109.218 26.2563 109.339C26.1538 109.37 26.052 109.402 25.954 109.441C25.8568 109.481 25.7611 109.524 25.667 109.569C25.4794 109.66 25.2978 109.763 25.1216 109.874C24.9895 109.472 24.5254 109.038 24.2938 108.627C24.0621 108.217 24.0705 107.819 24.8983 107.497C24.8133 107.356 24.6431 107.076 24.5588 106.935C23.5973 107.051 22.6509 106.731 22.0866 106.189C21.8109 105.916 21.6226 105.59 21.5914 105.231C21.5595 104.873 21.6788 104.481 21.9962 104.087C22.0881 103.981 22.1854 103.877 22.2879 103.776C22.3388 103.725 22.3912 103.675 22.4443 103.625C22.4983 103.578 22.5545 103.53 22.6114 103.484C22.8385 103.298 23.0823 103.121 23.3391 102.95C23.8479 102.601 24.4267 102.312 25.0153 102.014C25.1634 101.941 25.31 101.863 25.4619 101.795C25.6138 101.726 25.7657 101.656 25.9183 101.586C26.2229 101.446 26.529 101.304 26.8313 101.155C27.1358 101.011 27.4419 100.871 27.7397 100.716C27.8893 100.64 28.0366 100.561 28.1824 100.48C28.3275 100.397 28.4726 100.314 28.6169 100.232C29.043 100.008 29.4706 99.7838 29.902 99.5674C30.3372 99.3593 30.7785 99.1671 31.225 98.9848C31.3367 98.9393 31.4483 98.8952 31.5607 98.8519C31.6747 98.8117 31.7886 98.7729 31.9025 98.7357C32.1311 98.6605 32.3613 98.5899 32.5937 98.5246C32.8261 98.4608 33.0585 98.3977 33.2962 98.3499C33.534 98.3043 33.774 98.2648 34.0147 98.2329C34.3489 98.1957 34.6801 98.1425 35.015 98.0917C35.3507 98.0453 35.6864 97.9906 36.0221 97.9322C36.19 97.9018 36.3578 97.8714 36.5257 97.8418C36.6935 97.8106 36.8636 97.7871 37.033 97.759C37.371 97.7043 37.7097 97.6496 38.0492 97.5949L38.3029 97.5547L38.5581 97.5228C38.7282 97.503 38.8984 97.4825 39.0685 97.4628C39.4088 97.4263 39.7475 97.3891 40.087 97.3694C40.4273 97.3542 40.766 97.3466 41.1025 97.3489C41.2711 97.3504 41.4389 97.3542 41.606 97.3618C41.7731 97.3678 41.941 97.3876 42.1073 97.4051C42.3465 97.4134 42.6238 97.3754 42.9139 97.3208C43.059 97.2934 43.2071 97.2615 43.3552 97.2289C43.504 97.1992 43.6529 97.1727 43.798 97.1468C44.3805 97.0466 44.9106 96.9889 45.1651 97.2159C45.5213 97.4271 45.56 97.7749 45.5395 98.1668C45.1598 98.1729 44.783 98.2063 44.4048 98.2329C44.2165 98.2474 44.0273 98.261 43.839 98.2755L43.5564 98.2967C43.4623 98.3043 43.3688 98.3165 43.2747 98.3256C42.8995 98.3658 42.5243 98.4053 42.1506 98.4448L41.8696 98.4737L41.5901 98.5101C41.404 98.5337 41.2179 98.5572 41.0318 98.58L40.3399 98.6271C40.109 98.6423 39.8797 98.6696 39.6488 98.6894L38.9561 98.7517L38.6082 98.7813C38.4928 98.7919 38.3773 98.8071 38.2619 98.8193C37.8001 98.8709 37.3353 98.9165 36.8682 98.9605C36.4041 99.0167 35.937 99.0676 35.4661 99.1124C35.9363 99.1003 36.4011 99.0722 36.8636 99.0296C37.3285 98.9985 37.7925 98.9582 38.2535 98.9051C38.369 98.8914 38.4837 98.8777 38.5991 98.8641C38.7146 98.8527 38.8308 98.8405 38.947 98.8291C39.1786 98.8048 39.4095 98.7782 39.6412 98.7494C39.8728 98.722 40.103 98.6863 40.3346 98.6605C40.5663 98.6339 40.7987 98.6066 41.0318 98.58L41.5931 98.5413L41.8734 98.5215L42.1544 98.5101L43.2762 98.4684C43.3696 98.4653 43.463 98.4608 43.5564 98.4593H43.8375L44.398 98.46C44.7717 98.4638 45.1431 98.4585 45.5167 98.482C45.4886 98.8193 45.4666 99.1709 45.5805 99.4876C45.5805 99.4876 46.0279 99.4565 46.2512 99.4413C46.7259 99.8195 46.9135 100.3 46.9393 100.792C46.9644 101.283 46.8292 101.786 46.6439 102.21C46.5466 102.384 46.4388 102.58 46.3188 102.776L46.3195 102.774Z" fill="#CAA164"/>
<path d="M46.234 121.392C46.1345 121.393 46.0342 121.394 45.9363 121.398C44.1545 121.55 42.6066 122.315 40.7048 122.689C39.3384 122.858 37.969 123.556 36.7196 124.031C39.7888 123.186 42.8602 121.893 46.1094 121.871C45.9598 122.343 45.7259 122.762 45.3256 122.915C44.3086 123.139 43.3198 123.401 42.3514 123.691C42.2921 123.537 42.1775 123.235 42.1197 123.082C39.6179 124.563 36.6513 124.288 34.2656 126.074C34.3917 126.12 34.3834 126.266 34.4008 126.373C34.3948 126.376 34.3879 126.378 34.3818 126.381C34.3879 126.379 34.394 126.376 34.4008 126.373C34.416 126.466 34.4525 126.529 34.6196 126.466C34.4532 126.53 34.4168 126.466 34.4008 126.373C36.9778 125.22 39.4971 124.429 42.2412 123.725C38.0472 124.994 34.2231 126.793 30.0367 128.388C29.8582 128.455 29.5012 128.592 29.3227 128.659C28.4334 128.472 27.6609 128.59 26.947 128.862C26.8331 128.027 25.5351 126.767 27.0799 126.529C27.0214 126.376 26.9045 126.069 26.8467 125.916C25.1265 125.694 23.773 123.751 24.9677 122.594C26.3402 121.369 28.7159 121.166 30.5623 120.112C31.9324 119.415 33.3018 118.717 34.8459 118.48C36.9847 118.192 39.068 117.222 41.2653 117.088C42.0377 116.969 43.1124 116.033 43.6448 116.357C43.9851 116.479 44.1195 116.802 44.219 117.181C43.0251 117.574 41.8486 118.003 40.666 118.376C39.1812 118.746 37.6895 119.095 36.1545 119.33C37.7017 119.223 39.1888 118.843 40.666 118.376C41.8736 118.076 43.0775 117.764 44.2942 117.489C44.3709 117.817 44.4552 118.159 44.6405 118.435C44.6405 118.435 44.9975 118.299 45.176 118.231C46.1823 118.725 46.4125 119.867 46.3479 120.769C46.316 120.96 46.2811 121.174 46.234 121.392Z" fill="#CAA164"/>
<path d="M57.2195 137.398C57.1709 137.406 57.1223 137.414 57.0759 137.422C56.6878 137.535 56.4319 137.751 56.1926 137.989C55.9518 138.226 55.7255 138.485 55.3906 138.697C54.8369 138.941 54.6607 139.523 54.4002 139.958C54.8407 139.52 55.2098 139.026 55.6739 138.605C56.1364 138.185 56.6924 137.838 57.4815 137.722C57.7261 138.042 57.8985 138.331 57.8089 138.456C57.4671 138.669 57.1686 138.913 56.902 139.176C56.7645 139.084 56.4972 138.903 56.362 138.812C56.2708 139.389 55.822 139.702 55.4111 140.054C55.0017 140.405 54.6265 140.793 54.7214 141.459C54.8164 141.47 54.9212 141.555 55.0101 141.614C55.0875 141.666 55.1521 141.698 55.1847 141.642C55.1521 141.698 55.0875 141.667 55.0101 141.614C55.3837 140.634 56.0354 139.88 56.8724 139.207C56.2989 139.782 55.882 140.453 55.5167 141.154C55.1506 141.856 54.8392 142.589 54.4693 143.316C54.4381 143.379 54.3751 143.503 54.3432 143.565C53.7797 143.594 53.5055 143.78 53.3855 144.036C52.6761 143.618 51.0644 143.185 51.6181 142.786C51.4707 142.715 51.1753 142.572 51.0279 142.5C50.5282 142.594 49.7322 142.455 49.019 142.188C48.3066 141.919 47.6785 141.52 47.5251 141.079C47.3884 140.602 47.5836 140.208 47.8274 139.82C47.9489 139.625 48.0864 139.434 48.198 139.23C48.3127 139.026 48.4046 138.812 48.4433 138.572C48.6188 137.911 48.8163 137.245 49.4421 136.845C49.8879 136.582 50.2115 136.226 50.554 135.883C50.8981 135.542 51.2642 135.217 51.789 135.037C52.1065 134.865 52.0396 134.114 52.5341 134.272C52.7938 134.316 53.0779 134.52 53.3817 134.764C53.027 135.152 52.711 135.566 52.3632 135.953C51.8558 136.374 51.3371 136.794 50.7226 137.169C51.435 136.871 51.9272 136.437 52.3632 135.953C52.7748 135.611 53.1834 135.271 53.6255 134.963C53.8845 135.176 54.1564 135.396 54.4359 135.563C54.4359 135.563 54.527 135.439 54.5726 135.377C55.4141 135.617 56.283 136.374 56.8579 136.977C56.9696 137.106 57.0964 137.25 57.221 137.398H57.2195Z" fill="#CAA164"/>
<path d="M93.7641 99.9185C93.5788 100.033 93.3942 100.149 93.2104 100.263C89.9028 102.478 87.0637 105.234 83.6216 107.981C81.1433 109.835 78.7045 112.379 76.5141 114.538C79.2218 112.093 81.9606 109.547 84.7867 107.154C87.6105 104.759 90.518 102.51 93.5279 100.653C93.3881 101.03 93.2074 101.412 92.9735 101.785C92.7395 102.158 92.4486 102.517 92.0803 102.84C91.6132 103.201 91.1461 103.56 90.6866 103.926C90.2278 104.292 89.7729 104.659 89.3202 105.027C88.4118 105.76 87.5278 106.512 86.6483 107.261C86.5366 107.139 86.3186 106.901 86.2085 106.781C85.6404 107.377 85.0685 107.959 84.4821 108.518C83.8973 109.077 83.3003 109.617 82.7056 110.154C82.1094 110.69 81.5049 111.212 80.901 111.733C80.298 112.254 79.6965 112.775 79.0957 113.296C76.6987 115.39 74.3457 117.543 72.3376 120.178C72.5639 120.073 72.5624 120.266 72.6042 120.374C72.5928 120.386 72.5821 120.397 72.5723 120.408C72.5829 120.397 72.5935 120.386 72.6042 120.374C72.6399 120.471 72.7105 120.502 72.9968 120.211C72.7097 120.502 72.6399 120.471 72.6042 120.374C74.8083 118.01 77.0329 115.811 79.3182 113.678C81.6051 111.547 83.9664 109.497 86.4477 107.433C85.97 107.838 85.5044 108.254 85.0366 108.666C84.571 109.08 84.1069 109.494 83.6429 109.907C83.1857 110.328 82.7284 110.748 82.272 111.167C81.817 111.588 81.3621 112.007 80.9155 112.435C80.02 113.288 79.1245 114.139 78.2473 115.009L76.928 116.311C76.4928 116.75 76.0584 117.189 75.6232 117.629C73.8817 119.387 72.1705 121.185 70.4479 123.003C70.0203 123.46 69.5912 123.919 69.1613 124.378C68.7322 124.839 68.297 125.296 67.8701 125.762C67.0126 126.693 66.1415 127.621 65.2772 128.569C64.9817 128.891 64.3893 129.535 64.0931 129.857C63.3237 130.34 62.6158 130.881 61.952 131.463C61.6194 131.753 61.3011 132.056 60.9935 132.37C60.6859 132.682 60.3874 133.003 60.0966 133.331C59.7745 132.459 57.3737 132.691 59.9629 130.27C59.8406 130.16 59.596 129.942 59.4738 129.832C56.5185 131.924 53.8929 131.427 55.7727 128.316C56.3134 127.453 56.9841 126.592 57.7246 125.717C58.4621 124.84 59.2869 123.967 60.1323 123.075C60.5538 122.628 60.9882 122.183 61.4234 121.735C61.8586 121.286 62.2938 120.834 62.7252 120.377C63.1581 119.921 63.5903 119.465 64.0096 119.002C64.4311 118.54 64.8374 118.069 65.2362 117.601C67.596 114.91 70.0082 112.255 72.7918 109.989C73.2748 109.604 73.7525 109.204 74.2341 108.8C74.7164 108.398 75.1971 107.987 75.6771 107.57C76.6349 106.735 77.6033 105.89 78.5716 105.047C79.0539 104.624 79.5468 104.211 80.036 103.797C80.5266 103.386 81.0165 102.976 81.5132 102.579C82.0107 102.183 82.5104 101.795 83.0125 101.418C83.5145 101.04 84.0188 100.674 84.5315 100.328C84.8915 100.061 85.2857 99.7081 85.6905 99.3253C85.8933 99.1339 86.0984 98.9349 86.3027 98.7352C86.5093 98.5377 86.7159 98.3402 86.9171 98.1473C87.7275 97.3818 88.4802 96.7172 88.9784 96.6109C89.6179 96.3709 89.8655 96.6184 90.0463 96.9762C89.482 97.4402 88.9283 97.9157 88.3731 98.3881C87.8194 98.862 87.2627 99.3306 86.7151 99.8091C85.6176 100.762 84.5231 101.712 83.4355 102.656C80.7005 104.901 77.9762 107.165 75.2085 109.393C78.0066 107.309 80.7157 105.014 83.4355 102.656L84.2695 101.971L84.6864 101.629L85.1065 101.29L86.7865 99.936C87.3455 99.4833 87.9144 99.0428 88.4787 98.597C89.0453 98.1542 89.6088 97.7076 90.183 97.2739C90.3228 97.5952 90.4754 97.9248 90.8202 98.0554C90.8202 98.0554 91.4901 97.4774 91.8251 97.1881C93.7011 96.6526 94.1066 97.8192 93.9783 99.0139C93.9175 99.2866 93.8499 99.5934 93.7603 99.9185H93.7641Z" fill="#CAA164"/>
<path d="M62.0483 161.332C61.7969 161.298 61.5455 161.263 61.2964 161.23C56.6869 160.738 52.0774 160.902 46.9568 160.574C43.3719 160.246 39.2751 160.41 35.691 160.41C44.1869 160.712 53.1157 160.598 61.2781 161.734C60.4533 162.121 59.4667 162.43 58.3191 162.43C55.5567 162.278 52.8301 162.171 50.1262 162.098V161.446C42.4446 161.938 35.274 160.626 27.5931 161.446C27.8665 161.533 27.704 161.667 27.6478 161.773C27.6288 161.773 27.6106 161.773 27.5931 161.774C27.6106 161.774 27.6288 161.774 27.6478 161.773C27.5969 161.866 27.628 161.938 28.1058 161.938C27.628 161.938 27.5962 161.866 27.6478 161.773C35.2049 161.614 42.2714 161.772 49.8179 162.09C38.1002 161.783 26.8025 162.103 14.7908 162.103H12.7432C10.6948 161.611 8.64562 161.447 6.59799 161.447C7.10914 160.627 5.06074 158.986 9.15829 159.314V158.658C5.06074 157.838 3.52349 155.541 7.62181 154.885C12.2305 154.229 18.3757 154.885 24.0082 154.557C28.1058 154.393 32.2033 154.229 36.2986 154.557C41.9319 155.049 48.0771 154.885 53.7096 155.541C55.7588 155.705 59.3444 155.213 60.369 155.705C61.105 155.94 61.1338 156.29 61.0214 156.679C57.6545 156.622 54.2975 156.603 50.9784 156.532C46.9067 156.348 42.8342 156.144 38.7647 155.818C42.7446 156.269 46.8323 156.443 50.9784 156.532C54.2899 156.682 57.6036 156.818 60.9158 156.994C60.7951 157.329 60.6781 157.678 60.8801 158.002H62.4159C64.465 158.822 63.9516 159.97 62.9293 160.791C62.668 160.957 62.3749 161.145 62.0483 161.333V161.332Z" fill="#CAA164"/>
<path d="M61.3018 88.9657C61.0542 88.9316 60.8059 88.8966 60.5598 88.864C56.0111 88.3718 51.4624 88.5358 46.4086 88.2077C42.8708 87.8796 38.8279 88.0437 35.2909 88.0437C43.6751 88.346 52.4862 88.2313 60.5416 89.3675C59.7274 89.7549 58.7544 90.064 57.6213 90.064C54.8954 89.9113 52.2044 89.8042 49.5363 89.7313V89.0797C41.9556 89.5718 34.88 88.2594 27.2993 89.0797C27.569 89.167 27.4087 89.3007 27.3533 89.407C27.3343 89.407 27.3168 89.407 27.2993 89.4078C27.3168 89.4078 27.3343 89.4078 27.3533 89.407C27.3031 89.4997 27.3335 89.5718 27.8052 89.5718C27.3335 89.5718 27.3024 89.4997 27.3533 89.407C34.8109 89.2475 41.784 89.4055 49.2317 89.7237C37.6682 89.4169 26.5186 89.7366 14.6657 89.7366H12.6446C10.6228 89.2445 8.60098 89.0804 6.58068 89.0804C7.085 88.2601 5.06394 86.6196 9.10757 86.9477V86.2915C5.0647 85.4705 3.54796 83.1737 7.59159 82.5175C12.1395 81.8613 18.2042 82.5175 23.7623 82.1894C27.8059 82.0254 31.8496 81.8613 35.8909 82.1894C41.4498 82.6816 47.5145 82.5175 53.0726 83.1737C55.0951 83.3378 58.6329 82.8456 59.6438 83.3378C60.3699 83.5732 60.3988 83.9226 60.2879 84.3122C56.965 84.2545 53.6528 84.2363 50.377 84.1649C46.3585 83.9811 42.3399 83.7768 38.3244 83.451C42.2518 83.9014 46.2856 84.076 50.377 84.1649C53.6452 84.3145 56.9157 84.4505 60.1838 84.6267C60.0646 84.9616 59.9492 85.311 60.1489 85.6345H61.6649C63.6875 86.4548 63.1809 87.6032 62.1715 88.4234C61.914 88.5898 61.6246 88.7781 61.3018 88.9657Z" fill="#CAA164"/>
<path d="M59.6109 159.451C59.6451 159.128 59.6801 158.805 59.7127 158.484C60.2049 152.561 60.0408 146.638 60.3689 140.057C60.697 135.449 60.533 130.185 60.533 125.58C60.2307 136.498 60.3454 147.972 59.2092 158.462C58.8218 157.401 58.5127 156.134 58.5127 154.659C58.6654 151.109 58.7724 147.605 58.8454 144.131H59.497C59.0049 134.259 60.3173 125.045 59.497 115.173C59.4097 115.524 59.276 115.316 59.1697 115.243C59.1697 115.219 59.1697 115.195 59.1689 115.173C59.1689 115.196 59.1689 115.219 59.1697 115.243C59.077 115.177 59.0049 115.218 59.0049 115.831C59.0049 115.217 59.077 115.177 59.1697 115.243C59.3292 124.955 59.1712 134.034 58.853 143.733C59.1598 128.675 58.84 114.156 58.84 98.7206V96.0889C59.3322 93.4565 59.4963 90.8233 59.4963 88.1923C60.3165 88.8493 61.9571 86.2169 61.629 91.4825H62.2852C63.1055 86.2169 65.4022 84.2421 66.0584 89.5078C66.7146 95.4296 66.0584 103.328 66.3865 110.566C66.5506 115.831 66.7146 121.097 66.3865 126.36C65.8944 133.599 66.0584 141.497 65.4022 148.735C65.2382 151.368 65.7303 155.976 65.2382 157.292C65.0027 158.238 64.6533 158.275 64.2637 158.131C64.3214 153.804 64.3397 149.49 64.4111 145.224C64.5949 139.991 64.7992 134.758 65.125 129.529C64.6746 134.644 64.4999 139.896 64.4111 145.224C64.2614 149.48 64.1255 153.738 63.9493 157.995C63.6143 157.839 63.2649 157.689 62.9414 157.949V159.923C62.1211 162.556 60.9727 161.897 60.1525 160.583C59.9861 160.247 59.7978 159.871 59.6102 159.451H59.6109Z" fill="#CAA164"/>
<path d="M6.96502 86.5209C6.93084 86.8437 6.8959 87.1665 6.86325 87.487C6.37108 93.4103 6.53514 99.3337 6.20703 105.915C5.87892 110.522 6.04297 115.786 6.04297 120.392C6.34526 109.474 6.23057 97.9993 7.3668 87.5098C7.75415 88.57 8.06327 89.8376 8.06327 91.3126C7.91061 94.8625 7.80352 98.3661 7.73061 101.841H7.07895C7.57111 111.712 6.25868 120.926 7.07895 130.798C7.16629 130.448 7.29996 130.656 7.40629 130.729C7.40629 130.753 7.40629 130.776 7.40705 130.798C7.40705 130.776 7.40705 130.753 7.40629 130.729C7.49895 130.795 7.57111 130.754 7.57111 130.14C7.57111 130.754 7.49895 130.795 7.40629 130.729C7.2468 121.017 7.40478 111.936 7.72301 102.238C7.41617 117.297 7.73592 131.815 7.73592 147.251V149.883C7.24376 152.515 7.07971 155.148 7.07971 157.779C6.25944 157.122 4.61889 159.755 4.947 154.489H4.29079C3.47052 159.755 1.17376 161.729 0.517542 156.464C-0.138675 150.542 0.517542 142.644 0.189433 135.406C0.0253793 130.14 -0.138675 124.874 0.189433 119.611C0.681596 112.372 0.517542 104.474 1.17376 97.2367C1.33781 94.6035 0.84565 89.9956 1.33781 88.6794C1.57326 87.7338 1.92263 87.6966 2.31226 87.8409C2.25454 92.1678 2.23631 96.4818 2.16492 100.747C1.98112 105.98 1.77681 111.213 1.45098 116.442C1.90137 111.328 2.07606 106.075 2.16492 100.747C2.31454 96.4916 2.45049 92.2331 2.6267 87.9768C2.96164 88.1325 3.31102 88.2822 3.63457 88.0224V86.0485C4.45484 83.4153 5.60322 84.0745 6.42349 85.3885C6.58982 85.7242 6.77818 86.1009 6.96578 86.5209H6.96502Z" fill="#CAA164"/>
<path d="M29.587 183.506C29.6212 183.391 29.6561 183.277 29.6888 183.163C30.181 181.061 30.0169 178.959 30.345 176.623C30.6731 174.987 30.5091 173.119 30.5091 171.484C30.2068 175.359 30.3207 179.432 29.1852 183.155C28.7979 182.778 28.4888 182.329 28.4888 181.805C28.6414 180.545 28.7485 179.302 28.8214 178.069H29.4731C28.9809 174.565 30.2934 171.294 29.4731 167.79C29.3857 167.915 29.2521 167.841 29.1457 167.815C29.1457 167.807 29.1457 167.799 29.145 167.79C29.145 167.798 29.145 167.806 29.1457 167.815C29.3052 171.263 29.1473 174.485 28.829 177.928C29.1359 172.583 28.8161 167.43 28.8161 161.951V161.017C29.3083 160.083 29.4723 159.148 29.4723 158.214C30.2926 158.448 31.9331 157.513 31.605 159.383H32.2613C33.0815 157.513 35.3783 156.812 36.0345 158.682C36.6907 160.784 36.0345 163.587 36.3626 166.156C36.5267 168.025 36.6907 169.894 36.3626 171.762C35.8704 174.331 36.0345 177.134 35.3783 179.704C35.2142 180.639 35.7064 182.274 35.2142 182.741C34.9788 183.077 34.6294 183.09 34.2398 183.039C34.2975 181.503 34.3157 179.972 34.3871 178.458C34.5709 176.601 34.7752 174.743 35.1011 172.887C34.6507 174.702 34.476 176.566 34.3871 178.458C34.2375 179.968 34.1015 181.48 33.9253 182.99C33.5904 182.935 33.241 182.882 32.9175 182.974V183.675C32.0972 184.61 30.9488 184.375 30.1286 183.909C29.9622 183.789 29.7739 183.656 29.5863 183.507L29.587 183.506Z" fill="#CAA164"/>
<path d="M36.135 172.356C35.9732 172.413 35.8114 172.471 35.6519 172.53C32.7589 173.71 30.2055 175.451 27.1044 176.949C24.8821 177.914 22.6225 179.477 20.5711 180.722C25.5907 178.03 30.6414 174.831 35.9026 172.967C35.6314 173.585 35.2274 174.191 34.5704 174.59C32.9101 175.419 31.2939 176.275 29.7088 177.151C29.6229 177.01 29.4551 176.734 29.3708 176.595C25.2299 179.683 20.445 181.051 16.4735 184.42C16.6756 184.401 16.652 184.571 16.6748 184.681C20.9174 181.919 25.0431 179.601 29.528 177.252C22.662 181.059 16.3619 185.256 9.48681 189.427C9.1944 189.605 8.60806 189.96 8.31489 190.138C6.88701 190.429 5.62926 191 4.45734 191.711C4.32442 190.832 2.30109 190.141 4.81659 188.998C4.73152 188.858 4.56139 188.577 4.47632 188.437C1.70563 189.159 -0.365549 187.73 1.63956 185.745C3.93707 183.584 7.79462 182.01 10.8479 179.774C13.1082 178.211 15.3677 176.647 17.8824 175.505C21.3617 173.97 24.794 171.695 28.3583 170.3C29.6161 169.729 31.4131 168.062 32.2546 168.128C32.7977 168.074 32.9959 168.362 33.1334 168.734C31.1761 169.855 29.2455 171.005 27.3087 172.097C24.8828 173.354 22.4463 174.593 19.9475 175.728C22.4592 174.731 24.8889 173.46 27.3087 172.097C29.2819 171.074 31.249 170.04 33.2359 169.04C33.34 169.368 33.4547 169.707 33.7387 169.914C33.7387 169.914 34.3243 169.558 34.6175 169.381C36.2162 169.37 36.5178 170.531 36.3583 171.587C36.2952 171.82 36.2246 172.082 36.135 172.357V172.356Z" fill="#CAA164"/>
<path d="M62.7782 192.832C62.6681 192.716 62.558 192.601 62.4493 192.487C60.3539 190.483 57.8687 189.055 55.3555 187.085C53.6451 185.622 51.3886 184.427 49.4739 183.292C51.6643 184.771 53.9451 186.225 56.1242 187.789C58.3032 189.35 60.3827 191.017 62.1585 192.898C61.5205 192.932 60.8422 192.853 60.2521 192.461C59.9179 192.194 59.5845 191.928 59.2488 191.668C58.9123 191.409 58.5751 191.153 58.2371 190.9C57.5634 190.391 56.8799 189.904 56.1978 189.421C56.2867 189.282 56.4606 189.01 56.5487 188.872C54.4122 187.803 52.5742 186.414 50.6899 185.085C48.8063 183.758 46.8832 182.48 44.6153 181.656C44.7186 181.816 44.5652 181.882 44.4824 181.956C44.4718 181.951 44.4626 181.946 44.4528 181.94C44.4619 181.946 44.4718 181.951 44.4824 181.956C46.5505 183.046 48.4979 184.197 50.4028 185.413C52.3069 186.632 54.1608 187.927 56.0421 189.312C53.0755 187.234 50.0344 185.386 46.9272 183.613C45.3748 182.724 43.8003 181.863 42.2107 180.996C40.6165 180.137 39.0078 179.271 37.3711 178.4C37.0924 178.251 36.5349 177.953 36.2554 177.803C35.3652 176.78 34.3171 176.044 33.1885 175.468C33.8455 174.884 33.4581 172.839 35.5809 174.301C35.6561 174.155 35.808 173.864 35.8832 173.718C33.9882 171.82 34.1477 169.321 36.7574 169.923C37.4827 170.109 38.221 170.405 38.9744 170.759C39.7294 171.111 40.4927 171.534 41.2704 171.973C42.0489 172.41 42.8327 172.879 43.6333 173.318C44.4292 173.764 45.2381 174.188 46.0568 174.553C48.403 175.68 50.7369 176.847 52.799 178.46C53.1507 178.742 53.5122 179.016 53.879 179.289C54.2451 179.563 54.618 179.833 54.9955 180.099C55.7527 180.629 56.5183 181.163 57.2839 181.698C58.048 182.234 58.8052 182.781 59.5381 183.345C60.2673 183.915 60.9759 184.497 61.6306 185.122C62.1266 185.546 62.9202 185.958 63.616 186.374C64.3124 186.788 64.92 187.19 65.0514 187.575C65.3051 188.031 65.1251 188.331 64.8486 188.614C63.1215 187.384 61.3678 186.206 59.6452 185.02C57.5854 183.482 55.5181 181.948 53.4871 180.342C55.4057 182.025 57.4951 183.536 59.6452 185.02C61.3215 186.269 62.9871 187.532 64.6185 188.838C64.3686 189.074 64.1134 189.323 64.0375 189.662C64.0375 189.662 64.5691 190.021 64.835 190.201C65.438 191.598 64.5205 192.365 63.5347 192.688C63.3068 192.735 63.0509 192.789 62.7782 192.831V192.832Z" fill="#CAA164"/>
<path d="M47.5 146.5L50.5 17.5L68 10L131 5L169.5 14L166 156.5H56L47.5 146.5Z" fill="white"/>
<path d="M84.4865 135.294C84.5633 134.858 84.6401 134.421 84.7169 133.99C85.0132 131.988 85.1762 129.981 85.311 127.959C85.4505 125.937 85.5038 123.901 85.554 121.835C85.5759 120.802 85.6073 119.763 85.6182 118.714C85.6339 117.666 85.648 116.608 85.6637 115.54C85.6888 114.471 85.7154 113.393 85.7405 112.302C85.7656 111.211 85.8016 110.106 85.8534 108.986C86.3346 102.709 85.67 95.5686 85.2373 89.3284C85.4192 96.749 85.6825 104.348 85.5571 111.88C85.438 119.409 84.9458 126.868 83.6808 133.944C83.2905 133.222 82.9503 132.431 82.6948 131.574C82.4393 130.717 82.2842 129.79 82.2889 128.796C82.3704 127.6 82.4566 126.406 82.5193 125.216C82.5789 124.027 82.6321 122.84 82.6807 121.655C82.7905 119.286 82.8234 116.931 82.8594 114.582C83.2011 114.575 83.8673 114.56 84.2043 114.554C84.0554 112.886 83.9253 111.234 83.8517 109.59C83.7764 107.946 83.7482 106.312 83.7153 104.684C83.6886 103.055 83.698 101.433 83.7012 99.8119C83.7012 98.1911 83.7012 96.5734 83.7012 94.9573C83.6651 88.4898 83.4582 82.0067 82.0051 75.4263C81.8656 75.9154 81.5678 75.6599 81.3405 75.5815C81.1415 75.5109 80.9988 75.5783 81.0694 76.4044C80.9972 75.5783 81.1415 75.5094 81.3405 75.5815C82.1039 82.1038 82.5553 88.4459 82.8046 94.7912C82.8579 96.3775 82.9018 97.9654 82.9409 99.5548C82.977 101.146 82.9786 102.74 82.9895 104.34C82.9895 105.14 82.9927 105.942 82.9942 106.746C82.9848 107.551 82.9739 108.356 82.9645 109.165C82.9519 109.974 82.9394 110.784 82.9253 111.598C82.9127 112.411 82.8955 113.227 82.8673 114.046C82.8908 112.775 82.8735 111.507 82.8704 110.24C82.861 108.974 82.8532 107.71 82.8328 106.449C82.7983 105.187 82.7638 103.928 82.7293 102.669C82.6901 101.411 82.6541 100.154 82.5883 98.8996C82.4676 96.39 82.3516 93.882 82.1713 91.3803C82.0851 90.1279 81.9989 88.877 81.9127 87.6246C81.8092 86.3737 81.7058 85.1228 81.6023 83.8704C81.1885 78.8607 80.6524 73.8463 80.0928 68.7895C79.9423 67.5261 79.7918 66.2611 79.6398 64.9915C79.4862 63.7218 79.3467 62.449 79.1774 61.1746C78.8482 58.6243 78.5425 56.0567 78.1852 53.4766C78.0676 52.5973 77.834 50.8354 77.7165 49.9545C77.9688 48.1252 78.0472 46.3147 78.0018 44.5215C77.9892 44.0732 77.972 43.6249 77.9438 43.1797C77.9124 42.7346 77.8732 42.2894 77.8278 41.8458C77.7368 40.9586 77.6209 40.0761 77.4829 39.1967C79.2918 39.8175 82.0867 35.7404 82.5193 42.9462C82.8532 42.896 83.5241 42.7957 83.8579 42.7455C84.1463 39.0635 85.3471 36.3548 86.7892 35.4316C88.2281 34.5115 89.91 35.3799 91.1421 38.8864C91.4634 39.8754 91.7675 40.9116 92.0136 41.9916C92.2644 43.0716 92.4886 44.1923 92.6924 45.346C93.1124 47.6502 93.3993 50.0893 93.6924 52.5832C93.8429 53.8293 93.9683 55.0943 94.0984 56.3655C94.2301 57.6368 94.3664 58.9127 94.5154 60.1887C94.6596 61.4646 94.8006 62.7405 94.9731 64.0071C95.1392 65.2736 95.3414 66.5292 95.5468 67.7706C96.6377 75.0031 97.5688 82.281 97.3666 89.6169C97.318 90.8787 97.2992 92.1515 97.282 93.4353C97.2585 94.7191 97.2506 96.0122 97.2538 97.3117C97.2569 97.9607 97.26 98.6127 97.2632 99.2648C97.2632 99.9169 97.2632 100.571 97.2632 101.226C97.2648 102.535 97.2663 103.847 97.2679 105.159V106.143L97.2553 107.127C97.2444 107.783 97.2334 108.438 97.224 109.093C97.1973 110.402 97.1691 111.706 97.1127 113.004C97.05 114.302 96.9716 115.592 96.8729 116.871C96.7757 118.15 96.6566 119.418 96.4904 120.671C96.412 121.581 96.4199 122.663 96.4591 123.801C96.4794 124.37 96.5061 124.953 96.5359 125.536C96.5578 126.119 96.5813 126.702 96.6017 127.271C96.6754 129.547 96.6707 131.598 96.1518 132.502C95.644 133.803 94.9229 133.844 94.1219 133.635C94.183 132.146 94.205 130.657 94.2363 129.17C94.2505 128.427 94.2646 127.684 94.2787 126.941C94.2928 126.198 94.3069 125.456 94.31 124.715C94.3226 123.232 94.3351 121.751 94.3492 120.274L94.3617 119.167V118.061C94.3664 117.324 94.3696 116.587 94.3727 115.852L94.4668 113.145C94.4997 112.242 94.5154 111.339 94.542 110.436L94.6219 107.726L94.6658 106.37L94.6988 105.014C94.7426 103.207 94.7975 101.398 94.8602 99.5877C94.9057 97.7788 94.9637 95.9668 95.0358 94.1532C94.8963 95.9307 94.7944 97.7161 94.7207 99.5093C94.6314 101.303 94.5639 103.104 94.5248 104.912C94.5044 105.817 94.4856 106.723 94.4652 107.632C94.4464 108.54 94.4307 109.45 94.4213 110.363C94.4041 112.186 94.3884 114.017 94.3711 115.854L94.2975 118.054L94.2614 119.155L94.2128 120.255L94.0153 124.655C93.9855 125.389 93.9448 126.121 93.8993 126.854L93.7692 129.052C93.6767 130.516 93.5984 131.98 93.4761 133.443C92.788 133.22 92.0716 133.007 91.3976 133.355C91.3976 133.355 91.3694 135.157 91.3553 136.06C89.606 139.639 87.25 138.669 85.5853 136.857C85.2483 136.394 84.869 135.877 84.4912 135.302L84.4865 135.294Z" fill="#CAA164"/>
<path d="M134.596 42.8738C134.38 42.8174 134.164 42.7594 133.95 42.7092C132.961 42.507 131.977 42.46 130.985 42.4349C130.737 42.4302 130.488 42.4271 130.24 42.4271H129.867L129.494 42.4475C128.996 42.4741 128.497 42.507 127.992 42.5446C127.74 42.5635 127.488 42.5823 127.234 42.6011C126.98 42.6199 126.724 42.6371 126.47 42.6685C125.961 42.7233 125.447 42.7782 124.925 42.8268C124.663 42.8487 124.401 42.8723 124.138 42.8942C123.873 42.9146 123.606 42.9302 123.34 42.96C122.805 43.0102 122.263 43.0509 121.71 43.0792C121.316 43.0729 120.92 43.0839 120.519 43.1089C120.12 43.145 119.721 43.1983 119.318 43.261C118.917 43.3237 118.514 43.3989 118.109 43.482C117.706 43.5635 117.302 43.6513 116.905 43.7657C116.109 43.9836 115.318 44.2219 114.542 44.4554C113.769 44.7031 113.015 44.968 112.278 45.1921C115.847 44.388 119.489 43.5478 123.166 43.1701C126.834 42.7845 130.53 42.8378 134.012 43.7469C133.7 44.1717 133.353 44.5448 132.972 44.8457C132.591 45.1467 132.171 45.3505 131.703 45.3975C131.13 45.3802 130.56 45.3536 129.991 45.3599C129.423 45.3708 128.856 45.385 128.292 45.4053C127.158 45.4273 126.041 45.548 124.923 45.6561C124.864 45.3207 124.746 44.6623 124.686 44.3332C123.912 44.5808 123.147 44.8254 122.374 45.0072C121.989 45.0997 121.602 45.1812 121.214 45.2533C120.826 45.3223 120.443 45.4116 120.056 45.479C119.283 45.6232 118.504 45.7282 117.728 45.8458C116.951 45.9712 116.177 46.095 115.401 46.2204C115.206 46.2518 115.012 46.2816 114.818 46.316L114.239 46.4336C113.853 46.5135 113.469 46.5966 113.085 46.6844C112.701 46.7722 112.319 46.8662 111.936 46.9666C111.557 47.0747 111.182 47.1985 110.808 47.3271C110.433 47.4556 110.062 47.5936 109.693 47.7425C109.325 47.8929 108.957 48.045 108.601 48.2362C107.886 48.6062 107.187 49.0262 106.511 49.5106C106.792 49.5968 106.767 49.9025 106.803 50.1219C106.789 50.1282 106.775 50.1345 106.761 50.1392C106.775 50.1329 106.787 50.1282 106.803 50.1219C106.834 50.3163 106.913 50.4448 107.284 50.3022C106.913 50.4433 106.834 50.3147 106.803 50.1219C107.524 49.8037 108.243 49.4949 108.963 49.1971C109.32 49.0419 109.687 48.9165 110.049 48.7833C110.413 48.6532 110.776 48.5246 111.14 48.3961C111.504 48.2691 111.866 48.1437 112.231 48.023C112.599 47.9149 112.966 47.8067 113.333 47.7001C113.701 47.5967 114.068 47.4917 114.437 47.3882C114.805 47.2863 115.172 47.1829 115.545 47.1014C116.289 46.9305 117.034 46.7659 117.782 46.6076C118.153 46.523 118.534 46.4681 118.91 46.4023C119.288 46.3411 119.667 46.2784 120.047 46.2173C120.426 46.1577 120.805 46.095 121.188 46.0417C121.572 45.9978 121.956 45.9555 122.342 45.9116C122.727 45.8709 123.113 45.8286 123.501 45.7878C123.696 45.7674 123.889 45.7486 124.083 45.7282C124.277 45.711 124.475 45.7016 124.669 45.6875L124.216 45.7345C124.066 45.7517 123.915 45.7768 123.766 45.7972C123.467 45.8427 123.168 45.8865 122.868 45.932C122.271 46.0245 121.672 46.117 121.078 46.222C120.487 46.3458 119.898 46.4681 119.308 46.5919C118.719 46.7189 118.13 46.8412 117.551 47.0026C116.39 47.3114 115.225 47.6061 114.084 47.9854L112.368 48.5325C111.803 48.7378 111.237 48.9416 110.673 49.1469C109.537 49.542 108.43 50.0153 107.311 50.4683C106.748 50.6878 106.199 50.9417 105.648 51.1878C105.094 51.4339 104.541 51.6816 103.986 51.9277C103.439 52.191 102.89 52.4559 102.342 52.7208C101.793 52.9889 101.235 53.2381 100.694 53.5297C99.6081 54.0987 98.4967 54.6348 97.4151 55.2445C97.0436 55.4451 96.2975 55.848 95.926 56.0502C94.9432 56.0298 94.0372 56.174 93.1892 56.4233C92.9775 56.486 92.7675 56.5534 92.5653 56.6333C92.3647 56.7164 92.1671 56.8042 91.9728 56.8982C91.5856 57.0863 91.211 57.2979 90.8473 57.5268C90.5746 56.6976 89.6168 55.801 89.1387 54.953C88.6607 54.1065 88.6779 53.2851 90.3865 52.6205C90.2109 52.3305 89.8598 51.7521 89.6858 51.4621C87.7013 51.7004 85.7482 51.0405 84.5836 49.9213C84.0146 49.3586 83.6258 48.6861 83.5616 47.9447C83.4957 47.2048 83.7418 46.3976 84.3971 45.584C84.5867 45.3646 84.7874 45.1498 84.999 44.9413C85.104 44.8363 85.2122 44.7329 85.3219 44.631C85.4332 44.5322 85.5492 44.435 85.6667 44.3394C86.1354 43.9554 86.6386 43.5902 87.1684 43.2375C88.2186 42.5164 89.4131 41.9208 90.6279 41.3048C90.9335 41.1543 91.2361 40.9944 91.5496 40.8533C91.8631 40.7107 92.1766 40.5665 92.4916 40.4223C93.1202 40.1323 93.7519 39.8391 94.3758 39.5335C95.0043 39.2357 95.636 38.9472 96.2505 38.6275C96.5593 38.4691 96.8634 38.3061 97.1643 38.1384C97.4637 37.9676 97.7631 37.7967 98.0609 37.6274C98.9403 37.165 99.8228 36.7026 100.713 36.2558C101.611 35.8263 102.522 35.4298 103.444 35.0536C103.674 34.9595 103.905 34.8686 104.137 34.7793C104.372 34.6962 104.607 34.6162 104.842 34.5394C105.314 34.3842 105.789 34.2385 106.268 34.1037C106.748 33.972 107.228 33.8419 107.718 33.7431C108.209 33.6491 108.704 33.5676 109.201 33.5017C109.891 33.4249 110.574 33.3152 111.266 33.2102C111.958 33.1146 112.651 33.0017 113.344 32.881C113.69 32.8183 114.037 32.7556 114.383 32.6945C114.73 32.6302 115.081 32.5816 115.43 32.5236C116.128 32.4108 116.827 32.2979 117.528 32.1851L118.051 32.102L118.578 32.0361C118.929 31.9954 119.28 31.9531 119.631 31.9123C120.334 31.8371 121.033 31.7603 121.733 31.7195C122.436 31.6882 123.135 31.6725 123.829 31.6772C124.177 31.6803 124.523 31.6882 124.868 31.7038C125.213 31.7164 125.56 31.7571 125.903 31.7932C126.397 31.8104 126.969 31.732 127.568 31.6192C127.867 31.5628 128.173 31.4969 128.478 31.4295C128.785 31.3684 129.093 31.3135 129.392 31.2602C130.594 31.0533 131.688 30.9342 132.214 31.4029C132.949 31.8386 133.029 32.5565 132.986 33.3654C132.203 33.3779 131.425 33.4469 130.645 33.5017C130.256 33.5315 129.866 33.5597 129.477 33.5895L128.894 33.6334C128.699 33.6491 128.506 33.6742 128.312 33.693C127.538 33.7761 126.763 33.8576 125.992 33.9391L125.412 33.9986L124.835 34.0739C124.451 34.1225 124.067 34.1711 123.683 34.2181L122.255 34.3153C121.779 34.3466 121.305 34.4031 120.829 34.4438L119.399 34.5724L118.681 34.6335C118.443 34.6554 118.205 34.6868 117.967 34.7119C117.014 34.8184 116.054 34.9125 115.09 35.0034C114.133 35.1194 113.168 35.2244 112.197 35.3169C113.167 35.2918 114.126 35.2338 115.081 35.1461C116.04 35.0818 116.998 34.9987 117.949 34.889C118.188 34.8608 118.424 34.8326 118.663 34.8043C118.901 34.7808 119.141 34.7557 119.38 34.7322C119.859 34.6821 120.335 34.6272 120.813 34.5676C121.291 34.5112 121.766 34.4375 122.244 34.3843C122.722 34.3294 123.202 34.273 123.683 34.2181L124.842 34.1382L125.42 34.0974L126 34.0739L128.315 33.9877C128.508 33.9814 128.701 33.972 128.894 33.9689H129.474L130.63 33.9704C131.402 33.9783 132.168 33.9673 132.939 34.0159C132.881 34.7119 132.836 35.4376 133.071 36.0913C133.071 36.0913 133.994 36.027 134.455 35.9956C135.435 36.7763 135.822 37.7685 135.875 38.7826C135.927 39.7968 135.648 40.8345 135.266 41.7092C135.065 42.0681 134.842 42.4725 134.595 42.877L134.596 42.8738Z" fill="#CAA164"/>
<path d="M134.419 81.3022C134.213 81.3037 134.007 81.3053 133.804 81.3131C130.127 81.6266 126.932 83.2067 123.007 83.9779C120.187 84.3274 117.361 85.7664 114.783 86.7476C121.117 85.003 127.456 82.3351 134.162 82.2897C133.853 83.2631 133.37 84.1284 132.544 84.4434C130.445 84.9058 128.404 85.4466 126.406 86.047C126.283 85.7272 126.047 85.1049 125.928 84.7898C120.764 87.8449 114.642 87.2775 109.718 90.9642C109.978 91.0583 109.961 91.3608 109.997 91.5802C109.985 91.5865 109.971 91.5912 109.958 91.5975C109.971 91.5928 109.983 91.5865 109.997 91.5802C110.029 91.773 110.104 91.9031 110.449 91.773C110.105 91.9047 110.03 91.773 109.997 91.5802C115.316 89.2008 120.515 87.569 126.178 86.1159C117.523 88.7352 109.63 92.4471 100.99 95.7388C100.622 95.8783 99.8852 96.1605 99.5169 96.3C97.6813 95.9128 96.0872 96.1573 94.6137 96.7185C94.3786 94.9958 91.6998 92.3938 94.8881 91.9031C94.7674 91.5865 94.526 90.9548 94.4068 90.6382C90.8564 90.1789 88.0632 86.1708 90.5288 83.7819C93.3613 81.2536 98.2644 80.835 102.075 78.6594C104.903 77.2204 107.729 75.7814 110.916 75.2908C115.33 74.6967 119.629 72.695 124.164 72.4176C125.758 72.1731 127.976 70.2403 129.075 70.9097C129.777 71.162 130.055 71.8282 130.26 72.6104C127.796 73.4208 125.368 74.3064 122.927 75.0776C119.863 75.8394 116.784 76.5605 113.617 77.0464C116.81 76.8238 119.879 76.0401 122.927 75.0776C125.42 74.4585 127.904 73.8127 130.415 73.2452C130.574 73.9239 130.748 74.6293 131.13 75.1983C131.13 75.1983 131.867 74.9177 132.235 74.7767C134.312 75.7971 134.787 78.1531 134.654 80.0152C134.588 80.4087 134.516 80.8507 134.419 81.3022Z" fill="#CAA164"/>
<path d="M157.091 114.334C156.991 114.349 156.891 114.365 156.795 114.382C155.994 114.616 155.466 115.061 154.972 115.552C154.475 116.042 154.008 116.577 153.317 117.014C152.174 117.517 151.81 118.72 151.273 119.616C152.182 118.713 152.944 117.693 153.902 116.824C154.856 115.958 156.004 115.241 157.632 115.001C158.137 115.661 158.493 116.259 158.308 116.517C157.602 116.956 156.986 117.459 156.436 118.003C156.152 117.812 155.601 117.439 155.322 117.251C155.134 118.442 154.207 119.088 153.359 119.815C152.514 120.539 151.74 121.34 151.936 122.715C152.132 122.737 152.348 122.913 152.532 123.035C152.691 123.141 152.825 123.207 152.892 123.091C152.825 123.207 152.691 123.143 152.532 123.035C153.303 121.011 154.648 119.456 156.375 118.066C155.192 119.253 154.331 120.638 153.577 122.085C152.822 123.533 152.179 125.046 151.415 126.548C151.351 126.676 151.221 126.932 151.155 127.06C149.992 127.121 149.426 127.504 149.179 128.032C147.715 127.17 144.388 126.276 145.531 125.454C145.227 125.306 144.617 125.012 144.313 124.863C143.282 125.057 141.639 124.77 140.167 124.218C138.697 123.663 137.4 122.841 137.084 121.93C136.802 120.945 137.205 120.132 137.708 119.331C137.958 118.93 138.242 118.535 138.473 118.113C138.709 117.693 138.899 117.251 138.979 116.756C139.341 115.392 139.749 114.017 141.04 113.193C141.96 112.649 142.628 111.914 143.335 111.207C144.045 110.503 144.801 109.832 145.884 109.46C146.539 109.105 146.401 107.556 147.421 107.88C147.958 107.973 148.544 108.393 149.171 108.898C148.439 109.697 147.787 110.551 147.069 111.351C146.022 112.219 144.951 113.086 143.683 113.86C145.153 113.246 146.169 112.349 147.069 111.351C147.918 110.645 148.762 109.943 149.674 109.308C150.208 109.747 150.77 110.202 151.346 110.545C151.346 110.545 151.535 110.29 151.629 110.161C153.365 110.658 155.159 112.219 156.345 113.464C156.576 113.73 156.837 114.028 157.095 114.334H157.091Z" fill="#CAA164"/>
<path d="M232.513 36.98C232.131 37.2167 231.75 37.455 231.37 37.6901C224.544 42.2625 218.685 47.9509 211.581 53.6206C206.466 57.4468 201.433 62.6964 196.912 67.1528C202.5 62.1054 208.153 56.8512 213.985 51.912C219.813 46.9697 225.814 42.3283 232.026 38.4958C231.737 39.2748 231.364 40.0633 230.881 40.8329C230.399 41.6026 229.798 42.3424 229.038 43.0102C228.074 43.7548 227.11 44.4962 226.162 45.2501C225.215 46.0057 224.276 46.7643 223.342 47.523C221.467 49.0356 219.642 50.5875 217.827 52.1346C217.597 51.8822 217.147 51.39 216.92 51.1424C215.747 52.3729 214.567 53.5736 213.357 54.7272C212.15 55.8825 210.918 56.997 209.69 58.1052C208.46 59.2103 207.212 60.2871 205.966 61.3625C204.721 62.4393 203.48 63.5146 202.24 64.5899C197.293 68.91 192.437 73.3538 188.292 78.793C188.76 78.5767 188.756 78.9733 188.843 79.1974C188.819 79.221 188.797 79.2445 188.777 79.2664C188.799 79.2445 188.821 79.221 188.843 79.1974C188.916 79.3965 189.062 79.4608 189.653 78.8604C189.06 79.4608 188.916 79.3965 188.843 79.1974C193.391 74.3178 197.983 69.7799 202.699 65.3768C207.419 60.9784 212.292 56.7477 217.413 52.4888C216.427 53.3243 215.467 54.1833 214.501 55.0329C213.54 55.8887 212.582 56.743 211.625 57.5958C210.681 58.4626 209.737 59.3294 208.795 60.1947C207.856 61.0631 206.917 61.9283 205.996 62.8124C204.148 64.5727 202.3 66.3298 200.489 68.1246L197.766 70.8113C196.868 71.7173 195.972 72.6234 195.073 73.5309C191.479 77.1597 187.948 80.87 184.392 84.6225C183.51 85.5662 182.624 86.5129 181.737 87.4613C180.852 88.4112 179.953 89.3548 179.072 90.3173C177.303 92.2375 175.505 94.1545 173.721 96.1107C173.111 96.7738 171.889 98.1046 171.277 98.7692C169.689 99.7646 168.228 100.882 166.858 102.083C166.172 102.682 165.515 103.307 164.88 103.954C164.245 104.599 163.629 105.262 163.029 105.939C162.364 104.139 157.41 104.618 162.753 99.6204C162.501 99.3946 161.996 98.9432 161.744 98.7175C155.645 103.034 150.226 102.009 154.105 95.5888C155.221 93.8065 156.605 92.029 158.134 90.2248C159.656 88.4143 161.358 86.6117 163.103 84.7715C163.973 83.8498 164.869 82.9312 165.767 82.0064C166.666 81.08 167.564 80.1458 168.454 79.2021C169.348 78.2616 170.24 77.3211 171.105 76.365C171.975 75.4119 172.813 74.4401 173.636 73.4729C178.507 67.9193 183.485 62.4409 189.23 57.7635C190.227 56.9688 191.213 56.1442 192.206 55.3103C193.202 54.4796 194.194 53.6316 195.185 52.771C197.161 51.0483 199.16 49.3053 201.158 47.5638C202.154 46.6907 203.171 45.8395 204.181 44.9852C205.193 44.1356 206.204 43.2908 207.229 42.471C208.256 41.6543 209.287 40.8533 210.324 40.0743C211.36 39.2952 212.401 38.5397 213.459 37.8249C214.202 37.2747 215.015 36.5458 215.851 35.7558C216.269 35.3608 216.692 34.9501 217.114 34.5379C217.54 34.1303 217.967 33.7228 218.382 33.3246C220.055 31.7446 221.608 30.373 222.636 30.1536C223.956 29.6582 224.467 30.1692 224.84 30.9075C223.676 31.8653 222.533 32.8465 221.387 33.8215C220.244 34.7996 219.095 35.7668 217.965 36.7543C215.7 38.7215 213.441 40.6809 211.197 42.6293C205.552 47.2628 199.93 51.9355 194.218 56.5346C199.992 52.2333 205.584 47.4964 211.197 42.6293L212.918 41.217L213.778 40.51L214.645 39.8109L218.113 37.0161C219.266 36.0818 220.44 35.1727 221.605 34.2526C222.774 33.3387 223.937 32.417 225.122 31.522C225.411 32.185 225.726 32.8653 226.438 33.1349C226.438 33.1349 227.82 31.9421 228.511 31.3449C232.383 30.2398 233.22 32.6475 232.955 35.1131C232.83 35.6759 232.69 36.3091 232.505 36.98H232.513Z" fill="#CAA164"/>
<path d="M167.057 163.726C166.539 163.656 166.02 163.584 165.506 163.516C155.993 162.5 146.479 162.839 135.911 162.162C128.513 161.485 120.058 161.823 112.661 161.823C130.195 162.447 148.622 162.21 165.468 164.555C163.766 165.355 161.73 165.993 159.361 165.993C153.66 165.678 148.033 165.457 142.452 165.306V163.961C126.599 164.977 111.8 162.268 95.9479 163.961C96.5122 164.142 96.1767 164.417 96.0607 164.637C96.0216 164.637 95.9839 164.637 95.9479 164.638C95.9839 164.638 96.0216 164.638 96.0607 164.637C95.9557 164.828 96.02 164.977 97.006 164.977C96.02 164.977 95.9542 164.828 96.0607 164.637C111.657 164.308 126.241 164.634 141.816 165.291C117.633 164.657 94.3161 165.317 69.5261 165.317H65.3002C61.0726 164.301 56.8435 163.963 52.6175 163.963C53.6724 162.27 49.4449 158.884 57.9016 159.561V158.207C49.4449 156.514 46.2723 151.774 54.7305 150.42C64.2421 149.065 76.9247 150.42 88.5493 149.743C97.006 149.404 105.463 149.065 113.915 149.743C125.541 150.758 138.223 150.42 149.848 151.774C154.077 152.113 161.477 151.097 163.592 152.113C165.111 152.599 165.17 153.32 164.938 154.124C157.99 154.005 151.061 153.967 144.211 153.82C135.808 153.44 127.403 153.019 119.004 152.346C127.218 153.276 135.654 153.636 144.211 153.82C151.045 154.128 157.884 154.409 164.72 154.773C164.471 155.464 164.23 156.185 164.647 156.853H167.816C172.045 158.546 170.986 160.916 168.876 162.609C168.337 162.952 167.732 163.341 167.057 163.728V163.726Z" fill="#CAA164"/>
<path d="M165.517 14.3762C165.006 14.3056 164.493 14.2335 163.985 14.1661C154.598 13.1504 145.21 13.489 134.78 12.8118C127.478 12.1347 119.135 12.4732 111.835 12.4732C129.138 13.0971 147.323 12.8604 163.948 15.2054C162.267 16.0048 160.259 16.6428 157.921 16.6428C152.295 16.3277 146.741 16.1067 141.235 15.9562V14.6113C125.59 15.627 110.987 12.9184 95.3415 14.6113C95.8979 14.7916 95.5672 15.0674 95.4528 15.2869C95.4136 15.2869 95.3775 15.2869 95.3415 15.2885C95.3775 15.2885 95.4136 15.2885 95.4528 15.2869C95.3493 15.4781 95.412 15.627 96.3854 15.627C95.412 15.627 95.3478 15.4781 95.4528 15.2869C110.844 14.9577 125.235 15.2838 140.606 15.9405C116.741 15.3073 93.7301 15.9672 69.2677 15.9672H65.0966C60.9239 14.9514 56.7512 14.6129 52.5817 14.6129C53.6225 12.92 49.4514 9.53417 57.7967 10.2113V8.85701C49.4529 7.16255 46.3227 2.42244 54.668 1.06812C64.0542 -0.286201 76.5707 1.06812 88.0416 0.390958C96.387 0.0523784 104.732 -0.286201 113.073 0.390958C124.546 1.4067 137.062 1.06812 148.533 2.42244C152.707 2.76101 160.009 1.74528 162.095 2.76101C163.594 3.24694 163.653 3.96799 163.424 4.77211C156.566 4.65299 149.731 4.61537 142.97 4.46802C134.676 4.08869 126.383 3.66703 118.095 2.99457C126.201 3.9241 134.526 4.28462 142.97 4.46802C149.715 4.77682 156.465 5.0574 163.209 5.42106C162.963 6.11233 162.725 6.83337 163.137 7.50113H166.266C170.44 9.19403 169.395 11.5641 167.312 13.257C166.78 13.6003 166.183 13.989 165.517 14.3762Z" fill="#CAA164"/>
<path d="M162.027 159.849C162.098 159.183 162.17 158.517 162.237 157.856C163.253 145.631 162.915 133.406 163.592 119.823C164.269 110.315 163.93 99.4506 163.93 89.9453C163.306 112.478 163.543 136.16 161.198 157.809C160.399 155.62 159.761 153.004 159.761 149.96C160.076 142.634 160.297 135.403 160.447 128.231H161.792C160.776 107.859 163.485 88.8417 161.792 68.4674C161.612 69.1916 161.336 68.7621 161.117 68.6116C161.117 68.5614 161.117 68.5129 161.115 68.4674C161.115 68.5144 161.115 68.5614 161.117 68.6116C160.925 68.4752 160.776 68.5599 160.776 69.8264C160.776 68.5583 160.925 68.4752 161.117 68.6116C161.446 88.6552 161.12 107.395 160.463 127.412C161.096 96.3328 160.436 66.3685 160.436 34.5123V29.0809C161.452 23.6479 161.791 18.2134 161.791 12.7836C163.484 14.1395 166.869 8.70654 166.192 19.574H167.547C169.239 8.70654 173.98 4.63104 175.334 15.4985C176.688 27.7203 175.334 44.0207 176.011 58.959C176.35 69.8264 176.688 80.6939 176.011 91.5566C174.995 106.496 175.334 122.797 173.98 137.734C173.641 143.168 174.657 152.678 173.641 155.395C173.155 157.346 172.434 157.423 171.63 157.125C171.749 148.195 171.787 139.292 171.934 130.489C172.313 119.689 172.735 108.888 173.407 98.0962C172.478 108.652 172.117 119.493 171.934 130.489C171.625 139.271 171.345 148.06 170.981 156.844C170.29 156.523 169.569 156.214 168.901 156.75V160.824C167.208 166.259 164.838 164.898 163.145 162.187C162.802 161.494 162.413 160.716 162.026 159.849H162.027Z" fill="#CAA164"/>
<path d="M53.3746 9.33201C53.3041 9.9982 53.232 10.6644 53.1646 11.3259C52.1488 23.5508 52.4874 35.7757 51.8103 49.3581C51.1331 58.8665 51.4717 69.7308 51.4717 79.2361C52.0955 56.7034 51.8588 33.0216 54.2038 11.3729C55.0032 13.5611 55.6412 16.1773 55.6412 19.2214C55.3262 26.5478 55.1051 33.7787 54.9547 40.95H53.6097C54.6255 61.3228 51.9168 80.3397 53.6097 100.714C53.79 99.9898 54.0659 100.419 54.2853 100.57C54.2853 100.62 54.2853 100.669 54.2869 100.714C54.2869 100.667 54.2869 100.62 54.2853 100.57C54.4766 100.706 54.6255 100.622 54.6255 99.355C54.6255 100.623 54.4766 100.706 54.2853 100.57C53.9562 80.5262 54.2822 61.7852 54.939 41.7698C54.3057 72.8486 54.9656 102.813 54.9656 134.669V140.1C53.9499 145.533 53.6113 150.968 53.6113 156.398C51.9184 155.042 48.5326 160.475 49.2098 149.607H47.8555C46.1626 160.475 41.4224 164.55 40.0681 153.683C38.7138 141.461 40.0681 125.161 39.391 110.222C39.0524 99.355 38.7138 88.4875 39.391 77.6248C40.4067 62.6849 40.0681 46.3845 41.4224 31.4478C41.761 26.0133 40.7453 16.5033 41.761 13.7868C42.2469 11.8353 42.968 11.7585 43.7721 12.0563C43.653 20.9864 43.6154 29.8897 43.468 38.6928C43.0887 49.4929 42.667 60.2929 41.9946 71.0852C42.9241 60.5296 43.2846 49.6888 43.468 38.6928C43.7768 29.9101 44.0574 21.1212 44.4211 12.3369C45.1123 12.6582 45.8334 12.967 46.5011 12.431V8.35703C48.194 2.92251 50.5641 4.2831 52.257 6.99487C52.6003 7.68771 52.989 8.46519 53.3762 9.33201H53.3746Z" fill="#CAA164"/>
<path d="M100.063 209.495C100.133 209.258 100.205 209.022 100.273 208.788C101.288 204.449 100.95 200.111 101.627 195.289C102.304 191.914 101.965 188.058 101.965 184.683C101.342 192.681 101.577 201.087 99.2333 208.771C98.4339 207.993 97.7959 207.066 97.7959 205.986C98.111 203.385 98.332 200.819 98.4825 198.273H99.8274C98.8116 191.043 101.52 184.291 99.8274 177.06C99.6471 177.318 99.3712 177.165 99.1518 177.112C99.1518 177.095 99.1518 177.078 99.1502 177.06C99.1502 177.076 99.1502 177.093 99.1518 177.112C99.481 184.227 99.1549 190.878 98.4981 197.983C99.1314 186.951 98.4715 176.316 98.4715 165.01V163.082C99.4872 161.154 99.8258 159.224 99.8258 157.297C101.519 157.779 104.905 155.851 104.227 159.708H105.582C107.275 155.851 112.015 154.404 113.369 158.261C114.723 162.6 113.369 168.386 114.046 173.687C114.385 177.545 114.723 181.402 114.046 185.257C113.03 190.56 113.369 196.345 112.015 201.648C111.676 203.578 112.692 206.953 111.676 207.917C111.19 208.61 110.469 208.636 109.665 208.531C109.784 205.362 109.822 202.202 109.969 199.076C110.348 195.243 110.77 191.409 111.443 187.578C110.513 191.325 110.152 195.173 109.969 199.076C109.66 202.194 109.38 205.313 109.016 208.431C108.325 208.316 107.604 208.207 106.936 208.398V209.843C105.243 211.773 102.873 211.288 101.18 210.326C100.837 210.08 100.448 209.804 100.061 209.497L100.063 209.495Z" fill="#CAA164"/>
<path d="M113.576 186.482C113.242 186.601 112.908 186.72 112.579 186.841C106.609 189.277 101.339 192.869 94.9385 195.962C90.352 197.953 85.6887 201.179 81.4549 203.748C91.8145 198.193 102.238 191.59 113.096 187.744C112.537 189.018 111.703 190.27 110.347 191.093C106.92 192.804 103.585 194.57 100.313 196.379C100.136 196.087 99.7899 195.517 99.6159 195.23C91.0699 201.605 81.1947 204.428 72.9982 211.382C73.4152 211.341 73.3666 211.692 73.4136 211.919C82.1696 206.22 90.6843 201.434 99.9404 196.586C85.7702 204.444 72.7678 213.106 58.5788 221.714C57.9753 222.081 56.7652 222.815 56.1601 223.182C53.2132 223.782 50.6175 224.961 48.1988 226.428C47.9245 224.614 43.7487 223.188 48.9402 220.829C48.7647 220.54 48.4135 219.96 48.238 219.672C42.5198 221.161 38.2452 218.211 42.3834 214.115C47.1251 209.654 55.0864 206.406 61.3877 201.792C66.0526 198.566 70.7159 195.338 75.9059 192.982C83.0866 189.813 90.1702 185.118 97.5264 182.239C100.122 181.06 103.831 177.621 105.568 177.756C106.688 177.644 107.098 178.24 107.381 179.008C103.342 181.32 99.3573 183.693 95.3601 185.947C90.3535 188.542 85.325 191.1 80.1679 193.442C85.3517 191.383 90.3661 188.761 95.3601 185.947C99.4325 183.837 103.492 181.703 107.593 179.638C107.808 180.315 108.044 181.016 108.631 181.442C108.631 181.442 109.839 180.709 110.444 180.342C113.744 180.32 114.366 182.715 114.037 184.896C113.907 185.377 113.761 185.918 113.576 186.483V186.482Z" fill="#CAA164"/>
<path d="M168.564 228.741C168.337 228.503 168.109 228.265 167.885 228.029C163.56 223.894 158.431 220.947 153.245 216.881C149.715 213.861 145.058 211.395 141.106 209.053C145.627 212.105 150.334 215.105 154.831 218.333C159.328 221.556 163.62 224.996 167.285 228.879C165.968 228.948 164.568 228.785 163.35 227.976C162.661 227.424 161.972 226.876 161.28 226.34C160.585 225.805 159.889 225.277 159.192 224.755C157.801 223.705 156.391 222.698 154.983 221.703C155.166 221.415 155.525 220.853 155.707 220.57C151.298 218.363 147.504 215.496 143.615 212.754C139.728 210.014 135.759 207.376 131.079 205.675C131.292 206.006 130.975 206.142 130.804 206.296C130.782 206.285 130.764 206.274 130.743 206.263C130.762 206.274 130.782 206.285 130.804 206.296C135.073 208.545 139.092 210.92 143.023 213.43C146.953 215.946 150.779 218.618 154.662 221.477C148.539 217.189 142.263 213.375 135.85 209.715C132.646 207.881 129.397 206.103 126.116 204.315C122.826 202.542 119.506 200.755 116.128 198.955C115.553 198.648 114.402 198.034 113.825 197.725C111.988 195.614 109.825 194.093 107.496 192.905C108.851 191.7 108.052 187.48 112.433 190.496C112.588 190.196 112.902 189.594 113.057 189.293C109.146 185.376 109.475 180.219 114.861 181.462C116.358 181.845 117.882 182.456 119.437 183.186C120.995 183.912 122.57 184.787 124.175 185.691C125.782 186.594 127.4 187.561 129.052 188.469C130.695 189.389 132.364 190.264 134.054 191.018C138.896 193.342 143.713 195.752 147.968 199.079C148.694 199.662 149.44 200.227 150.197 200.791C150.953 201.357 151.723 201.913 152.502 202.464C154.064 203.556 155.644 204.66 157.225 205.763C158.801 206.87 160.364 207.998 161.877 209.161C163.382 210.339 164.844 211.539 166.195 212.829C167.219 213.706 168.857 214.555 170.293 215.414C171.73 216.268 172.984 217.098 173.255 217.892C173.779 218.833 173.407 219.452 172.837 220.037C169.272 217.499 165.653 215.066 162.098 212.619C157.847 209.445 153.58 206.279 149.389 202.965C153.348 206.437 157.66 209.556 162.098 212.619C165.557 215.196 168.995 217.803 172.362 220.499C171.846 220.985 171.319 221.499 171.163 222.2C171.163 222.2 172.26 222.941 172.809 223.311C174.053 226.195 172.16 227.777 170.125 228.445C169.655 228.542 169.127 228.653 168.564 228.739V228.741Z" fill="#CAA164"/>
</svg>
