<svg width="73" height="72" viewBox="0 0 73 72" fill="none" xmlns="http://www.w3.org/2000/svg">
<path fill-rule="evenodd" clip-rule="evenodd" d="M8.45534 6.28829C5.22535 7.13173 2.43325 10.5151 1.74315 14.4216C1.41895 16.2573 1.41895 55.7288 1.74315 57.5645C2.44121 61.516 5.23519 64.8686 8.52827 65.7063C10.0681 66.0979 62.9319 66.0979 64.4717 65.7063C67.7648 64.8686 70.5588 61.516 71.2569 57.5645C71.581 55.7288 71.581 16.2573 71.2569 14.4216C70.5588 10.4701 67.7648 7.11749 64.4717 6.27985C62.9836 5.90133 9.90659 5.90938 8.45534 6.28829ZM64.4165 10.3599C65.4397 10.8524 66.4451 11.7612 67.0335 12.7253C67.9469 14.222 68.0812 14.9216 68.1629 18.6126L68.2366 21.9388H36.5175H4.79823V19.2471C4.79823 17.7669 4.8696 16.1044 4.95674 15.5527C5.38776 12.8258 7.13636 10.6727 9.34767 10.1461C9.72278 10.0567 22.1171 9.99618 36.8904 10.0115C61.8335 10.0374 63.7985 10.0623 64.4165 10.3599ZM68.1677 41.3805C68.1274 55.3149 68.0992 56.7719 67.8565 57.4982C67.2103 59.4321 65.9221 60.9554 64.3757 61.614C63.6394 61.9277 62.0516 61.9466 36.5 61.9466C10.9484 61.9466 9.36063 61.9277 8.62431 61.614C7.07795 60.9554 5.78973 59.4321 5.14352 57.4982C4.90083 56.7719 4.87257 55.3149 4.83228 41.3805L4.78777 26.0614H36.5H68.2122L68.1677 41.3805ZM12.3487 50.2677C11.4445 50.7928 11.2923 52.5548 12.0748 53.4372L12.4754 53.8889L19.6454 53.9411C27.6543 53.9996 27.5645 54.0125 28.0089 52.736C28.2941 51.9169 28.0848 50.9882 27.4881 50.4251C27.0996 50.0584 26.8784 50.0477 19.8862 50.0601C15.2372 50.0681 12.5656 50.1418 12.3487 50.2677Z" fill="#CBA265"/>
</svg>
