<svg width="60" height="70" viewBox="0 0 60 70" fill="none" xmlns="http://www.w3.org/2000/svg">
<path d="M9.26471 11.8679C8.41191 11.8679 7.72059 12.5609 7.72059 13.4158C7.72059 14.2708 8.41191 14.9638 9.26471 14.9638H49.9265C50.7793 14.9638 51.4706 14.2708 51.4706 13.4158C51.4706 12.5609 50.7793 11.8679 49.9265 11.8679H9.26471Z" fill="#CBA265"/>
<path d="M7.72059 27.8637C7.72059 27.0088 8.41191 26.3157 9.26471 26.3157H49.9265C50.7793 26.3157 51.4706 27.0088 51.4706 27.8637C51.4706 28.7186 50.7793 29.4117 49.9265 29.4117H9.26471C8.41191 29.4117 7.72059 28.7186 7.72059 27.8637Z" fill="#CBA265"/>
<path d="M9.26471 40.7635C8.41191 40.7635 7.72059 41.4566 7.72059 42.3115C7.72059 43.1664 8.41191 43.8595 9.26471 43.8595H36.0294C36.8822 43.8595 37.5735 43.1664 37.5735 42.3115C37.5735 41.4566 36.8822 40.7635 36.0294 40.7635H9.26471Z" fill="#CBA265"/>
<path fill-rule="evenodd" clip-rule="evenodd" d="M0 68.4968V1.03199C0 0.462037 0.460882 0 1.02941 0H58.6765C59.245 0 59.7059 0.462038 59.7059 1.03199V68.4968C59.7059 69.266 58.8966 69.7649 58.2119 69.4177L43.9325 62.1779C43.6153 62.017 43.2377 62.0317 42.9338 62.2166L30.387 69.8502C30.0588 70.0499 29.6471 70.0499 29.3189 69.8502L16.772 62.2166C16.4681 62.0317 16.0906 62.017 15.7734 62.1779L1.494 69.4177C0.809275 69.7649 0 69.266 0 68.4968ZM14.3796 59.4151L3.08824 65.14V3.09596H56.6176V65.14L45.3263 59.4151C44.0574 58.7718 42.5472 58.8303 41.3316 59.5699L29.8529 66.5537L18.3743 59.5699C17.1587 58.8303 15.6485 58.7718 14.3796 59.4151Z" fill="#CBA265"/>
</svg>
