<svg width="71" height="70" viewBox="0 0 71 70" fill="none" xmlns="http://www.w3.org/2000/svg">
<path fill-rule="evenodd" clip-rule="evenodd" d="M20.5001 9.9761C20.4731 4.5614 15.9115 0.0062349 10.5138 6.3212e-06C5.12436 -0.00622225 0.531603 4.55517 0.500403 9.95119C0.469202 15.3742 5.04948 19.9833 10.4888 20C15.9157 20.0166 20.5272 15.397 20.5001 9.9761ZM3.88881 10.001C3.88881 6.29709 6.78425 3.3925 10.4784 3.38835C14.1248 3.38419 17.12 6.35107 17.1304 9.98233C17.145 13.6863 14.183 16.6469 10.4743 16.6345C6.79049 16.622 3.88881 13.6987 3.88881 10.001ZM10.5975 49.9522C5.18272 49.8941 0.535567 54.4703 0.500204 59.8958C0.46484 65.3213 5.04127 69.9308 10.4831 69.9516C15.8791 69.9724 20.4264 65.4584 20.4992 60.01C20.5699 54.6531 15.9997 50.0103 10.5975 49.9522ZM10.5184 66.5858C6.79695 66.59 3.8826 63.6603 3.88884 59.9187C3.89508 56.229 6.80527 53.3387 10.5122 53.3408C14.1484 53.3429 17.1334 56.3307 17.1334 59.9664C17.1334 63.6353 14.1879 66.5817 10.5184 66.5858ZM10.4867 44.9492C5.06395 44.9471 0.514839 40.4029 0.500279 34.9711C0.485718 29.5101 5.04731 24.9471 10.5179 24.9492C15.951 24.9513 20.4731 29.4684 20.5001 34.9253C20.5272 40.3758 15.9593 44.9492 10.4867 44.9492ZM10.5075 28.3142C6.83616 28.3017 3.90535 31.1999 3.88871 34.8586C3.87207 38.6486 6.74048 41.5718 10.4867 41.5822C14.185 41.5926 17.1263 38.6673 17.1325 34.9732C17.1387 31.3082 14.1705 28.3267 10.5075 28.3142ZM25.5 9.95949V10.0405C25.5 11.1241 26.2826 12 27.2457 12H68.7543C69.7174 12 70.5 11.1241 70.5 10.0405V9.95949C70.5 8.87848 69.7196 8 68.7543 8H27.2457C26.2826 8 25.5 8.87595 25.5 9.95949ZM70.5 59.9595V60.0405C70.5 61.124 69.7174 62 68.7544 62H27.2456C26.2803 62 25.5 61.1215 25.5 60.0405V59.9595C25.5 58.876 26.2826 58 27.2456 58H68.7544C69.7174 58 70.5 58.876 70.5 59.9595ZM70.5 35.0405V34.9595C70.5 33.876 69.7174 33 68.7544 33H27.2456C26.2826 33 25.5 33.876 25.5 34.9595V35.0405C25.5 36.1215 26.2803 37 27.2456 37H68.7544C69.7174 37 70.5 36.124 70.5 35.0405Z" fill="#CBA265"/>
</svg>
