<svg width="73" height="72" viewBox="0 0 73 72" fill="none" xmlns="http://www.w3.org/2000/svg">
<path fill-rule="evenodd" clip-rule="evenodd" d="M54 20.4444V20.3212C54 20.0491 53.9963 19.7802 53.989 19.5145C53.6283 6.36768 44.448 1 36.7586 1H36.2414C28.552 1 19.3717 6.36768 19.011 19.5145C19.0037 19.7802 19 20.0491 19 20.3212V20.4444H12.706C7.38943 20.4444 5.38481 21.8359 5.2105 24.7734L1.63705 64.7385C0.800338 69.6859 3.9903 71 5.90776 71H67.0922C69.0097 71 72.1997 69.6859 71.363 64.7385L67.7895 24.7734C67.6152 21.8359 65.6106 20.4444 60.294 20.4444H54ZM17.9469 22.3043H12.706C10.1701 22.3043 8.86861 22.6513 8.21638 23.044C7.72864 23.3377 7.37777 23.7914 7.31372 24.8707L7.31226 24.8953L3.73086 64.9494L3.72005 65.0133C3.36371 67.1203 3.91378 68.0826 4.32876 68.504C4.78472 68.967 5.43119 69.1401 5.90776 69.1401H67.0922C67.5688 69.1401 68.2153 68.967 68.6712 68.504C69.0862 68.0826 69.6363 67.1203 69.28 65.0133L69.2691 64.9494L65.6877 24.8953L65.6863 24.8707C65.6222 23.7914 65.2714 23.3377 64.7836 23.044C64.1314 22.6513 62.8299 22.3043 60.294 22.3043H55.0531V34.0556C55.0531 34.5692 54.5816 34.9855 54 34.9855C53.4184 34.9855 52.9469 34.5692 52.9469 34.0556V22.3043H51.8939V21.3744H21.1061V22.3043H20.0531V34.0556C20.0531 34.5692 19.5816 34.9855 19 34.9855C18.4184 34.9855 17.9469 34.5692 17.9469 34.0556V22.3043ZM21.1177 19.5145H51.8823C51.707 13.4774 49.5648 9.38196 46.7899 6.78727C43.875 4.06166 40.1268 2.8599 36.7586 2.8599H36.2414C32.8732 2.8599 29.125 4.06166 26.2101 6.78727C23.4352 9.38196 21.293 13.4774 21.1177 19.5145Z" fill="#CBA265"/>
<path fill-rule="evenodd" clip-rule="evenodd" d="M25.213 5.69805C22.0226 8.58306 19.6875 13.0778 19.5105 19.5282C19.5068 19.6661 19.504 19.8048 19.5022 19.9444H20.6048L20.6177 19.5C20.7965 13.3427 22.9868 9.11647 25.8683 6.42205C28.8858 3.60049 32.7606 2.3599 36.2411 2.3599H36.7584C40.239 2.3599 44.1137 3.60049 47.1312 6.42205C50.0127 9.11647 52.203 13.3427 52.3818 19.5L52.3947 19.9444H53.4973C53.4955 19.8048 53.4927 19.6661 53.489 19.5282C53.312 13.0778 50.9769 8.58306 47.7865 5.69805C44.5867 2.80461 40.4928 1.5 36.7584 1.5H36.2411C32.5067 1.5 28.4128 2.80461 25.213 5.69805ZM54.4974 19.9444C54.4956 19.7956 54.4926 19.6477 54.4886 19.5008C54.3048 12.8043 51.8694 8.04187 48.4572 4.95633C45.0543 1.87924 40.7134 0.5 36.7584 0.5H36.2411C32.2861 0.5 27.9452 1.87924 24.5423 4.95633C21.1301 8.04187 18.6947 12.8043 18.5109 19.5008C18.5069 19.6477 18.5039 19.7956 18.5021 19.9444H12.7058C10.0245 19.9444 8.07983 20.2914 6.77174 21.079C5.41675 21.8949 4.80783 23.1426 4.71158 24.7361L1.14051 64.6747C0.708615 67.2551 1.31438 68.9902 2.38309 70.0754C3.43358 71.142 4.85329 71.5 5.90751 71.5H67.092C68.1462 71.5 69.5659 71.142 70.6164 70.0754C71.6851 68.9902 72.2909 67.2552 71.859 64.6748L68.2879 24.7363C68.1917 23.1427 67.5828 21.8949 66.2278 21.079C64.9197 20.2914 62.975 19.9444 60.2937 19.9444H54.4974ZM53.4997 20.9444V34.0556H54.4997V20.9444H60.2937C62.9291 20.9444 64.645 21.2932 65.7119 21.9357C66.7298 22.5486 67.2106 23.4626 67.2901 24.803L67.2906 24.8104L70.8664 64.8026L70.8697 64.8219C71.2682 67.178 70.6977 68.5677 69.9039 69.3737C69.0892 70.2009 67.9552 70.5 67.092 70.5H5.90751C5.04426 70.5 3.91026 70.2009 3.09558 69.3737C2.30182 68.5677 1.73132 67.178 2.1298 64.8219L2.13306 64.8026L5.70893 24.8104L5.70937 24.803C5.78891 23.4626 6.26968 22.5486 7.28758 21.9357C8.35452 21.2932 10.0704 20.9444 12.7058 20.9444H18.4997V34.0556H19.4997V20.9444H20.6059V21.8043H19.5528V34.0556C19.5528 34.2364 19.3654 34.4855 18.9997 34.4855C18.6341 34.4855 18.4467 34.2364 18.4467 34.0556V21.8043H12.7058C10.1472 21.8043 8.73114 22.1503 7.95821 22.6157C7.65651 22.7974 7.37591 23.0432 7.16775 23.4219C6.96416 23.7922 6.84915 24.2546 6.81434 24.8411L6.81333 24.8582L3.23434 64.8853L3.2268 64.9299C2.8503 67.156 3.41941 68.2934 3.97226 68.8548C4.54503 69.4364 5.33347 69.6401 5.90751 69.6401H67.092C67.666 69.6401 68.4545 69.4364 69.0272 68.8548C69.5801 68.2934 70.1492 67.156 69.7727 64.9299L69.7652 64.8853L66.1862 24.8583L66.1852 24.8411C66.1504 24.2546 66.0353 23.7922 65.8317 23.4219C65.6236 23.0432 65.343 22.7974 65.0413 22.6157C64.2684 22.1503 62.8523 21.8043 60.2937 21.8043H54.5528V34.0556C54.5528 34.2364 54.3654 34.4855 53.9997 34.4855C53.6341 34.4855 53.4467 34.2364 53.4467 34.0556V21.8043H52.3936V20.9444H53.4997ZM51.3936 21.8744H21.6059V22.8043H20.5528V34.0556C20.5528 34.9019 19.7972 35.4855 18.9997 35.4855C18.2022 35.4855 17.4467 34.9019 17.4467 34.0556V22.8043H12.7058C10.1926 22.8043 9.00559 23.1523 8.47405 23.4724C8.288 23.5844 8.1493 23.7122 8.04407 23.9036C7.93428 24.1033 7.84183 24.4075 7.81259 24.9003L7.81069 24.9323L4.22687 65.0134L4.2128 65.0966C3.87661 67.0845 4.40766 67.8718 4.68475 68.1531C5.02391 68.4975 5.5284 68.6401 5.90751 68.6401H67.092C67.4711 68.6401 67.9756 68.4975 68.3147 68.1531C68.5918 67.8718 69.1229 67.0845 68.7867 65.0966L68.7726 65.0134L65.1888 24.9323L65.1869 24.9003C65.1577 24.4075 65.0652 24.1033 64.9554 23.9036C64.8502 23.7122 64.7115 23.5844 64.5254 23.4724C63.9939 23.1523 62.8069 22.8043 60.2937 22.8043H55.5528V34.0556C55.5528 34.9019 54.7973 35.4855 53.9997 35.4855C53.2022 35.4855 52.4467 34.9019 52.4467 34.0556V22.8043H51.3936V21.8744ZM36.2411 3.3599C32.9854 3.3599 29.3636 4.52283 26.5513 7.15248C23.9611 9.57442 21.9122 13.3813 21.6372 19.0145H51.3623C51.0873 13.3813 49.0383 9.57442 46.4482 7.15248C43.6359 4.52283 40.0141 3.3599 36.7584 3.3599H36.2411Z" fill="#CBA265"/>
</svg>
