<svg width="70" height="70" viewBox="0 0 70 70" fill="none" xmlns="http://www.w3.org/2000/svg">
<path d="M55.4172 55.4172H14.5835V2.9167H53.9589C54.761 2.9167 55.4172 3.57004 55.4172 4.37505V11.6668H58.3339V4.37505C58.3339 1.96294 56.371 0 53.9589 0H7.29174C3.26962 0 0 3.27253 0 7.29174V62.709C0 66.7282 3.26962 70.0007 7.29174 70.0007H58.3339V49.5839H55.4172V55.4172ZM7.29174 2.9167H11.6668V55.4172H7.29174C5.65256 55.4172 4.13588 55.9627 2.9167 56.8785V7.29174C2.9167 4.87963 4.87963 2.9167 7.29174 2.9167ZM7.29174 67.084C4.87963 67.084 2.9167 65.1211 2.9167 62.709C2.9167 60.2969 4.87963 58.3339 7.29174 58.3339H55.4172V67.084H7.29174ZM68.3178 34.6912L59.944 43.065L57.8819 41.0029L66.2557 32.6291C66.4219 32.4628 66.5649 32.2791 66.6815 32.0837H35.0004V29.167H66.6815C66.5649 28.9716 66.4219 28.7907 66.2557 28.6215L57.771 20.1369L59.8331 18.0748L68.3178 26.5594C70.5607 28.8024 70.5607 32.4483 68.3178 34.6883V34.6912Z" fill="#CBA265"/>
</svg>
