<svg width="73" height="72" viewBox="0 0 73 72" fill="none" xmlns="http://www.w3.org/2000/svg">
<path fill-rule="evenodd" clip-rule="evenodd" d="M57.2632 44.8331H16.7368C10.2548 44.8331 5 50.0879 5 56.57V63.6315C5 66.0442 6.95583 68 9.36842 68H64.6316C67.0442 68 69 66.0442 69 63.6315V56.57C69 50.0879 63.7452 44.8331 57.2632 44.8331ZM43.3373 38.8331C41.3509 39.5176 39.2188 39.8892 36.9999 39.8892C34.781 39.8892 32.6489 39.5176 30.6625 38.8331C23.0351 36.2048 17.5555 28.9647 17.5555 20.4446C17.5555 9.70565 26.261 1 36.9999 1C47.7388 1 56.4443 9.70565 56.4443 20.4446C56.4443 28.9647 50.9646 36.2048 43.3373 38.8331ZM16.7368 41.8331C8.59791 41.8331 2 48.431 2 56.57V63.6315C2 67.701 5.29896 71 9.36842 71H64.6316C68.701 71 72 67.701 72 63.6315V56.57C72 48.431 65.4021 41.8331 57.2632 41.8331H16.7368ZM36.9999 36.8892C46.0819 36.8892 53.4443 29.5267 53.4443 20.4446C53.4443 11.3625 46.0819 4 36.9999 4C27.9179 4 20.5555 11.3625 20.5555 20.4446C20.5555 29.5267 27.9179 36.8892 36.9999 36.8892Z" fill="#CBA265"/>
</svg>
