<svg width="58" height="70" viewBox="0 0 58 70" fill="none" xmlns="http://www.w3.org/2000/svg">
<path fill-rule="evenodd" clip-rule="evenodd" d="M17.9602 0.10391C16.4107 0.412333 15.1074 1.44931 14.401 2.93565C14.0063 3.76618 13.7088 5.27574 13.7844 6.0644L13.8364 6.60709L10.5498 6.66525C7.6336 6.71686 7.1723 6.75679 6.45623 7.0193C3.64256 8.05044 1.95666 9.72541 0.863556 12.5758L0.555413 13.3792L0.518241 37.8271C0.476736 65.0876 0.416644 63.321 1.45734 65.4226C2.4311 67.3889 4.3501 68.9929 6.56454 69.6914L7.54277 70H28.9939H50.4451L51.4233 69.6914C53.6505 68.989 55.6341 67.2732 56.6465 65.1733C56.9528 64.5378 57.2708 63.6465 57.3529 63.1924C57.4552 62.6272 57.5016 54.7981 57.5 38.36C57.4972 11.6013 57.5614 13.3612 56.5101 11.2383C55.7484 9.69968 54.3471 8.25703 52.9949 7.61904C51.4862 6.90717 50.5058 6.74858 47.1374 6.67123L44.1091 6.60181L44.1822 6.15357C44.2965 5.45242 43.9764 3.75546 43.5673 2.89377C43.0544 1.8138 41.9773 0.775012 40.938 0.358355L40.1038 0.0239171L29.3433 0.00193653C23.425 -0.0101667 18.3026 0.035742 17.9602 0.10391ZM39.7723 3.78927C40.5221 4.17532 40.5929 4.57765 40.5929 8.44984C40.5929 11.3454 40.5551 12.0254 40.3726 12.4084C39.9275 13.3422 40.3382 13.3096 28.9939 13.3096C17.6497 13.3096 18.0604 13.3422 17.6153 12.4084C17.4329 12.0257 17.3949 11.3477 17.3949 8.47503C17.3949 4.65736 17.4603 4.25378 18.1469 3.83713C18.5649 3.58324 19.0073 3.57239 28.966 3.57197C38.1184 3.57141 39.3992 3.59729 39.7723 3.78927ZM13.8547 11.3982C13.9047 13.8591 15.1426 15.7365 17.2274 16.5131C17.9643 16.7874 18.2393 16.793 29.2522 16.756L40.5231 16.718L41.4082 16.2403C42.4131 15.6979 43.0772 14.9669 43.6024 13.8248C43.9987 12.9631 44.2852 11.464 44.1972 10.7129L44.1411 10.2347L47.2232 10.2766C50.2066 10.3172 50.33 10.3302 51.074 10.6795C52.0029 11.1158 52.9235 12.0062 53.4269 12.9554L53.799 13.6574L53.8355 38.098L53.872 62.5386L53.5692 63.3443C53.1847 64.3673 52.1398 65.4862 51.0892 65.9997L50.3054 66.3829H28.9939H7.68251L6.88735 65.9942C5.86175 65.4929 4.79129 64.3357 4.40684 63.3126L4.11589 62.5386L4.15236 38.098L4.18884 13.6574L4.57789 12.9223C5.21654 11.7158 6.35561 10.7611 7.61264 10.3791C7.80479 10.3207 9.28262 10.2682 10.8967 10.2624L13.8314 10.2517L13.8547 11.3982ZM14.0698 28.9576C13.5213 29.4171 13.2913 30.0136 13.3757 30.7584C13.5109 31.9536 14.4637 32.6687 15.6305 32.4508C16.9718 32.2003 17.6023 30.5813 16.8348 29.3581C16.3309 28.5548 14.8131 28.3349 14.0698 28.9576ZM22.4151 29.0665C21.7195 29.5311 21.4734 30.3622 21.7883 31.1832C22.2478 32.3806 21.352 32.2943 33.7593 32.3371C42.3617 32.3669 44.8605 32.3369 45.2834 32.198C46.5072 31.7965 46.855 30.1914 45.92 29.2604L45.4788 28.8212L34.1861 28.7841L22.8936 28.7469L22.4151 29.0665ZM14.1269 40.0324C12.9703 40.9382 13.122 42.9099 14.389 43.4369C15.407 43.8604 16.5282 43.4933 16.9624 42.5943C17.4002 41.6876 17.0718 40.4402 16.2714 39.9695C15.7076 39.638 14.5888 39.6709 14.1269 40.0324ZM22.4151 40.1959C21.7195 40.6605 21.4734 41.4916 21.7883 42.3126C22.2478 43.5099 21.352 43.4237 33.7593 43.4665C42.3617 43.4963 44.8605 43.4663 45.2834 43.3274C46.5072 42.9259 46.855 41.3208 45.92 40.3898L45.4788 39.9506L34.1861 39.9135L22.8936 39.8763L22.4151 40.1959ZM14.0698 51.2164C13.5213 51.6759 13.2913 52.2724 13.3757 53.0172C13.5109 54.2124 14.4637 54.9275 15.6305 54.7096C16.9718 54.459 17.6023 52.8401 16.8348 51.6169C16.3309 50.8136 14.8131 50.5937 14.0698 51.2164ZM22.4151 51.3253C21.7195 51.7899 21.4734 52.621 21.7883 53.442C22.2478 54.6393 21.352 54.5531 33.7593 54.5959C42.3617 54.6257 44.8605 54.5957 45.2834 54.4568C46.5072 54.0553 46.855 52.4502 45.92 51.5192L45.4788 51.08L34.1861 51.0429L22.8936 51.0057L22.4151 51.3253Z" fill="#CBA265"/>
</svg>
