<svg width="73" height="72" viewBox="0 0 73 72" fill="none" xmlns="http://www.w3.org/2000/svg">
<path d="M67.4837 28.0083L62.75 23.4467V11.2083C62.75 5.57917 58.1708 1 52.5417 1H20.4583C14.8292 1 10.25 5.57917 10.25 11.2083V23.4467L5.51333 28.0112C2.96125 30.4729 1.5 33.9146 1.5 37.4613V57.8779C1.5 65.1142 7.38875 71.0029 14.625 71.0029H58.375C65.6113 71.0029 71.5 65.1142 71.5 57.8779V37.4613C71.5 33.9146 70.0358 30.47 67.4837 28.0083ZM65.4625 30.1083C65.7308 30.3679 65.9846 30.6392 66.2208 30.925L62.7529 34.3929V27.4921L65.4654 30.1054L65.4625 30.1083ZM13.1667 11.2083C13.1667 7.18917 16.4392 3.91667 20.4583 3.91667H52.5417C56.5638 3.91667 59.8333 7.18917 59.8333 11.2083V37.3125L43.7188 53.4271C39.8658 57.2829 33.14 57.2858 29.2812 53.4271L13.1667 37.3125V11.2083ZM7.54042 30.1083L10.25 27.495V34.3929L6.78208 30.925C7.01833 30.6392 7.27208 30.3679 7.54042 30.1083ZM68.5833 57.875C68.5833 63.5042 64.0042 68.0833 58.375 68.0833H14.625C8.99583 68.0833 4.41667 63.5042 4.41667 57.875V37.4583C4.41667 36.0904 4.69667 34.74 5.22458 33.4917L27.2192 55.4892C29.6983 57.9683 32.9942 59.3333 36.5 59.3333C40.0058 59.3333 43.3017 57.9683 45.7808 55.4892L67.7783 33.4917C68.3033 34.7371 68.5863 36.0875 68.5863 37.4583L68.5833 57.875ZM21.9167 17.0417C21.9167 16.2367 22.57 15.5833 23.375 15.5833H49.625C50.43 15.5833 51.0833 16.2367 51.0833 17.0417C51.0833 17.8467 50.43 18.5 49.625 18.5H23.375C22.57 18.5 21.9167 17.8467 21.9167 17.0417ZM21.9167 28.7083C21.9167 27.9033 22.57 27.25 23.375 27.25H43.7917C44.5967 27.25 45.25 27.9033 45.25 28.7083C45.25 29.5133 44.5967 30.1667 43.7917 30.1667H23.375C22.57 30.1667 21.9167 29.5133 21.9167 28.7083Z" fill="#CBA265"/>
</svg>
