<svg width="69.000000" height="44.000000" viewBox="0 0 69 44" fill="none" xmlns="http://www.w3.org/2000/svg" xmlns:xlink="http://www.w3.org/1999/xlink">
	<desc>
			Created with Pixso.
	</desc>
	<defs/>
	<path id="Vector" d="M68.38 39.67L68.38 44C58.41 42.57 46.68 41.72 34.07 41.72C21.57 41.72 9.92 42.55 0 43.97L0 39.64C10.03 38.24 21.66 37.44 34.07 37.44C46.58 37.44 58.3 38.25 68.38 39.67Z" fill="#CBA265" fill-opacity="1.000000" fill-rule="evenodd"/>
	<path id="Vector" d="M68.38 30.83L68.38 37.52C66.94 37.32 65.46 37.13 63.94 36.95L63.94 30.83L68.38 30.83Z" fill="#CBA265" fill-opacity="1.000000" fill-rule="nonzero"/>
	<path id="Vector" d="M64.81 28.6L63.94 0L68.38 0L67.51 28.61L64.81 28.6Z" fill="#292929" fill-opacity="1.000000" fill-rule="nonzero"/>
	<path id="Vector" d="M57.4 13.77L62.73 13.76L62.73 36.81C60.68 36.58 58.58 36.38 56.43 36.19C53.45 35.74 51.96 31.71 51.96 24.66L51.96 9.56C51.96 2.96 53.75 0 57.32 0C58.8 0 59.93 0.48 60.72 1.44C61.5 2.39 62.04 3.45 62.34 5.29C62.64 7.12 62.74 9.23 62.74 11.86L58.43 11.86L58.43 9.56C58.43 8.8 58.37 8.17 58.24 7.66C58.11 7.14 57.85 6.88 57.45 6.88C56.94 6.88 56.69 7.15 56.52 7.7C56.37 8.25 56.29 8.85 56.29 9.5L56.29 25.78C56.29 26.72 56.37 27.97 56.52 28.57C56.67 29.16 56.97 29.46 57.42 29.46C57.88 29.46 58.19 29.17 58.34 28.57C58.5 27.97 58.57 26.71 58.57 25.73L58.57 20.65L57.4 20.65L57.4 13.77Z" fill="#292929" fill-opacity="1.000000" fill-rule="nonzero"/>
	<path id="Vector" d="M50.76 0L50.76 35.79C49.36 35.7 47.96 35.63 46.53 35.56L46.53 0L50.76 0Z" fill="#292929" fill-opacity="1.000000" fill-rule="nonzero"/>
	<path id="Vector" d="M44.82 18.48C44.49 17 43.83 16.05 42.85 15.66C43.61 15.34 44.16 14.66 44.53 13.63C44.9 12.6 45.09 11.26 45.09 9.61L45.09 8.06C45.09 5.18 44.73 3.13 43.99 1.88C43.27 0.62 42.12 0 40.53 0L34.61 0L34.61 35.29L35.05 35.29L40.53 35.29C41.81 35.29 42.8 34.82 43.5 33.87C44.19 32.93 44.67 31.59 44.93 29.87C45.2 28.16 45.33 26.16 45.33 23.88C45.34 21.75 45.17 19.95 44.82 18.48ZM38.87 6.88L39.8 6.88C40.41 6.88 40.72 7.44 40.72 8.57L40.72 10.7C40.72 11.41 40.66 12.49 40.55 13C40.44 13.51 40.17 13.76 39.77 13.76L38.87 13.76L38.87 6.88ZM41.02 26.46C41.02 28.2 40.56 29.59 39.43 29.59C39.31 29.59 39.18 29.58 39 29.55L38.88 19.28L39.69 19.28C40.21 19.28 40.55 19.57 40.73 20.17C40.92 20.74 41.02 21.53 41.02 22.53L41.02 26.46Z" fill="#292929" fill-opacity="1.000000" fill-rule="nonzero"/>
	<path id="Vector" d="M31.24 16.88C32.08 16.44 32.64 15.64 32.95 14.5C33.26 13.34 33.4 11.81 33.4 9.88C33.4 7.89 33.31 6.16 33.1 4.69C32.91 3.21 32.53 2.06 31.96 1.24C31.39 0.41 30.54 0 29.43 0L22.72 0L22.72 35.51C24.19 35.45 25.66 35.41 27.15 35.36L27.15 19.27C27.72 19.27 28.14 19.4 28.4 19.65C28.67 19.89 28.8 20.43 28.8 21.46L28.8 35.34C30.23 35.31 31.66 35.29 33.11 35.29L33.11 21.93C33.11 20.54 32.97 19.41 32.69 18.54C32.41 17.65 31.93 17.1 31.24 16.88ZM28.22 13.76L27.16 13.76L27.16 6.88L28.18 6.88C28.54 6.88 28.79 7.09 28.92 7.52C29.05 7.95 29.12 8.51 29.12 9.89C29.13 12.01 28.82 13.76 28.22 13.76Z" fill="#292929" fill-opacity="1.000000" fill-rule="nonzero"/>
	<path id="Vector" d="M19.45 0L12.04 0L9.95 36.34C11.35 36.22 12.77 36.1 14.21 35.99L14.46 29.59L17.09 29.59L17.4 35.78C18.76 35.69 20.13 35.62 21.52 35.56L19.45 0ZM14.76 23.96L15.6 6.89L15.79 6.89L16.75 23.96L14.76 23.96Z" fill="#292929" fill-opacity="1.000000" fill-rule="nonzero"/>
	<path id="Vector" d="M4.39 6.88L4.39 13.76L9.38 13.76L9.38 20.65L4.39 20.65L4.39 36.92C2.9 37.09 1.43 37.28 0 37.48L0 0L9.61 0L9.61 6.88L4.39 6.88Z" fill="#292929" fill-opacity="1.000000" fill-rule="nonzero"/>
</svg>
