<svg width="53.000000" height="34.000000" viewBox="0 0 53 34" fill="none" xmlns="http://www.w3.org/2000/svg" xmlns:xlink="http://www.w3.org/1999/xlink">
	<desc>
			Created with Pixso.
	</desc>
	<defs/>
	<path id="Vector" d="M52.84 30.65L52.84 34C45.13 32.89 36.07 32.24 26.33 32.24C16.67 32.24 7.66 32.88 0 33.97L0 30.63C7.75 29.55 16.74 28.93 26.33 28.93C35.99 28.93 45.05 29.55 52.84 30.65Z" fill="#CBA265" fill-opacity="1.000000" fill-rule="evenodd"/>
	<path id="Vector" d="M52.84 23.82L52.84 29C51.72 28.83 50.58 28.69 49.41 28.55L49.41 23.82L52.84 23.82Z" fill="#CBA265" fill-opacity="1.000000" fill-rule="nonzero"/>
	<path id="Vector" d="M50.08 22.1L49.41 0L52.84 0L52.17 22.11L50.08 22.1Z" fill="#FFFFFF" fill-opacity="1.000000" fill-rule="nonzero"/>
	<path id="Vector" d="M44.36 10.64L48.47 10.63L48.47 28.44C46.89 28.26 45.27 28.11 43.6 27.96C41.3 27.62 40.15 24.51 40.15 19.05L40.15 7.38C40.15 2.29 41.54 0 44.3 0C45.43 0 46.31 0.37 46.92 1.11C47.52 1.84 47.94 2.67 48.17 4.08C48.4 5.5 48.48 7.13 48.48 9.16L45.15 9.16L45.15 7.39C45.15 6.8 45.1 6.31 45 5.92C44.9 5.51 44.7 5.31 44.39 5.31C44 5.31 43.8 5.53 43.68 5.95C43.56 6.37 43.5 6.84 43.5 7.34L43.5 19.92C43.5 20.65 43.56 21.61 43.67 22.08C43.79 22.53 44.02 22.76 44.37 22.76C44.73 22.76 44.96 22.54 45.08 22.08C45.2 21.61 45.26 20.64 45.26 19.88L45.26 15.95L44.36 15.95L44.36 10.64Z" fill="#FFFFFF" fill-opacity="1.000000" fill-rule="nonzero"/>
	<path id="Vector" d="M39.22 0L39.22 27.65C38.14 27.58 37.06 27.53 35.96 27.48L35.96 0L39.22 0Z" fill="#FFFFFF" fill-opacity="1.000000" fill-rule="nonzero"/>
	<path id="Vector" d="M34.63 14.28C34.38 13.13 33.87 12.4 33.11 12.1C33.7 11.85 34.12 11.33 34.41 10.54C34.69 9.74 34.84 8.7 34.84 7.42L34.84 6.23C34.84 4 34.56 2.42 33.99 1.45C33.44 0.48 32.55 0 31.32 0L26.74 0L26.74 27.27L27.08 27.27L31.32 27.27C32.31 27.27 33.07 26.91 33.61 26.17C34.15 25.44 34.52 24.41 34.72 23.08C34.93 21.76 35.03 20.22 35.03 18.45C35.03 16.81 34.9 15.42 34.63 14.28ZM30.04 5.31L30.75 5.31C31.23 5.31 31.47 5.75 31.47 6.62L31.47 8.27C31.47 8.81 31.42 9.65 31.34 10.04C31.25 10.44 31.04 10.63 30.73 10.63L30.04 10.63L30.04 5.31ZM31.69 20.44C31.69 21.79 31.34 22.86 30.46 22.86C30.38 22.86 30.27 22.86 30.13 22.83L30.05 14.9L30.67 14.9C31.07 14.9 31.34 15.12 31.47 15.58C31.62 16.03 31.69 16.63 31.69 17.41L31.69 20.44Z" fill="#FFFFFF" fill-opacity="1.000000" fill-rule="nonzero"/>
	<path id="Vector" d="M24.14 13.04C24.79 12.7 25.22 12.08 25.46 11.2C25.7 10.31 25.81 9.12 25.81 7.64C25.81 6.1 25.74 4.76 25.58 3.63C25.43 2.48 25.14 1.59 24.69 0.96C24.25 0.31 23.6 0 22.74 0L17.56 0L17.56 27.44C18.69 27.39 19.82 27.36 20.98 27.33L20.98 14.89C21.42 14.89 21.75 14.99 21.95 15.18C22.15 15.37 22.25 15.79 22.25 16.58L22.25 27.31C23.36 27.29 24.47 27.27 25.58 27.27L25.58 16.95C25.58 15.87 25.48 15 25.26 14.33C25.04 13.64 24.67 13.21 24.14 13.04ZM21.81 10.63L20.99 10.63L20.99 5.31L21.77 5.31C22.05 5.31 22.25 5.47 22.34 5.81C22.44 6.14 22.5 6.58 22.5 7.64C22.51 9.28 22.27 10.63 21.81 10.63Z" fill="#FFFFFF" fill-opacity="1.000000" fill-rule="nonzero"/>
	<path id="Vector" d="M15.03 0L9.3 0L7.69 28.08C8.77 27.98 9.87 27.9 10.98 27.81L11.17 22.86L13.21 22.86L13.45 27.64C14.5 27.58 15.56 27.53 16.63 27.48L15.03 0ZM11.41 18.51L12.05 5.32L12.2 5.32L12.94 18.51L11.41 18.51Z" fill="#FFFFFF" fill-opacity="1.000000" fill-rule="nonzero"/>
	<path id="Vector" d="M3.39 5.31L3.39 10.63L7.25 10.63L7.25 15.95L3.39 15.95L3.39 28.53C2.24 28.66 1.11 28.81 0 28.96L0 0L7.42 0L7.42 5.31L3.39 5.31Z" fill="#FFFFFF" fill-opacity="1.000000" fill-rule="nonzero"/>
</svg>
