<svg width="248" height="74" viewBox="0 0 248 74" fill="none" xmlns="http://www.w3.org/2000/svg">
<path d="M0 63.5574V0H10.6557C12.4064 0 14.0561 0.209243 15.6048 0.627728C17.1871 1.04621 18.5843 1.85703 19.7963 3.06017C21.0083 4.21101 21.951 5.88494 22.6244 8.08199C23.3314 10.2267 23.6849 13.0776 23.6849 16.6348C23.6849 19.198 23.4324 21.3689 22.9274 23.1474C22.456 24.8737 21.7659 26.2599 20.8568 27.3061C19.9815 28.3523 18.921 29.0585 17.6753 29.4247C19.2577 29.7386 20.5875 30.5494 21.6649 31.8571C22.7422 33.1126 23.5502 34.8127 24.0889 36.9574C24.6612 39.1022 24.9474 41.6915 24.9474 44.7256C24.9474 48.0211 24.6612 50.872 24.0889 53.2783C23.5502 55.6323 22.759 57.5678 21.7154 59.0848C20.6717 60.6018 19.3755 61.7265 17.8268 62.4588C16.3118 63.1912 14.5611 63.5574 12.5747 63.5574H0ZM9.03965 53.7491H10.9587C12.945 53.7491 14.3086 52.9645 15.0492 51.3952C15.8236 49.8258 16.2108 47.5242 16.2108 44.4902C16.2108 42.0839 16.0424 40.1745 15.7058 38.7621C15.3691 37.3498 14.8136 36.3297 14.0392 35.702C13.2649 35.0219 12.2212 34.6819 10.9082 34.6819H9.03965V53.7491ZM9.03965 25.4229H10.8072C12.1875 25.4229 13.2312 25.1091 13.9382 24.4814C14.6452 23.8013 15.1166 22.8336 15.3523 21.5781C15.6216 20.3227 15.7563 18.8057 15.7563 17.0271C15.7563 15.3532 15.5543 13.9669 15.1503 12.8684C14.7799 11.7176 14.2076 10.8544 13.4332 10.279C12.6925 9.70361 11.7499 9.4159 10.6052 9.4159H9.03965V25.4229Z" fill="#292929"/>
<path d="M29.689 63.5574V0H54.1819V63.5574H45.2937V10.0436H38.5771V63.5574H29.689Z" fill="#292929"/>
<path d="M60.2656 63.5574V0H78.648V9.57284H69.3053V25.3445H76.4259V35.0742H69.3053V54.063H78.7489V63.5574H60.2656Z" fill="#292929"/>
<path d="M82.8529 63.5574V0H96.5892C99.0469 0 101.067 0.732348 102.649 2.19704C104.232 3.60943 105.41 5.70186 106.184 8.47432C106.959 11.1945 107.346 14.5162 107.346 18.4395C107.346 23.3567 106.824 27.123 105.78 29.7386C104.737 32.3018 103.323 34.0803 101.538 35.0742C99.7539 36.0681 97.7507 36.5651 95.5286 36.5651H91.8926V63.5574H82.8529ZM91.8926 26.7569H94.9226C96.0337 26.7569 96.8753 26.443 97.4477 25.8153C98.02 25.1875 98.3904 24.246 98.5587 22.9905C98.7607 21.7351 98.8617 20.1396 98.8617 18.2041C98.8617 16.5825 98.7775 15.1701 98.6092 13.9669C98.4745 12.7115 98.121 11.7176 97.5487 10.9852C96.9763 10.2529 96.0842 9.8867 94.8721 9.8867H91.8926V26.7569Z" fill="#292929"/>
<path d="M111.704 63.5574V0H130.086V9.57284H120.743V25.3445H127.864V35.0742H120.743V54.063H130.187V63.5574H111.704Z" fill="#292929"/>
<path d="M132.17 74V53.5137H133.331C134.106 53.1476 134.813 52.5198 135.452 51.6305C136.126 50.689 136.732 49.4335 137.27 47.8642C137.809 46.2949 138.297 44.3332 138.735 41.9792C139.173 39.6253 139.543 36.8267 139.846 33.5834C140.149 30.2878 140.401 26.4953 140.603 22.2058L141.714 0H160.753V53.5137H165.349V74H159.39L158.935 63.5574H138.886L138.381 74H132.17ZM141.866 53.5137H152.32V9.96517H148.532L148.078 23.6182C147.909 28.1169 147.657 31.9356 147.32 35.0742C147.017 38.2129 146.647 40.8284 146.209 42.9208C145.805 44.9609 145.367 46.6349 144.896 47.9427C144.425 49.2504 143.92 50.3228 143.381 51.1598C142.876 51.9967 142.371 52.7814 141.866 53.5137Z" fill="#292929"/>
<path d="M210.266 66.8259C210.677 66.4921 211.044 66.1704 211.391 65.8527C211.596 65.6718 211.794 65.4948 211.987 65.3179C212.181 65.141 212.374 64.96 212.56 64.7871C212.906 64.4574 213.253 64.1236 213.6 63.7938C214.281 63.1424 214.962 62.491 215.647 61.8396C216.998 60.5568 218.32 59.3142 219.658 58.132C219.992 57.8384 220.327 57.5449 220.666 57.2594C220.835 57.1146 221.004 56.9739 221.169 56.8331C221.254 56.7608 221.339 56.6884 221.427 56.62C221.516 56.5476 221.605 56.4712 221.697 56.3989C222.415 55.8077 223.136 55.2126 223.866 54.6094C225.325 53.4071 226.804 52.1887 228.312 50.93C229.344 50.0092 230.448 49.1325 231.629 48.264C232.806 47.3994 234.048 46.5509 235.309 45.6944C235.942 45.2641 236.579 44.8339 237.212 44.4076L237.446 44.2468L237.647 44.1141L237.748 44.0457L238.063 43.8406C238.212 43.7481 238.357 43.6556 238.502 43.5672C238.655 43.4747 238.808 43.3782 238.961 43.2857C239.119 43.1892 239.276 43.0927 239.437 42.9962C239.598 42.8956 239.764 42.7951 239.925 42.6946C240.009 42.6423 240.09 42.59 240.171 42.5377C240.255 42.4855 240.336 42.4332 240.421 42.3809C240.505 42.3246 240.59 42.2723 240.674 42.216C240.759 42.1597 240.84 42.1075 240.928 42.0512C241.606 41.6008 242.303 41.0981 242.984 40.511L242.69 40.7765C242.642 40.8207 242.593 40.8649 242.541 40.9051L242.392 41.0298C242.194 41.1987 242.001 41.3515 241.803 41.5083C241.706 41.5847 241.61 41.6571 241.513 41.7335L241.368 41.8461C241.319 41.8823 241.271 41.9185 241.223 41.9507L240.932 42.1597L240.509 42.4613L240.368 42.5578L240.09 42.7509C239.909 42.8715 239.727 42.9962 239.546 43.1168C239.203 43.346 238.861 43.5792 238.518 43.8084C238.357 43.917 238.196 44.0296 238.046 44.1382C237.889 44.2467 237.748 44.3513 237.603 44.4559C237.43 44.5805 237.256 44.7092 237.083 44.8379C236.91 44.9666 236.732 45.0912 236.559 45.2199C235.862 45.7266 235.164 46.2212 234.471 46.7158C233.084 47.701 231.71 48.6701 230.384 49.6513C229.058 50.6284 227.748 51.6418 226.458 52.6792C225.168 53.7167 223.898 54.7823 222.649 55.8721C222.338 56.1455 222.024 56.419 221.718 56.6924L221.488 56.8975L221.27 57.0945C221.125 57.2272 220.98 57.3599 220.835 57.4926C220.258 58.0315 219.686 58.5864 219.114 59.1574C218.541 59.7284 217.973 60.3155 217.401 60.9107C216.828 61.5098 216.252 62.117 215.667 62.7323C215.083 63.3475 214.494 63.9708 213.89 64.5981C213.583 64.9117 213.281 65.2254 212.975 65.5391C212.64 65.8768 212.294 66.2106 211.931 66.5484C212.354 66.4559 212.781 66.3393 213.209 66.1986C213.313 66.1624 213.422 66.1262 213.527 66.0859C213.579 66.0658 213.632 66.0457 213.68 66.0337L213.696 66.0297L213.712 66.0256C213.72 66.0256 213.733 66.0176 213.745 66.0136L213.821 65.9854C214.019 65.909 214.22 65.8286 214.422 65.7401C215.216 65.3863 215.998 64.9198 216.719 64.3126C218.368 62.7483 219.888 61.2565 221.367 59.9054C221.552 59.7405 221.734 59.5716 221.919 59.4067C222.101 59.2459 222.286 59.081 222.467 58.9202L222.741 58.6829L222.878 58.5623L223.028 58.4336C223.229 58.2647 223.427 58.0958 223.624 57.9269C224.422 57.2554 225.22 56.5959 226.023 55.9485C225.845 55.7152 225.498 55.2609 225.325 55.0317C227.179 53.8293 228.949 52.5908 230.682 51.3603C232.407 50.1338 234.161 48.8711 235.942 47.5482C236.39 47.2184 236.833 46.8847 237.281 46.5429L237.954 46.0322L238.288 45.7748L238.574 45.5536C238.917 45.2882 239.312 45.0028 239.743 44.6971C240.175 44.3955 240.646 44.0698 241.146 43.72C241.646 43.3661 242.17 42.9881 242.714 42.5578C243.258 42.1276 243.823 41.6531 244.395 41.0941C244.431 41.0619 244.467 41.0258 244.504 40.9896L244.613 40.881L244.826 40.6598L244.879 40.6036L244.907 40.5714L244.967 40.507L245.084 40.3783L245.141 40.314L245.169 40.2778L245.201 40.2376C245.245 40.1853 245.286 40.1331 245.33 40.0808L245.427 39.9602L245.463 39.9119C245.511 39.8476 245.556 39.7832 245.6 39.7189L245.665 39.6184L245.697 39.5661L245.733 39.5057C245.782 39.4253 245.83 39.3489 245.874 39.2645C245.898 39.2243 245.919 39.1841 245.943 39.1398C245.967 39.0916 245.991 39.0433 246.015 38.9951C246.064 38.8986 246.108 38.802 246.148 38.7055L246.164 38.6693L246.181 38.6251L246.213 38.5406C246.233 38.4843 246.257 38.4281 246.277 38.3677C246.358 38.1506 246.435 37.8731 246.487 37.6118L246.499 37.5635L246.507 37.5112L246.527 37.4026C246.539 37.3303 246.547 37.2579 246.56 37.1855C246.568 37.1131 246.576 37.0407 246.584 36.9684C246.592 36.892 246.596 36.8196 246.596 36.7432C246.604 36.5944 246.604 36.4416 246.6 36.2928C246.592 36.144 246.584 35.9912 246.564 35.8424C246.555 35.766 246.543 35.6976 246.531 35.6253C246.519 35.5529 246.507 35.4845 246.495 35.4121C246.483 35.3398 246.467 35.2714 246.451 35.203C246.435 35.1387 246.418 35.0744 246.398 35.01C246.382 34.9457 246.362 34.8814 246.342 34.817C246.322 34.7527 246.302 34.6884 246.281 34.6321C246.241 34.5195 246.197 34.4068 246.148 34.2983C246.136 34.2701 246.124 34.242 246.112 34.2178L246.08 34.1455C246.056 34.0972 246.035 34.049 246.011 34.0007C245.987 33.9525 245.963 33.9042 245.939 33.86L245.902 33.7956L245.87 33.7353C245.826 33.6549 245.778 33.5745 245.729 33.4981C245.685 33.4297 245.645 33.3654 245.596 33.297L245.528 33.2005L245.467 33.1161C245.427 33.0598 245.387 33.0034 245.346 32.9512L245.237 32.8145L245.181 32.7461L245.133 32.6898L245.032 32.5772L244.943 32.4807C244.826 32.352 244.734 32.2636 244.649 32.1791L244.54 32.0705L244.451 31.9861L244.367 31.9056C244.351 31.8896 244.334 31.8775 244.322 31.8614C244.29 31.8293 244.262 31.7971 244.238 31.7649C243.754 31.1778 243.274 30.5947 242.791 30.0036C242.299 29.4045 241.811 28.8134 241.332 28.2182C240.852 27.6231 240.38 27.028 239.921 26.4288C239.445 25.7975 238.965 25.1661 238.486 24.5348C238.699 24.6474 238.8 24.6152 238.861 24.5267C238.921 24.4423 238.933 24.3015 238.969 24.205C238.949 24.1809 238.929 24.1608 238.909 24.1367C238.929 24.1568 238.949 24.1809 238.969 24.205C239.03 24.0321 239.159 23.9758 239.711 24.571C239.159 23.9799 239.03 24.0321 238.969 24.205C239.102 24.3538 239.236 24.5026 239.369 24.6514C239.502 24.8002 239.635 24.953 239.768 25.1018C240.022 25.3913 240.275 25.6808 240.525 25.9704C241.021 26.5414 241.517 27.1084 242.013 27.6713C242.513 28.2464 243.012 28.8254 243.516 29.4125C243.766 29.706 244.016 30.0036 244.266 30.3052C244.391 30.454 244.516 30.6068 244.641 30.7556C244.75 30.8883 244.858 31.021 244.967 31.1537C244.983 31.1738 245 31.1899 245.016 31.21L245.1 31.2945L245.298 31.4875L245.435 31.6242L245.516 31.7086L245.6 31.8011L245.697 31.9056L245.745 31.962L245.802 32.0263L245.911 32.151C245.951 32.2032 245.995 32.2515 246.035 32.3038L246.096 32.3802L246.164 32.4686C246.209 32.5289 246.257 32.5933 246.302 32.6536L246.338 32.7059L246.374 32.7622L246.451 32.8748L246.523 32.9874L246.564 33.0517L246.604 33.1201C246.656 33.2085 246.709 33.301 246.757 33.3935C246.813 33.498 246.866 33.6066 246.918 33.7192L246.955 33.7997C246.967 33.8278 246.979 33.8519 246.995 33.8841C247.023 33.9484 247.047 34.0088 247.075 34.0731C247.1 34.1374 247.124 34.2018 247.148 34.2661L247.184 34.3626C247.196 34.3948 247.208 34.435 247.221 34.4672C247.269 34.6119 247.309 34.7607 247.346 34.9055C247.366 34.9779 247.382 35.0623 247.398 35.1427C247.414 35.2231 247.43 35.3036 247.446 35.384C247.458 35.4644 247.474 35.5449 247.483 35.6293C247.495 35.7138 247.503 35.8022 247.511 35.8866C247.527 36.0596 247.535 36.2285 247.539 36.4014C247.539 36.5743 247.535 36.7472 247.523 36.9201C247.519 36.9643 247.519 37.0086 247.515 37.0488L247.503 37.1734C247.495 37.2579 247.483 37.3383 247.47 37.4228C247.458 37.5072 247.446 37.5876 247.43 37.6681C247.414 37.7525 247.398 37.8249 247.382 37.9013C247.346 38.0541 247.309 38.2029 247.265 38.3517L247.249 38.408L247.233 38.4562L247.2 38.5567C247.176 38.6211 247.156 38.6895 247.132 38.7538C247.108 38.8181 247.084 38.8825 247.055 38.9468C247.043 38.979 247.027 39.0152 247.015 39.0393L246.979 39.1237C246.93 39.2363 246.878 39.3449 246.822 39.4535L246.761 39.5741L246.741 39.6103L246.664 39.747C246.612 39.8395 246.559 39.928 246.503 40.0164L246.463 40.0808L246.426 40.1371L246.35 40.2497C246.298 40.322 246.249 40.3944 246.193 40.4668L246.156 40.5151L246.048 40.6478C245.999 40.7081 245.951 40.7644 245.902 40.8247L245.866 40.8689L245.769 40.9775C245.725 41.0258 245.681 41.074 245.636 41.1223L245.568 41.1946L245.536 41.2268C245.387 41.3797 245.237 41.5284 245.084 41.6772C244.484 42.2522 243.891 42.7388 243.323 43.1691C242.754 43.5993 242.214 43.9773 241.698 44.3191C241.19 44.6609 240.711 44.9665 240.271 45.2561C239.832 45.5416 239.429 45.811 239.086 46.0563C238.667 46.3579 238.248 46.6635 237.833 46.9651C237.385 47.2868 236.938 47.6045 236.491 47.9262C234.713 49.1969 232.98 50.4314 231.331 51.686C229.678 52.9406 228.03 54.2636 226.381 55.6388C228.034 54.3118 229.695 53.0371 231.371 51.8227C233.04 50.6123 234.806 49.418 236.615 48.1755C237.071 47.8618 237.526 47.5482 237.982 47.2386L238.671 46.76L239.018 46.5187L239.268 46.3498C239.614 46.1166 240.017 45.8592 240.465 45.5778C240.912 45.2963 241.396 44.9947 241.92 44.6569C242.444 44.3151 243 43.9411 243.585 43.5068C244.169 43.0725 244.778 42.578 245.399 41.9909C245.556 41.8381 245.713 41.6853 245.866 41.5284L245.882 41.5123L245.907 41.4882L245.979 41.4118C246.027 41.3595 246.072 41.3113 246.12 41.259L246.189 41.1826L246.225 41.1424L246.265 41.0941C246.318 41.0338 246.37 40.9695 246.418 40.9051L246.495 40.8086L246.531 40.7604L246.572 40.7041C246.628 40.6277 246.684 40.5513 246.737 40.4708L246.817 40.3542L246.858 40.2939L246.902 40.2215C246.963 40.125 247.019 40.0325 247.075 39.932L247.156 39.7872L247.176 39.747L247.2 39.7028L247.245 39.6143C247.301 39.4977 247.358 39.3811 247.41 39.2605L247.45 39.172L247.491 39.0674C247.519 38.9991 247.543 38.9307 247.571 38.8583C247.599 38.786 247.624 38.7176 247.644 38.6492L247.68 38.5447L247.696 38.4884L247.712 38.4281C247.761 38.2712 247.801 38.1104 247.837 37.9455L247.865 37.8249C247.874 37.7847 247.882 37.7404 247.89 37.6962C247.906 37.6077 247.918 37.5193 247.934 37.4308C247.946 37.3423 247.958 37.2539 247.966 37.1654C247.97 37.1212 247.974 37.0769 247.978 37.0327L247.986 36.896C247.998 36.711 248.003 36.526 247.998 36.3411C247.994 36.1561 247.982 35.9711 247.966 35.7902C247.958 35.6977 247.946 35.6052 247.934 35.5167C247.922 35.4283 247.91 35.3438 247.894 35.2553C247.878 35.1669 247.861 35.0824 247.841 34.994L247.813 34.8653C247.805 34.821 247.793 34.7849 247.785 34.7446C247.745 34.5878 247.7 34.431 247.648 34.2742L247.628 34.2178L247.608 34.1656L247.571 34.061C247.547 33.9927 247.519 33.9243 247.491 33.8559C247.462 33.7876 247.434 33.7192 247.406 33.6509C247.378 33.5905 247.354 33.5342 247.325 33.4739C247.297 33.4136 247.269 33.3573 247.241 33.301L247.152 33.1321C247.1 33.0356 247.043 32.9351 246.987 32.8386L246.942 32.7662L246.902 32.7019L246.826 32.5812L246.705 32.4003L246.668 32.348C246.62 32.2796 246.572 32.2153 246.523 32.151L246.487 32.1027L246.451 32.0585L246.386 31.9781C246.342 31.9258 246.298 31.8695 246.257 31.8172L246.144 31.6845L246.088 31.6202L246.035 31.5638L245.935 31.4553L245.761 31.2743L245.62 31.1336L245.423 30.9406L245.387 30.9044L245.378 30.8963C245.374 30.8923 245.37 30.8883 245.37 30.8843L245.354 30.8682C245.346 30.8561 245.334 30.8441 245.326 30.832C245.346 30.8561 245.27 30.7596 245.221 30.7033L245.068 30.5143L244.762 30.1404C244.556 29.891 244.355 29.6458 244.149 29.4045C243.738 28.9179 243.331 28.4394 242.92 27.9689C242.101 27.0279 241.291 26.1151 240.497 25.2184L240.179 24.8605L239.852 24.4986L239.526 24.1407L239.199 23.7868C238.764 23.3164 238.329 22.8579 237.893 22.4035C237.027 21.4988 236.176 20.6302 235.35 19.7817L235.039 19.464L234.451 18.8528L234.153 18.5392C233.754 18.1169 233.33 17.6665 232.879 17.1961C231.98 16.2591 230.968 15.2418 229.775 14.2284L229.662 14.1319L229.549 14.0394L229.32 13.8504L229.207 13.7579L229.11 13.6816L228.921 13.5287L228.538 13.2231L228.155 12.9215C227.901 12.7205 227.647 12.5234 227.389 12.3264C227.135 12.1294 226.877 11.9363 226.623 11.7393C225.603 10.9632 224.579 10.2072 223.564 9.47134C222.911 8.99684 221.601 8.05183 220.948 7.57733C220.174 7.28378 219.428 6.96613 218.703 6.62433C218.521 6.53988 218.344 6.45142 218.166 6.36295L218.033 6.29458L217.562 6.04125L216.361 5.39786C215.591 4.9877 214.877 4.59762 214.224 4.20756C213.571 3.82152 212.983 3.43551 212.467 3.04545C212.419 3.23847 212.322 3.41941 212.193 3.59232C212.064 3.76523 211.903 3.93413 211.733 4.09497C211.395 4.42069 211.016 4.73434 210.794 5.09223C210.685 5.27318 210.617 5.46219 210.621 5.6713C210.625 5.77585 210.641 5.88845 210.685 6.00104C210.726 6.11766 210.786 6.23828 210.875 6.36696C211.052 6.62431 211.326 6.90581 211.741 7.21946C212.152 7.53312 212.701 7.87087 213.418 8.26093C213.257 8.5022 212.934 8.98475 212.773 9.22602C212.003 8.93247 211.262 8.71131 210.568 8.54242C209.871 8.37353 209.218 8.24888 208.609 8.16845C208.456 8.14835 208.307 8.12825 208.162 8.11618C208.017 8.10412 207.876 8.08802 207.735 8.07998C207.594 8.06791 207.461 8.06389 207.328 8.05987C207.195 8.05585 207.066 8.05184 206.941 8.05587C206.816 8.05587 206.695 8.06392 206.578 8.07197C206.461 8.08001 206.348 8.09206 206.239 8.10413C206.022 8.1363 205.82 8.18053 205.643 8.24487C205.304 8.38963 205.042 8.59874 204.869 8.87621C204.824 8.94457 204.788 9.01693 204.756 9.09333C204.74 9.13354 204.724 9.16975 204.712 9.20996C204.704 9.23007 204.7 9.25017 204.695 9.27028C204.691 9.29441 204.687 9.31452 204.687 9.33865C204.663 9.52362 204.671 9.72868 204.716 9.95789C204.804 10.4123 205.034 10.9431 205.417 11.5342C205.8 12.1173 206.332 12.7446 206.993 13.3719C207.09 13.4604 207.178 13.5408 207.275 13.6292C207.368 13.7137 207.465 13.7981 207.557 13.8786C207.743 14.0394 207.936 14.2043 208.118 14.3611C208.493 14.6788 208.855 14.9723 209.214 15.2578C209.549 15.5273 209.887 15.8007 210.23 16.0782C210.306 16.1425 210.387 16.2069 210.464 16.2712L210.58 16.3677C210.629 16.4079 210.681 16.4481 210.734 16.4884C210.939 16.6492 211.145 16.8141 211.35 16.9749C213.015 18.2697 214.781 19.5083 216.538 20.7508C217.417 21.3701 218.295 21.9934 219.154 22.6247C219.368 22.7815 219.581 22.9424 219.795 23.0992C220.005 23.26 220.218 23.4169 220.428 23.5777L220.899 23.9396L220.976 24L221.008 24.0281L221.036 24.0522C221.113 24.1125 221.19 24.1729 221.266 24.2372L221.5 24.4342C222.129 24.9731 222.794 25.6366 223.503 26.4046C223.858 26.7907 224.225 27.2008 224.608 27.6311C224.805 27.8523 224.999 28.0735 225.192 28.2906C225.293 28.4032 225.39 28.5158 225.49 28.6244C225.583 28.7329 225.676 28.8375 225.769 28.9461C226.599 29.8629 227.409 30.7516 228.187 31.6121C228.574 32.0424 228.957 32.4686 229.328 32.8908L229.876 33.5182L230.412 34.1415C231.202 35.0623 231.984 35.951 232.742 36.8115L233.87 38.0903L234.423 38.7176L234.697 39.0272L234.902 39.2565L234.919 39.2766L234.947 39.3127L235.023 39.4012C235.152 39.55 235.281 39.6988 235.414 39.8395C235.547 39.9803 235.688 40.121 235.829 40.2577L235.934 40.3582L236.039 40.4548L236.075 40.4909L236.132 40.5392L236.152 40.5553C236.18 40.5794 236.188 40.5874 236.196 40.5915C236.192 40.5955 236.196 40.5915 236.208 40.5794L236.233 40.5553L236.321 40.4628L236.684 40.1009C236.926 39.8596 237.172 39.6223 237.418 39.3851L237.51 39.2967L237.684 39.1237L237.893 38.9187C238.034 38.7819 238.175 38.6452 238.321 38.5125L238.538 38.3115L238.679 38.1747C238.772 38.0863 238.869 37.9978 238.965 37.9093L239.183 37.7163L239.236 37.6681C239.304 37.6078 239.373 37.5434 239.445 37.4831C239.514 37.4228 239.586 37.3625 239.659 37.3062C239.711 37.2619 239.764 37.2177 239.82 37.1734C239.876 37.1292 239.929 37.085 239.985 37.0448L240.005 37.0287L240.118 36.9443C240.163 36.9121 240.207 36.8799 240.251 36.8517L240.284 36.8276L240.308 36.8075L240.36 36.7713C240.396 36.7472 240.433 36.7231 240.469 36.703L240.497 36.6869L240.517 36.6748L240.558 36.6467C240.586 36.6306 240.614 36.6145 240.646 36.5984L240.719 36.5622C240.743 36.5502 240.767 36.5381 240.791 36.53C240.803 36.526 240.812 36.522 240.82 36.518L240.848 36.5059C240.997 36.4456 241.057 36.4537 241.033 36.4537C241.009 36.4537 240.896 36.4336 240.727 36.3531L240.699 36.337L240.683 36.329C240.679 36.325 240.675 36.325 240.666 36.321C240.642 36.3089 240.614 36.2968 240.59 36.2808C240.537 36.2526 240.501 36.2244 240.437 36.1842C240.38 36.148 240.324 36.1078 240.271 36.0676C240.207 36.0234 240.142 35.9711 240.082 35.9229C240.05 35.8987 240.026 35.8706 239.993 35.8424C239.957 35.8143 239.921 35.7821 239.889 35.754C239.82 35.6936 239.751 35.6293 239.691 35.5649L239.687 35.5609C232.947 29.0948 237.817 33.7675 236.313 32.3239V32.3279L236.309 32.3319L236.301 32.34L236.289 32.3601C236.273 32.3842 236.253 32.4123 236.237 32.4405C236.212 32.4686 236.188 32.5008 236.164 32.533L236.128 32.5812L236.083 32.6335C236.051 32.6697 236.023 32.7059 235.991 32.7421L235.882 32.8627L235.825 32.923C235.809 32.9432 235.781 32.9673 235.761 32.9874C235.527 33.2327 235.229 33.5021 234.866 33.7956C234.503 34.0892 234.084 34.3988 233.621 34.7366C233.153 35.0784 232.637 35.4443 232.069 35.8665L231.855 36.0274L231.746 36.1078L231.666 36.1722C231.557 36.2566 231.452 36.3411 231.343 36.4255C231.126 36.5944 230.908 36.7593 230.69 36.9282C228.929 38.2712 227.038 39.6103 225.12 41.0418C224.64 41.3997 224.156 41.7616 223.681 42.1276C223.205 42.4935 222.733 42.8594 222.266 43.2334C221.331 43.9773 220.416 44.7293 219.521 45.4933C218.626 46.2574 217.755 47.0294 216.913 47.8136C216.49 48.2077 216.074 48.6017 215.667 48.9998C215.563 49.1004 215.458 49.2049 215.353 49.3054C215.244 49.41 215.139 49.5145 215.035 49.6231C214.821 49.8322 214.619 50.0453 214.41 50.2585C213.797 50.8496 213.031 51.489 212.233 52.1364C211.435 52.7798 210.597 53.4312 209.823 54.0465C209.049 54.6617 208.335 55.2367 207.779 55.7555C207.501 56.0168 207.259 56.2581 207.066 56.4913C206.969 56.6039 206.888 56.7165 206.82 56.8251C206.783 56.8774 206.755 56.9337 206.727 56.9859C206.715 57.0101 206.699 57.0382 206.687 57.0624C206.679 57.0744 206.675 57.0865 206.667 57.1026C206.658 57.1187 206.65 57.1307 206.646 57.1468C206.606 57.2111 206.578 57.2674 206.55 57.3237C206.521 57.38 206.501 57.4323 206.481 57.4846C206.441 57.5891 206.413 57.6856 206.396 57.7781C206.36 57.9631 206.368 58.128 206.413 58.2808C206.493 58.5824 206.711 58.8317 206.977 59.0609C207.094 58.9724 207.211 58.8799 207.328 58.7874C207.444 58.695 207.557 58.6025 207.678 58.5019L208.049 58.1964C208.17 58.0958 208.291 57.9953 208.416 57.8948C208.904 57.4886 209.387 57.0744 209.875 56.6522C210.851 55.8077 211.822 54.9432 212.818 54.0666C213.313 53.6283 213.817 53.1899 214.325 52.7516C214.833 52.3133 215.345 51.875 215.869 51.4407C216.127 51.2236 216.397 51.0064 216.659 50.7893C216.917 50.5802 217.171 50.3711 217.429 50.166C217.941 49.7518 218.457 49.3376 218.969 48.9234C220.202 47.8739 221.448 46.8324 222.709 45.7989C223.338 45.2842 223.975 44.7695 224.616 44.2588C225.253 43.7481 225.902 43.2374 226.547 42.7348C227.832 41.7295 229.11 40.7443 230.356 39.7631C230.976 39.2725 231.593 38.7779 232.198 38.2833L232.649 37.9133L232.875 37.7243L233.153 37.5032L233.29 37.3946L233.423 37.2901L233.693 37.081L234.209 36.6869C234.044 36.8196 233.879 36.9563 233.713 37.089L233.455 37.3021L233.193 37.5193L232.927 37.7445L232.895 37.7726L232.867 37.7967L232.814 37.845L232.706 37.9415C232.56 38.0662 232.419 38.1948 232.27 38.3195C231.69 38.8221 231.089 39.3208 230.481 39.8194C229.263 40.8127 227.998 41.7978 226.708 42.8031C226.063 43.3058 225.414 43.8125 224.765 44.3191C224.116 44.8258 223.471 45.3365 222.826 45.8472C221.536 46.8686 220.25 47.898 218.969 48.9315C218.469 49.3577 217.969 49.784 217.469 50.2142L216.723 50.8576C216.469 51.0828 216.207 51.304 215.958 51.5292C215.45 51.9755 214.958 52.4299 214.47 52.8803C213.982 53.3307 213.499 53.7851 213.027 54.2355C212.076 55.1362 211.145 56.0289 210.214 56.9055C209.75 57.3398 209.287 57.7741 208.819 58.1964C208.585 58.4095 208.351 58.6185 208.118 58.8277L207.771 59.1373C207.658 59.2378 207.545 59.3343 207.432 59.4308C207.678 59.6158 207.932 59.8048 208.138 60.022C208.343 60.2431 208.497 60.4965 208.549 60.8181C208.549 60.8181 208.472 60.8785 208.343 60.971C208.214 61.0635 208.037 61.1962 207.84 61.3329C207.44 61.6144 206.953 61.928 206.63 62.109C206.392 62.4508 206.199 62.7604 206.014 63.0379C205.921 63.1786 205.828 63.3113 205.727 63.436C205.627 63.5606 205.518 63.6773 205.377 63.7778C205.236 63.8783 205.058 63.9547 204.857 63.9788C204.655 64.007 204.438 63.9828 204.252 63.9426C204.067 63.9064 203.905 63.8622 203.772 63.8542C203.635 63.8421 203.518 63.8501 203.422 63.9024C203.325 63.9547 203.252 64.0472 203.212 64.192C203.204 64.2282 203.196 64.2684 203.192 64.3086C203.188 64.3528 203.184 64.397 203.188 64.4453C203.196 64.5458 203.216 64.6624 203.256 64.7871C203.301 64.9118 203.365 65.0525 203.454 65.1933C203.543 65.334 203.66 65.4828 203.793 65.6155C203.825 65.6517 203.861 65.6838 203.901 65.716C203.922 65.7321 203.938 65.7482 203.958 65.7683C203.974 65.7844 203.994 65.8005 204.014 65.8165C204.087 65.8769 204.167 65.9412 204.256 65.9975C204.409 66.1061 204.599 66.2106 204.76 66.291C205.103 66.4559 205.441 66.5685 205.739 66.6449C206.038 66.7253 206.312 66.7776 206.57 66.8178C206.63 66.8299 206.695 66.8379 206.759 66.846C206.82 66.854 206.88 66.862 206.941 66.8701C206.997 66.8781 207.058 66.8821 207.118 66.8902C207.174 66.8942 207.231 66.9023 207.291 66.9063C207.348 66.9103 207.404 66.9143 207.461 66.9224C207.513 66.9264 207.569 66.9304 207.626 66.9344C207.731 66.9425 207.84 66.9465 207.94 66.9545C208.134 66.9465 208.331 66.9384 208.537 66.9264C208.73 66.9183 208.924 66.9063 209.113 66.8942C209.303 66.8822 209.492 66.8661 209.682 66.85C209.887 66.8661 210.077 66.846 210.266 66.8259Z" fill="#292929"/>
<path d="M190.532 58.3266C190.806 57.9285 191.008 57.5706 191.161 57.2811C191.254 57.1162 191.33 56.9755 191.382 56.8709C191.411 56.8146 191.423 56.7825 191.427 56.7543L191.56 56.5412C191.649 56.4005 191.737 56.2597 191.826 56.123C191.915 55.9822 192.003 55.8455 192.096 55.7088C192.277 55.4313 192.463 55.1659 192.648 54.8965C192.834 54.6311 193.023 54.3657 193.217 54.1084C193.41 53.851 193.603 53.5896 193.801 53.3403C193.902 53.2156 193.998 53.087 194.099 52.9623C194.2 52.8377 194.301 52.713 194.402 52.5924L194.555 52.4074L194.708 52.2264C194.809 52.1058 194.913 51.9851 195.018 51.8605C195.123 51.7399 195.228 51.6233 195.333 51.5026C195.438 51.382 195.542 51.2653 195.647 51.1487C195.752 51.0321 195.861 50.9155 195.966 50.7989C196.074 50.6823 196.183 50.5697 196.288 50.4531C196.502 50.2198 196.723 49.9987 196.945 49.7695C197.388 49.3231 197.84 48.8808 198.303 48.4505C198.533 48.2294 198.771 48.0243 199.005 47.8071C199.267 47.5739 199.533 47.3367 199.799 47.0994C200.335 46.6209 200.871 46.1343 201.407 45.6357C202.004 45.0325 202.641 44.4534 203.31 43.8904C203.644 43.609 203.987 43.3355 204.338 43.0661C204.511 42.9294 204.688 42.7967 204.866 42.664C204.946 42.6037 205.027 42.5433 205.111 42.483C205.192 42.4227 205.277 42.3624 205.361 42.3061C206.039 41.8316 206.788 41.3692 207.578 40.8866C207.973 40.6454 208.376 40.396 208.788 40.1387C208.993 40.01 209.199 39.8773 209.404 39.7446C209.509 39.6762 209.61 39.6079 209.715 39.5395C209.815 39.4712 209.916 39.4028 210.017 39.3344C210.037 39.3224 210.057 39.3063 210.077 39.2942L210.154 39.2459C210.231 39.1977 210.311 39.1495 210.388 39.1012C210.561 38.9926 210.759 38.868 210.964 38.7272C211.174 38.5865 211.395 38.4296 211.629 38.2406C211.867 38.0517 212.121 37.8345 212.403 37.5369C212.121 37.8466 211.871 38.0758 211.637 38.2729C211.404 38.4699 211.19 38.6388 210.984 38.7876C210.783 38.9363 210.593 39.069 210.428 39.1897L210.311 39.2741L210.21 39.3465L210.17 39.3787C210.158 39.3867 210.15 39.3948 210.142 39.4028C210.122 39.4189 210.106 39.4309 210.09 39.447C209.965 39.5435 209.84 39.636 209.715 39.7325C209.586 39.825 209.457 39.9215 209.332 40.014C209.203 40.1065 209.078 40.199 208.953 40.2875L208.574 40.5528C208.074 40.9027 207.586 41.2325 207.115 41.5501C206.647 41.8718 206.196 42.1815 205.772 42.4871C205.559 42.6399 205.353 42.7927 205.156 42.9455L204.495 43.4562C202.721 44.8354 200.972 46.2871 199.259 47.7991C199.146 47.8956 199.061 47.98 198.964 48.0645L198.686 48.3218C198.501 48.4988 198.32 48.6797 198.138 48.8566C197.961 49.0416 197.779 49.2226 197.606 49.4116L197.344 49.6971C197.255 49.7936 197.171 49.8861 197.086 49.9826C196.401 50.7547 195.748 51.571 195.131 52.4275C194.51 53.28 193.926 54.1727 193.362 55.0976C193.079 55.56 192.805 56.0305 192.539 56.505C192.406 56.7422 192.273 56.9835 192.14 57.2248L192.116 57.269L192.104 57.2932L192.096 57.3052C192.096 57.3092 192.096 57.3092 192.096 57.3092V57.3253C192.096 57.3294 192.096 57.3334 192.096 57.3414L192.092 57.3655C192.092 57.3736 192.088 57.3816 192.084 57.3937L192.072 57.4259C192.068 57.4339 192.064 57.446 192.06 57.458C192.023 57.5505 191.963 57.6711 191.894 57.8119C192.044 57.7596 192.185 57.7114 192.306 57.6872C192.334 57.6832 192.366 57.6752 192.394 57.6711L192.435 57.6671H192.471L192.503 57.6711H192.519C192.523 57.6711 192.527 57.6752 192.531 57.6752L192.555 57.6872L192.564 57.6912H192.568L192.515 57.647L192.487 57.6229C192.463 57.6028 192.644 57.7556 192.568 57.6912H192.572L192.58 57.6872L192.592 57.6832C192.87 57.5827 193.144 57.458 193.406 57.3173C193.934 57.0358 194.418 56.6739 194.829 56.1994C194.938 56.0466 195.051 55.8897 195.159 55.741C195.268 55.5922 195.381 55.4434 195.49 55.2906C195.599 55.1458 195.712 54.9971 195.82 54.8523L195.986 54.6351L196.151 54.422C196.373 54.1325 196.594 53.859 196.816 53.5816C196.929 53.4448 197.038 53.3122 197.151 53.1754C197.263 53.0387 197.376 52.91 197.489 52.7773C197.715 52.5119 197.941 52.2586 198.17 52.0053C198.283 51.8806 198.4 51.76 198.513 51.6353C198.569 51.575 198.626 51.5106 198.686 51.4503L199.033 51.0965L199.122 51.008L199.21 50.9236L199.561 50.5778C199.678 50.4652 199.799 50.3566 199.916 50.244C199.976 50.1877 200.033 50.1314 200.093 50.0791L200.274 49.9183C200.089 49.689 199.73 49.2467 199.549 49.0215C199.662 48.9532 199.771 48.8808 199.879 48.8084C200.004 48.724 200.133 48.6395 200.258 48.5591C200.512 48.3902 200.758 48.2213 201.008 48.0524C201.5 47.7106 201.984 47.3648 202.459 47.0149C203.41 46.3152 204.325 45.5995 205.228 44.8837C205.454 44.7068 205.68 44.5258 205.901 44.3489L206.204 44.1076C206.301 44.0312 206.401 43.9508 206.502 43.8744C206.909 43.5607 207.349 43.231 207.816 42.8892C208.312 42.5273 208.804 42.1694 209.299 41.8075L209.694 41.5179L209.892 41.3692L210.094 41.2163C210.227 41.1158 210.364 41.0113 210.501 40.9067C210.638 40.8022 210.767 40.6976 210.9 40.5931L210.932 40.5569C210.936 40.5529 210.936 40.5529 210.94 40.5488L210.96 40.5327C210.972 40.5207 210.984 40.5127 211.005 40.4966L211.061 40.4564L211.125 40.4081L211.275 40.3036C211.488 40.1508 211.734 39.9738 212.012 39.7607L212.117 39.6803L212.226 39.5958C212.298 39.5395 212.375 39.4752 212.452 39.4108C212.488 39.3787 212.532 39.3465 212.572 39.3103L212.693 39.2057L212.887 39.0369L212.955 38.9725L213.088 38.8438C213.133 38.7996 213.185 38.7473 213.23 38.6991C213.322 38.6066 213.427 38.49 213.528 38.3774C213.552 38.3492 213.58 38.3171 213.608 38.2849L213.79 38.0677L213.81 38.0396L213.854 37.9833C213.911 37.9069 213.971 37.8305 214.024 37.7541C214.084 37.6656 214.149 37.5732 214.205 37.4807L214.249 37.4123L214.269 37.3761L214.294 37.3359C214.326 37.2836 214.358 37.2273 214.39 37.171C214.423 37.1147 214.451 37.0625 214.483 37.0062L214.503 36.966L214.527 36.9217L214.576 36.8252C214.608 36.7609 214.636 36.6925 214.669 36.6282L214.713 36.5276L214.733 36.4794L214.753 36.4271C214.814 36.2703 214.87 36.1134 214.918 35.9526L214.939 35.8923L214.947 35.8601L214.955 35.8239L214.991 35.6872C215.015 35.5947 215.035 35.5022 215.055 35.4097L215.084 35.269L215.096 35.1966L215.108 35.1202C215.124 35.0157 215.136 34.9111 215.144 34.8066C215.152 34.702 215.16 34.5975 215.164 34.4929C215.168 34.3843 215.168 34.2717 215.164 34.1591C215.16 33.9339 215.144 33.7128 215.108 33.4876C215.092 33.375 215.072 33.2624 215.047 33.1498C215.023 33.0412 214.999 32.9246 214.971 32.8241C214.914 32.615 214.842 32.4059 214.765 32.2008C214.745 32.1485 214.725 32.1043 214.705 32.0601C214.685 32.0158 214.664 31.9676 214.644 31.9233C214.604 31.8309 214.56 31.7424 214.511 31.6539C214.487 31.6097 214.463 31.5655 214.439 31.5212C214.427 31.5011 214.415 31.477 214.402 31.4569L214.37 31.4006C214.326 31.3242 214.278 31.2518 214.229 31.1794C214.181 31.107 214.132 31.0346 214.08 30.9623L214.04 30.91L214.02 30.8818L213.955 30.8014C213.891 30.721 213.826 30.6406 213.762 30.5601C213.697 30.4878 213.633 30.4154 213.568 30.343C213.536 30.3068 213.504 30.2747 213.475 30.2425L213.383 30.146C213.35 30.1138 213.318 30.0816 213.29 30.0535L213.201 29.969C213.141 29.9128 213.08 29.8564 213.028 29.8122C212.972 29.764 212.915 29.7157 212.863 29.6715L212.706 29.5468C212.508 29.39 212.335 29.2693 212.19 29.1688L211.907 28.9758C211.879 28.9557 211.851 28.9356 211.823 28.9155C211.758 28.8632 211.698 28.8069 211.645 28.7466C211.617 28.7184 211.593 28.6823 211.569 28.6541C211.557 28.638 211.545 28.6219 211.533 28.6058L211.512 28.5777L211.48 28.5375C211.299 28.2962 211.049 27.9102 210.702 27.3955L210.565 27.1944L210.416 26.9813C210.319 26.8445 210.223 26.7119 210.13 26.5751C209.944 26.3178 209.759 26.0604 209.57 25.8031C209.203 25.3044 208.856 24.8259 208.538 24.3675C208.876 24.5002 208.917 24.1986 209.001 24.0177C208.985 24.0016 208.973 23.9855 208.957 23.9694C208.969 23.9855 208.985 24.0016 209.001 24.0177C209.041 23.9372 209.09 23.8849 209.179 23.901C209.223 23.9091 209.279 23.9372 209.348 23.9895C209.384 24.0177 209.42 24.0458 209.465 24.086C209.509 24.1262 209.553 24.1745 209.606 24.2308C209.553 24.1745 209.505 24.1262 209.465 24.086C209.42 24.0458 209.384 24.0136 209.348 23.9895C209.279 23.9372 209.223 23.9091 209.179 23.901C209.09 23.8809 209.041 23.9372 209.001 24.0177C209.368 24.4278 209.759 24.8702 210.166 25.3447L210.319 25.5256L210.472 25.7106C210.577 25.8352 210.682 25.9639 210.783 26.0886L210.94 26.2856L211.017 26.3821L211.097 26.4867C211.21 26.6314 211.311 26.7641 211.408 26.8888C211.565 27.1019 211.726 27.315 211.883 27.5322C212.012 27.7091 212.117 27.8458 212.198 27.9423C212.218 27.9665 212.226 27.9785 212.234 27.9906C212.242 27.9986 212.25 28.0067 212.254 28.0188C212.262 28.0268 212.27 28.0348 212.278 28.0429C212.286 28.0509 212.294 28.0589 212.302 28.067C212.335 28.0992 212.367 28.1314 212.403 28.1595C212.419 28.1716 212.435 28.1836 212.452 28.1957L212.734 28.3887C212.887 28.4973 213.072 28.63 213.294 28.8069L213.467 28.9476L213.512 28.9879L213.56 29.0281L213.653 29.1085C213.713 29.1608 213.782 29.2251 213.85 29.2854L213.951 29.3779C213.983 29.4101 214.024 29.4463 214.056 29.4825L214.161 29.591C214.197 29.6272 214.229 29.6634 214.265 29.7036C214.338 29.784 214.411 29.8645 214.483 29.9489C214.556 30.0374 214.632 30.1299 214.705 30.2224L214.757 30.2907L214.797 30.347L214.842 30.4073C214.902 30.4918 214.959 30.5762 215.015 30.6607C215.072 30.7451 215.124 30.8336 215.176 30.918L215.217 30.9824C215.229 31.0025 215.245 31.0306 215.257 31.0548C215.285 31.1071 215.313 31.1553 215.338 31.2076C215.39 31.3121 215.442 31.4167 215.491 31.5212C215.515 31.5735 215.539 31.6258 215.563 31.6821L215.6 31.7625C215.612 31.7866 215.624 31.8188 215.636 31.8469C215.729 32.0842 215.809 32.3255 215.874 32.5748C215.906 32.6954 215.938 32.8281 215.962 32.9568C215.987 33.0855 216.011 33.2182 216.031 33.3509C216.071 33.6163 216.087 33.8736 216.091 34.135C216.095 34.2637 216.091 34.3964 216.087 34.5251C216.083 34.6457 216.071 34.7704 216.059 34.891C216.047 35.0116 216.031 35.1363 216.015 35.2569L216.003 35.3494L215.987 35.4298C215.974 35.4821 215.966 35.5384 215.954 35.5907C215.93 35.6993 215.906 35.8078 215.878 35.9124C215.866 35.9647 215.85 36.021 215.833 36.0732L215.821 36.1134L215.809 36.1496L215.789 36.218C215.733 36.403 215.664 36.5839 215.596 36.7649L215.571 36.8252L215.547 36.8815L215.495 36.9981C215.459 37.0745 215.426 37.1509 215.39 37.2273L215.334 37.3399L215.305 37.3922L215.281 37.4404C215.245 37.5048 215.213 37.5651 215.176 37.6295C215.14 37.6938 215.104 37.7541 215.068 37.8144L215.039 37.8586L215.015 37.8988L214.963 37.9793C214.894 38.0838 214.822 38.1884 214.753 38.2849C214.689 38.3734 214.624 38.4578 214.556 38.5422L214.483 38.6388L214.459 38.6669L214.273 38.884C214.241 38.9202 214.209 38.9564 214.181 38.9846C214.068 39.1092 213.947 39.2379 213.842 39.3385L213.762 39.4189C213.733 39.443 213.705 39.4752 213.681 39.4953L213.532 39.636L213.455 39.7044L213.387 39.7647L213.246 39.8853L213.113 39.9979C213.068 40.0341 213.024 40.0703 212.984 40.1025C212.899 40.1668 212.814 40.2352 212.738 40.2955L212.617 40.384L212.504 40.4684C212.202 40.6896 211.94 40.8625 211.718 41.0113L211.444 41.1962L211.4 41.2284L211.383 41.2405C211.379 41.2445 211.379 41.2445 211.375 41.2445L211.355 41.2646C211.218 41.3611 211.085 41.4616 210.948 41.5581C210.811 41.6547 210.67 41.7552 210.533 41.8517L210.327 41.9965L210.126 42.1372L209.727 42.4106C209.227 42.7444 208.731 43.0822 208.231 43.416C207.764 43.7336 207.328 44.0352 206.929 44.3328L206.853 44.3891L206.78 44.4454L206.635 44.5539C206.538 44.6263 206.45 44.6987 206.357 44.7711C206.139 44.94 205.922 45.1129 205.7 45.2858C204.825 45.9815 203.955 46.7013 203.084 47.4452C202.649 47.8192 202.213 48.1932 201.774 48.5792C201.556 48.7722 201.335 48.9652 201.117 49.1582C201.008 49.2547 200.899 49.3513 200.786 49.4518L200.621 49.6006L200.541 49.673L200.472 49.7373L200.541 49.677L200.625 49.6046L200.79 49.4639L201.125 49.1824C201.347 48.9974 201.568 48.8124 201.79 48.6275C202.233 48.2615 202.677 47.8956 203.12 47.5417C204.007 46.83 204.898 46.1383 205.793 45.4708C206.014 45.3059 206.24 45.141 206.466 44.9762L206.752 44.7711L206.901 44.6666C206.95 44.6304 206.998 44.5982 207.05 44.562C207.457 44.2845 207.901 43.995 208.376 43.6894C208.852 43.3838 209.364 43.0621 209.904 42.7163L210.315 42.4509L210.525 42.3142L210.734 42.1734C210.876 42.0809 211.021 41.9804 211.162 41.8839C211.307 41.7874 211.44 41.6909 211.581 41.5944L211.944 41.3611C212.173 41.2164 212.443 41.0394 212.758 40.8142L212.875 40.7298L213 40.6373C213.08 40.577 213.169 40.5086 213.258 40.4403C213.298 40.4081 213.35 40.3679 213.395 40.3317L213.536 40.2191L213.685 40.0944L213.758 40.0301L213.838 39.9577L213.995 39.813C214.052 39.7607 214.108 39.7044 214.165 39.6481L214.294 39.5194L214.338 39.4712C214.398 39.4068 214.459 39.3425 214.519 39.2782L214.568 39.2258L214.713 39.057L214.81 38.9404L214.834 38.9082L214.862 38.876L214.914 38.8077C214.987 38.7152 215.051 38.6267 215.124 38.5342C215.201 38.4257 215.273 38.3171 215.346 38.2085C215.414 38.108 215.499 37.9632 215.575 37.8345C215.612 37.7662 215.652 37.7018 215.688 37.6335L215.717 37.5812L215.745 37.5209L215.805 37.4002C215.846 37.3198 215.882 37.2394 215.918 37.159L215.97 37.0383L215.995 36.978L216.023 36.9096C216.099 36.7166 216.168 36.5236 216.228 36.3266L216.253 36.2501L216.277 36.1657C216.293 36.1094 216.309 36.0531 216.321 35.9968C216.349 35.8842 216.378 35.7676 216.398 35.651C216.41 35.5947 216.422 35.5344 216.43 35.4781C216.434 35.45 216.442 35.4178 216.446 35.3856L216.462 35.2891C216.482 35.1604 216.494 35.0317 216.507 34.899C216.519 34.7663 216.527 34.6417 216.531 34.505C216.535 34.3642 216.535 34.2275 216.531 34.0867C216.523 33.8093 216.503 33.5318 216.458 33.2503C216.438 33.1096 216.414 32.9688 216.386 32.8321C216.37 32.7638 216.357 32.6954 216.341 32.6271C216.325 32.5587 216.309 32.4943 216.289 32.43C216.216 32.1686 216.128 31.9073 216.031 31.658C215.938 31.4287 215.829 31.2035 215.717 30.9824C215.688 30.9261 215.66 30.8738 215.628 30.8175C215.612 30.7894 215.6 30.7693 215.583 30.7451L215.543 30.6768C215.487 30.5843 215.43 30.4918 215.37 30.4033C215.309 30.3108 215.249 30.2224 215.184 30.1339C215.108 30.0294 215.088 30.0012 215.047 29.9489L214.931 29.8002L214.87 29.7278C214.85 29.7036 214.83 29.6795 214.814 29.6594C214.737 29.5709 214.66 29.4865 214.584 29.398L214.556 29.3659L214.249 29.0602L214.145 28.9597L214.04 28.8632L213.987 28.819L213.939 28.7747L213.842 28.6903C213.81 28.6621 213.774 28.63 213.745 28.6098L213.564 28.4611C213.338 28.2801 213.145 28.1394 212.988 28.0268L212.79 27.8901L212.718 27.8418C212.714 27.8378 212.71 27.8378 212.71 27.8338C212.701 27.8257 212.689 27.8177 212.681 27.8097C212.645 27.7775 212.613 27.7373 212.585 27.6971L212.581 27.689L212.572 27.677L212.552 27.6528L212.54 27.6408L212.528 27.6247L212.476 27.5563L212.415 27.4759L212.347 27.3874L212.274 27.2869L212.101 27.0496L211.895 26.7762L211.778 26.6234L211.653 26.4585L211.589 26.3741L211.52 26.2856L211.379 26.1046L211.109 25.7709C210.751 25.3366 210.4 24.9345 210.065 24.5605C209.392 23.8126 208.779 23.1692 208.264 22.5941C208.135 22.4494 208.01 22.3127 207.897 22.18C207.836 22.1116 207.784 22.0472 207.727 21.9829L207.522 21.7416C207.22 21.3878 206.913 21.0339 206.599 20.676C205.341 19.2485 203.971 17.7888 202.427 16.3814L202.137 16.116L201.842 15.8546C201.669 15.7058 201.5 15.553 201.327 15.4042C201.004 15.1187 200.682 14.8332 200.355 14.5477C199.714 13.9807 199.085 13.4137 198.473 12.8467C198.271 12.6617 197.973 12.3802 197.679 12.1028C197.384 11.8213 197.098 11.5439 196.905 11.3549C196.373 11.1337 195.869 10.8803 195.393 10.6029C195.159 10.4621 194.926 10.3174 194.704 10.1605L194.539 10.044C194.51 10.0238 194.486 10.0078 194.454 9.98364L194.365 9.91928L194.277 9.85091L194.188 9.77853L193.998 9.62573C193.874 9.52118 193.736 9.40455 193.599 9.28794L193.168 8.91397C192.87 8.65662 192.547 8.37915 192.189 8.08962C191.83 7.8001 191.439 7.49851 190.987 7.1929L190.818 7.08032L190.653 6.97574C190.544 6.90336 190.431 6.83904 190.318 6.77068C190.093 6.63798 189.863 6.50928 189.629 6.39267C189.661 6.60981 189.605 6.81088 189.5 7.0039C189.395 7.19289 189.25 7.37384 189.093 7.55882C188.936 7.73977 188.771 7.92476 188.629 8.10973C188.488 8.29471 188.367 8.48772 188.295 8.68476C188.222 8.8818 188.198 9.08286 188.234 9.28794C188.275 9.49704 188.38 9.71421 188.561 9.95548C188.605 10.0158 188.658 10.0801 188.714 10.1404C188.771 10.2048 188.835 10.2731 188.9 10.3415C189.033 10.4782 189.182 10.627 189.351 10.7838C189.69 11.0975 190.101 11.4634 190.592 11.8776C190.383 12.0747 189.96 12.4768 189.75 12.6738C189.202 12.3561 188.633 12.1269 188.097 12.0224C187.827 11.9701 187.573 11.95 187.327 11.958C187.082 11.9661 186.848 12.0023 186.63 12.0626C186.195 12.1832 185.824 12.4084 185.534 12.6698C185.24 12.9352 185.026 13.2448 184.873 13.5545C184.679 13.8359 184.554 14.1375 184.51 14.4512C184.498 14.5276 184.494 14.608 184.494 14.6844C184.494 14.7246 184.494 14.7648 184.498 14.801C184.498 14.8211 184.502 14.8413 184.502 14.8614C184.498 14.8774 184.498 14.8975 184.494 14.9136C184.478 15.0584 184.466 15.1951 184.454 15.3318C184.433 15.6053 184.421 15.8626 184.401 16.0959C184.389 16.2125 184.377 16.321 184.365 16.4216C184.357 16.4698 184.353 16.5221 184.345 16.5663C184.337 16.5864 184.329 16.6066 184.321 16.6226C184.316 16.6347 184.316 16.6427 184.312 16.6548L184.308 16.6709V16.687C184.308 16.699 184.308 16.7111 184.308 16.7232L184.316 16.7634C184.321 16.7754 184.325 16.7915 184.329 16.8036C184.333 16.8197 184.337 16.8317 184.345 16.8478C184.369 16.9081 184.401 16.9805 184.441 17.061C184.486 17.1414 184.538 17.2298 184.599 17.3264C184.663 17.4269 184.732 17.5314 184.812 17.648C184.893 17.7687 184.986 17.8933 185.09 18.0341C185.119 18.0703 185.147 18.1065 185.171 18.1426C185.199 18.1788 185.227 18.219 185.26 18.2552C185.288 18.2914 185.32 18.3357 185.356 18.3759C185.389 18.4161 185.421 18.4563 185.457 18.5006C185.719 18.8303 185.997 19.152 186.279 19.4737C187.42 20.7565 188.706 21.9668 190.028 23.1169C190.689 23.6919 191.358 24.2549 192.023 24.8098C192.354 25.0832 192.684 25.3607 193.019 25.6382L193.229 25.8151C193.293 25.8714 193.362 25.9237 193.426 25.98C193.555 26.0926 193.688 26.2052 193.817 26.3258C194.849 27.2587 195.841 28.3404 196.739 29.5508C196.989 29.8685 197.239 30.1862 197.489 30.5119C197.554 30.5964 197.606 30.6647 197.699 30.7813C197.783 30.8859 197.868 30.9945 197.953 31.095C198.122 31.3001 198.283 31.4971 198.444 31.6861C199.085 32.4421 199.658 33.0895 200.129 33.6525C200.367 33.9339 200.577 34.1873 200.758 34.4245L200.891 34.5974L201.008 34.7502L201.339 35.1926C201.472 35.3695 201.637 35.5827 201.822 35.8199L201.967 36.0009L202.169 36.2421L202.302 36.3989L202.407 36.5196L202.516 36.6402C203.1 37.2916 203.745 37.8868 204.446 38.4015C204.575 38.494 204.704 38.5865 204.833 38.6709L205.031 38.8036L205.188 38.9082L205.224 38.9283L205.24 38.9404L205.248 38.9444L205.253 38.9484L205.273 38.9605L205.285 38.9645C205.285 38.9645 205.285 38.9645 205.289 38.9645H205.293L205.333 38.9082L205.442 38.7554L205.664 38.4538L205.712 38.3894L205.74 38.3492L206.043 37.927C206.208 37.7058 206.373 37.4806 206.542 37.2635L206.575 37.2233L206.599 37.1911L206.72 37.0343L206.881 36.8212L207.046 36.6121L207.131 36.5075L207.171 36.4593L207.199 36.4231C207.276 36.3266 207.353 36.2301 207.433 36.1336L207.554 35.9928L207.586 35.9566L207.611 35.9285L207.655 35.8762C207.715 35.8078 207.772 35.7355 207.836 35.6711L207.885 35.6189L207.909 35.5947C207.917 35.5867 207.921 35.5826 207.929 35.5746L207.998 35.4982C208.046 35.4459 208.094 35.3977 208.143 35.3494C208.171 35.3213 208.183 35.3052 208.203 35.2851L208.26 35.2288L208.32 35.1725L208.348 35.1443C208.356 35.1363 208.368 35.1242 208.376 35.1202C208.405 35.0921 208.437 35.0639 208.469 35.0358C208.501 35.0076 208.538 34.9794 208.558 34.9634C208.582 34.9433 208.606 34.9231 208.634 34.903L208.655 34.887L208.663 34.8789L209.243 34.4446L209.247 34.4406C209.259 34.4326 209.267 34.4245 209.279 34.4165C209.32 34.3843 209.384 34.3522 209.408 34.3361C209.424 34.328 209.445 34.32 209.461 34.312C209.473 34.3079 209.473 34.3079 209.477 34.3039C209.481 34.3039 209.485 34.2999 209.489 34.2999C209.493 34.2999 209.501 34.2959 209.505 34.2959H209.517C209.509 34.2959 209.505 34.2959 209.497 34.2959C209.497 34.2959 209.485 34.2959 209.481 34.2959C209.473 34.2959 209.465 34.2959 209.457 34.2959C209.449 34.2959 209.441 34.2959 209.436 34.2919C209.428 34.2919 209.424 34.2878 209.412 34.2878C209.388 34.2838 209.364 34.2798 209.344 34.2717C209.332 34.2677 209.324 34.2637 209.312 34.2597C209.295 34.2556 209.279 34.2516 209.267 34.2476C209.037 34.1752 208.699 33.9902 208.296 33.6766C207.893 33.3629 207.429 32.9286 206.905 32.3657C206.837 32.2933 206.772 32.2209 206.708 32.1485L206.635 32.0641L206.607 32.0319L206.498 31.9113C206.425 31.8309 206.357 31.7464 206.284 31.666L206.18 31.5413L206.155 31.5092L206.127 31.473L206.067 31.4046C205.986 31.3121 205.91 31.2196 205.833 31.1231L205.72 30.9824L205.664 30.91C205.644 30.8859 205.627 30.8618 205.603 30.8336C205.515 30.725 205.43 30.6164 205.345 30.5079L205.216 30.343L205.12 30.2224L205.115 30.2183C205.132 30.2505 205.071 30.3349 204.938 30.4596C204.87 30.5239 204.785 30.5923 204.668 30.6888L204.567 30.7652L204.446 30.8577C204.342 30.9341 204.241 31.0145 204.14 31.0909C204.019 31.1995 203.898 31.3081 203.781 31.4086C203.721 31.4609 203.664 31.5132 203.6 31.5654L203.41 31.7223C203.152 31.9314 202.874 32.1485 202.584 32.3697C202.29 32.5908 201.98 32.8201 201.653 33.0533C201.314 33.2986 200.972 33.5439 200.633 33.7932C200.279 34.0506 199.912 34.32 199.541 34.6055L199.259 34.8226L199.013 35.0157C198.852 35.1443 198.686 35.273 198.525 35.4017C197.876 35.9164 197.239 36.4392 196.606 36.9619C195.978 37.4847 195.357 38.0155 194.748 38.5503C194.446 38.8157 194.144 39.0851 193.849 39.3545C193.7 39.4913 193.555 39.624 193.406 39.7607C193.261 39.8974 193.112 40.0341 192.967 40.1708C192.302 40.7901 191.673 41.4254 191.084 42.0809C190.939 42.2458 190.798 42.4107 190.657 42.5755C190.588 42.66 190.516 42.7404 190.447 42.8248C190.379 42.9093 190.31 42.9937 190.246 43.0742C190.113 43.243 189.976 43.4079 189.847 43.5768C189.718 43.7457 189.593 43.9146 189.468 44.0835C189.363 44.2122 189.254 44.3449 189.133 44.4776C189.016 44.6103 188.891 44.747 188.762 44.8797C188.509 45.1531 188.226 45.4346 187.944 45.7161C187.372 46.2831 186.775 46.8662 186.227 47.4332C186.09 47.5739 185.957 47.7146 185.828 47.8554C185.699 47.9961 185.574 48.1329 185.457 48.2656C185.215 48.535 185.006 48.7963 184.82 49.0456C184.639 49.295 184.49 49.5322 184.381 49.7534C184.272 49.9746 184.208 50.1796 184.196 50.3646C184.167 50.4812 184.147 50.5898 184.139 50.6903C184.139 50.7024 184.135 50.7144 184.135 50.7265C184.135 50.7345 184.135 50.7386 184.131 50.7466C184.127 50.7547 184.127 50.7627 184.123 50.7708C184.115 50.8029 184.107 50.8391 184.099 50.8672C184.095 50.8833 184.091 50.8994 184.091 50.9155C184.091 50.9316 184.087 50.9437 184.087 50.9598C184.083 50.9879 184.083 51.016 184.079 51.0442C184.075 51.2533 184.127 51.4101 184.208 51.5428C184.373 51.8082 184.647 51.9852 184.961 52.138C185.042 52.0294 185.127 51.9168 185.231 51.7801L185.481 51.4704L185.945 50.8914C186.255 50.5054 186.574 50.1193 186.892 49.7333C187.529 48.9612 188.186 48.1891 188.863 47.4291C190.218 45.9051 191.661 44.4132 193.217 43.0018L193.745 42.4991L193.926 42.3343L194.285 42.0045L194.627 41.6949L195.97 40.4885C196.868 39.6843 197.779 38.88 198.698 38.0758C199.158 37.6737 199.621 37.2715 200.089 36.8734L200.44 36.5718L200.827 36.2501C201.085 36.037 201.343 35.832 201.593 35.6309L203.056 34.4728C203.523 34.1029 203.963 33.7409 204.374 33.3871C203.604 34.131 202.689 34.8789 201.705 35.6912C201.58 35.7958 201.46 35.8963 201.335 36.0009C201.21 36.1054 201.085 36.21 200.96 36.3145C200.835 36.4231 200.706 36.5317 200.577 36.6362C200.46 36.7367 200.343 36.8372 200.226 36.9418C199.767 37.3439 199.307 37.742 198.844 38.1442C197.92 38.9444 196.997 39.7406 196.074 40.5327C195.611 40.9268 195.151 41.3209 194.688 41.719L194.333 42.0206L193.958 42.3423L193.769 42.5031L193.583 42.668L193.217 42.9978C191.705 44.4575 190.343 45.9976 189.077 47.5618C188.444 48.346 187.839 49.1341 187.247 49.9263C186.953 50.3204 186.662 50.7185 186.376 51.1166C186.231 51.3136 186.09 51.5147 185.949 51.7117L185.735 52.0093L185.606 52.1902C185.562 52.2546 185.522 52.3109 185.481 52.3672C185.764 52.4838 186.05 52.6124 186.304 52.7773C186.554 52.9462 186.763 53.1553 186.912 53.4288C186.912 53.4288 186.731 53.662 186.501 53.9596C186.388 54.1003 186.267 54.2531 186.151 54.3858C186.034 54.5225 185.921 54.6432 185.828 54.7317C185.772 55.0413 185.723 55.3268 185.667 55.6002C185.606 55.8737 185.538 56.1351 185.453 56.3884C185.288 56.8951 185.094 57.3454 185.151 57.7757C185.179 57.9929 185.264 58.1979 185.433 58.3869C185.518 58.4834 185.618 58.5719 185.735 58.6523C185.796 58.6925 185.86 58.7327 185.929 58.7649C185.997 58.8011 186.07 58.8333 186.146 58.8654C186.183 58.8815 186.227 58.8936 186.263 58.9097C186.304 58.9217 186.344 58.9378 186.384 58.9499C186.465 58.974 186.558 58.9941 186.642 59.0142C186.731 59.0343 186.82 59.0464 186.916 59.0585C187.009 59.0705 187.102 59.0786 187.199 59.0866C187.581 59.1107 187.985 59.0826 188.371 59.0263C189.149 58.8172 189.863 58.5799 190.532 58.3266Z" fill="#292929"/>
</svg>
