<svg width="19.000000" height="20.000000" viewBox="0 0 19 20" fill="none" xmlns="http://www.w3.org/2000/svg" xmlns:xlink="http://www.w3.org/1999/xlink">
	<desc>
			Created with Pixso.
	</desc>
	<defs/>
	<path id="vector" d="M15.45 8.3C13.13 8.27 10.24 8.25 9.67 1.7C9.56 0.42 8.73 -0.32 7.39 -0.32C5.78 -0.32 3.78 0.75 2.28 2.41C0.36 4.55 -0.53 7.36 -0.22 10.32C0.28 15.02 4.76 19 9.57 19C14.37 19 18.27 15.1 18.27 10.31C18.27 8.32 16.96 8.31 15.45 8.3ZM5.13 7.29C4.14 7.29 3.33 6.49 3.33 5.5C3.33 4.51 4.14 3.71 5.13 3.71C6.12 3.71 6.92 4.51 6.92 5.5C6.92 6.49 6.12 7.29 5.13 7.29ZM4.58 9.44C5.57 9.44 6.37 10.24 6.37 11.23C6.37 12.22 5.57 13.02 4.58 13.02C3.59 13.02 2.79 12.22 2.79 11.23C2.79 10.24 3.59 9.44 4.58 9.44ZM10.79 15.02C10.79 16.01 9.98 16.81 9 16.81C8 16.81 7.2 16.01 7.2 15.02C7.2 14.03 8 13.23 9 13.23C9.98 13.23 10.79 14.03 10.79 15.02ZM15.97 11.98C15.97 12.97 15.16 13.77 14.18 13.77C13.19 13.77 12.39 12.97 12.39 11.98C12.39 10.99 13.19 10.19 14.18 10.19C15.16 10.19 15.97 10.99 15.97 11.98Z" fill="#000" fill-opacity="1.000000" fill-rule="nonzero"/>
</svg>
