<svg width="34.000000" height="24.000000" viewBox="0 0 34 24" fill="none" xmlns="http://www.w3.org/2000/svg" xmlns:xlink="http://www.w3.org/1999/xlink">
	<desc>
			Created with Pixso.
	</desc>
	<defs/>
	<rect id="Payment Method/Mastercard" width="34.500000" height="24.000000" transform="translate(-0.500000 0.000000)" fill="#FFFFFF" fill-opacity="0"/>
	<rect id="BASE" x="-0.500000" rx="2.500000" width="34.500000" height="24.000000" fill="#FFFFFF" fill-opacity="1.000000"/>
	<rect id="BASE" y="0.500000" rx="2.500000" width="33.500000" height="23.000000" stroke="#D9D9D9" stroke-opacity="1.000000" stroke-width="1.000000"/>
	<mask id="mask_4_13431" fill="white">
		<path id="Left" d="M17.0742 17.5469C15.7578 18.6504 14.0508 19.3164 12.1875 19.3164C8.02344 19.3164 4.64844 15.998 4.64844 11.9023C4.64844 7.80859 8.02344 4.48828 12.1875 4.48828C14.0508 4.48828 15.7578 5.1543 17.0742 6.25781C18.3906 5.1543 20.0977 4.48828 21.9648 4.48828C26.1289 4.48828 29.5039 7.80859 29.5039 11.9023C29.5039 15.998 26.1289 19.3164 21.9648 19.3164C20.0977 19.3164 18.3906 18.6504 17.0742 17.5469Z" clip-rule="evenodd" fill="" fill-opacity="1.000000" fill-rule="evenodd"/>
	</mask>
	<path id="Left" d="M17.0742 17.5469C15.7578 18.6504 14.0508 19.3164 12.1875 19.3164C8.02344 19.3164 4.64844 15.998 4.64844 11.9023C4.64844 7.80859 8.02344 4.48828 12.1875 4.48828C14.0508 4.48828 15.7578 5.1543 17.0742 6.25781C18.3906 5.1543 20.0977 4.48828 21.9648 4.48828C26.1289 4.48828 29.5039 7.80859 29.5039 11.9023C29.5039 15.998 26.1289 19.3164 21.9648 19.3164C20.0977 19.3164 18.3906 18.6504 17.0742 17.5469Z" clip-rule="evenodd" fill="#ED0006" fill-opacity="1.000000" fill-rule="evenodd" mask="url(#mask_4_13431)"/>
	<path id="Left" d="" fill="#979797" fill-opacity="0.000000" fill-rule="nonzero"/>
	<mask id="mask_4_13434" fill="white">
		<path id="Right" d="M17.0703 17.5469C18.3867 18.6504 20.0938 19.3164 21.9609 19.3164C26.1211 19.3164 29.4961 15.998 29.4961 11.9023C29.4961 7.80859 26.1211 4.48828 21.9609 4.48828C20.0938 4.48828 18.3867 5.1543 17.0703 6.25781C18.6914 7.61914 19.7188 9.64258 19.7188 11.9023C19.7188 14.1621 18.6914 16.1875 17.0703 17.5469Z" clip-rule="evenodd" fill="" fill-opacity="1.000000" fill-rule="evenodd"/>
	</mask>
	<path id="Right" d="M17.0703 17.5469C18.3867 18.6504 20.0938 19.3164 21.9609 19.3164C26.1211 19.3164 29.4961 15.998 29.4961 11.9023C29.4961 7.80859 26.1211 4.48828 21.9609 4.48828C20.0938 4.48828 18.3867 5.1543 17.0703 6.25781C18.6914 7.61914 19.7188 9.64258 19.7188 11.9023C19.7188 14.1621 18.6914 16.1875 17.0703 17.5469Z" clip-rule="evenodd" fill="#F9A000" fill-opacity="1.000000" fill-rule="evenodd" mask="url(#mask_4_13434)"/>
	<path id="Right" d="" fill="#979797" fill-opacity="0.000000" fill-rule="nonzero"/>
	<path id="Middle" d="M17.0703 6.25781C18.6953 7.61719 19.7227 9.64258 19.7227 11.9023C19.7227 14.1621 18.6953 16.1855 17.0703 17.5469C15.4492 16.1855 14.4219 14.1621 14.4219 11.9023C14.4219 9.64258 15.4492 7.61719 17.0703 6.25781Z" clip-rule="evenodd" fill="#FF5E00" fill-opacity="1.000000" fill-rule="evenodd"/>
</svg>
