<svg width="67.000000" height="34.000000" viewBox="0 0 67 34" fill="none" xmlns="http://www.w3.org/2000/svg" xmlns:xlink="http://www.w3.org/1999/xlink">
	<desc>
			Created with Pixso.
	</desc>
	<defs>
		<clipPath id="clip4_4491">
			<rect id="Payment Method" width="67.716667" height="34.000000" transform="translate(-0.714844 0.000000)" fill="white" fill-opacity="0"/>
		</clipPath>
	</defs>
	<rect id="Payment Method" width="67.716667" height="34.000000" transform="translate(-0.714844 0.000000)" fill="#FFFFFF" fill-opacity="0"/>
	<g clip-path="url(#clip4_4491)">
		<path id="path60" d="M57.83 9.7L57.83 18.01L54.87 18.01L54.87 12.18L52.01 12.18L52.01 18.01L49.04 18.01L49.04 9.7L57.83 9.7L57.83 9.7Z" fill="#000000" fill-opacity="1.000000" fill-rule="nonzero"/>
		<path id="path62" d="M42.94 18.31C45.6 18.31 47.57 16.68 47.57 14.21C47.57 11.82 46.12 10.27 43.69 10.27C42.56 10.27 41.64 10.66 40.94 11.34C41.1 9.94 42.3 8.91 43.61 8.91C43.91 8.91 46.19 8.9 46.19 8.9L47.48 6.43C47.48 6.43 44.62 6.5 43.29 6.5C40.25 6.55 38.19 9.32 38.19 12.67C38.19 16.58 40.2 18.31 42.94 18.31ZM42.96 12.45C43.95 12.45 44.63 13.1 44.63 14.21C44.63 15.21 44.02 16.03 42.96 16.03C41.94 16.03 41.26 15.27 41.26 14.23C41.26 13.12 41.94 12.45 42.96 12.45Z" fill="#000000" fill-opacity="1.000000" fill-rule="evenodd"/>
		<path id="path64" d="M35.78 15.23C35.78 15.23 35.08 15.63 34.03 15.71C32.83 15.75 31.76 14.99 31.76 13.64C31.76 12.32 32.7 11.56 34 11.56C34.8 11.56 35.85 12.12 35.85 12.12C35.85 12.12 36.62 10.7 37.02 9.99C36.29 9.44 35.32 9.13 34.18 9.13C31.32 9.13 29.11 11 29.11 13.62C29.11 16.27 31.19 18.09 34.18 18.04C35.02 18.01 36.17 17.71 36.88 17.26L35.78 15.23Z" fill="#000000" fill-opacity="1.000000" fill-rule="nonzero"/>
		<path id="path66" d="M-0.72 7.4L3.4 14.75L3.4 19.25L-0.72 26.59L-0.72 7.4Z" fill="#5B57A2" fill-opacity="1.000000" fill-rule="nonzero"/>
		<path id="path68" d="M15.09 12.08L18.95 9.71L26.84 9.71L15.09 16.91L15.09 12.08Z" fill="#D90751" fill-opacity="1.000000" fill-rule="nonzero"/>
		<path id="path70" d="M15.07 7.35L15.09 17.1L10.96 14.56L10.96 0L15.07 7.35Z" fill="#FAB718" fill-opacity="1.000000" fill-rule="nonzero"/>
		<path id="path72" d="M26.85 9.71L18.95 9.71L15.07 7.35L10.96 0L26.85 9.71Z" fill="#ED6F26" fill-opacity="1.000000" fill-rule="nonzero"/>
		<path id="path74" d="M15.09 26.63L15.09 21.9L10.96 19.41L10.97 34L15.09 26.63Z" fill="#63B22F" fill-opacity="1.000000" fill-rule="nonzero"/>
		<path id="path76" d="M18.94 24.29L3.4 14.75L-0.72 7.4L26.83 24.28L18.94 24.29Z" fill="#1487C9" fill-opacity="1.000000" fill-rule="nonzero"/>
		<path id="path78" d="M10.96 34L15.09 26.63L18.94 24.29L26.83 24.28L10.96 34Z" fill="#017F36" fill-opacity="1.000000" fill-rule="nonzero"/>
		<path id="path80" d="M-0.72 26.59L11 19.41L7.06 17L3.4 19.24L-0.72 26.59Z" fill="#984995" fill-opacity="1.000000" fill-rule="nonzero"/>
		<path id="path82" d="M31.76 23.61C31.67 23.72 31.55 23.81 31.41 23.87C31.26 23.93 31.1 23.96 30.94 23.96C30.78 23.96 30.63 23.93 30.48 23.88C30.35 23.83 30.22 23.76 30.12 23.66C30.02 23.56 29.94 23.44 29.89 23.31C29.83 23.17 29.8 23.02 29.8 22.86C29.8 22.71 29.83 22.57 29.89 22.43C29.94 22.3 30.01 22.18 30.11 22.09C30.21 21.99 30.32 21.91 30.45 21.85C30.58 21.8 30.72 21.77 30.88 21.77C31.05 21.77 31.21 21.79 31.35 21.83C31.49 21.87 31.61 21.94 31.71 22.04L31.54 22.34C31.46 22.26 31.35 22.2 31.25 22.17C31.15 22.13 31.04 22.12 30.93 22.12C30.83 22.12 30.75 22.14 30.66 22.17C30.57 22.21 30.49 22.26 30.42 22.32C30.35 22.39 30.3 22.47 30.26 22.56C30.22 22.65 30.21 22.75 30.21 22.86C30.21 22.98 30.23 23.08 30.26 23.17C30.31 23.27 30.36 23.34 30.43 23.41C30.5 23.48 30.58 23.52 30.67 23.56C30.77 23.59 30.87 23.61 30.97 23.61C31.1 23.61 31.21 23.58 31.32 23.53C31.41 23.49 31.5 23.42 31.58 23.34L31.76 23.61ZM32.25 23.91L32.25 21.81L32.62 21.81L32.62 23.37L33.85 21.81L34.23 21.81L34.23 23.91L33.85 23.91L33.85 22.35L32.62 23.91L32.25 23.91ZM36.72 23.61C36.63 23.72 36.51 23.82 36.37 23.87C36.22 23.93 36.07 23.96 35.91 23.96C35.75 23.96 35.59 23.93 35.44 23.88C35.31 23.83 35.19 23.76 35.09 23.66C34.99 23.56 34.91 23.44 34.85 23.31C34.8 23.17 34.77 23.02 34.77 22.86C34.77 22.71 34.8 22.57 34.85 22.43C34.91 22.3 34.98 22.18 35.08 22.09C35.17 21.99 35.28 21.91 35.41 21.85C35.55 21.79 35.7 21.76 35.85 21.77C36.01 21.77 36.17 21.79 36.32 21.83C36.46 21.87 36.58 21.94 36.68 22.04L36.51 22.34C36.42 22.26 36.32 22.2 36.21 22.17C36.11 22.13 36.01 22.12 35.9 22.12C35.71 22.12 35.53 22.19 35.39 22.32C35.32 22.39 35.27 22.47 35.23 22.56C35.19 22.65 35.17 22.75 35.17 22.86C35.17 22.98 35.19 23.08 35.23 23.17C35.27 23.27 35.33 23.34 35.4 23.41C35.47 23.48 35.55 23.52 35.64 23.56C35.73 23.59 35.83 23.61 35.94 23.61C36.07 23.61 36.18 23.58 36.28 23.53C36.38 23.49 36.47 23.42 36.55 23.34L36.72 23.61ZM36.92 21.81L38.85 21.81L38.85 22.18L38.07 22.18L38.07 23.91L37.69 23.91L37.69 22.18L36.92 22.18L36.92 21.81L36.92 21.81Z" fill="#000000" fill-opacity="1.000000" fill-rule="nonzero"/>
		<path id="path84" d="M40.6 23.89C40.75 23.84 40.87 23.78 40.98 23.68L40.86 23.39C40.79 23.45 40.7 23.5 40.59 23.54C40.48 23.59 40.35 23.61 40.21 23.61C40 23.61 39.83 23.55 39.69 23.44C39.56 23.33 39.49 23.18 39.47 22.98L41.1 22.98C41.12 22.91 41.12 22.82 41.12 22.73C41.12 22.58 41.1 22.45 41.05 22.33C41 22.22 40.92 22.12 40.83 22.03C40.75 21.95 40.64 21.88 40.52 21.83C40.4 21.79 40.27 21.76 40.14 21.76C39.96 21.76 39.8 21.8 39.67 21.85C39.54 21.91 39.42 21.99 39.33 22.08C39.23 22.18 39.16 22.3 39.12 22.43C39.07 22.57 39.04 22.71 39.04 22.86C39.04 23.03 39.07 23.18 39.12 23.31C39.17 23.44 39.25 23.56 39.35 23.66C39.45 23.75 39.57 23.83 39.71 23.88C39.86 23.93 40.02 23.96 40.18 23.96C40.32 23.96 40.47 23.93 40.6 23.89ZM39.65 22.27C39.77 22.17 39.92 22.12 40.12 22.12C40.3 22.12 40.45 22.16 40.56 22.26C40.67 22.36 40.72 22.5 40.73 22.67L39.44 22.67C39.46 22.52 39.54 22.38 39.65 22.27Z" fill="#000000" fill-opacity="1.000000" fill-rule="evenodd"/>
		<path id="path86" d="M41.64 21.81L41.98 21.81L42.8 22.85L43.57 21.81L43.91 21.81L43.91 23.91L43.53 23.91L43.53 22.38L42.79 23.35L42.78 23.35L42.01 22.38L42.01 23.91L41.64 23.91L41.64 21.81Z" fill="#000000" fill-opacity="1.000000" fill-rule="nonzero"/>
		<path id="path88" d="M44.93 21.82C44.82 21.85 44.71 21.89 44.6 21.96L44.71 22.25C44.79 22.21 44.88 22.18 44.96 22.15C45.05 22.11 45.16 22.1 45.29 22.1C45.39 22.1 45.48 22.12 45.54 22.15C45.6 22.18 45.66 22.23 45.69 22.28C45.72 22.34 45.74 22.41 45.75 22.5C45.76 22.58 45.77 22.67 45.77 22.76C45.69 22.71 45.6 22.67 45.51 22.66C45.42 22.64 45.33 22.63 45.24 22.63C45.13 22.63 45.03 22.65 44.92 22.67C44.82 22.7 44.74 22.75 44.67 22.8C44.6 22.86 44.54 22.93 44.5 23.01C44.46 23.1 44.44 23.2 44.44 23.3C44.44 23.5 44.5 23.66 44.62 23.77C44.74 23.89 44.9 23.94 45.09 23.94C45.27 23.94 45.41 23.91 45.51 23.85C45.62 23.79 45.71 23.72 45.77 23.64L45.77 23.91L46.12 23.91L46.12 22.62C46.12 22.35 46.07 22.14 45.94 21.99C45.82 21.84 45.61 21.77 45.31 21.77C45.18 21.77 45.05 21.78 44.93 21.82ZM45.56 23.52C45.47 23.58 45.36 23.61 45.22 23.61C45.1 23.61 45.01 23.58 44.94 23.52C44.87 23.46 44.84 23.38 44.84 23.28C44.84 23.22 44.85 23.17 44.88 23.12C44.91 23.08 44.94 23.04 44.98 23.01C45.02 22.99 45.07 22.96 45.12 22.95C45.18 22.94 45.23 22.93 45.29 22.93C45.48 22.93 45.64 22.98 45.77 23.07L45.77 23.34C45.71 23.41 45.64 23.47 45.56 23.52ZM49.45 21.07C49.53 21.04 49.6 20.98 49.66 20.89L49.46 20.6C49.41 20.67 49.35 20.72 49.28 20.74C49.21 20.77 49.14 20.79 49.06 20.8L48.99 20.82C48.93 20.83 48.86 20.84 48.79 20.85C48.67 20.87 48.56 20.91 48.46 20.96C48.29 21.03 48.15 21.13 48.05 21.25C47.94 21.38 47.87 21.52 47.81 21.67C47.75 21.83 47.72 22 47.7 22.16C47.68 22.33 47.67 22.5 47.67 22.65C47.67 22.85 47.69 23.03 47.75 23.19C47.8 23.36 47.87 23.49 47.97 23.6C48.07 23.72 48.19 23.8 48.32 23.86C48.46 23.92 48.62 23.96 48.79 23.96C48.95 23.96 49.1 23.92 49.23 23.87C49.36 23.81 49.48 23.74 49.58 23.64C49.67 23.54 49.75 23.42 49.8 23.29C49.85 23.16 49.88 23.02 49.88 22.88C49.88 22.72 49.86 22.58 49.81 22.45C49.77 22.33 49.71 22.22 49.62 22.12C49.53 22.03 49.42 21.96 49.3 21.91C49.17 21.86 49.03 21.83 48.89 21.83C48.8 21.83 48.71 21.85 48.63 21.87C48.55 21.89 48.47 21.93 48.39 21.97C48.32 22.01 48.25 22.06 48.19 22.12C48.14 22.18 48.09 22.25 48.05 22.33L48.05 22.33C48.05 22.23 48.07 22.13 48.08 22.03C48.11 21.93 48.14 21.83 48.18 21.74C48.22 21.65 48.27 21.56 48.33 21.49C48.41 21.41 48.49 21.35 48.58 21.31C48.69 21.26 48.8 21.23 48.91 21.2L48.99 21.19C49.06 21.18 49.13 21.16 49.2 21.15C49.29 21.13 49.37 21.11 49.45 21.07ZM48.12 23.09C48.09 22.97 48.07 22.84 48.07 22.72C48.09 22.65 48.12 22.58 48.16 22.52C48.2 22.46 48.25 22.4 48.31 22.35C48.45 22.24 48.62 22.18 48.8 22.18C49.03 22.18 49.19 22.25 49.31 22.39C49.42 22.52 49.48 22.69 49.48 22.9C49.48 23 49.46 23.09 49.43 23.18C49.4 23.26 49.35 23.33 49.29 23.4C49.23 23.46 49.15 23.52 49.07 23.55C48.98 23.59 48.89 23.61 48.78 23.61C48.68 23.61 48.58 23.59 48.5 23.54C48.41 23.5 48.33 23.44 48.27 23.37C48.21 23.28 48.16 23.19 48.12 23.09ZM52.77 21.81L52.39 21.81L52.39 23.91L52.77 23.91L52.77 21.81ZM50.42 21.81L50.8 21.81L50.8 22.44L51.15 22.44C51.32 22.44 51.45 22.46 51.55 22.5C51.66 22.54 51.75 22.6 51.81 22.66C51.88 22.73 51.92 22.81 51.95 22.89C51.98 22.98 51.99 23.07 51.99 23.16C51.99 23.26 51.98 23.35 51.94 23.44C51.92 23.53 51.87 23.6 51.8 23.67C51.73 23.75 51.64 23.8 51.53 23.84C51.41 23.89 51.27 23.91 51.11 23.91L50.42 23.91L50.42 21.81L50.42 21.81ZM50.8 22.79L50.8 23.56L51.08 23.56C51.26 23.56 51.4 23.53 51.48 23.46C51.55 23.4 51.59 23.3 51.59 23.18C51.59 23.05 51.55 22.95 51.47 22.89C51.39 22.82 51.26 22.79 51.08 22.79L50.8 22.79L50.8 22.79Z" fill="#000000" fill-opacity="1.000000" fill-rule="evenodd"/>
		<path id="path90" d="M55.26 23.61C55.17 23.72 55.05 23.81 54.91 23.87C54.76 23.93 54.6 23.96 54.44 23.96C54.29 23.96 54.13 23.93 53.98 23.88C53.85 23.83 53.73 23.76 53.62 23.66C53.52 23.56 53.44 23.44 53.39 23.31C53.33 23.17 53.31 23.02 53.31 22.86C53.31 22.71 53.33 22.57 53.39 22.43C53.44 22.3 53.52 22.18 53.61 22.09C53.71 21.99 53.82 21.91 53.95 21.85C54.09 21.79 54.23 21.76 54.38 21.77C54.55 21.77 54.71 21.79 54.85 21.83C55 21.87 55.12 21.94 55.22 22.04L55.04 22.34C54.96 22.26 54.86 22.2 54.75 22.17C54.65 22.13 54.54 22.12 54.44 22.12C54.34 22.12 54.25 22.14 54.16 22.17C54.07 22.21 54 22.26 53.93 22.32C53.86 22.39 53.8 22.47 53.77 22.56C53.73 22.65 53.71 22.75 53.71 22.86C53.71 22.98 53.73 23.08 53.77 23.17C53.81 23.27 53.87 23.34 53.94 23.41C54 23.48 54.08 23.52 54.18 23.56C54.27 23.59 54.37 23.61 54.47 23.61C54.6 23.61 54.72 23.58 54.82 23.53C54.92 23.49 55.01 23.42 55.08 23.34L55.26 23.61ZM55.45 21.81L57.39 21.81L57.39 22.18L56.61 22.18L56.61 23.91L56.23 23.91L56.23 22.18L55.46 22.18L55.46 21.81L55.45 21.81Z" fill="#000000" fill-opacity="1.000000" fill-rule="nonzero"/>
		<path id="path92" d="M58.17 21.81L57.8 21.81L57.8 24.84L58.17 24.84L58.17 23.81C58.25 23.86 58.34 23.9 58.45 23.92C58.55 23.95 58.66 23.96 58.78 23.96C58.94 23.96 59.09 23.93 59.23 23.87C59.36 23.82 59.48 23.73 59.58 23.63C59.67 23.53 59.75 23.41 59.8 23.27C59.85 23.13 59.88 22.99 59.88 22.83C59.88 22.67 59.85 22.53 59.81 22.4C59.77 22.28 59.7 22.16 59.62 22.06C59.53 21.97 59.42 21.89 59.31 21.84C59.18 21.79 59.04 21.76 58.9 21.76C58.75 21.76 58.61 21.79 58.48 21.85C58.35 21.91 58.25 21.97 58.17 22.06L58.17 21.81ZM58.44 22.2C58.55 22.14 58.66 22.12 58.79 22.12C58.9 22.12 59 22.13 59.08 22.17C59.17 22.2 59.24 22.25 59.3 22.32C59.36 22.39 59.41 22.46 59.44 22.55C59.47 22.64 59.48 22.74 59.48 22.84C59.48 22.96 59.46 23.06 59.43 23.15C59.4 23.24 59.35 23.32 59.28 23.39C59.22 23.46 59.14 23.51 59.05 23.55C58.96 23.59 58.85 23.61 58.75 23.61C58.64 23.61 58.55 23.6 58.46 23.57C58.36 23.55 58.26 23.5 58.18 23.45L58.18 22.41C58.25 22.33 58.33 22.26 58.44 22.2ZM62.77 21.81L62.39 21.81L62.39 23.91L62.77 23.91L62.77 21.81ZM60.42 21.81L60.8 21.81L60.8 22.44L61.14 22.44C61.31 22.44 61.44 22.46 61.55 22.5C61.66 22.54 61.75 22.6 61.81 22.66C61.87 22.73 61.92 22.81 61.94 22.89C61.97 22.98 61.98 23.07 61.98 23.16C61.98 23.26 61.97 23.35 61.94 23.44C61.91 23.53 61.86 23.61 61.79 23.68C61.73 23.75 61.64 23.8 61.52 23.85C61.41 23.89 61.27 23.91 61.1 23.91L60.42 23.91L60.42 21.81L60.42 21.81ZM60.8 22.79L60.8 23.56L61.07 23.56C61.26 23.56 61.4 23.53 61.47 23.46C61.55 23.4 61.58 23.3 61.58 23.18C61.58 23.05 61.55 22.95 61.47 22.89C61.39 22.82 61.26 22.79 61.08 22.79L60.8 22.79L60.8 22.79Z" fill="#000000" fill-opacity="1.000000" fill-rule="evenodd"/>
		<path id="path94" d="M64.58 22.82L65.38 23.91L64.92 23.91L64.3 23.06L63.66 23.91L63.23 23.91L64.03 22.84L63.27 21.81L63.74 21.81L64.31 22.6L64.89 21.81L65.33 21.81L64.58 22.82ZM31.48 26.5L30.32 26.5L30.32 28.25L29.94 28.25L29.94 26.16L31.85 26.16L31.85 28.25L31.48 28.25L31.48 26.5ZM33.99 26.53L33.25 26.53L33.23 26.88C33.2 27.18 33.16 27.42 33.11 27.6C33.06 27.79 33 27.93 32.93 28.03C32.86 28.13 32.77 28.2 32.68 28.23C32.58 28.26 32.48 28.28 32.37 28.28L32.34 27.92C32.38 27.92 32.43 27.91 32.48 27.89C32.53 27.86 32.59 27.81 32.64 27.73C32.69 27.65 32.73 27.54 32.77 27.39C32.82 27.25 32.84 27.05 32.85 26.81L32.89 26.16L34.37 26.16L34.37 28.25L33.99 28.25L33.99 26.53Z" fill="#000000" fill-opacity="1.000000" fill-rule="nonzero"/>
		<path id="path96" d="M35.38 26.16C35.26 26.19 35.15 26.24 35.06 26.3L35.16 26.59C35.25 26.55 35.33 26.52 35.42 26.49C35.5 26.46 35.61 26.44 35.74 26.44C35.85 26.44 35.93 26.46 36 26.49C36.06 26.52 36.11 26.57 36.14 26.62C36.17 26.68 36.19 26.75 36.21 26.83C36.22 26.92 36.23 27.01 36.23 27.1C36.15 27.05 36.06 27.01 35.97 27C35.88 26.98 35.78 26.97 35.69 26.97C35.58 26.97 35.48 26.99 35.38 27.01C35.28 27.04 35.19 27.08 35.12 27.14C35.05 27.2 35 27.27 34.96 27.35C34.91 27.44 34.89 27.54 34.89 27.64C34.89 27.84 34.95 28 35.07 28.11C35.19 28.23 35.35 28.28 35.55 28.28C35.72 28.28 35.86 28.25 35.97 28.19C36.08 28.13 36.16 28.06 36.23 27.98L36.23 28.25L36.58 28.25L36.58 26.96C36.58 26.69 36.52 26.48 36.4 26.33C36.28 26.18 36.07 26.11 35.76 26.11C35.64 26.11 35.51 26.12 35.38 26.16ZM36.01 27.86C35.93 27.92 35.82 27.95 35.68 27.95C35.55 27.95 35.46 27.92 35.39 27.86C35.33 27.8 35.3 27.72 35.3 27.62C35.3 27.56 35.31 27.51 35.33 27.46C35.36 27.42 35.39 27.38 35.44 27.36C35.48 27.33 35.53 27.31 35.58 27.29C35.64 27.28 35.69 27.27 35.75 27.27C35.93 27.27 36.09 27.32 36.23 27.41L36.23 27.68C36.16 27.75 36.09 27.81 36.01 27.86Z" fill="#000000" fill-opacity="1.000000" fill-rule="evenodd"/>
		<path id="path98" d="M36.95 26.15L38.88 26.15L38.88 26.53L38.1 26.53L38.1 28.25L37.73 28.25L37.73 26.53L36.95 26.53L36.95 26.15L36.95 26.15Z" fill="#000000" fill-opacity="1.000000" fill-rule="nonzero"/>
		<path id="path100" d="M40.64 28.23C40.78 28.19 40.91 28.12 41.01 28.02L40.9 27.73C40.83 27.79 40.73 27.84 40.62 27.89C40.51 27.93 40.39 27.95 40.25 27.95C40.04 27.95 39.87 27.9 39.73 27.79C39.59 27.67 39.52 27.52 39.5 27.32L41.14 27.32C41.15 27.25 41.16 27.16 41.16 27.07C41.16 26.92 41.13 26.8 41.08 26.68C41.03 26.56 40.96 26.46 40.87 26.37C40.78 26.29 40.67 26.22 40.55 26.18C40.43 26.13 40.3 26.11 40.17 26.11C40 26.11 39.84 26.14 39.71 26.19C39.58 26.25 39.46 26.33 39.36 26.43C39.27 26.53 39.2 26.65 39.15 26.77C39.1 26.91 39.08 27.06 39.08 27.2C39.08 27.37 39.1 27.52 39.16 27.65C39.21 27.79 39.29 27.9 39.39 28C39.48 28.1 39.6 28.17 39.75 28.22C39.9 28.27 40.05 28.3 40.21 28.3C40.35 28.3 40.5 28.27 40.64 28.23ZM39.69 26.61C39.8 26.51 39.96 26.46 40.15 26.46C40.34 26.46 40.48 26.51 40.59 26.6C40.7 26.7 40.76 26.84 40.76 27.01L39.48 27.01C39.5 26.86 39.57 26.72 39.69 26.61ZM41.34 26.15L41.82 26.15L42.55 27.16L41.77 28.25L41.31 28.25L42.12 27.16L41.34 26.15ZM42.64 26.15L43.01 26.15L43.01 28.25L42.64 28.25L42.64 26.15ZM44.36 28.25L43.53 27.16L44.31 26.15L43.84 26.15L43.11 27.16L43.9 28.25L44.36 28.25ZM46.08 28.23C46.23 28.19 46.35 28.12 46.45 28.02L46.34 27.73C46.27 27.79 46.18 27.84 46.07 27.89C45.95 27.93 45.83 27.95 45.69 27.95C45.48 27.95 45.31 27.9 45.17 27.79C45.04 27.67 44.96 27.52 44.95 27.32L46.58 27.32C46.6 27.25 46.6 27.16 46.6 27.07C46.6 26.92 46.58 26.8 46.52 26.68C46.48 26.56 46.4 26.46 46.32 26.37C46.22 26.29 46.12 26.22 46 26.18C45.88 26.13 45.75 26.11 45.62 26.11C45.44 26.11 45.28 26.14 45.15 26.19C45.02 26.25 44.91 26.33 44.81 26.43C44.71 26.53 44.64 26.65 44.59 26.77C44.55 26.91 44.52 27.06 44.52 27.2C44.52 27.37 44.55 27.52 44.6 27.65C44.66 27.79 44.73 27.9 44.83 28C44.93 28.1 45.05 28.17 45.19 28.22C45.34 28.27 45.5 28.3 45.66 28.3C45.8 28.3 45.95 28.27 46.08 28.23ZM45.13 26.61C45.25 26.51 45.4 26.46 45.6 26.46C45.78 26.46 45.93 26.51 46.03 26.6C46.14 26.7 46.2 26.84 46.21 27.01L44.92 27.01C44.94 26.86 45.01 26.72 45.13 26.61ZM48.13 25.45C47.91 25.45 47.79 25.33 47.77 25.08L47.41 25.08C47.41 25.17 47.43 25.26 47.46 25.34C47.49 25.42 47.54 25.49 47.6 25.55C47.66 25.6 47.73 25.65 47.82 25.68C47.91 25.72 48.01 25.73 48.13 25.73C48.24 25.73 48.33 25.72 48.42 25.68C48.5 25.65 48.57 25.6 48.64 25.55C48.69 25.49 48.75 25.42 48.78 25.34C48.81 25.26 48.83 25.17 48.83 25.08L48.48 25.08C48.46 25.33 48.34 25.45 48.13 25.45ZM47.11 26.15L47.11 28.25L47.49 28.25L48.71 26.69L48.71 28.25L49.09 28.25L49.09 26.15L48.71 26.15L47.49 27.72L47.49 26.15L47.11 26.15Z" fill="#000000" fill-opacity="1.000000" fill-rule="evenodd"/>
	</g>
</svg>
