<svg width="20.000000" height="20.000000" viewBox="0 0 20 20" fill="none" xmlns="http://www.w3.org/2000/svg" xmlns:xlink="http://www.w3.org/1999/xlink">
	<desc>
			Created with Pixso.
	</desc>
	<defs/>
	<path id="vector_03" d="M10 18.13L10.06 18.13C10.56 18.13 11.3 17.84 12.02 16.59L15.71 10.03C16.19 9.18 16.77 6.91 15.94 5.1C15.47 4.08 14.16 1.87 11.94 1.2C11.36 1.02 10.83 0.89 10.06 0.86L10 " stroke="#CBA265" stroke-opacity="1.000000" stroke-width="1.400000"/>
	<path id="vector_02" d="M10 18.13L9.93 18.13C9.43 18.13 8.69 17.84 7.97 16.59L4.28 10.03C3.8 9.18 3.22 6.91 4.05 5.1C4.52 4.08 5.83 1.87 8.05 1.2C8.63 1.02 9.16 0.89 9.93 0.86L10 " stroke="#CBA265" stroke-opacity="1.000000" stroke-width="1.400000"/>
	<circle id="vector_01" cx="10.000000" cy="7.228516" r="2.936364" stroke="#CBA265" stroke-opacity="1.000000" stroke-width="1.400000"/>
</svg>
