<svg width="18.000000" height="18.000000" viewBox="0 0 18 18" fill="none" xmlns="http://www.w3.org/2000/svg" xmlns:xlink="http://www.w3.org/1999/xlink">
	<desc>
			Created with Pixso.
	</desc>
	<defs/>
	<path id="vector_03" d="M8.99 16.77L9.05 16.77C9.5 16.77 10.17 16.5 10.82 15.38L14.14 9.48C14.57 8.71 15.09 6.67 14.35 5.04C13.93 4.12 12.75 2.13 10.74 1.53C10.22 1.37 9.74 1.25 9.05 1.22L8.99 " stroke="#FFFFFF" stroke-opacity="1.000000" stroke-width="1.000000"/>
	<path id="vector_02" d="M9 16.77L8.94 16.77C8.49 16.77 7.82 16.5 7.17 15.38L3.85 9.48C3.42 8.71 2.9 6.67 3.64 5.04C4.06 4.12 5.24 2.13 7.25 1.53C7.77 1.37 8.25 1.25 8.94 1.22L9 " stroke="#FFFFFF" stroke-opacity="1.000000" stroke-width="1.000000"/>
	<circle id="vector_01" cx="8.999992" cy="6.954552" r="2.772727" stroke="#FFFFFF" stroke-opacity="1.000000" stroke-width="1.000000"/>
</svg>
