<svg xmlns="http://www.w3.org/2000/svg" width="1567" height="263" fill="none" xmlns:v="https://vecta.io/nano"><path d="M-.2 173V1.45h24.05v108.62l9.81-37.8L55.67 1.45h29.67V173H61.05V52.17l-11 42.23L27.44 173H-.2zm104.56 0V1.45h26.92v73.57h30.62V1.45h27.52V173H161.9V99.54h-30.62V173h-26.92zm96.66-147.03V1.45h83.38v24.52h-28.23V173h-26.92V25.97h-28.23zM296.13 173V1.45h73.45v24.52h-46.54v47.85h36.97v24.41h-36.97v50.24h46.54V173h-73.45zm90.08 0V1.45h39.71c13.32 0 23.35 3.63 30.09 10.88 6.74 7.26 10.11 17.79 10.11 31.59v22.25c0 13.79-3.37 24.3-10.11 31.52s-16.77 10.83-30.09 10.83h-12.8V173h-26.91zm26.91-88.89h12.8c4.47 0 7.78-1.23 9.93-3.71 2.16-2.47 3.23-6.66 3.23-12.56V42.12c0-5.9-1.07-10.07-3.23-12.5-2.15-2.43-5.46-3.65-9.93-3.65h-12.8v58.14zM478.56 173V1.45h26.92v73.57h30.62V1.45h27.52V173H536.1V99.54h-30.62V173h-26.92zm104.56 0V1.45h73.45v24.52h-46.54v47.85H647v24.41h-36.97v50.24h46.54V173h-73.45zM665.3 25.97V1.45h83.38v24.52h-28.23V173h-26.92V25.97H665.3zm93.91 73.57V75.02h48.93v24.52h-48.93zM826.2 173V1.45h37.45l19.85 121.78L901.93 1.45h37.44V173h-25.48V50.02L895.23 173h-25.48l-20.1-121.31V173H826.2zm125.61 0l27.4-171.55h39.48L1046.07 173h-27.14l-4.67-31.11h-33.14L976.46 173h-24.65zm32.78-54.43h25.96l-12.92-86.74-13.04 86.74zm74.17 54.43V1.45h71.05v24.52h-44.13V173h-26.92zm82.06 0l27.41-171.55h39.46L1235.1 173h-27.17l-4.65-31.11h-33.14l-4.67 31.11h-24.65zm32.79-54.43h25.95l-12.91-86.74-13.04 86.74zm72.49 13.27v-18.9h25.47v20.58c0 11.32 4.64 16.99 13.89 16.99 4.63 0 8.11-1.44 10.47-4.31 2.35-2.87 3.53-7.9 3.53-15.07v-13.52c0-7.82-1.39-13.4-4.14-16.75s-7.23-5.03-13.45-5.03h-6.7V71.31h8.14c5.34 0 9.37-1.37 12.08-4.13 2.71-2.75 4.07-7.39 4.07-13.93v-9.57c0-7.34-1.18-12.44-3.53-15.32-2.36-2.87-5.84-4.3-10.47-4.3-9.41 0-14.11 5.62-14.11 16.87v13.99h-24.78v-12.8c0-13.79 3.36-24.34 10.06-31.64 6.69-7.3 16.59-10.95 29.67-10.95s23.02 3.73 29.85 11.19c6.82 7.46 10.22 18.08 10.22 31.88v4.43c0 18.34-6.26 30.1-18.78 35.29 12.52 5.42 18.78 17.42 18.78 36.01v13.51c0 13.8-3.4 24.43-10.22 31.88-6.83 7.46-16.77 11.19-29.85 11.19s-23.05-3.73-29.91-11.19c-6.86-7.45-10.29-18.08-10.29-31.88zm98.46 41.16V1.45h24.04v108.62l9.81-37.8 22.01-70.82h29.67V173h-24.28V52.17L1394.8 94.4l-22.61 78.6h-27.63zm104.55 0V1.45h26.92v73.57h30.63V1.45h27.51V173h-27.51V99.54h-30.63V173h-26.92z" fill="#060402"/><g fill="#cba265"><path d="M1237.04 190.55l.09-.78.02-.92v-.12-.06l-.02-.35-.02-.56-.1-2.14-.25-3.98-.04-.47c-.03-.16-.04-.32-.05-.47l-.04-.46-.07-.47-.09-.96-.12-.97-.43-4.03c-.07-1.98-.49-4.05-1.03-6.11l-1.72-6.04 1.48 7.01 1.24 6.96.34 3.44.08 1.69v1.7l-.05 1.8-.08 1.88-.05 2v.52l-.01.13v.06.05l-.02.21-.08.82c-.25-.16-.49-.35-.71-.55-.13-.1-.24-.2-.33-.31-.02-.02-.04-.03-.05-.05l-.04-.06c-.02-.04-.05-.08-.08-.11l-.15-.23c-.4-.6-.69-1.28-.79-2l-.21-4.73-.02-.53-.04-.5-.01-.25-.03-.26-.04-.52-.05-.52c-.03-.18-.04-.35-.06-.52l-.13-1.05 1.41-.25c-.64-1.94-1.1-3.9-1.48-5.89l-1.07-6.04-.58-3.05-.35-1.53-.19-.77-.1-.38-.11-.37c-.55-2-1.29-3.99-2.32-5.98-.11.34-.44.24-.69.24l1.84 6 .21.75.2.75.39 1.49.37 1.49.37 1.48 1.22 5.88.84 5.87c-.43-3.03-1.07-6.07-1.84-9.14l-1.24-4.62-.67-2.34-.34-1.17-.34-1.16-1.41-4.68-1.43-4.84-1.35-5.05-1.16-5.29-.1-.56-.12-.68-.12-.69c-.05-.19-.06-.36-.09-.49.18-.59.31-1.2.4-1.84a18.64 18.64 0 0 0 .14-2l.04-2.17v-.57l.01-.58-.01-.14.01-.15v-.6l.01-.31c.44.22 1.03.18 1.62.12s1.18-.14 1.72-.07c.52.06.96.27 1.22.77.29.49.4 1.27.35 2.51l1.45-.14c.16-.61.41-1.16.69-1.65.3-.48.64-.89 1.04-1.21.39-.33.82-.57 1.24-.73a4.44 4.44 0 0 1 1.3-.27c.43-.05.86-.03 1.25.07l.29.09c.05.01.1.03.13.05.04.01.06.02.08.03.03.01.05.02.06.02l.55.22c.09.04.17.07.25.12.04.02.07.04.12.06.04.03.07.05.12.07.16.1.3.2.44.31l.2.18c.03.03.06.07.09.09.03.03.07.07.09.11.06.06.12.14.17.21a2.13 2.13 0 0 1 .16.25c.2.39.37.83.54 1.34l.47 1.76.11.52c.01.09.03.18.05.27.01.09.04.18.05.27l.06.29.05.29.09.56.18 1.04.17 1.06.83 4.38a28.97 28.97 0 0 0 1.35 4.4l2.23 6.46.49 1.68.22.85.2.86.08.43.1.43.15.85.25 1.74c.32 3.22 1.03 6.56 1.62 9.98.29 1.72.55 3.45.71 5.19.04.44.06.87.09 1.31s.05.87.06 1.31c.01.43 0 .87 0 1.3v.33c-.01.11-.01.22-.01.34-.01.22-.03.44-.04.65 0 .63.08 1.34.21 2.06l.44 2.12c.14.67.26 1.27.28 1.78a4.45 4.45 0 0 1 .01.36c-.01.11-.02.22-.04.32s-.05.19-.08.28a1.63 1.63 0 0 1-.06.13c-.02.05-.06.09-.07.13-.18.47-.46.75-.8.92-.34.16-.75.2-1.19.21l-.13-.73-.04-.33-.05-.32-.18-1.3-.3-2.73-.15-1.42-.17-1.46-.1-.74c-.02-.24-.05-.48-.08-.72-.05-.24-.06-.49-.1-.73-.03-.24-.08-.48-.1-.72-.23-2.38-.52-4.74-.82-7.09l-.86-7.03c.02.58.07 1.16.11 1.74a51.61 51.61 0 0 0 .15 1.75l.19 1.75.22 1.76c.29 2.35.67 4.71 1.01 7.12l.07.72c.03.25.04.49.06.73l.06.73.06.74.14 2.88.12 2.72c.01.44.05.88.08 1.31.01.22.03.43.05.65l.06.72c-.76-.02-1.55-.01-2.21.34a8.3 8.3 0 0 0 .12.64c.05.36.13.8.17 1.09-.35.64-.8 1.09-1.29 1.39-.49.31-1.03.45-1.58.5-.54.05-1.09 0-1.64-.09a10.58 10.58 0 0 1-1.54-.45c-.43-.17-.89-.39-1.35-.64z"/><path d="M1293.23 124.48l-.8-.16a29.93 29.93 0 0 0-3.44-.29c-1.12-.04-2.2-.01-3.25.06l-3.1.29-.77.1-.38.05-.1.01c-.03 0-.07.01-.1.02l-.22.03-.84.12-.87.12c-1.68.1-3.4.58-5.1 1.19l-4.99 1.99 5.87-1.79 5.78-1.39.69-.11.32-.05c.11-.02.23-.03.34-.04l.66-.06.69-.04c.91-.04 1.85-.03 2.81.04 1.93.12 3.96.43 6.09.88-.74.94-1.66 1.71-2.75 1.81l-3.71-.07-3.19.24-.35-1.42-.52.22-.26.11-.31.11-.57.21-.3.09-.29.1-.59.19-.61.18-.59.17-.61.17-5.01 1.26-5.12 1.63-1.28.53-1.28.61-.62.33-.31.18-.32.18-1.26.79c.34.09.3.43.33.67-.02 0-.04.01-.07.02.03-.01.05-.02.07-.02l1.31-.57 1.31-.54 1.29-.53 1.26-.51 4.94-1.82 4.82-1.41 1.2-.28 1.19-.25.61-.11.59-.1.6-.09c.02 0 .04-.01.06-.01l.45-.05-.39.07-.1.01-.12.03-.23.04-.47.1-.45.1-.93.21-.91.24-3.72 1.17-3.79 1.42-3.89 1.58-4.06 1.66-4.26 1.61-8.87 2.73-1.02.26-1.04.26-.87-.18c-.29-.06-.58-.1-.86-.13l-.84-.07-.39-.02-.21-.01h-.11l-.12.01-.24.01-.25.01-.26.02-.29.02-.58.03-.17.02-.32.01c-.06 0-.11.01-.18.01l-.35.01-.17.01-.5.01c-.11 0-.23-.01-.33-.01l-1.32-.08c.24-.44.2-1.02.14-1.61-.06-.6-.13-1.23-.06-1.74a2.13 2.13 0 0 1 .22-.7c.14-.2.3-.36.55-.49.05-.03.12-.06.19-.09a1.14 1.14 0 0 1 .22-.07c.03-.01.08-.02.12-.04.03 0 .08-.01.13-.02l.28-.06.33-.04c.11-.02.23-.02.35-.04l.39-.02.41-.02-.31-1.44c-.55-.13-1.08-.35-1.5-.64-.44-.3-.79-.67-1.04-1.09-.13-.21-.23-.43-.31-.66l-.11-.33-.09-.34c-.01-.12-.03-.23-.05-.34l-.03-.34v-.65a3.98 3.98 0 0 1 .15-1.21c.03-.1.06-.19.1-.28.02-.04.03-.09.05-.14l.03-.06c0-.02.01-.04.01-.07.07-.17.12-.34.17-.51l.31-.9.22-.69c0-.02.01-.04.02-.07 0-.02-.01-.04-.01-.06 0-.01-.01-.02 0-.03l.01-.03.01-.03v-.02l.01-.01c.01-.02.04-.04.06-.06l.01-.01c.01-.01.02-.01.02-.02l.04-.03c.05-.03.13-.09.23-.13.03-.02.1-.04.14-.06l.09-.04.17-.07c.05-.01.07-.02.11-.03.08-.03.14-.06.23-.08l.21-.07c.07-.03.14-.05.2-.07l.43-.14 3.62-.9 3.79-.93c1.26-.37 2.49-.8 3.64-1.39l2.52-1.16 1.28-.59.66-.28.66-.28c1.78-.74 3.65-1.4 5.71-1.8 1.41-.25 2.85-.61 4.31-.99l2.23-.59 1.13-.29 1.14-.28.58-.14.58-.13 1.17-.24.59-.11.59-.1.6-.1.29-.04.33-.05c1.75-.24 3.44-.27 5.02-.12.29.01.6-.01.92-.04l.98-.14 1.01-.18 1-.17.93-.12c.28-.03.57-.05.83-.04s.48.03.69.1a1.09 1.09 0 0 1 .27.11 1.43 1.43 0 0 1 .24.16c.75.46.87 1.24.85 2.12l-5 .29-5.27.59-.83.1-.43.05-.43.06-.2.04-.21.03-1.19.19-1.58.27-1.18.22-.4.08-6.19 1.21 6.19-1.01.4-.08.4-.08.78-.16.79-.15.79-.16.79-.16.4-.07.1-.02.11-.03.64-.11.42-.08.84-.14 5.27-.27 4.97.1c-.05.75-.08 1.54.2 2.25l.56-.05.48-.05.43-.04c.56.41.97.87 1.25 1.37s.46 1.04.53 1.59c.14 1.09-.1 2.23-.53 3.2-.16.37-.41.82-.7 1.27zm-20.7 33.4l-.47-.05c-1.39-.02-2.64.28-3.94.62l-1.99.5c-.7.15-1.41.27-2.16.32-.55-.02-1.09.02-1.65.11-.53.08-1.06.2-1.57.34l-2.93.84 1.72-.21 1.77-.29 1.85-.34 1.85-.35c2.46-.47 4.9-.81 7.49-.5-.07.97-.31 1.82-.91 2.06l-4.73.98-.5-1.38c-.48.32-.99.56-1.51.76l-.41.14c-.13.05-.26.09-.39.12-.27.08-.55.14-.83.2-1.1.23-2.18.3-3.22.37-1.03.07-2.02.15-2.94.39-.9.23-1.74.63-2.42 1.33a.46.46 0 0 1 .17.31c.05.12.06.26.09.38.02.1.04.19.1.24.04.06.11.08.21.05-.1.03-.16.01-.21-.05-.06-.05-.08-.14-.1-.24.77-.34 1.6-.61 2.48-.85l2.8-.61 3.14-.54 3.36-.57-2.56.62-2.52.61-4.44 1.18-1.91.63-.49.17-.51.18-1.01.38-3.89 1.51-.43.17c-.08.04-.16.07-.24.1l-.19.08c-.32-.16-.62-.28-.92-.36-.01 0-.02-.01-.03-.02l-.04-.02c-.02-.02-.04-.03-.07-.04l-.16-.06c-.08-.01-.13-.02-.2-.02-.06-.01-.14-.01-.2-.01-.31.02-.66.1-1.08.24l-.33.1-.36.12-.19.06-.18.06-.33.11c-.05-.48-.27-1-.52-1.55l-.65-1.61c-.16-.5-.21-.95-.06-1.3a.62.62 0 0 1 .14-.23c.08-.08.16-.14.25-.2.18-.11.42-.2.72-.24l-.66-1.32a3.51 3.51 0 0 1-1.05-.44c-.15-.1-.31-.23-.47-.36a3.48 3.48 0 0 1-.42-.44c-.54-.63-.94-1.44-1.22-2.24-.16-.4-.29-.8-.37-1.2-.03-.1-.04-.19-.06-.29-.01-.05-.02-.1-.02-.15-.01-.02-.01-.04-.01-.07 0-.02-.01-.04-.02-.07l-.11-.55-.19-.95c-.05-.28-.08-.53-.18-.69 0-.02-.01-.04-.01-.06-.01-.01-.01-.02-.01-.04v-.03-.03c0-.01 0-.02.01-.03.01-.03.01-.05.02-.07.01-.01.01-.02.01-.03l.02-.04c.02-.03.02-.05.05-.07.01-.03.04-.06.06-.08.02-.03.03-.05.07-.08.03-.03.06-.06.09-.08.01-.01.03-.03.05-.04l.06-.05.06-.04.02-.03.04-.02c.03-.03.09-.06.13-.1.04-.03.1-.06.14-.09l.08-.05c.03-.02.05-.04.09-.05l.33-.19c.71-.41 1.5-.71 2.31-.98l2.44-.78c.8-.27 1.58-.58 2.28-1.01l1.59-.77.2-.09.1-.05c.03-.01.07-.03.11-.05l.44-.18.45-.16.45-.15c.13-.05.29-.09.44-.14l.44-.11.22-.05c.08-.02.15-.03.22-.04l.43-.08a7.92 7.92 0 0 1 1.75-.07c1.61.16 3.06-.01 4.39-.17 1.36-.16 2.77-.35 4.34-.15.53 0 1.12-.42 1.68-.75.28-.15.55-.29.81-.33.27-.05.51 0 .74.2.55.35.89 1.06 1.17 1.89l-4.88 1.53c-1.02.15-2.05.25-3.06.29a26.72 26.72 0 0 1-3.19-.1c1.13.24 2.2.32 3.22.28s2.03-.21 3.03-.47l5.13-.86c.24.71.5 1.46.87 2.08l.75-.31c1.75 1.27 2.57 3.73 2.8 5.63l.05 1.28z"/><path d="M1272.07 193.73l.44-.93c.59-1.46 1.09-2.96 1.55-4.5l.67-2.34.32-1.14.27-1.11 1.03-4.57.49-2.39.27-1.31.16-.69c.04-.23.12-.46.17-.69l1.11-3.87.96-3.88.21-.95a4.05 4.05 0 0 0 .09-.48c.05-.15.08-.31.12-.46l.35-1.82.08-.46.07-.45.14-.89c.04-.15.06-.3.09-.45l.07-.44.13-.87-.22 1.02-.07.25-.05.26-.12.5-.49 2.03-.26 1-.08.26-.02.12-.04.13-.13.53-.58 2.14-.58 2.19-.55 2.26-.51 2.33-.13.59-.11.6-.21 1.16c-.53 2.79-1.2 5.5-2.1 8.08-.05.17-.11.33-.18.48l-.08.24-.09.27-.38 1.04-.78 2.06-1.68 3.95c-.61-1.28-1.02-2.73-.69-4.28l.83-2.77.4-1.33.18-.62c.04-.2.12-.4.17-.61l1.16-5 1.44.22.09-1.86.01-.23.01-.12.01-.14.04-.55.07-.55.07-.54.07-.54.08-.53.19-1.05.45-2.02 1.05-3.83.55-1.82.07-.22.04-.11.03-.11.13-.42.24-.85c.65-2.26 1.2-4.58 1.49-6.98l.18-1.81.02-.46.01-.46.03-.92.01-.47-.01-.46-.04-.94-.03-.47-.04-.47-.1-.95c-.22.34-.51.11-.74.02.01-.03 0-.05 0-.07 0 .02.01.04 0 .07-.21-.08-.36-.06-.4.56.04-.62.19-.64.4-.56l-.02.92-.05.91-.04.91-.02.46-.03.45-.14 1.78-.19 1.77c-.28 2.33-.68 4.61-1.21 6.83l-.19.83-.1.42-.11.42-.24.9-.24.9-1.01 3.77-.25.99-.13.5-.12.5-.12.51-.12.52-.13.52-.05.26-.07.26c-.02.18-.06.36-.1.53l-.11.54-.2 1.09-.09.45-.09.44-.19.88.25-1.37.12-.77.07-.43.08-.43.63-3.29 1.42-6.07.33-1.42.29-1.32.13-.66.13-.66.24-1.33.2-1.35.1-.67.09-.68.17-1.36c.02-.11.03-.23.03-.34l.18-1.72.03-.35.03-.35.11-1.38.01-.18.01-.17.01-.35.05-.7.07-1.41.07-1.41.03-.71.01-.72.06-2.87-.01-5.86-.04-2.98-.04-3.04-.02-1.4-.01-.37v-.33l-.02-.57c.26-.65.46-1.3.6-1.98a14.47 14.47 0 0 0 .35-2.09l.13-2.16v-1.11l-.02-1.13c.46.18 1.03.12 1.62.03s1.19-.21 1.72-.17.98.24 1.27.78c.29.55.42 1.44.31 2.85l1.47-.06c.38-1.42.99-2.63 1.72-3.53.37-.45.77-.82 1.17-1.1.43-.29.85-.5 1.26-.61.44-.13.86-.17 1.27-.11.2.03.39.09.59.16a3.2 3.2 0 0 1 .56.27c.18.11.35.25.52.41a5.54 5.54 0 0 1 .47.56l.41.71a6.6 6.6 0 0 1 .35.89l.55 2.36.35 2.67.17 3v.4.36.72 1.45l-.04 2.98-.02 1.51-.02 1.52-.01 1.52.02 1.53.05 1.53.02.76c.03.25.04.51.05.76l-.06 8.93c-.21 2.99-.66 6.02-1.52 8.97-.03.13-.08.25-.11.38l-.05.19-.06.19-.24.77-.22.77-.11.39c-.05.13-.07.25-.12.38l-.46 1.56-.12.4-.06.19-.03.1-.02.09-.24.73-1.59 5.6-.66 2.63-.29 1.27-.02.08c-.01.03-.01.05-.02.08l-.05.2-.07.39-.18.78-.79 3.07-1 2.97c-.23.72-.41 1.59-.58 2.51l-.12.66-.1.65-.19 1.3c-.27 1.71-.6 3.26-1.28 3.83-.72.88-1.5.75-2.32.41l1.58-6.69.19-.84.22-.87.38-1.75.7-3.48.47-2.12.22-1.07.21-.97.47-1.88.54-1.9 1.27-3.87.7-1.99.14-.38.04-.13.19-.53.36-1.06-.42 1.03-.19.51-.06.13-.04.12-.1.25-.75 1.94-1.31 3.85-.54 1.91-.43 1.91-.09.48-.05.24-.06.27-.18 1.08-.39 2.17-.84 3.44-.47 1.71-.25.85-.12.42-.12.41-1.92 6.51c-.71-.33-1.43-.65-2.21-.54l-.44 2.06c-1.19 1.17-2.39 1.42-3.46 1.16s-2.03-1.01-2.78-1.89l-.94-1.43z"/><path d="M1326.76 195.31l-.24-.53-.24-.54c-.81-1.61-1.72-3.18-2.7-4.74l-3.09-4.71-.8-1.2-.82-1.25-.41-.64-.4-.63-.78-1.26-3.03-5.28-.99-1.99-.54-.99-.26-.48-.13-.23-.13-.23-2.42-3.85-5-7.44 5.28 8.75 1.36 2.2.34.55.08.14.07.13.15.26.32.55.33.57 2.67 4.53 2.65 4.51.34.58.17.29.18.29.68 1.14.67 1.12.65 1.11 4.62 8.81c-1.44-.55-2.89-1.4-3.95-2.85l-3.54-5.6-.9-1.41-.47-.74-.24-.37-.24-.38-1.76-2.85 1.21-.79-2.77-3.77a57.57 57.57 0 0 1-1.25-1.93l-.6-.98a12.56 12.56 0 0 1-.29-.49 5.2 5.2 0 0 1-.26-.45l-.13-.22c-.02-.03-.04-.08-.08-.11l-.06-.12-.29-.48-.57-.96-1.13-1.91-2.21-3.85-2.22-3.82-1.16-1.9-.59-.94-.16-.23-.15-.24-.31-.49-.63-.96-.63-.95-.65-.95-.65-.93-1.37-1.85a63.98 63.98 0 0 0-1.47-1.8c.07.47-.32.4-.57.44-.02-.02-.03-.04-.04-.07.01.03.03.05.04.07-.22.04-.33.17.06.81-.39-.64-.28-.77-.06-.81l1.24 1.9 1.23 1.89 2.45 3.8.31.48.15.23.15.24.6.92 1.18 1.83 2.34 3.67 4.56 7.45.23.43.12.22.15.24.56.99 1.13 1.97 2.32 3.98-3.74-6.11-.88-1.46-.05-.08-.05-.08-.12-.18-.23-.37-.47-.73-1.87-2.9-3.78-5.76-1.91-2.87-.48-.71-.24-.36-.24-.38-.98-1.5-3.79-5.91-3.74-5.86-3.76-5.78-3.84-5.67-.9-1.27-.9-1.27-.25-.68-.23-.64-.12-.31-.11-.3-.23-.58-.93-2.08-.24-.46-.12-.22-.13-.21-.13-.21-.12-.2-.26-.38c-.35-.47-.7-.88-1.04-1.18.4-.26.77-.68 1.12-1.15.35-.46.69-.97 1.07-1.33.19-.17.39-.32.62-.39s.49-.07.77.02c.58.2 1.3.82 2.1 2.16l1.16-.87-.22-.57-.2-.57c-.08-.18-.13-.37-.2-.55l-.17-.55s-.11-.36-.16-.53l-.16-.52c-.04-.18-.09-.34-.14-.51l-.12-.5-.12-.49-.1-.47-.16-.91c-.11-.57-.14-1.11-.07-1.58.1-.43.29-.81.56-1.1.06-.08.14-.15.22-.22.03-.03.08-.06.12-.09.02-.01.04-.03.05-.04.04-.02.07-.02.09-.04.22-.08.46-.13.75-.15.28-.01.63.01.97.08l.55.14.3.1.3.11.62.28.17.08.15.09.33.18.33.21.17.1a1.43 1.43 0 0 0 .15.11 14.74 14.74 0 0 1 .68.5c1.98 1.62 3.51 3.5 4.79 5.2.08.1.15.21.23.32l.23.31.44.59.2.28c.06.09.15.19.22.29a29.89 29.89 0 0 0 .5.69l.5.71.25.35.24.36.97 1.46c2.59 3.92 5.03 8.08 7.74 11.74l5.5 8.09 1.29 2.03.62 1.02.6 1.01.29.51.15.25.15.26.61 1.07c.4.71.79 1.43 1.16 2.17 1.01 2.02 2.12 4.04 3.27 6.06l1.77 3.02.9 1.52.22.38.06.09.63 1.12 3.34 5.96 1.6 2.98.38.74c.12.23.23.48.36.71l.36.72.37.74c.78 1.4 2.24 3.09 3.52 4.69 1.29 1.6 2.38 3.12 2.42 4.11.27 1.27-.35 1.75-1.16 2.09l-4.62-6.64-2.26-3.24-.28-.41-.26-.4-.53-.79-.52-.81-.52-.83c-1.62-2.75-3.18-5.55-4.66-8.38l-.29-.55-.15-.29-.04-.08-.04-.06-.08-.14-.58-1.07-1.16-2.15-2.25-4.33a90.91 90.91 0 0 0 2.09 4.34l1.12 2.15.57 1.07.15.27.15.29.3.56c1.48 2.83 3.12 5.62 4.86 8.37l.99 1.67.49.81.51.82 2.1 3.32 4.23 6.75c-.72.26-1.47.55-1.87 1.22l.53.75.88 1.26c.04.46.04.88 0 1.25-.05.37-.13.71-.26.99-.23.58-.6 1-1.07 1.3-.45.3-.99.47-1.57.55s-1.19.07-1.79 0a34.52 34.52 0 0 1-1.75-.44z"/><path d="M1320.32 171.81h-.7c-1.05.07-2.05.21-3.05.4l-2.93.66-2.95.73-3.05.61a10.58 10.58 0 0 0-1.13.15l-.58.11-.53.13a18.4 18.4 0 0 0-2.13.72l-4.11 1.89 2.45-.86.61-.21.3-.1.3-.1.61-.2.61-.2.3-.1.31-.09.61-.19.6-.17.31-.08.32-.09 2.57-.65 5.34-.95c1.82-.23 3.68-.35 5.6-.34-.19.52-.43 1.02-.75 1.43-.16.2-.33.38-.53.53a2.12 2.12 0 0 1-.65.34l-6.82 1.44-.49-1.38c-.71.38-1.41.69-2.13.96l-1.07.38-1.06.33-4.15 1.14c-1.42.41-2.84.88-4.21 1.54-1.38.65-2.72 1.48-3.97 2.6.3.07.31.4.37.64-.01 0-.02.01-.03.02.01-.01.02-.02.03-.02l4.11-2.14 4.01-1.73 3.97-1.27.5-.13.54-.13 1.09-.26 1.1-.25 1.14-.24-3.41.95-.41.12-.76.25-.38.13-1.52.56-3.08 1.32-3.12 1.51-3.21 1.64-1.65.85-.85.43-.84.42-3.28 1.62-3.11 1.58-.32.16-.35.19c-.14.06-.25.13-.36.2l-.17.09a.91.91 0 0 0-.14.07c-1.86-.24-3.33.22-4.48 1.02-.19-.42-.54-.88-.93-1.34l-1.09-1.36c-.3-.45-.48-.88-.38-1.27.05-.2.15-.39.37-.57.2-.17.5-.33.89-.48l-.81-1.24c-.48.03-.97.01-1.45-.06a7.23 7.23 0 0 1-1.41-.32c-.93-.28-1.77-.74-2.44-1.31a4.66 4.66 0 0 1-.84-.95c-.11-.17-.21-.35-.29-.53a2.21 2.21 0 0 1-.17-.57 2.62 2.62 0 0 1 .04-1.24c.02-.11.06-.22.1-.33.03-.11.09-.22.14-.33.11-.21.23-.44.39-.65l.14-.18.16-.17c.09-.12.2-.23.31-.34l.67-.64a10.8 10.8 0 0 1 .72-.59l.78-.55c1.05-.7 2.21-1.3 3.39-1.85l3.5-1.58c1.14-.53 2.21-1.08 3.17-1.74l1.07-.66.53-.32.54-.33 1.11-.65.55-.31.58-.3c1.54-.79 3.21-1.49 5.03-1.91l3.83-1.01 1.97-.58 1-.28.51-.14.25-.07.24-.06c2.55-.66 5.05-1.17 7.54-1.21.88-.09 1.94-.62 2.91-1.04l.71-.28a4.68 4.68 0 0 1 .66-.18c.41-.08.78-.06 1.07.13.74.31 1.04 1.04 1.25 1.89l-8.06 2.31-5.2 1.03-5.46 1.17 5.47-.98 2.61-.58 2.58-.64 8.22-1.62c.17.74.35 1.51.76 2.14l.45-.16.76-.26c1.12.57 1.83 1.49 2.24 2.52.4 1.04.49 2.18.39 3.19l-.31 1.4z"/><path d="M1321.19 178.21l.06-.92c.01-1.41-.11-2.85-.28-4.36l-.57-4.68-.08-.71-.04-.36-.01-.32-.06-1.13-.15-2.09-.43-4.34c-.02-.53-.09-1.08-.15-1.56l-.03-.19-.03-.2c-.02-.06-.03-.13-.04-.2l-.02-.1-.02-.1-.19-.85-.96-3.39-1.19-3.33-.31-.81-.31-.82-.32-.82-.29-.8.29.97.15.48.15.5.29.95.29.95 1.09 3.81.51 1.93.25.96.11.49.11.45c.01.07.04.15.05.22l.04.21.09.43.09.47.08.46.27 1.85c.16 1.24.25 2.48.28 3.71l.01.93-.01.46v.12.15.58a3.65 3.65 0 0 0 .02.33l.03.66.06 1.12.18 4.24-.05 3.92c-1.03-.82-1.95-1.86-2.25-3.32l-.3-2.75-.15-1.43-.07-.73-.07-.76-.09-.94c-.01-.08-.01-.14-.01-.21l-.01-.2-.01-.39-.02-.57-.02-.56-.16-2.21 1.44-.2-.84-3.1-.19-.77-.1-.39-.08-.36-.06-.25c-.01-.03-.02-.05-.03-.09l-.09-.36-.21-.8-1.63-6.58-.44-1.63-.51-1.71-.13-.42-.13-.42-.27-.81-.59-1.64c-.83-2.17-1.84-4.3-3.19-6.36-.04.38-.39.3-.64.32 0-.02-.02-.04-.02-.06 0 .02.01.04.02.06-.21.02-.36.11-.12.66-.24-.55-.09-.64.12-.66l2.68 6.4.6 1.6.29.79.07.2.21.62.58 1.66.51 1.57 1.77 6.37.18.8.03.1.02.09.07.36.02.09.02.08.12.69.12.76.35 3.05-.34-2.37-.1-.58-.12-.59-.12-.58-.06-.24-.05-.26-.07-.28-.08-.29-.17-.63-.36-1.26-.76-2.49-.82-2.47-.44-1.23-.48-1.28-.47-1.29-.23-.63-.24-.61-.48-1.25-.49-1.24-2.07-4.99-2.18-5.03-2.25-5.11-1.13-2.61-.56-1.31-.57-1.34-1.03-2.49c-.01-1.21-.12-2.38-.33-3.51-.09-.56-.21-1.12-.37-1.67l-.21-.82-.12-.4-.05-.11-.01-.05-.02-.08-.12-.35-.08-.26-.02-.03v-.03l-.01-.03v-.06c0-.01-.01-.03-.01-.05l-.06-.17c.36-.11.79-.28 1.21-.48l1.31-.65c.43-.2.83-.37 1.21-.38.18-.01.35.02.53.11.07.05.17.11.24.18l.11.12c.02.02.04.07.06.11.02.03.03.07.06.12a.75.75 0 0 1 .1.2c.03.03.05.07.07.11.01.03.03.06.04.09.07.13.13.28.19.44.12.31.22.69.32 1.12l1.37-.5c-.01-.4 0-.78.03-1.15.01-.19.04-.37.06-.55.02-.09.03-.18.04-.26s.04-.17.06-.25c.02-.07.04-.12.05-.19.01-.06.04-.13.05-.19.04-.13.07-.26.09-.38l.21-.76.41-1.42c.16-.44.32-.85.51-1.2l.17-.26.07-.11c.04-.03.07-.07.1-.1a4.48 4.48 0 0 1 .4-.36c.28-.21.59-.37.93-.45.01-.01.02-.01.03-.01s.02-.01.03-.01h.08.14l.29.03a2.96 2.96 0 0 1 .66.21c.46.2.96.55 1.46 1.08.25.26.5.56.74.92l.36.56c.02.05.05.09.08.14s.05.1.08.14l.02.04h.01.02c.01 0 .02.01.03.01s.02-.01.03 0l.03.01h.01.01l.01.01.03.05.16.24.3.47.58.99 1.06 2.12.98 2.28.48 1.18.48 1.21 2.02 5.06 2.35 5 3.41 7.25.75 1.87.67 1.91.3.97.28.98.26.98.21.97.14.67.14.65.17.7.18.71.71 2.83 1.42 5.74.18.8.09.42.04.22.03.11.01.1.27 1.55.38 3.12.13 3.09-.02.76-.03.76c0 .13-.01.25-.02.38l-.01.19-.01.09c0 .02 0 .04-.01.05v.03c-.02.1-.03.19-.04.29l-.03.14-.01.07-.01.06v.34c.01.03.01.06.01.09s0 .05.01.1l.03.25.08.51.12.54.57 2.27.45 2.16c.08.65.05 1.2-.15 1.58-.16.52-.44.82-.78 1-.34.17-.75.22-1.19.22l-1.09-6.26-.11-.75-.11-.75-.05-.37-.08-.64c-.01-.05-.01-.1-.02-.15l-.01-.18-.02-.35-.03-.42-.07-.85-.07-.84-.08-.84-.4-4.15-.3-2.07-.08-.52-.09-.55-.02-.14-.03-.13-.05-.26-.1-.52-1.6-7.93 1.4 7.9.21 1.04.1.55.02.14.07.39.33 2.08.54 4.18.05.84.03.85.03.84.01.41v.36.17c0 .03 0 .06.01.08v.09l.02.31.02.33.03.37.06.75.08.75.69 6.24c-.76-.03-1.56-.03-2.22.35l.14.72.12.63.11.58c-.34.72-.77 1.23-1.24 1.58-.48.35-1.01.54-1.55.61s-1.11.03-1.65-.09c-.55-.12-1.09-.3-1.59-.53l-.66-.39-.71-.46z"/><path d="M1339.62 150.56l.6-.04c.09 0 .19-.01.29-.02l.29-.02c1.77-.22 3.42-.59 4.96-1.12l.57-.2c.1-.03.18-.07.27-.11l.55-.22.53-.24.26-.12.51-.27c.08-.04.16-.09.24-.14l.24-.13.25-.14.23-.15.23-.14.14-.1.1-.07c1.38-.95 2.6-1.98 3.55-3.06.48-.54.88-1.08 1.22-1.64l.13-.2.12-.21c.09-.15.14-.29.22-.43.02-.04.04-.07.05-.11l.05-.09.09-.2.07-.19.04-.09c.02-.04.02-.07.03-.1a3.41 3.41 0 0 0 .29-1.17c.04-.43.01-.92-.1-1.47s-.29-1.15-.53-1.8l-.14-.37-.05-.13-.11-.25-.1-.24-.43-.97-.99-1.89-.27-.46-.14-.23-.14-.22-.28-.45-.29-.45-.15-.22-.15-.21-.3-.44-.31-.42-.16-.21-.16-.21-.31-.42-.32-.4-.64-.8c1.91 2.58 3.52 5.35 4.64 8.28l.71 2.11c.17.64.27 1.21.27 1.69.02.48-.03.9-.14 1.32-.01.05-.04.1-.05.15l-.05.16-.12.33c-.06.11-.11.24-.16.36l-.19.36a9.28 9.28 0 0 1-.97 1.4c-.39.46-.84.91-1.34 1.34-.5.44-1.06.86-1.66 1.26l-.45.3-.47.29-.12.07c-.04.03-.08.05-.12.07l-.53.29-.05.02-.06.03c-1.17.57-2.47 1.03-3.88 1.35l-2.17.41-.56.07-.28.04-.29.03-.57.06-.58.04.36-.43.37-.41.39-.4.4-.37.21-.18.21-.17c.14-.11.29-.21.45-.31l.46-.27c.07-.04.16-.08.24-.12l.24-.11c.84-.25 1.62-.52 2.31-.83a.58.58 0 0 0 .14-.05l.38-.18c.17-.07.32-.16.48-.24l.24-.12.22-.13.22-.12c.02-.02.03-.02.06-.04l.06-.04.14-.09 1.01-.71.89-.7c.06-.06.14-.12.2-.18l.19-.17.1-.09.26-.26c.03-.02.06-.05.08-.08l.16-.17.04-.04c.01-.01.02-.03.04-.04l.14-.16c.02-.03.05-.06.07-.08l.06-.08 1.22.83c.11-.21.19-.41.27-.6l.12-.29c.03-.1.06-.19.1-.28.02-.04.03-.09.04-.13.02-.04.03-.09.04-.13.04-.09.05-.17.08-.26l.03-.12c.01-.04.02-.07.02-.1l.03-.1c0-.03 0-.06.01-.1a3.88 3.88 0 0 0 .06-.67 4.94 4.94 0 0 0-.08-.92c-.06-.38-.18-.86-.34-1.4l-.07-.21-.07-.22-.07-.22c-.03-.07-.06-.15-.08-.23l-.33-.9c-.02-.08-.05-.15-.08-.22l-.09-.22-.09-.22c-.03-.08-.05-.15-.09-.22l-.37-.89-.2-.43-.32-.66-.33-.65c-.6-1.15-1.3-2.27-2.07-3.35l-.3-.4-.15-.21-.15-.2-.32-.39-.32-.39-.17-.19c-.05-.07-.11-.13-.16-.19l-.35-.38a6.12 6.12 0 0 0-.35-.37 6.29 6.29 0 0 0-.36-.38l-.38-.38-.39-.38-.8-.73-1.68-1.37-.88-.64c-.14-.11-.3-.21-.45-.31l-.22-.15-.23-.14-.46-.29-.47-.28-.47-.26-.48-.26c.21.4-.16.5-.37.63-.03-.02-.05-.03-.07-.04.02.01.04.03.07.04-.19.12-.25.27.32.69-.56-.42-.5-.57-.32-.69l3.31 2.53 1.56 1.38.76.72.38.36.37.37.18.18.17.18.34.35.33.35.32.36.32.37.31.36.3.37.3.37.29.38.28.38.28.38.14.19.39.58.26.4.49.79.23.4.23.41.32.6.1.21.21.41.19.41.37.83.04.11.04.1.16.42.09.22.16.44.15.42c.17.54.29 1 .35 1.36.06.37.07.63.04.82-.02.19-.07.32-.14.46l-.01.03-.01.03c-.01.01-.02.03-.03.06-.01.01-.02.03-.04.05-.01.03-.02.05-.03.07l-.02.03c0 .01-.01.03-.02.04-.02.04-.04.06-.05.1-.02.03-.03.06-.05.09a.88.88 0 0 1-.06.1c-.04.06-.07.13-.12.19-.02.03-.05.06-.07.1l-.07.1c-.05.06-.1.13-.15.2a3.13 3.13 0 0 1-.17.21l.24-.33.05-.09c.01-.02.04-.05.05-.08l.09-.16c.04-.04.06-.1.09-.15l.04-.07c.01-.03.03-.05.03-.08l.12-.26c.01-.02.02-.04.03-.05l.01-.03.01-.02c0-.03.01-.06.03-.09v-.02l.01-.02c0-.01 0-.02.01-.03 0-.01.01-.03.01-.04.01-.02 0-.03.01-.04 0-.01.01-.03.01-.03 0-.01 0-.02.01-.03v-.02c0-.02.01-.06.01-.08.01-.03.01-.06.01-.09V140v-.02-.06c-.01-.16-.02-.34-.08-.61 0-.06-.03-.14-.04-.21l-.03-.11c0-.02-.01-.04-.01-.06l-.02-.06-.04-.12-.02-.06c0-.02-.01-.04-.01-.07l-.09-.27c-.01-.02-.02-.04-.02-.07l-.03-.07-.11-.29-.12-.33-.06-.16-.14-.34a1.22 1.22 0 0 1-.07-.17l-.08-.16-.14-.32-.29-.65a28.28 28.28 0 0 0-3.02-4.92l-1.91-2.27c-.08-.1-.17-.19-.26-.28l-.25-.27-.26-.27-.27-.27c-.04-.05-.09-.09-.13-.13l-.15-.15-.29-.28-.58-.56c-3.14-2.97-6.57-5.52-10.22-7.49a37.64 37.64 0 0 0-5.63-2.51c-.96-.35-1.94-.65-2.92-.9l-.36-.1c-.06-.02-.13-.03-.2-.05l-.19-.04c-.26-.07-.53-.13-.79-.19l-1.66-.35-1.59-.32-1.66-.3a25.72 25.72 0 0 0-2.49-1.16c-.22-.08-.43-.17-.65-.25-.22-.09-.44-.17-.66-.25a8.97 8.97 0 0 0-.67-.24c-.06-.02-.1-.04-.14-.06l-.13-.04c-.09-.03-.18-.07-.26-.1-.68-.24-1.33-.43-1.93-.54l-.22-.04-.22-.03-.11-.02-.11-.01-.21-.02c-.14 0-.28-.02-.41-.02h-.21-.2c.1-.46.07-1.02-.03-1.61-.09-.59-.24-1.18-.21-1.71.01-.26.05-.51.18-.72.11-.21.31-.39.6-.52.59-.26 1.58-.31 3.16.14l.23-1.44c-.81-.36-1.57-.73-2.28-1.1s-1.38-.74-2-1.09c-1.22-.73-2.23-1.44-2.76-2.22-.23-.4-.35-.8-.36-1.21 0-.1.01-.2.02-.3l.03-.15c.01-.03.01-.05.01-.08.01-.03.01-.05.04-.07.08-.21.22-.41.4-.62a2.23 2.23 0 0 1 .31-.3c.12-.1.24-.19.38-.29s.31-.19.48-.28l.26-.13.29-.12c.8-.32 1.82-.58 3.04-.69a22.92 22.92 0 0 1 2.03-.04c.68.01 1.34.06 1.99.12.31.04.64.07.95.12l.23.03c.07.01.13.01.19.02.12.02.25.03.37.05l.76.1c.25.04.52.08.78.11 1.06.16 2.18.34 3.36.57a76.45 76.45 0 0 1 3.74.78c.65.15 1.32.32 2 .5l.25.07c.09.02.17.04.26.07l.52.15c.35.09.7.2 1.05.31 1.4.43 2.78.92 4.14 1.44 2.72 1.06 5.36 2.28 7.89 3.52 3.65 1.89 7.07 4.13 10.14 6.7 1.54 1.29 2.99 2.65 4.33 4.09l.12.13c.05.05.09.09.13.14l.26.29.52.59 1.01 1.21c.33.41.64.84.95 1.26.16.21.31.43.45.64l.23.33.22.33c1.56 2.45 3.04 5.04 4.29 7.77.31.69.61 1.38.89 2.08a8.4 8.4 0 0 0 .22.53l.1.27.19.52c.03.08.06.17.09.26l.2.54c.25.75.51 1.54.74 2.41a24.67 24.67 0 0 1 .55 2.84c.02.25.05.51.08.76l.04.79.01.2c.01.07 0 .13.01.2v.4l-.01.4c0 .14-.01.27-.02.41l-.03.4-.03.41-.11.81c-.04.27-.09.53-.15.8-.02.13-.05.26-.08.39l-.1.39-.1.38-.05.2-.06.18c-.08.25-.16.5-.25.74-.04.13-.09.23-.13.35l-.13.33c-.09.22-.18.45-.28.66-.11.22-.21.43-.31.65l-.16.31-.17.31a17.78 17.78 0 0 1-.71 1.19 2.75 2.75 0 0 1-.19.28l-.19.28c-.13.18-.25.37-.39.54l-.4.52c-.04.04-.07.09-.1.13l-.11.12-.21.25-.21.24-.1.12-.11.11c-.15.15-.29.31-.43.46l-.11.11-.33.33-.22.21-.11.11-.11.1-.9.79c-.15.12-.3.25-.45.36-.15.12-.31.23-.46.35s-.31.23-.46.34c-.15.1-.3.21-.46.31a5.86 5.86 0 0 1-.45.3l-.23.15-.23.14a13.15 13.15 0 0 0-.66.46l-.35.24c-.06.05-.11.09-.18.14-.07.04-.13.09-.2.13l-.81.58c-.27.19-.55.37-.84.57a37.3 37.3 0 0 1-3.51 2.06l-.86.42c-.28.12-.56.25-.84.36-.27.12-.54.22-.79.31-.13.04-.26.09-.38.13-.13.05-.25.08-.37.12-.96.28-1.76.4-2.31.28-.74-.05-1.18-.25-1.44-.56s-.34-.72-.38-1.16c1.46-.39 2.93-.86 4.39-1.41 1.47-.56 2.92-1.22 4.35-2.01.36-.21.72-.4 1.06-.63l.53-.33a11.09 11.09 0 0 0 .26-.17l.26-.18.51-.36.47-.35c.16-.11.32-.23.47-.35.16-.13.32-.24.47-.37l.47-.37.46-.39a16.71 16.71 0 0 0 .45-.41l.45-.41c.6-.56 1.18-1.17 1.74-1.81a20.44 20.44 0 0 0 1.98-2.54 17.36 17.36 0 0 0 1.56-3l.08-.2.02-.05.06-.16.14-.43c.11-.28.18-.58.26-.88.16-.6.28-1.22.36-1.84.03-.16.03-.32.05-.47l.04-.47c0-.08 0-.16.01-.24l.01-.23v-.47l-.01-.47-.01-.23c0-.08 0-.15-.01-.23l-.05-.68-.03-.22a22.25 22.25 0 0 0-.67-3.31c-.07-.27-.15-.51-.22-.75l-.06-.19-.05-.17-.12-.36-.05-.18-.18-.51c-.03-.12-.08-.23-.12-.35l-.12-.35-.52-1.39-.28-.69-.15-.35-.14-.34-.3-.68-.31-.68c-.1-.22-.21-.45-.32-.67l-.33-.67c.4.89.8 1.79 1.16 2.7l.13.33a4.96 4.96 0 0 1 .13.35l.27.68.24.69.13.35.11.35.23.69.22.69.11.35c.03.12.07.23.1.36l.11.36a6.95 6.95 0 0 1 .1.37c.28 1.01.53 2.09.67 3.27.15 1.16.19 2.41.06 3.66l-.06.46-.04.24-.03.23-.1.46c-.03.15-.06.3-.1.45l-.12.45-.06.22c-.02.07-.04.15-.06.21l-.22.65c-.02.08-.05.14-.07.21-.41 1.08-.92 2.11-1.51 3.06a19.97 19.97 0 0 1-1.94 2.62c-.58.63-1.17 1.21-1.78 1.75a23.76 23.76 0 0 1-1.87 1.51c-.15.12-.31.23-.47.35-.16.11-.32.23-.48.33l-.48.33-.52.33c-.17.11-.34.23-.52.33l-.53.31-.26.15-.13.07c-.04.03-.09.05-.14.07l-.53.28c-1.42.73-2.88 1.32-4.32 1.8-1.46.49-2.91.88-4.34 1.21-.02-.78-.08-1.58-.63-2.16l-.94.27-1.59.43a6.88 6.88 0 0 1-1.26-.42c-.36-.17-.66-.36-.91-.58-.5-.42-.79-.91-.93-1.44s-.11-1.1 0-1.67c.07-.29.15-.57.26-.85a7.75 7.75 0 0 1 .37-.83l1.03-1.56z"/><path d="M1396.69 198.91l-.98-.52c-3.05-1.43-6.33-2.51-9.75-3.75l-.65-.24-.64-.24-1.3-.5-1.28-.51-1.29-.54c-1.71-.73-3.43-1.54-5.15-2.46-1.18-.68-2.41-1.35-3.68-1.99-.63-.33-1.28-.64-1.92-.96l-.97-.47-.97-.47-1.95-.92-1.92-.93-3.69-1.86 4.15 2.39 4.28 2.27 4.38 2.18 4.45 2.09 4.49 2.03 1.13.5.28.12.28.13.57.25 2.27.98c3.01 1.29 5.9 2.55 8.56 3.96-1.37.51-2.93.78-4.59.31l-2.94-1.1-3.01-1.14-3.01-1.21c-.24-.1-.49-.19-.73-.3l-.73-.3c-.25-.1-.49-.21-.73-.31l-.73-.31.51-1.35c-2.87-.8-5.55-1.9-8.13-3.15l-.96-.48-.95-.48-1.87-1.01c-1.24-.68-2.46-1.39-3.68-2.1l-3.62-2.13-.92-.54c-.3-.18-.61-.35-.93-.53l-.92-.54c-.32-.17-.63-.35-.94-.52-2.49-1.4-5.03-2.74-7.74-3.91.24.38-.12.5-.32.66-.03-.02-.05-.03-.08-.05.03.02.05.03.08.05-.18.13-.23.29.39.68-.62-.39-.57-.55-.39-.68l7.42 4.27 1.86 1.03.93.51.47.25.46.25 1.82.99 1.84.98 7.44 3.88 3.84 1.89 1.95.93 1 .46c.33.16.66.31.99.46-4.19-1.79-8.24-3.67-12.22-5.61l-5.89-2.97-1.46-.76-1.49-.78-2.94-1.61a205.01 205.01 0 0 1-11.42-6.92l-5.53-3.71-2.73-1.91-1.36-.96c-.24-.18-.48-.34-.72-.52-.24-.17-.46-.34-.7-.52a15.69 15.69 0 0 1-.57-.42l-.68-.51-1.22-.91a21.23 21.23 0 0 0-2.79-3.5c-1-1-2.07-1.86-3.17-2.55.38-.3.66-.8.91-1.33s.49-1.09.8-1.52c.16-.2.34-.38.56-.48.22-.11.47-.16.77-.12.61.08 1.43.51 2.51 1.5l.85-1.18c-.94-1.23-1.62-2.47-2.04-3.64a8.27 8.27 0 0 1-.27-.85 3.15 3.15 0 0 1-.09-.42c-.03-.13-.05-.27-.07-.4-.08-.52-.08-1.02.01-1.46.09-.43.26-.82.51-1.13a2.2 2.2 0 0 1 .2-.23c.04-.03.08-.07.11-.1a.64.64 0 0 1 .13-.1c.17-.12.37-.22.59-.29a3.87 3.87 0 0 1 .74-.15c.28-.02.56-.01.88.01.16.02.32.04.49.07.17.04.35.07.52.12a5.97 5.97 0 0 1 .56.17 6.94 6.94 0 0 1 .59.21c.89.38 1.76.82 2.62 1.31.21.12.42.25.64.38l.63.39c.11.07.21.14.32.2.1.07.21.14.31.21.2.13.41.27.62.42a58.6 58.6 0 0 1 2.4 1.74l2.32 1.77.57.43.61.46 1.23.93 2.48 1.81c1.68 1.19 3.39 2.3 5.14 3.25l3.75 2.14.93.52.47.27.47.26.92.53.92.53a108.69 108.69 0 0 1 3.63 2.17l.89.56.88.57.88.59.45.3.44.31c3.26 2.32 6.89 4.31 10.55 6.17l5.47 2.74c.23.11.45.23.68.34l.67.34.68.35.66.34.67.35.66.36.65.35c.21.12.42.23.64.35.32.16.68.3 1.06.43.39.13.81.25 1.24.36.86.23 1.79.44 2.68.64 1.77.42 3.39.87 3.97 1.61.91.79.74 1.55.35 2.34l-6.97-2.16a82.25 82.25 0 0 1-3.35-1.14l-.82-.3-.82-.32-1.65-.65c-5.26-2.39-10.35-5.17-15.19-8.42 4.6 3.43 9.76 6.19 15.19 8.42l1.61.71.81.35.8.34 3.28 1.3 6.78 2.5c-.37.66-.74 1.37-.64 2.14l2.16.62c.6.65.96 1.27 1.12 1.87.17.59.15 1.16 0 1.68s-.45 1.01-.81 1.44c-.36.44-.8.83-1.28 1.17-.45.25-.96.53-1.52.81z"/><path d="M1367.08 177.88l.17-1.03c.37-3.14.34-6.27.25-9.49-.1-3.22-.28-6.52-.21-10.02.15-2.46.01-5.08-.24-7.68l-.84-7.64.86 17.59c.16 5.87.01 11.7-.94 17.26-.92-1.08-1.69-2.37-1.79-3.92.09-3.74.06-7.43-.07-11.09l1.45-.09c-.97-5.17-.97-10.22-1.1-15.28l-.14-3.8c-.06-1.26-.15-2.53-.29-3.8-.26-2.55-.7-5.12-1.41-7.72-.15.39-.47.19-.72.14l.93 7.64.37 3.73.3 3.73c.35 4.95.54 9.92.61 15.04-.31-7.93-1.07-15.73-1.99-23.56l-1.36-12.04-.07-.77-.07-.79-.14-1.57-.23-3.09-.42-5.99c-.02-.16-.04-.37-.05-.59l-.06-.72c-.02-.25-.05-.5-.06-.72-.03-.23-.05-.43-.06-.59.42-1.34.63-2.63.67-3.89.02-.62 0-1.23-.07-1.83-.01-.15-.03-.3-.05-.45l-.02-.11-.02-.14-.05-.27c-.06-.37-.14-.76-.21-1.18.48.13 1.03-.02 1.6-.21.56-.18 1.13-.4 1.66-.44.52-.04 1 .11 1.37.6.09.12.18.27.26.45.04.08.08.18.11.27a2.81 2.81 0 0 1 .1.31c.12.43.2.97.23 1.65l1.44-.22a14.76 14.76 0 0 1 .46-2.03c.19-.64.43-1.21.73-1.7.29-.49.64-.89 1.01-1.2s.77-.53 1.18-.68c.41-.16.82-.25 1.23-.23.1 0 .2.01.3.03.06.01.1.02.16.03.02.01.04.01.07.01.02.01.05.02.07.02.2.03.39.08.58.14a3.5 3.5 0 0 1 1.06.62c.34.31.66.71.98 1.34l.04.07.03.08c.02.06.05.12.07.17.04.11.09.22.13.33l.24.68a14.34 14.34 0 0 1 .23.7 18.64 18.64 0 0 1 .19.71c.26.95.46 1.92.61 2.91.16.98.28 1.97.36 2.96.09 1 .16 2 .2 3.01l.26 5.94a52.2 52.2 0 0 0 .22 2.87l.08.69c.03.23.06.47.1.69.02.12.03.23.05.34l.06.34.12.7 1.21 8.21c.33 2.77.54 5.58.46 8.43-.16 3.91.05 7.97.19 12.04.13 4.07.19 8.14-.25 12.07-.08 1.42.25 3.35.45 5.11.21 1.76.31 3.36-.19 4.09-.47 1.04-1.24 1.11-2.12.99l-.29-6.93-.17-3.45-.17-3.44.09-16.87c-.46 5.54-.34 11.17-.09 16.87l.02 3.43v3.43l-.1 6.85c-.75-.13-1.53-.26-2.24.05l.12 2.1c-1.67 2.88-4.26 2.26-6.16.95l-1.28-1.15z"/><path d="M1377.12 179.19l.7.04.69.03h1.58l.79-.03.79-.03.79-.04.79-.05 1.58-.12 6.32-.83 6.42-1.2 6.63-1.4.99-.19 1-.22 1-.25.51-.13.25-.06a2.17 2.17 0 0 1 .24-.07c1.3-.36 2.53-.8 3.67-1.31l1.61-.83c.5-.3.96-.61 1.37-.94.42-.33.79-.66 1.09-1l.09-.09c.02-.04.05-.08.08-.11l.05-.05c.01-.02.02-.04.04-.06a.7.7 0 0 1 .08-.1 3.79 3.79 0 0 0 .29-.45c.16-.27.29-.55.38-.83.09-.29.14-.58.17-.88a3.55 3.55 0 0 1-.25.86 4.51 4.51 0 0 1-.44.77l-.43.51-.02.04-.03.02-.12.12-.06.05c-.01.01-.04.04-.07.06-.02.03-.05.05-.08.08l-.16.14c-.22.2-.46.38-.72.57l-.2.14-.2.14-.43.27a16.75 16.75 0 0 1-1.94 1l-2.21.87-1.18.4-.61.19-.16.04-.16.05-.32.1-1.29.37-.33.09-.32.09-.65.17-5.24 1.25c-3.52.73-7.06 1.27-10.6 1.57-3.53.31-7.06.38-10.52.21a12.07 12.07 0 0 1 1.08-.74 8.04 8.04 0 0 1 .58-.34c.19-.11.4-.21.61-.31.41-.2.85-.37 1.31-.51a8.4 8.4 0 0 1 1.44-.34c2.46-.2 4.9-.48 7.3-.82l1.79-.28 1.78-.31c.15-.02.3-.05.45-.07l.44-.09.88-.17.44-.09c.15-.02.29-.06.44-.09l.87-.19.39 1.41 2.69-.89.67-.21.66-.22 1.33-.41 1.32-.41c.11-.03.23-.07.34-.1l.32-.11.66-.21.66-.2.33-.1.31-.09 1.19-.39a29.06 29.06 0 0 0 2.19-.79c.34-.14.66-.27.97-.42.31-.14.6-.28.88-.43.55-.29 1.03-.59 1.4-.88.03-.02.06-.04.07-.05l.07-.06.07-.05c.02-.02.04-.04.07-.05.04-.03.1-.08.15-.12a2.69 2.69 0 0 0 .3-.29c.03-.04.07-.08.1-.13.04-.05.07-.09.1-.14l.02-.04c.01-.01.01-.02.02-.04s.03-.04.04-.07c.01-.01.02-.02.02-.04l.02-.04c.01-.02.02-.05.04-.08 0-.01.01-.02.01-.04l.02-.04c0-.03.02-.06.03-.08 0-.03.01-.06.02-.08.01-.03.02-.06.02-.09.02-.11.04-.23.04-.35a2.42 2.42 0 0 0-.08-.71c0-.01-.01-.02-.01-.03v-.02l-.01-.03-.02-.07-.03-.09c-.04-.12-.08-.22-.13-.35l-.07-.19-.02-.05-.01-.04-.04-.09-.07-.17-.08-.17c-.42-.91-1.05-1.83-1.84-2.71-.8-.88-1.75-1.72-2.85-2.49.08.21.02.33-.08.4-.1.08-.26.11-.37.17l-.06-.06.06.06c-.21.09-.27.24.22.73-.5-.49-.43-.64-.22-.73a23.49 23.49 0 0 1 1.33 1.3c.41.44.8.87 1.13 1.3.68.87 1.22 1.72 1.58 2.53.03.05.05.11.07.15l.06.16.03.07c.01.02.03.05.04.08l.09.25.02.08.06.15c.02.05.03.09.04.14h0v.01c.04.14.06.27.07.41-.01.03-.01.07-.01.1v.05c0 .02-.01.03-.01.05.01.02 0 .04 0 .06-.01.01-.01.03-.01.05-.01.01-.01.03-.02.05 0 .03-.01.04-.01.05-.01.01-.01.03-.02.05-.01.01 0 .01-.01.02 0 .01-.01.02-.01.02-.02.03-.02.07-.04.09-.04.06-.07.12-.11.17-.05.07-.1.13-.16.18-.01.02-.03.03-.04.04l-.03.03c-.01 0-.01.01-.02.02l-.03.02c-.01.02-.03.03-.05.05l-.05.05c-.02.01-.03.03-.06.04a3.93 3.93 0 0 1-.52.41 9.19 9.19 0 0 1-.65.42c-.24.14-.5.28-.78.42s-.57.28-.88.41c-.31.14-.64.27-.98.4s-.69.25-1.06.38l-1.14.36-.29.08-.3.09-.64.18-1.29.36-1.3.33-.66.17c-.22.06-.44.1-.65.16l-1.33.31-.66.14c-.22.05-.45.1-.67.14-.45.1-.89.2-1.34.28.44-.09.88-.2 1.32-.3l1.31-.31 1.3-.34.65-.17.64-.18 1.29-.36 1.28-.4.63-.19c.21-.06.4-.13.59-.19.39-.13.76-.25 1.12-.39a25.56 25.56 0 0 0 1.05-.4l.95-.42a9.84 9.84 0 0 0 .86-.43c.27-.15.52-.29.75-.44.23-.14.43-.29.61-.42.19-.14.34-.28.48-.41l.03-.02.06-.07c.02-.01.04-.03.05-.04l.04-.04c0-.01.01-.01.01-.02l.03-.03c.03-.04.06-.09.09-.14.03-.04.05-.09.07-.13.01-.05.04-.1.04-.15 0 0 .01-.01.01-.02v-.02-.03c0-.01.01-.01.01-.02v-.01c-.01-.03 0-.04 0-.05 0-.05-.01-.1-.01-.15-.02-.05-.02-.1-.04-.15-.01-.01-.01-.03-.01-.04l-.03-.08-.03-.07-.06-.17c0-.02-.02-.05-.03-.09l-.07-.17c-.01-.03-.02-.06-.04-.09l-.14-.32c-.1-.21-.22-.44-.34-.66-.25-.45-.54-.9-.88-1.37-.17-.23-.36-.47-.55-.71l-.22-.26-.23-.27-.16-.18a26.97 26.97 0 0 0-1.41-1.43c-.51-.48-1.05-.96-1.62-1.44a47.25 47.25 0 0 0-1.8-1.44l-.47-.37-.06-.04-.05-.04-.11-.07-.41-.31-.11-.07-.1-.08-.44-.29c-.08-.05-.14-.1-.22-.15l-.23-.15-.46-.29-.47-.29c-.16-.09-.31-.19-.48-.28l-.99-.56-.51-.28-.53-.28c-1.39-.74-2.92-1.46-4.52-2.22l-2.48-1.16-.64-.3a12.97 12.97 0 0 0-.65-.31l-1.2-.57c-.18-.09-.42-.2-.69-.32l-.84-.38-.85-.36-.71-.29c-.68-.57-1.41-1.09-2.16-1.55-.75-.47-1.53-.88-2.33-1.25a25.04 25.04 0 0 0-2.48-.98l-.63-.21c-.22-.06-.43-.13-.64-.19l-.32-.09-.14-.04-.38-.11c-.09-.03-.16-.05-.21-.06l-.07-.02-.03-.01h-.01l.03-.09c.01-.03.02-.06.02-.08l.06-.18c.03-.12.06-.25.1-.38a10.46 10.46 0 0 0 .15-.84l.12-.88c.03-.29.07-.57.14-.82.03-.12.08-.24.12-.35.03-.06.06-.11.09-.16s.07-.1.11-.14a.91.91 0 0 1 .31-.22c.12-.05.28-.09.48-.11a4.97 4.97 0 0 1 .36.01c.11-.01.22 0 .35.01.24.02.51.06.82.12a12.02 12.02 0 0 1 1.01.27l.58.2.63.25.41-1.4c-.85-.49-1.64-1-2.34-1.52l-.51-.38a5.03 5.03 0 0 1-.24-.19c-.04-.04-.08-.07-.11-.1-.04-.03-.07-.06-.11-.1-.28-.26-.58-.54-.89-.8s-.61-.51-.9-.73l-.81-.6c-.25-.17-.47-.32-.64-.48a1.78 1.78 0 0 1-.37-.47c-.21-.44-.29-.87-.24-1.3a1.73 1.73 0 0 1 .07-.31.88.88 0 0 1 .05-.15c.01-.03.02-.05.03-.08.02-.03.03-.06.04-.09.09-.24.25-.49.5-.71.5-.45 1.39-.81 2.58-.91.15-.01.3-.02.46-.02.08-.01.16 0 .24-.01a2.35 2.35 0 0 1 .26.01 22.01 22.01 0 0 1 .95.05 1.34 1.34 0 0 1 .2.01h.09.04.07.04c.02 0 .03-.01.06-.01l.03-.01-.04.18c-.04.13-.07.26-.11.39l-.19.78c-.03.13-.07.26-.1.39l-.04.2c-.48 1.93.58-2.39.48-1.96h.02.05c.03 0 .06 0 .09.01a1.15 1.15 0 0 1 .19.01 2.56 2.56 0 0 1 .39.03c2.38.25 4.94.82 7.58 1.69 1.33.43 2.67.93 4.01 1.5l1.01.44c.17.08.34.16.51.23l.5.24c.17.08.34.16.51.23.17.09.33.17.5.25s.33.17.5.25l.43.22 3.56 1.77 3.86 1.94c1.33.69 2.69 1.41 4.07 2.19a73.15 73.15 0 0 1 4.16 2.52l.93.64.51.35 1.33.98a55.58 55.58 0 0 1 2.67 2.14c.45.38.89.78 1.33 1.19.22.2.44.41.65.62l.33.32.16.16.16.17c.86.88 1.71 1.84 2.52 2.88a29.56 29.56 0 0 1 1.17 1.63c.09.13.18.28.28.43l.14.21.14.22c.09.15.18.29.26.45l.27.45c.34.61.67 1.24.97 1.9l.11.25.11.25.21.5.2.52.05.13.04.12.18.49.04.12.04.13.17.53.04.13.04.14.09.31.11.37c.03.12.05.24.08.35l.15.69c.03.12.05.23.07.35l.06.35c.09.47.14.94.18 1.4.02.24.03.47.04.7 0 .12.01.24.01.35v.36.34c0 .12 0 .24-.02.35l-.04.69c-.01.12-.03.24-.04.35l-.05.35-.05.34c-.01.11-.04.23-.06.34-.04.23-.09.46-.14.68l-.18.67-.09.28-.09.28c-.06.19-.13.38-.2.56-.07.19-.15.37-.22.55l-.12.27-.06.14-.06.14c-.09.18-.17.35-.27.53l-.13.26-.15.26c-.1.18-.2.35-.3.52l-.08.13-.02.03v.01.01l-.01.02-.04.06-.16.26c-.16.24-.33.48-.5.72s-.35.47-.53.7a24.36 24.36 0 0 1-1.15 1.33 1.21 1.21 0 0 1-.16.16l-.16.17-.15.15-.14.13-.56.52-.29.24c-.09.08-.19.16-.28.24l-.29.23-.14.12-.14.11c-1.53 1.18-3.08 2.07-4.58 2.81-1.51.74-2.98 1.31-4.39 1.81l-2.09.67-.26.07-.24.08-1.46.41c-2.61.71-5.22 1.33-7.83 1.82l-1.95.34-1.95.28-.96.11-.97.11-.96.09-.96.07c-.25.02-.51.06-.78.11-.14.02-.28.04-.41.07a6.13 6.13 0 0 0-.42.07c-.57.1-1.17.22-1.78.35l-1.85.4c-.16.03-.32.07-.47.1-.16.03-.31.07-.47.1l-.92.19-.91.17c-.3.06-.59.11-.87.15-.57.08-1.11.16-1.61.2-1 .08-1.82.06-2.35-.15-1.49-.34-1.65-1.1-1.56-1.99 6.42-.66 12.79-1.73 19.05-3.06l1.45-.28.72-.14.73-.15 1.44-.3c.25-.05.49-.1.73-.16l2.17-.49 2.16-.52.72-.18 1.45-.37 1.49-.41 1.53-.48c.52-.16 1.03-.35 1.56-.54a64.29 64.29 0 0 0 1.57-.63c.53-.23 1.06-.48 1.6-.75.53-.28 1.07-.57 1.6-.9 1.07-.66 2.14-1.44 3.16-2.4l-.19.17a2.8 2.8 0 0 1-.2.16c-.13.11-.25.22-.38.32l-.4.31-.4.29a20.37 20.37 0 0 1-1.59 1.03c-.53.31-1.06.6-1.59.86-.53.27-1.06.5-1.59.72-2.1.89-4.15 1.5-6.12 2.04l-1.44.38-.72.19-.73.18a61.38 61.38 0 0 1-1.45.37l-1.45.35c-.96.25-1.94.46-2.91.69-.24.06-.49.11-.73.16l-.73.17-1.47.32c-6.29 1.16-12.62 1.95-18.95 2.34.13-.77.23-1.56-.25-2.23l-1.08.13-1.8.21a7.33 7.33 0 0 1-1.31-.58c-.36-.21-.66-.44-.9-.68-.48-.48-.72-1.01-.78-1.55-.13-1.09.45-2.25 1.27-3.25a33.03 33.03 0 0 1 1.45-1.42z"/><path d="M1373.96 135.03l1.04-.27c3.13-.96 6.12-2.29 9.22-3.69l1.17-.52 1.18-.53 1.21-.53 1.23-.52 1.27-.51.64-.25.63-.23 2.52-.88.89-.28.88-.3c.07-.03.14-.06.22-.08l.11-.04.04-.02.03-.01c.09-.02.16-.05.24-.08l.48-.17c.64-.25 1.27-.58 1.84-.97l.84-.59c.26-.21.51-.43.71-.7a1.64 1.64 0 0 0 .24-.43c.06-.15.08-.32.06-.48a1.89 1.89 0 0 0-.13-.48 2.55 2.55 0 0 0-.23-.43c.08.16.14.34.17.51.03.18.04.36 0 .54s-.13.35-.25.5-.26.28-.41.41c-.3.24-.62.44-.94.62l-.49.27-.48.25-.97.46-.48.19-.24.1-.12.05-.06.02-.05.02-.06.03-4.12 1.65-1.09.42-.55.22-.56.21-2.22.87-4.32 1.65-8.55 2.72c.62-1.28 1.52-2.51 2.96-3.25l5.46-2.27 2.73-1.16 1.38-.58.71-.31.36-.15.36-.14.64 1.31 3.63-1.9c.14-.08.29-.14.43-.21l.43-.21.84-.39.41-.19.29-.13.22-.07.95-.31c.35-.12.76-.25 1.13-.47a2.11 2.11 0 0 0 .27-.18c.08-.07.15-.15.2-.24.1-.18.09-.38.04-.56-.04-.17-.13-.34-.24-.51-.11-.16-.24-.32-.38-.47a3.76 3.76 0 0 0-1.07-.73l-.31-.11c-.04-.02-.1-.03-.15-.05l-.18-.06-.1-.02h-.01l-.01-.01-.02-.01-.06-.03-.11-.05-.44-.22-.47-.22-.47-.23c.22.39-.14.5-.35.64-.02-.01-.04-.03-.06-.04.02.01.04.03.06.04-.09.07-.14.14-.1.25.03.1.16.23.44.42-.28-.19-.41-.32-.44-.42-.04-.11.01-.18.1-.25l.85.54.41.26.1.06.04.03.02.01.06.03.19.11c.05.03.11.05.16.09a3.41 3.41 0 0 1 .57.43l.24.26.18.29a.5.5 0 0 1 .03.32c-.03.11-.12.2-.22.28-.19.14-.42.23-.64.31a3.03 3.03 0 0 1-.62.17c-.05 0-.09.01-.14.01-.03 0-.05.01-.08.01h0l-.03.01-.05.02-.1.05-.2.08-.83.33-.43.17-.44.17-3.74 1.41 5.56-2.32.16-.08h.02l.01-.01h.01l.05-.01c.02-.01.05-.02.08-.03.05-.01.11-.03.17-.05l.33-.17c.1-.06.21-.12.3-.21a.45.45 0 0 0 .1-.14.25.25 0 0 0 .01-.17c-.04-.12-.12-.22-.2-.31-.09-.09-.18-.17-.28-.24-.1-.08-.2-.14-.3-.2l-.12-.06-.01-.01h-.02l-.03-.03-.07-.04h-.01l-.03-.02-.08-.05-.16-.1-.63-.42-2.79-1.86-.65-.46-.61-.41-1.23-.84-5.05-3.27-2.6-1.61-1.33-.81-1.39-.86-1.21-.73-1.14-.68-.32-.41-.31-.39-.08-.09-.08-.09-.32-.35-.16-.17-.17-.16-.08-.08-.08-.07-.33-.3-.32-.27-.17-.13-.16-.12-.17-.12-.17-.11-.25-.15-.08-.05-.34-.18a3.54 3.54 0 0 0-.34-.16l-.08-.04c-.03-.01-.07-.03-.1-.04l-.2-.08-.26-.1-.03-.01-.03-.01c-.01 0-.01-.01-.02-.01-.04-.01-.08-.02-.13-.02l.14-.74.09-.85.05-.87c.01-.29.03-.57.08-.83.04-.26.11-.49.22-.69a1.12 1.12 0 0 1 .22-.26.71.71 0 0 1 .14-.1c.05-.03.09-.06.15-.08.22-.09.53-.1.97.01.06.01.11.03.17.04.05.02.11.04.17.05l.37.14.39.18.21.11c.07.03.14.08.22.12l.54-1.35-.43-.36-.21-.18c-.03-.04-.07-.06-.1-.09-.04-.04-.07-.06-.1-.1l-.4-.36-.38-.36-.74-.73-.38-.34-.19-.17c-.06-.06-.12-.12-.18-.16l-.71-.62c-.06-.04-.11-.09-.17-.14l-.16-.14a1.92 1.92 0 0 1-.15-.14c-.03-.02-.06-.04-.08-.06-.02-.03-.05-.05-.07-.07-.1-.08-.2-.18-.28-.26l-.25-.27c-.16-.18-.29-.36-.4-.55-.17-.42-.25-.85-.23-1.26l.04-.3.03-.15.03-.08c.01-.02.02-.05.03-.08l.19-.32c.04-.06.08-.11.13-.17l.14-.16c.41-.42 1.05-.8 1.95-1.03.45-.12.96-.19 1.53-.2h.21l.25.01.26.01c.07.01.15.01.23.02a1.94 1.94 0 0 1 .24.02c.07 0 .14.01.22.02s.15.01.23.03a1.49 1.49 0 0 1 .21.02l.43.07c.06.01.13.01.19.03l.2.03.87.18.86.22.85.27a24.58 24.58 0 0 1 3.25 1.33l2.92 1.6 2.6 1.63 1.29.84 1.33.87 2.7 1.76 5.48 3.42 1 .62.99.62.24.15.39.24 1.05.63.9.55.48.29.49.31.25.15.19.13.21.14.43.29.22.14.21.15 1.77 1.29.44.33.21.16.21.18.83.69.2.18.2.17.39.36.39.37.73.74.36.38.66.77.33.39.62.79c.1.13.19.27.28.41l.28.4.14.2a.36.36 0 0 1 .07.1l.06.1.48.82a4.36 4.36 0 0 1 .23.42l.19.41.35.82c.4 1.11.63 2.2.69 3.34l-.02 1.19a10.29 10.29 0 0 1-.14 1.23 8.1 8.1 0 0 1-.3 1.2l-.09.28c-.04.09-.07.19-.1.28l-.23.54c-.31.72-.7 1.38-1.16 2.03-.46.64-.99 1.25-1.6 1.85l-.96.87-.53.42c-.08.07-.18.14-.27.21l-.29.2-1.15.8-.6.38-.31.19-.3.18-.61.37-.62.36-.94.53c-.11.05-.21.12-.32.17l-1.28.66-1.31.62-.32.15-.33.15-.41.17-.78.33-.2.08-.19.08-.39.15-.77.29-2.93 1.06-1.39.47-1.38.46-1.43.45-1.44.42c-1.35.47-3.02 1.52-4.58 2.42-1.57.9-3.03 1.64-3.94 1.48-1.18.01-1.59-.66-1.85-1.51l12.76-6.02 3.98-1.47 1.04-.37.52-.2.53-.19.53-.2.53-.2.27-.1.14-.05.06-.03.09-.04.38-.15.39-.17.76-.34.76-.35 1.51-.75.19-.09.18-.11.75-.4.37-.2 1.45-.87.71-.45.68-.48 1.23-.99c.77-.69 1.44-1.43 1.99-2.25-.57.79-1.26 1.5-2.04 2.17l-.6.49-.64.47-.67.46c-.06.03-.11.07-.17.11l-.18.11-.35.21c-1.9 1.15-3.9 2.15-5.91 3.03l-.75.33-.19.08-.14.05-.27.11-1.06.41-2.1.81a93.65 93.65 0 0 0-3.97 1.6c-4.29 1.68-8.58 3.56-12.96 5.34-.2-.74-.42-1.51-1.01-2.02l-1.95.97c-.86-.08-1.54-.31-2.06-.64-.53-.33-.9-.76-1.15-1.25-.51-.98-.53-2.19-.32-3.32l.56-1.67zm56.99 41.66l.06-.16.06-.18.1-.37c.11-.6.17-1.29.18-2.05l-.04-2.51-.02-.7-.01-.63-.04-1.25-.1-2.52c-.14-3.38-.32-6.82-.29-10.43.14-2.55-.03-5.24-.35-7.91l-.12-.99-.13-1-.14-.99-.14-.97-.6-3.83.11 1.11.1 1.12.11 1.11.1 1.12c.02.18.03.37.05.56.01.18.03.37.04.55.04.37.07.75.1 1.12l.09 1.13.09 1.12c.02.38.05.75.08 1.13a40.05 40.05 0 0 0 .08 1.13l.07 1.14.07 1.13.2 4.56a163.48 163.48 0 0 1 .03 9.13l-.09 2.28-.06 1.14-.04 1.26c-.03.81-.07 1.54-.14 2.2-.06.66-.16 1.24-.3 1.74l-.17-.14c-.05-.05-.11-.1-.16-.16l-.32-.32a9.36 9.36 0 0 1-.29-.37.55.55 0 0 0-.07-.09.36.36 0 0 0-.07-.1c-.04-.07-.08-.14-.13-.21-.33-.56-.59-1.24-.69-2.11l-.03-.83-.02-.67v-.19l-.01-1.48-.05-2.94-.17-5.79 1.44-.1c-.5-2.68-.76-5.32-.93-7.92l-.4-7.73c-.31-5.13-.88-10.29-2.82-15.34-.12.41-.46.25-.7.21-.22-.03-.37.04-.24.69-.12-.65.02-.72.24-.69a124.86 124.86 0 0 1 1.52 7.56l.57 3.76a26.62 26.62 0 0 1 .13.94l.11.94.11.94.1.94c.53 4.98.74 10.06.84 15.38-.18-4.13-.47-8.17-.9-12.13l-.08-.74-.09-.74-.18-1.48-.09-.73c-.03-.25-.07-.49-.1-.74l-.22-1.47-.22-1.48-.24-1.48-.25-1.47-.26-1.48c-1.43-7.84-3.36-15.63-5.61-23.57-.09-.34-.24-.84-.39-1.35a17.37 17.37 0 0 0-.21-.73l-.18-.61c.06-.75.06-1.52.03-2.3-.04-.78-.12-1.58-.22-2.39a11.25 11.25 0 0 0-.08-.61l-.09-.62-.09-.63-.18-1.11-.02-.17c-.03-.21-.07-.43-.11-.64l-.1-.66c-.04-.22-.07-.45-.1-.67.48.16 1.04.02 1.61-.15.56-.17 1.14-.38 1.67-.4.27-.01.52.03.74.14a1.19 1.19 0 0 1 .33.22 2.07 2.07 0 0 1 .3.34c.37.55.63 1.47.83 2.98.36-.08 1.06-.25 1.42-.34a9.83 9.83 0 0 1 .04-.56c.02-.19.05-.37.07-.55.03-.18.07-.35.11-.52a18.87 18.87 0 0 1 .12-.5 7.64 7.64 0 0 1 .34-.92c.06-.15.13-.29.2-.42s.15-.26.22-.38c.08-.13.16-.24.24-.35.08-.12.17-.22.26-.32.18-.2.36-.39.55-.54a3.96 3.96 0 0 1 1.2-.69c.41-.16.82-.23 1.23-.2.1.01.2.02.3.04l.15.03c.03.01.05.02.07.03.03 0 .05.01.08.01a2.97 2.97 0 0 1 .57.2c.09.04.19.09.28.14a3.65 3.65 0 0 1 .26.16c.18.12.35.26.51.42a2.06 2.06 0 0 1 .25.26c.04.04.08.09.12.13.02.03.04.05.05.08.02.02.04.05.06.08a3.71 3.71 0 0 1 .23.32c.04.06.07.12.11.18a1.18 1.18 0 0 1 .11.19c.3.58.6 1.22.89 1.93.29.7.58 1.48.87 2.32a51.19 51.19 0 0 1 .88 2.77 40.3 40.3 0 0 1 .41 1.47l.2.75.2.75.38 1.52.37 1.54c.06.26.13.52.19.77l.18.77.38 1.55.78 3.09c.28 1.02.57 2.03.89 3.02.83 2.92 1.62 5.85 2.21 8.82.6 2.97 1 5.97 1.08 9l.03 1.57.06 1.58.07 1.6.08 1.61.33 6.42c.19 4.27.26 8.49-.14 12.52-.03.73.05 1.58.16 2.49.05.45.11.91.19 1.37l.19 1.35c.12.75.24 1.58.27 2.33.03.77-.04 1.45-.28 1.89-.05.16-.11.3-.17.41a2.37 2.37 0 0 1-.21.33 1.34 1.34 0 0 1-.49.39c-.37.16-.78.14-1.22.07-.02-.69-.06-1.35-.12-1.98l-.16-1.82-.04-.44-.04-.41-.01-.11-.02-.3-.03-.42-.12-1.78-.42-7.09-.11-8.76-.09-8.89-.1 4.41c-.02 1.46-.02 2.93.01 4.4.04 2.95.14 5.89.29 8.84l.1 7.06.03 1.77.01.83.01.42.02.43.06 1.79c.01.16.01.31.02.47v.47l.01.49-.01.49c-.38-.08-.76-.15-1.14-.16s-.75.04-1.1.21c0 0 0 .09.01.25a26.43 26.43 0 0 1 .03.6c.01.47.01 1.04-.02 1.43-.06.09-.12.18-.18.26s-.14.16-.2.24c-.14.14-.27.27-.41.39-.14.11-.28.2-.42.28-.08.04-.14.08-.22.11-.07.03-.14.06-.21.08-.57.2-1.13.18-1.66.05-.54-.12-1.05-.35-1.54-.59-.12-.07-.24-.12-.36-.19-.12-.06-.24-.13-.35-.19a6.02 6.02 0 0 1-.34-.2c-.06-.03-.11-.06-.17-.09-.05-.04-.11-.07-.16-.1-.09-.07-.18-.13-.27-.2-.05-.03-.1-.06-.14-.09-.05-.04-.1-.07-.15-.11-.09-.06-.19-.14-.29-.21-.05-.03-.1-.07-.15-.11-.08-.03-.13-.07-.18-.11z"/><path d="M1515.22 178.18l-1.4-.24-6.42-.61-6.45-.19-6.58.08-1.68.04-1.69.05-1.71.05-.87.03-.89.03c-3.36-.04-6.91.26-10.45.69-3.54.42-7.05.98-10.33 1.46l11.87-1.16 3-.25 3-.24 3-.21 1.51-.1 1.46-.07c1.95-.08 3.9-.11 5.85-.09s3.9.1 5.83.23l1.46.1 1.45.13c.48.04.97.1 1.45.15.24.02.48.05.72.08s.48.05.72.09c1.92.23 3.83.52 5.73.85-1.53.86-3.34 1.54-5.45 1.55-5.06-.34-9.98-.46-14.78-.29l-.12-1.47-1.27.19c-.21.02-.43.05-.64.09-.21.02-.42.05-.63.08l-1.26.17c-.21.03-.43.05-.64.08l-.65.08-1.3.14-1.3.14-1.3.12c-.43.04-.86.07-1.29.1l-10.3.75c-3.42.25-6.84.58-10.24 1.11-3.41.53-6.8 1.27-10.17 2.37.53.1.3.45.24.7-.03.01-.07.02-.1.03.03-.01.07-.02.1-.03-.05.23.04.38.89.22-.85.16-.94.01-.89-.22 6.75-1.43 13.39-2.46 20.08-3.2a253.7 253.7 0 0 1 10.09-.91l5.12-.32c.43-.03.86-.05 1.29-.07.22-.02.42-.02.63-.03l.62-.03a13.26 13.26 0 0 0 .62-.02c.2-.01.41-.02.62-.02l1.25-.03-1.94.1-.96.06-.6.04-.38.02-2.01.16-2.01.17-7.98.82c-2.64.3-5.28.65-7.91 1.02l-7.86 1.22-7.82 1.43-1.95.39-1.95.39-1.96.42-1.97.42-16.37 3.5-3.9.72-1.54-.12c-.52-.03-1.03-.05-1.54-.06-.51-.02-1.02-.03-1.52-.03l-.41.01-1.23.02-6.58.13c.17-.3.2-.64.16-1-.02-.18-.06-.37-.1-.55l-.06-.29c-.01-.04-.02-.09-.04-.14l-.01-.07c0-.02.01-.05.01-.07-.04-.3-.08-.6-.09-.88-.02-.28-.02-.55.04-.79v-.02-.02c0-.01.01-.02.02-.04s.02-.04.03-.07c.03-.05.06-.1.1-.15.07-.09.16-.18.27-.26.21-.16.5-.3.89-.41.77-.22 1.92-.31 3.65-.33a65.62 65.62 0 0 0-.18-1.47c-1-.13-1.92-.35-2.75-.63-.41-.15-.8-.31-1.16-.47a24.83 24.83 0 0 1-.52-.27 2.98 2.98 0 0 1-.24-.14c-.04-.02-.08-.04-.12-.07-.02-.01-.04-.02-.05-.03l-.03-.02-.02-.01c-.01 0-.02 0-.02-.01-.06-.03-.12-.05-.17-.09-.03-.01-.06-.03-.09-.04l-.08-.04a3.16 3.16 0 0 1-.27-.18c-.08-.07-.15-.13-.22-.2-.06-.06-.13-.13-.19-.2-.23-.27-.41-.56-.53-.88a3.13 3.13 0 0 1-.18-.95c-.01-.02 0-.04-.01-.05 0-.02-.01-.04-.01-.06-.01-.03-.01-.07-.02-.11-.02-.07-.02-.14-.03-.2-.01-.14-.01-.28 0-.41.02-.26.09-.51.22-.74.02-.03.03-.06.05-.09.01-.02.02-.03.03-.05 0 0 .01-.01.01-.02l.01-.01v-.01c.02-.05.04-.11.06-.16l.12-.31.28-.62c.02-.05.04-.1.06-.16.03-.05.03-.1.07-.14.03-.05.08-.1.18-.15.01-.01.03-.01.04-.02s.02-.01.05-.02c.05-.01.09-.03.14-.04.1-.03.21-.05.31-.08h.05l.03-.02c.01-.01.03-.02.04-.02.03-.02.06-.03.09-.04.06-.03.12-.05.18-.08.12-.05.25-.1.38-.15a12.78 12.78 0 0 1 .87-.28c.89-.23 1.82-.44 2.77-.66l1.45-.32.42-.09.42-.09.85-.17 7.25-1.32c5.04-.9 10.43-1.9 15.59-3.35l5.72-1.4 2.88-.63 1.44-.3 1.45-.27c3.86-.71 7.76-1.23 11.68-1.41 2.71-.11 5.46-.28 8.22-.48l8.36-.59 4.18-.24 1.04-.06.54-.02c.18 0 .36-.01.54-.01.37-.02.73-.03 1.08-.04l1.08-.02c2.87-.03 5.68.08 8.42.36.99.06 2.16.03 3.39-.03l1.87-.1 1.87-.1c2.44-.11 4.64-.1 5.61.46 1.39.55 1.45 1.34 1.24 2.21l-9.54-.14a277.55 277.55 0 0 0-9.56.17l-5.89.14-5.78.22-11.59.45c3.81.02 7.64-.08 11.5-.25l2.9-.13 1.45-.08 1.45-.08 5.96-.27a230.4 230.4 0 0 1 9.5.15c3.15.12 6.29.3 9.4.52-.22.76-.44 1.54-.05 2.27l2.88.03c3.85 1.89 2.88 4.47.97 6.29-.47.37-1.01.79-1.62 1.2zm-35.15-73.39l-1.19-.16c-3.62-.35-7.22-.33-10.91-.25l-5.6.11c-1.89.02-3.82.03-5.81-.03-5.59-.38-11.92.43-17.51.75 6.65-.04 13.41-.42 20.09-.5l4.99.01 4.99.15c3.32.16 6.6.44 9.82.89-1.22.94-2.7 1.73-4.49 1.83l-6.44-.08-3.19.02-1.57.02-1.56.02-.1-1.46c-5.86.9-11.64.85-17.46.85-2.9 0-5.82.01-8.75.17-.73.03-1.47.08-2.21.14l-1.11.09c-.18.02-.37.03-.55.05l-.55.06a51.23 51.23 0 0 0-4.36.69c.43.18.2.49.13.73-.03 0-.06.01-.09 0h.09c-.07.21-.01.37.73.33-.74.04-.8-.12-.73-.33l4.31-.3c.36-.03.73-.05 1.09-.07l1.1-.06 2.18-.12 8.61-.41c5.71-.23 11.39-.37 17.2-.36-9.02.2-17.95.89-27.07 1.44l-.86.05-.85.04-1.7.1-1.67.1-1.67.1-6.77.44-6.92.4-7.1.27-1.64.03-1.64.03c-.84-.28-1.66-.49-2.49-.69l-1.24-.25c-.42-.08-.84-.15-1.26-.21-.84-.13-1.66-.23-2.48-.3-.41-.04-.82-.07-1.23-.1l-.6-.03-.31-.01-.3-.02c.01-.03.03-.05.04-.08a1.26 1.26 0 0 0 .03-.1c.02-.05.03-.12.04-.18a1.75 1.75 0 0 0 .04-.4c.01-.27-.02-.57-.06-.86l-.03-.23-.03-.22a7 7 0 0 1-.07-.45c-.04-.29-.04-.57-.01-.84a2.34 2.34 0 0 1 .09-.38c.03-.06.05-.12.08-.17.03-.06.06-.11.1-.16.14-.21.35-.38.66-.51.62-.25 1.62-.3 3.23-.09l.01-1.48c-1.6-.49-2.93-1.2-3.93-2l-.7-.62c-.12-.11-.25-.21-.37-.31-.06-.05-.12-.1-.18-.16l-.18-.15c-.45-.4-.84-.78-1.1-1.17-.2-.41-.31-.82-.3-1.24 0-.1.01-.2.03-.3 0-.06.01-.1.02-.16.01-.02.01-.05.02-.07a.3.3 0 0 1 .04-.08 2.56 2.56 0 0 1 .5-.63c.23-.2.51-.39.86-.56.05-.02.09-.04.14-.06l.15-.06.28-.12c.09-.03.18-.07.28-.1l.12-.06c.05-.01.08-.03.12-.04.16-.07.3-.13.39-.2.15-.06.31-.12.47-.17.33-.11.69-.2 1.07-.29.87-.15 1.77-.27 2.68-.36l1.38-.11c.47-.04.95-.06 1.44-.08 1.96-.09 4.01-.09 6.14-.1 4.25-.03 8.76-.06 13.09-.65 3.16-.35 6.35-.7 9.57-.89l.6-.04.59-.03 1.17-.05 2.34-.05a46.47 46.47 0 0 1 2.36.01 46.97 46.97 0 0 1 2.36.09c4.36.29 8.92.17 13.51.1l6.89-.02 1.71.06 1.71.08c.57.03 1.12.08 1.68.12l1.66.16c3.19.19 8.65-1.23 10.32-.22 1.18.47 1.28 1.25 1.17 2.13l-7.81.29-3.88.15-1.94.06-1.94.06c-6.38-.05-12.73-.05-19.07-.38 3.11.31 6.26.45 9.44.49s6.39-.02 9.63-.11l7.74.06 7.73.09c-.13.77-.25 1.56.12 2.27l2.38-.14c3.31 1.66 2.73 4.28 1.28 6.21a16.7 16.7 0 0 1-1.25 1.33z"/><path d="M1467.77 130.87l.87-.22.87-.21 1.75-.38c2.36-.51 4.74-.86 7.11-1.08l3.56-.22.89-.02.89-.01h.88.44.22l.22.01 1.76.05.22.01.65.04.87.05.44.02.44.03.87.08.87.08.43.04.43.04 1.73.2 1.72.23.43.06.42.06.86.14.85.13.43.07.42.08 6.74 1.37.83.19.42.1.42.1 1.66.41 1.66.42.42.1.41.11.83.22.82.22.83.23 1.65.45 1.65.46.44.12.62.17 1.29.38 2.58.75 2.59.75c.83.28 1.63.59 2.35.93.73.33 1.38.69 1.99 1.07.66.42 1.27.87 1.81 1.39.06.07.13.13.2.2l.19.2c.13.15.26.28.37.44.06.08.13.15.18.23l.17.23a4.54 4.54 0 0 1 .3.53c.1.18.18.38.25.59l.09.3.04.16.03.15c.08.42.1.83.09 1.24-.02.81-.17 1.58-.4 2.35a15 15 0 0 1-.64 1.67l-.42.83-.49.85-.12.21-.06.1-.03.06-.04.05-.28.41-.28.42-.14.21-.15.21-.63.81-.16.21-.08.1-.08.1-.34.4-.34.41-.34.4-.72.78-.19.2c-.06.07-.13.13-.18.19l-.38.39-.38.38-.2.19-.2.18-.8.75c-.06.06-.13.12-.2.18l-.21.18-.41.36-.41.36-.21.18-.2.16-.61.5-5.02 3.71-1.26.87-.67.46-.34.22-.35.23-2.82 1.69-2.92 1.5-3.02 1.3-3.1 1.1-3.16.88c-2.14.51-4.31.87-6.49 1.04l-.41.04-.41.02-.41.02-.41.02-.82.02h-.82l-3.27-.18c2.6.31 5.2.32 7.76.09s5.06-.71 7.5-1.37c2.44-.67 4.82-1.54 7.12-2.57a50.09 50.09 0 0 0 6.62-3.63l.39-.27.39-.25.72-.49 1.46-1.01.36-.26.73-.52.36-.27.73-.53.73-.56.18-.13.19-.14.72-.57.36-.29.37-.31.12-.09.12-.11.25-.22 1-.87.96-.9c.07-.08.16-.15.24-.23l.68-.7.46-.47.86-.97.21-.24.2-.25.41-.49.2-.25.1-.12c.04-.04.07-.09.1-.12l.74-1.01.1-.13a.31.31 0 0 1 .04-.06l.04-.07.17-.26.34-.51.16-.26c.06-.09.12-.17.16-.26l.28-.52.54-1.04.43-1.03a10.65 10.65 0 0 0 .57-2.07c.12-.7.17-1.41.09-2.16a5.55 5.55 0 0 0-.24-1.13l-.11-.27c-.04-.09-.07-.18-.12-.26l-.13-.26c-.04-.08-.09-.16-.13-.23l-.08-.12c-.02-.04-.05-.07-.07-.11l-.16-.21-.33-.4a8.39 8.39 0 0 0-.71-.75l-.2-.17c-.06-.06-.13-.11-.19-.17l-.4-.32-.88-.6-.45-.28-.48-.26-.24-.14-.25-.12-.26-.13-.26-.13a23.44 23.44 0 0 0-2.3-.92l-.63-.21-.63-.19-1.29-.36-2.57-.75-1.29-.38-.63-.18-.52-.15-1.63-.47-1.63-.47-1.63-.46-6.63-1.76-.83-.21-.42-.1-.43-.1-1.68-.4-1.7-.37-.42-.09-.43-.09-.86-.18-6.95-1.16-.44-.06-.22-.02-.22-.03-.88-.09-1.77-.18-1.79-.14-1.8-.09-.44-.03h-.45l-.91-.02c-.3 0-.6-.01-.9-.02l-.91.01-3.65.15-3.64.37-.91.13-.91.14-.22.03-1.14.2-.44.09 1.41-.68.74-.32.38-.16.39-.15c1.05-.4 2.16-.76 3.34-1.07l.45-.12.45-.1.92-.2.94-.18.24-.04.24-.03.48-.07.49-.07.49-.05.5-.06.5-.03 2.06-.1c3.34.04 6.61.31 9.78.73l9.26 1.65 8.78 2.15 2.12.58 2.11.58 2.44.68 3.93 1.12-.75 1.3 2.44.6 2.34.72.28.1.14.05.13.06.53.21.06.03.06.03.38.17.49.24.47.24.44.25.42.25.41.27.39.27.19.15.19.14.18.14.17.15.34.31c.06.05.11.11.17.16l.16.16.31.34.57.72.13.19.13.19.12.2.12.2a6.6 6.6 0 0 1 .43.93c.12.32.21.66.29.98a8.79 8.79 0 0 1 .15.99 9.08 9.08 0 0 1-.01 1.88l-.13.93-.21.93a13.07 13.07 0 0 1-.66 1.87l-.46.96-.17.35c-.03.04-.04.08-.07.12l-.28.48-.58.95-.65.93-.33.47-.35.46-.72.92-.77.9-.39.45-.1.11-.31.32-.83.87c-.07.08-.14.14-.22.21l-.22.22-.44.42-1.8 1.63-.23.2-.05.05-.16.12-.76.63-.15.12-1.2.93-.6.45-.6.44-.6.43-.6.43-.59.42-.3.2-.3.2-.59.41-.58.39-.3.19-.33.22-.66.43-2.72 1.6-.69.38-.7.36-1.41.69-2.88 1.25-.36.15-.37.14-.74.27-.74.26-.75.25-3.04.89-3.11.69-3.18.48-3.24.25h-3.29l-1.66-.1-.83-.08-.43-.05-.43-.05c-2.28-.3-4.53-.84-6.66-1.58-2.14-.73-4.16-1.64-6.07-2.65-1.9-1.01-3.69-2.12-5.4-3.26l-4.9-3.48-1.18-.87-.58-.43-.6-.46-2.38-1.84-2.38-1.92-2.36-2.02c.38.51.39.69.25.73-.13.05-.41-.03-.58-.04-.16-.01-.24.04-.09.28.08.13.22.3.44.53l.4.41.53.5-.53-.5-.4-.41c-.22-.23-.36-.4-.44-.53-.16-.24-.07-.29.09-.28l4.62 4.11 2.35 1.91.59.46 1.15.89.58.45 4.91 3.58c1.73 1.17 3.56 2.3 5.52 3.33 1.95 1.04 4.05 1.96 6.26 2.69a34.05 34.05 0 0 0 3.4.95 34.29 34.29 0 0 0 3.51.6l.45.05.11.02.11.01.21.02.85.07.86.05.85.03.42.01.43.01.84-.01.85-.02.83-.03 3.31-.31 3.23-.54c2.13-.43 4.21-1 6.23-1.69l2.99-1.13 1.46-.63 1.45-.68 2.82-1.47 2.74-1.65.67-.44.32-.21.29-.2.59-.4.58-.4.3-.21.3-.21.6-.42.6-.43.3-.21.9-.67.61-.45 1.21-.94c.11-.08.2-.16.31-.25l.3-.24.33-.27.11-.09.12-.1.24-.21.96-.84.24-.21.23-.22 1.16-1.09c.03-.04.07-.08.11-.11l.11-.11.87-.91.33-.35c.04-.04.07-.08.11-.11l.4-.47.61-.71.1-.12.05-.05.05-.06.75-.97.38-.48.34-.49.69-.98.59-.99.3-.49.25-.5.48-1.01a12.06 12.06 0 0 0 .67-1.97l.21-.97.13-.97a11.79 11.79 0 0 0-.01-1.97l-.03-.25-.04-.26c-.02-.17-.06-.34-.09-.51l-.29-1.05a8.56 8.56 0 0 0-.41-.97l-.11-.23-.12-.21-.12-.21-.12-.21c-.08-.14-.18-.26-.27-.39-.04-.07-.08-.13-.13-.2l-.14-.19-.29-.37-.16-.17a1.3 1.3 0 0 0-.15-.18l-.33-.34-.17-.17a1.45 1.45 0 0 0-.18-.17l-.18-.16-.18-.17c-.12-.11-.26-.21-.38-.31l-1.29-.9-.36-.21-.37-.22-.39-.2c-.14-.07-.26-.15-.41-.21-1.1-.53-2.38-1-3.73-1.37a21.74 21.74 0 0 1 3.73 1.35l.41.2.39.2.38.21.37.22 1.31.9a11.26 11.26 0 0 1 2.14 2.17c.3.41.57.83.81 1.29a7.23 7.23 0 0 1 .35.74c.12.26.21.53.3.81l.21.83.04.21c.02.07.03.13.04.2l.03.2.02.2.04.4.02.2c0 .07.01.13.01.2v.39c.01.13 0 .26 0 .39-.03 1.04-.21 2.06-.53 3.11l-.27.79-.16.4c-.02.07-.06.14-.09.2l-.09.2-.38.8-.19.41-.24.4-.47.8-.12.2-.06.1-.07.1-.82 1.19-.14.19c-.04.07-.1.13-.14.2l-.3.39-.6.78-.15.19-1.22 1.43c-.02.04-.06.06-.08.09l-.18.19-1.05 1.11-.74.71-.74.72-.77.69-.77.68-.18.16-.15.12-.24.2-.49.4-.48.39-.48.38-.49.37-.96.73-3.8 2.72-.12.08-.13.08-.27.19-.54.36-.81.53-.27.17-.56.34-.55.33-1.12.64-4.62 2.3-4.85 1.83c-1.65.54-3.34.99-5.07 1.35s-3.5.62-5.29.79a45.45 45.45 0 0 1-5.49.13l-1.04-.06-1.05-.09-.72-.08-.36-.04-.37-.05-.72-.11-1.42-.26-.36-.08-.35-.07-.71-.17-.7-.18-.34-.09-.35-.1-.68-.21-.68-.22-.67-.23-.33-.12c-.12-.03-.23-.07-.33-.12l-.66-.25-.65-.26-.32-.14c-.11-.04-.21-.09-.32-.14l-.63-.28-2.44-1.2-4.49-2.65c-2.83-1.86-5.37-3.82-7.77-5.7l-7.35-6.35-3.5-3.58-.42-.46-.42-.48-.84-.96-1.63-2-1.56-2.1-.57-.82-.55-.83-.36-.56a44.81 44.81 0 0 1-2.64-4.72l-.3-.62-.21-.47-.07-.16-.29-.68-.29-.69-.98-2.93a24.75 24.75 0 0 1-.67-3.24c-.16-1.12-.24-2.31-.2-3.53l.05-.92.03-.46.06-.47.06-.46.07-.47.08-.47.03-.11.01-.06.01-.05.04-.19a31.53 31.53 0 0 1 .79-2.94c.62-1.89 1.38-3.62 2.19-5.24l.31-.6.16-.3.08-.15.09-.17.38-.67.41-.68a28.52 28.52 0 0 1 1.84-2.6c.68-.83 1.4-1.63 2.18-2.38l.29-.28.14-.14.15-.13.6-.54.62-.51.63-.49c.84-.65 1.72-1.24 2.61-1.77l.67-.39.16-.09.43-.23 1.12-.61 4.54-2.21.43-.19a2.29 2.29 0 0 0 .23-.1c.02-.01.04-.02.06-.02l.06-.03.14-.06.58-.25.31-.13.32-.12 1.35-.5.7-.25.71-.23c.12-.03.24-.07.36-.11s.24-.07.36-.1l.71-.21.69-.18.68-.17.64-.15.61-.14 1.07-.21 3.88-.18 3.78.04.23.01.23.01.93.04.48.03 1.93.15 3.82.5.95.17.94.18.23.04 1.17.26 1.17.29.23.06.93.24.92.27.23.07.23.07.91.29 1.14.39.22.09.91.32.89.35.22.09.23.1.88.37.41.18.85.38.9.42c-.4.06-.62.24-.74.49-.12.24-.14.55-.14.87l-.01.98c-.02.31-.1.59-.28.79-.19.19-.49.31-.95.33-.23.01-.5-.01-.82-.06l-.51-.08-.28-.07-.3-.07-3.4-.99-.55-.17-.59-.16-.62-.18-.66-.18-.69-.19c-.12-.02-.24-.06-.36-.09l-.37-.09-.77-.19-.4-.09-.41-.09-.24 1.44.39.11.39.12.76.25.74.27.35.14.36.14.35.15.33.15.66.31.32.15.32.16.6.33.59.33.28.17.27.17.27.17.27.17.5.35c.08.05.16.11.24.17l.24.17.46.35.82.69c.51.46.93.91 1.26 1.34l.42.63.39.66.8 1.3.21.31.18.28c.06.09.11.18.15.26.06.09.1.17.14.25.17.56.11.99-.21 1.28-.08.07-.18.14-.29.19l-.19.07-.1.03c-.05 0-.09 0-.15.01a3.96 3.96 0 0 1-.72-.07c-.28-.05-.58-.13-.89-.22l-1.7-.56-.04-.02-.05-.01c-.02-.01-.06-.01-.08-.02-.04-.01-.08-.01-.12-.01l-.13-.02c-.04 0-.08-.01-.13-.01l-.6-.1-1.76-.42-.28-.07-.31-.09-.56-.14-.58-.14-.61-.16a39.63 39.63 0 0 0-5.85-1.03l-3.1-.17c-.25-.01-.52 0-.78 0l-.79.02-.83.03-.22.01-.22.01-.42.03-3.36.35-3.22.66a25.33 25.33 0 0 0-3.06.98l-.37.15-.18.08-.1.04-.1.04-.89.39-1.76.82-1.73.87-.86.45-.1.06-.07.05-.3.16-.36.22-.35.22-.26.18a.64.64 0 0 0-.13.1l-.13.09-.95.81c-.58.57-1.09 1.19-1.55 1.93l-.17.27-.08.15-.04.07-.03.04-.02.04-.41.78-.7 1.5a13.9 13.9 0 0 0-.52 1.43l-.06.17-.05.16c-.04.12-.06.22-.09.34l-.08.33-.04.16-.02.08c0 .03-.01.06-.01.07-.04.2-.05.42-.05.68 0 .27.03.56.08.9.11.68.38 1.5.76 2.4l.15.33.08.17.04.09c.02.03.03.06.05.09l.39.75c.25.5.55 1 .84 1.49 1.73 2.87 4.02 5.64 6.66 8.27 1.32 1.32 2.73 2.6 4.21 3.86.73.63 1.49 1.25 2.26 1.87l.57.46.59.46 1.22.95c1.62 1.26 3.17 2.43 4.7 3.47 1.52 1.04 3 1.96 4.43 2.7 1.45.75 2.84 1.33 4.22 1.75a23.02 23.02 0 0 0 2.07.5c.18.02.35.06.53.09.19.02.38.05.56.07l.58.07c.19.02.39.03.58.05 1.54.13 3.17.09 4.82-.1 1.66-.19 3.35-.55 5.03-1.03 1.67-.5 3.35-1.13 4.96-1.9.81-.38 1.6-.79 2.38-1.24.2-.1.38-.22.58-.33.1-.06.19-.12.29-.18l.56-.35.57-.37.97-.65.64-.44 1.24-.87c.21-.14.41-.29.61-.43l.6-.43.58-.44c.1-.07.19-.14.28-.21l.57-.44.54-.44.04-.03.01-.01.01-.01.03-.01c.06-.05.14-.09.2-.15a6.05 6.05 0 0 0 .42-.33c.14-.12.28-.25.41-.39.13-.15.27-.3.38-.48.05-.09.1-.19.12-.29.01-.05 0-.1-.01-.15a.31.31 0 0 0-.06-.13c-.13-.14-.28-.23-.45-.32l-.42-.18-.46-.22-.25-.12-.13-.06-.06-.03c-.02 0-.04-.02-.08-.03-.03-.01-.06-.02-.1-.04l-.29-.09-.61-.19-1.23-.37-9.56-2.84a60.81 60.81 0 0 0-6.88-1.31 71.57 71.57 0 0 0-7.51-.59l-.9-.02c-.15 0-.3 0-.45-.01h-.22-.22l-1.7.02-1.61.05c-.13 0-.26 0-.38.01-.12 0-.25.01-.37.02-.25 0-.49.02-.73.03l-.68.03c-.22.02-.45.02-.66.04l-1.18.05c-.19 0-.36.01-.53.01s-.33 0-.49.01c-.15 0-.3-.01-.44-.02s-.27-.01-.39-.03c-.17 0-.34-.01-.49-.01l-.43-.03-.38-.03a2.88 2.88 0 0 1-.33-.05 2.4 2.4 0 0 1-.53-.14c-.15-.05-.27-.11-.38-.18-.4-.29-.44-.7-.33-1.17l.29-.07.89-.18.6-.12c.1-.02.19-.04.29-.05l.3-.06c.2-.03.4-.06.6-.1l.6-.09c.2-.03.4-.05.61-.08.2-.03.4-.05.6-.08l1.21-.12.61-.06.61-.04c.2-.02.4-.03.61-.04l.61-.03 1.23-.03c3.28-.08 6.61.17 9.94.6l.62.07.63.1 1.25.18 1.25.21 1.25.23 1.25.24.31.06.31.06.63.14c.42.08.83.17 1.25.26l1.25.28.62.15.63.14 1.25.3 1.26.31 1.25.32 2.5.66 1.26.33 1.25.35.55.15.27.08.14.04c.02.01.03.01.04.01l.05.01.16.05.43.14 1.15.38a23.86 23.86 0 0 0 1.11.36l1.09.35c.4.15.8.31 1.15.56.17.12.35.25.44.44.11.2.12.43.08.64a1.95 1.95 0 0 1-.21.63c-.09.2-.21.39-.33.58a10.16 10.16 0 0 1-.38.53c-.07.09-.14.17-.21.26l-.21.25c-.55.66-1.16 1.24-1.78 1.77-.16.14-.32.26-.47.38-.16.13-.32.25-.48.37l-.08.06-.11.09-.46.36-.25.18-.47.36c-.16.12-.33.23-.49.35a78.23 78.23 0 0 1-2 1.4l-2.1 1.38-.46.3-.07.04-.48.3c-.16.1-.33.19-.49.29l-.24.15-.25.15-.51.28-.5.27-.51.27-.26.12-.25.13c-2.75 1.36-5.66 2.39-8.6 3.02 2.9-.56 5.8-1.53 8.55-2.85.69-.33 1.37-.68 2.04-1.05.16-.09.33-.18.49-.28l.5-.29a12.56 12.56 0 0 0 .49-.29l.12-.08c.04-.02.08-.05.12-.08l.27-.17c1.42-.91 2.81-1.82 4.11-2.76l.5-.36.48-.35.48-.37.46-.36.15-.11.12-.1.25-.19c.17-.14.33-.26.49-.4a10.04 10.04 0 0 0 .49-.43c.08-.07.16-.14.24-.22l.23-.23.12-.11.35-.36c.07-.08.15-.16.22-.25.07-.08.15-.16.22-.25.29-.35.57-.7.82-1.08.12-.2.24-.39.34-.6.09-.21.18-.42.21-.65.02-.12.03-.23.02-.35-.01-.11-.05-.22-.09-.32-.05-.11-.13-.19-.21-.27-.04-.03-.08-.07-.13-.11-.04-.03-.09-.06-.13-.09-.37-.26-.8-.43-1.23-.57-.37-.12-.75-.22-1.12-.33l-1.15-.35-1.17-.36-.29-.09-.32-.09-.09-.02-.4-.11-.56-.15-1.24-.36-1.25-.35-2.49-.7-1.24-.33-1.24-.33-1.85-.48-.62-.14-1.24-.3-.62-.15-1.24-.27-.62-.14-1.24-.25c-.21-.05-.42-.09-.62-.13l-1.86-.36-1.24-.2c-.41-.07-.82-.15-1.24-.2l-1.23-.18-.31-.04-.31-.04-1.24-.15c-.2-.02-.41-.05-.61-.06l-1.24-.11-.62-.06-1.85-.11-1.23-.03a25.24 25.24 0 0 0-1.23-.03l-1.54.01-.3.01-.61.02c-.81.04-1.63.09-2.43.16a45.65 45.65 0 0 0-4.81.69c.14-.41.28-.83.27-1.22s-.18-.73-.67-1c0 0-.07.01-.18.04-.12.02-.29.07-.5.12-.41.1-.98.25-1.61.42-.16.05-.32.09-.49.14l-.5.15-.5.15c-.08.03-.16.06-.25.08-.08.03-.16.05-.24.08a39.92 39.92 0 0 0-1.76.63c-.14.01-.27.03-.39.05-.13.02-.26.04-.38.05-.23.03-.47.07-.69.11l-1.27.21-1.07.19c-.34.06-.64.12-.94.2-.15.05-.3.1-.45.18s-.3.18-.44.38c-.02.02-.04.05-.06.07-.01.03-.03.06-.05.09s-.03.05-.04.09c-.02.03-.03.07-.04.1-.01.02-.01.04-.02.06 0 .02-.01.04-.01.06-.01.04-.02.07-.03.11-.01.08-.01.17-.01.26.01.08.02.16.04.24.01.08.03.16.05.23.05.13.1.26.15.36.02.02.03.05.04.08.02.02.03.05.04.06a.54.54 0 0 0 .07.13l.03.06c.01.02.02.03.03.05.02.03.03.07.05.1.04.07.06.11.09.17.02.05.05.1.06.15.06.18.08.33.02.46-.05.12-.17.22-.38.27-.02.01-.05.01-.09.02h-.09-.11c-.02-.01-.04 0-.06-.01h-.03c-.01 0-.02 0-.03-.01-.09-.02-.19-.04-.3-.07-.02-.01-.05-.02-.08-.04-.04-.01-.06-.03-.1-.04a3.66 3.66 0 0 1-.19-.1c-.02-.01-.03-.02-.06-.04-.01-.01-.03-.02-.05-.04-.04-.02-.08-.05-.12-.08s-.07-.06-.11-.09c-.02-.02-.04-.03-.06-.05l-.06-.06c-.09-.08-.17-.18-.25-.27-.02-.02-.05-.05-.06-.08a.55.55 0 0 1-.07-.09c-.04-.06-.08-.13-.12-.19-.08-.12-.16-.27-.22-.42a2.84 2.84 0 0 1-.17-.49c-.02-.09-.04-.18-.07-.26-.01-.09-.03-.17-.04-.25-.01-.09-.01-.17-.02-.26s0-.16 0-.24c0-.09 0-.17.01-.25v-.11c.01-.04.01-.08.01-.11l.03-.22c.01-.03.02-.07.02-.1.01-.03.02-.06.02-.09.01-.07.03-.13.05-.19 0-.03.01-.06.02-.09s.01-.05.02-.08c.02-.05.03-.11.05-.16s.03-.1.05-.16a.58.58 0 0 0 .05-.14 1.63 1.63 0 0 0 .06-.13c.03-.08.06-.16.1-.24.03-.08.06-.15.1-.22.02-.03.03-.06.05-.1.02-.03.03-.07.05-.1a9.23 9.23 0 0 1 .37-.66c.11-.19.23-.36.33-.53.11-.17.22-.32.33-.48a11.94 11.94 0 0 1 .32-.43 14.93 14.93 0 0 1 1.37-1.58c.26-.24.52-.47.81-.71.07-.06.14-.11.22-.17l.06-.05.07-.05a1.43 1.43 0 0 1 .15-.11l.08-.05c.02-.02.05-.04.07-.05l.12-.09.22-.16c.28-.22.57-.44.88-.66.29-.29.6-.52.94-.74z"/><path d="M1546.7 144.67l-.16-1.29-.92-5.69-1.03-5.45-.28-1.34-.29-1.34-.29-1.36-.31-1.36-.31-1.39-.31-1.4-.3-1.42-.29-1.44-.19-1.03-.21-1.04-.51-2.1-.3-1.06-.32-1.06-.69-2.1-3.07-8.13.39 1.16.19.59.19.59.39 1.17.38 1.18.19.59.18.59.38 1.19.37 1.19.36 1.19.36 1.19.35 1.2.67 2.4 1.21 4.83.54 2.42.24 1.21.24 1.22.41 2.42.18 1.2.17 1.23.59 5.01.55 5.2c-1.23-1.13-2.35-2.61-2.81-4.45l-.56-3.31-.55-3.15-.59-3.02-.16-.75-.16-.76-.17-.75-.09-.37-.08-.38 1.4-.36-2.66-8.25-2.29-8.2-2.76-8.09c-1.09-2.66-2.4-5.29-4.02-7.84-.01.46-.38.35-.64.35l3.52 7.88 2.93 7.83 2.43 7.99 1.98 8.24-1.68-6.41-1.97-6.3-2.24-6.18-.6-1.53-.61-1.53-1.28-3.05-2.71-6.12-2.87-6.21-2.93-6.34-2.91-6.55-.29-.68-.36-.84-.64-1.51-.25-2.31a14.22 14.22 0 0 0-.44-1.96l-.3-.84-.09-.19-.04-.1-.02-.04-.01-.03-.13-.27c-.19-.38-.51-.81-.94-1.3.44-.17.85-.57 1.24-1.01s.77-.91 1.19-1.22.89-.44 1.46-.18c.29.13.59.36.9.72.15.17.3.39.44.63.02.03.03.06.05.09s.03.06.05.1c.04.07.08.15.11.22.08.15.15.32.22.49l1.27-.7-.13-.59-.13-.58-.25-1.12-.36-2.08c-.08-.65-.09-1.25-.02-1.78.03-.27.08-.52.15-.75s.16-.44.27-.64c.2-.39.47-.71.81-.94.17-.11.35-.2.55-.26.2-.07.41-.11.64-.12.46-.03.98.06 1.61.34a5.81 5.81 0 0 1 1.03.58c.37.25.77.57 1.21.98.47.47.95 1.01 1.43 1.62l.32.42.29.4.27.39.27.4c.7 1.08 1.3 2.18 1.82 3.24l1.35 3.04.61 1.46.62 1.49c1.65 4.03 3.38 8.29 5.54 12.21 1.5 2.89 3.01 5.82 4.36 8.84l.97 2.29c.16.38.31.77.46 1.16a23.54 23.54 0 0 1 .45 1.17l.42 1.19.2.59.19.6.37 1.21a43.41 43.41 0 0 1 .34 1.22c.57 2.24 1.21 4.51 1.86 6.8l1.91 6.91c.61 2.31 1.17 4.64 1.63 6.97l.32 1.74.28 1.74.22 1.72c.04.29.07.58.1.87l.08.87a14.91 14.91 0 0 0 .25 1.31c.05.23.11.47.17.71l.19.73.85 2.92c.55 1.89.99 3.52.67 4.38-.21 1.17-.95 1.43-1.83 1.49-.65-2.43-1.21-4.95-1.77-7.51l-.86-3.89c-.08-.32-.15-.65-.22-.98l-.23-.97-.23-.97-.23-.97-1.01-4.79-1.08-4.79-1.13-4.79-1.17-4.81 1 4.78 1.09 4.78 1.15 4.8 1.15 4.82.2.98.38 1.94.18.98.69 3.89 1.38 7.53c-.77.02-1.57.05-2.18.53a3.76 3.76 0 0 0 .07.25l.19.61.44 1.43a6.87 6.87 0 0 1-.35 1.18c-.15.34-.31.63-.5.89-.38.5-.84.83-1.35 1.01-.52.18-1.08.21-1.67.13-.29-.05-.59-.11-.89-.21-.15-.04-.3-.1-.44-.16-.15-.06-.29-.12-.43-.19l-.79-.5c-.28-.17-.55-.36-.84-.57zm.79 30.77l.19-.22c.06-.08.1-.16.15-.25l.11-.25c.03-.08.06-.17.08-.26s.05-.17.06-.26l.04-.53v-.27l-.02-.28-.1-1.19-.02-.65c0-.12.01-.23.02-.35a2.28 2.28 0 0 1 .03-.36c.19-.71.09-1.42-.08-2.15l-.07-.27-.07-.25-.14-.48-.26-.94.04 1.14.04.58c0 .04.01.1.01.15l.02.16.03.31.23 2.42c.04.77.01 1.52-.17 2.22s-.51 1.37-1.05 1.94l-.32-.02-.31-.03-.52-.08-.2-.05-.16-.06c-.09-.06-.15-.11-.16-.18l.01-.07.02-.07.03-.14.05-.29.04-.3c0-.11.01-.21.02-.32v-.15-.16c.01-.11 0-.22 0-.33l-.04-.68 1.41-.35c-.44-.56-.65-1.22-.74-1.95l-.05-.55-.02-.58v-.29-.14l.01-.13.03-.51c.03-.68.05-1.34-.09-1.96a2.98 2.98 0 0 0-1.04-1.71c-.17.13-.48.14-.71.17 0-.01 0-.01-.01-.02.01.01.01.01.01.02-.21.03-.36.07-.33.22-.03-.15.12-.19.33-.22.46 1.14.73 2.36.89 3.65l.05.49.01.12.02.13.03.29.06.56.05.56.08 2.1-.01-.17-.02-.17-.05-.35c-.01-.12-.03-.24-.05-.36l-.06-.36-.3-1.52-.16-.76-.15-.68-.32-1.31-.35-1.26-.37-1.21-.38-1.16-.37-1.1c-.01-.01-.01-.01-.02-.01v-.01l-.01-.02-.01-.02-.02-.06-.17-.43-.29-.73c.35-.62.51-1.25.55-1.93l.01-.26v-.27l-.02-.27v-.06l-.01-.19-.03-.47-.05-.47c.46.01 1.03-.09 1.61-.2l1.71-.29.72-.03.3.04c.09.01.18.04.25.07a.76.76 0 0 1 .19.12c.02.02.04.05.07.08a.35.35 0 0 1 .06.09 1.14 1.14 0 0 1 .05.23c.01.09.01.2-.01.32l1.43-.35c.09-.12.18-.24.31-.35a4.16 4.16 0 0 1 .39-.32c.14-.1.3-.19.47-.28l.26-.12.27-.12.57-.2.61-.17c.41-.1.84-.17 1.26-.23.42-.07.83-.12 1.24-.14.1-.01.2-.01.3-.01h.15.07c.02-.01.04-.01.07-.01l.55-.02.97-.03.39-.02.32-.02c.05 0 .12-.01.17-.01h.04c.01 0 .02 0 .03-.01.03-.01.05-.01.07-.03.02-.01.04-.02.05-.03l.02-.02c-.18.05.41-.1-.4.11h0l.03-.01.04-.01.1-.03.19-.04.08-.02.08-.01c.12.02.2.13.29.33l.07.18c.01.03.02.07.04.1.01.04.02.08.04.11l.07.25.09.28.1.33c.03.13.07.26.11.38l.12.44.13.48.06.28.07.27.17.54c.06.17.13.34.21.51.07.17.16.33.26.49.76 1.47 1.46 2.89 1.05 4.42a6.31 6.31 0 0 0-.27 1.56l-.04.64v.68l-.04 1.51c-.04.54-.15 1.12-.37 1.72-.08.43.23.92.44 1.43.21.49.31.99-.2 1.3-.46.4-1.23.53-2.1.63-.12-1.36-.41-2.62-.56-3.8l.11-2.18.08-.52.1-.5.06-.25.03-.13.03-.14.15-.56-.23.57-.05.14-.05.13-.08.25c-.11.34-.18.68-.22 1.03-.07.7-.02 1.42.07 2.16l-.14 3.88c-.75.07-1.53.16-2.23.34l.09.55c-.85.49-1.94.74-3.03.87-1.1.12-2.22.14-3.14.13l-1.23-.08zm-306.59 46.71l-.03-1.28v-.15-.12-.03-.04l-.02-.24-.05-.65-.14-1.31-.38-2.63-.49-2.65-.27-1.34-.14-.66c-.06-.22-.09-.43-.14-.66l-1.23-5.43-1.13-5.86-.14-1.09-.15-1.15-.32-2.32-.62-4.62-.61-4.45-.31-2.13-.16-1.03-.14-1.04.22 2.44.21 2.46.49 5.09.75 5.31.25 1.35.03.17.03.16.19.96.53 2.55 1.84 9.8.59 4.85.17 2.38.05 1.17.01 1.08-.11-.08c-.02-.02-.05-.04-.08-.06-.04-.02-.06-.05-.1-.07l-.02-.02-.02-.03-.06-.05-.39-.42-.71-.94c-.44-.65-.79-1.4-1-2.24l-.52-3.11-.29-1.57-.14-.76-.14-.75-1.33-6.14 1.4-.35-1.39-4.38-.29-1.12-.07-.28-.03-.15-.03-.15-.15-.6-.05-.3-.08-.31-.1-.6-.2-1.19c-.5-3.17-.66-6.2-.83-9.07l-.06-1.06-.08-1.06-.04-.52-.04-.52-.09-1.06-.23-2.14-.28-2.14c-.43-2.85-1.02-5.69-1.96-8.51-.12.44-.46.24-.71.19-.01-.03-.01-.05-.01-.08a.22.22 0 0 0 .01.08c-.21-.05-.36.02-.25.74-.11-.72.04-.79.25-.74l1.47 8.42.3 2.1.28 2.1.06.52.07.52.12 1.02.06.51.16 1.56.97 8.92.37 2.39.11.6.11.61.22 1.13.89 4.45-.78-3.44-.2-.87-.19-.88-.1-.45-.2-.95c-.03-.16-.05-.32-.1-.47l-.63-3.73-.49-3.56-.83-6.67-.12-.81-.12-.83-.24-1.64-.51-3.3c-.71-4.37-1.48-8.72-2.36-13.06l-.34-1.62-.34-1.63-.72-3.24c-.07-.28-.12-.54-.19-.81-.06-.28-.13-.54-.19-.82l-.19-.81-.11-.4-.09-.41-.4-1.62-.41-1.62-.41-1.59-.39-1.58c.15-1.67.14-3.21-.04-4.62a12.8 12.8 0 0 0-.39-2.03 4.21 4.21 0 0 0-.12-.48c-.02-.08-.04-.12-.06-.19s-.04-.14-.07-.21l-.04-.12-.15-.38-.24-.62c.26.03.51-.02.77-.12.25-.09.51-.23.76-.38.51-.3 1.02-.64 1.53-.77.5-.13 1.01-.04 1.49.42.06.06.12.12.18.19a12.98 12.98 0 0 0 .17.23 2.75 2.75 0 0 1 .29.57 4.12 4.12 0 0 1 .16.37c.04.14.08.28.13.43l.13.48c.04.17.07.35.11.54l1.4-.41c-.02-.82.02-1.59.09-2.32.06-.74.15-1.44.33-2.03.17-.59.43-1.07.76-1.43.32-.36.7-.59 1.1-.75.39-.22.78-.35 1.19-.37.09 0 .2 0 .31.01.04 0 .1.01.15.02.02 0 .05.01.08.01.02 0 .05-.01.06 0 .2-.01.38-.03.57-.03.37 0 .71.02 1.09.23.19.11.4.27.62.53.22.25.47.6.77 1.09.07.13.14.26.2.4.08.12.13.24.2.37a3.14 3.14 0 0 1 .18.37c.07.13.12.26.19.38.13.25.23.5.35.76.11.26.2.51.32.78.41 1.03.75 2.08 1.07 3.12.31 1.04.56 2.08.81 3.09a64.85 64.85 0 0 1 .37 1.49l.2.8c.05.28.13.56.19.83.53 2.25.99 4.54 1.48 6.82.48 2.28.99 4.54 1.58 6.73 1.58 6.41 2.91 12.82 3.06 19.29.02.14.02.28.02.42a6.17 6.17 0 0 0 .01.43l.03.87.05 1.72.18 3.35c.14 2.19.33 4.29.62 6.28l.11.75.06.37.05.36.04.19v.04l.02.05.08.5.15.8.58 3.25c.38 2.19.74 4.43.97 6.69.06.41.15.85.26 1.31l.18.71.2.72c.27.96.6 1.97.88 2.94.58 1.95 1 3.76.64 4.67-.11.63-.38 1-.69 1.2a2.15 2.15 0 0 1-.26.14 2.17 2.17 0 0 1-.3.08c-.09.02-.19.03-.29.03-.11.01-.22.01-.34.01-.51-2.63-1.1-5.22-1.69-7.77l-.45-1.92-.48-1.93-.9-3.81-.89-4.62-.39-2.28-.08-.55-.08-.54-.1-.81-.03-.28c-.17-1.46-.26-2.95-.32-4.48-.06-1.52-.09-3.08-.1-4.68a79.9 79.9 0 0 0-.05 4.63c0 .38.02.75.03 1.13l.06 1.13c.01.18.02.37.04.56l.01.27.03.28c.01.18.02.37.04.55l.06.55c.03.37.09.73.14 1.1.02.18.05.36.08.54l.04.27c.02.09.02.18.05.28.11.76.27 1.52.42 2.29a105.82 105.82 0 0 0 1.04 4.65l.76 3.82.38 1.94.36 1.91c.48 2.55.93 5.13 1.31 7.73-.77-.03-1.57-.05-2.2.4 0 0 .02.1.06.26.03.17.08.39.13.64.09.49.21 1.05.31 1.41-.13.41-.25.78-.39 1.12-.03.09-.07.17-.09.25-.03.08-.07.16-.11.24-.05.16-.13.32-.19.46-.07.15-.14.29-.21.42a3.48 3.48 0 0 1-.23.38 2.54 2.54 0 0 1-.59.59c-.23.15-.48.26-.78.3-.28.05-.62.04-.94-.03-.35-.07-.7-.2-1.06-.37-.17-.09-.35-.19-.52-.3a11.09 11.09 0 0 1-.26-.17c-.09-.06-.17-.13-.25-.19-.07-.07-.14-.14-.23-.2a2.08 2.08 0 0 0-.21-.21c-.07-.07-.15-.14-.22-.22l-.21-.21a2.39 2.39 0 0 0-.23-.22c-.06-.08-.13-.14-.2-.22a3.82 3.82 0 0 1-.46-.43z"/><path d="M1290.88 174.66l-.56.43c-.78.7-1.47 1.47-2.1 2.27-.65.8-1.2 1.65-1.74 2.52l-.41.66-.39.66-.19.34-.19.34-.19.34-.2.34-.19.35-.2.35-.4.7-.4.7-.11.18c-.04.06-.06.12-.1.18-.08.12-.14.24-.21.36-.24.32-.43.66-.62 1.01-.11.18-.19.37-.28.55l-.26.57-.23.59c-.09.19-.15.39-.23.59l-.39 1.23-1.29 5 .98-2.79.48-1.39.25-.68.25-.68.26-.68.26-.67.13-.33.13-.33.28-.65.28-.64.13-.32.16-.31.3-.62.32-.61c1.72-3.27 4.06-6.22 7.07-8.51.16.54.28 1.07.31 1.58.01.25-.02.5-.06.73a2.33 2.33 0 0 1-.26.66c-1.49 1.8-2.75 3.67-3.8 5.59a54.56 54.56 0 0 0-1.34-.61c-.06.2-.1.39-.15.58-.05.2-.11.39-.17.58s-.13.37-.18.56c-.07.18-.12.37-.19.55-.06.19-.13.37-.19.55-.07.18-.13.36-.2.54l-.12.27-.04.13-.07.14c-.06.19-.14.37-.21.55l-1.88 4.54c-.63 1.56-1.21 3.18-1.66 4.89l-.3 1.3c-.04.22-.09.44-.12.66-.04.23-.09.45-.12.68a20.3 20.3 0 0 0-.17 1.39c-.05.47-.08.95-.1 1.44.26-.21.51.03.73.15-.01.02-.02.04-.02.05 0-.01.01-.03.02-.05.18.11.35.12.47-.33-.14.45-.29.44-.47.33l1.25-5.27c.44-1.69.89-3.3 1.39-4.86s1.05-3.06 1.66-4.49c.08-.18.15-.35.24-.53l.12-.27c.03-.09.08-.17.12-.26l.49-1.01c.09-.16.17-.33.26-.5s.17-.33.27-.5c.18-.33.38-.66.57-.99a31.6 31.6 0 0 0-1.48 3.19c-.45 1.12-.85 2.29-1.22 3.49-.75 2.41-1.37 4.97-2.02 7.65l-1.01 4.11c-.09.35-.2.7-.27 1.06l-.3 1.05c-.08.35-.18.7-.28 1.05l-.3 1.05-1.3 4.2c-.46 1.4-.95 2.8-1.49 4.19a12.25 12.25 0 0 1-.35.95c-.15.36-.28.71-.37.95-.11.1-.22.19-.32.29l-.16.14-.08.07-.06.05c-.04.03-.09.05-.12.08-.05.03-.08.05-.13.09l-.18.16c-.01.02-.04.04-.06.06-.32.31-.62.73-.93 1.2-.28.46-.57 1-.88 1.59l-.49.92-.25.49-.28.51c-.31-.4-.85-.63-1.4-.85-.57-.22-1.14-.44-1.58-.74-.23-.15-.41-.32-.54-.51-.08-.1-.13-.2-.17-.32-.03-.05-.03-.11-.04-.17-.02-.06-.03-.12-.03-.18-.04-.52.16-1.17.7-2.06l-1.38-.53c-.4.38-.82.69-1.28.91-.12.06-.24.11-.34.16-.12.05-.24.08-.35.12-.24.07-.48.11-.71.13-.23.03-.47.02-.69 0a3.82 3.82 0 0 1-.66-.12c-.1-.03-.21-.07-.31-.1-.1-.04-.2-.08-.32-.12-.19-.09-.38-.19-.57-.3-.39-.18-.75-.42-1.05-.69-.08-.07-.15-.14-.22-.22-.04-.03-.07-.07-.1-.11-.02-.02-.03-.03-.06-.05-.01-.02-.02-.04-.04-.05a16.05 16.05 0 0 1-.41-.4c-.06-.05-.12-.12-.19-.19-.06-.06-.13-.12-.19-.17s-.12-.1-.18-.16c-.03-.02-.06-.05-.08-.08-.03-.03-.06-.06-.08-.09-.22-.2-.37-.42-.45-.7-.05-.3-.05-.68.01-1.16l.02-.09.02-.09.03-.19.02-.1.02-.1c.01-.07.03-.14.05-.21l.02-.11.03-.12c.02-.08.03-.15.06-.23.02-.08.04-.16.07-.25.02-.08.05-.16.08-.26.05-.18.11-.35.18-.56l.18-.5c.09-.28.21-.56.32-.84l.34-.85.35-.86c.48-1.16.98-2.34 1.39-3.55.42-1.2.78-2.44.97-3.69l.27-1.34.26-1.34.56-2.68.36-1.36c.06-.22.13-.45.2-.68.06-.23.14-.46.2-.68l.12-.35.12-.34c.1-.23.18-.46.26-.68l.3-.69c.04-.11.1-.23.15-.34.04-.12.1-.23.16-.35.61-1.24 1.16-2.57 1.71-3.93l1.71-4.2.12-.27.12-.27.23-.54.52-1.07c.09-.17.17-.35.26-.52.09-.18.19-.35.28-.52s.18-.35.28-.51c.1-.17.19-.34.28-.51.8-1.34 1.69-2.59 2.68-3.71.65-.86 1.19-2.21 1.77-3.38.29-.59.59-1.13.91-1.54.33-.42.67-.7 1.04-.77.84-.34 1.52.07 2.2.64-1.89 2.7-3.6 5.58-5.15 8.54-.25.45-.52.89-.78 1.34-.12.23-.25.45-.37.68l-.37.68c-.13.23-.25.46-.37.69l-.36.7-.36.7a3.78 3.78 0 0 1-.17.35l-.18.35-.33.7-.33.69-.17.35-.17.34-.33.7-1.32 2.74c.13-.22.25-.43.37-.65.13-.22.25-.44.37-.66l.36-.67.35-.68 1.36-2.74c.22-.47.46-.94.69-1.41.04-.12.11-.23.16-.35l.18-.36a22.83 22.83 0 0 1 .35-.7c.1-.24.22-.47.34-.7l.09-.18.09-.17.18-.35.72-1.4c1.71-2.88 3.62-5.58 5.68-8.08.58.51 1.19 1.02 1.91 1.25 0 0 .13-.21.3-.46.15-.25.36-.56.5-.76 1.31-.3 2.43.02 3.35.63.92.62 1.64 1.53 2.15 2.42l.6 1.34z"/><path d="M1557.49 214.67l-4.3-.43-2.46-.19-1.23-.09-1.22-.08-2.56-.16-2.54-.18-10.16-.8-20.29-1.67-1.27-.1-1.28-.08-1.27-.09-1.28-.08-2.57-.16-2.6-.16-10.39-.51-.65-.03-.66-.02-1.3-.04-2.61-.06-2.62-.03-1.31.01h-.66l-.65.01-1.31.02-1.32.03-.65.02-.66.02-.66.03-.65.03-.65.03-.65.04-1.32.08-1.32.11-.34.02-.33.03-.67.06-7.76.79-8.21.89-1.06.09-.53.05-.54.04-1.07.08-1.08.07-.54.03-.27.01-.25.02-1.05.05-2.08.1-8.34.4-16.44.97c-5.38.41-10.67.94-15.79 1.48l9.14-.77 2.28-.18 2.29-.15 1.14-.08 1.15-.07 2.29-.13 18.61-.8 4.71-.21 2.36-.11 1.85-.11.61-.05 1.23-.09 1.21-.12c.41-.03.81-.07 1.21-.12l1.2-.12 1.19-.14c.4-.04.8-.09 1.19-.14l2.36-.29 9.2-1.11 2.25-.22 1.11-.08.56-.04c.19-.02.37-.03.55-.04l1.11-.06 1.12-.05c.75-.04 1.5-.05 2.26-.08.18 0 .37-.01.56-.01l.57-.01 1.13-.01 2.26-.01 1.13.01 1.14.02 2.28.06c3.04.09 6.09.25 9.15.43l4.6.31 2.31.17 2.29.17 9.12.81 18.24 1.87 9.12.85 2.29.19 2.26.18 4.34.39-3.69.48c-.32.03-.64.07-.96.11l-.26.03c-.08.01-.17.01-.26.02a9.14 9.14 0 0 0-.52.05l-1.07.08-1.09.08a81.04 81.04 0 0 1-9.48-.01l-12.03-1.05-11.78-1.01-.73-.06-.73-.05-1.45-.11-2.9-.2-5.85-.37c-3.88-.23-7.7-.42-11.46-.5v-1.47c-2.7.04-5.36.12-7.98.25l-1.96.11-.97.06-.49.04-.49.03-.95.08-.47.04-.48.05-.95.1-.97.1-3.89.47-1.98.26-2 .27-2.03.28-2.04.26-1.04.13-1.03.13-1.04.12-1.05.11-2.12.21c-.36.04-.72.07-1.07.1l-1.08.08-.54.04c-.18.02-.36.02-.54.03l-1.09.07-.27.01-.77.04-1.02.04-8.14.3-16 .58-1.98.1-1.97.11-.99.06-.99.07-1.97.13-7.94.65-8 .77-8.05.87c-5.36.59-10.73 1.25-16.1 2.02-5.37.78-10.74 1.66-16.11 2.73 1.57-.04.71.4.43.68-.13.13-.14.22.21.24.18 0 .45-.01.84-.05.2-.03.43-.05.69-.09s.56-.07.89-.13l-.89.13c-.26.03-.49.06-.69.09-.39.04-.66.05-.84.05-.35-.02-.34-.11-.21-.24 10.6-1.72 21.17-3.01 31.72-4.19l7.92-.87 7.86-.83 7.8-.72 1.94-.15 1.93-.15 1.94-.13c.64-.05 1.29-.08 1.94-.12 5.18-.32 10.41-.53 15.71-.74l8-.32 2.01-.09.76-.04h.13l.13-.01 1.08-.06.54-.04.54-.04 1.06-.08.27-.01.79-.08 1.06-.09c5.6-.54 10.92-1.35 16-1.84 1.27-.13 2.52-.23 3.76-.32l.93-.05.47-.03.23-.01.24-.01c.31-.02.63-.03.95-.04l.47-.02c.16-.01.32-.01.48-.02 2.55-.08 5.14-.08 7.76-.03a173.82 173.82 0 0 0-6.05.03l-.37.01-.37.02-.75.02-.74.02-1.49.07a4.35 4.35 0 0 1-.37.02l-.36.03-1.45.1c-1.94.15-3.92.36-5.94.61l-6.2.8-6.46.79-.82.09-1.66.16-.85.07-.84.07-.21.01-.64.04-.86.06-.21.01-.2.01-.4.03-12.64.61-12.41.67-1.53.1-1.53.11-1.53.12-1.53.12-6.13.55-12.36 1.31-6.22.7-6.21.71-12.37 1.52-12.29 1.73-12.22 2.04c-4.05.75-8.08 1.57-12.1 2.46l-3.01.69-.75.17-.74.19-1.5.37-1.5.36-1.54.39-3.09.79-12.32 3.15c-8.17 2.15-16.29 4.42-24.26 7.05l-5.38 1.86-1.5.54-.72.27-.36.12c-.11.05-.23.09-.34.13l-2.39.92c-.19.05-.35.1-.52.15l-1.01.29-.5.16-2.02.63a97.95 97.95 0 0 0-3.95 1.41 95.78 95.78 0 0 0-7.71 3.33l-.94.47-.94.47-.93.49-.22.12-.74.39-1.86 1.02c-.6.33-1.16.67-1.72 1-.13.08-.26.17-.39.25l-.2.13-.19.12c-.13.09-.26.17-.39.26l-.57.37-.16.13c-.12.09-.24.17-.35.26l-.34.25-.33.26a18.1 18.1 0 0 0-1.2 1.06l-.13.14-.05.05c-.01.02-.03.03-.05.05-.03.04-.07.08-.1.12l-.06.06-.06.06-.46.56c-.03-.34-.17-.58-.39-.76-.21-.18-.49-.3-.82-.39-.3-.1-.64-.16-.93-.26-.3-.1-.58-.22-.74-.45-.16-.22-.23-.54-.12-1.02.06-.24.15-.52.32-.83.05-.08.08-.15.14-.24.02-.04.04-.07.07-.12.03-.04.06-.08.09-.13.06-.09.13-.18.2-.27.03-.05.07-.1.09-.15a.61.61 0 0 0 .13-.15 10.12 10.12 0 0 1 .56-.62c.11-.11.22-.23.33-.34s.25-.23.36-.34c.53-.48 1.15-.98 1.9-1.52.76-.53 1.64-1.09 2.66-1.69.5-.3 1.05-.61 1.63-.93l.9-.49.47-.25c.16-.09.31-.17.48-.26l-.75-1.28-3.86 1.8c-1.23.57-2.4 1.15-3.5 1.73-1.1.59-2.12 1.2-3.07 1.83-.13.08-.25.15-.37.23s-.22.16-.34.24l-.34.24c-.11.09-.22.17-.33.25-.44.33-.84.67-1.24 1a30.9 30.9 0 0 0-2.09 1.98c-.31.32-.6.65-.88.97-.28.33-.53.66-.78.98-.06.09-.13.17-.18.25-.06.08-.11.17-.16.25l-.17.25c-.05.08-.11.16-.15.24-.09.15-.19.31-.27.46-.1.15-.17.3-.25.43-.32.57-.52 1.06-.72 1.43-.48.53-.91.68-1.31.43a1.36 1.36 0 0 1-.29-.26c-.05-.06-.09-.12-.14-.19-.02-.04-.04-.07-.06-.12-.02-.06-.05-.12-.08-.18-.19-.53-.35-1.26-.35-2.17.01-.12.01-.24.01-.36.02-.12.02-.24.04-.37.01-.12.02-.25.04-.38.01-.14.03-.27.04-.41.11-.57.24-1.14.41-1.72.34-1.16.82-2.32 1.45-3.51a22.35 22.35 0 0 1 1.08-1.83l.66-.96a18.86 18.86 0 0 1 .81-1.03c.04-.04.08-.08.12-.13.03-.04.07-.08.09-.11.08-.08.13-.16.21-.24.07-.08.14-.15.21-.23l.21-.24.91-.93c.63-.62 1.3-1.22 2-1.81.8-.66 1.59-1.26 2.41-1.84.8-.57 1.6-1.11 2.39-1.62a93.47 93.47 0 0 1 2.29-1.45 7.36 7.36 0 0 0 .29-.18 7.36 7.36 0 0 1 .29-.18l.6-.36c.4-.25.81-.49 1.22-.73 3.27-1.93 6.72-3.75 10.35-5.44 1.81-.85 3.67-1.66 5.56-2.45l.7-.3.72-.28c.48-.2.95-.38 1.43-.56l1.43-.55 1.44-.54 2.9-1.06 2.94-1.01c.48-.17.98-.33 1.47-.49l1.49-.48 2.98-.95c4-1.24 8.05-2.4 12.11-3.51l12.21-3.19 12.12-3.09 1.49-.39.75-.19.77-.2 3.08-.79.39-.1.38-.09c.26-.07.51-.12.77-.19l1.53-.37 1.53-.38 1.53-.36c11.87-2.72 23.81-4.73 35.7-6.3 5.94-.78 11.87-1.45 17.79-2.04l2.22-.22 2.21-.21 4.43-.41 8.94-.71 12.57-.75 12.73-.49 12.67-.44 3.14-.13 1.47-.08 1.47-.1a174.64 174.64 0 0 0 6.05-.61l12.86-1.48 1.26-.11.42-.03.85-.06.85-.06.86-.04.43-.03c.14 0 .28-.01.42-.02l1.68-.06a163.61 163.61 0 0 1 6.63-.07l.82.01c.28 0 .55.01.83.02l1.63.03 1.63.06 1.62.07 6.39.37 6.27.5 3.09.28 3.1.3c2.99.26 6.54.5 10.25.73l11.28.64 10.06.58 2.08.16 1.83.16 1.55.2a14.74 14.74 0 0 1 1.26.22l.37.06.37.06c.24.04.47.09.68.13a10.59 10.59 0 0 1 1.08.27c.62.18 1.01.38 1.26.57.49.39.36.81.01 1.23l-1.84-.08-1.85-.06-3.61-.15-3.61-.18-1.8-.1-1.81-.11-1.8-.11-1.81-.12-.9-.06-.91-.07-1.81-.13-7.26-.54-7.26-.54-3.64-.25c-.61-.05-1.22-.08-1.83-.12l-.91-.06-.91-.06-1.82-.11-1.81-.1-3.63-.2-7.29-.34c-2.99-.15-5.99-.24-9-.26-1.51-.02-3.03-.01-4.54.01l-1.14.03-1.14.03-1.71.06-1.73.1-1.15.08-.57.04c-.19.01-.38.03-.57.05l-1.14.09-4.5.46-8.76.99-1.08.11a38.06 38.06 0 0 0-1.06.11l-2.13.18-1.05.08-1.58.09-.52.02-1.04.05-8.79.25-17.77.44 17.51-.29 8.72-.21 1.06-.03 1.04-.05 1.06-.06c.35-.02.7-.05 1.05-.08l1.06-.08 1.07-.09.53-.05.53-.06 1.08-.1 1.08-.12 1.08-.12 1.08-.12c.37-.05.74-.09 1.1-.13l4.43-.52c.37-.05.75-.09 1.12-.13l1.13-.13 2.27-.23 4.62-.36c.78-.05 1.54-.08 2.31-.11l1.15-.05 1.15-.03 1.16-.03 1.15-.01 2.29-.02a232.44 232.44 0 0 1 9.16.19l7.26.41 3.6.24 1.8.12 1.81.13.91.06.9.07 1.81.14 3.61.29 7.19.63 14.3 1.22 3.56.26 1.78.12.89.06 2.67.16 1.78.09 1.8.08 1.81.1c-.73.73-1.42 1.5-.26 2.27l3.33.13 5.56.26c.74.15 1.41.3 2.04.45.31.07.61.15.89.22.07.02.14.03.21.05s.14.04.2.05c.14.04.27.07.4.1.52.13 1 .24 1.41.37.42.13.78.29 1.06.45.29.17.5.35.64.52.14.18.21.35.23.51.04.32-.1.57-.25.8-.02.04-.05.09-.11.17l-.06.09c0 .01-.01.02-.01.04-.01 0-.01.01-.02.02 0 0-.01.01-.01.02-.01.02-.02.02-.02.03-.01.02-.03.05-.04.07-.02.03-.03.06-.05.1s-.04.08-.05.13c-.02.04-.04.09-.06.14a.69.69 0 0 0-.04.1c-.02.03-.03.06-.04.09-.02.03-.03.06-.05.09-.05.13-.12.24-.22.36s-.23.24-.39.36-.36.24-.61.37c-.25.12-.54.25-.92.38-.19.06-.4.13-.64.18-.06.01-.12.03-.19.04s-.13.02-.2.04l-.11.01-.06.02h-.03c-.05.01-.1.03-.14.04l-5.18.99z"/></g></svg>