<svg width="169" height="199" viewBox="0 0 169 199" fill="none" xmlns="http://www.w3.org/2000/svg">
<path d="M128.992 47.0653C129.343 49.8227 129.707 52.594 130.099 55.3376C130.922 60.8871 131.834 66.4574 132.779 72.0485C133.724 77.6465 134.696 83.2237 135.736 88.7732C136.769 94.3297 137.883 99.8584 139.105 105.366C140.32 110.874 141.67 116.348 143.162 121.793L143.439 122.812L143.729 123.83C143.925 124.509 144.114 125.188 144.31 125.867C144.708 127.225 145.113 128.583 145.532 129.934C146.369 132.65 147.246 135.359 148.165 138.081C149.076 140.797 150.035 143.52 151.013 146.25C151.506 147.615 152.006 148.98 152.512 150.344L152.701 150.857L152.89 151.363C153.012 151.695 153.14 152.028 153.262 152.361C153.39 152.693 153.518 153.026 153.646 153.358C153.775 153.691 153.903 154.023 154.038 154.363C154.558 155.7 155.105 157.058 155.658 158.416C156.225 159.815 156.799 161.215 157.366 162.614C158.257 164.797 159.142 167.007 159.979 169.203C160.384 170.298 160.789 171.399 161.194 172.501L161.498 173.325L161.646 173.734C161.7 173.873 161.741 174.004 161.788 174.143C161.97 174.69 162.146 175.231 162.328 175.778C162.429 176.055 162.49 176.318 162.558 176.582L162.767 177.378L162.976 178.175C162.997 178.244 163.003 178.307 163.017 178.369L163.051 178.556L163.118 178.937L163.253 179.692L163.321 180.073C163.341 180.198 163.368 180.33 163.381 180.448C163.449 180.933 163.503 181.39 163.543 181.84C163.631 182.741 163.658 183.586 163.645 184.404C163.631 185.228 163.564 186.018 163.429 186.808C163.294 187.597 163.098 188.38 162.76 189.184C162.591 189.586 162.375 189.988 162.112 190.39C161.977 190.584 161.829 190.778 161.673 190.965C161.511 191.152 161.343 191.325 161.16 191.491C160.796 191.817 160.411 192.087 160.026 192.302C159.641 192.517 159.256 192.676 158.878 192.808C158.122 193.064 157.386 193.196 156.644 193.286C156.428 193.306 156.212 193.32 155.996 193.341L155.672 193.362C155.564 193.369 155.456 193.376 155.341 193.376C154.895 193.389 154.443 193.396 153.964 193.383C153.491 193.376 152.992 193.355 152.458 193.32L152.256 193.306L152.046 193.292L151.628 193.258L151.209 193.223L150.777 193.168L150.345 193.112L150.129 193.085L149.906 193.043L149.002 192.877C148.691 192.808 148.381 192.731 148.07 192.662L147.84 192.607L147.604 192.537L147.132 192.406L146.659 192.274L146.18 192.122L145.7 191.969L145.457 191.893L145.214 191.81C144.89 191.699 144.573 191.588 144.249 191.477C143.932 191.373 143.608 191.269 143.29 191.166C142.014 190.757 140.732 190.348 139.449 189.918C138.166 189.489 136.89 189.052 135.608 188.602C135.29 188.491 134.966 188.38 134.649 188.27L133.812 187.972C133.4 187.819 132.981 187.674 132.57 187.521C131.739 187.216 130.909 186.919 130.079 186.614C121.863 183.538 113.417 180.364 104.83 177.219C100.536 175.646 96.2087 174.087 91.8476 172.549C87.4662 171.004 83.105 169.466 78.7439 168.039C76.5633 167.325 74.3827 166.64 72.2021 165.988C70.0283 165.337 67.8275 164.727 65.6131 164.132C61.1845 162.947 56.695 161.852 52.1854 160.737C49.944 160.182 47.7027 159.621 45.4748 159.074C44.928 158.942 44.3812 158.811 43.8344 158.679C43.2943 158.554 42.7474 158.423 42.2141 158.305C41.674 158.18 41.1407 158.069 40.6074 157.952C40.3441 157.896 40.074 157.841 39.8107 157.785C39.5475 157.73 39.2774 157.674 39.0141 157.626C37.9542 157.411 36.9146 157.238 35.8749 157.072C34.842 156.912 33.8158 156.781 32.8032 156.67C32.5534 156.649 32.2969 156.621 32.0471 156.601L31.6623 156.566L31.2505 156.531C30.7171 156.49 30.2446 156.455 29.853 156.448C29.4614 156.441 29.1374 156.448 28.8673 156.476C28.5973 156.504 28.3678 156.545 28.1315 156.601L27.9695 151.134C27.8952 151.106 27.8817 151.12 27.9492 151.113C28.0167 151.113 28.1652 151.1 28.3678 151.03C28.4285 151.016 28.4825 150.996 28.5365 150.968C28.6041 150.947 28.6716 150.919 28.7323 150.885C28.7593 150.871 28.7998 150.85 28.8403 150.836C28.8741 150.816 28.9146 150.802 28.9484 150.781L29.0024 150.753L29.0294 150.739L29.0631 150.725C29.1036 150.705 29.1441 150.684 29.1846 150.656C29.5087 150.469 29.8665 150.227 30.3053 149.887C30.3998 149.811 30.5281 149.714 30.6429 149.624C30.6969 149.575 30.7576 149.527 30.8116 149.478L30.8521 149.444L30.8994 149.402L30.9939 149.319C31.0547 149.264 31.1222 149.208 31.1829 149.153L31.372 148.98C31.5137 148.855 31.6555 148.723 31.7905 148.598L31.8445 148.654C31.8783 148.689 31.9323 148.737 31.9998 148.799L32.2429 149.021L32.6142 149.354C32.6952 149.43 32.7762 149.499 32.8572 149.575L33.0597 149.769L33.3298 150.026L33.5998 150.275C33.9644 150.608 34.3289 150.933 34.7002 151.238C35.0715 151.543 35.4428 151.841 35.8276 152.125C36.0167 152.27 36.2057 152.402 36.3947 152.541C36.5838 152.672 36.7795 152.811 36.9686 152.936C37.3534 153.192 37.7449 153.434 38.1365 153.663L38.4335 153.829L38.7306 153.996C38.8318 154.051 38.9264 154.099 39.0276 154.155C39.1289 154.203 39.2234 154.259 39.3314 154.314C39.2234 154.259 39.1289 154.203 39.0209 154.155C38.9196 154.099 38.8183 154.051 38.7238 153.989L38.4268 153.822L38.1297 153.649C37.7382 153.414 37.3466 153.164 36.9618 152.901C36.766 152.769 36.577 152.631 36.388 152.499C36.1989 152.361 36.0099 152.222 35.8209 152.076C35.6319 151.938 35.4496 151.785 35.2606 151.633C35.0783 151.481 34.8893 151.328 34.707 151.169C34.3424 150.857 33.9779 150.531 33.6201 150.192L33.35 149.936L33.0867 149.679L32.8707 149.471C32.7897 149.395 32.7087 149.319 32.6344 149.25L32.2834 148.931C32.1888 148.841 32.1146 148.772 32.0538 148.716C31.9931 148.654 31.9458 148.612 31.9121 148.578L31.8918 148.557L31.8783 148.543C31.8715 148.536 31.8715 148.536 31.8715 148.536L31.7028 148.695C31.1222 149.222 30.6699 149.61 30.2446 149.936C30.1905 149.977 30.1433 150.012 30.0893 150.053L30.0083 150.109L29.9408 150.164C29.8462 150.234 29.7517 150.303 29.6505 150.365C29.5627 150.428 29.4817 150.483 29.3872 150.538L29.3197 150.58L29.2589 150.615C29.2184 150.635 29.1779 150.663 29.1374 150.684C28.8201 150.864 28.55 150.982 28.3475 151.044C28.145 151.107 28.0032 151.127 27.9425 151.127C27.8749 151.127 27.8884 151.12 27.9627 151.148L28.1585 156.753C28.3003 156.725 28.4353 156.698 28.5771 156.677C28.7188 156.663 28.8673 156.642 29.0429 156.635C29.2184 156.628 29.4007 156.628 29.6167 156.628C29.8395 156.635 30.0758 156.642 30.3458 156.663L30.7711 156.698L31.2302 156.739L31.7163 156.781L32.1686 156.829C32.4656 156.864 32.7694 156.885 33.0665 156.926C33.3703 156.968 33.6673 156.995 33.9711 157.044C35.1795 157.203 36.4082 157.418 37.6437 157.654C38.8791 157.896 40.128 158.159 41.3905 158.457C43.9154 159.046 46.4807 159.718 49.1204 160.404C51.7533 161.083 54.3862 161.762 57.0258 162.441C62.2646 163.792 67.4427 165.164 72.4992 166.716C77.5759 168.275 82.6527 170.034 87.7902 171.85C90.3624 172.764 92.9345 173.672 95.5066 174.586C98.072 175.501 100.644 176.429 103.21 177.358C108.361 179.221 113.505 181.092 118.656 182.956C121.242 183.884 123.827 184.812 126.406 185.748C127.702 186.212 128.998 186.669 130.288 187.133C131.638 187.611 132.982 188.082 134.332 188.561C136.364 189.267 138.409 189.96 140.455 190.618L141.987 191.11L143.52 191.595L144.289 191.838L145.059 192.101L145.444 192.232C145.572 192.274 145.7 192.316 145.829 192.357L146.598 192.6C146.727 192.641 146.855 192.676 146.983 192.711L147.361 192.814L147.739 192.918L147.928 192.974C147.989 192.988 148.05 193.002 148.117 193.015L148.86 193.182L149.049 193.223L149.143 193.244L149.231 193.258L149.589 193.32L150.311 193.445L151.007 193.535L151.351 193.577C151.466 193.59 151.574 193.597 151.689 193.604L152.35 193.653C152.789 193.68 153.194 193.694 153.592 193.701C153.984 193.708 154.362 193.708 154.727 193.708C155.091 193.701 155.449 193.687 155.793 193.66C156.137 193.632 156.482 193.597 156.826 193.563C157.548 193.466 158.257 193.327 158.986 193.071C159.351 192.946 159.722 192.794 160.094 192.586L160.235 192.51L160.377 192.426C160.472 192.371 160.566 192.309 160.661 192.246C160.85 192.115 161.032 191.976 161.208 191.824C161.565 191.519 161.903 191.159 162.18 190.778C162.456 190.396 162.686 190.002 162.875 189.607C163.246 188.824 163.462 188.048 163.624 187.279C163.78 186.51 163.867 185.734 163.908 184.937C163.948 184.14 163.942 183.316 163.881 182.45C163.854 182.013 163.813 181.57 163.759 181.106C163.732 180.87 163.705 180.642 163.665 180.392L163.537 179.644L163.408 178.896C163.361 178.646 163.334 178.404 163.253 178.134L162.848 176.554C162.814 176.422 162.78 176.291 162.747 176.159L162.612 175.75L162.342 174.933L162.072 174.115L162.004 173.914L161.93 173.706L161.781 173.298C161.383 172.203 160.978 171.101 160.58 170.007C160.478 169.73 160.384 169.459 160.276 169.182L159.959 168.358C159.749 167.804 159.54 167.256 159.324 166.702C158.892 165.6 158.453 164.492 158.008 163.397C157.407 161.894 156.799 160.39 156.198 158.887C155.651 157.529 155.125 156.185 154.605 154.841C154.085 153.504 153.592 152.18 153.106 150.85C152.613 149.485 152.121 148.12 151.641 146.756C150.676 144.026 149.751 141.296 148.853 138.559C147.962 135.83 147.098 133.093 146.281 130.363C145.876 128.999 145.478 127.627 145.093 126.262C144.992 125.922 144.904 125.576 144.809 125.237L144.526 124.211L144.242 123.186C144.148 122.846 144.053 122.5 143.965 122.16C143.608 120.782 143.243 119.417 142.906 118.031C142.737 117.345 142.568 116.652 142.392 115.967C142.23 115.274 142.068 114.581 141.9 113.895L141.657 112.856L141.42 111.817C141.265 111.124 141.11 110.431 140.954 109.738C140.799 109.045 140.651 108.345 140.502 107.653C140.354 106.96 140.198 106.267 140.057 105.567C138.895 100.004 137.842 94.4128 136.863 88.8079C135.884 83.2029 134.973 77.5841 134.089 71.9653C133.198 66.3466 132.347 60.7832 131.577 55.2683C132.941 59.6747 134.372 64.5314 135.77 69.8869C136.472 72.5681 137.16 75.3671 137.822 78.277C138.49 81.1799 139.138 84.2006 139.766 87.3183C140.468 91.0803 141.191 94.8216 141.954 98.5282C142.716 102.235 143.52 105.907 144.364 109.551C144.58 110.459 144.789 111.373 145.012 112.274C145.235 113.181 145.457 114.082 145.68 114.983C145.91 115.883 146.139 116.784 146.369 117.678L146.544 118.35L146.727 119.022L147.084 120.359C147.206 120.802 147.321 121.253 147.449 121.696L147.82 123.026C148.07 123.913 148.313 124.8 148.576 125.687C149.096 127.454 149.63 129.22 150.176 130.987C151.284 134.513 152.451 138.033 153.673 141.546C154.288 143.305 154.909 145.058 155.543 146.811C155.861 147.691 156.185 148.564 156.502 149.444L156.968 150.705C157.123 151.12 157.285 151.543 157.447 151.966C158.095 153.649 158.777 155.36 159.479 157.099C160.384 159.337 161.295 161.568 162.2 163.806C162.537 164.651 162.875 165.503 163.213 166.349C163.537 167.194 163.861 168.039 164.185 168.891C164.266 169.106 164.34 169.314 164.421 169.522L164.651 170.152L165.11 171.42L166.028 173.942L166.257 174.572C166.332 174.78 166.392 174.988 166.46 175.196L166.858 176.443L167.054 177.067C167.088 177.171 167.121 177.274 167.148 177.378L167.216 177.676L167.493 178.875L167.628 179.471L167.695 179.769L167.729 179.921L167.736 179.956L167.742 179.99L167.749 180.06L167.891 181.175L168.033 182.29C168.046 182.387 168.053 182.471 168.053 182.561L168.067 182.824C168.073 182.997 168.08 183.163 168.087 183.33C167.526 183.066 166.426 182.554 165.879 182.297C166.014 183.891 165.98 185.29 165.805 186.621C165.717 187.286 165.589 187.93 165.42 188.567C165.245 189.205 165.029 189.842 164.732 190.487C164.583 190.812 164.407 191.138 164.212 191.463C164.11 191.63 164.009 191.789 163.894 191.955C163.78 192.122 163.658 192.281 163.53 192.44C163.273 192.759 162.99 193.064 162.693 193.341C162.396 193.618 162.092 193.868 161.788 194.082C161.187 194.512 160.6 194.817 160.033 195.073C159.466 195.322 158.905 195.516 158.332 195.676C157.981 195.759 157.636 195.849 157.285 195.925C156.927 196.001 156.563 196.064 156.178 196.119C155.793 196.175 155.402 196.216 154.976 196.244L154.659 196.265L154.328 196.279L153.984 196.292C153.923 196.292 153.869 196.299 153.808 196.299L153.626 196.299L152.897 196.292L152.715 196.292C152.654 196.292 152.586 196.285 152.526 196.279L152.141 196.251L151.756 196.223C151.628 196.209 151.506 196.209 151.365 196.188L150.561 196.078L150.359 196.05C150.291 196.043 150.224 196.036 150.156 196.015L149.738 195.932L148.9 195.766L148.043 195.544L147.611 195.433C147.469 195.392 147.321 195.343 147.172 195.302L146.295 195.031C146.004 194.941 145.707 194.837 145.417 194.74C144.83 194.533 144.249 194.366 143.668 194.186C143.088 194.013 142.507 193.84 141.927 193.66C141.346 193.48 140.765 193.306 140.178 193.119C137.849 192.392 135.513 191.616 133.184 190.826C132.516 190.597 131.841 190.369 131.172 190.14C130.517 189.918 129.856 189.69 129.201 189.468C127.891 189.018 126.582 188.561 125.272 188.11C122.659 187.203 120.053 186.281 117.461 185.36C112.276 183.517 107.125 181.653 102.001 179.81C99.4425 178.889 96.8838 177.967 94.3319 177.053C91.7733 176.138 89.2214 175.224 86.6695 174.316C81.5793 172.501 76.5768 170.741 71.6013 169.189C66.646 167.637 61.549 166.259 56.3507 164.887C53.7313 164.194 51.1119 163.508 48.4858 162.815C45.8529 162.115 43.3213 161.436 40.8436 160.848C39.6082 160.55 38.393 160.286 37.1914 160.051C35.9964 159.815 34.8082 159.607 33.6471 159.441C33.3568 159.4 33.0665 159.365 32.7762 159.33C32.4859 159.289 32.2023 159.261 31.9188 159.233L31.4867 159.185L31.0074 159.136L30.5619 159.095L30.1703 159.06C29.9273 159.039 29.7247 159.032 29.5492 159.025C29.3737 159.019 29.2454 159.019 29.1374 159.025C29.0294 159.025 28.9551 159.039 28.8808 159.039C28.8133 159.046 28.7526 159.06 28.6851 159.067L27.9222 151.127C27.8547 151.1 27.8344 151.107 27.8817 151.107C27.8952 151.107 27.9155 151.107 27.929 151.107C27.956 151.107 27.983 151.106 28.0032 151.1L28.0235 151.1L28.0505 151.1C28.0707 151.1 28.0842 151.093 28.1045 151.093C28.118 151.086 28.1382 151.086 28.1517 151.079C28.172 151.072 28.199 151.072 28.2192 151.065C28.2395 151.058 28.2598 151.051 28.28 151.044L28.3138 151.03L28.3543 151.016C28.4083 151.003 28.4555 150.982 28.5028 150.961C28.6243 150.919 28.7256 150.864 28.8673 150.795C28.9011 150.781 28.9349 150.76 28.9619 150.746C28.9754 150.739 28.9956 150.725 29.0159 150.719L29.0699 150.691C29.1441 150.649 29.2116 150.608 29.2859 150.559C29.4547 150.462 29.5965 150.358 29.7855 150.234C29.826 150.206 29.8732 150.171 29.9138 150.143L29.9813 150.095L30.0555 150.04C30.15 149.97 30.2446 149.894 30.3391 149.825C30.3593 149.804 30.3863 149.783 30.4133 149.762L30.4943 149.7L30.6496 149.575L30.9737 149.298C31.0884 149.201 31.2032 149.104 31.3112 149C31.4395 148.889 31.5678 148.772 31.696 148.654L32.1011 148.273L32.3171 148.065L32.4251 147.961C32.4589 147.926 32.4926 147.892 32.5399 147.85C32.7087 147.691 32.8707 147.525 33.0327 147.358L33.5255 146.853C33.5255 146.853 33.5255 146.853 33.5255 146.859L33.5323 146.873C33.5526 146.894 33.5796 146.922 33.6336 146.977L33.7213 147.06L33.8428 147.171L34.2142 147.511C34.2952 147.587 34.3829 147.663 34.4639 147.746L34.6665 147.94L34.8893 148.162C35.193 148.453 35.4968 148.737 35.8006 149.007C36.415 149.555 37.0361 150.046 37.6639 150.511C37.9812 150.739 38.2985 150.961 38.6158 151.162C38.7778 151.266 38.9399 151.363 39.0951 151.467L39.3382 151.612C39.4192 151.661 39.5002 151.709 39.5812 151.751L39.8242 151.889L40.0673 152.021L40.1888 152.09C40.2293 152.111 40.2766 152.132 40.3238 152.16L40.5939 152.298C40.7761 152.388 40.9584 152.485 41.1474 152.568C41.3365 152.651 41.5188 152.742 41.7078 152.825C42.4639 153.157 43.2538 153.469 44.0639 153.753C44.874 154.037 45.7111 154.293 46.5685 154.529C47.4259 154.765 48.3035 154.966 49.2014 155.16C50.9972 155.534 52.8672 155.818 54.7845 156.032C56.7085 156.254 58.6866 156.407 60.7051 156.517C62.7304 156.628 64.7963 156.705 66.9161 156.774C67.9827 156.808 69.0494 156.843 70.1161 156.871C71.1692 156.899 72.2156 156.933 73.2688 156.954C81.6805 157.155 90.1598 157.106 98.6931 156.864C102.96 156.739 107.247 156.573 111.547 156.358C112.62 156.303 113.701 156.247 114.774 156.192C115.854 156.136 116.928 156.074 118.008 156.005L118.818 155.956L119.223 155.935L119.662 155.915L120.56 155.866L121.444 155.832C121.741 155.818 122.025 155.811 122.315 155.797L123.179 155.769C123.746 155.755 124.313 155.741 124.88 155.728C124.495 155.693 124.185 155.658 123.942 155.617C123.692 155.582 123.51 155.541 123.382 155.499C123.125 155.416 123.085 155.333 123.159 155.243C123.233 155.153 123.429 155.063 123.652 154.979C123.868 154.889 124.111 154.806 124.266 154.723C124.482 154.723 124.685 154.723 124.88 154.723C124.685 154.723 124.475 154.723 124.266 154.723C124.556 154.584 124.617 154.46 123.915 154.363C123.739 154.342 123.517 154.321 123.233 154.3C123.091 154.293 122.943 154.28 122.767 154.28C122.592 154.273 122.409 154.266 122.2 154.266C121.998 154.259 121.775 154.259 121.532 154.259C121.289 154.259 121.025 154.259 120.749 154.259C120.472 154.259 120.168 154.266 119.844 154.273C119.682 154.28 119.513 154.28 119.344 154.287C119.52 154.28 119.682 154.28 119.844 154.273C120.168 154.266 120.472 154.259 120.749 154.259C121.025 154.259 121.289 154.259 121.532 154.259C121.775 154.259 121.991 154.266 122.2 154.266C122.403 154.273 122.592 154.28 122.767 154.28C122.943 154.287 123.091 154.293 123.233 154.3C123.517 154.321 123.739 154.335 123.915 154.363C124.61 154.453 124.556 154.578 124.266 154.723L123.415 154.73L122.558 154.737L121.687 154.751L120.803 154.772C120.512 154.778 120.209 154.785 119.905 154.799L119.027 154.827C118.487 154.848 117.954 154.869 117.42 154.889C116.347 154.931 115.274 154.966 114.207 155.007C113.134 155.042 112.067 155.076 111 155.111C106.727 155.25 102.474 155.354 98.234 155.416C89.7615 155.554 81.3497 155.541 73.0122 155.312C71.9726 155.277 70.9262 155.25 69.8865 155.215C68.8266 155.18 67.7599 155.146 66.7 155.111C65.6536 155.076 64.614 155.042 63.5946 155C62.5752 154.959 61.5693 154.91 60.5701 154.855C59.5777 154.799 58.5988 154.73 57.6267 154.654C56.6613 154.578 55.7094 154.481 54.771 154.377C53.8394 154.266 52.9145 154.148 52.0098 154.009C51.1119 153.871 50.2276 153.712 49.3567 153.531C48.4925 153.351 47.6487 153.15 46.8318 152.936C46.0149 152.714 45.2183 152.471 44.4487 152.208C43.6858 151.938 42.9432 151.647 42.2276 151.335L41.701 151.093L41.566 151.03L41.4377 150.968L41.1812 150.843L40.9247 150.719C40.8774 150.698 40.8437 150.677 40.8031 150.656L40.6884 150.594C40.5399 150.518 40.3846 150.428 40.2361 150.351C39.0344 149.672 37.8597 148.834 36.6985 147.816C36.4082 147.566 36.1179 147.296 35.8344 147.026L35.6184 146.818L35.3888 146.596C35.3011 146.513 35.2133 146.43 35.1255 146.347L34.761 146.021L34.572 145.848L34.5247 145.799L34.5112 145.786L34.5044 145.779C34.5314 145.751 34.4572 145.827 34.3964 145.896L34.0319 146.278L33.7416 146.582L33.4513 146.887L32.918 147.435L32.6749 147.677L32.4319 147.92C32.2901 148.058 32.1551 148.197 32.0133 148.328L31.615 148.702L31.426 148.876L31.3315 148.959C31.2977 148.986 31.264 149.014 31.2437 149.042C31.1357 149.146 31.0209 149.243 30.9062 149.34L30.5889 149.61L30.4336 149.735L30.3526 149.797L30.2851 149.852C30.1905 149.929 30.096 149.998 30.0015 150.067C29.9475 150.102 29.9138 150.137 29.8665 150.164C29.826 150.199 29.7787 150.227 29.7382 150.254L29.4884 150.421C29.4142 150.469 29.3264 150.525 29.2522 150.566C29.1846 150.608 29.1104 150.656 29.0361 150.691L28.9821 150.719C28.9619 150.725 28.9484 150.739 28.9349 150.746C28.9011 150.767 28.8741 150.781 28.8403 150.795C28.8066 150.809 28.7728 150.829 28.7391 150.843C28.7188 150.85 28.7053 150.857 28.6918 150.864L28.6513 150.885C28.5973 150.913 28.5298 150.933 28.4758 150.954C28.4285 150.975 28.3745 150.996 28.3273 151.01C28.3003 151.016 28.28 151.023 28.2598 151.03C28.2395 151.037 28.2192 151.044 28.199 151.051L28.0842 151.079C28.0505 151.086 28.01 151.093 27.9897 151.093C27.9695 151.1 27.9357 151.1 27.9155 151.1C27.902 151.1 27.8884 151.1 27.8682 151.1C27.8277 151.1 27.8479 151.093 27.9087 151.12L29.0226 160.487C29.0429 160.487 29.0564 160.48 29.0834 160.48C29.1104 160.48 29.1441 160.473 29.2116 160.473C29.2859 160.473 29.3804 160.467 29.5222 160.473C29.556 160.473 29.6032 160.473 29.637 160.48L29.6977 160.48L29.772 160.487L29.9205 160.494L30.0825 160.501L30.4606 160.529L30.8927 160.564L31.3652 160.605L31.7838 160.647C32.0606 160.674 32.3374 160.695 32.6209 160.737L33.0462 160.785C33.188 160.799 33.3298 160.82 33.4715 160.841L34.3289 160.958L35.193 161.097C35.4833 161.139 35.7736 161.194 36.0639 161.249C36.3542 161.298 36.6513 161.353 36.9483 161.409C38.1297 161.63 39.3314 161.887 40.5534 162.164C43.004 162.725 45.5356 163.383 48.1752 164.062C50.8014 164.734 53.4275 165.406 56.0537 166.078C61.252 167.409 66.3422 168.753 71.2772 170.27C76.2325 171.787 81.235 173.526 86.3185 175.328C88.8704 176.235 91.4223 177.15 93.9809 178.057C96.526 178.972 99.0847 179.893 101.643 180.822C106.774 182.692 111.918 184.57 117.076 186.447C119.669 187.39 122.268 188.325 124.867 189.274C126.17 189.745 127.479 190.209 128.789 190.681C130.112 191.152 131.436 191.623 132.765 192.094C135.23 192.953 137.707 193.791 140.192 194.595C140.813 194.796 141.434 194.99 142.055 195.184C142.676 195.378 143.297 195.565 143.911 195.759C144.533 195.96 145.147 196.14 145.781 196.369C146.092 196.479 146.409 196.59 146.72 196.694L147.658 196.992C147.813 197.041 147.969 197.096 148.124 197.138L148.583 197.262L149.501 197.505L150.392 197.685L150.838 197.775C150.912 197.796 150.986 197.803 151.054 197.81L151.27 197.837L152.127 197.955C152.276 197.976 152.404 197.983 152.539 197.99L152.944 198.018L153.349 198.045C153.417 198.052 153.484 198.052 153.552 198.059L153.748 198.059L154.517 198.059L154.706 198.059C154.767 198.059 154.828 198.052 154.889 198.052C155.01 198.045 155.132 198.038 155.246 198.031C155.368 198.024 155.476 198.011 155.591 198.004L155.928 197.969C156.367 197.921 156.779 197.858 157.177 197.789C157.575 197.713 157.954 197.63 158.318 197.533C158.683 197.429 159.034 197.318 159.391 197.207C160.269 196.902 161.113 196.528 162.011 195.981C162.234 195.842 162.463 195.69 162.699 195.523C162.814 195.44 162.936 195.35 163.051 195.26C163.172 195.163 163.287 195.073 163.408 194.969C163.881 194.567 164.36 194.096 164.786 193.597C165.211 193.099 165.569 192.586 165.872 192.094C166.176 191.595 166.433 191.11 166.656 190.625C167.094 189.655 167.412 188.692 167.648 187.66C167.418 188.685 167.108 189.648 166.676 190.611C166.46 191.096 166.21 191.581 165.906 192.073C165.609 192.565 165.251 193.078 164.833 193.577C164.414 194.075 163.942 194.553 163.462 194.962C163.226 195.17 162.983 195.35 162.753 195.523C162.524 195.697 162.288 195.849 162.065 195.988C161.167 196.549 160.323 196.93 159.432 197.249C159.081 197.359 158.73 197.47 158.372 197.574C158.014 197.671 157.636 197.761 157.245 197.837C156.853 197.914 156.448 197.976 156.016 198.024C155.584 198.073 155.125 198.115 154.619 198.128C152.627 198.191 150.305 197.907 147.82 197.145C147.199 196.951 146.578 196.764 145.957 196.542C145.646 196.438 145.336 196.32 145.025 196.223L144.1 195.932C143.486 195.738 142.865 195.558 142.251 195.364C141.63 195.17 141.015 194.983 140.394 194.782C137.923 193.992 135.446 193.161 132.982 192.316C131.618 191.838 130.254 191.366 128.89 190.888C127.587 190.431 126.284 189.967 124.988 189.51C122.396 188.588 119.804 187.66 117.211 186.738C112.06 184.889 106.916 183.046 101.772 181.203C99.2062 180.288 96.6475 179.374 94.0957 178.473C91.5303 177.572 88.9716 176.679 86.4063 175.778C81.2957 173.997 76.273 172.286 71.3042 170.783C66.3557 169.286 61.252 167.963 56.0267 166.647C53.387 165.988 50.7474 165.323 48.1077 164.665C45.4478 163.993 42.9162 163.349 40.4588 162.794C39.2302 162.517 38.0352 162.268 36.8538 162.053C35.6791 161.838 34.5179 161.644 33.3973 161.506C33.2555 161.485 33.1137 161.471 32.9787 161.457L32.5602 161.409C32.2766 161.374 32.0066 161.353 31.7298 161.326L31.318 161.284L30.8454 161.242L30.4133 161.208L30.042 161.18C29.8192 161.166 29.6437 161.159 29.5087 161.159C29.3804 161.159 29.2994 161.159 29.2454 161.166C29.1981 161.166 29.1846 161.173 29.1779 161.173L29.1711 161.118L29.1644 161.062L29.1644 161.049C29.1644 161.042 29.1644 161.055 29.1644 161.055L29.1711 161.076C29.1779 161.104 29.1846 161.125 29.1914 161.152L27.9155 151.127C27.8277 151.1 27.8209 151.113 27.9087 151.107C27.9965 151.107 28.172 151.079 28.4218 150.989C28.6716 150.899 28.9889 150.746 29.3602 150.511C29.4074 150.483 29.4547 150.448 29.5019 150.421C29.5492 150.386 29.5897 150.358 29.6505 150.324C29.7585 150.254 29.8597 150.178 29.961 150.102C30.0758 150.019 30.1905 149.936 30.3053 149.846C30.3593 149.804 30.4268 149.749 30.4876 149.7C30.5483 149.652 30.6091 149.603 30.6766 149.548C31.1897 149.125 31.7635 148.605 32.4791 147.899C32.6817 147.705 32.8774 147.511 33.0665 147.31L33.3973 146.977L33.7483 146.617L34.545 145.772L34.977 145.308C35.031 145.252 34.9905 145.294 35.004 145.28C35.0108 145.287 35.0445 145.321 35.1188 145.384L35.4496 145.675L35.7399 145.938L35.9019 146.09L36.0909 146.271L36.3475 146.513C36.5162 146.672 36.685 146.832 36.8538 146.977C37.1914 147.282 37.5357 147.573 37.8732 147.843C38.2175 148.114 38.5551 148.377 38.8994 148.619C39.2437 148.862 39.588 149.09 39.9323 149.305C40.2766 149.52 40.6276 149.714 40.9719 149.901L41.2352 150.04L41.539 150.185L41.836 150.331C41.9373 150.379 42.0386 150.421 42.1466 150.469C42.9702 150.843 43.8343 151.183 44.7322 151.494C45.6369 151.806 46.582 152.076 47.5542 152.326C49.512 152.818 51.598 153.192 53.7853 153.462C55.9727 153.739 58.2613 153.919 60.6241 154.051C62.9937 154.183 65.4376 154.259 67.9625 154.342C69.2182 154.384 70.4739 154.418 71.7295 154.46C72.965 154.501 74.2072 154.522 75.4494 154.557C76.6915 154.578 77.9337 154.598 79.1759 154.626L81.0392 154.647C81.6603 154.654 82.2814 154.661 82.9092 154.668C87.8915 154.709 92.8805 154.688 97.8897 154.612C102.899 154.536 107.915 154.418 112.944 154.259C114.2 154.217 115.463 154.176 116.718 154.134L118.609 154.065C119.203 154.044 119.966 154.016 120.661 154.003C122.065 153.968 123.422 153.968 124.732 153.968C126.001 153.975 127.277 153.975 128.546 153.982C129.775 153.982 130.956 153.975 132.097 153.947C133.238 153.919 134.332 153.871 135.371 153.788C135.506 153.781 135.628 153.767 135.756 153.753L136.141 153.718C136.269 153.705 136.391 153.698 136.539 153.684L136.958 153.642C137.484 153.587 137.89 153.531 138.099 153.49L138.173 153.476C138.187 153.476 138.193 153.469 138.2 153.469L138.227 153.462L138.254 153.455L138.268 153.455L138.274 153.455C138.281 153.455 138.295 153.448 138.301 153.448C138.315 153.448 138.315 153.441 138.322 153.441C138.322 153.441 138.328 153.441 138.335 153.441C138.335 153.434 138.342 153.462 138.342 153.469L138.396 153.635L138.484 153.906C138.504 153.968 138.524 154.03 138.544 154.093L138.571 154.169L138.585 154.196C138.585 154.203 138.598 154.224 138.585 154.203C138.578 154.183 138.565 154.162 138.558 154.141L138.544 154.113L138.504 154.03C138.477 153.975 138.45 153.919 138.423 153.871L138.403 153.829L138.369 153.76L138.301 153.628L138.234 153.504C138.227 153.497 138.22 153.476 138.22 153.483L139.334 167.575C139.314 167.596 139.294 167.616 139.28 167.63L139.26 167.658L139.206 167.72C139.165 167.769 139.132 167.817 139.098 167.866L139.084 167.887L139.064 167.914L139.017 167.977C138.99 168.018 138.956 168.06 138.929 168.101C138.902 168.143 138.875 168.185 138.848 168.226L138.828 168.261C138.821 168.268 138.808 168.289 138.801 168.302L138.74 168.399C138.659 168.524 138.578 168.656 138.504 168.787C138.477 168.843 138.409 168.947 138.355 169.037C138.301 169.134 138.247 169.224 138.193 169.321C138.139 169.418 138.092 169.515 138.038 169.605L138.004 169.674C137.998 169.695 137.977 169.73 137.957 169.764L137.842 169.972C137.694 170.249 137.559 170.526 137.424 170.803L137.376 170.907C137.363 170.935 137.336 170.991 137.309 171.039L137.16 171.344L137.012 171.649C136.985 171.697 136.958 171.766 136.965 171.746C136.978 171.753 136.938 171.732 136.911 171.725L136.742 171.656L136.472 171.545L135.635 171.226L135.365 171.122L135.074 171.004L134.764 170.88L134.426 170.741L132.664 169.986C131.544 169.508 130.45 169.051 129.383 168.614C128.85 168.399 128.317 168.185 127.79 167.984L126.095 167.346C123.537 166.376 121.052 165.351 118.642 164.312C116.225 163.266 113.89 162.212 111.594 161.187C109.299 160.162 107.058 159.157 104.85 158.215C104.303 157.986 103.75 157.758 103.203 157.522L102.386 157.189L101.974 157.023C101.839 156.968 101.711 156.919 101.576 156.864C100.523 156.448 99.429 156.032 98.288 155.61C96.0129 154.772 93.5623 153.906 90.9902 152.908C90.3489 152.658 89.694 152.395 89.0391 152.132C88.7151 152 88.3775 151.855 88.0467 151.716C87.8847 151.647 87.7159 151.571 87.5472 151.501L87.0408 151.28C85.6974 150.684 84.3742 150.06 83.078 149.409C80.4991 148.1 78.0147 146.693 75.6384 145.238C74.4502 144.511 73.2823 143.77 72.1346 143.021C71.5675 142.647 70.9937 142.273 70.4334 141.899L70.008 141.615L69.5827 141.324L68.7321 140.742C64.1954 137.631 59.7127 134.195 55.4528 130.343C54.3929 129.38 53.3398 128.396 52.3069 127.377C52.1786 127.253 52.0503 127.121 51.9153 126.996L51.5238 126.608C51.2672 126.352 51.0039 126.089 50.7541 125.825L49.9913 125.036L49.2419 124.239C47.2639 122.112 45.4006 119.936 43.6318 117.74C42.7474 116.645 41.8833 115.544 41.0462 114.442C40.6209 113.895 40.2091 113.341 39.7972 112.793C39.3854 112.246 38.9804 111.699 38.5753 111.151C38.177 110.604 37.7719 110.057 37.3736 109.509C36.9753 108.955 36.5838 108.408 36.1854 107.854C35.3888 106.752 34.6125 105.63 33.8293 104.514C33.3973 103.904 32.9315 103.212 32.4184 102.456C32.1618 102.082 31.8986 101.687 31.6218 101.286C31.3517 100.884 31.0749 100.461 30.7914 100.032C30.2243 99.1725 29.6235 98.2787 29.0361 97.3504C28.442 96.422 27.8277 95.4798 27.2336 94.5237C24.837 90.7062 22.5551 86.7917 21.0969 84.1382L20.8471 83.6256C20.7661 83.4524 20.6851 83.2791 20.6041 83.1059L20.1248 82.0736L19.6387 81.0413C19.4767 80.6949 19.3147 80.3554 19.1594 80.009C18.5383 78.6164 17.8969 77.2446 17.3029 75.8382C16.0742 73.0531 14.9265 70.2264 13.8058 67.3927L12.989 65.2519C12.8539 64.8916 12.7122 64.5383 12.5839 64.1849L12.1923 63.1041L11.4092 60.9495C11.1594 60.2289 10.9029 59.5084 10.6599 58.7879C9.67421 55.9057 8.76283 53.0236 7.89195 50.1414C6.15693 44.3841 4.62445 38.6405 3.18649 32.9386L2.64641 30.8047L2.38312 29.7378L2.31561 29.4745L2.24135 29.1697L2.09282 28.5531C1.70801 26.9111 1.38397 25.276 1.12068 23.6617C0.594098 20.4401 0.263298 17.3155 8.03417e-06 14.3363C0.74262 15.7774 1.46498 15.3201 2.18059 14.5927C2.8962 13.8652 3.62531 12.8814 4.34766 13.1793C4.52994 13.2555 4.71222 13.4079 4.89449 13.6712C5.07677 13.9345 5.2658 14.3017 5.44808 14.7936C5.82614 15.7843 6.20419 17.2947 6.67676 19.5325C6.9198 20.6479 7.17634 21.9505 7.51389 23.4539C7.5949 23.828 7.68942 24.216 7.77718 24.6178C7.82444 24.8187 7.86494 25.0196 7.91895 25.2275C7.97296 25.4353 8.02021 25.6432 8.07422 25.858C8.12823 26.0727 8.17549 26.2875 8.23625 26.5092C8.29701 26.7309 8.35101 26.9526 8.41177 27.1813C8.43878 27.2921 8.47253 27.4099 8.49954 27.5208C8.52654 27.6385 8.5603 27.7494 8.59405 27.8602C8.65481 28.0819 8.71557 28.3106 8.78308 28.5392C9.28265 30.3752 9.82949 32.4329 10.4438 34.733C11.0582 37.0332 11.74 39.5759 12.5231 42.3749C12.989 42.2294 13.9139 41.9315 14.3797 41.786C13.448 37.9962 12.6852 34.3728 12.0438 30.9641C11.8885 30.1119 11.7333 29.2736 11.5915 28.4491C11.5172 28.0334 11.4497 27.6247 11.3822 27.2228C11.3147 26.8141 11.254 26.4122 11.1932 26.0173C10.9569 24.4238 10.8151 22.8858 10.7274 21.4031C10.6396 19.9205 10.6126 18.5002 10.6261 17.1423C10.6396 15.7843 10.6801 14.4888 10.7409 13.2555C10.8016 12.0223 10.8826 10.8584 10.9704 9.75678C11.0177 9.20945 11.0582 8.66903 11.1054 8.15634C11.1324 7.9 11.1527 7.64366 11.1797 7.39424C11.2067 7.1379 11.2269 6.88848 11.254 6.646C11.2675 6.42429 11.2742 6.20258 11.281 5.98781C11.2877 5.79382 11.2945 5.60676 11.3012 5.41969C11.3147 5.06635 11.335 4.74767 11.362 4.45668C11.416 3.86778 11.497 3.36896 11.6118 2.96712C11.6253 2.91862 11.6388 2.87011 11.659 2.82161C11.6725 2.77311 11.6928 2.73156 11.7063 2.68999L11.7333 2.62763L11.7603 2.55833C11.7805 2.51677 11.794 2.46828 11.8143 2.42671C11.8885 2.25351 11.9628 2.09415 12.0506 1.94865C12.2261 1.65767 12.4286 1.40825 12.6582 1.21426C12.8944 1.02027 13.151 0.888649 13.4143 0.819367C13.5425 0.770869 13.6843 0.798568 13.7653 0.666932C13.8598 0.569937 13.9476 0.486795 14.0354 0.410584C14.3797 0.11267 14.6835 -0.0258812 14.94 0.00183171C15.1965 0.0295446 15.3991 0.23046 15.5544 0.604584C15.6286 0.791647 15.6961 1.02028 15.7434 1.29741C15.7434 1.31127 15.7501 1.33205 15.7501 1.3459L15.7569 1.35974C15.7569 1.3736 15.7636 1.38054 15.7636 1.39439C15.7704 1.42211 15.7771 1.4429 15.7839 1.47061C15.7906 1.49833 15.7974 1.52603 15.8109 1.55374C15.8176 1.58146 15.8311 1.6161 15.8446 1.65074C15.8919 1.78238 15.9594 1.94172 16.0472 2.108C16.0944 2.19114 16.1417 2.27428 16.1957 2.35742C16.2227 2.39899 16.2497 2.44056 16.2767 2.48213C16.3037 2.5237 16.3307 2.57219 16.3645 2.59297C16.4792 2.71768 16.6143 3.01561 16.7898 3.48673C16.8775 3.72921 16.9721 4.01328 17.0801 4.38741C17.1071 4.47747 17.1341 4.58831 17.1678 4.69223L17.1881 4.77538L17.2083 4.86543L17.2286 4.95551L17.2421 5.004L17.2556 5.05943L17.2826 5.16336L17.3096 5.28807C17.3231 5.37121 17.3434 5.45434 17.3569 5.53748C17.3906 5.70375 17.4176 5.87697 17.4514 6.05017C17.4716 6.16102 17.4851 6.20951 17.4986 6.28572C17.5121 6.355 17.5256 6.42428 17.5459 6.48663C17.5729 6.6252 17.6067 6.76376 17.6337 6.90233C17.6877 7.17946 17.7484 7.47046 17.8092 7.76144C17.8632 8.05243 17.924 8.35034 17.9847 8.65518C18.0387 8.96002 18.0995 9.26487 18.1602 9.58357C18.3965 10.8376 18.6261 12.1816 18.8758 13.595C19.1256 15.0014 19.3889 16.4702 19.6927 17.9736C19.9965 19.4771 20.3408 21.0151 20.7661 22.5601C20.8066 22.7195 20.8539 22.8788 20.8944 23.0382L20.9552 23.2807L21.0227 23.5162C21.1172 23.8419 21.2117 24.1675 21.313 24.4931C21.5425 25.2622 21.772 26.0312 22.0016 26.8071C22.1163 27.1951 22.2311 27.5831 22.3526 27.9711C22.4674 28.3591 22.5889 28.747 22.7037 29.135C22.94 29.911 23.1762 30.6869 23.4125 31.4698C24.3712 34.5875 25.3703 37.726 26.4302 40.8784C26.7003 41.6613 26.9636 42.4511 27.2404 43.234C27.3754 43.6289 27.5171 44.0169 27.6522 44.4118C27.7939 44.8067 27.9357 45.1947 28.0775 45.5896C28.145 45.7836 28.2193 45.9845 28.2868 46.1785C28.361 46.3725 28.4285 46.5665 28.5028 46.7674C28.6446 47.1623 28.7931 47.5503 28.9349 47.9452C29.2319 48.7211 29.5222 49.5109 29.8327 50.2938C29.988 50.6818 30.1365 51.0767 30.2918 51.4647C30.4471 51.8527 30.6024 52.2407 30.7576 52.6286C30.9129 53.0166 31.0749 53.4046 31.237 53.7926C31.399 54.1806 31.561 54.5686 31.723 54.9565C31.804 55.1505 31.8851 55.3445 31.9661 55.5385L32.0876 55.8295L32.2159 56.1205C32.3846 56.5085 32.5602 56.8964 32.7289 57.2844C32.8977 57.6724 33.0732 58.0673 33.242 58.4553C33.4175 58.8433 33.5998 59.2313 33.7753 59.6262C33.9576 60.0141 34.1331 60.4091 34.3154 60.797C34.4032 60.991 34.4977 61.185 34.5855 61.3859C34.68 61.5799 34.7745 61.7739 34.869 61.9679C35.2471 62.7439 35.6184 63.5268 35.9964 64.3096C36.388 65.0856 36.7795 65.8685 37.1711 66.6514C37.2656 66.8454 37.3669 67.0394 37.4749 67.2334C37.5762 67.4273 37.6774 67.6213 37.7787 67.8153C37.9812 68.2033 38.1838 68.5982 38.393 68.9862C40.0403 72.1039 41.7955 75.2216 43.6521 78.3324C43.8884 78.7204 44.1179 79.1083 44.3542 79.4963C44.5905 79.8843 44.82 80.2792 45.063 80.6603C45.5424 81.4362 46.0284 82.2122 46.5078 82.9882C47.0006 83.7572 47.4934 84.5332 47.993 85.3091C48.4926 86.0851 49.0056 86.8472 49.512 87.6231L49.8968 88.2051L50.2883 88.7802C50.5516 89.1612 50.8081 89.5492 51.0714 89.9372C51.5845 90.7131 52.1246 91.4752 52.6579 92.2373C52.928 92.6184 53.1913 93.0064 53.4613 93.3874C53.7313 93.7685 54.0081 94.1495 54.2782 94.5306C54.5482 94.9116 54.825 95.2927 55.095 95.6807C55.3718 96.0617 55.6486 96.4497 55.9254 96.8308C58.1465 99.8861 60.3608 102.81 62.6562 105.533C63.8039 106.897 64.9718 108.2 66.16 109.454L66.6055 109.925C66.754 110.078 66.9093 110.23 67.0578 110.382L67.5102 110.84L67.976 111.297C68.5971 111.907 69.2384 112.509 69.8798 113.105C72.4654 115.488 75.2401 117.74 78.17 119.895C78.5413 120.165 78.9059 120.435 79.2772 120.699C79.6485 120.962 80.0198 121.232 80.3979 121.495C80.7759 121.759 81.1472 122.022 81.532 122.285L82.1059 122.673L82.6865 123.068C84.2392 124.114 85.7784 125.105 87.3109 126.047C88.8434 126.982 90.3691 127.855 91.8881 128.659C92.651 129.054 93.4071 129.442 94.1699 129.802C94.548 129.989 94.9328 130.156 95.3108 130.329C95.4999 130.419 95.6889 130.495 95.8847 130.578L96.1682 130.703C96.2627 130.744 96.3573 130.786 96.4585 130.828C97.2416 131.16 98.0585 131.486 98.8956 131.811L99.5302 132.054L100.172 132.296L101.495 132.781C103.277 133.433 105.167 134.105 107.132 134.832C107.625 135.019 108.118 135.199 108.624 135.4L109.002 135.546L109.38 135.698L109.758 135.851L109.947 135.927L110.129 136.003C110.615 136.197 111.108 136.398 111.594 136.592C112.074 136.793 112.56 136.987 113.039 137.188C114.95 137.984 116.82 138.795 118.642 139.592C120.465 140.389 122.254 141.178 124.009 141.934C125.758 142.689 127.479 143.416 129.174 144.102C129.545 144.254 129.917 144.407 130.288 144.552L131.395 144.989C131.76 145.134 132.124 145.273 132.489 145.412L133.036 145.619L133.582 145.82L134.737 146.243C135.189 146.409 135.628 146.575 136.073 146.742C136.951 147.074 137.815 147.421 138.666 147.76C139.516 148.1 140.34 148.446 141.157 148.786L142.365 149.291L142.953 149.541L143.236 149.652L144.343 150.067C144.836 150.254 145.457 150.497 146.22 150.843C146.976 151.19 147.861 151.647 148.792 152.257C149.724 152.859 150.703 153.628 151.601 154.508L162.774 165.476L149.272 173.45C148.205 174.081 147.01 174.656 145.802 175.099C144.6 175.542 143.405 175.861 142.365 176.062C141.326 176.27 140.435 176.388 139.685 176.478L139.145 176.54L138.652 176.595L138.396 176.623L138.126 176.651L137.586 176.699C136.148 176.831 134.757 176.914 133.407 176.963C132.063 177.011 130.76 177.039 129.491 177.046C128.229 177.06 127.014 177.053 125.832 177.06L124.09 177.067C123.53 177.074 122.963 177.074 122.416 177.087L122.004 177.094L121.606 177.101C121.343 177.108 121.066 177.115 120.809 177.122L119.135 177.184L115.523 177.323C110.703 177.503 105.876 177.642 101.042 177.739C96.202 177.829 91.3548 177.87 86.5008 177.856C81.64 177.836 76.7793 177.752 71.8983 177.593L68.2663 177.461L64.668 177.316C62.2241 177.212 59.6992 177.08 57.1136 176.873C55.8174 176.769 54.5009 176.644 53.171 176.492C51.841 176.339 50.4908 176.159 49.1204 175.937C47.7567 175.716 46.3727 175.459 44.9753 175.154C43.5778 174.85 42.1668 174.489 40.7424 174.067C39.3179 173.644 37.8867 173.173 36.4555 172.619C35.0243 172.064 33.5931 171.434 32.1753 170.72L31.642 170.45L31.507 170.381C31.4665 170.36 31.4192 170.339 31.372 170.312L31.0884 170.159C30.7104 169.958 30.3458 169.75 29.9813 169.543C29.2522 169.12 28.5365 168.67 27.8479 168.212C27.1593 167.748 26.4842 167.27 25.8294 166.771C25.1813 166.272 24.5467 165.767 23.9324 165.247C23.3248 164.727 22.7374 164.194 22.1636 163.66C21.88 163.39 21.5965 163.12 21.3197 162.843L21.1104 162.635L21.0564 162.587L21.0429 162.573L21.1037 162.628L21.1037 162.621C21.0969 162.614 21.1104 162.621 21.0767 162.594L20.9484 162.476C20.7999 162.337 20.6514 162.199 20.5028 162.06L20.2125 161.783C20.1045 161.679 20.0033 161.575 19.8817 161.457C19.6522 161.222 19.3957 160.965 19.1121 160.64L19.0041 160.522L18.8893 160.39L18.7813 160.259L18.6666 160.12L18.4303 159.829C18.3493 159.725 18.2615 159.614 18.1805 159.504C17.8429 159.046 17.4784 158.513 17.0936 157.841C16.9923 157.661 16.8978 157.487 16.8033 157.3C16.702 157.099 16.6075 156.899 16.513 156.691C16.3172 156.254 16.1349 155.79 15.9594 155.25L15.8986 155.049C15.8784 154.986 15.8581 154.917 15.8379 154.841C15.7974 154.695 15.7569 154.55 15.7231 154.404C15.6826 154.259 15.6489 154.113 15.6151 153.961C15.5813 153.802 15.5476 153.635 15.5206 153.476C15.4936 153.317 15.4666 153.15 15.4396 152.991C15.4261 152.915 15.4193 152.818 15.4058 152.735L15.3788 152.471C15.3451 152.118 15.3181 151.779 15.3113 151.397C15.3046 151.21 15.3113 151.03 15.3113 150.843C15.3113 150.663 15.3248 150.469 15.3383 150.282C15.3653 149.901 15.3991 149.527 15.4598 149.153C15.5206 148.779 15.5881 148.398 15.6759 148.037C15.7636 147.677 15.8649 147.324 15.9797 146.97L17.9645 140.922L23.8851 139.502C24.5534 139.342 25.2285 139.204 25.9037 139.107C26.0724 139.079 26.2412 139.058 26.4032 139.038C26.572 139.017 26.7408 138.996 26.9028 138.982L27.3956 138.941L27.8749 138.913C29.1441 138.844 30.2648 138.892 31.1762 138.961L31.3517 138.975L31.5137 138.989L31.831 139.017L32.4116 139.072L32.9382 139.128L33.5188 139.19L34.1129 139.252L34.4099 139.287L34.7002 139.322C35.0918 139.37 35.4766 139.426 35.8681 139.474C37.4141 139.696 38.9196 139.959 40.3981 140.257C40.7626 140.333 41.1407 140.402 41.4985 140.479C41.8631 140.555 42.2276 140.631 42.5854 140.714C42.9432 140.797 43.301 140.874 43.6588 140.957C44.0166 141.04 44.3677 141.123 44.7187 141.206C46.1297 141.546 47.5069 141.892 48.8571 142.245C50.2073 142.599 51.5305 142.959 52.8267 143.305C55.4056 143.998 58.0047 144.684 60.6444 145.384C65.9237 146.783 71.3312 148.231 76.8131 149.929C82.2746 151.619 87.5877 153.483 92.7995 155.34C95.3986 156.268 97.9978 157.203 100.597 158.132C103.203 159.067 105.802 160.016 108.394 160.958C113.566 162.85 118.744 164.741 123.915 166.633C126.494 167.568 129.066 168.503 131.638 169.439C132.921 169.903 134.21 170.36 135.493 170.824C136.715 171.261 137.937 171.697 139.152 172.134C139.597 172.321 140.063 172.515 140.556 172.702C140.799 172.799 141.056 172.896 141.312 172.993C141.569 173.09 141.832 173.214 142.102 173.311C142.217 173.353 142.332 173.388 142.453 173.408C142.575 173.429 142.696 173.45 142.811 173.429C142.932 173.415 143.047 173.367 143.128 173.291C143.209 173.214 143.257 173.104 143.284 173C143.331 172.792 143.311 172.57 143.277 172.362C143.243 172.148 143.182 171.94 143.128 171.725C143.068 171.51 143.02 171.288 142.953 171.067C142.892 170.845 142.831 170.616 142.764 170.381C142.696 170.145 142.622 169.91 142.548 169.667L142.433 169.3L142.372 169.106L142.345 169.009L142.332 168.961L142.325 168.947L142.318 168.933L142.311 168.905L142.271 168.808C141.454 166.709 140.61 164.575 139.787 162.406L139.476 161.589L139.165 160.764C138.956 160.217 138.754 159.663 138.551 159.109C138.349 158.561 138.146 157.993 137.95 157.439L137.802 157.023L137.66 156.614L137.376 155.804C135.871 151.474 134.433 147.137 133.083 142.779C132.637 141.372 132.165 139.904 131.679 138.372C131.192 136.841 130.7 135.255 130.193 133.62C130.065 133.211 129.944 132.802 129.815 132.386C129.687 131.971 129.565 131.555 129.437 131.132C129.181 130.294 128.938 129.435 128.674 128.576C128.546 128.146 128.418 127.71 128.29 127.28C128.168 126.844 128.04 126.407 127.911 125.971C127.783 125.534 127.662 125.091 127.533 124.648C127.473 124.426 127.405 124.204 127.344 123.982C127.284 123.761 127.223 123.539 127.162 123.317C126.912 122.424 126.669 121.53 126.42 120.629C126.176 119.729 125.933 118.821 125.69 117.913C125.441 117.006 125.211 116.091 124.975 115.184C124.853 114.726 124.739 114.269 124.617 113.812L124.273 112.44C124.158 111.983 124.043 111.526 123.928 111.068C123.814 110.611 123.699 110.154 123.591 109.696C123.368 108.782 123.152 107.874 122.929 106.96C122.504 105.145 122.079 103.336 121.68 101.549C121.579 101.105 121.478 100.655 121.377 100.212C121.282 99.7683 121.181 99.3249 121.086 98.8884C120.897 98.0086 120.708 97.1356 120.519 96.2696C120.337 95.4035 120.155 94.5514 119.979 93.7061C119.804 92.8609 119.635 92.0226 119.466 91.1981C119.128 89.5492 118.818 87.9418 118.514 86.3968C118.217 84.8519 117.94 83.3554 117.684 81.9281C117.171 79.0737 116.745 76.4964 116.421 74.2586C116.097 72.0208 115.881 70.1294 115.793 68.6675C115.368 64.5106 115.409 62.2866 115.719 61.2474C116.03 60.2012 116.61 60.3329 117.292 60.8525C118.123 65.5429 118.987 70.2194 119.851 74.8752C120.722 79.531 121.599 84.1937 122.511 88.8564C124.333 98.1818 126.312 107.521 128.647 116.798C129.815 121.433 131.084 126.054 132.455 130.641C133.832 135.227 135.311 139.758 136.863 144.248C137.64 146.492 138.43 148.723 139.24 150.954L139.847 152.617L140.462 154.28L141.083 155.942C141.299 156.504 141.508 157.072 141.724 157.633C142.588 159.871 143.479 162.074 144.37 164.242C144.809 165.316 145.248 166.397 145.694 167.471C145.93 168.06 146.159 168.635 146.389 169.217C146.767 170.208 147.132 171.191 147.469 172.168L147.719 172.903L147.962 173.637C148.124 174.122 148.3 174.6 148.455 175.085C148.603 175.57 148.738 176.062 148.806 176.561C148.84 176.81 148.86 177.06 148.853 177.316C148.846 177.565 148.806 177.822 148.705 178.057C148.61 178.293 148.441 178.501 148.225 178.632C148.009 178.771 147.753 178.84 147.496 178.854C147.24 178.875 146.983 178.847 146.727 178.806C146.47 178.764 146.22 178.695 145.977 178.625C145.39 178.452 144.823 178.217 144.256 178.016C143.972 177.912 143.682 177.829 143.398 177.732L142.548 177.448C141.42 177.067 140.313 176.679 139.226 176.277L138.416 175.979L138.011 175.826L137.896 175.785L137.694 175.716L137.289 175.57L134.041 174.399C131.874 173.616 129.707 172.827 127.547 172.03C118.885 168.85 110.224 165.587 101.508 162.365L94.9733 159.961C92.7995 159.164 90.6189 158.367 88.4181 157.571C86.2172 156.774 84.0029 155.991 81.7683 155.222C79.5337 154.453 77.2789 153.705 75.0038 152.991C72.7287 152.277 70.4536 151.598 68.1853 150.947C65.9169 150.296 63.6621 149.672 61.414 149.056L54.717 147.234L51.3887 146.319C50.2748 146.014 49.1406 145.702 47.9997 145.391C49.1204 145.702 50.2343 146.021 51.3212 146.333C52.4081 146.638 53.4951 146.95 54.582 147.261C56.776 147.878 58.9701 148.488 61.1642 149.104C65.5861 150.344 70.0688 151.626 74.5717 153.053C79.0814 154.481 83.5101 156.039 87.8915 157.633C90.0788 158.43 92.2594 159.233 94.4265 160.03C96.6003 160.834 98.7741 161.63 100.955 162.434C109.67 165.663 118.379 168.933 127.128 172.127C129.316 172.923 131.503 173.72 133.697 174.503C135.5 175.147 137.302 175.792 139.105 176.436C140.239 176.845 141.393 177.24 142.561 177.628L143.446 177.912C143.743 178.009 144.04 178.092 144.33 178.196C144.917 178.397 145.498 178.632 146.105 178.806C146.355 178.875 146.605 178.937 146.862 178.979C147.118 179.02 147.375 179.041 147.631 179.02C147.888 179 148.144 178.93 148.36 178.785C148.468 178.716 148.563 178.625 148.644 178.528C148.725 178.425 148.792 178.314 148.84 178.196C148.934 177.953 148.975 177.697 148.981 177.434C148.988 177.177 148.968 176.914 148.927 176.658C148.846 176.145 148.711 175.646 148.549 175.154C148.394 174.662 148.205 174.171 148.03 173.679L147.773 172.937L147.51 172.196C147.152 171.205 146.774 170.215 146.382 169.224C146.159 168.649 145.937 168.067 145.707 167.478L144.411 164.256C143.54 162.088 142.669 159.892 141.825 157.661C141.609 157.106 141.407 156.538 141.197 155.977L140.59 154.321C140.192 153.22 139.793 152.111 139.402 151.003C138.612 148.786 137.842 146.562 137.086 144.331C135.581 139.862 134.143 135.359 132.813 130.807C131.49 126.255 130.268 121.675 129.147 117.089C126.906 107.909 125.029 98.6875 123.307 89.4799C122.443 84.8726 121.62 80.2723 120.809 75.6789C119.993 71.0855 119.189 66.4851 118.413 61.864C119.635 63.0279 120.884 64.1157 121.424 61.6977C121.424 61.6977 121.296 60.991 121.086 59.834C120.985 59.259 120.857 58.5662 120.722 57.8041C120.587 57.035 120.438 56.1967 120.283 55.303C119.972 53.5293 119.642 51.5686 119.331 49.698C119.02 47.8274 118.737 46.0468 118.521 44.6196C118.447 43.1647 118.406 41.8276 118.386 40.5874C118.366 39.3542 118.372 38.2249 118.399 37.1926C118.426 36.1603 118.474 35.2388 118.534 34.4074C118.602 33.576 118.683 32.8347 118.777 32.1904C118.872 31.546 118.987 30.9849 119.108 30.5138C119.23 30.0426 119.365 29.6547 119.513 29.3429C119.804 28.7193 120.134 28.4145 120.499 28.3729C121.221 28.2898 122.072 29.2667 122.97 30.9364C123.429 31.7747 123.895 32.7793 124.374 33.9155C124.86 35.0517 125.346 36.3196 125.852 37.6775C126.825 40.4696 127.857 43.5873 128.992 47.0653Z" fill="#CBA265"/>
</svg>
