<svg width="1181" height="296" viewBox="0 0 1181 296" fill="none" xmlns="http://www.w3.org/2000/svg">
<path d="M1049.04 219.622C1049.05 218.558 1049.03 217.507 1049.03 216.467C1049.15 211.683 1049.29 207.07 1049.51 202.529C1049.71 197.988 1049.98 193.544 1050.31 189.123C1050.39 188.02 1050.49 186.93 1050.57 185.816C1050.66 184.725 1050.75 183.623 1050.85 182.508C1050.95 181.394 1051.05 180.279 1051.15 179.152C1051.26 178.025 1051.36 176.897 1051.47 175.77C1051.58 174.631 1051.68 173.491 1051.79 172.352C1051.9 171.2 1051.99 170.049 1052.1 168.897C1052.2 167.733 1052.3 166.57 1052.38 165.394C1052.47 164.218 1052.57 163.03 1052.65 161.843C1052.67 160.998 1052.72 160.154 1052.78 159.309C1052.84 158.464 1052.89 157.607 1052.97 156.737C1053.12 155.022 1053.32 153.281 1053.56 151.528C1053.68 150.657 1053.81 149.774 1053.96 148.903C1054.1 148.032 1054.24 147.149 1054.39 146.265C1054.71 144.51 1055.03 142.743 1055.41 140.987C1056.86 133.963 1058.68 127.018 1060.3 120.516C1060.11 121.486 1059.93 122.468 1059.73 123.438C1059.64 123.929 1059.54 124.42 1059.44 124.899C1059.35 125.39 1059.26 125.881 1059.17 126.372C1058.97 127.354 1058.79 128.336 1058.6 129.318C1058.42 130.3 1058.24 131.282 1058.04 132.264C1057.95 132.755 1057.86 133.246 1057.77 133.737C1057.68 134.228 1057.59 134.719 1057.5 135.222C1057.32 136.204 1057.14 137.198 1056.96 138.18C1056.79 139.174 1056.61 140.156 1056.44 141.15L1055.93 144.119C1055.76 145.113 1055.61 146.107 1055.44 147.1C1055.28 148.094 1055.13 149.088 1054.97 150.081C1054.66 152.069 1054.38 154.067 1054.09 156.054C1053.55 160.039 1053.04 164.036 1052.65 168.03C1052.43 170.028 1052.27 172.025 1052.1 174.021C1052.02 175.013 1051.95 176.017 1051.88 177.009C1051.81 178.001 1051.74 179.005 1051.69 179.997C1051.59 181.992 1051.49 183.975 1051.43 185.933C1051.4 186.912 1051.38 187.915 1051.37 188.894C1051.36 189.897 1051.34 190.888 1051.34 191.89C1051.32 195.902 1051.38 199.961 1051.47 204.105C1051.56 208.248 1051.66 212.465 1051.72 216.769C1054.34 213.684 1056.58 209.788 1057.11 205.216C1057.23 202.499 1057.34 199.806 1057.45 197.101C1057.57 194.47 1057.68 191.887 1057.81 189.366C1057.95 186.844 1058.1 184.432 1058.3 181.921C1058.35 181.296 1058.39 180.684 1058.45 180.059C1058.51 179.434 1058.56 178.822 1058.62 178.197C1058.68 177.572 1058.74 176.959 1058.8 176.347L1058.88 175.416L1058.98 174.484C1058.09 174.38 1056.37 174.157 1055.5 174.052C1057.16 167.11 1058.34 160.25 1059.36 153.419C1060.38 146.587 1061.28 139.782 1062.36 132.998C1063.44 126.214 1064.71 119.439 1066.52 112.726C1068.33 106.001 1070.66 99.29 1073.78 92.6493C1073.94 93.7589 1074.8 93.375 1075.41 93.3139C1073.19 100.072 1071.16 106.715 1069.37 113.305C1067.6 119.871 1066.05 126.432 1064.72 133.025C1063.39 139.618 1062.27 146.256 1061.34 152.964C1060.41 159.671 1059.66 166.461 1059.09 173.369C1059.67 168.026 1060.36 162.717 1061.17 157.443C1061.98 152.168 1062.92 146.928 1063.99 141.722C1065.04 136.516 1066.2 131.332 1067.47 126.171L1068.44 122.312C1068.78 121.021 1069.12 119.743 1069.45 118.452C1070.14 115.883 1070.85 113.325 1071.59 110.742C1073.06 105.589 1074.63 100.41 1076.23 95.1932C1077.85 89.9761 1079.53 84.7212 1081.22 79.4049C1082.91 74.0886 1084.62 68.7228 1086.31 63.272C1088 57.8211 1089.69 52.2847 1091.31 46.6519C1091.44 46.1723 1091.62 45.5695 1091.8 44.9178C1091.99 44.2538 1092.19 43.5282 1092.4 42.8027C1092.8 41.3639 1093.21 39.925 1093.48 38.9658C1093.36 36.9504 1093.32 35.068 1093.37 33.3304C1093.43 31.5806 1093.58 29.9878 1093.84 28.5031C1093.97 27.7667 1094.13 27.0665 1094.31 26.3904C1094.36 26.2182 1094.41 26.0583 1094.45 25.8983L1094.53 25.6523L1094.55 25.554L1094.58 25.4679C1094.64 25.2466 1094.71 25.025 1094.79 24.7788C1095.15 23.8179 1095.78 22.6925 1096.68 21.3786C1095.54 21.0953 1094.45 20.2609 1093.37 19.3283C1092.3 18.3957 1091.25 17.3648 1090.15 16.7508C1089.04 16.1368 1087.86 15.9645 1086.57 16.7727C1085.93 17.1766 1085.27 17.8256 1084.65 18.7673C1084.34 19.2381 1084.04 19.7944 1083.78 20.4232C1083.74 20.4973 1083.72 20.5834 1083.68 20.6574C1083.65 20.7438 1083.62 20.8176 1083.58 20.9162C1083.52 21.1008 1083.45 21.2857 1083.39 21.4826C1083.26 21.8643 1083.13 22.2825 1083.01 22.7129C1082.2 22.3988 1080.55 21.7466 1079.74 21.4325C1079.8 20.9422 1079.83 20.4523 1079.89 19.9742C1079.94 19.4841 1079.98 19.0065 1080.02 18.5409C1080.11 17.5732 1080.19 16.6421 1080.27 15.7722C1080.43 13.9593 1080.54 12.2327 1080.51 10.6558C1080.5 9.06638 1080.33 7.62664 1080.01 6.37348C1079.85 5.74078 1079.65 5.15772 1079.41 4.62431C1079.18 4.0909 1078.89 3.60737 1078.58 3.16101C1077.97 2.28053 1077.21 1.59837 1076.34 1.1632C1075.9 0.939627 1075.43 0.789908 1074.94 0.689585C1074.44 0.589263 1073.92 0.550805 1073.36 0.598434C1072.26 0.681467 1071.02 1.06065 1069.59 1.90815C1068.88 2.35024 1068.12 2.89112 1067.3 3.61665C1066.48 4.34217 1065.62 5.22738 1064.71 6.34615C1063.7 7.61336 1062.71 9.06375 1061.76 10.6846C1061.55 11.0556 1061.34 11.4143 1061.12 11.7855C1060.93 12.1318 1060.73 12.4781 1060.55 12.8241C1060.37 13.1702 1060.17 13.5164 1060 13.8622C1059.83 14.208 1059.66 14.566 1059.47 14.9121C1058.12 17.7148 1057.02 20.537 1056.11 23.2454C1055.2 25.9538 1054.46 28.5488 1053.78 30.9591C1053.44 32.1765 1053.1 33.4183 1052.76 34.6601C1052.42 35.9142 1052.08 37.1683 1051.74 38.4346C1049.01 48.6019 1046.14 59.3711 1042.15 69.4656C1039.43 76.8567 1036.72 84.3578 1034.39 92.0346C1033.81 93.9539 1033.26 95.8968 1032.74 97.8271C1032.48 98.7984 1032.23 99.7816 1031.99 100.752C1031.75 101.736 1031.51 102.706 1031.28 103.702C1031.06 104.696 1030.84 105.691 1030.63 106.686L1030.33 108.184L1030.05 109.681C1029.87 110.688 1029.7 111.681 1029.54 112.687C1029.38 113.693 1029.24 114.699 1029.1 115.717C1028.42 121.282 1027.57 126.924 1026.72 132.627C1025.85 138.319 1024.99 144.071 1024.23 149.822C1023.48 155.572 1022.84 161.344 1022.46 167.063C1022.36 168.495 1022.28 169.915 1022.21 171.348C1022.16 172.767 1022.11 174.187 1022.08 175.606C1022.06 177.025 1022.05 178.431 1022.06 179.825C1022.06 180.522 1022.08 181.231 1022.09 181.94C1022.11 182.649 1022.13 183.358 1022.16 184.042C1022.15 185.045 1022.08 186.147 1021.97 187.287C1021.91 187.85 1021.86 188.451 1021.78 189.039C1021.71 189.627 1021.63 190.228 1021.54 190.841C1021.2 193.257 1020.76 195.773 1020.39 198.116C1019.64 202.839 1019.09 206.885 1020.13 208.858C1020.99 211.605 1022.83 211.996 1024.97 211.881C1025.79 205.823 1026.37 199.612 1026.94 193.278C1027.22 190.105 1027.5 186.908 1027.81 183.686C1027.9 182.877 1027.97 182.068 1028.05 181.26C1028.13 180.463 1028.22 179.654 1028.3 178.858C1028.38 178.061 1028.47 177.253 1028.55 176.456C1028.63 175.66 1028.72 174.851 1028.81 174.054C1029.09 170.111 1029.44 166.179 1029.77 162.222C1030.13 158.277 1030.49 154.332 1030.91 150.386C1031.3 146.429 1031.74 142.482 1032.16 138.524C1032.6 134.553 1033.05 130.594 1033.49 126.623C1033.21 130.542 1032.9 134.474 1032.54 138.407C1032.19 142.339 1031.79 146.272 1031.39 150.23C1030.97 154.176 1030.55 158.134 1030.1 162.105C1029.67 166.076 1029.23 170.059 1028.81 174.054L1028.64 176.454L1028.31 181.255L1028.17 183.666C1027.98 186.886 1027.85 190.056 1027.71 193.202C1027.44 199.493 1027.17 205.661 1026.7 211.724C1028.56 211.541 1030.49 211.356 1032.09 212.339C1032.09 212.339 1032.05 212.572 1031.99 212.965C1031.93 213.345 1031.84 213.885 1031.74 214.486C1031.55 215.676 1031.28 217.088 1031.1 218.045C1031.46 219.09 1031.87 219.986 1032.31 220.772C1032.77 221.558 1033.25 222.209 1033.78 222.761C1034.84 223.853 1036.05 224.502 1037.34 224.782C1038.63 225.062 1040.01 224.961 1041.4 224.579C1042.09 224.382 1042.79 224.124 1043.46 223.805C1043.8 223.651 1044.15 223.473 1044.48 223.283C1044.81 223.093 1045.14 222.903 1045.46 222.689C1046.01 222.238 1046.59 221.762 1047.19 221.249C1047.81 220.759 1048.41 220.209 1049.04 219.622Z" fill="#CBA265"/>
<path d="M1056.57 293.81C1056.38 293.654 1056.21 293.498 1056.03 293.342C1055.87 293.161 1055.73 292.98 1055.6 292.786C1055.47 292.592 1055.35 292.398 1055.25 292.216C1055.15 292.022 1055.06 291.815 1054.98 291.62C1054.9 291.413 1054.81 291.218 1054.76 291.01C1054.65 290.595 1054.55 290.18 1054.5 289.739C1054.48 289.518 1054.45 289.298 1054.43 289.089C1054.4 288.869 1054.39 288.636 1054.38 288.415C1054.32 287.507 1054.31 286.549 1054.25 285.531C1054.21 285.016 1054.16 284.501 1054.09 283.95C1054.06 283.681 1054.01 283.399 1053.96 283.13C1053.91 282.849 1053.84 282.555 1053.77 282.274C1053.1 280.618 1053.11 278.874 1053.3 277.076C1053.33 276.855 1053.35 276.621 1053.39 276.411C1053.41 276.202 1053.44 276.005 1053.47 275.795C1053.53 275.389 1053.59 274.982 1053.67 274.588C1053.8 273.786 1053.93 273.01 1054 272.259C1054.12 273.166 1054.2 274.073 1054.26 275.005C1054.3 275.471 1054.33 275.937 1054.34 276.403C1054.35 276.514 1054.35 276.649 1054.35 276.772L1054.37 277.152L1054.38 277.926C1054.42 279.964 1054.41 281.929 1054.56 283.805C1054.72 285.669 1055.02 287.443 1055.66 289.088C1056.31 290.72 1057.29 292.21 1058.78 293.431C1059.03 293.377 1059.29 293.335 1059.55 293.28C1059.8 293.226 1060.04 293.171 1060.27 293.117C1060.72 293.009 1061.15 292.89 1061.49 292.76C1061.67 292.695 1061.83 292.642 1061.96 292.578C1062.1 292.514 1062.22 292.437 1062.33 292.374C1062.53 292.222 1062.65 292.072 1062.67 291.9L1062.6 291.742L1062.54 291.571L1062.43 291.242C1062.36 291.022 1062.28 290.803 1062.22 290.558C1062.16 290.326 1062.09 290.082 1062.04 289.85C1061.99 289.605 1061.94 289.36 1061.89 289.104L1061.83 288.737L1061.78 288.344C1061.74 288.087 1061.72 287.83 1061.69 287.56C1061.64 287.021 1061.6 286.494 1061.59 285.917C1060.7 285.813 1058.96 285.604 1058.09 285.499C1058.97 284.019 1059.27 282.367 1059.26 280.598C1059.26 280.156 1059.25 279.714 1059.21 279.248C1059.17 278.795 1059.14 278.341 1059.09 277.863L1059 277.165C1058.99 277.055 1058.97 276.92 1058.95 276.822L1058.9 276.516L1058.67 275.293C1058.38 273.665 1058.13 272.086 1058.29 270.547C1058.44 269.009 1058.98 267.511 1060.25 266.121C1060.7 266.382 1061.44 266.317 1062.01 266.318C1062.01 266.305 1062.01 266.293 1062.02 266.28C1062.02 266.293 1062.02 266.305 1062.01 266.318C1062.52 266.319 1062.9 266.385 1062.87 266.754C1062.9 266.385 1062.52 266.331 1062.01 266.318C1061.25 269.208 1060.98 272.21 1061 275.366C1061 275.759 1061.01 276.164 1061.02 276.557L1061.03 276.852L1061.03 277.171L1061.04 277.871C1061.06 278.325 1061.07 278.792 1061.08 279.246C1061.1 279.7 1061.12 280.142 1061.13 280.596C1061.22 282.375 1061.35 284.067 1061.57 285.659L1061.55 285.254L1061.55 284.837C1061.55 284.554 1061.55 284.272 1061.55 283.989C1061.55 283.694 1061.56 283.412 1061.57 283.117C1061.58 282.822 1061.6 282.527 1061.61 282.232C1061.67 281.039 1061.75 279.772 1061.85 278.48C1061.9 277.853 1061.95 277.226 1061.99 276.598C1062.04 276.032 1062.09 275.478 1062.15 274.924C1062.26 273.817 1062.39 272.733 1062.53 271.674C1062.68 270.615 1062.82 269.568 1062.99 268.544C1063.15 267.522 1063.34 266.511 1063.51 265.524C1063.69 264.538 1063.88 263.576 1064.06 262.626C1064.24 261.714 1064.43 260.789 1064.61 259.864C1064.62 259.851 1064.62 259.839 1064.64 259.839C1064.64 259.839 1064.64 259.826 1064.65 259.826L1064.66 259.801L1064.67 259.764L1064.69 259.715L1064.72 259.554C1064.81 259.196 1064.91 258.838 1064.99 258.48C1065.1 258.023 1065.34 257.097 1065.46 256.64C1064.43 255.249 1063.86 253.788 1063.56 252.148C1063.52 251.94 1063.48 251.744 1063.46 251.536C1063.43 251.315 1063.41 251.095 1063.38 250.874C1063.36 250.654 1063.34 250.433 1063.33 250.225C1063.33 250.163 1063.32 250.114 1063.32 250.077L1063.28 249.636C1063.25 249.256 1063.24 248.875 1063.22 248.495C1063.2 248.115 1063.2 247.734 1063.2 247.353C1062.09 247.524 1060.7 247.455 1059.26 247.363C1057.83 247.27 1056.35 247.166 1055.06 247.193C1054.42 247.207 1053.84 247.256 1053.32 247.341C1053.06 247.383 1052.82 247.437 1052.61 247.515C1052.4 247.581 1052.21 247.671 1052.04 247.761C1051.88 247.862 1051.74 247.976 1051.62 248.101C1051.57 248.163 1051.53 248.238 1051.48 248.313C1051.44 248.387 1051.4 248.462 1051.36 248.549C1051.32 248.722 1051.29 248.906 1051.3 249.127C1051.3 249.348 1051.34 249.605 1051.42 249.899C1050.54 249.794 1048.77 249.586 1047.89 249.482C1047.64 249.217 1047.37 248.965 1047.04 248.738C1046.72 248.512 1046.37 248.298 1046 248.097C1045.63 247.896 1045.22 247.72 1044.79 247.57C1044.58 247.488 1044.35 247.419 1044.13 247.35C1043.91 247.281 1043.67 247.213 1043.44 247.156C1042.97 247.031 1042.5 246.93 1042 246.843C1041.5 246.755 1041 246.679 1040.49 246.629C1039.46 246.515 1038.42 246.464 1037.39 246.461C1036.36 246.421 1035.35 246.43 1034.37 246.5C1034.12 246.517 1033.89 246.535 1033.65 246.564C1033.54 246.579 1033.42 246.594 1033.29 246.609C1033.23 246.61 1033.18 246.623 1033.12 246.625C1033.06 246.626 1033.01 246.627 1032.95 246.641C1032.55 246.673 1032.11 246.707 1031.61 246.755C1031 246.804 1030.24 246.87 1029.27 246.964C1028.98 246.982 1028.68 247.013 1028.33 247.045C1028.09 247.062 1027.83 247.08 1027.56 247.098C1027.42 247.113 1027.28 247.116 1027.14 247.132L1027.05 247.133C1027.03 247.134 1026.99 247.147 1026.97 247.135C1026.9 247.112 1026.86 247.101 1026.81 247.077C1026.76 247.054 1026.71 247.042 1026.67 247.019L1026.61 246.983C1027.05 247.035 1025.6 246.857 1027.61 247.109L1027.6 247.11L1027.54 247.099L1027.42 247.089L1027.19 247.057L1026.72 247.005L1026.52 246.985L1026.32 246.989C1026.05 247.069 1025.88 247.355 1025.73 247.874C1025.69 248.022 1025.64 248.17 1025.62 248.318C1025.59 248.405 1025.58 248.491 1025.56 248.577C1025.53 248.664 1025.52 248.762 1025.5 248.849C1025.46 249.059 1025.42 249.268 1025.39 249.465C1025.35 249.699 1025.3 249.946 1025.26 250.18C1025.21 250.452 1025.18 250.723 1025.13 251.006C1025.08 251.314 1025.03 251.634 1024.98 251.943C1024.93 252.3 1024.87 252.67 1024.82 253.039C1024.77 253.433 1024.71 253.827 1024.66 254.222L1024.59 254.923C1024.57 255.145 1024.53 255.379 1024.51 255.6C1024.45 256.044 1024.37 256.488 1024.27 256.932C1024.19 257.364 1024.06 257.796 1023.93 258.229C1023.79 258.649 1023.63 259.07 1023.44 259.48C1022.07 263.242 1020.83 266.867 1022.28 270.435C1022.84 271.664 1023.16 272.885 1023.39 274.084C1023.51 274.597 1023.61 275.074 1023.69 275.613C1023.78 276.127 1023.83 276.691 1023.9 277.242C1024.03 278.382 1024.17 279.595 1024.46 280.866C1024.73 282.15 1025.17 283.516 1025.87 284.902C1026.2 285.902 1025.59 287.18 1025.25 288.452C1024.91 289.712 1024.81 290.93 1026.12 291.529C1027.35 292.35 1029.26 292.421 1031.37 292.388C1031.24 289.087 1031.55 285.973 1031.56 283.087C1031.3 281.274 1031.03 279.536 1030.62 277.887C1030.52 277.483 1030.4 277.068 1030.28 276.666C1030.16 276.275 1030.03 275.86 1029.88 275.483C1029.81 275.288 1029.73 275.093 1029.66 274.91L1029.55 274.618L1029.42 274.289C1029.26 273.85 1029.1 273.423 1028.91 272.985C1029.17 273.422 1029.42 273.846 1029.63 274.284L1029.79 274.612L1029.94 274.904C1030.04 275.098 1030.14 275.293 1030.23 275.475C1030.59 276.254 1030.85 277.059 1031.05 277.89C1031.44 279.54 1031.55 281.281 1031.54 283.099C1031.96 286.038 1032.3 289.175 1033.07 292.365C1034.89 292.314 1036.8 292.286 1038.55 292.52C1038.55 292.52 1038.51 293.417 1038.49 293.86C1040.69 294.783 1043.37 295.034 1046.04 295.014C1048.72 294.982 1051.4 294.68 1053.63 294.363C1054.49 294.161 1055.48 293.992 1056.57 293.81Z" fill="#CBA265"/>
<path d="M7.29303 276.176H932.463" stroke="#CBA265" stroke-width="14" stroke-linecap="round"/>
<path d="M419 190H965" stroke="#CBA265" stroke-width="14" stroke-linecap="round"/>
<path d="M20.032 93V41.16H31.936C34.2827 41.16 36.3093 41.416 38.016 41.928C39.7653 42.44 41.216 43.2293 42.368 44.296C43.52 45.3627 44.3733 46.728 44.928 48.392C45.4827 50.0133 45.76 51.9333 45.76 54.152C45.76 56.2853 45.4827 58.1413 44.928 59.72C44.416 61.256 43.6053 62.472 42.496 63.368C41.4293 64.264 40.0427 64.84 38.336 65.096C40.4267 65.5653 42.112 66.376 43.392 67.528C44.672 68.6373 45.6107 70.088 46.208 71.88C46.848 73.6293 47.168 75.7413 47.168 78.216C47.168 80.4347 46.912 82.4613 46.4 84.296C45.888 86.1307 45.0773 87.688 43.968 88.968C42.9013 90.248 41.5147 91.2507 39.808 91.976C38.144 92.6587 36.16 93 33.856 93H20.032ZM27.264 87.816H32.128C35.3707 87.816 37.5253 87.0693 38.592 85.576C39.7013 84.04 40.256 81.5867 40.256 78.216C40.256 76.04 39.9573 74.2267 39.36 72.776C38.8053 71.2827 37.888 70.1733 36.608 69.448C35.3707 68.68 33.6853 68.296 31.552 68.296H27.264V87.816ZM27.264 62.792H31.552C33.6 62.792 35.2 62.5147 36.352 61.96C37.504 61.3627 38.3147 60.424 38.784 59.144C39.2533 57.864 39.488 56.2 39.488 54.152C39.488 51.7627 39.1253 50.0347 38.4 48.968C37.6747 47.9013 36.544 47.24 35.008 46.984C33.472 46.6853 31.4667 46.536 28.992 46.536H27.264V62.792ZM68.2195 93V41.16H88.2515V46.344H75.4515V63.624H85.3715V68.744H75.4515V93H68.2195ZM89.2785 93L100.287 41.16H107.263L118.335 93H111.487L109.119 79.944H98.5585L96.0625 93H89.2785ZM99.5185 74.76H108.159L103.807 51.4L99.5185 74.76ZM123.595 93V41.16H134.027C137.483 41.16 140.341 41.6293 142.603 42.568C144.864 43.464 146.528 44.936 147.595 46.984C148.704 48.9893 149.259 51.6347 149.259 54.92C149.259 56.9253 149.045 58.76 148.619 60.424C148.192 62.0453 147.509 63.432 146.571 64.584C145.632 65.6933 144.395 66.504 142.859 67.016L150.219 93H143.243L136.458 68.68H130.827V93H123.595ZM130.827 63.496H133.579C135.627 63.496 137.291 63.24 138.571 62.728C139.851 62.216 140.789 61.3413 141.387 60.104C141.984 58.8667 142.283 57.1387 142.283 54.92C142.283 51.8907 141.728 49.7147 140.619 48.392C139.509 47.0267 137.312 46.344 134.027 46.344H130.827V63.496ZM156.782 93V41.16H168.686C171.033 41.16 173.059 41.416 174.766 41.928C176.515 42.44 177.966 43.2293 179.118 44.296C180.27 45.3627 181.123 46.728 181.678 48.392C182.233 50.0133 182.51 51.9333 182.51 54.152C182.51 56.2853 182.233 58.1413 181.678 59.72C181.166 61.256 180.355 62.472 179.246 63.368C178.179 64.264 176.793 64.84 175.086 65.096C177.177 65.5653 178.862 66.376 180.142 67.528C181.422 68.6373 182.361 70.088 182.958 71.88C183.598 73.6293 183.918 75.7413 183.918 78.216C183.918 80.4347 183.662 82.4613 183.15 84.296C182.638 86.1307 181.827 87.688 180.718 88.968C179.651 90.248 178.265 91.2507 176.558 91.976C174.894 92.6587 172.91 93 170.606 93H156.782ZM164.014 87.816H168.878C172.121 87.816 174.275 87.0693 175.342 85.576C176.451 84.04 177.006 81.5867 177.006 78.216C177.006 76.04 176.707 74.2267 176.11 72.776C175.555 71.2827 174.638 70.1733 173.358 69.448C172.121 68.68 170.435 68.296 168.302 68.296H164.014V87.816ZM164.014 62.792H168.302C170.35 62.792 171.95 62.5147 173.102 61.96C174.254 61.3627 175.065 60.424 175.534 59.144C176.003 57.864 176.238 56.2 176.238 54.152C176.238 51.7627 175.875 50.0347 175.15 48.968C174.425 47.9013 173.294 47.24 171.758 46.984C170.222 46.6853 168.217 46.536 165.742 46.536H164.014V62.792ZM190.729 93V41.16H197.833V93H190.729ZM218.572 93.64C215.329 93.64 212.726 92.9573 210.764 91.592C208.844 90.184 207.436 88.1573 206.54 85.512C205.686 82.8667 205.26 79.688 205.26 75.976V58.632C205.26 54.8347 205.644 51.6133 206.411 48.968C207.222 46.28 208.63 44.232 210.635 42.824C212.684 41.416 215.521 40.712 219.148 40.712C222.39 40.712 224.993 41.2667 226.956 42.376C228.961 43.4427 230.412 45.1067 231.308 47.368C232.204 49.5867 232.652 52.4027 232.652 55.816V57.736H225.868V56.136C225.868 53.8747 225.718 52.04 225.42 50.632C225.121 49.1813 224.502 48.1147 223.564 47.432C222.668 46.7067 221.238 46.344 219.276 46.344C217.142 46.344 215.585 46.8347 214.604 47.816C213.665 48.7973 213.068 50.1413 212.812 51.848C212.598 53.512 212.492 55.4107 212.492 57.544V76.744C212.492 79.2187 212.662 81.288 213.004 82.952C213.388 84.616 214.092 85.8533 215.116 86.664C216.14 87.4747 217.59 87.88 219.468 87.88C221.345 87.88 222.796 87.432 223.82 86.536C224.844 85.64 225.548 84.3173 225.932 82.568C226.316 80.8187 226.508 78.6427 226.508 76.04V72.456H219.916V67.336H233.036V93H228.492L227.788 87.048C227.105 88.968 226.038 90.5467 224.588 91.784C223.137 93.0213 221.132 93.64 218.572 93.64ZM283.639 102.408L283.062 93H255.095V41.16H262.327V87.816H277.047V41.16H284.279V87.816H289.207V102.408H283.639ZM294.907 93V41.16H315.003V46.536H302.139V63.688H312.571V68.808H302.139V87.816H315.131V93H294.907ZM320.97 93V41.16H328.202V63.56H341.514V41.16H348.746V93H341.514V68.744H328.202V93H320.97ZM362.541 93V46.536H353.773V41.16H378.285V46.536H369.773V93H362.541ZM383.282 93V41.16H396.146C399.261 41.16 401.735 41.736 403.57 42.888C405.447 43.9973 406.813 45.6187 407.666 47.752C408.519 49.8853 408.946 52.4667 408.946 55.496C408.946 58.2267 408.455 60.5947 407.474 62.6C406.535 64.6053 405.127 66.1627 403.25 67.272C401.373 68.3387 399.026 68.872 396.21 68.872H390.514V93H383.282ZM390.514 63.688H393.842C395.933 63.688 397.575 63.4533 398.77 62.984C399.965 62.5147 400.818 61.704 401.33 60.552C401.842 59.3573 402.098 57.6933 402.098 55.56C402.098 53.0853 401.906 51.1867 401.522 49.864C401.181 48.5413 400.434 47.624 399.282 47.112C398.13 46.6 396.338 46.344 393.906 46.344H390.514V63.688ZM414.032 93V41.16H434.128V46.536H421.264V63.688H431.696V68.808H421.264V87.816H434.256V93H414.032ZM454.592 93L455.552 41.16H462.656L471.808 83.208L481.024 41.16H488.064L489.024 93H483.2L482.624 55.368L473.856 93H469.76L461.056 55.368L460.48 93H454.592ZM496.97 93V41.16H504.202V62.728H506.25C510.004 62.728 513.098 63.176 515.53 64.072C517.962 64.9253 519.775 66.44 520.97 68.616C522.207 70.792 522.826 73.864 522.826 77.832C522.826 80.52 522.506 82.824 521.866 84.744C521.226 86.6213 520.223 88.1787 518.858 89.416C517.535 90.6533 515.85 91.5707 513.802 92.168C511.796 92.7227 509.386 93 506.57 93H496.97ZM504.202 87.816H506.57C508.746 87.816 510.516 87.5813 511.882 87.112C513.29 86.6 514.335 85.6187 515.018 84.168C515.7 82.7173 516.042 80.584 516.042 77.768C516.042 74.2267 515.359 71.7093 513.994 70.216C512.628 68.7227 510.111 67.976 506.442 67.976H504.202V87.816ZM528.201 93V41.16H535.434V93H528.201ZM571.405 93.576C567.906 93.576 565.112 92.8933 563.021 91.528C560.93 90.1627 559.437 88.2213 558.541 85.704C557.645 83.144 557.197 80.1573 557.197 76.744V57.096C557.197 53.6827 557.645 50.76 558.541 48.328C559.48 45.8533 560.973 43.976 563.021 42.696C565.112 41.3733 567.906 40.712 571.405 40.712C574.904 40.712 577.677 41.3733 579.725 42.696C581.773 44.0187 583.245 45.896 584.141 48.328C585.08 50.76 585.549 53.6827 585.549 57.096V76.808C585.549 80.1787 585.08 83.1227 584.141 85.64C583.245 88.1573 581.773 90.12 579.725 91.528C577.677 92.8933 574.904 93.576 571.405 93.576ZM571.405 87.88C573.325 87.88 574.776 87.496 575.757 86.728C576.738 85.9173 577.4 84.808 577.741 83.4C578.082 81.9493 578.253 80.264 578.253 78.344V55.624C578.253 53.704 578.082 52.0613 577.741 50.696C577.4 49.288 576.738 48.2213 575.757 47.496C574.776 46.728 573.325 46.344 571.405 46.344C569.485 46.344 568.013 46.728 566.989 47.496C566.008 48.2213 565.346 49.288 565.005 50.696C564.664 52.0613 564.493 53.704 564.493 55.624V78.344C564.493 80.264 564.664 81.9493 565.005 83.4C565.346 84.808 566.008 85.9173 566.989 86.728C568.013 87.496 569.485 87.88 571.405 87.88ZM588.881 93L600.913 66.504L590.097 41.16H597.073L606.801 66.184H607.185V41.16H613.329V66.184H613.777L623.441 41.16H630.481L619.601 66.504L631.697 93H624.593L613.841 67.08H613.329V93H607.185V67.08H606.737L595.921 93H588.881ZM635.907 93V41.16H642.307V77.064L657.475 41.16H662.659V93H656.323V56.52L641.283 93H635.907ZM670.782 93V41.16H682.686C685.033 41.16 687.059 41.416 688.766 41.928C690.515 42.44 691.966 43.2293 693.118 44.296C694.27 45.3627 695.123 46.728 695.678 48.392C696.233 50.0133 696.51 51.9333 696.51 54.152C696.51 56.2853 696.233 58.1413 695.678 59.72C695.166 61.256 694.355 62.472 693.246 63.368C692.179 64.264 690.793 64.84 689.086 65.096C691.177 65.5653 692.862 66.376 694.142 67.528C695.422 68.6373 696.361 70.088 696.958 71.88C697.598 73.6293 697.918 75.7413 697.918 78.216C697.918 80.4347 697.662 82.4613 697.15 84.296C696.638 86.1307 695.827 87.688 694.718 88.968C693.651 90.248 692.265 91.2507 690.558 91.976C688.894 92.6587 686.91 93 684.606 93H670.782ZM678.014 87.816H682.878C686.121 87.816 688.275 87.0693 689.342 85.576C690.451 84.04 691.006 81.5867 691.006 78.216C691.006 76.04 690.707 74.2267 690.11 72.776C689.555 71.2827 688.638 70.1733 687.358 69.448C686.121 68.68 684.435 68.296 682.302 68.296H678.014V87.816ZM678.014 62.792H682.302C684.35 62.792 685.95 62.5147 687.102 61.96C688.254 61.3627 689.065 60.424 689.534 59.144C690.003 57.864 690.238 56.2 690.238 54.152C690.238 51.7627 689.875 50.0347 689.15 48.968C688.425 47.9013 687.294 47.24 685.758 46.984C684.222 46.6853 682.217 46.536 679.742 46.536H678.014V62.792ZM700.441 93V87.624C701.379 87.6667 702.233 87.6027 703.001 87.432C703.811 87.2613 704.515 86.856 705.113 86.216C705.753 85.576 706.307 84.5733 706.777 83.208C707.246 81.8427 707.651 79.9867 707.993 77.64C708.334 75.2933 708.633 72.328 708.889 68.744L710.617 41.16H733.401V93H726.169V46.536H716.825L715.609 68.744C715.395 72.072 715.118 75.08 714.777 77.768C714.435 80.4133 713.923 82.7387 713.241 84.744C712.601 86.7067 711.726 88.3493 710.617 89.672C709.55 90.952 708.185 91.8693 706.521 92.424C704.857 92.9787 702.83 93.1707 700.441 93ZM738.332 93L749.212 69.704C746.908 68.68 745.052 66.9947 743.644 64.648C742.279 62.2587 741.596 59.208 741.596 55.496C741.596 52.7227 742.108 50.2693 743.132 48.136C744.156 45.96 745.863 44.2533 748.252 43.016C750.641 41.7787 753.841 41.16 757.852 41.16H768.348V93H761.116V71.496H757.02C756.935 71.496 756.657 71.496 756.188 71.496C755.719 71.4533 755.441 71.432 755.356 71.432L746.396 93H738.332ZM758.428 66.312H761.116V46.344H758.236C754.993 46.344 752.54 47.048 750.876 48.456C749.255 49.864 748.444 52.1893 748.444 55.432C748.444 59.1013 749.191 61.832 750.684 63.624C752.177 65.416 754.759 66.312 758.428 66.312ZM776.407 93V41.16H796.503V46.536H783.639V63.688H794.071V68.808H783.639V87.816H796.631V93H776.407ZM802.342 93L803.302 41.16H810.406L819.558 83.208L828.774 41.16H835.814L836.774 93H830.95L830.374 55.368L821.606 93H817.51L808.806 55.368L808.23 93H802.342ZM859.345 93V41.16H871.249C873.595 41.16 875.622 41.416 877.329 41.928C879.078 42.44 880.529 43.2293 881.681 44.296C882.833 45.3627 883.686 46.728 884.241 48.392C884.795 50.0133 885.073 51.9333 885.073 54.152C885.073 56.2853 884.795 58.1413 884.241 59.72C883.729 61.256 882.918 62.472 881.809 63.368C880.742 64.264 879.355 64.84 877.649 65.096C879.739 65.5653 881.425 66.376 882.705 67.528C883.985 68.6373 884.923 70.088 885.521 71.88C886.161 73.6293 886.481 75.7413 886.481 78.216C886.481 80.4347 886.225 82.4613 885.713 84.296C885.201 86.1307 884.39 87.688 883.281 88.968C882.214 90.248 880.827 91.2507 879.121 91.976C877.457 92.6587 875.473 93 873.169 93H859.345ZM866.577 87.816H871.441C874.683 87.816 876.838 87.0693 877.905 85.576C879.014 84.04 879.569 81.5867 879.569 78.216C879.569 76.04 879.27 74.2267 878.673 72.776C878.118 71.2827 877.201 70.1733 875.921 69.448C874.683 68.68 872.998 68.296 870.865 68.296H866.577V87.816ZM866.577 62.792H870.865C872.913 62.792 874.513 62.5147 875.665 61.96C876.817 61.3627 877.627 60.424 878.097 59.144C878.566 57.864 878.801 56.2 878.801 54.152C878.801 51.7627 878.438 50.0347 877.713 48.968C876.987 47.9013 875.857 47.24 874.321 46.984C872.785 46.6853 870.779 46.536 868.305 46.536H866.577V62.792ZM890.091 93L901.099 41.16H908.075L919.147 93H912.299L909.931 79.944H899.371L896.875 93H890.091ZM900.331 74.76H908.971L904.619 51.4L900.331 74.76ZM924.407 93V41.16H931.639V87.752H940.983V41.16H948.215V87.752H957.111V41.16H964.343V93H924.407ZM972.407 93V41.16H978.807V77.064L993.975 41.16H999.159V93H992.823V56.52L977.783 93H972.407ZM20.032 176V124.16H48.576V176H41.344V129.344H27.264V176H20.032ZM56.657 176V124.16H69.521C72.6357 124.16 75.1103 124.736 76.945 125.888C78.8223 126.997 80.1877 128.619 81.041 130.752C81.8943 132.885 82.321 135.467 82.321 138.496C82.321 141.227 81.8303 143.595 80.849 145.6C79.9103 147.605 78.5023 149.163 76.625 150.272C74.7477 151.339 72.401 151.872 69.585 151.872H63.889V176H56.657ZM63.889 146.688H67.217C69.3077 146.688 70.9503 146.453 72.145 145.984C73.3397 145.515 74.193 144.704 74.705 143.552C75.217 142.357 75.473 140.693 75.473 138.56C75.473 136.085 75.281 134.187 74.897 132.864C74.5557 131.541 73.809 130.624 72.657 130.112C71.505 129.6 69.713 129.344 67.281 129.344H63.889V146.688ZM100.655 176.576C97.1563 176.576 94.3617 175.893 92.271 174.528C90.1803 173.163 88.687 171.221 87.791 168.704C86.895 166.144 86.447 163.157 86.447 159.744V140.096C86.447 136.683 86.895 133.76 87.791 131.328C88.7297 128.853 90.223 126.976 92.271 125.696C94.3617 124.373 97.1563 123.712 100.655 123.712C104.154 123.712 106.927 124.373 108.975 125.696C111.023 127.019 112.495 128.896 113.391 131.328C114.33 133.76 114.799 136.683 114.799 140.096V159.808C114.799 163.179 114.33 166.123 113.391 168.64C112.495 171.157 111.023 173.12 108.975 174.528C106.927 175.893 104.154 176.576 100.655 176.576ZM100.655 170.88C102.575 170.88 104.026 170.496 105.007 169.728C105.988 168.917 106.65 167.808 106.991 166.4C107.332 164.949 107.503 163.264 107.503 161.344V138.624C107.503 136.704 107.332 135.061 106.991 133.696C106.65 132.288 105.988 131.221 105.007 130.496C104.026 129.728 102.575 129.344 100.655 129.344C98.735 129.344 97.263 129.728 96.239 130.496C95.2577 131.221 94.5963 132.288 94.255 133.696C93.9137 135.061 93.743 136.704 93.743 138.624V161.344C93.743 163.264 93.9137 164.949 94.255 166.4C94.5963 167.808 95.2577 168.917 96.239 169.728C97.263 170.496 98.735 170.88 100.655 170.88ZM134.899 176.576C131.23 176.576 128.371 175.808 126.323 174.272C124.318 172.736 122.91 170.667 122.099 168.064C121.331 165.461 120.947 162.56 120.947 159.36V141.056C120.947 137.557 121.331 134.507 122.099 131.904C122.91 129.301 124.318 127.296 126.323 125.888C128.371 124.437 131.23 123.712 134.899 123.712C138.142 123.712 140.702 124.309 142.579 125.504C144.499 126.699 145.864 128.405 146.675 130.624C147.528 132.843 147.955 135.509 147.955 138.624V142.72H141.107V139.072C141.107 137.152 141 135.467 140.787 134.016C140.616 132.523 140.104 131.371 139.251 130.56C138.398 129.749 136.968 129.344 134.963 129.344C132.915 129.344 131.422 129.792 130.483 130.688C129.544 131.541 128.926 132.779 128.627 134.4C128.371 135.979 128.243 137.835 128.243 139.968V160.512C128.243 163.115 128.456 165.184 128.883 166.72C129.31 168.213 130.014 169.28 130.995 169.92C131.976 170.56 133.299 170.88 134.963 170.88C136.926 170.88 138.334 170.453 139.187 169.6C140.04 168.704 140.574 167.488 140.787 165.952C141 164.416 141.107 162.624 141.107 160.576V156.736H147.955V160.576C147.955 163.733 147.571 166.528 146.803 168.96C146.035 171.349 144.712 173.227 142.835 174.592C140.958 175.915 138.312 176.576 134.899 176.576ZM160.541 176V129.536H151.773V124.16H176.285V129.536H167.773V176H160.541ZM181.282 176V124.16H194.146C197.261 124.16 199.735 124.736 201.57 125.888C203.447 126.997 204.813 128.619 205.666 130.752C206.519 132.885 206.946 135.467 206.946 138.496C206.946 141.227 206.455 143.595 205.474 145.6C204.535 147.605 203.127 149.163 201.25 150.272C199.373 151.339 197.026 151.872 194.21 151.872H188.514V176H181.282ZM188.514 146.688H191.842C193.933 146.688 195.575 146.453 196.77 145.984C197.965 145.515 198.818 144.704 199.33 143.552C199.842 142.357 200.098 140.693 200.098 138.56C200.098 136.085 199.906 134.187 199.522 132.864C199.181 131.541 198.434 130.624 197.282 130.112C196.13 129.6 194.338 129.344 191.906 129.344H188.514V146.688ZM208.466 176L219.474 124.16H226.45L237.522 176H230.674L228.306 162.944H217.746L215.25 176H208.466ZM218.706 157.76H227.346L222.994 134.4L218.706 157.76ZM242.782 176V124.16H250.014V146.56H263.326V124.16H270.558V176H263.326V151.744H250.014V176H242.782ZM291.649 176.576C287.98 176.576 285.121 175.808 283.073 174.272C281.068 172.736 279.66 170.667 278.849 168.064C278.081 165.461 277.697 162.56 277.697 159.36V141.056C277.697 137.557 278.081 134.507 278.849 131.904C279.66 129.301 281.068 127.296 283.073 125.888C285.121 124.437 287.98 123.712 291.649 123.712C294.892 123.712 297.452 124.309 299.329 125.504C301.249 126.699 302.614 128.405 303.425 130.624C304.278 132.843 304.705 135.509 304.705 138.624V142.72H297.857V139.072C297.857 137.152 297.75 135.467 297.537 134.016C297.366 132.523 296.854 131.371 296.001 130.56C295.148 129.749 293.718 129.344 291.713 129.344C289.665 129.344 288.172 129.792 287.233 130.688C286.294 131.541 285.676 132.779 285.377 134.4C285.121 135.979 284.993 137.835 284.993 139.968V160.512C284.993 163.115 285.206 165.184 285.633 166.72C286.06 168.213 286.764 169.28 287.745 169.92C288.726 170.56 290.049 170.88 291.713 170.88C293.676 170.88 295.084 170.453 295.937 169.6C296.79 168.704 297.324 167.488 297.537 165.952C297.75 164.416 297.857 162.624 297.857 160.576V156.736H304.705V160.576C304.705 163.733 304.321 166.528 303.553 168.96C302.785 171.349 301.462 173.227 299.585 174.592C297.708 175.915 295.062 176.576 291.649 176.576ZM317.291 176V129.536H308.523V124.16H333.035V129.536H324.523V176H317.291ZM338.032 176V124.16H349.936C352.283 124.16 354.309 124.416 356.016 124.928C357.765 125.44 359.216 126.229 360.368 127.296C361.52 128.363 362.373 129.728 362.928 131.392C363.483 133.013 363.76 134.933 363.76 137.152C363.76 139.285 363.483 141.141 362.928 142.72C362.416 144.256 361.605 145.472 360.496 146.368C359.429 147.264 358.043 147.84 356.336 148.096C358.427 148.565 360.112 149.376 361.392 150.528C362.672 151.637 363.611 153.088 364.208 154.88C364.848 156.629 365.168 158.741 365.168 161.216C365.168 163.435 364.912 165.461 364.4 167.296C363.888 169.131 363.077 170.688 361.968 171.968C360.901 173.248 359.515 174.251 357.808 174.976C356.144 175.659 354.16 176 351.856 176H338.032ZM345.264 170.816H350.128C353.371 170.816 355.525 170.069 356.592 168.576C357.701 167.04 358.256 164.587 358.256 161.216C358.256 159.04 357.957 157.227 357.36 155.776C356.805 154.283 355.888 153.173 354.608 152.448C353.371 151.68 351.685 151.296 349.552 151.296H345.264V170.816ZM345.264 145.792H349.552C351.6 145.792 353.2 145.515 354.352 144.96C355.504 144.363 356.315 143.424 356.784 142.144C357.253 140.864 357.488 139.2 357.488 137.152C357.488 134.763 357.125 133.035 356.4 131.968C355.675 130.901 354.544 130.24 353.008 129.984C351.472 129.685 349.467 129.536 346.992 129.536H345.264V145.792ZM368.779 176L379.787 124.16H386.763L397.835 176H390.987L388.619 162.944H378.059L375.562 176H368.779ZM379.019 157.76H387.659L383.307 134.4L379.019 157.76ZM437.56 176V152.064C434.744 152.704 432.205 153.024 429.944 153.024C427 153.024 424.546 152.597 422.584 151.744C420.664 150.848 419.213 149.504 418.232 147.712C417.293 145.92 416.824 143.68 416.824 140.992V124.16H424.12V140.992C424.12 142.613 424.354 143.979 424.824 145.088C425.293 146.155 426.061 146.965 427.128 147.52C428.194 148.032 429.602 148.288 431.352 148.288C432.248 148.288 433.208 148.224 434.232 148.096C435.298 147.968 436.408 147.776 437.56 147.52V124.16H444.856V176H437.56ZM452.907 176V124.16H473.003V129.536H460.139V146.688H470.571V151.808H460.139V170.816H473.131V176H452.907ZM478.97 176V124.16H491.833C494.948 124.16 497.423 124.736 499.258 125.888C501.135 126.997 502.5 128.619 503.354 130.752C504.207 132.885 504.634 135.467 504.634 138.496C504.634 141.227 504.143 143.595 503.162 145.6C502.223 147.605 500.815 149.163 498.938 150.272C497.06 151.339 494.714 151.872 491.898 151.872H486.202V176H478.97ZM486.202 146.688H489.53C491.62 146.688 493.263 146.453 494.458 145.984C495.652 145.515 496.506 144.704 497.018 143.552C497.53 142.357 497.786 140.693 497.786 138.56C497.786 136.085 497.594 134.187 497.21 132.864C496.868 131.541 496.122 130.624 494.97 130.112C493.818 129.6 492.026 129.344 489.594 129.344H486.202V146.688ZM509.72 176V124.16H529.816V129.536H516.952V146.688H527.384V151.808H516.952V170.816H529.944V176H509.72ZM547.11 176.576C544.294 176.576 541.947 176.043 540.07 174.976C538.193 173.909 536.785 172.373 535.846 170.368C534.907 168.363 534.438 165.995 534.438 163.264V161.536H541.222C541.222 161.835 541.222 162.155 541.222 162.496C541.222 162.795 541.243 163.072 541.286 163.328C541.371 165.547 541.798 167.36 542.566 168.768C543.334 170.176 544.849 170.88 547.11 170.88C548.774 170.88 550.033 170.496 550.886 169.728C551.739 168.917 552.315 167.808 552.614 166.4C552.913 164.949 553.062 163.285 553.062 161.408C553.062 158.72 552.465 156.48 551.27 154.688C550.075 152.896 547.814 151.893 544.486 151.68C544.315 151.637 544.102 151.616 543.846 151.616C543.633 151.616 543.398 151.616 543.142 151.616C542.929 151.616 542.715 151.616 542.502 151.616V146.112C542.673 146.112 542.865 146.112 543.078 146.112C543.334 146.112 543.569 146.112 543.782 146.112C544.038 146.069 544.23 146.048 544.358 146.048C547.643 145.835 549.905 144.981 551.142 143.488C552.422 141.952 553.062 139.819 553.062 137.088C553.062 134.741 552.593 132.864 551.654 131.456C550.758 130.005 549.137 129.28 546.79 129.28C544.529 129.28 542.907 130.005 541.926 131.456C540.945 132.864 540.369 134.72 540.198 137.024C540.198 137.28 540.198 137.557 540.198 137.856C540.198 138.112 540.198 138.389 540.198 138.688H533.35V136.96C533.35 134.187 533.862 131.819 534.886 129.856C535.91 127.893 537.403 126.379 539.366 125.312C541.329 124.245 543.718 123.712 546.534 123.712C549.393 123.712 551.803 124.267 553.766 125.376C555.771 126.443 557.286 127.979 558.31 129.984C559.377 131.947 559.91 134.315 559.91 137.088C559.91 140.203 559.227 142.741 557.862 144.704C556.539 146.667 554.747 147.968 552.486 148.608C554.022 149.12 555.345 149.931 556.454 151.04C557.563 152.149 558.417 153.579 559.014 155.328C559.611 157.035 559.91 159.061 559.91 161.408C559.91 164.48 559.483 167.168 558.63 169.472C557.777 171.733 556.411 173.483 554.534 174.72C552.657 175.957 550.182 176.576 547.11 176.576ZM586.853 176V129.536H578.085V124.16H602.597V129.536H594.085V176H586.853ZM646.891 185.408L646.315 176H607.595V124.16H614.827V170.816H624.171V124.16H631.403V170.816H640.299V124.16H647.595V170.816H652.523V185.408H646.891ZM655.341 176L666.349 124.16H673.325L684.397 176H677.549L675.181 162.944H664.621L662.125 176H655.341ZM665.581 157.76H674.221L669.869 134.4L665.581 157.76ZM693.666 176V129.536H684.898V124.16H709.41V129.536H700.898V176H693.666ZM714.407 176V124.16H734.503V129.536H721.639V146.688H732.071V151.808H721.639V170.816H734.631V176H714.407ZM736.566 176V170.624C737.504 170.667 738.358 170.603 739.126 170.432C739.936 170.261 740.64 169.856 741.238 169.216C741.878 168.576 742.432 167.573 742.902 166.208C743.371 164.843 743.776 162.987 744.118 160.64C744.459 158.293 744.758 155.328 745.014 151.744L746.742 124.16H769.526V176H762.294V129.536H752.95L751.734 151.744C751.52 155.072 751.243 158.08 750.902 160.768C750.56 163.413 750.048 165.739 749.366 167.744C748.726 169.707 747.851 171.349 746.742 172.672C745.675 173.952 744.31 174.869 742.646 175.424C740.982 175.979 738.955 176.171 736.566 176ZM777.657 176V124.16H784.889V145.728H786.937C790.692 145.728 793.785 146.176 796.217 147.072C798.649 147.925 800.462 149.44 801.657 151.616C802.894 153.792 803.513 156.864 803.513 160.832C803.513 163.52 803.193 165.824 802.553 167.744C801.913 169.621 800.91 171.179 799.545 172.416C798.222 173.653 796.537 174.571 794.489 175.168C792.484 175.723 790.073 176 787.257 176H777.657ZM784.889 170.816H787.257C789.433 170.816 791.204 170.581 792.569 170.112C793.977 169.6 795.022 168.619 795.705 167.168C796.388 165.717 796.729 163.584 796.729 160.768C796.729 157.227 796.046 154.709 794.681 153.216C793.316 151.723 790.798 150.976 787.129 150.976H784.889V170.816ZM809.282 176V124.16H816.514V146.56H829.826V124.16H837.058V176H829.826V151.744H816.514V176H809.282ZM845.157 176V124.16H852.389V145.728H854.437C858.192 145.728 861.285 146.176 863.717 147.072C866.149 147.925 867.962 149.44 869.157 151.616C870.394 153.792 871.013 156.864 871.013 160.832C871.013 163.52 870.693 165.824 870.053 167.744C869.413 169.621 868.41 171.179 867.045 172.416C865.722 173.653 864.037 174.571 861.989 175.168C859.984 175.723 857.573 176 854.757 176H845.157ZM852.389 170.816H854.757C856.933 170.816 858.704 170.581 860.069 170.112C861.477 169.6 862.522 168.619 863.205 167.168C863.888 165.717 864.229 163.584 864.229 160.768C864.229 157.227 863.546 154.709 862.181 153.216C860.816 151.723 858.298 150.976 854.629 150.976H852.389V170.816ZM876.389 176V124.16H883.621V176H876.389ZM891.72 176V124.16H898.12V160.064L913.288 124.16H918.472V176H912.136V139.52L897.095 176H891.72ZM905.736 120.128C902.664 120.128 900.488 119.296 899.208 117.632C897.97 115.968 897.352 113.899 897.352 111.424H901.32C901.362 112.96 901.704 114.155 902.344 115.008C903.026 115.819 904.157 116.224 905.736 116.224C907.357 116.224 908.488 115.797 909.128 114.944C909.81 114.091 910.152 112.917 910.152 111.424H914.184C914.184 113.899 913.544 115.968 912.264 117.632C911.026 119.296 908.85 120.128 905.736 120.128ZM941.22 176V124.16H947.62V160.064L962.788 124.16H967.972V176H961.636V139.52L946.595 176H941.22ZM20.032 259V207.16H27.264V230.2H29.952L39.232 207.16H46.464L36.224 231.8L47.744 259H40.512L30.016 233.72H27.264V259H20.032ZM52.532 259V207.16H65.396C68.5107 207.16 70.9853 207.736 72.82 208.888C74.6973 209.997 76.0627 211.619 76.916 213.752C77.7693 215.885 78.196 218.467 78.196 221.496C78.196 224.227 77.7053 226.595 76.724 228.6C75.7853 230.605 74.3773 232.163 72.5 233.272C70.6227 234.339 68.276 234.872 65.46 234.872H59.764V259H52.532ZM59.764 229.688H63.092C65.1827 229.688 66.8253 229.453 68.02 228.984C69.2147 228.515 70.068 227.704 70.58 226.552C71.092 225.357 71.348 223.693 71.348 221.56C71.348 219.085 71.156 217.187 70.772 215.864C70.4307 214.541 69.684 213.624 68.532 213.112C67.38 212.6 65.588 212.344 63.156 212.344H59.764V229.688ZM83.282 259V207.16H103.378V212.536H90.514V229.688H100.946V234.808H90.514V253.816H103.506V259H83.282ZM106.529 259L117.537 207.16H124.513L135.585 259H128.737L126.369 245.944H115.809L113.312 259H106.529ZM116.769 240.76H125.409L121.057 217.4L116.769 240.76ZM144.853 259V212.536H136.085V207.16H160.597V212.536H152.085V259H144.853ZM165.595 259V207.16H171.995V243.064L187.163 207.16H192.347V259H186.011V222.52L170.97 259H165.595ZM200.47 259V207.16H212.374C214.72 207.16 216.747 207.416 218.454 207.928C220.203 208.44 221.654 209.229 222.806 210.296C223.958 211.363 224.811 212.728 225.366 214.392C225.92 216.013 226.198 217.933 226.198 220.152C226.198 222.285 225.92 224.141 225.366 225.72C224.854 227.256 224.043 228.472 222.934 229.368C221.867 230.264 220.48 230.84 218.774 231.096C220.864 231.565 222.55 232.376 223.83 233.528C225.11 234.637 226.048 236.088 226.646 237.88C227.286 239.629 227.606 241.741 227.606 244.216C227.606 246.435 227.35 248.461 226.838 250.296C226.326 252.131 225.515 253.688 224.406 254.968C223.339 256.248 221.952 257.251 220.246 257.976C218.582 258.659 216.598 259 214.294 259H200.47ZM207.702 253.816H212.566C215.808 253.816 217.963 253.069 219.03 251.576C220.139 250.04 220.694 247.587 220.694 244.216C220.694 242.04 220.395 240.227 219.798 238.776C219.243 237.283 218.326 236.173 217.046 235.448C215.808 234.68 214.123 234.296 211.99 234.296H207.702V253.816ZM207.702 228.792H211.99C214.038 228.792 215.638 228.515 216.79 227.96C217.942 227.363 218.752 226.424 219.222 225.144C219.691 223.864 219.926 222.2 219.926 220.152C219.926 217.763 219.563 216.035 218.838 214.968C218.112 213.901 216.982 213.24 215.446 212.984C213.91 212.685 211.904 212.536 209.43 212.536H207.702V228.792ZM234.032 259V207.16H241.264V229.56H254.576V207.16H261.808V259H254.576V234.744H241.264V259H234.032ZM269.907 259V207.16H277.139V228.728H279.187C282.942 228.728 286.035 229.176 288.467 230.072C290.899 230.925 292.712 232.44 293.907 234.616C295.144 236.792 295.763 239.864 295.763 243.832C295.763 246.52 295.443 248.824 294.803 250.744C294.163 252.621 293.16 254.179 291.795 255.416C290.472 256.653 288.787 257.571 286.739 258.168C284.734 258.723 282.323 259 279.507 259H269.907ZM277.139 253.816H279.507C281.683 253.816 283.454 253.581 284.819 253.112C286.227 252.6 287.272 251.619 287.955 250.168C288.638 248.717 288.979 246.584 288.979 243.768C288.979 240.227 288.296 237.709 286.931 236.216C285.566 234.723 283.048 233.976 279.379 233.976H277.139V253.816ZM301.139 259V207.16H308.371V259H301.139ZM316.47 259V207.16H322.87V243.064L338.038 207.16H343.222V259H336.886V222.52L321.845 259H316.47ZM330.486 203.128C327.414 203.128 325.238 202.296 323.958 200.632C322.72 198.968 322.102 196.899 322.102 194.424H326.07C326.112 195.96 326.454 197.155 327.094 198.008C327.776 198.819 328.907 199.224 330.486 199.224C332.107 199.224 333.238 198.797 333.878 197.944C334.56 197.091 334.902 195.917 334.902 194.424H338.934C338.934 196.899 338.294 198.968 337.014 200.632C335.776 202.296 333.6 203.128 330.486 203.128ZM365.97 259V207.16H394.514V259H387.282V212.344H373.202V259H365.97ZM415.843 259.576C412.344 259.576 409.549 258.893 407.459 257.528C405.368 256.163 403.875 254.221 402.979 251.704C402.083 249.144 401.635 246.157 401.635 242.744V223.096C401.635 219.683 402.083 216.76 402.979 214.328C403.917 211.853 405.411 209.976 407.459 208.696C409.549 207.373 412.344 206.712 415.843 206.712C419.341 206.712 422.115 207.373 424.163 208.696C426.211 210.019 427.683 211.896 428.579 214.328C429.517 216.76 429.987 219.683 429.987 223.096V242.808C429.987 246.179 429.517 249.123 428.579 251.64C427.683 254.157 426.211 256.12 424.163 257.528C422.115 258.893 419.341 259.576 415.843 259.576ZM415.843 253.88C417.763 253.88 419.213 253.496 420.195 252.728C421.176 251.917 421.837 250.808 422.179 249.4C422.52 247.949 422.691 246.264 422.691 244.344V221.624C422.691 219.704 422.52 218.061 422.179 216.696C421.837 215.288 421.176 214.221 420.195 213.496C419.213 212.728 417.763 212.344 415.843 212.344C413.923 212.344 412.451 212.728 411.427 213.496C410.445 214.221 409.784 215.288 409.443 216.696C409.101 218.061 408.931 219.704 408.931 221.624V244.344C408.931 246.264 409.101 247.949 409.443 249.4C409.784 250.808 410.445 251.917 411.427 252.728C412.451 253.496 413.923 253.88 415.843 253.88ZM433.767 268.408V253.816H436.135C436.86 253.219 437.564 252.493 438.247 251.64C438.972 250.787 439.633 249.677 440.231 248.312C440.871 246.904 441.447 245.112 441.959 242.936C442.471 240.717 442.919 237.944 443.303 234.616C443.729 231.288 444.049 227.256 444.263 222.52L445.095 207.16H466.791V253.816H471.783V268.408H466.215L465.639 259H439.911L439.335 268.408H433.767ZM442.855 253.816H459.623V212.536H451.239L450.727 224.248C450.556 228.856 450.279 232.739 449.895 235.896C449.553 239.011 449.127 241.592 448.615 243.64C448.145 245.645 447.591 247.288 446.951 248.568C446.353 249.805 445.692 250.808 444.967 251.576C444.284 252.344 443.58 253.091 442.855 253.816ZM474.02 259L484.836 231.864L474.212 207.16H480.932L488.804 225.464L495.972 207.16H502.692L491.812 232.44L503.204 259H496.484L488.036 239.48L480.74 259H474.02ZM521.343 259.576C517.844 259.576 515.049 258.893 512.959 257.528C510.868 256.163 509.375 254.221 508.479 251.704C507.583 249.144 507.135 246.157 507.135 242.744V223.096C507.135 219.683 507.583 216.76 508.479 214.328C509.417 211.853 510.911 209.976 512.959 208.696C515.049 207.373 517.844 206.712 521.343 206.712C524.841 206.712 527.615 207.373 529.663 208.696C531.711 210.019 533.183 211.896 534.079 214.328C535.017 216.76 535.487 219.683 535.487 223.096V242.808C535.487 246.179 535.017 249.123 534.079 251.64C533.183 254.157 531.711 256.12 529.663 257.528C527.615 258.893 524.841 259.576 521.343 259.576ZM521.343 253.88C523.263 253.88 524.713 253.496 525.695 252.728C526.676 251.917 527.337 250.808 527.679 249.4C528.02 247.949 528.191 246.264 528.191 244.344V221.624C528.191 219.704 528.02 218.061 527.679 216.696C527.337 215.288 526.676 214.221 525.695 213.496C524.713 212.728 523.263 212.344 521.343 212.344C519.423 212.344 517.951 212.728 516.927 213.496C515.945 214.221 515.284 215.288 514.943 216.696C514.601 218.061 514.431 219.704 514.431 221.624V244.344C514.431 246.264 514.601 247.949 514.943 249.4C515.284 250.808 515.945 251.917 516.927 252.728C517.951 253.496 519.423 253.88 521.343 253.88ZM539.267 268.408V253.816H541.635C542.36 253.219 543.064 252.493 543.747 251.64C544.472 250.787 545.133 249.677 545.731 248.312C546.371 246.904 546.947 245.112 547.459 242.936C547.971 240.717 548.419 237.944 548.803 234.616C549.229 231.288 549.549 227.256 549.763 222.52L550.595 207.16H572.291V253.816H577.283V268.408H571.715L571.139 259H545.411L544.835 268.408H539.267ZM548.355 253.816H565.123V212.536H556.739L556.227 224.248C556.056 228.856 555.779 232.739 555.395 235.896C555.053 239.011 554.627 241.592 554.115 243.64C553.645 245.645 553.091 247.288 552.451 248.568C551.853 249.805 551.192 250.808 550.467 251.576C549.784 252.344 549.08 253.091 548.355 253.816ZM597.345 259V207.16H604.577V230.2H607.265L616.545 207.16H623.777L613.537 231.8L625.057 259H617.825L607.329 233.72H604.577V259H597.345ZM644.47 259V207.16H657.333C660.448 207.16 662.923 207.736 664.758 208.888C666.635 209.997 668 211.619 668.854 213.752C669.707 215.885 670.134 218.467 670.134 221.496C670.134 224.227 669.643 226.595 668.662 228.6C667.723 230.605 666.315 232.163 664.438 233.272C662.56 234.339 660.214 234.872 657.398 234.872H651.702V259H644.47ZM651.702 229.688H655.03C657.12 229.688 658.763 229.453 659.958 228.984C661.152 228.515 662.006 227.704 662.518 226.552C663.03 225.357 663.286 223.693 663.286 221.56C663.286 219.085 663.094 217.187 662.71 215.864C662.368 214.541 661.622 213.624 660.47 213.112C659.318 212.6 657.526 212.344 655.094 212.344H651.702V229.688ZM671.654 259L682.662 207.16H689.638L700.71 259H693.862L691.494 245.944H680.934L678.438 259H671.654ZM681.894 240.76H690.534L686.182 217.4L681.894 240.76ZM705.97 259V207.16H728.242V212.408H713.202V228.728H714.802C718.556 228.728 721.65 229.176 724.082 230.072C726.556 230.925 728.391 232.44 729.586 234.616C730.823 236.792 731.442 239.864 731.442 243.832C731.442 246.52 731.122 248.824 730.482 250.744C729.842 252.621 728.839 254.179 727.474 255.416C726.151 256.653 724.466 257.571 722.418 258.168C720.412 258.723 718.002 259 715.186 259H705.97ZM713.202 253.816H715.25C717.383 253.816 719.132 253.581 720.498 253.112C721.906 252.6 722.93 251.619 723.57 250.168C724.252 248.717 724.594 246.584 724.594 243.768C724.594 240.227 723.911 237.709 722.546 236.216C721.223 234.723 718.727 233.976 715.058 233.976H713.202V253.816ZM750.843 259.576C747.344 259.576 744.549 258.893 742.459 257.528C740.368 256.163 738.875 254.221 737.979 251.704C737.083 249.144 736.635 246.157 736.635 242.744V223.096C736.635 219.683 737.083 216.76 737.979 214.328C738.917 211.853 740.411 209.976 742.459 208.696C744.549 207.373 747.344 206.712 750.843 206.712C754.341 206.712 757.115 207.373 759.163 208.696C761.211 210.019 762.683 211.896 763.579 214.328C764.517 216.76 764.987 219.683 764.987 223.096V242.808C764.987 246.179 764.517 249.123 763.579 251.64C762.683 254.157 761.211 256.12 759.163 257.528C757.115 258.893 754.341 259.576 750.843 259.576ZM750.843 253.88C752.763 253.88 754.213 253.496 755.195 252.728C756.176 251.917 756.837 250.808 757.179 249.4C757.52 247.949 757.691 246.264 757.691 244.344V221.624C757.691 219.704 757.52 218.061 757.179 216.696C756.837 215.288 756.176 214.221 755.195 213.496C754.213 212.728 752.763 212.344 750.843 212.344C748.923 212.344 747.451 212.728 746.427 213.496C745.445 214.221 744.784 215.288 744.443 216.696C744.101 218.061 743.931 219.704 743.931 221.624V244.344C743.931 246.264 744.101 247.949 744.443 249.4C744.784 250.808 745.445 251.917 746.427 252.728C747.451 253.496 748.923 253.88 750.843 253.88ZM777.791 259V212.536H769.023V207.16H793.535V212.536H785.023V259H777.791ZM798.532 259V207.16H818.628V212.536H805.764V229.688H816.196V234.808H805.764V253.816H818.756V259H798.532Z" fill="#060402"/>
</svg>
