<svg width="153" height="194" viewBox="0 0 153 194" fill="none" xmlns="http://www.w3.org/2000/svg">
<path d="M25.8361 189.051C25.7533 188.306 25.6704 187.559 25.5883 186.821C23.9522 173.16 21.7345 159.589 19.8453 144.427C18.6197 133.799 16.7327 121.727 15.2742 111.136C16.8634 123.707 18.6495 136.578 20.379 149.333C22.1062 162.088 23.77 174.727 25.0912 186.846C24.7143 185.659 24.3343 184.35 23.9887 182.915C23.6431 181.48 23.3259 179.917 23.0662 178.225C22.5093 174.14 21.9562 170.082 21.4061 166.046C20.8485 162.011 20.2932 157.999 19.7408 154.002C19.9021 153.978 20.2163 153.932 20.3745 153.908C19.8901 151.084 19.4505 148.277 19.0287 145.486C18.6077 142.694 18.2077 139.917 17.8322 137.149C17.4553 134.382 17.0895 131.624 16.735 128.872C16.3864 126.118 16.0385 123.37 15.6915 120.623C14.3136 109.63 12.9267 98.6413 11.0173 87.3359C11.0405 88.1547 10.8457 87.6934 10.7203 87.5397C10.7128 87.4837 10.7053 87.4307 10.6979 87.3784C10.7053 87.4299 10.7128 87.4837 10.7203 87.5397C10.609 87.4001 10.5516 87.5023 10.7412 88.9161C10.5516 87.5023 10.6098 87.4008 10.7203 87.5397C12.284 98.7047 13.7687 109.511 15.2227 120.317C16.6708 131.126 18.1181 141.93 19.6132 153.09C17.1903 135.777 14.8114 118.773 12.4169 101.662C11.2263 93.105 10.0597 84.5174 8.89898 75.8484C8.6131 73.6808 8.32648 71.5072 8.03985 69.3291C7.75471 67.1503 7.46361 64.9662 7.18444 62.774C6.62238 58.3895 6.05361 53.9796 5.50648 49.5331C5.31838 48.0194 4.94218 44.9851 4.75408 43.4691C4.62346 40.4058 4.4152 37.3522 4.14574 34.3068C4.00989 32.7841 3.86359 31.2628 3.7061 29.7431C3.54786 28.2234 3.37692 26.7059 3.19629 25.1899C4.17784 26.6089 5.05414 20.3531 6.18274 32.5243C6.34247 32.5049 6.66269 32.4661 6.82317 32.4474C6.17453 20.218 7.87713 15.4125 9.96189 27.4583C12.2288 41.0127 13.8373 59.2613 16.3356 75.8573C18.0733 87.942 19.8677 100.014 21.224 112.143C23.0512 128.832 25.8257 146.931 27.6932 163.619C27.8813 165.134 28.153 166.927 28.4531 168.811C28.6054 169.753 28.7621 170.718 28.9189 171.684C29.0786 172.648 29.2383 173.613 29.3943 174.554C30.0146 178.319 30.5341 181.713 30.5297 183.259C30.6386 185.46 30.3132 185.599 29.8833 185.327C29.1428 180.365 28.4031 175.409 27.6656 170.472C27.3036 168.002 26.9416 165.538 26.5811 163.078C26.2191 160.619 25.8742 158.163 25.5256 155.714C23.9208 143.684 22.3757 131.645 21.0105 119.591C22.2182 131.397 23.7969 143.478 25.5256 155.714C25.8541 158.159 26.1758 160.607 26.5117 163.052C26.8453 165.498 27.1782 167.944 27.5119 170.39C28.1844 175.281 28.8569 180.173 29.5295 185.064C29.1488 184.758 28.7562 184.468 28.5345 185.112C28.5345 185.112 29.0055 188.127 29.2413 189.636C29.3876 195.797 28.0366 194.462 26.7699 191.573C26.4878 190.829 26.1705 189.993 25.8376 189.057L25.8361 189.051Z" fill="#CAA164"/>
<path d="M127.928 22.8372C127.362 22.814 126.797 22.7901 126.236 22.7692C115.86 22.4811 105.496 22.8379 93.9718 22.7327C85.9029 22.5625 76.692 22.8969 68.6306 23.0491C87.7444 22.9864 107.825 22.4953 126.205 23.2656C124.357 23.6814 122.145 24.0262 119.562 24.0755C113.346 24.0426 107.212 24.0531 101.129 24.0956C101.126 23.9329 101.12 23.6157 101.117 23.4552C83.8495 24.2643 67.6983 23.279 50.4365 24.4106C51.0523 24.4853 50.6903 24.6234 50.5649 24.7301C50.5223 24.7316 50.482 24.7323 50.4425 24.7331C50.482 24.7323 50.5223 24.7308 50.5649 24.7301C50.4514 24.8234 50.5238 24.8928 51.5987 24.8727C50.5238 24.8928 50.4522 24.8234 50.5649 24.7301C67.5587 24.2524 83.4546 24.1083 100.434 24.1009C74.0728 24.2957 48.6689 25.0891 21.6535 25.5982C20.5033 25.6198 18.1991 25.6631 17.0474 25.6848C12.4307 25.2884 7.81854 25.2138 3.21458 25.3004C4.34915 24.4726 -0.288393 22.9476 8.9337 23.0962C8.93072 22.9349 8.92474 22.6125 8.92176 22.4513C-0.31004 21.819 -3.80854 19.6275 5.39564 18.8087C15.7486 17.969 29.5836 18.3526 42.2452 17.7921C51.4591 17.4569 60.6707 17.1225 69.8883 17.2711C82.5671 17.5159 96.3865 17.0942 109.067 17.5002C113.679 17.5749 121.734 16.9389 124.048 17.3793C125.707 17.5801 125.778 17.9219 125.533 18.3093C117.959 18.3952 110.409 18.5198 102.942 18.59C93.78 18.5818 84.6168 18.5542 75.4582 18.4056C84.4183 18.6788 93.6142 18.6773 102.942 18.59C110.392 18.5967 117.848 18.59 125.302 18.6221C125.035 18.9565 124.78 19.3043 125.24 19.6141C125.24 19.6141 127.543 19.5708 128.695 19.5491C133.319 20.268 132.186 21.4182 129.901 22.2676C129.317 22.4423 128.661 22.6394 127.929 22.8379L127.928 22.8372Z" fill="#CAA164"/>
<path d="M145.146 186.018C145.042 185.273 144.938 184.529 144.835 183.79C144.314 180.383 143.81 176.973 143.259 173.548C143.121 172.692 142.982 171.834 142.844 170.974C142.774 170.544 142.704 170.114 142.633 169.684C142.566 169.253 142.498 168.821 142.43 168.389C142.156 166.661 141.88 164.924 141.603 163.176C141.463 162.301 141.322 161.424 141.181 160.544C141.04 159.664 140.896 158.781 140.764 157.892C140.495 156.115 140.224 154.324 139.951 152.514C139.816 151.61 139.681 150.7 139.544 149.786C139.409 148.872 139.272 147.953 139.148 147.027C138.893 145.175 138.641 143.302 138.393 141.404C137.109 130.763 135.241 118.665 133.921 108.035C134.106 109.611 134.291 111.192 134.477 112.778C134.571 113.57 134.664 114.364 134.758 115.159C134.851 115.954 134.957 116.747 135.058 117.543C135.261 119.133 135.464 120.728 135.668 122.324C135.77 123.122 135.873 123.922 135.976 124.72C136.08 125.52 136.177 126.32 136.289 127.119C136.724 130.316 137.161 133.52 137.597 136.723C138.051 139.924 138.505 143.124 138.958 146.316C140.791 159.084 142.687 171.717 144.339 183.826C144.133 183.236 143.927 182.616 143.723 181.965C143.519 181.313 143.315 180.631 143.129 179.915C142.75 178.484 142.397 176.925 142.098 175.233C141.936 174.212 141.774 173.193 141.612 172.176C141.531 171.668 141.449 171.159 141.368 170.651L141.246 169.89L141.13 169.128C140.817 167.097 140.506 165.073 140.195 163.055C139.555 159.021 138.973 155 138.364 151.001C138.525 150.975 138.839 150.925 138.996 150.901C138.472 148.076 138.025 145.264 137.583 142.468C137.363 141.07 137.15 139.676 136.941 138.284C136.889 137.937 136.838 137.589 136.786 137.242C136.738 136.894 136.689 136.546 136.64 136.199C136.544 135.504 136.448 134.81 136.353 134.116C136.165 132.729 135.979 131.344 135.793 129.962C135.702 129.271 135.61 128.579 135.519 127.889C135.428 127.199 135.336 126.509 135.254 125.818C134.919 123.056 134.584 120.299 134.25 117.543L134.001 115.477C133.921 114.787 133.843 114.097 133.764 113.408C133.603 112.028 133.443 110.648 133.283 109.266C133.117 107.885 132.951 106.503 132.785 105.118C132.623 103.733 132.46 102.346 132.296 100.956C132.13 99.5665 131.958 98.1745 131.781 96.7794C131.602 95.3843 131.423 93.9855 131.243 92.5822C130.886 89.7749 130.502 86.9534 130.083 84.1103C130.089 84.9314 129.904 84.4641 129.782 84.3066C129.775 84.2506 129.769 84.1969 129.763 84.1446C129.769 84.1969 129.776 84.2506 129.782 84.3066C129.674 84.164 129.614 84.2656 129.773 85.686C129.614 84.2648 129.674 84.164 129.782 84.3066C130.111 87.1132 130.437 89.8966 130.761 92.6636C130.916 94.0475 131.091 95.4254 131.257 96.7995C131.424 98.1745 131.59 99.5456 131.756 100.914C131.92 102.282 132.084 103.648 132.247 105.012C132.419 106.374 132.591 107.735 132.762 109.093C132.932 110.452 133.101 111.81 133.27 113.166C133.439 114.523 133.601 115.88 133.783 117.234C134.134 119.945 134.484 122.655 134.836 125.371C135.005 126.73 135.197 128.087 135.378 129.447C135.561 130.808 135.744 132.17 135.928 133.536C136.111 134.901 136.294 136.269 136.476 137.641C136.669 139.011 136.862 140.386 137.055 141.764C137.248 143.142 137.44 144.525 137.633 145.912C137.73 146.606 137.826 147.301 137.923 147.997C138.024 148.693 138.125 149.39 138.227 150.088C138.145 149.546 138.063 149.005 137.98 148.463C137.901 147.922 137.822 147.38 137.744 146.84C137.587 145.758 137.43 144.677 137.273 143.598C136.957 141.438 136.642 139.283 136.327 137.131C136.025 134.978 135.723 132.827 135.422 130.679C135.269 129.605 135.118 128.532 134.966 127.459L134.851 126.654L134.743 125.849L134.527 124.24C133.952 119.948 133.353 115.665 132.815 111.375C132.538 109.231 132.261 107.087 131.984 104.942C131.722 102.795 131.46 100.647 131.198 98.4969C130.657 94.1997 130.18 89.8876 129.68 85.5651C129.618 85.0247 129.556 84.4843 129.494 83.9431L129.401 83.1317L129.315 82.3196C129.199 81.2358 129.083 80.152 128.967 79.066C128.735 76.8946 128.503 74.7195 128.27 72.5392C128.055 70.3574 127.84 68.1704 127.623 65.9774C127.411 63.7844 127.183 61.5861 126.994 59.3782C126.603 54.9631 126.188 50.5233 125.847 46.044C125.726 44.5191 125.482 41.4632 125.361 39.936C125.377 36.8615 125.323 33.7929 125.203 30.7304L125.105 28.4344C125.075 27.6693 125.04 26.9034 125.003 26.1391C124.929 24.6097 124.841 23.081 124.744 21.553C125.195 22.2905 125.726 21.1059 126.2 21.2687C126.677 21.4306 127.09 22.9369 127.327 29.0531C127.487 29.0419 127.809 29.0203 127.97 29.0091C127.975 22.8787 128.479 18.639 129.148 17.4522C129.487 16.8573 129.862 17.0282 130.248 18.1031C130.632 19.1787 131.02 21.1597 131.375 24.1924C131.469 25.0456 131.56 25.9167 131.648 26.8042C131.734 27.6917 131.822 28.5956 131.911 29.5144C132.087 31.3521 132.252 33.2503 132.409 35.1962C132.709 39.0903 133.043 43.1718 133.352 47.3518C133.391 47.8743 133.43 48.3983 133.469 48.923C133.508 49.4485 133.546 49.9747 133.592 50.5017C133.678 51.5564 133.765 52.6156 133.853 53.6777C134.032 55.8013 134.212 57.9369 134.392 60.0724C134.436 60.6061 134.486 61.1398 134.539 61.6727C134.59 62.2057 134.643 62.7386 134.694 63.2716C134.801 64.336 134.907 65.3996 135.013 66.4596C135.125 67.5195 135.237 68.5757 135.347 69.6281C135.461 70.6798 135.576 71.7278 135.707 72.7669C136.059 75.7951 136.412 78.8234 136.764 81.8516C137.127 84.8784 137.497 87.9036 137.843 90.9319L138.101 93.2033L138.372 95.4732C138.549 96.9862 138.723 98.4999 138.89 100.014L139.379 104.559C139.547 106.074 139.708 107.589 139.862 109.105C139.967 110.148 140.073 111.197 140.18 112.251C140.235 112.778 140.291 113.305 140.346 113.834C140.402 114.364 140.457 114.894 140.52 115.425C140.765 117.549 141.021 119.689 141.281 121.841C141.413 122.917 141.545 123.996 141.677 125.077C141.742 125.618 141.814 126.158 141.885 126.699C141.957 127.24 142.028 127.781 142.099 128.323C142.387 130.49 142.675 132.662 142.963 134.834C143.558 139.177 144.153 143.521 144.741 147.816C145.043 149.963 145.337 152.099 145.619 154.22C145.896 156.341 146.17 158.445 146.441 160.525C146.655 162.036 146.957 163.823 147.288 165.701C147.457 166.639 147.63 167.601 147.803 168.563C147.984 169.524 148.165 170.484 148.342 171.421C148.694 173.295 149.019 175.077 149.26 176.583C149.38 177.336 149.479 178.02 149.551 178.613C149.621 179.206 149.664 179.707 149.676 180.093C149.847 182.289 149.525 182.436 149.088 182.175C148.636 179.707 148.222 177.234 147.795 174.768C147.582 173.534 147.368 172.301 147.156 171.069C147.05 170.453 146.944 169.837 146.837 169.222C146.731 168.607 146.633 167.99 146.531 167.375C146.126 164.912 145.723 162.453 145.32 160C145.22 159.387 145.12 158.774 145.02 158.161C144.925 157.547 144.83 156.935 144.736 156.322C144.547 155.096 144.359 153.873 144.171 152.65L143.518 148.146C143.406 147.396 143.308 146.644 143.204 145.893L142.897 143.638L142.287 139.129L141.984 136.874L141.699 134.616C141.323 131.606 140.948 128.597 140.585 125.586C140.242 122.573 139.906 119.56 139.576 116.546C139.867 119.498 140.176 122.467 140.502 125.453C140.845 128.436 141.216 131.434 141.594 134.446C141.69 135.199 141.785 135.953 141.881 136.708C141.984 137.462 142.087 138.217 142.191 138.973C142.402 140.483 142.612 141.998 142.823 143.516C142.931 144.275 143.038 145.034 143.145 145.795C143.254 146.555 143.358 147.317 143.476 148.077C143.707 149.598 143.939 151.122 144.172 152.649L144.705 156.313L144.972 158.145L145.252 159.974C145.627 162.414 146.002 164.854 146.377 167.294L146.659 169.125L146.954 170.953L147.542 174.609L148.128 178.266C148.227 178.875 148.32 179.486 148.423 180.094L148.729 181.92C148.339 181.624 147.939 181.344 147.736 181.994C147.736 181.994 148.292 184.997 148.57 186.499C148.891 192.659 147.504 191.368 146.155 188.51C145.852 187.773 145.51 186.945 145.151 186.017L145.146 186.018Z" fill="#CAA164"/>
<path d="M146.782 189.346C146.23 189.314 145.677 189.282 145.13 189.253C135 188.807 124.871 189.006 113.618 188.725C105.739 188.432 96.7372 188.627 88.8616 188.656C107.531 188.884 127.152 188.698 145.094 189.748C143.282 190.135 141.116 190.447 138.594 190.456C132.523 190.329 126.532 190.246 120.589 190.196C120.589 190.033 120.588 189.715 120.587 189.555C103.709 190.102 87.948 188.871 71.0706 189.74C71.6707 189.823 71.3154 189.956 71.1915 190.061C71.1497 190.061 71.1101 190.061 71.0721 190.062C71.1101 190.062 71.1504 190.062 71.1915 190.061C87.7972 189.842 103.325 189.94 119.91 190.191C94.159 189.985 69.3344 190.391 42.94 190.489C41.8167 190.494 39.5647 190.502 38.4398 190.506C33.9366 190.039 29.4327 189.894 24.934 189.911C26.0544 189.1 21.5467 187.505 30.5531 187.794C30.5531 187.633 30.5516 187.31 30.5508 187.149C21.543 186.376 18.1579 184.132 27.1606 183.453C37.2851 182.771 50.7924 183.365 63.1674 182.997C72.1716 182.802 81.1742 182.608 90.1754 182.897C102.556 183.334 116.06 183.123 128.439 183.721C132.943 183.866 140.819 183.353 143.072 183.828C144.69 184.053 144.756 184.397 144.509 184.78C137.11 184.751 129.734 184.761 122.44 184.718C113.491 184.571 104.542 184.403 95.5981 184.115C104.346 184.525 113.327 184.663 122.44 184.718C129.717 184.838 137 184.945 144.279 185.09C144.014 185.42 143.759 185.764 144.204 186.082C144.204 186.082 146.454 186.073 147.579 186.069C152.085 186.859 150.961 187.991 148.717 188.806C148.144 188.972 147.5 189.159 146.782 189.346V189.346Z" fill="#CAA164"/>
<path d="M25.2972 72.8914C25.2987 72.7339 25.3002 72.5764 25.3017 72.4211C25.2733 71.7068 25.2233 70.9992 25.1442 70.2923C25.0629 69.5862 24.9725 68.8771 24.8733 68.1598C24.8247 67.8007 24.7703 67.4409 24.724 67.0767C24.6792 66.7124 24.6337 66.3444 24.5881 65.9735C24.5456 65.6018 24.5008 65.227 24.4694 64.8456C24.4373 64.4642 24.4105 64.0783 24.3903 63.6864C24.3754 61.4785 23.8731 59.0324 23.6275 56.8611C23.7783 59.4497 24.0925 62.0883 24.3664 64.7113C24.6381 67.3357 24.8621 69.9452 24.815 72.5099C24.5784 72.3002 24.3515 72.0621 24.1731 71.7881C23.9947 71.5142 23.8574 71.2067 23.7895 70.8596C23.7432 70.4356 23.6976 70.0124 23.6521 69.5914C23.6081 69.1697 23.5618 68.7502 23.514 68.3322C23.4133 67.4969 23.3237 66.6654 23.2199 65.8399C23.3804 65.813 23.6939 65.7615 23.8514 65.7354C23.6909 65.1658 23.573 64.5933 23.47 64.0223C23.3677 63.4513 23.2849 62.8803 23.2259 62.3093C23.1647 61.7382 23.1139 61.1687 23.0736 60.5985C23.0393 60.0282 23.0057 59.4594 22.9714 58.8906C22.8482 56.6133 22.7183 54.3501 22.1085 52.0437C22.0383 52.2176 21.8988 52.131 21.7913 52.1056C21.7898 52.0944 21.7883 52.0832 21.7875 52.0728C21.789 52.0832 21.7898 52.0944 21.7913 52.1056C22.0757 54.4083 22.3235 56.6357 22.5437 58.869C22.7668 61.1015 22.9788 63.3363 23.1968 65.6518C23.1378 65.2054 23.0893 64.7583 23.0333 64.3134C22.9766 63.8685 22.9199 63.4244 22.8631 62.9818C22.8079 62.5384 22.7527 62.0958 22.6974 61.6539C22.6407 61.212 22.5802 60.7709 22.528 60.3297C22.4198 59.4475 22.2996 58.5674 22.1951 57.6859C22.1398 57.2455 22.0846 56.8051 22.0294 56.364C21.9779 55.9228 21.9264 55.4817 21.8749 55.0398C21.6636 53.273 21.4808 51.4973 21.3121 49.7036C21.2747 49.255 21.2374 48.8049 21.2001 48.3533C21.1643 47.9017 21.124 47.4494 21.0963 46.9948C21.0374 46.0857 20.9739 45.1721 20.9366 44.2495C20.9224 43.9352 20.8941 43.306 20.8799 42.9917C21.0993 42.3528 21.2404 41.7191 21.3203 41.0891C21.3591 40.7741 21.3867 40.4591 21.4039 40.1449C21.4203 39.8306 21.4233 39.5171 21.4173 39.2036C22.2302 39.4985 23.8148 38.2273 23.5461 40.7144C23.7073 40.7099 24.0298 40.701 24.1903 40.6965C24.565 39.4485 25.3151 38.5901 26.0556 38.3505C26.7968 38.1094 27.5298 38.4848 27.8776 39.6866C28.0493 40.3636 28.156 41.0981 28.2173 41.8706C28.2732 42.6439 28.3061 43.4545 28.3218 44.286C28.3285 44.7018 28.3404 45.122 28.3546 45.5445C28.368 45.967 28.3837 46.3925 28.4054 46.8164C28.4292 47.2411 28.4651 47.6644 28.5084 48.0854C28.5531 48.5056 28.6032 48.9236 28.6785 49.3349C29.0234 51.7346 29.4242 54.1157 29.3869 56.5521C29.3765 56.9716 29.3742 57.3955 29.3839 57.8217C29.3966 58.248 29.4168 58.6764 29.4414 59.1071C29.4862 59.9692 29.5735 60.8366 29.6452 61.7062C29.6795 62.1413 29.7265 62.5742 29.7616 63.0087C29.7989 63.4423 29.8295 63.8768 29.8579 64.3089C29.8885 64.7411 29.9124 65.1718 29.9258 65.601C29.9385 66.0302 29.9415 66.4586 29.9385 66.8834C29.9534 67.1894 30.0176 67.5447 30.0997 67.9157C30.1408 68.1015 30.1871 68.2904 30.2333 68.48C30.2819 68.6688 30.3304 68.8577 30.3774 69.042C30.5625 69.7802 30.6902 70.4505 30.514 70.7961C30.3752 71.2694 30.0423 71.356 29.6541 71.3664C29.5638 70.8723 29.4824 70.3759 29.3974 69.8818C29.3145 69.3869 29.2227 68.895 29.1451 68.4009C29.0667 67.9075 28.9891 67.4141 28.9107 66.9222C28.8711 66.6766 28.8353 66.4303 28.8025 66.184C28.7689 65.9376 28.736 65.6921 28.7024 65.4465C28.4785 63.0214 28.315 60.591 28.3329 58.1509C28.1881 60.5537 28.38 62.993 28.7024 65.4465C28.7502 65.9391 28.7905 66.434 28.8465 66.9259L29.004 68.4053L29.3384 71.3657C29.001 71.3604 28.6509 71.3597 28.3636 71.5418C28.3636 71.5418 28.4882 72.1449 28.5502 72.4465C28.0105 73.8184 26.8461 73.7594 25.9302 73.3123C25.7376 73.1899 25.5204 73.0518 25.2995 72.8936L25.2972 72.8914Z" fill="#CAA164"/>
<path d="M59.2367 41.9271C59.0807 41.8935 58.9247 41.8591 58.7701 41.8271C55.9091 41.3434 53.048 41.5046 49.8698 41.1821C47.6447 40.8597 45.1016 41.0209 42.8772 41.0209C48.1507 41.318 53.693 41.2053 58.7597 42.3219C58.2476 42.7026 57.6356 43.0064 56.9227 43.0064C55.2082 42.8564 53.5161 42.7511 51.8373 42.6795V42.039C47.0692 42.5227 42.619 41.2329 37.8508 42.039C38.0202 42.1249 37.9195 42.2562 37.8844 42.3607C37.8725 42.3607 37.8613 42.3607 37.8508 42.3615C37.862 42.3615 37.8732 42.3615 37.8844 42.3607C42.5749 42.204 46.9609 42.3593 51.6455 42.672C44.3723 42.3705 37.3597 42.6847 29.9044 42.6847H28.6332C27.362 42.201 26.0894 42.0398 24.819 42.0398C25.1362 41.2336 23.865 39.6214 26.4081 39.9438V39.2989C23.8643 38.4928 22.9111 36.2356 25.4542 35.5907C28.3145 34.9457 32.1295 35.5907 35.625 35.2682C38.1688 35.107 40.7119 34.9457 43.2534 35.2682C46.7497 35.7519 50.5647 35.5907 54.0602 36.2356C55.3321 36.3968 57.5572 35.9131 58.1932 36.3968C58.65 36.6282 58.6679 36.9715 58.5977 37.3545C56.5077 37.2977 54.4245 37.2798 52.3636 37.2097C49.8362 37.029 47.3088 36.8282 44.7829 36.508C47.2535 36.9506 49.7899 37.1223 52.3636 37.2097C54.4192 37.3567 56.4764 37.4903 58.532 37.6635C58.4566 37.9927 58.3842 38.336 58.5096 38.654H59.4628C60.7347 39.4601 60.416 40.5887 59.7816 41.3949C59.6196 41.5583 59.4375 41.7435 59.2344 41.9278L59.2367 41.9271Z" fill="#CAA164"/>
<path d="M57.7951 67.4109C57.8287 67.2855 57.8631 67.1593 57.8952 67.0354C58.3789 64.7304 58.2176 62.4262 58.5401 59.8652C58.8625 58.0731 58.7013 56.0241 58.7013 54.2327C58.4042 58.4806 58.5169 62.945 57.4003 67.0264C57.0196 66.6137 56.7158 66.121 56.7158 65.547C56.8659 64.1654 56.9711 62.8024 57.0428 61.4506H57.6832C57.1995 57.6095 58.4893 54.0244 57.6832 50.1841C57.5973 50.3207 57.466 50.2393 57.3615 50.211C57.3615 50.2012 57.3615 50.1923 57.3607 50.1841C57.3607 50.193 57.3607 50.202 57.3615 50.211C57.2697 50.1856 57.1995 50.2012 57.1995 50.4401C57.1995 50.2012 57.2704 50.1856 57.3615 50.211C57.5182 53.9894 57.363 57.5229 57.0502 61.2961C57.3518 55.4374 57.0375 49.7877 57.0375 43.782V42.7579C57.5212 41.7338 57.6824 40.7089 57.6824 39.6856C58.4886 39.9409 60.1009 38.9168 59.7784 40.9657H60.4233C61.2295 38.9168 63.4866 38.1487 64.1316 40.1976C64.7765 42.5019 64.1316 45.5749 64.454 48.3912C64.6152 50.4401 64.7765 52.489 64.454 54.5365C63.9703 57.3528 64.1316 60.4258 63.4866 63.2421C63.3254 64.2669 63.8091 66.0591 63.3254 66.5719C63.094 66.9399 62.7507 66.954 62.3678 66.8981C62.4245 65.2141 62.4424 63.5362 62.5126 61.8761C62.6932 59.8399 62.894 57.8036 63.2142 55.7696C62.7716 57.7596 62.5999 59.8033 62.5126 61.8761C62.3655 63.5317 62.2319 65.1887 62.0587 66.8451C61.7296 66.7846 61.3862 66.7264 61.0682 66.8272V67.5952C60.2621 68.6201 59.1335 68.3633 58.3274 67.852C58.1639 67.7214 57.9788 67.5751 57.7944 67.4116L57.7951 67.4109Z" fill="#CAA164"/>
<path d="M64.8494 72.4988C64.6957 72.4592 64.5419 72.4196 64.3896 72.3801C61.5622 71.7844 58.7086 71.8538 55.5512 71.4597C53.341 71.0873 50.8024 71.2059 48.5863 71.1888C51.213 71.3605 53.9061 71.45 56.5693 71.6657C59.2318 71.88 61.8652 72.2174 64.3598 72.875C63.8358 73.2332 63.217 73.5146 62.5101 73.4893C61.6622 73.3818 60.8187 73.2907 59.9797 73.2108C59.1408 73.1287 58.3048 73.0631 57.4725 73.0041C57.477 72.8414 57.4852 72.5241 57.4897 72.3636C55.1131 72.5443 52.8275 72.2957 50.536 72.1061C48.2459 71.9173 45.9499 71.7799 43.5778 72.1845C43.7465 72.2703 43.6465 72.4017 43.6114 72.5062C43.58 72.5973 43.5994 72.6682 43.8943 72.6689C43.5994 72.6689 43.58 72.598 43.6114 72.5062C48.275 72.348 52.6379 72.5585 57.2822 72.9906C53.6739 72.7443 50.1232 72.6958 46.5515 72.7175C42.9791 72.7391 39.3859 72.8361 35.6836 72.8966C35.3686 72.9018 34.7364 72.9123 34.4206 72.9175C33.1487 72.4599 31.879 72.3241 30.6153 72.3584C30.9109 71.5448 29.6002 69.9646 32.1478 70.2236C32.144 70.0624 32.1366 69.74 32.1328 69.5787C29.5741 68.836 28.5425 66.605 31.0878 65.8951C33.9549 65.1785 37.8109 65.757 41.3295 65.4196C43.892 65.245 46.459 65.092 49.0185 65.4383C52.5356 65.9556 56.3812 65.8697 59.8782 66.6244C61.1516 66.8229 63.4066 66.4206 64.0276 66.9289C64.4777 67.179 64.4822 67.5231 64.3971 67.9023C62.3026 67.7634 60.2126 67.6739 58.1473 67.5492C55.6154 67.2999 53.0813 67.0454 50.5457 66.6945C53.0238 67.167 55.5661 67.3917 58.1473 67.5492C60.2067 67.7507 62.2653 67.956 64.3195 68.2083C64.2314 68.5337 64.1456 68.8741 64.2583 69.1973C64.2583 69.1973 64.8942 69.2234 65.2122 69.2361C66.4513 70.093 66.081 71.2082 65.4167 71.9875C65.2488 72.1442 65.0599 72.3219 64.8509 72.498L64.8494 72.4988Z" fill="#CAA164"/>
<path d="M94.6764 23.212C94.3868 23.3852 94.0964 23.5583 93.809 23.7293L93.3186 24.0383L92.8334 24.3548C92.5102 24.5668 92.1885 24.7802 91.8676 24.9959C91.2256 25.4274 90.5867 25.8648 89.95 26.3112C89.317 26.762 88.6856 27.2188 88.0533 27.6808C87.4211 28.1436 86.7852 28.6079 86.1544 29.0886C84.89 30.0455 83.6061 31.0129 82.3081 32.0139C81.655 32.5095 80.9951 33.0103 80.3278 33.5164C79.6628 34.0255 78.9865 34.536 78.2975 35.0481C77.3137 35.7422 76.3307 36.5044 75.3387 37.2918C74.8446 37.6867 74.3445 38.0838 73.8533 38.4958C73.3614 38.9063 72.8695 39.3214 72.3799 39.7386C71.891 40.1566 71.3998 40.5724 70.9184 40.9949C70.4377 41.4188 69.9592 41.8406 69.4845 42.2586C69.0098 42.6773 68.5395 43.0923 68.0752 43.5021C67.6132 43.9141 67.1571 44.3209 66.7093 44.721C71.0684 41.0583 75.5485 37.3165 80.1263 33.7881C84.7019 30.2583 89.3797 26.9493 94.0867 24.1413C93.7553 24.6197 93.3776 25.1228 92.926 25.6177C92.4752 26.1126 91.9527 26.6023 91.3421 27.0628C88.3235 29.1797 85.3834 31.3264 82.5313 33.5388C82.4298 33.4119 82.2305 33.1641 82.1304 33.0394C78.2819 36.4446 74.3497 39.4699 70.4907 42.6004C66.6346 45.7302 62.8532 48.9659 59.3756 52.766C59.7003 52.5786 59.6324 52.8235 59.6481 52.9511C59.6302 52.9683 59.6123 52.9854 59.5958 53.0019C59.613 52.9854 59.6302 52.969 59.6481 52.9511C59.6608 53.0646 59.7399 53.0877 60.2049 52.651C59.7399 53.0877 59.6608 53.0653 59.6481 52.9511C63.2839 49.4496 66.9175 46.1825 70.6422 43.0266C74.3676 39.8715 78.1848 36.8283 82.2043 33.7896C79.1156 36.1879 76.1001 38.6249 73.1584 41.1314L72.0537 42.069L70.9594 43.0169L69.8667 43.9664C69.5032 44.2836 69.1374 44.5986 68.7784 44.9203C68.0581 45.5622 67.3378 46.2042 66.6167 46.8461C66.2554 47.1663 65.8994 47.4917 65.5426 47.8172C65.1858 48.1426 64.829 48.4681 64.4722 48.7943C64.1154 49.1205 63.7587 49.4459 63.4019 49.7721C63.0458 50.099 62.6935 50.4312 62.339 50.7611C61.6313 51.4224 60.9237 52.0845 60.2146 52.7473C58.8091 54.0872 57.3939 55.4248 55.9958 56.7937C55.2942 57.4752 54.5881 58.1552 53.8916 58.8494C53.1766 59.5547 52.4593 60.2624 51.7404 60.9715C50.4148 62.2658 49.0847 63.5645 47.7501 64.8678C47.4157 65.194 47.0813 65.5194 46.7469 65.8464L46.6215 65.9688L46.5588 66.03L46.5274 66.0606C46.5162 66.0531 46.505 66.0412 46.4946 66.0322L46.2288 65.7934L45.6966 65.3157C45.3428 64.9977 44.989 64.6797 44.6352 64.3617C44.2822 64.0438 43.9284 63.7288 43.5768 63.4041C43.3364 63.1846 43.0364 62.9099 42.7057 62.6069C42.378 62.2979 42.025 61.9493 41.6697 61.6067C41.4935 61.435 41.3121 61.2626 41.1442 61.0924C41.0248 60.9707 40.9083 60.8513 40.7971 60.7371C40.6209 60.5572 40.4605 60.3937 40.3351 60.2601C38.6623 57.8074 36.9411 55.4807 35.2549 53.1213C35.7901 53.1803 35.97 52.3868 36.3999 52.1927C36.5074 52.1435 36.6291 52.1308 36.7754 52.1771C36.9224 52.2219 37.0948 52.3241 37.3016 52.5062C37.4053 52.5966 37.5151 52.7085 37.6382 52.8406C37.7614 52.972 37.895 53.1265 38.0398 53.3057C38.1831 53.4863 38.3436 53.6871 38.516 53.917C38.6011 54.0327 38.6907 54.1543 38.7847 54.2827C38.8795 54.4104 38.9781 54.5455 39.0803 54.688C39.2057 54.5865 39.4565 54.3842 39.5819 54.2827C38.8668 53.0787 38.4085 51.9673 38.1704 51.0627C37.9338 50.155 37.9196 49.4519 38.0868 49.0376C38.1697 48.8264 38.2996 48.6875 38.4757 48.6308C38.5638 48.6017 38.6638 48.5957 38.7743 48.6077C38.884 48.6189 39.0057 48.6502 39.137 48.7039C39.4013 48.8107 39.7043 49.0048 40.0604 49.2877C40.2373 49.4295 40.4231 49.5959 40.6262 49.7825C40.8284 49.9699 41.0382 50.1834 41.2681 50.417C41.5174 50.685 41.7727 50.9582 42.0317 51.2373C42.2862 51.5187 42.5534 51.7986 42.8154 52.0905C43.3499 52.6645 43.8903 53.2646 44.4583 53.8662C45.0241 54.4693 45.6048 55.0859 46.2102 55.6995L46.2385 55.7286C46.2445 55.7345 46.243 55.7323 46.2453 55.7345C46.2482 55.7368 46.2505 55.7398 46.2527 55.7427C46.258 55.7487 46.2579 55.748 46.2602 55.7517L46.2721 55.7651L46.296 55.7942C46.3132 55.8166 46.3304 55.8383 46.3475 55.8607L46.3766 55.898L46.3923 55.9174C46.3923 55.9174 46.3975 55.9249 46.4005 55.9264L46.4132 55.9167C46.4483 55.889 46.4841 55.8622 46.5199 55.8346C46.5565 55.8054 46.5953 55.7741 46.6341 55.7405L46.6924 55.689L46.7073 55.6756L46.8349 55.5517L47.0984 55.2964C47.8001 54.6141 48.4972 53.9274 49.1832 53.237C49.5258 52.8914 49.8684 52.5473 50.2088 52.2047C50.5484 51.8606 50.8843 51.5165 51.2157 51.1709C55.127 47.2051 59.1271 43.311 63.5161 39.87C66.5495 37.5232 69.6293 34.9712 72.7725 32.4975C73.1644 32.1878 73.557 31.878 73.9489 31.5682C74.3445 31.2629 74.7401 30.9584 75.1342 30.6539C75.5305 30.3508 75.9254 30.0485 76.3203 29.747C76.7159 29.4461 77.11 29.1461 77.5101 28.855C78.3072 28.269 79.1037 27.692 79.9001 27.1285C80.2972 26.8448 80.6988 26.5717 81.0996 26.3C81.5005 26.029 81.9005 25.761 82.3006 25.4983C83.4382 24.6974 84.9049 23.4725 86.2559 22.3805C86.4254 22.2446 86.5926 22.1103 86.7568 21.9789C86.9232 21.8505 87.0867 21.7244 87.2457 21.6019C87.5652 21.3586 87.8705 21.1324 88.1556 20.9331C88.7251 20.5346 89.2118 20.2435 89.5619 20.1307C90.4956 19.7142 90.736 19.9718 90.842 20.3674C87.1606 23.0478 83.5576 25.811 80.0061 28.5579C75.5903 31.8564 71.2266 35.2287 66.8518 38.6003C71.2147 35.4004 75.5694 31.9915 80.0061 28.5579C83.5979 25.8775 87.2255 23.2418 90.9121 20.6995C90.9778 21.0608 91.0584 21.4303 91.466 21.5221C91.466 21.5221 92.5759 20.7018 93.1305 20.2912C95.8303 19.2977 95.9341 20.6249 95.3123 22.0871C95.128 22.4267 94.9227 22.8089 94.6808 23.2165L94.6764 23.212Z" fill="#CAA164"/>
<path d="M75.1771 72.8914C75.1786 72.7339 75.1801 72.5764 75.1816 72.4211C75.1532 71.7068 75.1032 70.9992 75.0241 70.2923C74.9427 69.5862 74.8524 68.8771 74.7531 68.1598C74.7046 67.8007 74.6501 67.4409 74.6039 67.0767C74.5591 66.7124 74.5135 66.3444 74.468 65.9735C74.4255 65.6018 74.3807 65.227 74.3493 64.8456C74.3172 64.4642 74.2904 64.0783 74.2702 63.6864C74.2553 61.4785 73.7529 59.0324 73.5074 56.8611C73.6581 59.4497 73.9724 62.0883 74.2463 64.7113C74.518 67.3357 74.742 69.9452 74.6949 72.5099C74.4583 72.3002 74.2314 72.0621 74.053 71.7881C73.8739 71.5142 73.7373 71.2067 73.6693 70.8596C73.6231 70.4356 73.5775 70.0124 73.5312 69.5914C73.4872 69.1697 73.4409 68.7502 73.3932 68.3322C73.2924 67.4969 73.2028 66.6654 73.0991 65.8399C73.2595 65.813 73.573 65.7615 73.7305 65.7354C73.5701 65.1658 73.4521 64.5933 73.3491 64.0223C73.2469 63.4513 73.164 62.8803 73.105 62.3093C73.0438 61.7382 72.9931 61.1687 72.9528 60.5985C72.9184 60.0282 72.8848 59.4594 72.8505 58.8906C72.7273 56.6133 72.5975 54.3501 71.9876 52.0437C71.9175 52.2176 71.7779 52.131 71.6704 52.1056C71.6689 52.0944 71.6674 52.0832 71.6667 52.0728C71.6682 52.0832 71.6689 52.0944 71.6704 52.1056C71.9548 54.4083 72.2026 56.6357 72.4228 58.869C72.646 61.1015 72.858 63.3363 73.0759 65.6518C73.017 65.2054 72.9684 64.7583 72.9125 64.3134C72.8557 63.8685 72.799 63.4244 72.7423 62.9818C72.687 62.5384 72.6318 62.0958 72.5766 61.6539C72.5198 61.212 72.4594 60.7709 72.4071 60.3297C72.2989 59.4475 72.1787 58.5674 72.0742 57.6859C72.019 57.2455 71.9638 56.8051 71.9085 56.364C71.857 55.9228 71.8055 55.4817 71.754 55.0398C71.5428 53.273 71.3599 51.4973 71.1912 49.7036C71.1539 49.255 71.1166 48.8049 71.0792 48.3533C71.0434 47.9017 71.0031 47.4494 70.9755 46.9948C70.9165 46.0857 70.8531 45.1721 70.8165 44.2495C70.8023 43.9352 70.7739 43.306 70.7598 42.9917C70.9792 42.3528 71.1203 41.7191 71.2002 41.0891C71.239 40.7741 71.2666 40.4591 71.2838 40.1449C71.3002 39.8306 71.3032 39.5171 71.2972 39.2036C72.1101 39.4985 73.6947 38.2273 73.426 40.7144C73.5872 40.7099 73.9097 40.701 74.0702 40.6965C74.4449 39.4485 75.195 38.5901 75.9355 38.3505C76.6767 38.1094 77.4097 38.4848 77.7575 39.6866C77.9292 40.3636 78.0359 41.0981 78.0971 41.8706C78.1531 42.6439 78.186 43.4545 78.2016 44.286C78.2083 44.7018 78.2203 45.122 78.2345 45.5445C78.2479 45.967 78.2636 46.3925 78.2852 46.8164C78.3091 47.2411 78.3449 47.6644 78.3882 48.0854C78.433 48.5056 78.483 48.9236 78.5584 49.3349C78.9033 51.7346 79.3041 54.1157 79.2668 56.5521C79.2563 56.9716 79.2541 57.3955 79.2638 57.8217C79.2765 58.248 79.2966 58.6764 79.3213 59.1071C79.3661 59.9692 79.4534 60.8366 79.5251 61.7062C79.5594 62.1413 79.6064 62.5742 79.6415 63.0087C79.6788 63.4423 79.7094 63.8768 79.7378 64.3089C79.7684 64.7411 79.7923 65.1718 79.8057 65.601C79.8184 66.0302 79.8214 66.4586 79.8184 66.8834C79.8333 67.1894 79.8975 67.5447 79.9804 67.9157C80.0214 68.1015 80.0677 68.2904 80.114 68.48C80.1625 68.6688 80.211 68.8577 80.258 69.042C80.4432 69.7802 80.5708 70.4505 80.3946 70.7961C80.2558 71.2694 79.9236 71.356 79.5348 71.3664C79.4444 70.8723 79.3638 70.3759 79.278 69.8818C79.1951 69.3869 79.1033 68.895 79.0257 68.4009C78.9473 67.9075 78.8689 67.4141 78.7913 66.9222C78.7517 66.6766 78.7159 66.4303 78.6831 66.184C78.6495 65.9376 78.6167 65.6921 78.5831 65.4465C78.3591 63.0214 78.1957 60.591 78.2136 58.1509C78.0688 60.5537 78.2606 62.993 78.5831 65.4465C78.6308 65.9391 78.6711 66.434 78.7271 66.9259L78.8846 68.4053L79.219 71.3657C78.8816 71.3604 78.5316 71.3597 78.2442 71.5418C78.2442 71.5418 78.3688 72.1449 78.4308 72.4465C77.8911 73.8184 76.7267 73.7594 75.8108 73.3123C75.6183 73.1899 75.401 73.0518 75.1801 72.8936L75.1771 72.8914Z" fill="#CAA164"/>
<path d="M109.117 41.9271C108.961 41.8935 108.805 41.8591 108.65 41.8271C105.789 41.3434 102.928 41.5046 99.7496 41.1821C97.5245 40.8597 94.9815 41.0209 92.7571 41.0209C98.0306 41.318 103.573 41.2053 108.64 42.3219C108.128 42.7026 107.515 43.0064 106.803 43.0064C105.088 42.8564 103.396 42.7511 101.717 42.6795V42.039C96.9491 42.5227 92.4989 41.2329 87.7307 42.039C87.9001 42.1249 87.7994 42.2562 87.7643 42.3607C87.7523 42.3607 87.7411 42.3607 87.7307 42.3615C87.7419 42.3615 87.7531 42.3615 87.7643 42.3607C92.4548 42.204 96.8408 42.3593 101.525 42.672C94.2522 42.3705 87.2395 42.6847 79.7842 42.6847H78.5131C77.2419 42.201 75.9693 42.0398 74.6988 42.0398C75.0161 41.2336 73.7449 39.6214 76.288 39.9438V39.2989C73.7442 38.4928 72.791 36.2356 75.334 35.5907C78.1944 34.9457 82.0093 35.5907 85.5049 35.2682C88.0487 35.107 90.5917 34.9457 93.1333 35.2682C96.6296 35.7519 100.445 35.5907 103.94 36.2356C105.212 36.3968 107.437 35.9131 108.073 36.3968C108.53 36.6282 108.548 36.9715 108.478 37.3545C106.388 37.2977 104.304 37.2798 102.243 37.2097C99.7161 37.029 97.1887 36.8282 94.6627 36.508C97.1334 36.9506 99.6698 37.1223 102.243 37.2097C104.299 37.3567 106.356 37.4903 108.412 37.6635C108.337 37.9927 108.264 38.336 108.39 38.654H109.343C110.615 39.4601 110.296 40.5887 109.661 41.3949C109.499 41.5583 109.317 41.7435 109.114 41.9278L109.117 41.9271Z" fill="#CAA164"/>
<path d="M107.675 67.4109C107.709 67.2855 107.743 67.1593 107.775 67.0354C108.259 64.7304 108.098 62.4262 108.42 59.8652C108.742 58.0731 108.581 56.0241 108.581 54.2327C108.284 58.4806 108.396 62.945 107.28 67.0264C106.9 66.6137 106.596 66.121 106.596 65.547C106.746 64.1654 106.851 62.8024 106.923 61.4506H107.563C107.079 57.6095 108.369 54.0244 107.563 50.1841C107.477 50.3207 107.346 50.2393 107.241 50.211C107.241 50.2012 107.241 50.1923 107.241 50.1841C107.241 50.193 107.241 50.202 107.241 50.211C107.398 53.9894 107.243 57.5229 106.93 61.2961C107.232 55.4374 106.917 49.7877 106.917 43.782V42.7579C107.401 41.7338 107.562 40.7089 107.562 39.6856C108.368 39.9409 109.981 38.9168 109.658 40.9657H110.303C111.109 38.9168 113.367 38.1487 114.011 40.1976C114.656 42.5019 114.011 45.5749 114.334 48.3912C114.495 50.4401 114.656 52.489 114.334 54.5365C113.85 57.3528 114.011 60.4258 113.367 63.2421C113.205 64.2669 113.689 66.0591 113.205 66.5719C112.974 66.9399 112.631 66.954 112.248 66.8981C112.304 65.2141 112.322 63.5362 112.392 61.8761C112.573 59.8399 112.774 57.8036 113.094 55.7696C112.651 57.7596 112.48 59.8033 112.392 61.8761C112.245 63.5317 112.112 65.1887 111.939 66.8451C111.609 66.7846 111.266 66.7264 110.948 66.8272V67.5952C110.142 68.6201 109.013 68.3633 108.207 67.852C108.044 67.7214 107.859 67.5751 107.674 67.4116L107.675 67.4109Z" fill="#CAA164"/>
<path d="M114.73 72.4988C114.577 72.4592 114.423 72.4196 114.27 72.3801C111.443 71.7844 108.589 71.8538 105.432 71.4597C103.222 71.0873 100.683 71.2059 98.4672 71.1888C101.094 71.3605 103.787 71.45 106.45 71.6657C109.113 71.88 111.746 72.2174 114.241 72.875C113.717 73.2332 113.098 73.5146 112.391 73.4893C111.543 73.3818 110.7 73.2907 109.861 73.2108C109.022 73.1287 108.186 73.0631 107.353 73.0041C107.358 72.8414 107.366 72.5241 107.371 72.3636C104.994 72.5443 102.708 72.2957 100.417 72.1061C98.1268 71.9173 95.8308 71.7799 93.4586 72.1845C93.6273 72.2703 93.5273 72.4017 93.4922 72.5062C93.4609 72.5973 93.4803 72.6682 93.7751 72.6689C93.4803 72.6689 93.4609 72.598 93.4922 72.5062C98.1559 72.348 102.519 72.5585 107.163 72.9906C103.555 72.7443 100.004 72.6958 96.4324 72.7175C92.86 72.7391 89.2667 72.8361 85.5644 72.8966C85.2494 72.9018 84.6172 72.9123 84.3015 72.9175C83.0296 72.4599 81.7599 72.3241 80.4962 72.3584C80.7918 71.5448 79.4811 69.9646 82.0286 70.2236C82.0249 70.0624 82.0174 69.74 82.0137 69.5787C79.4549 68.836 78.4234 66.605 80.9687 65.8951C83.8357 65.1785 87.6918 65.757 91.2104 65.4196C93.7729 65.245 96.3398 65.092 98.8993 65.4383C102.416 65.9556 106.262 65.8697 109.759 66.6244C111.032 66.8229 113.287 66.4206 113.908 66.9289C114.359 67.179 114.363 67.5231 114.278 67.9023C112.183 67.7634 110.093 67.6739 108.028 67.5492C105.496 67.2999 102.962 67.0454 100.427 66.6945C102.905 67.167 105.447 67.3917 108.028 67.5492C110.088 67.7507 112.146 67.956 114.2 68.2083C114.112 68.5337 114.026 68.8741 114.139 69.1973C114.139 69.1973 114.775 69.2234 115.093 69.2361C116.332 70.093 115.962 71.2082 115.298 71.9875C115.13 72.1442 114.941 72.3219 114.732 72.498L114.73 72.4988Z" fill="#CAA164"/>
<path d="M144.555 23.212C144.266 23.3852 143.975 23.5583 143.688 23.7293L143.198 24.0383L142.712 24.3548C142.389 24.5668 142.067 24.7802 141.746 24.9959C141.105 25.4274 140.466 25.8648 139.829 26.3112C139.196 26.762 138.564 27.2188 137.932 27.6808C137.3 28.1436 136.664 28.6079 136.033 29.0886C134.769 30.0455 133.485 31.0129 132.187 32.0139C131.534 32.5095 130.874 33.0103 130.207 33.5164C129.542 34.0255 128.865 34.536 128.176 35.0481C127.193 35.7422 126.21 36.5044 125.218 37.2918C124.723 37.6867 124.223 38.0838 123.732 38.4958C123.24 38.9063 122.748 39.3214 122.259 39.7386C121.77 40.1566 121.279 40.5724 120.797 40.9949C120.317 41.4188 119.838 41.8406 119.363 42.2586C118.889 42.6773 118.418 43.0923 117.954 43.5021C117.492 43.9141 117.036 44.3209 116.588 44.721C120.947 41.0583 125.427 37.3165 130.005 33.7881C134.581 30.2583 139.259 26.9493 143.966 24.1413C143.634 24.6197 143.256 25.1228 142.805 25.6177C142.354 26.1126 141.832 26.6023 141.221 27.0628C138.202 29.1797 135.262 31.3264 132.41 33.5388C132.309 33.4119 132.109 33.1641 132.009 33.0394C128.161 36.4446 124.229 39.4699 120.37 42.6004C116.514 45.7302 112.732 48.9659 109.255 52.766C109.579 52.5786 109.511 52.8235 109.527 52.9511C109.509 52.9683 109.491 52.9854 109.475 53.0019C109.492 52.9854 109.509 52.969 109.527 52.9511C109.54 53.0646 109.619 53.0877 110.084 52.651C109.619 53.0877 109.54 53.0653 109.527 52.9511C113.163 49.4496 116.796 46.1825 120.521 43.0266C124.247 39.8715 128.064 36.8283 132.083 33.7896C128.995 36.1879 125.979 38.6249 123.037 41.1314L121.933 42.069L120.838 43.0169L119.746 43.9664C119.382 44.2836 119.016 44.5986 118.657 44.9203C117.937 45.5622 117.217 46.2042 116.496 46.8461C116.134 47.1663 115.778 47.4917 115.422 47.8172C115.065 48.1426 114.708 48.4681 114.351 48.7943C113.994 49.1205 113.638 49.4459 113.281 49.7721C112.925 50.099 112.572 50.4312 112.218 50.7611C111.51 51.4224 110.803 52.0845 110.094 52.7473C108.688 54.0872 107.273 55.4248 105.875 56.7937C105.173 57.4752 104.467 58.1552 103.771 58.8494C103.055 59.5547 102.338 60.2624 101.619 60.9715C100.294 62.2658 98.9636 63.5645 97.629 64.8678C97.2946 65.194 96.9602 65.5194 96.6258 65.8464L96.5004 65.9688L96.4377 66.03L96.4063 66.0606C96.3951 66.0531 96.3839 66.0412 96.3735 66.0322L96.1077 65.7934L95.5755 65.3157C95.2217 64.9977 94.8679 64.6797 94.5141 64.3617C94.1611 64.0438 93.8073 63.7288 93.4557 63.4041C93.2153 63.1846 92.9153 62.9099 92.5846 62.6069C92.2569 62.2979 91.9039 61.9493 91.5486 61.6067C91.3724 61.435 91.191 61.2626 91.0231 61.0924C90.9037 60.9707 90.7872 60.8513 90.676 60.7371C90.4998 60.5572 90.3394 60.3937 90.214 60.2601C88.5412 57.8074 86.82 55.4807 85.1338 53.1213C85.669 53.1803 85.8489 52.3868 86.2788 52.1927C86.3863 52.1435 86.508 52.1308 86.6543 52.1771C86.8013 52.2219 86.9745 52.3241 87.1805 52.5062C87.2842 52.5966 87.394 52.7085 87.5171 52.8406C87.6403 52.972 87.7739 53.1265 87.9187 53.3057C88.062 53.4863 88.2225 53.6871 88.3949 53.917C88.48 54.0327 88.5696 54.1543 88.6636 54.2827C88.7584 54.4104 88.857 54.5455 88.9592 54.688C89.0846 54.5865 89.3354 54.3842 89.4608 54.2827C88.7457 53.0787 88.2874 51.9673 88.0493 51.0627C87.8127 50.155 87.7985 49.4519 87.9657 49.0376C88.0486 48.8264 88.1785 48.6875 88.3546 48.6308C88.4427 48.6017 88.5427 48.5957 88.6532 48.6077C88.7629 48.6189 88.8846 48.6502 89.0159 48.7039C89.2802 48.8107 89.5832 49.0048 89.9393 49.2877C90.1162 49.4295 90.302 49.5959 90.5051 49.7825C90.7073 49.9699 90.9171 50.1834 91.147 50.417C91.3963 50.685 91.6516 50.9582 91.9106 51.2373C92.1651 51.5187 92.4323 51.7986 92.6943 52.0905C93.2288 52.6645 93.7692 53.2646 94.3372 53.8662C94.903 54.4693 95.4837 55.0859 96.0891 55.6995L96.1174 55.7286C96.1234 55.7345 96.1212 55.7323 96.1242 55.7345C96.1272 55.7368 96.1294 55.7398 96.1316 55.7427C96.1369 55.7487 96.1369 55.748 96.1391 55.7517L96.151 55.7651L96.1749 55.7942C96.1921 55.8166 96.2093 55.8383 96.2264 55.8607L96.2555 55.898L96.2712 55.9174C96.2712 55.9174 96.2764 55.9249 96.2794 55.9264L96.2921 55.9167C96.3272 55.889 96.363 55.8622 96.3988 55.8346C96.4354 55.8054 96.4742 55.7741 96.5131 55.7405L96.5713 55.689L96.5862 55.6756L96.7138 55.5517L96.9773 55.2964C97.679 54.6141 98.3761 53.9274 99.0621 53.237C99.4047 52.8914 99.7473 52.5473 100.088 52.2047C100.427 51.8606 100.763 51.5165 101.095 51.1709C105.006 47.2051 109.006 43.311 113.395 39.87C116.428 37.5232 119.508 34.9712 122.651 32.4975C123.043 32.1878 123.436 31.878 123.828 31.5682C124.223 31.2629 124.619 30.9584 125.013 30.6539C125.409 30.3508 125.804 30.0485 126.199 29.747C126.595 29.4461 126.989 29.1461 127.389 28.855C128.186 28.269 128.983 27.692 129.779 27.1285C130.176 26.8448 130.578 26.5717 130.979 26.3C131.379 26.029 131.779 25.761 132.18 25.4983C133.317 24.6974 134.784 23.4725 136.135 22.3805C136.304 22.2446 136.471 22.1103 136.636 21.9789C136.802 21.8505 136.966 21.7244 137.125 21.6019C137.444 21.3586 137.749 21.1324 138.034 20.9331C138.604 20.5346 139.091 20.2435 139.441 20.1307C140.375 19.7142 140.615 19.9718 140.721 20.3674C137.04 23.0478 133.437 25.811 129.885 28.5579C125.469 31.8564 121.106 35.2287 116.731 38.6003C121.094 35.4004 125.448 31.9915 129.885 28.5579C133.477 25.8775 137.104 23.2418 140.791 20.6995C140.857 21.0608 140.937 21.4303 141.345 21.5221C141.345 21.5221 142.455 20.7018 143.009 20.2912C145.709 19.2977 145.813 20.6249 145.191 22.0871C145.008 22.4267 144.802 22.8089 144.56 23.2165L144.555 23.212Z" fill="#CAA164"/>
<path d="M32.2181 122.483C32.2196 122.325 32.2211 122.168 32.2226 122.012C32.1942 121.297 32.1442 120.59 32.0651 119.883C31.9838 119.177 31.8934 118.468 31.7942 117.75C31.7456 117.391 31.6912 117.032 31.6449 116.667C31.6001 116.303 31.5546 115.935 31.509 115.564C31.4665 115.192 31.4217 114.818 31.3903 114.436C31.3582 114.055 31.3314 113.669 31.3112 113.277C31.2963 111.069 30.7939 108.623 30.5484 106.452C30.6992 109.04 31.0134 111.679 31.2873 114.302C31.559 116.926 31.783 119.536 31.7359 122.101C31.4993 121.891 31.2724 121.653 31.094 121.379C30.9149 121.105 30.7783 120.797 30.7104 120.45C30.6641 120.026 30.6185 119.603 30.573 119.182C30.529 118.76 30.4827 118.341 30.4349 117.923C30.3342 117.088 30.2446 116.256 30.1408 115.43C30.3013 115.404 30.6148 115.352 30.7723 115.326C30.6118 114.756 30.4939 114.184 30.3909 113.613C30.2886 113.042 30.2058 112.472 30.1468 111.9C30.0856 111.329 30.0348 110.759 29.9945 110.189C29.9602 109.619 29.9266 109.05 29.8923 108.481C29.7691 106.204 29.6392 103.941 29.0294 101.634C28.9592 101.808 28.8197 101.722 28.7122 101.696C28.7107 101.685 28.7092 101.674 28.7084 101.663C28.7099 101.674 28.7107 101.685 28.7122 101.696C28.9966 103.999 29.2444 106.226 29.4646 108.46C29.6877 110.692 29.8997 112.927 30.1177 115.242C30.0587 114.796 30.0102 114.349 29.9542 113.904C29.8975 113.459 29.8408 113.015 29.784 112.572C29.7288 112.129 29.6736 111.686 29.6183 111.244C29.5616 110.803 29.5011 110.361 29.4489 109.92C29.3407 109.038 29.2205 108.158 29.116 107.276C29.0607 106.836 29.0055 106.396 28.9503 105.955C28.8988 105.513 28.8473 105.072 28.7958 104.63C28.5845 102.864 28.4017 101.088 28.233 99.2942C28.1956 98.8456 28.1583 98.3955 28.121 97.9439C28.0852 97.4923 28.0449 97.04 28.0172 96.5854C27.9583 95.677 27.8948 94.7626 27.8575 93.8401C27.8433 93.5258 27.815 92.8966 27.8008 92.5823C28.0202 91.9434 28.1613 91.3097 28.2412 90.6789C28.28 90.364 28.3076 90.049 28.3248 89.7347C28.3412 89.4205 28.3442 89.107 28.3382 88.7935C29.1511 89.0883 30.7357 87.8172 30.467 90.3042C30.6282 90.2998 30.9507 90.2908 31.1112 90.2863C31.4859 89.0383 32.236 88.1799 32.9765 87.9403C33.7177 87.6992 34.4507 88.0747 34.7985 89.2764C34.9702 89.9534 35.0769 90.6879 35.1382 91.4605C35.1941 92.2338 35.227 93.0444 35.2426 93.8759C35.2494 94.2917 35.2613 94.7119 35.2755 95.1344C35.2889 95.5568 35.3046 95.9823 35.3262 96.4063C35.3501 96.831 35.386 97.2542 35.4293 97.6752C35.474 98.0954 35.5241 98.5134 35.5994 98.9247C35.9443 101.324 36.3451 103.706 36.3078 106.142C36.2973 106.561 36.2951 106.985 36.3048 107.412C36.3175 107.838 36.3377 108.266 36.3623 108.697C36.4071 109.559 36.4944 110.426 36.5661 111.296C36.6004 111.731 36.6474 112.165 36.6825 112.599C36.7198 113.032 36.7504 113.467 36.7788 113.899C36.8094 114.33 36.8333 114.762 36.8467 115.191C36.8594 115.62 36.8624 116.048 36.8594 116.473C36.8743 116.779 36.9385 117.135 37.0214 117.506C37.0624 117.691 37.1087 117.88 37.155 118.07C37.2035 118.259 37.252 118.448 37.2991 118.632C37.4842 119.37 37.6118 120.04 37.4357 120.386C37.2968 120.859 36.9639 120.946 36.5758 120.956C36.4854 120.462 36.4041 119.966 36.319 119.472C36.2361 118.977 36.1443 118.485 36.0667 117.991C35.9883 117.497 35.9107 117.004 35.8323 116.513C35.7928 116.267 35.7569 116.021 35.7241 115.775C35.6905 115.528 35.6577 115.283 35.6241 115.037C35.4001 112.612 35.2367 110.182 35.2546 107.742C35.1098 110.144 35.3016 112.584 35.6241 115.037C35.6718 115.53 35.7122 116.025 35.7681 116.516L35.9256 117.995L36.26 120.955C35.9226 120.95 35.5726 120.95 35.2852 121.132C35.2852 121.132 35.4098 121.735 35.4718 122.036C34.9321 123.408 33.7677 123.349 32.8518 122.902C32.6593 122.78 32.4421 122.642 32.2211 122.483L32.2181 122.483Z" fill="#CAA164"/>
<path d="M66.1576 91.5169C66.0016 91.4833 65.8456 91.449 65.691 91.4169C62.83 90.9332 59.9689 91.0944 56.7907 90.772C54.5656 90.4495 52.0225 90.6108 49.7981 90.6108C55.0716 90.9078 60.6139 90.7959 65.6806 91.9118C65.1685 92.2925 64.5565 92.5963 63.8436 92.5963C62.1291 92.4462 60.437 92.341 58.7582 92.2693V91.6289C53.9901 92.1126 49.5399 90.8227 44.7717 91.6289C44.9411 91.7147 44.8404 91.8461 44.8053 91.9506C44.7934 91.9506 44.7822 91.9506 44.7717 91.9513C44.7829 91.9513 44.7941 91.9513 44.8053 91.9506C49.4958 91.7938 53.8818 91.9491 58.5664 92.2619C51.2932 91.9603 44.2806 92.2745 36.8253 92.2745H35.5541C34.2829 91.7909 33.0103 91.6296 31.7399 91.6296C32.0571 90.8235 30.7859 89.2112 33.329 89.5337V88.8887C30.7852 88.0826 29.832 85.8254 32.3751 85.1805C35.2354 84.5356 39.0504 85.1805 42.5459 84.858C45.0897 84.6968 47.6328 84.5356 50.1743 84.858C53.6706 85.3417 57.4856 85.1805 60.9811 85.8254C62.253 85.9866 64.4781 85.503 65.1148 85.9866C65.5716 86.218 65.5895 86.5614 65.5194 86.9443C63.4294 86.8876 61.3461 86.8697 59.2852 86.7995C56.7578 86.6189 54.2304 86.4181 51.7045 86.0979C54.1752 86.5405 56.7115 86.7122 59.2852 86.7995C61.3409 86.9465 63.398 87.0802 65.4537 87.2533C65.3783 87.5825 65.3059 87.9259 65.4313 88.2438H66.3845C67.6564 89.05 67.3377 90.1786 66.7032 90.9847C66.5412 91.1482 66.3591 91.3333 66.1561 91.5177L66.1576 91.5169Z" fill="#CAA164"/>
<path d="M64.7161 117.005C64.7496 116.879 64.784 116.753 64.8161 116.629C65.2998 114.324 65.1385 112.02 65.461 109.459C65.7834 107.667 65.6222 105.618 65.6222 103.826C65.3251 108.074 65.4371 112.539 64.3212 116.62C63.9405 116.207 63.6367 115.715 63.6367 115.141C63.7868 113.759 63.892 112.396 63.9637 111.044H64.6041C64.1204 107.203 65.4102 103.618 64.6041 99.7778C64.5182 99.9144 64.3869 99.8331 64.2824 99.8047C64.2824 99.795 64.2824 99.786 64.2816 99.7778C64.2816 99.7868 64.2816 99.7957 64.2824 99.8047C64.4391 103.583 64.2839 107.117 63.9711 110.89C64.2727 105.03 63.9584 99.3815 63.9584 93.3757V92.3516C64.4421 91.3275 64.6033 90.3027 64.6033 89.2793C65.4095 89.5346 67.0218 88.5105 66.6993 90.5595H67.3442C68.1504 88.5105 70.4075 87.7425 71.0525 89.7914C71.6974 92.0956 71.0525 95.1687 71.3749 97.9849C71.5361 100.034 71.6974 102.083 71.3749 104.13C70.8912 106.947 71.0525 110.02 70.4076 112.836C70.2463 113.861 70.73 115.653 70.2463 116.166C70.0149 116.534 69.6716 116.548 69.2887 116.492C69.3454 114.808 69.3633 113.13 69.4335 111.47C69.6141 109.434 69.8149 107.397 70.1351 105.363C69.6925 107.353 69.5208 109.397 69.4335 111.47C69.2864 113.125 69.1528 114.782 68.9796 116.439C68.6505 116.378 68.3071 116.32 67.9891 116.421V117.189C67.183 118.214 66.0544 117.957 65.2483 117.446C65.0848 117.315 64.8997 117.169 64.7153 117.005L64.7161 117.005Z" fill="#CAA164"/>
<path d="M71.7703 122.089C71.6166 122.049 71.4628 122.009 71.3105 121.97C68.4831 121.374 65.6295 121.444 62.4721 121.05C60.2619 120.677 57.7233 120.796 55.5072 120.779C58.1339 120.95 60.827 121.04 63.4902 121.256C66.1527 121.47 68.7861 121.807 71.2807 122.465C70.7567 122.823 70.1379 123.104 69.431 123.079C68.5831 122.972 67.7396 122.881 66.9006 122.801C66.0617 122.719 65.2257 122.653 64.3934 122.594C64.3979 122.431 64.4061 122.114 64.4106 121.953C62.0339 122.134 59.7484 121.886 57.4569 121.696C55.1668 121.507 52.8708 121.37 50.4987 121.774C50.6674 121.86 50.5674 121.992 50.5323 122.096C50.5203 122.096 50.5091 122.096 50.4987 122.097C50.5091 122.097 50.5203 122.097 50.5323 122.096C50.5009 122.187 50.5203 122.258 50.8152 122.259C50.5203 122.259 50.5009 122.188 50.5323 122.096C55.1959 121.938 59.5588 122.148 64.2031 122.58C60.5948 122.334 57.0441 122.286 53.4724 122.307C49.9 122.329 46.3067 122.426 42.6045 122.486C42.2895 122.492 41.6573 122.502 41.3415 122.507C40.0696 122.05 38.7999 121.914 37.5362 121.948C37.8318 121.135 36.5211 119.554 39.0687 119.813C39.0649 119.652 39.0575 119.33 39.0537 119.169C36.495 118.426 35.4634 116.195 38.0087 115.485C40.8758 114.768 44.7318 115.347 48.2504 115.009C50.8129 114.835 53.3799 114.682 55.9386 115.028C59.4558 115.545 63.3014 115.46 66.7984 116.214C68.0718 116.413 70.3267 116.01 70.9478 116.519C71.3979 116.769 71.4023 117.113 71.3172 117.492C69.2228 117.353 67.1328 117.264 65.0674 117.139C62.5355 116.89 60.0014 116.635 57.4658 116.284C59.944 116.757 62.4863 116.982 65.0674 117.139C67.1268 117.341 69.1855 117.546 71.2396 117.798C71.1515 118.124 71.0657 118.464 71.1784 118.787C71.1784 118.787 71.8144 118.813 72.1323 118.826C73.3714 119.683 73.0012 120.798 72.3369 121.577C72.1689 121.734 71.9801 121.912 71.7711 122.088L71.7703 122.089Z" fill="#CAA164"/>
<path d="M101.597 72.8011C101.308 72.9743 101.017 73.1474 100.73 73.3184L100.24 73.6274L99.7543 73.9439C99.4311 74.1559 99.1094 74.3693 98.7885 74.585C98.1465 75.0165 97.5076 75.4539 96.8709 75.9002C96.2379 76.3511 95.6064 76.8079 94.9742 77.2699C94.342 77.7327 93.706 78.197 93.0753 78.6777C91.8109 79.6346 90.527 80.602 89.229 81.6029C88.5759 82.0986 87.916 82.5994 87.2487 83.1055C86.5837 83.6146 85.9074 84.1251 85.2184 84.6372C84.2347 85.3314 83.2516 86.0934 82.2596 86.8809C81.7655 87.2758 81.2654 87.6729 80.7742 88.0849C80.2823 88.4954 79.7904 88.9105 79.3008 89.3277C78.8119 89.7457 78.3207 90.1615 77.8393 90.5839C77.3586 91.0079 76.8801 91.4297 76.4054 91.8477C75.9307 92.2664 75.4604 92.6814 74.9961 93.0912C74.5341 93.5032 74.078 93.91 73.6302 94.3101C77.9893 90.6474 82.4694 86.9048 87.0472 83.3772C91.6228 79.8474 96.3006 76.5384 101.008 73.7304C100.676 74.2088 100.298 74.7119 99.8469 75.2068C99.3961 75.7017 98.8736 76.1914 98.263 76.6519C95.2444 78.7688 92.3043 80.9155 89.4522 83.1279C89.3499 83.001 89.1514 82.7532 89.0513 82.6285C85.2028 86.0337 81.2706 89.059 77.4116 92.1895C73.5555 95.3193 69.7741 98.555 66.2965 102.355C66.6212 102.168 66.5533 102.413 66.569 102.54C66.5511 102.557 66.5332 102.575 66.5167 102.59C66.5339 102.574 66.5511 102.557 66.569 102.54C66.5817 102.654 66.6608 102.677 67.1258 102.24C66.6608 102.677 66.5817 102.654 66.569 102.54C70.2048 99.0387 73.8384 95.7716 77.5631 92.6157C81.2885 89.4606 85.1057 86.4174 89.1252 83.3787C86.0365 85.777 83.021 88.2141 80.0793 90.7206L78.9746 91.6581L77.8803 92.606L76.7876 93.5555C76.424 93.8727 76.0583 94.1877 75.6993 94.5094C74.979 95.1513 74.2587 95.7933 73.5376 96.4352C73.1763 96.7554 72.8203 97.0808 72.4635 97.4063C72.1067 97.7317 71.7499 98.0572 71.3931 98.3834C71.0363 98.7096 70.6796 99.035 70.3228 99.3612C69.9667 99.6881 69.6144 100.02 69.2598 100.35C68.5522 101.012 67.8446 101.674 67.1355 102.336C65.73 103.676 64.3148 105.014 62.9167 106.383C62.2151 107.064 61.509 107.744 60.8125 108.438C60.0975 109.144 59.3802 109.851 58.6613 110.561C57.3357 111.856 56.0056 113.154 54.671 114.457C54.3366 114.782 54.0022 115.109 53.6678 115.435L53.5424 115.558L53.4797 115.619L53.4483 115.65C53.4371 115.642 53.4259 115.63 53.4155 115.621L53.1497 115.382L52.6175 114.905C52.2637 114.587 51.9099 114.269 51.5561 113.951C51.2031 113.633 50.8493 113.318 50.4977 112.993C50.2573 112.774 49.9573 112.499 49.6266 112.196C49.2989 111.887 48.9459 111.538 48.5906 111.196C48.4144 111.024 48.233 110.852 48.0651 110.681C47.9457 110.56 47.8292 110.44 47.718 110.326C47.5418 110.146 47.3814 109.983 47.256 109.849C45.5832 107.396 43.862 105.07 42.1758 102.71C42.711 102.769 42.8909 101.976 43.3208 101.782C43.4283 101.733 43.55 101.72 43.6963 101.766C43.8433 101.811 44.0165 101.913 44.2225 102.095C44.3262 102.186 44.436 102.298 44.5591 102.43C44.6823 102.561 44.8159 102.716 44.9607 102.895C45.104 103.075 45.2645 103.276 45.4369 103.506C45.522 103.622 45.6116 103.743 45.7056 103.872C45.8004 103.999 45.899 104.135 46.0012 104.277C46.1266 104.176 46.3774 103.973 46.5028 103.872C45.7877 102.668 45.3294 101.556 45.0913 100.652C44.8547 99.7448 44.8405 99.041 45.0077 98.6267C45.0906 98.4155 45.2205 98.2766 45.3966 98.2199C45.4847 98.1908 45.5847 98.1848 45.6952 98.1968C45.8049 98.208 45.9266 98.2393 46.0579 98.293C46.3222 98.3998 46.6252 98.5939 46.9813 98.8768C47.1582 99.0186 47.344 99.185 47.5471 99.3716C47.7493 99.5582 47.9591 99.7725 48.189 100.006C48.4383 100.274 48.6936 100.547 48.9526 100.826C49.2071 101.108 49.4743 101.388 49.7363 101.68C50.2708 102.254 50.8112 102.854 51.3792 103.455C51.945 104.058 52.5257 104.675 53.1311 105.289L53.1594 105.318C53.1654 105.324 53.1632 105.321 53.1662 105.324C53.1691 105.326 53.1714 105.329 53.1736 105.332C53.1788 105.338 53.1788 105.337 53.1811 105.341L53.193 105.354L53.2169 105.383C53.2341 105.405 53.2513 105.427 53.2684 105.45L53.2975 105.487L53.3132 105.507C53.3132 105.507 53.3184 105.514 53.3214 105.515L53.3341 105.506C53.3692 105.478 53.405 105.451 53.4408 105.424C53.4774 105.395 53.5162 105.363 53.555 105.33L53.6133 105.279L53.6282 105.265L53.7558 105.142L54.0193 104.886C54.721 104.204 55.4181 103.517 56.1041 102.827C56.4467 102.482 56.7893 102.137 57.1297 101.795C57.4693 101.45 57.8052 101.106 58.1366 100.761C62.0479 96.795 66.048 92.9009 70.437 89.4598C73.4704 87.1131 76.5502 84.561 79.6934 82.0874C80.0853 81.7776 80.4779 81.4678 80.8698 81.1581C81.2654 80.8528 81.661 80.5483 82.0551 80.2437C82.4514 79.9407 82.8463 79.6384 83.2412 79.3368C83.6368 79.036 84.0309 78.7359 84.431 78.4448C85.2281 77.8589 86.0246 77.2819 86.821 76.7183C87.2181 76.4347 87.6197 76.1615 88.0205 75.8898C88.4213 75.6188 88.8214 75.3509 89.2215 75.0881C90.3591 74.2872 91.8258 73.0623 93.1768 71.9703C93.3463 71.8345 93.5135 71.7001 93.6777 71.5687C93.8441 71.4404 94.0076 71.3142 94.1666 71.1918C94.4861 70.9485 94.7914 70.7223 95.0765 70.523C95.646 70.1244 96.1327 69.8333 96.4828 69.7206C97.4165 69.3041 97.6569 69.5616 97.7629 69.9572C94.0815 72.6376 90.4785 75.4009 86.927 78.1477C82.5111 81.4462 78.1475 84.8186 73.7727 88.1902C78.1356 84.9902 82.4902 81.5813 86.927 78.1477C90.5188 75.4673 94.1464 72.8317 97.833 70.2894C97.8987 70.6506 97.9793 71.0201 98.3869 71.1119C98.3869 71.1119 99.4968 70.2916 100.051 69.8811C102.751 68.8876 102.855 70.2147 102.233 71.677C102.05 72.0166 101.844 72.3988 101.602 72.8063L101.597 72.8011Z" fill="#CAA164"/>
<path d="M82.0978 122.483C82.0993 122.325 82.1008 122.168 82.1023 122.012C82.0739 121.297 82.0239 120.59 81.9448 119.883C81.8634 119.177 81.7731 118.468 81.6738 117.75C81.6253 117.391 81.5708 117.032 81.5245 116.667C81.4797 116.303 81.4342 115.935 81.3887 115.564C81.3461 115.192 81.3014 114.818 81.27 114.436C81.2379 114.055 81.211 113.669 81.1909 113.277C81.176 111.069 80.6736 108.623 80.428 106.452C80.5788 109.04 80.8931 111.679 81.167 114.302C81.4387 116.926 81.6626 119.536 81.6156 122.101C81.379 121.891 81.1521 121.653 80.9737 121.379C80.7945 121.105 80.6579 120.797 80.59 120.45C80.5437 120.026 80.4982 119.603 80.4519 119.182C80.4079 118.76 80.3616 118.341 80.3138 117.923C80.2131 117.088 80.1235 116.256 80.0197 115.43C80.1802 115.404 80.4937 115.352 80.6512 115.326C80.4907 114.756 80.3721 114.184 80.2698 113.613C80.1675 113.042 80.0847 112.472 80.0257 111.9C79.9645 111.329 79.9137 110.759 79.8734 110.189C79.8391 109.619 79.8055 109.05 79.7712 108.481C79.648 106.204 79.5181 103.941 78.9083 101.634C78.8381 101.808 78.6986 101.722 78.5911 101.696C78.5896 101.685 78.5881 101.674 78.5873 101.663C78.5888 101.674 78.5896 101.685 78.5911 101.696C78.8755 103.999 79.1233 106.226 79.3435 108.46C79.5667 110.692 79.7786 112.927 79.9966 115.242C79.9376 114.796 79.8891 114.349 79.8331 113.904C79.7764 113.459 79.7197 113.015 79.6629 112.572C79.6077 112.129 79.5525 111.686 79.4972 111.244C79.4405 110.803 79.3801 110.361 79.3278 109.92C79.2196 109.038 79.0986 108.158 78.9949 107.276C78.9397 106.836 78.8844 106.396 78.8292 105.955C78.7777 105.513 78.7262 105.072 78.6747 104.63C78.4634 102.864 78.2806 101.088 78.1119 99.2942C78.0745 98.8456 78.0372 98.3955 77.9999 97.9439C77.9641 97.4923 77.9238 97.04 77.8962 96.5854C77.8372 95.677 77.7737 94.7626 77.7364 93.8401C77.7222 93.5258 77.6939 92.8966 77.6797 92.5823C77.8991 91.9434 78.0402 91.3097 78.1201 90.6789C78.1589 90.364 78.1865 90.049 78.2037 89.7347C78.2201 89.4205 78.2231 89.107 78.2171 88.7935C79.03 89.0883 80.6146 87.8172 80.3459 90.3042C80.5072 90.2998 80.8296 90.2908 80.9901 90.2863C81.3648 89.0383 82.115 88.1799 82.8554 87.9403C83.5974 87.6992 84.3296 88.0747 84.6774 89.2764C84.8491 89.9534 84.9559 90.6879 85.0171 91.4605C85.073 92.2338 85.1059 93.0444 85.1216 93.8759C85.1283 94.2917 85.1402 94.7119 85.1544 95.1344C85.1678 95.5568 85.1835 95.9823 85.2052 96.4063C85.229 96.831 85.2649 97.2542 85.3074 97.6752C85.3522 98.0954 85.4022 98.5134 85.4776 98.9247C85.8225 101.324 86.2233 103.706 86.186 106.142C86.1755 106.561 86.1733 106.985 86.183 107.412C86.1957 107.838 86.2158 108.266 86.2405 108.697C86.2852 109.559 86.3726 110.426 86.4442 111.296C86.4786 111.731 86.5256 112.165 86.5607 112.599C86.598 113.032 86.6286 113.467 86.657 113.899C86.6876 114.33 86.7114 114.762 86.7249 115.191C86.7376 115.62 86.7406 116.048 86.7376 116.473C86.7518 116.779 86.8167 117.135 86.8995 117.506C86.9406 117.691 86.9869 117.88 87.0332 118.07C87.0817 118.259 87.1302 118.448 87.1772 118.632C87.3623 119.37 87.49 120.04 87.3138 120.386C87.175 120.859 86.8421 120.946 86.4539 120.956C86.3636 120.462 86.2823 119.966 86.1972 119.472C86.1143 118.977 86.0225 118.485 85.9449 117.991C85.8665 117.497 85.7889 117.004 85.7105 116.513C85.6709 116.267 85.6351 116.021 85.6023 115.775C85.5687 115.528 85.5358 115.283 85.5022 115.037C85.2783 112.612 85.1148 110.182 85.1328 107.742C84.988 110.144 85.1798 112.584 85.5022 115.037C85.55 115.53 85.5903 116.025 85.6463 116.516L85.8038 117.995L86.1382 120.955C85.8008 120.95 85.4507 120.95 85.1634 121.132C85.1634 121.132 85.288 121.735 85.35 122.036C84.8103 123.408 83.6459 123.349 82.73 122.902C82.5374 122.78 82.3202 122.642 82.0993 122.483L82.0978 122.483Z" fill="#CAA164"/>
<path d="M116.037 91.5169C115.881 91.4833 115.725 91.449 115.571 91.4169C112.71 90.9332 109.849 91.0944 106.671 90.772C104.445 90.4495 101.902 90.6108 99.678 90.6108C104.952 90.9078 110.494 90.7959 115.56 91.9118C115.048 92.2925 114.436 92.5963 113.724 92.5963C112.009 92.4462 110.317 92.341 108.638 92.2693V91.6289C103.87 92.1126 99.4198 90.8227 94.6516 91.6289C94.821 91.7147 94.7203 91.8461 94.6852 91.9506C94.6732 91.9506 94.662 91.9506 94.6516 91.9513C94.6628 91.9513 94.674 91.9513 94.6852 91.9506C99.3757 91.7938 103.762 91.9491 108.446 92.2619C101.173 91.9603 94.1604 92.2745 86.7051 92.2745H85.434C84.1628 91.7909 82.8902 91.6296 81.6197 91.6296C81.937 90.8235 80.6658 89.2112 83.2089 89.5337V88.8887C80.6651 88.0826 79.7119 85.8254 82.2549 85.1805C85.1153 84.5356 88.9302 85.1805 92.4257 84.858C94.9696 84.6968 97.5126 84.5356 100.054 84.858C103.55 85.3417 107.365 85.1805 110.861 85.8254C112.133 85.9866 114.358 85.503 114.994 85.9866C115.451 86.218 115.469 86.5614 115.399 86.9443C113.309 86.8876 111.225 86.8697 109.164 86.7995C106.637 86.6189 104.11 86.4181 101.584 86.0979C104.054 86.5405 106.591 86.7122 109.164 86.7995C111.22 86.9465 113.277 87.0802 115.333 87.2533C115.257 87.5825 115.185 87.9259 115.31 88.2438H116.264C117.536 89.05 117.217 90.1786 116.582 90.9847C116.42 91.1482 116.238 91.3333 116.035 91.5177L116.037 91.5169Z" fill="#CAA164"/>
<path d="M114.596 117.005C114.63 116.879 114.664 116.753 114.696 116.629C115.18 114.324 115.018 112.02 115.341 109.459C115.663 107.667 115.502 105.618 115.502 103.826C115.205 108.074 115.318 112.539 114.201 116.62C113.82 116.207 113.517 115.715 113.517 115.141C113.667 113.759 113.772 112.396 113.844 111.044H114.484C114 107.203 115.29 103.618 114.484 99.7778C114.398 99.9144 114.267 99.8331 114.162 99.8047C114.162 99.795 114.162 99.786 114.162 99.7778C114.162 99.7868 114.162 99.7957 114.162 99.8047C114.319 103.583 114.164 107.117 113.851 110.89C114.153 105.03 113.838 99.3815 113.838 93.3757V92.3516C114.322 91.3275 114.483 90.3027 114.483 89.2793C115.289 89.5346 116.902 88.5105 116.579 90.5595H117.224C118.03 88.5105 120.287 87.7425 120.932 89.7914C121.577 92.0956 120.932 95.1687 121.255 97.9849C121.416 100.034 121.577 102.083 121.255 104.13C120.771 106.947 120.932 110.02 120.287 112.836C120.126 113.861 120.61 115.653 120.126 116.166C119.895 116.534 119.551 116.548 119.169 116.492C119.225 114.808 119.243 113.13 119.313 111.47C119.494 109.434 119.695 107.397 120.015 105.363C119.572 107.353 119.401 109.397 119.313 111.47C119.166 113.125 119.033 114.782 118.86 116.439C118.53 116.378 118.187 116.32 117.869 116.421V117.189C117.063 118.214 115.934 117.957 115.128 117.446C114.965 117.315 114.78 117.169 114.595 117.005L114.596 117.005Z" fill="#CAA164"/>
<path d="M121.65 122.089C121.496 122.049 121.343 122.009 121.19 121.97C118.363 121.374 115.509 121.444 112.352 121.05C110.142 120.677 107.603 120.796 105.387 120.779C108.014 120.95 110.707 121.04 113.37 121.256C116.033 121.47 118.666 121.807 121.161 122.465C120.637 122.823 120.018 123.104 119.311 123.079C118.463 122.972 117.62 122.881 116.781 122.801C115.942 122.719 115.106 122.653 114.273 122.594C114.278 122.431 114.286 122.114 114.29 121.953C111.914 122.134 109.628 121.886 107.337 121.696C105.047 121.507 102.751 121.37 100.379 121.774C100.547 121.86 100.447 121.992 100.412 122.096C100.4 122.096 100.389 122.096 100.379 122.097C100.389 122.097 100.4 122.097 100.412 122.096C100.381 122.187 100.4 122.258 100.695 122.259C100.4 122.259 100.381 122.188 100.412 122.096C105.076 121.938 109.439 122.148 114.083 122.58C110.475 122.334 106.924 122.286 103.352 122.307C99.7799 122.329 96.1866 122.426 92.4844 122.486C92.1694 122.492 91.5371 122.502 91.2214 122.507C89.9495 122.05 88.6798 121.914 87.4161 121.948C87.7117 121.135 86.401 119.554 88.9485 119.813C88.9448 119.652 88.9373 119.33 88.9336 119.169C86.3749 118.426 85.3433 116.195 87.8886 115.485C90.7556 114.768 94.6117 115.347 98.1303 115.009C100.693 114.835 103.26 114.682 105.819 115.028C109.336 115.545 113.182 115.46 116.679 116.214C117.952 116.413 120.207 116.01 120.828 116.519C121.278 116.769 121.283 117.113 121.198 117.492C119.103 117.353 117.013 117.264 114.948 117.139C112.416 116.89 109.882 116.635 107.346 116.284C109.825 116.757 112.367 116.982 114.948 117.139C117.007 117.341 119.066 117.546 121.12 117.798C121.032 118.124 120.946 118.464 121.059 118.787C121.059 118.787 121.695 118.813 122.013 118.826C123.252 119.683 122.882 120.798 122.217 121.577C122.05 121.734 121.861 121.912 121.652 122.088L121.65 122.089Z" fill="#CAA164"/>
<path d="M151.476 72.8011C151.187 72.9743 150.896 73.1474 150.609 73.3184L150.118 73.6274L149.633 73.9439C149.31 74.1559 148.988 74.3693 148.667 74.585C148.025 75.0165 147.387 75.4539 146.75 75.9002C146.117 76.3511 145.485 76.8079 144.853 77.2699C144.221 77.7327 143.585 78.197 142.954 78.6777C141.69 79.6346 140.406 80.602 139.108 81.6029C138.455 82.0986 137.795 82.5994 137.128 83.1055C136.463 83.6146 135.786 84.1251 135.097 84.6372C134.114 85.3314 133.131 86.0934 132.139 86.8809C131.644 87.2758 131.144 87.6729 130.653 88.0849C130.161 88.4954 129.669 88.9105 129.18 89.3277C128.691 89.7457 128.2 90.1615 127.718 90.5839C127.237 91.0079 126.759 91.4297 126.284 91.8477C125.81 92.2664 125.339 92.6814 124.875 93.0912C124.413 93.5032 123.957 93.91 123.509 94.3101C127.869 90.6474 132.348 86.9048 136.926 83.3772C141.502 79.8474 146.18 76.5384 150.886 73.7304C150.555 74.2088 150.177 74.7119 149.726 75.2068C149.275 75.7017 148.752 76.1914 148.142 76.6519C145.123 78.7688 142.183 80.9155 139.331 83.1279C139.23 83.001 139.03 82.7532 138.93 82.6285C135.082 86.0337 131.149 89.059 127.29 92.1895C123.434 95.3193 119.653 98.555 116.175 102.355C116.5 102.168 116.432 102.413 116.448 102.54C116.43 102.557 116.412 102.575 116.396 102.59C116.413 102.574 116.43 102.557 116.448 102.54C116.461 102.654 116.54 102.677 117.005 102.24C116.54 102.677 116.461 102.654 116.448 102.54C120.084 99.0387 123.717 95.7716 127.442 92.6157C131.167 89.4606 134.985 86.4174 139.004 83.3787C135.915 85.777 132.9 88.2141 129.958 90.7206L128.853 91.6581L127.759 92.606L126.666 93.5555C126.303 93.8727 125.937 94.1877 125.578 94.5094C124.858 95.1513 124.138 95.7933 123.417 96.4352C123.055 96.7554 122.699 97.0808 122.342 97.4063C121.986 97.7317 121.629 98.0572 121.272 98.3834C120.915 98.7096 120.558 99.035 120.202 99.3612C119.846 99.6881 119.493 100.02 119.139 100.35C118.432 101.012 117.724 101.674 117.014 102.336C115.609 103.676 114.194 105.014 112.796 106.383C112.094 107.064 111.388 107.744 110.691 108.438C109.976 109.144 109.259 109.851 108.54 110.561C107.215 111.856 105.884 113.154 104.55 114.457C104.215 114.782 103.881 115.109 103.547 115.435L103.421 115.558L103.359 115.619L103.327 115.65C103.316 115.642 103.305 115.63 103.294 115.621L103.029 115.382L102.496 114.905C102.143 114.587 101.789 114.269 101.435 113.951C101.082 113.633 100.728 113.318 100.377 112.993C100.136 112.774 99.8362 112.499 99.5055 112.196C99.1778 111.887 98.8248 111.538 98.4695 111.196C98.2933 111.024 98.1119 110.852 97.944 110.681C97.8246 110.56 97.7081 110.44 97.5969 110.326C97.4207 110.146 97.2603 109.983 97.1349 109.849C95.4621 107.396 93.7409 105.07 92.0547 102.71C92.5899 102.769 92.7698 101.976 93.1997 101.782C93.3072 101.733 93.4289 101.72 93.5752 101.766C93.7222 101.811 93.8946 101.913 94.1014 102.095C94.2051 102.186 94.3149 102.298 94.438 102.43C94.5612 102.561 94.6948 102.716 94.8396 102.895C94.9829 103.075 95.1434 103.276 95.3158 103.506C95.4009 103.622 95.4905 103.743 95.5845 103.872C95.6793 103.999 95.7779 104.135 95.8801 104.277C96.0055 104.176 96.2563 103.973 96.3817 103.872C95.6666 102.668 95.2083 101.556 94.9702 100.652C94.7336 99.7448 94.7194 99.041 94.8866 98.6267C94.9695 98.4155 95.0994 98.2766 95.2755 98.2199C95.3636 98.1908 95.4636 98.1848 95.5741 98.1968C95.6838 98.208 95.8055 98.2393 95.9369 98.293C96.2011 98.3998 96.5041 98.5939 96.8602 98.8768C97.0371 99.0186 97.2229 99.185 97.426 99.3716C97.6282 99.5582 97.838 99.7725 98.0679 100.006C98.3172 100.274 98.5725 100.547 98.8315 100.826C99.086 101.108 99.3532 101.388 99.6152 101.68C100.15 102.254 100.69 102.854 101.258 103.455C101.824 104.058 102.405 104.675 103.01 105.289L103.038 105.318C103.044 105.324 103.042 105.321 103.045 105.324C103.048 105.326 103.05 105.329 103.053 105.332C103.058 105.338 103.058 105.337 103.06 105.341L103.072 105.354L103.096 105.383C103.113 105.405 103.13 105.427 103.147 105.45L103.176 105.487L103.192 105.507C103.192 105.507 103.197 105.514 103.2 105.515L103.213 105.506C103.248 105.478 103.284 105.451 103.32 105.424C103.356 105.395 103.395 105.363 103.434 105.33L103.492 105.279L103.507 105.265L103.635 105.142L103.898 104.886C104.6 104.204 105.297 103.517 105.983 102.827C106.326 102.482 106.668 102.137 107.009 101.795C107.348 101.45 107.684 101.106 108.016 100.761C111.927 96.795 115.927 92.9009 120.316 89.4598C123.349 87.1131 126.429 84.561 129.572 82.0874C129.964 81.7776 130.357 81.4678 130.749 81.1581C131.144 80.8528 131.54 80.5483 131.934 80.2437C132.33 79.9407 132.725 79.6384 133.12 79.3368C133.516 79.036 133.91 78.7359 134.31 78.4448C135.107 77.8589 135.903 77.2819 136.7 76.7183C137.097 76.4347 137.499 76.1615 137.899 75.8898C138.3 75.6188 138.7 75.3509 139.1 75.0881C140.238 74.2872 141.705 73.0623 143.056 71.9703C143.225 71.8345 143.392 71.7001 143.557 71.5687C143.723 71.4404 143.887 71.3142 144.046 71.1918C144.365 70.9485 144.67 70.7223 144.955 70.523C145.525 70.1244 146.012 69.8333 146.362 69.7206C147.295 69.3041 147.536 69.5616 147.642 69.9572C143.96 72.6376 140.357 75.4009 136.806 78.1477C132.39 81.4462 128.026 84.8186 123.652 88.1902C128.015 84.9902 132.369 81.5813 136.806 78.1477C140.398 75.4673 144.025 72.8317 147.712 70.2894C147.778 70.6506 147.858 71.0201 148.266 71.1119C148.266 71.1119 149.376 70.2916 149.93 69.8811C152.63 68.8876 152.734 70.2147 152.112 71.677C151.928 72.0166 151.722 72.3988 151.481 72.8063L151.476 72.8011Z" fill="#CAA164"/>
<path d="M74.1869 176.657C74.1816 176.504 74.1757 176.349 74.1704 176.196C74.1212 175.497 74.001 174.805 73.8689 174.116C73.7995 173.771 73.7338 173.425 73.6479 173.08C73.5651 172.734 73.4777 172.387 73.3889 172.038C73.2986 171.69 73.212 171.339 73.1157 170.984C73.0217 170.63 72.9261 170.272 72.8298 169.91C72.7351 169.548 72.6455 169.182 72.5537 168.809C72.4619 168.436 72.3738 168.058 72.2909 167.672C71.9207 165.479 70.9645 163.133 70.2816 161.014C70.9489 163.569 71.7654 166.133 72.4298 168.692C73.0948 171.249 73.6069 173.812 73.6882 176.312C73.4412 176.122 73.2135 175.906 73.0142 175.655C72.8149 175.404 72.6559 175.118 72.5626 174.788C72.4857 174.381 72.4118 173.977 72.326 173.573C72.2379 173.168 72.1484 172.766 72.0558 172.365C71.8767 171.564 71.6654 170.765 71.4557 169.972C71.6109 169.923 71.914 169.827 72.0663 169.779C71.128 167.622 70.601 165.399 70.036 163.16C69.8942 162.604 69.7531 162.039 69.6008 161.482C69.5247 161.203 69.4463 160.924 69.3642 160.646C69.2836 160.367 69.2 160.087 69.1119 159.808C68.9372 159.249 68.7394 158.698 68.5267 158.141C68.314 157.585 68.0759 157.032 67.8049 156.482C67.7721 156.671 67.6168 156.611 67.5063 156.606C67.5026 156.595 67.4989 156.584 67.4959 156.573C67.4996 156.584 67.5026 156.595 67.5063 156.606C67.4093 156.601 67.3474 156.64 67.4347 156.928C67.3474 156.64 67.4101 156.601 67.5063 156.606C69.0134 161.132 70.3129 165.321 71.4072 169.791C71.2945 169.362 71.1683 168.932 71.0459 168.504C70.922 168.076 70.7973 167.649 70.6697 167.223C70.4092 166.366 70.145 165.521 69.871 164.667C69.5971 163.814 69.3179 162.968 69.0373 162.109L68.6125 160.827C68.4722 160.396 68.3311 159.965 68.1901 159.534C67.9034 158.675 67.631 157.798 67.3526 156.923C67.2108 156.488 67.0809 156.042 66.9473 155.598C66.8144 155.154 66.6815 154.709 66.5479 154.262C66.4233 153.81 66.2986 153.358 66.174 152.903C66.0508 152.448 65.9209 151.995 65.8127 151.529C65.5888 150.601 65.3529 149.673 65.1693 148.715C65.1028 148.39 64.9707 147.739 64.9043 147.415C65.0275 146.713 65.0767 146.031 65.0655 145.362C65.064 145.194 65.0536 145.029 65.0491 144.862C65.0446 144.695 65.0372 144.527 65.0267 144.361C65.0058 144.029 64.9722 143.698 64.9289 143.369C65.3507 143.482 65.9179 143.161 66.383 143.145C66.8502 143.129 67.2063 143.405 67.2212 144.698C67.3802 144.673 67.6989 144.624 67.8587 144.6C67.9684 143.941 68.1931 143.372 68.4715 142.933C68.7514 142.493 69.0918 142.182 69.447 142.027C69.6254 141.947 69.8076 141.907 69.9867 141.91C70.1659 141.915 70.3435 141.96 70.5144 142.049C70.8556 142.228 71.1676 142.586 71.4049 143.154C71.4669 143.314 71.5236 143.479 71.5766 143.646C71.6281 143.814 71.6804 143.985 71.7334 144.159C71.8386 144.509 71.9289 144.871 72.0103 145.244C72.1603 145.99 72.326 146.78 72.4678 147.591C72.5052 147.794 72.5372 147.998 72.5783 148.204C72.6208 148.409 72.6634 148.615 72.7059 148.822C72.7918 149.235 72.8806 149.65 72.9747 150.064C73.0717 150.479 73.1896 150.891 73.3098 151.299C73.3703 151.503 73.4337 151.705 73.4994 151.906C73.5658 152.107 73.6323 152.305 73.7114 152.502C73.9174 153.081 74.1234 153.658 74.3212 154.237C74.5265 154.817 74.7317 155.4 74.9184 155.986L75.1945 156.871C75.2848 157.168 75.3699 157.466 75.4506 157.766C75.5312 158.066 75.6043 158.368 75.6752 158.672C75.7469 158.977 75.8118 159.285 75.87 159.595C75.9454 160.022 76.0313 160.451 76.1268 160.883C76.2239 161.316 76.3291 161.75 76.4388 162.186C76.6583 163.054 76.9016 163.94 77.1375 164.82C77.3733 165.703 77.6032 166.595 77.8018 167.484C77.8988 167.932 77.9884 168.379 78.0675 168.826C78.1474 169.271 78.2161 169.716 78.2638 170.166C78.3176 170.486 78.428 170.852 78.5579 171.233C78.6229 171.423 78.693 171.618 78.7639 171.812C78.8319 172.009 78.899 172.205 78.9647 172.396C79.2215 173.164 79.423 173.865 79.2723 174.241C79.1655 174.752 78.8378 174.857 78.4504 174.887C78.3362 174.369 78.1996 173.862 78.0683 173.352C78.0018 173.098 77.9354 172.843 77.8697 172.589C77.804 172.335 77.7376 172.081 77.6659 171.829C77.386 170.823 77.1069 169.82 76.8292 168.823C76.2433 166.351 75.6334 163.891 75.1587 161.415C75.5006 163.877 76.141 166.335 76.8292 168.823L77.0091 169.577L77.0994 169.954L77.1852 170.333L77.5271 171.849C77.5853 172.1 77.6383 172.355 77.6898 172.609L77.8451 173.372C77.9459 173.882 78.0541 174.387 78.1377 174.902C77.8003 174.914 77.451 174.932 77.1748 175.135C77.1748 175.135 77.3338 175.75 77.4129 176.056C76.9494 177.484 75.77 177.431 74.8348 177.034C74.6362 176.922 74.4138 176.797 74.1861 176.654L74.1869 176.657Z" fill="#CAA164"/>
<path d="M92.4292 147.525C92.3232 147.503 92.2164 147.48 92.1119 147.46C90.1817 147.187 88.3201 147.523 86.2062 147.356C84.7231 147.141 83.0667 147.403 81.6037 147.464C83.3429 147.537 85.1231 147.477 86.8937 147.487C88.6657 147.498 90.428 147.582 92.159 147.953C91.8634 148.37 91.4902 148.714 91.0177 148.763C90.7295 148.754 90.4437 148.75 90.1585 148.745C89.8734 148.74 89.589 148.737 89.3061 148.736C88.7403 148.737 88.1783 148.736 87.6192 148.748C87.6057 148.586 87.5804 148.27 87.5669 148.11C86.0129 148.477 84.4722 148.382 82.9421 148.298C81.4104 148.215 79.8899 148.153 78.3232 148.592C78.4374 148.675 78.3739 148.809 78.353 148.913C78.3456 148.913 78.3381 148.914 78.3307 148.915C78.3381 148.915 78.3456 148.914 78.353 148.913C78.3344 149.005 78.3486 149.076 78.5456 149.07C78.3486 149.075 78.3344 149.005 78.353 148.913C81.4589 148.682 84.3625 148.688 87.4915 148.751C85.0709 148.798 82.7062 148.933 80.3214 149.06C77.938 149.186 75.5345 149.297 73.0564 149.269C72.8452 149.267 72.4227 149.262 72.2115 149.26C71.3747 148.76 70.5387 148.582 69.6975 148.554C69.9304 147.754 69.1511 146.118 70.8015 146.489C70.8052 146.328 70.8134 146.005 70.8179 145.844C69.1787 144.989 68.6734 142.715 70.3051 142.119C70.7634 141.974 71.256 141.902 71.7733 141.877C72.2898 141.855 72.831 141.869 73.3848 141.895C73.9387 141.923 74.5052 141.949 75.0718 141.957C75.6383 141.959 76.2056 141.936 76.7579 141.848C78.368 141.665 79.9668 141.454 81.5895 141.704C81.8687 141.751 82.1516 141.79 82.436 141.819C82.7204 141.847 83.007 141.867 83.2951 141.883C83.8714 141.916 84.4536 141.92 85.0365 141.933C85.6195 141.945 86.2025 141.955 86.7824 141.995C87.3617 142.028 87.9387 142.095 88.5082 142.203C88.9195 142.244 89.4673 142.117 89.9674 142.023C90.4675 141.93 90.9206 141.885 91.1483 142.103C91.4625 142.301 91.5125 142.64 91.5096 143.026C90.169 143.115 88.8359 143.23 87.5124 143.267C85.8815 143.222 84.2513 143.134 82.6226 142.896C84.2222 143.258 85.8599 143.317 87.5124 143.267C88.8396 143.306 90.1675 143.308 91.5013 143.338C91.4894 143.67 91.4797 144.017 91.5954 144.324C91.5954 144.324 92.0044 144.277 92.209 144.254C93.1196 144.962 93.0524 146.106 92.7277 146.954C92.6404 147.129 92.5419 147.326 92.4292 147.523V147.525Z" fill="#CAA164"/>
<path d="M88.8358 161.257C88.7664 161.228 88.6962 161.198 88.6276 161.17C87.3609 160.766 86.1345 160.994 84.7476 160.727C83.775 160.444 82.686 160.641 81.7261 160.66C82.8667 160.784 84.0356 160.793 85.1985 160.891C86.3622 160.989 87.5199 161.178 88.6544 161.664C88.4566 162.059 88.2081 162.378 87.8976 162.396C87.1414 162.292 86.3987 162.224 85.665 162.186C85.6575 162.023 85.6434 161.706 85.6359 161.546C84.6125 161.834 83.6019 161.671 82.5987 161.536C81.594 161.401 80.5975 161.299 79.5667 161.71C79.6413 161.796 79.5988 161.928 79.5839 162.032C79.5786 162.032 79.5742 162.032 79.5689 162.033C79.5734 162.033 79.5786 162.033 79.5839 162.032C79.5712 162.124 79.5801 162.194 79.7093 162.193C79.5801 162.194 79.5712 162.123 79.5839 162.032C81.6224 161.857 83.5272 161.961 85.5814 162.182C83.9915 162.104 82.4389 162.152 80.8744 162.22C79.3099 162.287 77.7335 162.369 76.1093 162.348C75.9712 162.346 75.6935 162.343 75.5554 162.34C75.009 161.847 74.4619 161.675 73.9103 161.66C74.067 160.858 73.5647 159.233 74.6463 159.582C74.65 159.421 74.6567 159.099 74.6604 158.938C73.5893 158.105 73.2684 155.838 74.344 155.22C74.9478 154.914 75.6405 154.925 76.3683 154.975C77.0953 155.024 77.8566 155.108 78.5844 154.945C79.6428 154.781 80.6945 154.605 81.7582 154.904C83.2264 155.355 84.8096 155.135 86.3017 155.702C86.8436 155.837 87.7438 155.299 88.0394 155.765C88.2446 155.984 88.2745 156.326 88.27 156.71C87.387 156.709 86.5092 156.742 85.6389 156.71C84.567 156.58 83.4966 156.42 82.4285 156.127C83.4765 156.542 84.5521 156.673 85.6389 156.71C86.5107 156.818 87.3848 156.901 88.2618 157.02C88.2514 157.351 88.2417 157.695 88.3156 158.009C88.3156 158.009 88.585 157.991 88.7201 157.983C89.3135 158.752 89.259 159.886 89.0388 160.709C88.9799 160.877 88.9134 161.066 88.8373 161.256L88.8358 161.257Z" fill="#CAA164"/>
<path d="M95.6506 165.684C95.6842 165.582 95.7185 165.479 95.7506 165.377C96.2343 163.496 96.0731 161.615 96.3955 159.526C96.718 158.063 96.5568 156.392 96.5568 154.929C96.2597 158.395 96.3724 162.039 95.2558 165.37C94.8751 165.033 94.5713 164.631 94.5713 164.162C94.7213 163.035 94.8266 161.922 94.8982 160.819H95.5387C95.055 157.685 96.3448 154.759 95.5387 151.625C95.4528 151.736 95.3214 151.67 95.2169 151.647C95.2169 151.639 95.2169 151.632 95.2162 151.625C95.2162 151.632 95.2162 151.639 95.2169 151.647C95.1251 151.626 95.055 151.639 95.055 151.834C95.055 151.639 95.1259 151.626 95.2169 151.647C95.3737 154.73 95.2184 157.614 94.9057 160.694C95.2072 155.912 94.893 151.302 94.893 146.401V145.565C95.3767 144.729 95.5379 143.893 95.5379 143.058C96.344 143.266 97.9563 142.431 97.6339 144.103H98.2788C99.0849 142.431 101.342 141.804 101.987 143.476C102.632 145.356 101.987 147.864 102.309 150.162C102.471 151.834 102.632 153.506 102.309 155.178C101.826 157.476 101.987 159.984 101.342 162.282C101.181 163.118 101.665 164.581 101.181 164.999C100.95 165.299 100.606 165.311 100.223 165.265C100.28 163.891 100.298 162.522 100.368 161.168C100.549 159.506 100.749 157.844 101.07 156.184C100.627 157.808 100.455 159.475 100.368 161.168C100.221 162.519 100.087 163.871 99.9142 165.223C99.585 165.174 99.2417 165.126 98.9237 165.209V165.836C98.1176 166.672 96.989 166.463 96.1828 166.045C96.0194 165.939 95.8342 165.819 95.6499 165.686L95.6506 165.684Z" fill="#CAA164"/>
<path d="M94.9787 175.607C95.0123 175.577 95.0467 175.547 95.0788 175.516C95.5625 174.96 95.4012 174.403 95.7237 173.785C96.0461 173.352 95.8849 172.858 95.8849 172.425C95.5878 173.451 95.7005 174.528 94.5839 175.513C94.2032 175.414 93.8994 175.295 93.8994 175.157C94.0494 174.823 94.1547 174.494 94.2263 174.168H94.8668C94.3831 173.241 95.6729 172.375 94.8668 171.448C94.7809 171.48 94.6496 171.461 94.5451 171.454C94.5451 171.452 94.5451 171.45 94.5443 171.448C94.5443 171.45 94.5443 171.452 94.5451 171.454C94.7018 172.366 94.5466 173.22 94.2338 174.13C94.5354 172.716 94.2211 171.353 94.2211 169.903V169.655C94.7048 169.408 94.866 169.161 94.866 168.913C95.6722 168.975 97.2845 168.728 96.962 169.223H97.6069C98.4131 168.728 100.67 168.543 101.315 169.037C101.96 169.593 101.315 170.335 101.638 171.015C101.799 171.51 101.96 172.004 101.638 172.499C101.154 173.179 101.315 173.921 100.67 174.6C100.509 174.847 100.993 175.28 100.509 175.404C100.278 175.492 99.9343 175.496 99.5514 175.482C99.6081 175.076 99.626 174.671 99.6962 174.27C99.8768 173.779 100.078 173.287 100.398 172.796C99.9552 173.276 99.7835 173.769 99.6962 174.27C99.5491 174.669 99.4155 175.069 99.2423 175.469C98.9132 175.454 98.5698 175.441 98.2518 175.465V175.65C97.4457 175.897 96.3171 175.835 95.5109 175.712C95.3475 175.681 95.1624 175.645 94.978 175.606L94.9787 175.607Z" fill="#CAA164"/>
<path d="M102.252 19.4522C102.262 19.2335 102.272 19.014 102.282 18.7953C102.289 18.5766 102.295 18.3579 102.301 18.1407C102.328 16.1298 102.221 14.1152 102.007 12.0969C101.898 11.0877 101.761 10.0786 101.598 9.06716C101.556 8.81487 101.514 8.56183 101.471 8.30805C101.454 8.19459 101.435 8.08113 101.417 7.96768C101.399 7.85422 101.383 7.75644 101.358 7.65194C101.333 7.54893 101.3 7.44667 101.249 7.35262C101.199 7.25857 101.127 7.17497 101.039 7.116C100.95 7.05704 100.847 7.02195 100.742 7.00031C100.637 6.97866 100.53 6.96896 100.422 6.95925C100.311 6.94955 100.201 6.94059 100.091 6.93089C99.0321 6.85849 97.9647 6.78608 96.8869 6.71219C94.6834 6.57783 92.4367 6.41884 90.131 6.26806C89.3241 6.20163 88.503 6.13594 87.6708 6.08743C86.8377 6.0404 85.9943 5.9986 85.1426 5.96277C84.7172 5.94561 84.2894 5.92844 83.8603 5.91127C83.4311 5.8956 83.0011 5.88739 82.5697 5.87694C81.7068 5.85678 80.841 5.84111 79.9744 5.82692L79.325 5.81722L78.6756 5.81423C78.2427 5.81274 77.8105 5.812 77.379 5.8105C76.5162 5.8105 75.657 5.80976 74.8054 5.80901C73.102 5.82319 71.427 5.83663 69.8103 5.85006C70.7687 5.85305 71.7301 5.87544 72.6937 5.88589C73.1759 5.89186 73.6581 5.89858 74.141 5.90455C74.624 5.90978 75.1077 5.91575 75.5913 5.92769C77.5276 5.96875 79.4713 5.9986 81.4179 6.0613C81.9046 6.07474 82.3913 6.08892 82.8787 6.10236L83.6095 6.12326L84.3402 6.15013C85.3143 6.18745 86.2891 6.22477 87.264 6.26284L87.9947 6.29195L88.7255 6.32778C89.2121 6.35241 89.6995 6.37629 90.1862 6.40093C90.6729 6.42556 91.1596 6.45094 91.6455 6.47557L92.3747 6.51364L93.1032 6.55917C94.0736 6.62187 95.0432 6.68457 96.0113 6.74652L96.7368 6.79579L97.4609 6.85177C97.9431 6.88984 98.4253 6.9279 98.9067 6.96597C99.1471 6.98538 99.3882 7.00479 99.6285 7.02419L99.989 7.05405L100.033 7.05778L100.05 7.06002L100.085 7.0645L100.153 7.07346C100.335 7.09958 100.504 7.11526 100.668 7.1593C100.75 7.18169 100.828 7.21453 100.897 7.26305C100.966 7.31231 101.023 7.37874 101.064 7.45339C101.145 7.60491 101.17 7.77958 101.186 7.94304L101.209 8.2028L101.22 8.33044L101.267 8.66782C101.298 8.89548 101.33 9.12389 101.361 9.3508C101.389 9.57846 101.417 9.80612 101.445 10.0338C101.55 10.9444 101.641 11.8521 101.7 12.7575C101.762 13.6629 101.804 14.5638 101.82 15.461C101.832 15.9089 101.83 16.3568 101.831 16.8016C101.828 17.0241 101.825 17.2465 101.822 17.4689C101.82 17.6906 101.815 17.9123 101.807 18.134C101.359 16.7255 100.928 15.0692 100.691 13.1203C100.583 11.9416 100.441 10.7698 100.267 9.60533C100.225 9.31423 100.176 9.02387 100.131 8.73351L100.114 8.62453L100.105 8.57004L100.102 8.55661C100.102 8.55138 100.101 8.5469 100.101 8.54839V8.54616L100.103 8.52749L100.107 8.48868L100.108 8.46853C100.108 8.46256 100.111 8.46032 100.111 8.45584C100.114 8.44763 100.115 8.43942 100.116 8.43121C100.118 8.41404 100.119 8.39538 100.115 8.37821C100.108 8.34163 100.081 8.31924 100.049 8.30506C100.032 8.2976 100.019 8.29088 99.995 8.28416L99.9763 8.27894L99.9666 8.27595C99.9666 8.27595 99.9659 8.27595 99.9636 8.27595L99.9353 8.27371L99.8778 8.26998L99.421 8.23714C98.8119 8.19459 98.2036 8.1513 97.596 8.10875C97.2922 8.08785 96.9884 8.06695 96.6846 8.04605C96.3808 8.02814 96.0778 8.01022 95.774 7.99231C95.7814 7.82959 95.7964 7.51236 95.8038 7.35262C88.8852 7.27798 82.2129 6.91596 75.5242 6.7301C75.1062 6.71592 74.6882 6.70621 74.2702 6.69875L73.0154 6.67412C72.1787 6.65919 71.3419 6.64351 70.5037 6.63381C69.6655 6.63008 68.8265 6.62859 67.9868 6.63083C67.1463 6.63381 66.3051 6.63456 65.4616 6.6562C63.7754 6.69502 62.0818 6.73682 60.3792 6.83908C59.5283 6.8861 58.6743 6.93985 57.8182 7.00105C56.962 7.06599 56.1029 7.14511 55.2415 7.22871C55.7364 7.29514 55.4498 7.43771 55.352 7.54594C55.3177 7.54744 55.2856 7.54893 55.2542 7.55042C55.2856 7.54893 55.3184 7.54744 55.352 7.54594C68.9347 6.85177 81.677 7.04658 95.2194 7.95946C89.9601 7.64671 84.7403 7.45787 79.534 7.38546C74.3276 7.31455 69.1355 7.35262 63.9292 7.48548C58.7229 7.61909 53.5039 7.84675 48.2415 8.16025C46.9263 8.24385 45.6082 8.32745 44.2862 8.41105C42.9651 8.5051 41.6409 8.59915 40.3123 8.69395C38.9844 8.79919 37.6527 8.90444 36.3166 9.01043C35.6031 9.07164 34.8872 9.13359 34.1684 9.19555C34.1498 9.19704 34.1259 9.19928 34.0998 9.20152C34.0751 9.2045 34.043 9.21271 34.0311 9.24108C34.0206 9.26795 34.0266 9.29781 34.0274 9.32319C34.0288 9.34931 34.0303 9.3732 34.0318 9.39186C33.9721 9.40902 33.9191 9.44859 33.8721 9.50606L33.8549 9.52845C33.8475 9.51352 33.8475 9.60309 33.8445 9.6546L33.831 10.0039L33.8094 10.7026C33.7848 11.6341 33.7781 12.5649 33.7863 13.4942C33.8027 15.3528 33.8788 17.2077 33.996 19.0588C33.1331 18.1848 31.7575 21.9915 31.6119 14.5601C31.4514 14.5706 31.129 14.5907 30.9685 14.6004C30.6311 22.0624 28.5538 24.9832 27.4424 17.613C27.1498 15.5394 26.9274 13.2875 26.7422 10.9161C26.7198 10.6197 26.6975 10.3212 26.6743 10.0218C26.6355 9.44784 26.5967 8.87085 26.5579 8.29013C26.5385 7.99455 26.5191 7.69822 26.4996 7.40114C26.4787 7.10406 26.4653 6.80624 26.4795 6.52185C26.4922 6.23671 26.5265 5.96352 26.5795 5.70526C26.6079 5.57836 26.6355 5.44998 26.6728 5.33204C26.6907 5.27308 26.7057 5.20888 26.7273 5.15365L26.7885 4.98346C26.8699 4.75655 26.9662 4.55427 27.0826 4.34527C27.1408 4.24151 27.2102 4.14075 27.2789 4.03326C27.3133 3.97952 27.3513 3.92578 27.3916 3.87427C27.4334 3.82277 27.47 3.76679 27.5193 3.72051C27.6021 3.61452 27.6939 3.51524 27.788 3.42418C27.8805 3.33162 27.9761 3.24802 28.0716 3.16965C28.2627 3.0129 28.4575 2.87929 28.665 2.75911C29.083 2.52324 29.5712 2.31499 30.143 2.19108C30.7102 2.0612 31.3484 2.03956 31.9642 1.98283C32.5644 1.93356 33.166 1.8843 33.7691 1.83504C34.0915 1.8104 34.4148 1.78503 34.738 1.76039C35.3851 1.7074 36.036 1.66709 36.6884 1.62156C37.3407 1.57603 37.9946 1.53049 38.65 1.48496C38.9777 1.46182 39.3053 1.43794 39.633 1.41405L40.6168 1.34911C41.929 1.26477 43.2405 1.16698 44.5452 1.07144C45.85 0.981124 47.1465 0.880356 48.4282 0.765407C55.8924 0.208572 63.3813 -0.181809 70.8657 0.0869049C76.0116 0.292172 81.3851 0.427275 86.7549 0.671357C88.0977 0.7251 89.439 0.802728 90.7766 0.878117C91.4454 0.916931 92.1135 0.953506 92.7793 0.998292C93.4451 1.04681 94.1102 1.09458 94.7723 1.14235C95.4343 1.19386 96.0949 1.24536 96.7533 1.29686C97.4116 1.3521 98.0662 1.41629 98.7186 1.47899C99.0448 1.51183 99.3702 1.54393 99.6949 1.57603C99.8569 1.59245 100.02 1.60961 100.182 1.62604L100.303 1.63873L100.388 1.64619L100.493 1.65515L100.909 1.69023C101.184 1.71337 101.462 1.73576 101.735 1.7701C102.007 1.80443 102.273 1.85071 102.531 1.91192C103.046 2.03284 103.525 2.21571 103.966 2.47547C104.128 2.56728 104.286 2.67626 104.444 2.7927C104.598 2.91511 104.752 3.04499 104.895 3.1898C105.181 3.48091 105.433 3.81904 105.642 4.19524C105.855 4.5692 106.025 4.98496 106.163 5.43057C106.237 5.65301 106.281 5.88589 106.334 6.11803C106.385 6.35092 106.438 6.58529 106.49 6.82116C106.617 7.37277 106.652 7.57282 106.718 7.89378C106.781 8.19459 106.84 8.49764 106.897 8.80143C106.956 9.10448 107.014 9.40828 107.066 9.71133C107.119 10.0136 107.175 10.3144 107.22 10.6123C107.617 12.9926 107.794 15.1655 107.62 16.1418C107.556 16.8397 107.427 17.2054 107.276 17.3734C107.123 17.5413 106.94 17.5115 106.743 17.4182C106.596 14.2989 106.251 11.1922 105.704 8.1304L105.601 7.55639L105.587 7.48324L105.567 7.38397L105.526 7.18542L105.444 6.78907L105.362 6.39272C105.333 6.2606 105.311 6.12699 105.274 5.99711C105.206 5.73586 105.125 5.48058 105.027 5.23501C104.832 4.7461 104.566 4.28705 104.194 3.90935C104.147 3.86308 104.098 3.81829 104.05 3.77351L103.897 3.64736C103.793 3.566 103.682 3.49509 103.57 3.42716C103.342 3.29579 103.102 3.19129 102.854 3.11142C102.358 2.94945 101.827 2.8763 101.281 2.83525C100.799 2.80539 100.317 2.77553 99.8368 2.74642C99.0814 2.69865 98.3267 2.65088 97.5736 2.60311L96.8809 2.54937L96.1882 2.50234L94.8021 2.40754L93.416 2.312C92.954 2.27991 92.4919 2.24632 92.0291 2.21945L89.2547 2.04851C88.7919 2.0209 88.3299 1.98805 87.8671 1.96342L86.4787 1.88729L83.702 1.73054L80.9246 1.59095L79.5355 1.5178L78.1464 1.45361L75.3667 1.32075C76.2728 1.38195 77.182 1.43868 78.0934 1.49168C78.5494 1.5178 79.0055 1.54318 79.4631 1.56931C79.9199 1.59693 80.3774 1.62529 80.8365 1.65365C82.669 1.75666 84.5126 1.86041 86.3653 1.96491C88.2179 2.05822 90.078 2.17615 91.947 2.27319C93.8153 2.38291 95.6911 2.49338 97.5743 2.60385L99.8278 2.77777L101.251 2.88227C101.789 2.92706 102.31 3.00245 102.796 3.16218C103.039 3.24056 103.275 3.34282 103.497 3.4712C103.607 3.53838 103.717 3.60705 103.818 3.68692C103.919 3.76753 104.017 3.85188 104.109 3.94294C104.476 4.31093 104.733 4.76401 104.921 5.24173C105.015 5.48208 105.092 5.73064 105.158 5.98517C105.174 6.04936 105.191 6.11281 105.204 6.177L105.242 6.37107L105.316 6.75772L105.464 7.52504L105.556 8.09382C106.045 11.1251 106.334 14.1839 106.424 17.2428C106.082 17.0375 105.727 16.8487 105.431 17.2353C105.431 17.2353 105.438 17.3517 105.45 17.5406C105.459 17.7302 105.472 17.9922 105.486 18.2833C105.501 18.5744 105.51 18.8946 105.52 19.2006C105.525 19.3537 105.53 19.5029 105.534 19.6433C105.536 19.7836 105.539 19.915 105.542 20.0314C105.495 20.2658 105.449 20.4815 105.398 20.6793C105.346 20.8771 105.293 21.0578 105.239 21.2212C105.132 21.5482 105.016 21.8087 104.898 22.0094C104.663 22.4125 104.419 22.5797 104.178 22.576C103.936 22.5723 103.696 22.3968 103.467 22.1117C103.352 21.9691 103.24 21.799 103.132 21.6086C103.022 21.4183 102.915 21.2078 102.814 20.9846C102.772 20.8704 102.729 20.7532 102.685 20.6323C102.64 20.5121 102.593 20.3875 102.546 20.2598C102.453 20.006 102.356 19.7381 102.253 19.4552L102.252 19.4522Z" fill="#CAA164"/>
</svg>
